<?xml version="1.0" encoding="UTF-8" standalone="no"?>
<!DOCTYPE svg PUBLIC "-//W3C//DTD SVG 1.1//EN"
 "http://www.w3.org/Graphics/SVG/1.1/DTD/svg11.dtd">
<!-- Generated by graphviz version 2.43.0 (0)
 -->
<!-- Title: src/polyfem/assembler/GenericProblem.hpp Pages: 1 -->
<svg width="4224pt" height="710pt"
 viewBox="0.00 0.00 4224.00 710.00" xmlns="http://www.w3.org/2000/svg" xmlns:xlink="http://www.w3.org/1999/xlink">
<g id="graph0" class="graph" transform="scale(1 1) rotate(0) translate(4 706)">
<title>src/polyfem/assembler/GenericProblem.hpp</title>
<!-- Node1 -->
<g id="node1" class="node">
<title>Node1</title>
<g id="a_node1"><a xlink:title=" ">
<polygon fill="#bfbfbf" stroke="black" points="324,-671.5 324,-701.5 452,-701.5 452,-671.5 324,-671.5"/>
<text text-anchor="start" x="332" y="-689.5" font-family="Helvetica,sans-Serif" font-size="10.00">src/polyfem/assembler</text>
<text text-anchor="middle" x="388" y="-678.5" font-family="Helvetica,sans-Serif" font-size="10.00">/GenericProblem.hpp</text>
</a>
</g>
</g>
<!-- Node2 -->
<g id="node2" class="node">
<title>Node2</title>
<g id="a_node2"><a xlink:href="_problem_8hpp.html" target="_top" xlink:title=" ">
<polygon fill="none" stroke="black" points="3787,-615.5 3787,-634.5 3865,-634.5 3865,-615.5 3787,-615.5"/>
<text text-anchor="middle" x="3826" y="-622.5" font-family="Helvetica,sans-Serif" font-size="10.00">Problem.hpp</text>
</a>
</g>
</g>
<!-- Node1&#45;&gt;Node2 -->
<g id="edge1" class="edge">
<title>Node1&#45;&gt;Node2</title>
<path fill="none" stroke="midnightblue" d="M452.1,-684.39C886.39,-676.87 3391.99,-633.51 3776.49,-626.86"/>
<polygon fill="midnightblue" stroke="midnightblue" points="3776.79,-630.35 3786.73,-626.68 3776.67,-623.35 3776.79,-630.35"/>
</g>
<!-- Node12 -->
<g id="node12" class="node">
<title>Node12</title>
<g id="a_node12"><a xlink:title=" ">
<polygon fill="none" stroke="#bfbfbf" points="1579.5,-0.5 1579.5,-19.5 1656.5,-19.5 1656.5,-0.5 1579.5,-0.5"/>
<text text-anchor="middle" x="1618" y="-7.5" font-family="Helvetica,sans-Serif" font-size="10.00">Eigen/Dense</text>
</a>
</g>
</g>
<!-- Node1&#45;&gt;Node12 -->
<g id="edge174" class="edge">
<title>Node1&#45;&gt;Node12</title>
<path fill="none" stroke="midnightblue" d="M323.93,-679.74C213.73,-668.05 0,-636.77 0,-570 0,-570 0,-570 0,-137.5 0,-96.12 9.67,-77.54 45,-56 111.58,-15.41 1310.78,-11.43 1569.19,-11.04"/>
<polygon fill="midnightblue" stroke="midnightblue" points="1569.4,-14.54 1579.39,-11.03 1569.39,-7.54 1569.4,-14.54"/>
</g>
<!-- Node16 -->
<g id="node16" class="node">
<title>Node16</title>
<g id="a_node16"><a xlink:title=" ">
<polygon fill="none" stroke="#bfbfbf" points="3342.5,-62 3342.5,-81 3389.5,-81 3389.5,-62 3342.5,-62"/>
<text text-anchor="middle" x="3366" y="-69" font-family="Helvetica,sans-Serif" font-size="10.00">vector</text>
</a>
</g>
</g>
<!-- Node1&#45;&gt;Node16 -->
<g id="edge176" class="edge">
<title>Node1&#45;&gt;Node16</title>
<path fill="none" stroke="midnightblue" d="M452.29,-685.24C898.06,-683.35 3521.54,-670.77 3874,-635 4027.93,-619.38 4216,-724.72 4216,-570 4216,-570 4216,-570 4216,-204.5 4216,-93.11 4088.02,-145.86 3979,-123 3761.85,-77.46 3493.39,-72.58 3399.95,-72.35"/>
<polygon fill="midnightblue" stroke="midnightblue" points="3399.69,-68.85 3389.69,-72.35 3399.68,-75.85 3399.69,-68.85"/>
</g>
<!-- Node30 -->
<g id="node29" class="node">
<title>Node30</title>
<g id="a_node29"><a xlink:href="_expression_value_8hpp.html" target="_top" xlink:title=" ">
<polygon fill="none" stroke="black" points="1368.5,-313.5 1368.5,-343.5 1505.5,-343.5 1505.5,-313.5 1368.5,-313.5"/>
<text text-anchor="start" x="1376.5" y="-331.5" font-family="Helvetica,sans-Serif" font-size="10.00">polyfem/utils/Expression</text>
<text text-anchor="middle" x="1437" y="-320.5" font-family="Helvetica,sans-Serif" font-size="10.00">Value.hpp</text>
</a>
</g>
</g>
<!-- Node1&#45;&gt;Node30 -->
<g id="edge173" class="edge">
<title>Node1&#45;&gt;Node30</title>
<path fill="none" stroke="midnightblue" d="M381.11,-671.18C358.84,-622.59 294.72,-462.5 374,-380 408.75,-343.84 1225.95,-347.25 1276,-344 1302.7,-342.27 1331.85,-339.81 1357.91,-337.42"/>
<polygon fill="midnightblue" stroke="midnightblue" points="1358.48,-340.88 1368.11,-336.47 1357.83,-333.91 1358.48,-340.88"/>
</g>
<!-- Node35 -->
<g id="node31" class="node">
<title>Node35</title>
<g id="a_node31"><a xlink:title=" ">
<polygon fill="none" stroke="#bfbfbf" points="1714,-319 1714,-338 1756,-338 1756,-319 1714,-319"/>
<text text-anchor="middle" x="1735" y="-326" font-family="Helvetica,sans-Serif" font-size="10.00">array</text>
</a>
</g>
</g>
<!-- Node1&#45;&gt;Node35 -->
<g id="edge175" class="edge">
<title>Node1&#45;&gt;Node35</title>
<path fill="none" stroke="midnightblue" d="M388,-671.28C388,-649.48 388,-606.49 388,-570 388,-570 388,-570 388,-456 388,-299.53 322.3,-404.45 1514,-344 1581.79,-340.56 1661.18,-334.97 1703.94,-331.83"/>
<polygon fill="midnightblue" stroke="midnightblue" points="1704.27,-335.31 1713.99,-331.09 1703.76,-328.33 1704.27,-335.31"/>
</g>
<!-- Node3 -->
<g id="node3" class="node">
<title>Node3</title>
<g id="a_node3"><a xlink:href="_assembler_utils_8hpp.html" target="_top" xlink:title=" ">
<polygon fill="none" stroke="black" points="2610,-559.5 2610,-578.5 2722,-578.5 2722,-559.5 2610,-559.5"/>
<text text-anchor="middle" x="2666" y="-566.5" font-family="Helvetica,sans-Serif" font-size="10.00">AssemblerUtils.hpp</text>
</a>
</g>
</g>
<!-- Node2&#45;&gt;Node3 -->
<g id="edge2" class="edge">
<title>Node2&#45;&gt;Node3</title>
<path fill="none" stroke="midnightblue" d="M3786.74,-622.17C3617.16,-614.28 2946.49,-583.06 2732.2,-573.08"/>
<polygon fill="midnightblue" stroke="midnightblue" points="2732.19,-569.58 2722.04,-572.61 2731.87,-576.57 2732.19,-569.58"/>
</g>
<!-- Node4 -->
<g id="node4" class="node">
<title>Node4</title>
<g id="a_node4"><a xlink:href="_common_8hpp.html" target="_top" xlink:title=" ">
<polygon fill="none" stroke="black" points="2461.5,-129 2461.5,-148 2586.5,-148 2586.5,-129 2461.5,-129"/>
<text text-anchor="middle" x="2524" y="-136" font-family="Helvetica,sans-Serif" font-size="10.00">polyfem/Common.hpp</text>
</a>
</g>
</g>
<!-- Node2&#45;&gt;Node4 -->
<g id="edge169" class="edge">
<title>Node2&#45;&gt;Node4</title>
<path fill="none" stroke="midnightblue" d="M3826,-615.44C3826,-596.94 3826,-551.81 3826,-514 3826,-514 3826,-514 3826,-456 3826,-390.79 2826.78,-196.94 2579.06,-149.88"/>
<polygon fill="midnightblue" stroke="midnightblue" points="2579.67,-146.43 2569.2,-148.01 2578.37,-153.31 2579.67,-146.43"/>
</g>
<!-- Node2&#45;&gt;Node12 -->
<g id="edge171" class="edge">
<title>Node2&#45;&gt;Node12</title>
<path fill="none" stroke="midnightblue" d="M3786.85,-623.96C3461.45,-623.46 1200.62,-616.59 527,-523 295.49,-490.83 38,-563.23 38,-329.5 38,-329.5 38,-329.5 38,-137.5 38,-96.34 46.96,-77.6 82,-56 146.71,-16.1 1314.17,-11.58 1569.1,-11.07"/>
<polygon fill="midnightblue" stroke="midnightblue" points="1569.18,-14.57 1579.17,-11.05 1569.16,-7.57 1569.18,-14.57"/>
</g>
<!-- Node2&#45;&gt;Node16 -->
<g id="edge170" class="edge">
<title>Node2&#45;&gt;Node16</title>
<path fill="none" stroke="midnightblue" d="M3837.54,-615.43C3858.8,-598.57 3902,-558.8 3902,-514 3902,-514 3902,-514 3902,-394.5 3902,-273.83 3991.41,-207.24 3905,-123 3868.78,-87.69 3512.23,-76.05 3399.79,-73.25"/>
<polygon fill="midnightblue" stroke="midnightblue" points="3399.77,-69.74 3389.68,-73 3399.6,-76.74 3399.77,-69.74"/>
</g>
<!-- Node18 -->
<g id="node18" class="node">
<title>Node18</title>
<g id="a_node18"><a xlink:href="_element_bases_8hpp.html" target="_top" xlink:title=" ">
<polygon fill="none" stroke="black" points="1728.5,-257.5 1728.5,-276.5 1907.5,-276.5 1907.5,-257.5 1728.5,-257.5"/>
<text text-anchor="middle" x="1818" y="-264.5" font-family="Helvetica,sans-Serif" font-size="10.00">polyfem/basis/ElementBases.hpp</text>
</a>
</g>
</g>
<!-- Node2&#45;&gt;Node18 -->
<g id="edge162" class="edge">
<title>Node2&#45;&gt;Node18</title>
<path fill="none" stroke="midnightblue" d="M3819.08,-615.13C3789.56,-578.05 3669.35,-434.82 3533,-380 3383.25,-319.79 2261.47,-281.35 1917.78,-270.89"/>
<polygon fill="midnightblue" stroke="midnightblue" points="1917.7,-267.39 1907.6,-270.58 1917.49,-274.38 1917.7,-267.39"/>
</g>
<!-- Node19 -->
<g id="node19" class="node">
<title>Node19</title>
<g id="a_node19"><a xlink:href="_mesh_8hpp.html" target="_top" xlink:title=" ">
<polygon fill="none" stroke="black" points="3050.5,-196 3050.5,-215 3187.5,-215 3187.5,-196 3050.5,-196"/>
<text text-anchor="middle" x="3119" y="-203" font-family="Helvetica,sans-Serif" font-size="10.00">polyfem/mesh/Mesh.hpp</text>
</a>
</g>
</g>
<!-- Node2&#45;&gt;Node19 -->
<g id="edge168" class="edge">
<title>Node2&#45;&gt;Node19</title>
<path fill="none" stroke="midnightblue" d="M3865.13,-618.71C3949.31,-606.24 4140,-571.62 4140,-514 4140,-514 4140,-514 4140,-456 4140,-384.64 4129.55,-347.35 4067,-313 4029,-292.13 3418.73,-234.13 3197.94,-213.72"/>
<polygon fill="midnightblue" stroke="midnightblue" points="3198.01,-210.21 3187.73,-212.78 3197.36,-217.18 3198.01,-210.21"/>
</g>
<!-- Node25 -->
<g id="node24" class="node">
<title>Node25</title>
<g id="a_node24"><a xlink:title=" ">
<polygon fill="none" stroke="#bfbfbf" points="3562,-129 3562,-148 3620,-148 3620,-129 3562,-129"/>
<text text-anchor="middle" x="3591" y="-136" font-family="Helvetica,sans-Serif" font-size="10.00">memory</text>
</a>
</g>
</g>
<!-- Node2&#45;&gt;Node25 -->
<g id="edge172" class="edge">
<title>Node2&#45;&gt;Node25</title>
<path fill="none" stroke="midnightblue" d="M3865.17,-622.95C3918.16,-620.3 4014.71,-611.06 4090,-579 4134.74,-559.95 4178,-562.62 4178,-514 4178,-514 4178,-514 4178,-394.5 4178,-274.69 3761.42,-175.77 3630.13,-147.58"/>
<polygon fill="midnightblue" stroke="midnightblue" points="3630.62,-144.1 3620.11,-145.44 3629.16,-150.95 3630.62,-144.1"/>
</g>
<!-- Node53 -->
<g id="node49" class="node">
<title>Node53</title>
<g id="a_node49"><a xlink:href="_local_boundary_8hpp.html" target="_top" xlink:title=" ">
<polygon fill="none" stroke="black" points="3930,-386 3930,-405 4112,-405 4112,-386 3930,-386"/>
<text text-anchor="middle" x="4021" y="-393" font-family="Helvetica,sans-Serif" font-size="10.00">polyfem/mesh/LocalBoundary.hpp</text>
</a>
</g>
</g>
<!-- Node2&#45;&gt;Node53 -->
<g id="edge163" class="edge">
<title>Node2&#45;&gt;Node53</title>
<path fill="none" stroke="midnightblue" d="M3852.5,-615.46C3871.87,-608.17 3897.83,-596.14 3916,-579 3967.57,-530.36 4001.27,-450.68 4014.57,-414.9"/>
<polygon fill="midnightblue" stroke="midnightblue" points="4017.94,-415.89 4018.04,-405.29 4011.35,-413.51 4017.94,-415.89"/>
</g>
<!-- Node3&#45;&gt;Node4 -->
<g id="edge3" class="edge">
<title>Node3&#45;&gt;Node4</title>
<path fill="none" stroke="midnightblue" d="M2714.66,-559.4C2763.98,-547.82 2837.76,-521.93 2872,-467 2892.46,-434.19 2888.77,-414.84 2872,-380 2809.37,-249.85 2637.58,-177.73 2561.32,-151.29"/>
<polygon fill="midnightblue" stroke="midnightblue" points="2562.24,-147.91 2551.64,-148.01 2559.99,-154.54 2562.24,-147.91"/>
</g>
<!-- Node7 -->
<g id="node7" class="node">
<title>Node7</title>
<g id="a_node7"><a xlink:href="_assembler_8hpp.html" target="_top" xlink:title=" ">
<polygon fill="none" stroke="black" points="3515.5,-447.5 3515.5,-466.5 3604.5,-466.5 3604.5,-447.5 3515.5,-447.5"/>
<text text-anchor="middle" x="3560" y="-454.5" font-family="Helvetica,sans-Serif" font-size="10.00">Assembler.hpp</text>
</a>
</g>
</g>
<!-- Node3&#45;&gt;Node7 -->
<g id="edge6" class="edge">
<title>Node3&#45;&gt;Node7</title>
<path fill="none" stroke="midnightblue" d="M2722.04,-564.25C2814.23,-557.78 3003.57,-543.24 3163,-523 3286,-507.38 3429.33,-482.17 3505.63,-468.18"/>
<polygon fill="midnightblue" stroke="midnightblue" points="3506.3,-471.61 3515.5,-466.36 3505.03,-464.73 3506.3,-471.61"/>
</g>
<!-- Node3&#45;&gt;Node16 -->
<g id="edge161" class="edge">
<title>Node3&#45;&gt;Node16</title>
<path fill="none" stroke="midnightblue" d="M2722.02,-567.05C2842.4,-564.43 3134.52,-555.03 3377,-523 3501.52,-506.55 3532.67,-499.49 3654,-467 3749.1,-441.53 3864,-494.95 3864,-396.5 3864,-396.5 3864,-396.5 3864,-327.5 3864,-236.3 3942.26,-190.56 3881,-123 3848.66,-87.33 3509.38,-75.99 3399.87,-73.24"/>
<polygon fill="midnightblue" stroke="midnightblue" points="3399.8,-69.74 3389.72,-73 3399.63,-76.74 3399.8,-69.74"/>
</g>
<!-- Node26 -->
<g id="node25" class="node">
<title>Node26</title>
<g id="a_node25"><a xlink:href="_matrix_utils_8hpp.html" target="_top" xlink:title=" ">
<polygon fill="none" stroke="black" points="3713.5,-129 3713.5,-148 3872.5,-148 3872.5,-129 3713.5,-129"/>
<text text-anchor="middle" x="3793" y="-136" font-family="Helvetica,sans-Serif" font-size="10.00">polyfem/utils/MatrixUtils.hpp</text>
</a>
</g>
</g>
<!-- Node3&#45;&gt;Node26 -->
<g id="edge160" class="edge">
<title>Node3&#45;&gt;Node26</title>
<path fill="none" stroke="midnightblue" d="M2722.12,-565.23C2899.46,-555.99 3445.9,-523.52 3613,-467 3661.99,-450.43 3677.02,-446.1 3715,-411 3764.05,-365.68 3763.08,-340.75 3783,-277 3790.68,-252.41 3794.64,-246.55 3798,-221 3799.8,-207.34 3798.68,-203.76 3798,-190 3797.48,-179.37 3796.33,-167.54 3795.27,-158"/>
<polygon fill="midnightblue" stroke="midnightblue" points="3798.75,-157.58 3794.11,-148.06 3791.8,-158.4 3798.75,-157.58"/>
</g>
<!-- Node28 -->
<g id="node27" class="node">
<title>Node28</title>
<g id="a_node27"><a xlink:href="_mass_matrix_assembler_8hpp.html" target="_top" xlink:title=" ">
<polygon fill="none" stroke="black" points="3146,-447.5 3146,-466.5 3292,-466.5 3292,-447.5 3146,-447.5"/>
<text text-anchor="middle" x="3219" y="-454.5" font-family="Helvetica,sans-Serif" font-size="10.00">MassMatrixAssembler.hpp</text>
</a>
</g>
</g>
<!-- Node3&#45;&gt;Node28 -->
<g id="edge49" class="edge">
<title>Node3&#45;&gt;Node28</title>
<path fill="none" stroke="midnightblue" d="M2722.23,-566.35C2829.36,-562.59 3058.56,-551.4 3132,-523 3160.15,-512.11 3187.12,-489.42 3203.37,-473.95"/>
<polygon fill="midnightblue" stroke="midnightblue" points="3206.16,-476.12 3210.84,-466.62 3201.25,-471.12 3206.16,-476.12"/>
</g>
<!-- Node36 -->
<g id="node32" class="node">
<title>Node36</title>
<g id="a_node32"><a xlink:href="_laplacian_8hpp.html" target="_top" xlink:title=" ">
<polygon fill="none" stroke="black" points="2924,-386 2924,-405 3008,-405 3008,-386 2924,-386"/>
<text text-anchor="middle" x="2966" y="-393" font-family="Helvetica,sans-Serif" font-size="10.00">Laplacian.hpp</text>
</a>
</g>
</g>
<!-- Node3&#45;&gt;Node36 -->
<g id="edge70" class="edge">
<title>Node3&#45;&gt;Node36</title>
<path fill="none" stroke="midnightblue" d="M2722.05,-563.7C2784.82,-557.87 2881.51,-545.49 2910,-523 2944.3,-495.93 2958.13,-443.44 2963.26,-415.34"/>
<polygon fill="midnightblue" stroke="midnightblue" points="2966.75,-415.68 2964.92,-405.24 2959.85,-414.55 2966.75,-415.68"/>
</g>
<!-- Node37 -->
<g id="node33" class="node">
<title>Node37</title>
<g id="a_node33"><a xlink:href="_bilaplacian_8hpp.html" target="_top" xlink:title=" ">
<polygon fill="none" stroke="black" points="230,-386 230,-405 322,-405 322,-386 230,-386"/>
<text text-anchor="middle" x="276" y="-393" font-family="Helvetica,sans-Serif" font-size="10.00">Bilaplacian.hpp</text>
</a>
</g>
</g>
<!-- Node3&#45;&gt;Node37 -->
<g id="edge75" class="edge">
<title>Node3&#45;&gt;Node37</title>
<path fill="none" stroke="midnightblue" d="M2609.87,-568.26C2307.6,-569.26 871.22,-568.5 441,-467 388.52,-454.62 331.57,-426.75 300.19,-410"/>
<polygon fill="midnightblue" stroke="midnightblue" points="301.77,-406.87 291.31,-405.18 298.44,-413.03 301.77,-406.87"/>
</g>
<!-- Node38 -->
<g id="node34" class="node">
<title>Node38</title>
<g id="a_node34"><a xlink:href="_helmholtz_8hpp.html" target="_top" xlink:title=" ">
<polygon fill="none" stroke="black" points="2622,-386 2622,-405 2710,-405 2710,-386 2622,-386"/>
<text text-anchor="middle" x="2666" y="-393" font-family="Helvetica,sans-Serif" font-size="10.00">Helmholtz.hpp</text>
</a>
</g>
</g>
<!-- Node3&#45;&gt;Node38 -->
<g id="edge82" class="edge">
<title>Node3&#45;&gt;Node38</title>
<path fill="none" stroke="midnightblue" d="M2666,-559.26C2666,-532.65 2666,-452.21 2666,-415.34"/>
<polygon fill="midnightblue" stroke="midnightblue" points="2669.5,-415.02 2666,-405.02 2662.5,-415.02 2669.5,-415.02"/>
</g>
<!-- Node39 -->
<g id="node35" class="node">
<title>Node39</title>
<g id="a_node35"><a xlink:href="_linear_elasticity_8hpp.html" target="_top" xlink:title=" ">
<polygon fill="none" stroke="black" points="1611.5,-447.5 1611.5,-466.5 1722.5,-466.5 1722.5,-447.5 1611.5,-447.5"/>
<text text-anchor="middle" x="1667" y="-454.5" font-family="Helvetica,sans-Serif" font-size="10.00">LinearElasticity.hpp</text>
</a>
</g>
</g>
<!-- Node3&#45;&gt;Node39 -->
<g id="edge87" class="edge">
<title>Node3&#45;&gt;Node39</title>
<path fill="none" stroke="midnightblue" d="M2609.67,-564.29C2512.04,-557.63 2305.15,-542.51 2131,-523 1987.59,-506.94 1820.1,-481.92 1730.79,-468.07"/>
<polygon fill="midnightblue" stroke="midnightblue" points="1731.23,-464.6 1720.82,-466.52 1730.16,-471.52 1731.23,-464.6"/>
</g>
<!-- Node40 -->
<g id="node36" class="node">
<title>Node40</title>
<g id="a_node36"><a xlink:href="_hooke_linear_elasticity_8hpp.html" target="_top" xlink:title=" ">
<polygon fill="none" stroke="black" points="450,-447.5 450,-466.5 592,-466.5 592,-447.5 450,-447.5"/>
<text text-anchor="middle" x="521" y="-454.5" font-family="Helvetica,sans-Serif" font-size="10.00">HookeLinearElasticity.hpp</text>
</a>
</g>
</g>
<!-- Node3&#45;&gt;Node40 -->
<g id="edge95" class="edge">
<title>Node3&#45;&gt;Node40</title>
<path fill="none" stroke="midnightblue" d="M2609.94,-565.28C2467.59,-558.36 2080.54,-539.47 1758,-523 1322.07,-500.74 799.8,-472.92 602.13,-462.35"/>
<polygon fill="midnightblue" stroke="midnightblue" points="602.29,-458.85 592.12,-461.81 601.91,-465.84 602.29,-458.85"/>
</g>
<!-- Node41 -->
<g id="node37" class="node">
<title>Node41</title>
<g id="a_node37"><a xlink:href="_saint_venant_elasticity_8hpp.html" target="_top" xlink:title=" ">
<polygon fill="none" stroke="black" points="2388,-447.5 2388,-466.5 2528,-466.5 2528,-447.5 2388,-447.5"/>
<text text-anchor="middle" x="2458" y="-454.5" font-family="Helvetica,sans-Serif" font-size="10.00">SaintVenantElasticity.hpp</text>
</a>
</g>
</g>
<!-- Node3&#45;&gt;Node41 -->
<g id="edge103" class="edge">
<title>Node3&#45;&gt;Node41</title>
<path fill="none" stroke="midnightblue" d="M2649.68,-559.37C2613.53,-540.25 2526.51,-494.23 2483.26,-471.36"/>
<polygon fill="midnightblue" stroke="midnightblue" points="2484.72,-468.17 2474.25,-466.59 2481.45,-474.36 2484.72,-468.17"/>
</g>
<!-- Node42 -->
<g id="node38" class="node">
<title>Node42</title>
<g id="a_node38"><a xlink:href="_neo_hookean_elasticity_8hpp.html" target="_top" xlink:title=" ">
<polygon fill="none" stroke="black" points="1258.5,-447.5 1258.5,-466.5 1401.5,-466.5 1401.5,-447.5 1258.5,-447.5"/>
<text text-anchor="middle" x="1330" y="-454.5" font-family="Helvetica,sans-Serif" font-size="10.00">NeoHookeanElasticity.hpp</text>
</a>
</g>
</g>
<!-- Node3&#45;&gt;Node42 -->
<g id="edge112" class="edge">
<title>Node3&#45;&gt;Node42</title>
<path fill="none" stroke="midnightblue" d="M2609.89,-565.03C2492.02,-558.64 2210.06,-542.58 1974,-523 1771.67,-506.22 1534.16,-480.75 1411.91,-467.21"/>
<polygon fill="midnightblue" stroke="midnightblue" points="1412.2,-463.72 1401.88,-466.1 1411.43,-470.68 1412.2,-463.72"/>
</g>
<!-- Node49 -->
<g id="node45" class="node">
<title>Node49</title>
<g id="a_node45"><a xlink:href="_multi_model_8hpp.html" target="_top" xlink:title=" ">
<polygon fill="none" stroke="black" points="2244,-503.5 2244,-522.5 2336,-522.5 2336,-503.5 2244,-503.5"/>
<text text-anchor="middle" x="2290" y="-510.5" font-family="Helvetica,sans-Serif" font-size="10.00">MultiModel.hpp</text>
</a>
</g>
</g>
<!-- Node3&#45;&gt;Node49 -->
<g id="edge127" class="edge">
<title>Node3&#45;&gt;Node49</title>
<path fill="none" stroke="midnightblue" d="M2609.71,-559.92C2538.63,-549.71 2417.08,-532.25 2346.1,-522.06"/>
<polygon fill="midnightblue" stroke="midnightblue" points="2346.4,-518.56 2336.01,-520.61 2345.41,-525.49 2346.4,-518.56"/>
</g>
<!-- Node50 -->
<g id="node46" class="node">
<title>Node50</title>
<g id="a_node46"><a xlink:href="_stokes_8hpp.html" target="_top" xlink:title=" ">
<polygon fill="none" stroke="black" points="142,-386 142,-405 212,-405 212,-386 142,-386"/>
<text text-anchor="middle" x="177" y="-393" font-family="Helvetica,sans-Serif" font-size="10.00">Stokes.hpp</text>
</a>
</g>
</g>
<!-- Node3&#45;&gt;Node50 -->
<g id="edge138" class="edge">
<title>Node3&#45;&gt;Node50</title>
<path fill="none" stroke="midnightblue" d="M2609.81,-567.95C2328.19,-567.5 1068.35,-563.24 679,-523 543.21,-508.96 508.88,-502.24 377,-467 315.78,-450.64 246.47,-424.41 207.63,-408.98"/>
<polygon fill="midnightblue" stroke="midnightblue" points="208.56,-405.58 197.97,-405.11 205.96,-412.08 208.56,-405.58"/>
</g>
<!-- Node51 -->
<g id="node47" class="node">
<title>Node51</title>
<g id="a_node47"><a xlink:href="_navier_stokes_8hpp.html" target="_top" xlink:title=" ">
<polygon fill="none" stroke="black" points="2728,-386 2728,-405 2830,-405 2830,-386 2728,-386"/>
<text text-anchor="middle" x="2779" y="-393" font-family="Helvetica,sans-Serif" font-size="10.00">NavierStokes.hpp</text>
</a>
</g>
</g>
<!-- Node3&#45;&gt;Node51 -->
<g id="edge145" class="edge">
<title>Node3&#45;&gt;Node51</title>
<path fill="none" stroke="midnightblue" d="M2671.76,-559.26C2689.59,-532.19 2744.14,-449.41 2767.82,-413.46"/>
<polygon fill="midnightblue" stroke="midnightblue" points="2770.81,-415.3 2773.39,-405.02 2764.96,-411.44 2770.81,-415.3"/>
</g>
<!-- Node52 -->
<g id="node48" class="node">
<title>Node52</title>
<g id="a_node48"><a xlink:href="_incompressible_lin_elast_8hpp.html" target="_top" xlink:title=" ">
<polygon fill="none" stroke="black" points="1882,-447.5 1882,-466.5 2032,-466.5 2032,-447.5 1882,-447.5"/>
<text text-anchor="middle" x="1957" y="-454.5" font-family="Helvetica,sans-Serif" font-size="10.00">IncompressibleLinElast.hpp</text>
</a>
</g>
</g>
<!-- Node3&#45;&gt;Node52 -->
<g id="edge152" class="edge">
<title>Node3&#45;&gt;Node52</title>
<path fill="none" stroke="midnightblue" d="M2609.9,-564.4C2527.37,-558.6 2368.54,-545.49 2235,-523 2149.82,-508.65 2051.79,-483.72 1997.87,-469.26"/>
<polygon fill="midnightblue" stroke="midnightblue" points="1998.58,-465.82 1988.01,-466.6 1996.75,-472.58 1998.58,-465.82"/>
</g>
<!-- Node5 -->
<g id="node5" class="node">
<title>Node5</title>
<g id="a_node5"><a xlink:title=" ">
<polygon fill="none" stroke="#bfbfbf" points="3416,-0.5 3416,-19.5 3496,-19.5 3496,-0.5 3416,-0.5"/>
<text text-anchor="middle" x="3456" y="-7.5" font-family="Helvetica,sans-Serif" font-size="10.00">Eigen/Sparse</text>
</a>
</g>
</g>
<!-- Node4&#45;&gt;Node5 -->
<g id="edge4" class="edge">
<title>Node4&#45;&gt;Node5</title>
<path fill="none" stroke="midnightblue" d="M2563.34,-128.98C2640.17,-112.61 2815.76,-76.59 2965,-56 3125.28,-33.89 3316.55,-19.9 3405.66,-14.09"/>
<polygon fill="midnightblue" stroke="midnightblue" points="3406.01,-17.57 3415.76,-13.44 3405.56,-10.59 3406.01,-17.57"/>
</g>
<!-- Node6 -->
<g id="node6" class="node">
<title>Node6</title>
<g id="a_node6"><a xlink:title=" ">
<polygon fill="none" stroke="#bfbfbf" points="2466,-62 2466,-81 2576,-81 2576,-62 2466,-62"/>
<text text-anchor="middle" x="2521" y="-69" font-family="Helvetica,sans-Serif" font-size="10.00">nlohmann/json.hpp</text>
</a>
</g>
</g>
<!-- Node4&#45;&gt;Node6 -->
<g id="edge5" class="edge">
<title>Node4&#45;&gt;Node6</title>
<path fill="none" stroke="midnightblue" d="M2523.6,-128.73C2523.15,-119.18 2522.44,-103.62 2521.87,-91.28"/>
<polygon fill="midnightblue" stroke="midnightblue" points="2525.36,-90.96 2521.4,-81.13 2518.36,-91.28 2525.36,-90.96"/>
</g>
<!-- Node7&#45;&gt;Node5 -->
<g id="edge44" class="edge">
<title>Node7&#45;&gt;Node5</title>
<path fill="none" stroke="midnightblue" d="M3572.88,-447.22C3584.3,-438.93 3600.85,-425.62 3612,-411 3674.4,-329.18 3700.59,-291.02 3681,-190 3674.89,-158.48 3675.16,-147.15 3654,-123 3609.45,-72.16 3535.96,-39.23 3492.14,-23"/>
<polygon fill="midnightblue" stroke="midnightblue" points="3493.06,-19.61 3482.47,-19.51 3490.69,-26.19 3493.06,-19.61"/>
</g>
<!-- Node8 -->
<g id="node8" class="node">
<title>Node8</title>
<g id="a_node8"><a xlink:href="_assembly_vals_cache_8hpp.html" target="_top" xlink:title=" ">
<polygon fill="none" stroke="black" points="3216,-386 3216,-405 3352,-405 3352,-386 3216,-386"/>
<text text-anchor="middle" x="3284" y="-393" font-family="Helvetica,sans-Serif" font-size="10.00">AssemblyValsCache.hpp</text>
</a>
</g>
</g>
<!-- Node7&#45;&gt;Node8 -->
<g id="edge7" class="edge">
<title>Node7&#45;&gt;Node8</title>
<path fill="none" stroke="midnightblue" d="M3520.46,-447.48C3471.17,-436.85 3386.91,-418.68 3333.41,-407.15"/>
<polygon fill="midnightblue" stroke="midnightblue" points="3333.98,-403.7 3323.47,-405.01 3332.51,-410.54 3333.98,-403.7"/>
</g>
<!-- Node9 -->
<g id="node9" class="node">
<title>Node9</title>
<g id="a_node9"><a xlink:href="_element_assembly_values_8hpp.html" target="_top" xlink:title=" ">
<polygon fill="none" stroke="black" points="2306.5,-313.5 2306.5,-343.5 2461.5,-343.5 2461.5,-313.5 2306.5,-313.5"/>
<text text-anchor="start" x="2314.5" y="-331.5" font-family="Helvetica,sans-Serif" font-size="10.00">polyfem/assembler/Element</text>
<text text-anchor="middle" x="2384" y="-320.5" font-family="Helvetica,sans-Serif" font-size="10.00">AssemblyValues.hpp</text>
</a>
</g>
</g>
<!-- Node7&#45;&gt;Node9 -->
<g id="edge39" class="edge">
<title>Node7&#45;&gt;Node9</title>
<path fill="none" stroke="midnightblue" d="M3556.46,-447.41C3549.13,-430.88 3530.53,-394.93 3502,-380 3496.3,-377.02 2734.8,-344.4 2471.98,-333.23"/>
<polygon fill="midnightblue" stroke="midnightblue" points="2471.86,-329.72 2461.72,-332.79 2471.56,-336.72 2471.86,-329.72"/>
</g>
<!-- Node7&#45;&gt;Node16 -->
<g id="edge45" class="edge">
<title>Node7&#45;&gt;Node16</title>
<path fill="none" stroke="midnightblue" d="M3567.74,-447.4C3574.99,-438.82 3585.51,-424.95 3591,-411 3638.29,-290.86 3713.1,-220.96 3629,-123 3594.59,-82.91 3444.23,-103.36 3394,-87 3392.57,-86.53 3391.12,-86 3389.68,-85.42"/>
<polygon fill="midnightblue" stroke="midnightblue" points="3390.97,-82.16 3380.43,-81.11 3388.02,-88.51 3390.97,-82.16"/>
</g>
<!-- Node17 -->
<g id="node17" class="node">
<title>Node17</title>
<g id="a_node17"><a xlink:title=" ">
<polygon fill="none" stroke="#bfbfbf" points="3484,-129 3484,-148 3544,-148 3544,-129 3484,-129"/>
<text text-anchor="middle" x="3514" y="-136" font-family="Helvetica,sans-Serif" font-size="10.00">iostream</text>
</a>
</g>
</g>
<!-- Node7&#45;&gt;Node17 -->
<g id="edge46" class="edge">
<title>Node7&#45;&gt;Node17</title>
<path fill="none" stroke="midnightblue" d="M3558.72,-447.2C3552.51,-404.43 3525.38,-217.82 3516.69,-158.01"/>
<polygon fill="midnightblue" stroke="midnightblue" points="3520.15,-157.5 3515.25,-148.1 3513.23,-158.5 3520.15,-157.5"/>
</g>
<!-- Node7&#45;&gt;Node25 -->
<g id="edge48" class="edge">
<title>Node7&#45;&gt;Node25</title>
<path fill="none" stroke="midnightblue" d="M3563.43,-447.19C3566.75,-438.23 3571.63,-423.87 3574,-411 3591.27,-317.2 3591.87,-202.43 3591.36,-158.15"/>
<polygon fill="midnightblue" stroke="midnightblue" points="3594.85,-157.98 3591.2,-148.03 3587.85,-158.09 3594.85,-157.98"/>
</g>
<!-- Node7&#45;&gt;Node26 -->
<g id="edge40" class="edge">
<title>Node7&#45;&gt;Node26</title>
<path fill="none" stroke="midnightblue" d="M3604.67,-449.92C3631.84,-444.1 3665.51,-432.81 3688,-411 3762.74,-338.54 3785.18,-206.91 3791.1,-158.24"/>
<polygon fill="midnightblue" stroke="midnightblue" points="3794.59,-158.54 3792.22,-148.21 3787.63,-157.76 3794.59,-158.54"/>
</g>
<!-- Node27 -->
<g id="node26" class="node">
<title>Node27</title>
<g id="a_node26"><a xlink:title=" ">
<polygon fill="none" stroke="#bfbfbf" points="3446.5,-386 3446.5,-405 3493.5,-405 3493.5,-386 3446.5,-386"/>
<text text-anchor="middle" x="3470" y="-393" font-family="Helvetica,sans-Serif" font-size="10.00">cmath</text>
</a>
</g>
</g>
<!-- Node7&#45;&gt;Node27 -->
<g id="edge47" class="edge">
<title>Node7&#45;&gt;Node27</title>
<path fill="none" stroke="midnightblue" d="M3547.11,-447.48C3532.54,-437.84 3508.6,-422.02 3491.25,-410.55"/>
<polygon fill="midnightblue" stroke="midnightblue" points="3493.14,-407.6 3482.87,-405.01 3489.28,-413.44 3493.14,-407.6"/>
</g>
<!-- Node8&#45;&gt;Node9 -->
<g id="edge8" class="edge">
<title>Node8&#45;&gt;Node9</title>
<path fill="none" stroke="midnightblue" d="M3215.98,-389.59C3055,-377.96 2650.75,-348.76 2471.7,-335.83"/>
<polygon fill="midnightblue" stroke="midnightblue" points="2471.75,-332.33 2461.53,-335.1 2471.25,-339.31 2471.75,-332.33"/>
</g>
<!-- Node10 -->
<g id="node10" class="node">
<title>Node10</title>
<g id="a_node10"><a xlink:href="_assembly_values_8hpp.html" target="_top" xlink:title=" ">
<polygon fill="none" stroke="black" points="1632,-190.5 1632,-220.5 1794,-220.5 1794,-190.5 1632,-190.5"/>
<text text-anchor="start" x="1640" y="-208.5" font-family="Helvetica,sans-Serif" font-size="10.00">polyfem/assembler/Assembly</text>
<text text-anchor="middle" x="1713" y="-197.5" font-family="Helvetica,sans-Serif" font-size="10.00">Values.hpp</text>
</a>
</g>
</g>
<!-- Node9&#45;&gt;Node10 -->
<g id="edge9" class="edge">
<title>Node9&#45;&gt;Node10</title>
<path fill="none" stroke="midnightblue" d="M2306.37,-313.5C2180.54,-290.81 1932.85,-246.15 1800.79,-222.33"/>
<polygon fill="midnightblue" stroke="midnightblue" points="1801.17,-218.84 1790.71,-220.51 1799.93,-225.73 1801.17,-218.84"/>
</g>
<!-- Node9&#45;&gt;Node16 -->
<g id="edge38" class="edge">
<title>Node9&#45;&gt;Node16</title>
<path fill="none" stroke="midnightblue" d="M2461.67,-323.91C2607.7,-315.71 2932.23,-290.62 3196,-221 3205.57,-218.48 3355.23,-162.03 3361,-154 3374.09,-135.78 3372.91,-108.95 3370.1,-91.11"/>
<polygon fill="midnightblue" stroke="midnightblue" points="3373.5,-90.26 3368.2,-81.09 3366.62,-91.57 3373.5,-90.26"/>
</g>
<!-- Node9&#45;&gt;Node18 -->
<g id="edge22" class="edge">
<title>Node9&#45;&gt;Node18</title>
<path fill="none" stroke="midnightblue" d="M2306.33,-318.73C2289.1,-316.82 2270.93,-314.82 2254,-313 2136.34,-300.37 2000.74,-286.48 1912.42,-277.52"/>
<polygon fill="midnightblue" stroke="midnightblue" points="1912.72,-274.03 1902.42,-276.51 1912.02,-281 1912.72,-274.03"/>
</g>
<!-- Node11 -->
<g id="node11" class="node">
<title>Node11</title>
<g id="a_node11"><a xlink:href="_quadrature_8hpp.html" target="_top" xlink:title=" ">
<polygon fill="none" stroke="black" points="1518.5,-56.5 1518.5,-86.5 1631.5,-86.5 1631.5,-56.5 1518.5,-56.5"/>
<text text-anchor="start" x="1526.5" y="-74.5" font-family="Helvetica,sans-Serif" font-size="10.00">polyfem/quadrature</text>
<text text-anchor="middle" x="1575" y="-63.5" font-family="Helvetica,sans-Serif" font-size="10.00">/Quadrature.hpp</text>
</a>
</g>
</g>
<!-- Node10&#45;&gt;Node11 -->
<g id="edge10" class="edge">
<title>Node10&#45;&gt;Node11</title>
<path fill="none" stroke="midnightblue" d="M1639.61,-190.4C1618.99,-182.92 1598.52,-171.48 1585,-154 1572.57,-137.94 1570.88,-114.52 1571.82,-96.9"/>
<polygon fill="midnightblue" stroke="midnightblue" points="1575.32,-97.06 1572.68,-86.8 1568.35,-96.47 1575.32,-97.06"/>
</g>
<!-- Node10&#45;&gt;Node12 -->
<g id="edge20" class="edge">
<title>Node10&#45;&gt;Node12</title>
<path fill="none" stroke="midnightblue" d="M1723.65,-190.33C1734.67,-173.82 1748.99,-145.86 1739,-123 1719.35,-78.03 1671.75,-43.06 1642.45,-24.87"/>
<polygon fill="midnightblue" stroke="midnightblue" points="1644.01,-21.72 1633.64,-19.56 1640.4,-27.72 1644.01,-21.72"/>
</g>
<!-- Node13 -->
<g id="node13" class="node">
<title>Node13</title>
<g id="a_node13"><a xlink:href="_basis_8hpp.html" target="_top" xlink:title=" ">
<polygon fill="none" stroke="black" points="1594,-129 1594,-148 1730,-148 1730,-129 1594,-129"/>
<text text-anchor="middle" x="1662" y="-136" font-family="Helvetica,sans-Serif" font-size="10.00">polyfem/basis/Basis.hpp</text>
</a>
</g>
</g>
<!-- Node10&#45;&gt;Node13 -->
<g id="edge12" class="edge">
<title>Node10&#45;&gt;Node13</title>
<path fill="none" stroke="midnightblue" d="M1701.93,-190.4C1694.06,-180.36 1683.45,-166.84 1675.15,-156.25"/>
<polygon fill="midnightblue" stroke="midnightblue" points="1677.75,-153.9 1668.82,-148.19 1672.24,-158.22 1677.75,-153.9"/>
</g>
<!-- Node10&#45;&gt;Node17 -->
<g id="edge21" class="edge">
<title>Node10&#45;&gt;Node17</title>
<path fill="none" stroke="midnightblue" d="M1794.11,-203.85C2033.85,-201.52 2759.99,-191.65 3361,-154 3399.23,-151.61 3442.7,-147.34 3473.51,-144.05"/>
<polygon fill="midnightblue" stroke="midnightblue" points="3474.29,-147.48 3483.85,-142.93 3473.54,-140.53 3474.29,-147.48"/>
</g>
<!-- Node11&#45;&gt;Node12 -->
<g id="edge11" class="edge">
<title>Node11&#45;&gt;Node12</title>
<path fill="none" stroke="midnightblue" d="M1585.19,-56.4C1591.37,-47.84 1599.3,-36.87 1605.82,-27.86"/>
<polygon fill="midnightblue" stroke="midnightblue" points="1608.72,-29.81 1611.74,-19.66 1603.05,-25.71 1608.72,-29.81"/>
</g>
<!-- Node13&#45;&gt;Node11 -->
<g id="edge13" class="edge">
<title>Node13&#45;&gt;Node11</title>
<path fill="none" stroke="midnightblue" d="M1650.27,-128.73C1637.94,-119.53 1618.14,-104.73 1601.94,-92.63"/>
<polygon fill="midnightblue" stroke="midnightblue" points="1603.96,-89.77 1593.86,-86.59 1599.77,-95.38 1603.96,-89.77"/>
</g>
<!-- Node13&#45;&gt;Node12 -->
<g id="edge17" class="edge">
<title>Node13&#45;&gt;Node12</title>
<path fill="none" stroke="midnightblue" d="M1660.22,-128.76C1657.01,-113.66 1649.69,-81.79 1640,-56 1636.52,-46.74 1631.79,-36.82 1627.61,-28.66"/>
<polygon fill="midnightblue" stroke="midnightblue" points="1630.66,-26.95 1622.9,-19.74 1624.47,-30.22 1630.66,-26.95"/>
</g>
<!-- Node14 -->
<g id="node14" class="node">
<title>Node14</title>
<g id="a_node14"><a xlink:href="_types_8hpp.html" target="_top" xlink:title=" ">
<polygon fill="none" stroke="black" points="2632.5,-62 2632.5,-81 2765.5,-81 2765.5,-62 2632.5,-62"/>
<text text-anchor="middle" x="2699" y="-69" font-family="Helvetica,sans-Serif" font-size="10.00">polyfem/utils/Types.hpp</text>
</a>
</g>
</g>
<!-- Node13&#45;&gt;Node14 -->
<g id="edge14" class="edge">
<title>Node13&#45;&gt;Node14</title>
<path fill="none" stroke="midnightblue" d="M1725.12,-128.97C1743.44,-126.74 1763.49,-124.53 1782,-123 2138.03,-93.55 2229.06,-117.56 2585,-87 2599.37,-85.77 2614.72,-84.07 2629.35,-82.28"/>
<polygon fill="midnightblue" stroke="midnightblue" points="2629.86,-85.74 2639.34,-81.02 2628.98,-78.8 2629.86,-85.74"/>
</g>
<!-- Node15 -->
<g id="node15" class="node">
<title>Node15</title>
<g id="a_node15"><a xlink:title=" ">
<polygon fill="none" stroke="#bfbfbf" points="1307.5,-62 1307.5,-81 1372.5,-81 1372.5,-62 1307.5,-62"/>
<text text-anchor="middle" x="1340" y="-69" font-family="Helvetica,sans-Serif" font-size="10.00">functional</text>
</a>
</g>
</g>
<!-- Node13&#45;&gt;Node15 -->
<g id="edge18" class="edge">
<title>Node13&#45;&gt;Node15</title>
<path fill="none" stroke="midnightblue" d="M1619.57,-128.94C1557.94,-116.49 1444.28,-93.55 1382.57,-81.09"/>
<polygon fill="midnightblue" stroke="midnightblue" points="1383.26,-77.66 1372.76,-79.11 1381.87,-84.52 1383.26,-77.66"/>
</g>
<!-- Node13&#45;&gt;Node16 -->
<g id="edge19" class="edge">
<title>Node13&#45;&gt;Node16</title>
<path fill="none" stroke="midnightblue" d="M1730.36,-130.22C1758.15,-127.53 1790.58,-124.71 1820,-123 2467.1,-85.36 2632.66,-147.84 3278,-87 3295.96,-85.31 3315.79,-82.15 3332.08,-79.22"/>
<polygon fill="midnightblue" stroke="midnightblue" points="3333.02,-82.6 3342.21,-77.34 3331.74,-75.72 3333.02,-82.6"/>
</g>
<!-- Node14&#45;&gt;Node5 -->
<g id="edge16" class="edge">
<title>Node14&#45;&gt;Node5</title>
<path fill="none" stroke="midnightblue" d="M2765.82,-64.07C2793.69,-61.46 2826.4,-58.48 2856,-56 3059.79,-38.95 3302.79,-21.66 3405.84,-14.47"/>
<polygon fill="midnightblue" stroke="midnightblue" points="3406.23,-17.95 3415.96,-13.76 3405.74,-10.97 3406.23,-17.95"/>
</g>
<!-- Node14&#45;&gt;Node12 -->
<g id="edge15" class="edge">
<title>Node14&#45;&gt;Node12</title>
<path fill="none" stroke="midnightblue" d="M2657.53,-61.99C2644.89,-59.69 2630.92,-57.44 2618,-56 2254.46,-15.46 1812.72,-11.16 1667.12,-10.92"/>
<polygon fill="midnightblue" stroke="midnightblue" points="1666.76,-7.42 1656.75,-10.91 1666.75,-14.42 1666.76,-7.42"/>
</g>
<!-- Node18&#45;&gt;Node10 -->
<g id="edge36" class="edge">
<title>Node18&#45;&gt;Node10</title>
<path fill="none" stroke="midnightblue" d="M1802.96,-257.48C1788.34,-249.19 1765.63,-236.32 1746.69,-225.59"/>
<polygon fill="midnightblue" stroke="midnightblue" points="1748.17,-222.41 1737.75,-220.52 1744.72,-228.5 1748.17,-222.41"/>
</g>
<!-- Node18&#45;&gt;Node11 -->
<g id="edge24" class="edge">
<title>Node18&#45;&gt;Node11</title>
<path fill="none" stroke="midnightblue" d="M1728.33,-260.94C1690.42,-255.25 1647.42,-243.77 1614,-221 1584.36,-200.8 1579.45,-188.31 1569,-154 1563.3,-135.3 1565.48,-113.11 1568.7,-96.61"/>
<polygon fill="midnightblue" stroke="midnightblue" points="1572.15,-97.21 1570.9,-86.69 1565.32,-95.69 1572.15,-97.21"/>
</g>
<!-- Node18&#45;&gt;Node13 -->
<g id="edge23" class="edge">
<title>Node18&#45;&gt;Node13</title>
<path fill="none" stroke="midnightblue" d="M1737.22,-257.49C1690.24,-250.69 1637.49,-239.22 1623,-221 1606.83,-200.67 1627.91,-172.53 1644.81,-155.2"/>
<polygon fill="midnightblue" stroke="midnightblue" points="1647.41,-157.55 1652.13,-148.06 1642.52,-152.53 1647.41,-157.55"/>
</g>
<!-- Node18&#45;&gt;Node16 -->
<g id="edge37" class="edge">
<title>Node18&#45;&gt;Node16</title>
<path fill="none" stroke="midnightblue" d="M1828.87,-257.33C1862.68,-230.95 1969.97,-151.75 2074,-123 2203,-87.35 3144.79,-99.91 3278,-87 3295.95,-85.26 3315.79,-82.1 3332.07,-79.18"/>
<polygon fill="midnightblue" stroke="midnightblue" points="3333.01,-82.56 3342.21,-77.3 3331.74,-75.68 3333.01,-82.56"/>
</g>
<!-- Node18&#45;&gt;Node19 -->
<g id="edge25" class="edge">
<title>Node18&#45;&gt;Node19</title>
<path fill="none" stroke="midnightblue" d="M1907.68,-261.9C2149.33,-250.85 2811.21,-220.58 3039.98,-210.11"/>
<polygon fill="midnightblue" stroke="midnightblue" points="3040.39,-213.6 3050.22,-209.65 3040.07,-206.61 3040.39,-213.6"/>
</g>
<!-- Node19&#45;&gt;Node4 -->
<g id="edge26" class="edge">
<title>Node19&#45;&gt;Node4</title>
<path fill="none" stroke="midnightblue" d="M3050.46,-197.01C2937.44,-184.67 2713.01,-160.15 2597.08,-147.48"/>
<polygon fill="midnightblue" stroke="midnightblue" points="2597.21,-143.98 2586.89,-146.37 2596.45,-150.94 2597.21,-143.98"/>
</g>
<!-- Node19&#45;&gt;Node12 -->
<g id="edge33" class="edge">
<title>Node19&#45;&gt;Node12</title>
<path fill="none" stroke="midnightblue" d="M3081.69,-195.98C3041.91,-186.27 2982.29,-169.7 2965,-154 2929.78,-122.03 2961.37,-82.7 2922,-56 2869.15,-20.16 1897.33,-12.54 1666.76,-11.24"/>
<polygon fill="midnightblue" stroke="midnightblue" points="1666.68,-7.74 1656.67,-11.18 1666.65,-14.74 1666.68,-7.74"/>
</g>
<!-- Node19&#45;&gt;Node14 -->
<g id="edge30" class="edge">
<title>Node19&#45;&gt;Node14</title>
<path fill="none" stroke="midnightblue" d="M3084.32,-195.94C3046.61,-186.44 2984.69,-170.3 2932,-154 2859.49,-131.56 2775.79,-101.16 2731.09,-84.56"/>
<polygon fill="midnightblue" stroke="midnightblue" points="2732.23,-81.25 2721.64,-81.04 2729.79,-87.81 2732.23,-81.25"/>
</g>
<!-- Node20 -->
<g id="node20" class="node">
<title>Node20</title>
<g id="a_node20"><a xlink:href="_navigation_8hpp.html" target="_top" xlink:title=" ">
<polygon fill="none" stroke="black" points="2974.5,-123.5 2974.5,-153.5 3105.5,-153.5 3105.5,-123.5 2974.5,-123.5"/>
<text text-anchor="start" x="2982.5" y="-141.5" font-family="Helvetica,sans-Serif" font-size="10.00">polyfem/mesh/mesh2D</text>
<text text-anchor="middle" x="3040" y="-130.5" font-family="Helvetica,sans-Serif" font-size="10.00">/Navigation.hpp</text>
</a>
</g>
</g>
<!-- Node19&#45;&gt;Node20 -->
<g id="edge27" class="edge">
<title>Node19&#45;&gt;Node20</title>
<path fill="none" stroke="midnightblue" d="M3108.35,-195.73C3097.26,-186.61 3079.5,-172 3064.87,-159.96"/>
<polygon fill="midnightblue" stroke="midnightblue" points="3067.07,-157.24 3057.12,-153.59 3062.62,-162.65 3067.07,-157.24"/>
</g>
<!-- Node21 -->
<g id="node21" class="node">
<title>Node21</title>
<g id="a_node21"><a xlink:title=" ">
<polygon fill="none" stroke="#bfbfbf" points="3140.5,-62 3140.5,-81 3269.5,-81 3269.5,-62 3140.5,-62"/>
<text text-anchor="middle" x="3205" y="-69" font-family="Helvetica,sans-Serif" font-size="10.00">geogram/mesh/mesh.h</text>
</a>
</g>
</g>
<!-- Node19&#45;&gt;Node21 -->
<g id="edge34" class="edge">
<title>Node19&#45;&gt;Node21</title>
<path fill="none" stroke="midnightblue" d="M3122.09,-195.95C3127.87,-180.59 3141.22,-147.63 3158,-123 3166.64,-110.32 3178.4,-97.68 3188,-88.22"/>
<polygon fill="midnightblue" stroke="midnightblue" points="3190.64,-90.54 3195.44,-81.09 3185.8,-85.48 3190.64,-90.54"/>
</g>
<!-- Node23 -->
<g id="node23" class="node">
<title>Node23</title>
<g id="a_node23"><a xlink:href="_hash_utils_8hpp.html" target="_top" xlink:title=" ">
<polygon fill="none" stroke="red" points="3200,-129 3200,-148 3352,-148 3352,-129 3200,-129"/>
<text text-anchor="middle" x="3276" y="-136" font-family="Helvetica,sans-Serif" font-size="10.00">polyfem/utils/HashUtils.hpp</text>
</a>
</g>
</g>
<!-- Node19&#45;&gt;Node23 -->
<g id="edge31" class="edge">
<title>Node19&#45;&gt;Node23</title>
<path fill="none" stroke="midnightblue" d="M3139.85,-195.87C3166.94,-184.65 3214.46,-164.98 3245.58,-152.09"/>
<polygon fill="midnightblue" stroke="midnightblue" points="3247.16,-155.23 3255.07,-148.17 3244.49,-148.76 3247.16,-155.23"/>
</g>
<!-- Node19&#45;&gt;Node25 -->
<g id="edge35" class="edge">
<title>Node19&#45;&gt;Node25</title>
<path fill="none" stroke="midnightblue" d="M3187.58,-201.78C3273.92,-197.16 3426.27,-185.04 3553,-154 3555.83,-153.31 3558.73,-152.46 3561.61,-151.53"/>
<polygon fill="midnightblue" stroke="midnightblue" points="3562.93,-154.78 3571.18,-148.13 3560.59,-148.18 3562.93,-154.78"/>
</g>
<!-- Node20&#45;&gt;Node21 -->
<g id="edge28" class="edge">
<title>Node20&#45;&gt;Node21</title>
<path fill="none" stroke="midnightblue" d="M3075.8,-123.4C3105.01,-111.89 3145.86,-95.8 3173.76,-84.81"/>
<polygon fill="midnightblue" stroke="midnightblue" points="3175.38,-87.93 3183.41,-81.01 3172.82,-81.42 3175.38,-87.93"/>
</g>
<!-- Node22 -->
<g id="node22" class="node">
<title>Node22</title>
<g id="a_node22"><a xlink:title=" ">
<polygon fill="none" stroke="#bfbfbf" points="2974,-62 2974,-81 3122,-81 3122,-62 2974,-62"/>
<text text-anchor="middle" x="3048" y="-69" font-family="Helvetica,sans-Serif" font-size="10.00">geogram/basic/attributes.h</text>
</a>
</g>
</g>
<!-- Node20&#45;&gt;Node22 -->
<g id="edge29" class="edge">
<title>Node20&#45;&gt;Node22</title>
<path fill="none" stroke="midnightblue" d="M3041.74,-123.4C3042.9,-113.96 3044.44,-101.45 3045.7,-91.19"/>
<polygon fill="midnightblue" stroke="midnightblue" points="3049.18,-91.55 3046.93,-81.19 3042.23,-90.69 3049.18,-91.55"/>
</g>
<!-- Node23&#45;&gt;Node16 -->
<g id="edge32" class="edge">
<title>Node23&#45;&gt;Node16</title>
<path fill="none" stroke="midnightblue" d="M3288.14,-128.73C3302.85,-118.11 3327.86,-100.05 3345.56,-87.26"/>
<polygon fill="midnightblue" stroke="midnightblue" points="3348,-89.82 3354.05,-81.13 3343.9,-84.14 3348,-89.82"/>
</g>
<!-- Node26&#45;&gt;Node5 -->
<g id="edge43" class="edge">
<title>Node26&#45;&gt;Node5</title>
<path fill="none" stroke="midnightblue" d="M3786.09,-128.93C3771.92,-111.98 3737.68,-74.25 3700,-56 3637.62,-25.79 3557.25,-15.78 3506.16,-12.51"/>
<polygon fill="midnightblue" stroke="midnightblue" points="3506.22,-9.01 3496.03,-11.93 3505.82,-16 3506.22,-9.01"/>
</g>
<!-- Node26&#45;&gt;Node12 -->
<g id="edge42" class="edge">
<title>Node26&#45;&gt;Node12</title>
<path fill="none" stroke="midnightblue" d="M3761.31,-128.95C3694.67,-111.42 3534.87,-71.72 3398,-56 3048.88,-15.89 1915.89,-11.53 1666.74,-11.06"/>
<polygon fill="midnightblue" stroke="midnightblue" points="1666.57,-7.56 1656.56,-11.04 1666.55,-14.56 1666.57,-7.56"/>
</g>
<!-- Node26&#45;&gt;Node14 -->
<g id="edge41" class="edge">
<title>Node26&#45;&gt;Node14</title>
<path fill="none" stroke="midnightblue" d="M3713.38,-129.91C3686.59,-127.5 3656.51,-124.96 3629,-123 3334.2,-101.98 3260.11,-103.04 2965,-87 2901.22,-83.53 2828.85,-79.59 2775.71,-76.69"/>
<polygon fill="midnightblue" stroke="midnightblue" points="2775.86,-73.19 2765.68,-76.14 2775.48,-80.18 2775.86,-73.19"/>
</g>
<!-- Node28&#45;&gt;Node5 -->
<g id="edge65" class="edge">
<title>Node28&#45;&gt;Node5</title>
<path fill="none" stroke="midnightblue" d="M3214.88,-447.29C3208.66,-432.88 3198.46,-403.33 3207,-380 3252.2,-256.5 3329.99,-266.56 3398,-154 3423.2,-112.3 3441.86,-57.68 3450.56,-29.54"/>
<polygon fill="midnightblue" stroke="midnightblue" points="3453.96,-30.41 3453.49,-19.83 3447.25,-28.39 3453.96,-30.41"/>
</g>
<!-- Node28&#45;&gt;Node8 -->
<g id="edge51" class="edge">
<title>Node28&#45;&gt;Node8</title>
<path fill="none" stroke="midnightblue" d="M3228.31,-447.48C3238.45,-438.2 3254.86,-423.17 3267.25,-411.83"/>
<polygon fill="midnightblue" stroke="midnightblue" points="3269.69,-414.34 3274.7,-405.01 3264.96,-409.18 3269.69,-414.34"/>
</g>
<!-- Node28&#45;&gt;Node9 -->
<g id="edge50" class="edge">
<title>Node28&#45;&gt;Node9</title>
<path fill="none" stroke="midnightblue" d="M3145.82,-456.84C3031.02,-456.75 2802.16,-450.93 2613,-411 2544.91,-396.63 2469.52,-366.96 2424.49,-347.66"/>
<polygon fill="midnightblue" stroke="midnightblue" points="2425.65,-344.35 2415.08,-343.59 2422.87,-350.77 2425.65,-344.35"/>
</g>
<!-- Node28&#45;&gt;Node16 -->
<g id="edge66" class="edge">
<title>Node28&#45;&gt;Node16</title>
<path fill="none" stroke="midnightblue" d="M3205.94,-447.44C3195.09,-439.47 3180.43,-426.52 3174,-411 3168.73,-398.27 3169.52,-393.03 3174,-380 3208.78,-278.77 3242.13,-261.26 3322,-190 3344.92,-169.55 3365.96,-180.79 3381,-154 3392.18,-134.07 3383.72,-107.5 3375.68,-90.2"/>
<polygon fill="midnightblue" stroke="midnightblue" points="3378.77,-88.56 3371.14,-81.2 3372.52,-91.71 3378.77,-88.56"/>
</g>
<!-- Node28&#45;&gt;Node17 -->
<g id="edge67" class="edge">
<title>Node28&#45;&gt;Node17</title>
<path fill="none" stroke="midnightblue" d="M3292.26,-447.67C3317.16,-441.33 3343.18,-430.27 3361,-411 3386.26,-383.7 3380,-366.69 3380,-329.5 3380,-329.5 3380,-329.5 3380,-266 3380,-209.67 3443.39,-170.98 3482.97,-152.32"/>
<polygon fill="midnightblue" stroke="midnightblue" points="3484.81,-155.33 3492.47,-148.01 3481.92,-148.95 3484.81,-155.33"/>
</g>
<!-- Node28&#45;&gt;Node25 -->
<g id="edge69" class="edge">
<title>Node28&#45;&gt;Node25</title>
<path fill="none" stroke="midnightblue" d="M3288.25,-447.45C3319.51,-441.1 3355.68,-430.08 3384,-411 3486.13,-342.2 3558.83,-206.26 3582.6,-157.46"/>
<polygon fill="midnightblue" stroke="midnightblue" points="3585.88,-158.72 3587.03,-148.19 3579.56,-155.7 3585.88,-158.72"/>
</g>
<!-- Node28&#45;&gt;Node27 -->
<g id="edge68" class="edge">
<title>Node28&#45;&gt;Node27</title>
<path fill="none" stroke="midnightblue" d="M3270.34,-447.48C3313.84,-439.71 3377.62,-427.01 3432,-411 3434.58,-410.24 3437.23,-409.39 3439.88,-408.48"/>
<polygon fill="midnightblue" stroke="midnightblue" points="3441.08,-411.77 3449.29,-405.07 3438.7,-405.19 3441.08,-411.77"/>
</g>
<!-- Node29 -->
<g id="node28" class="node">
<title>Node29</title>
<g id="a_node28"><a xlink:href="_elasticity_utils_8hpp.html" target="_top" xlink:title=" ">
<polygon fill="none" stroke="black" points="1866.5,-380.5 1866.5,-410.5 1995.5,-410.5 1995.5,-380.5 1866.5,-380.5"/>
<text text-anchor="start" x="1874.5" y="-398.5" font-family="Helvetica,sans-Serif" font-size="10.00">polyfem/utils/Elasticity</text>
<text text-anchor="middle" x="1931" y="-387.5" font-family="Helvetica,sans-Serif" font-size="10.00">Utils.hpp</text>
</a>
</g>
</g>
<!-- Node28&#45;&gt;Node29 -->
<g id="edge52" class="edge">
<title>Node28&#45;&gt;Node29</title>
<path fill="none" stroke="midnightblue" d="M3145.59,-452.61C2919.33,-442.16 2234.16,-410.5 2005.89,-399.96"/>
<polygon fill="midnightblue" stroke="midnightblue" points="2005.85,-396.45 1995.7,-399.49 2005.52,-403.45 2005.85,-396.45"/>
</g>
<!-- Node29&#45;&gt;Node4 -->
<g id="edge53" class="edge">
<title>Node29&#45;&gt;Node4</title>
<path fill="none" stroke="midnightblue" d="M1946.53,-380.2C1965.57,-363.06 1999.25,-334.02 2031,-313 2128.64,-248.36 2153.56,-228.92 2264,-190 2325.42,-168.36 2398.46,-155.21 2451.46,-147.77"/>
<polygon fill="midnightblue" stroke="midnightblue" points="2452.01,-151.23 2461.45,-146.41 2451.06,-144.29 2452.01,-151.23"/>
</g>
<!-- Node29&#45;&gt;Node9 -->
<g id="edge54" class="edge">
<title>Node29&#45;&gt;Node9</title>
<path fill="none" stroke="midnightblue" d="M1995.9,-385.19C2074.82,-373.86 2208.34,-354.7 2296.34,-342.08"/>
<polygon fill="midnightblue" stroke="midnightblue" points="2296.91,-345.53 2306.31,-340.65 2295.91,-338.6 2296.91,-345.53"/>
</g>
<!-- Node29&#45;&gt;Node12 -->
<g id="edge61" class="edge">
<title>Node29&#45;&gt;Node12</title>
<path fill="none" stroke="midnightblue" d="M1910.91,-380.42C1885.88,-363.24 1841.48,-333.89 1801,-313 1706.09,-264.02 1657.79,-293.11 1579,-221 1520.23,-167.22 1464.7,-122.21 1509,-56 1522.59,-35.69 1547.19,-24.54 1569.59,-18.42"/>
<polygon fill="midnightblue" stroke="midnightblue" points="1570.47,-21.81 1579.35,-16.02 1568.8,-15.01 1570.47,-21.81"/>
</g>
<!-- Node29&#45;&gt;Node14 -->
<g id="edge60" class="edge">
<title>Node29&#45;&gt;Node14</title>
<path fill="none" stroke="midnightblue" d="M1931.92,-380.47C1933.36,-357.14 1936,-308.88 1936,-268 1936,-268 1936,-268 1936,-204.5 1936,-24.38 2155.47,-153.44 2333,-123 2387.23,-113.7 2533.16,-94.18 2623.52,-82.32"/>
<polygon fill="midnightblue" stroke="midnightblue" points="2623.98,-85.79 2633.44,-81.02 2623.07,-78.85 2623.98,-85.79"/>
</g>
<!-- Node29&#45;&gt;Node15 -->
<g id="edge64" class="edge">
<title>Node29&#45;&gt;Node15</title>
<path fill="none" stroke="midnightblue" d="M1890.01,-380.43C1865.54,-371.37 1834.23,-358.57 1808,-344 1787.41,-332.56 1786.45,-322.74 1765,-313 1700.61,-283.75 1677.31,-298.71 1610,-277 1548.57,-257.18 1528.81,-258.11 1476,-221 1421.8,-182.91 1373.32,-119.85 1351.79,-89.65"/>
<polygon fill="midnightblue" stroke="midnightblue" points="1354.39,-87.25 1345.78,-81.07 1348.66,-91.27 1354.39,-87.25"/>
</g>
<!-- Node29&#45;&gt;Node16 -->
<g id="edge62" class="edge">
<title>Node29&#45;&gt;Node16</title>
<path fill="none" stroke="midnightblue" d="M1938.62,-380.26C1948.39,-362.91 1966.66,-333.4 1988,-313 2061.8,-242.46 2088.13,-230.15 2182,-190 2295.68,-141.38 2329.63,-140.67 2452,-123 2815.69,-70.49 2912.5,-124.94 3278,-87 3295.94,-85.14 3315.77,-81.97 3332.06,-79.07"/>
<polygon fill="midnightblue" stroke="midnightblue" points="3332.99,-82.45 3342.2,-77.21 3331.73,-75.57 3332.99,-82.45"/>
</g>
<!-- Node29&#45;&gt;Node18 -->
<g id="edge55" class="edge">
<title>Node29&#45;&gt;Node18</title>
<path fill="none" stroke="midnightblue" d="M1922.81,-380.34C1912.61,-363.34 1894.05,-334.44 1874,-313 1863.51,-301.79 1850.16,-290.95 1839.13,-282.73"/>
<polygon fill="midnightblue" stroke="midnightblue" points="1841.02,-279.78 1830.87,-276.73 1836.91,-285.44 1841.02,-279.78"/>
</g>
<!-- Node29&#45;&gt;Node30 -->
<g id="edge56" class="edge">
<title>Node29&#45;&gt;Node30</title>
<path fill="none" stroke="midnightblue" d="M1866.42,-386C1776.24,-374.14 1612.77,-352.63 1515.63,-339.85"/>
<polygon fill="midnightblue" stroke="midnightblue" points="1515.94,-336.36 1505.57,-338.52 1515.02,-343.3 1515.94,-336.36"/>
</g>
<!-- Node31 -->
<g id="node30" class="node">
<title>Node31</title>
<g id="a_node30"><a xlink:href="_autodiff_types_8hpp.html" target="_top" xlink:title=" ">
<polygon fill="none" stroke="red" points="2040.5,-319 2040.5,-338 2211.5,-338 2211.5,-319 2040.5,-319"/>
<text text-anchor="middle" x="2126" y="-326" font-family="Helvetica,sans-Serif" font-size="10.00">polyfem/utils/AutodiffTypes.hpp</text>
</a>
</g>
</g>
<!-- Node29&#45;&gt;Node31 -->
<g id="edge58" class="edge">
<title>Node29&#45;&gt;Node31</title>
<path fill="none" stroke="midnightblue" d="M1973.31,-380.4C2008.44,-368.69 2057.81,-352.23 2090.8,-341.23"/>
<polygon fill="midnightblue" stroke="midnightblue" points="2092.1,-344.49 2100.48,-338.01 2089.89,-337.85 2092.1,-344.49"/>
</g>
<!-- Node29&#45;&gt;Node35 -->
<g id="edge63" class="edge">
<title>Node29&#45;&gt;Node35</title>
<path fill="none" stroke="midnightblue" d="M1882.37,-380.47C1850.23,-370.9 1807.31,-357.55 1770,-344 1768.15,-343.33 1766.24,-342.61 1764.33,-341.87"/>
<polygon fill="midnightblue" stroke="midnightblue" points="1765.45,-338.55 1754.87,-338.09 1762.86,-345.05 1765.45,-338.55"/>
</g>
<!-- Node30&#45;&gt;Node4 -->
<g id="edge57" class="edge">
<title>Node30&#45;&gt;Node4</title>
<path fill="none" stroke="midnightblue" d="M1473.06,-313.43C1514.65,-297.67 1585.35,-272.35 1648,-257 1746.79,-232.8 1774.35,-241.35 1874,-221 1929.66,-209.63 1942.01,-199.63 1998,-190 2158.4,-162.41 2349.09,-148.81 2451.06,-143.06"/>
<polygon fill="midnightblue" stroke="midnightblue" points="2451.46,-146.54 2461.25,-142.49 2451.07,-139.55 2451.46,-146.54"/>
</g>
<!-- Node31&#45;&gt;Node14 -->
<g id="edge59" class="edge">
<title>Node31&#45;&gt;Node14</title>
<path fill="none" stroke="midnightblue" d="M2132.46,-318.77C2150.59,-294.85 2204.51,-227.54 2264,-190 2339.01,-142.66 2366.56,-146.83 2452,-123 2513.92,-105.73 2586.1,-91.65 2636.38,-82.79"/>
<polygon fill="midnightblue" stroke="midnightblue" points="2637.2,-86.2 2646.45,-81.03 2636,-79.3 2637.2,-86.2"/>
</g>
<!-- Node36&#45;&gt;Node4 -->
<g id="edge71" class="edge">
<title>Node36&#45;&gt;Node4</title>
<path fill="none" stroke="midnightblue" d="M2960.09,-385.86C2943.95,-362.72 2896.93,-298.33 2846,-257 2800.37,-219.97 2786.47,-212.06 2732,-190 2685.23,-171.06 2629.54,-158 2587.57,-149.92"/>
<polygon fill="midnightblue" stroke="midnightblue" points="2587.95,-146.43 2577.48,-148.02 2586.66,-153.31 2587.95,-146.43"/>
</g>
<!-- Node36&#45;&gt;Node9 -->
<g id="edge73" class="edge">
<title>Node36&#45;&gt;Node9</title>
<path fill="none" stroke="midnightblue" d="M2923.96,-389.67C2899.23,-386.83 2867.34,-383.19 2839,-380 2711.3,-365.62 2563.4,-349.26 2471.76,-339.16"/>
<polygon fill="midnightblue" stroke="midnightblue" points="2472.02,-335.67 2461.7,-338.05 2471.26,-342.62 2472.02,-335.67"/>
</g>
<!-- Node36&#45;&gt;Node12 -->
<g id="edge74" class="edge">
<title>Node36&#45;&gt;Node12</title>
<path fill="none" stroke="midnightblue" d="M2988.16,-385.93C3036.68,-365.79 3151.5,-310.31 3196,-221 3215.45,-181.97 3166.76,-159.26 3191,-123 3214.25,-88.21 3254.75,-121.79 3278,-87 3285.66,-75.55 3287.61,-65.87 3278,-56 3249.17,-26.37 1938.66,-13.71 1666.98,-11.4"/>
<polygon fill="midnightblue" stroke="midnightblue" points="1666.69,-7.89 1656.66,-11.31 1666.63,-14.89 1666.69,-7.89"/>
</g>
<!-- Node36&#45;&gt;Node31 -->
<g id="edge72" class="edge">
<title>Node36&#45;&gt;Node31</title>
<path fill="none" stroke="midnightblue" d="M2923.72,-389.16C2899.04,-386.18 2867.29,-382.55 2839,-380 2598.56,-358.3 2537.73,-362.2 2297,-344 2272.59,-342.15 2246.22,-340 2221.68,-337.92"/>
<polygon fill="midnightblue" stroke="midnightblue" points="2221.91,-334.43 2211.65,-337.07 2221.32,-341.41 2221.91,-334.43"/>
</g>
<!-- Node37&#45;&gt;Node4 -->
<g id="edge76" class="edge">
<title>Node37&#45;&gt;Node4</title>
<path fill="none" stroke="midnightblue" d="M306.62,-385.94C315.98,-383.63 326.35,-381.4 336,-380 650.46,-334.48 740.66,-416.54 1050,-344 1144.37,-321.87 1157.23,-285.09 1250,-257 1411.2,-208.19 1455.72,-209.64 1623,-190 1929.3,-154.04 2297.29,-143.52 2450.99,-140.58"/>
<polygon fill="midnightblue" stroke="midnightblue" points="2451.3,-144.08 2461.24,-140.39 2451.17,-137.08 2451.3,-144.08"/>
</g>
<!-- Node37&#45;&gt;Node9 -->
<g id="edge77" class="edge">
<title>Node37&#45;&gt;Node9</title>
<path fill="none" stroke="midnightblue" d="M322.37,-391.76C379.27,-388.49 478.7,-383.07 564,-380 1299.7,-353.49 1484.94,-384.44 2220,-344 2244.83,-342.63 2271.73,-340.52 2296.42,-338.33"/>
<polygon fill="midnightblue" stroke="midnightblue" points="2296.85,-341.8 2306.49,-337.42 2296.22,-334.83 2296.85,-341.8"/>
</g>
<!-- Node37&#45;&gt;Node12 -->
<g id="edge80" class="edge">
<title>Node37&#45;&gt;Node12</title>
<path fill="none" stroke="midnightblue" d="M318.27,-385.99C456.15,-358.18 884,-271.62 884,-268 884,-268 884,-268 884,-137.5 884,-91.99 905.92,-77.57 946,-56 1000.43,-26.71 1423.44,-15.1 1568.99,-11.95"/>
<polygon fill="midnightblue" stroke="midnightblue" points="1569.46,-15.44 1579.39,-11.73 1569.32,-8.45 1569.46,-15.44"/>
</g>
<!-- Node37&#45;&gt;Node15 -->
<g id="edge81" class="edge">
<title>Node37&#45;&gt;Node15</title>
<path fill="none" stroke="midnightblue" d="M306.63,-385.99C315.99,-383.69 326.36,-381.44 336,-380 468.76,-360.16 818.19,-402.53 939,-344 1057.41,-286.63 1023.33,-190.96 1136,-123 1186.22,-92.71 1253.81,-80.55 1297.15,-75.69"/>
<polygon fill="midnightblue" stroke="midnightblue" points="1297.76,-79.15 1307.35,-74.63 1297.04,-72.18 1297.76,-79.15"/>
</g>
<!-- Node37&#45;&gt;Node18 -->
<g id="edge78" class="edge">
<title>Node37&#45;&gt;Node18</title>
<path fill="none" stroke="midnightblue" d="M306.3,-385.97C315.74,-383.64 326.24,-381.38 336,-380 700.73,-328.5 797.51,-380.98 1164,-344 1251.31,-335.19 1271.96,-324.18 1359,-313 1482.37,-297.16 1625.02,-283.97 1718.13,-276.05"/>
<polygon fill="midnightblue" stroke="midnightblue" points="1718.44,-279.54 1728.11,-275.21 1717.85,-272.57 1718.44,-279.54"/>
</g>
<!-- Node37&#45;&gt;Node31 -->
<g id="edge79" class="edge">
<title>Node37&#45;&gt;Node31</title>
<path fill="none" stroke="midnightblue" d="M322.06,-391.43C372.2,-388.18 454.77,-383.1 526,-380 1076.38,-356.05 1214.43,-363.06 1765,-344 1854.96,-340.89 1957.49,-336.71 2030.24,-333.64"/>
<polygon fill="midnightblue" stroke="midnightblue" points="2030.46,-337.13 2040.31,-333.21 2030.17,-330.14 2030.46,-337.13"/>
</g>
<!-- Node38&#45;&gt;Node4 -->
<g id="edge83" class="edge">
<title>Node38&#45;&gt;Node4</title>
<path fill="none" stroke="midnightblue" d="M2663.78,-385.64C2656.02,-355.87 2627.95,-257.51 2580,-190 2570.33,-176.39 2556.41,-163.81 2544.86,-154.61"/>
<polygon fill="midnightblue" stroke="midnightblue" points="2546.67,-151.59 2536.6,-148.27 2542.4,-157.14 2546.67,-151.59"/>
</g>
<!-- Node38&#45;&gt;Node9 -->
<g id="edge85" class="edge">
<title>Node38&#45;&gt;Node9</title>
<path fill="none" stroke="midnightblue" d="M2632.3,-385.93C2624.34,-383.95 2615.88,-381.87 2608,-380 2558.17,-368.15 2501.93,-355.48 2458.27,-345.79"/>
<polygon fill="midnightblue" stroke="midnightblue" points="2458.82,-342.33 2448.3,-343.58 2457.31,-349.16 2458.82,-342.33"/>
</g>
<!-- Node38&#45;&gt;Node12 -->
<g id="edge86" class="edge">
<title>Node38&#45;&gt;Node12</title>
<path fill="none" stroke="midnightblue" d="M2667.61,-385.95C2671.28,-365.59 2680,-312.63 2680,-268 2680,-268 2680,-268 2680,-204.5 2680,-165.33 2618.92,-75.6 2585,-56 2505.2,-9.88 1852.11,-9.76 1666.84,-10.67"/>
<polygon fill="midnightblue" stroke="midnightblue" points="1666.56,-7.17 1656.58,-10.72 1666.6,-14.17 1666.56,-7.17"/>
</g>
<!-- Node38&#45;&gt;Node31 -->
<g id="edge84" class="edge">
<title>Node38&#45;&gt;Node31</title>
<path fill="none" stroke="midnightblue" d="M2621.81,-389.18C2531.1,-378.26 2322.7,-353.18 2207.05,-339.26"/>
<polygon fill="midnightblue" stroke="midnightblue" points="2207.18,-335.75 2196.83,-338.03 2206.34,-342.7 2207.18,-335.75"/>
</g>
<!-- Node39&#45;&gt;Node4 -->
<g id="edge88" class="edge">
<title>Node39&#45;&gt;Node4</title>
<path fill="none" stroke="midnightblue" d="M1665.79,-447.33C1661.77,-414.6 1652.66,-298.41 1719,-257 1777.27,-220.62 1958.15,-231.7 2026,-221 2095.83,-209.99 2112.35,-202.06 2182,-190 2274.72,-173.95 2382.15,-158.62 2451.5,-149.14"/>
<polygon fill="midnightblue" stroke="midnightblue" points="2452.01,-152.61 2461.44,-147.79 2451.06,-145.67 2452.01,-152.61"/>
</g>
<!-- Node39&#45;&gt;Node9 -->
<g id="edge89" class="edge">
<title>Node39&#45;&gt;Node9</title>
<path fill="none" stroke="midnightblue" d="M1722.68,-452.45C1801.42,-446.83 1949.59,-434.1 2074,-411 2164.57,-394.18 2267.63,-365.04 2329.15,-346.54"/>
<polygon fill="midnightblue" stroke="midnightblue" points="2330.47,-349.8 2339.03,-343.55 2328.45,-343.1 2330.47,-349.8"/>
</g>
<!-- Node39&#45;&gt;Node12 -->
<g id="edge93" class="edge">
<title>Node39&#45;&gt;Node12</title>
<path fill="none" stroke="midnightblue" d="M1632.61,-447.49C1600.53,-439.24 1551.53,-425.82 1510,-411 1477.19,-399.29 1471.09,-390.91 1438,-380 1334.38,-345.85 960,-377.1 960,-268 960,-268 960,-268 960,-137.5 960,-99.74 954.58,-79.67 984,-56 1029.24,-19.6 1428.68,-12.63 1569.29,-11.31"/>
<polygon fill="midnightblue" stroke="midnightblue" points="1569.38,-14.81 1579.35,-11.22 1569.32,-7.81 1569.38,-14.81"/>
</g>
<!-- Node39&#45;&gt;Node15 -->
<g id="edge94" class="edge">
<title>Node39&#45;&gt;Node15</title>
<path fill="none" stroke="midnightblue" d="M1652.39,-447.33C1625.26,-431.6 1564.87,-398.31 1510,-380 1430.95,-353.63 1378.96,-408.33 1326,-344 1264.08,-268.8 1311.1,-138.38 1331.65,-90.66"/>
<polygon fill="midnightblue" stroke="midnightblue" points="1334.94,-91.87 1335.8,-81.31 1328.54,-89.03 1334.94,-91.87"/>
</g>
<!-- Node39&#45;&gt;Node18 -->
<g id="edge90" class="edge">
<title>Node39&#45;&gt;Node18</title>
<path fill="none" stroke="midnightblue" d="M1666.77,-447.37C1666.59,-423.06 1669.37,-353.16 1705,-313 1719.45,-296.71 1740.6,-286.24 1760.7,-279.55"/>
<polygon fill="midnightblue" stroke="midnightblue" points="1761.92,-282.84 1770.45,-276.56 1759.86,-276.15 1761.92,-282.84"/>
</g>
<!-- Node39&#45;&gt;Node29 -->
<g id="edge91" class="edge">
<title>Node39&#45;&gt;Node29</title>
<path fill="none" stroke="midnightblue" d="M1704.82,-447.48C1744.92,-438.44 1809.22,-423.95 1859.02,-412.72"/>
<polygon fill="midnightblue" stroke="midnightblue" points="1859.79,-416.14 1868.78,-410.52 1858.26,-409.31 1859.79,-416.14"/>
</g>
<!-- Node39&#45;&gt;Node31 -->
<g id="edge92" class="edge">
<title>Node39&#45;&gt;Node31</title>
<path fill="none" stroke="midnightblue" d="M1722.77,-453.44C1812.21,-448.63 1983.25,-436.37 2038,-411 2069.97,-396.19 2098.12,-365.35 2113.54,-346.15"/>
<polygon fill="midnightblue" stroke="midnightblue" points="2116.49,-348.05 2119.87,-338 2110.97,-343.75 2116.49,-348.05"/>
</g>
<!-- Node40&#45;&gt;Node4 -->
<g id="edge96" class="edge">
<title>Node40&#45;&gt;Node4</title>
<path fill="none" stroke="midnightblue" d="M513.62,-447.25C501.41,-431.69 480.04,-399.06 498,-380 544.34,-330.83 1037.93,-352.14 1105,-344 1316.76,-318.3 1366.77,-293.11 1577,-257 1677.24,-239.78 1705.39,-249.58 1803,-221 1836.05,-211.33 1840.59,-198.34 1874,-190 1981.58,-163.15 2305.21,-147.82 2451.18,-142.1"/>
<polygon fill="midnightblue" stroke="midnightblue" points="2451.52,-145.59 2461.38,-141.71 2451.25,-138.6 2451.52,-145.59"/>
</g>
<!-- Node40&#45;&gt;Node9 -->
<g id="edge98" class="edge">
<title>Node40&#45;&gt;Node9</title>
<path fill="none" stroke="midnightblue" d="M533.27,-447.47C558.2,-430.71 617.16,-393.87 673,-380 839.87,-338.55 2048.33,-353.58 2220,-344 2244.83,-342.61 2271.73,-340.5 2296.42,-338.3"/>
<polygon fill="midnightblue" stroke="midnightblue" points="2296.84,-341.78 2306.49,-337.39 2296.21,-334.81 2296.84,-341.78"/>
</g>
<!-- Node40&#45;&gt;Node12 -->
<g id="edge101" class="edge">
<title>Node40&#45;&gt;Node12</title>
<path fill="none" stroke="midnightblue" d="M449.66,-456.7C346.44,-456.31 162.09,-449.97 110,-411 78.57,-387.49 76,-368.75 76,-329.5 76,-329.5 76,-329.5 76,-137.5 76,-96.75 83.53,-77.73 118,-56 180.7,-16.47 1317.62,-11.66 1569.05,-11.08"/>
<polygon fill="midnightblue" stroke="midnightblue" points="1569.34,-14.58 1579.33,-11.06 1569.32,-7.58 1569.34,-14.58"/>
</g>
<!-- Node40&#45;&gt;Node18 -->
<g id="edge99" class="edge">
<title>Node40&#45;&gt;Node18</title>
<path fill="none" stroke="midnightblue" d="M515.81,-447.33C507.14,-431.61 492.32,-398.33 510,-380 548.75,-339.83 1459.55,-356.25 1514,-344 1547.99,-336.36 1552.71,-323.27 1586,-313 1638.05,-296.95 1698.51,-285.45 1744.66,-278.09"/>
<polygon fill="midnightblue" stroke="midnightblue" points="1745.24,-281.54 1754.57,-276.53 1744.15,-274.62 1745.24,-281.54"/>
</g>
<!-- Node40&#45;&gt;Node29 -->
<g id="edge97" class="edge">
<title>Node40&#45;&gt;Node29</title>
<path fill="none" stroke="midnightblue" d="M592.37,-452.99C832.59,-442.85 1610.35,-410.03 1855.95,-399.67"/>
<polygon fill="midnightblue" stroke="midnightblue" points="1856.36,-403.15 1866.2,-399.23 1856.07,-396.16 1856.36,-403.15"/>
</g>
<!-- Node40&#45;&gt;Node31 -->
<g id="edge100" class="edge">
<title>Node40&#45;&gt;Node31</title>
<path fill="none" stroke="midnightblue" d="M522.91,-447.46C527.11,-431.01 538.82,-395.19 564,-380 621.15,-345.51 1698.29,-346.34 1765,-344 1854.95,-340.85 1957.49,-336.67 2030.24,-333.61"/>
<polygon fill="midnightblue" stroke="midnightblue" points="2030.46,-337.11 2040.31,-333.19 2030.17,-330.11 2030.46,-337.11"/>
</g>
<!-- Node40&#45;&gt;Node35 -->
<g id="edge102" class="edge">
<title>Node40&#45;&gt;Node35</title>
<path fill="none" stroke="midnightblue" d="M518.36,-447.44C514.07,-431.58 507.77,-397.66 526,-380 568.32,-339 1527.2,-347.86 1586,-344 1626.65,-341.33 1673.38,-336.5 1703.51,-333.15"/>
<polygon fill="midnightblue" stroke="midnightblue" points="1704.27,-336.58 1713.81,-331.99 1703.49,-329.63 1704.27,-336.58"/>
</g>
<!-- Node41&#45;&gt;Node4 -->
<g id="edge104" class="edge">
<title>Node41&#45;&gt;Node4</title>
<path fill="none" stroke="midnightblue" d="M2468.01,-447.48C2477.01,-439.18 2489.76,-425.68 2496,-411 2533.52,-322.75 2529.22,-204.35 2525.77,-158.63"/>
<polygon fill="midnightblue" stroke="midnightblue" points="2529.23,-158.08 2524.91,-148.41 2522.26,-158.66 2529.23,-158.08"/>
</g>
<!-- Node41&#45;&gt;Node9 -->
<g id="edge106" class="edge">
<title>Node41&#45;&gt;Node9</title>
<path fill="none" stroke="midnightblue" d="M2453.85,-447.4C2446.89,-433.14 2432.22,-403.81 2418,-380 2412.45,-370.71 2405.9,-360.77 2400.03,-352.18"/>
<polygon fill="midnightblue" stroke="midnightblue" points="2402.81,-350.05 2394.24,-343.82 2397.06,-354.03 2402.81,-350.05"/>
</g>
<!-- Node41&#45;&gt;Node12 -->
<g id="edge110" class="edge">
<title>Node41&#45;&gt;Node12</title>
<path fill="none" stroke="midnightblue" d="M2528.16,-455.78C2675.2,-454.59 3004.94,-447.8 3039,-411 3053.47,-395.37 3035.46,-334.1 3025,-313 3016.6,-296.06 2819.05,-64.17 2802,-56 2750.1,-31.12 1883.8,-15.35 1666.92,-11.77"/>
<polygon fill="midnightblue" stroke="midnightblue" points="1666.85,-8.27 1656.79,-11.61 1666.74,-15.27 1666.85,-8.27"/>
</g>
<!-- Node41&#45;&gt;Node14 -->
<g id="edge109" class="edge">
<title>Node41&#45;&gt;Node14</title>
<path fill="none" stroke="midnightblue" d="M2528.21,-455.55C2670.98,-453.89 2984.48,-446.24 3017,-411 3049.53,-375.75 3034.76,-334.14 2884,-190 2857.61,-164.77 2766.81,-111.33 2723.01,-86.16"/>
<polygon fill="midnightblue" stroke="midnightblue" points="2724.59,-83.03 2714.17,-81.1 2721.11,-89.1 2724.59,-83.03"/>
</g>
<!-- Node41&#45;&gt;Node18 -->
<g id="edge107" class="edge">
<title>Node41&#45;&gt;Node18</title>
<path fill="none" stroke="midnightblue" d="M2462.66,-447.16C2475.05,-422.29 2505.53,-351.07 2470,-313 2433.18,-273.56 2091.13,-267.88 1917.75,-267.57"/>
<polygon fill="midnightblue" stroke="midnightblue" points="1917.6,-264.07 1907.6,-267.56 1917.59,-271.07 1917.6,-264.07"/>
</g>
<!-- Node41&#45;&gt;Node29 -->
<g id="edge105" class="edge">
<title>Node41&#45;&gt;Node29</title>
<path fill="none" stroke="midnightblue" d="M2387.75,-448.07C2288.45,-436.86 2107.84,-416.47 2006.02,-404.97"/>
<polygon fill="midnightblue" stroke="midnightblue" points="2006.14,-401.46 1995.81,-403.82 2005.35,-408.42 2006.14,-401.46"/>
</g>
<!-- Node41&#45;&gt;Node31 -->
<g id="edge108" class="edge">
<title>Node41&#45;&gt;Node31</title>
<path fill="none" stroke="midnightblue" d="M2435.44,-447.4C2377.83,-425.45 2225.12,-367.27 2158.19,-341.77"/>
<polygon fill="midnightblue" stroke="midnightblue" points="2159.18,-338.4 2148.59,-338.11 2156.69,-344.94 2159.18,-338.4"/>
</g>
<!-- Node41&#45;&gt;Node35 -->
<g id="edge111" class="edge">
<title>Node41&#45;&gt;Node35</title>
<path fill="none" stroke="midnightblue" d="M2387.79,-455.2C2250.91,-452.93 1953.33,-444.19 1857,-411 1815.15,-396.58 1773.89,-364.17 1751.71,-344.85"/>
<polygon fill="midnightblue" stroke="midnightblue" points="1753.98,-342.19 1744.19,-338.15 1749.33,-347.41 1753.98,-342.19"/>
</g>
<!-- Node42&#45;&gt;Node4 -->
<g id="edge113" class="edge">
<title>Node42&#45;&gt;Node4</title>
<path fill="none" stroke="midnightblue" d="M1367.35,-447.44C1396.69,-439.95 1438.11,-427.65 1472,-411 1579.78,-358.05 1582.18,-300.77 1694,-257 1800.99,-215.12 1839.07,-250.93 1950,-221 1985.22,-211.5 1990.6,-198.82 2026,-190 2174.02,-153.12 2353.2,-143.07 2451.2,-140.4"/>
<polygon fill="midnightblue" stroke="midnightblue" points="2451.39,-143.9 2461.3,-140.14 2451.21,-136.9 2451.39,-143.9"/>
</g>
<!-- Node42&#45;&gt;Node9 -->
<g id="edge121" class="edge">
<title>Node42&#45;&gt;Node9</title>
<path fill="none" stroke="midnightblue" d="M1401.73,-452.69C1576.23,-444.46 2010.8,-422.9 2040,-411 2059.55,-403.03 2056.87,-388.93 2076,-380 2114.12,-362.21 2219.31,-347.42 2296.19,-338.54"/>
<polygon fill="midnightblue" stroke="midnightblue" points="2296.82,-341.99 2306.36,-337.38 2296.03,-335.03 2296.82,-341.99"/>
</g>
<!-- Node42&#45;&gt;Node12 -->
<g id="edge125" class="edge">
<title>Node42&#45;&gt;Node12</title>
<path fill="none" stroke="midnightblue" d="M1258.15,-455.68C1006.33,-454.27 176.52,-446.89 133,-411 104.31,-387.33 114,-366.69 114,-329.5 114,-329.5 114,-329.5 114,-137.5 114,67.07 363.68,-78.54 567,-56 951.22,-13.41 1418.59,-10.48 1568.93,-10.75"/>
<polygon fill="midnightblue" stroke="midnightblue" points="1569.2,-14.25 1579.2,-10.77 1569.21,-7.25 1569.2,-14.25"/>
</g>
<!-- Node42&#45;&gt;Node14 -->
<g id="edge124" class="edge">
<title>Node42&#45;&gt;Node14</title>
<path fill="none" stroke="midnightblue" d="M1381.53,-447.44C1402.73,-441.1 1425.27,-430.1 1438,-411 1445.64,-399.54 1445.45,-391.59 1438,-380 1417.13,-347.55 1379.87,-376.45 1359,-344 1351.55,-332.41 1351.6,-324.62 1359,-313 1437.7,-189.51 1844.62,-140.6 1990,-123 2253.01,-91.15 2321.23,-111.73 2585,-87 2598.83,-85.7 2613.56,-84.04 2627.69,-82.31"/>
<polygon fill="midnightblue" stroke="midnightblue" points="2628.36,-85.75 2637.85,-81.03 2627.49,-78.8 2628.36,-85.75"/>
</g>
<!-- Node42&#45;&gt;Node18 -->
<g id="edge122" class="edge">
<title>Node42&#45;&gt;Node18</title>
<path fill="none" stroke="midnightblue" d="M1258.42,-456.56C1094.34,-457.1 702.06,-453.85 662,-411 652.59,-400.94 652.45,-389.93 662,-380 697.61,-342.97 1535.44,-353.08 1586,-344 1591,-343.1 1718.66,-300.91 1782.43,-279.79"/>
<polygon fill="midnightblue" stroke="midnightblue" points="1783.7,-283.06 1792.09,-276.59 1781.5,-276.41 1783.7,-283.06"/>
</g>
<!-- Node42&#45;&gt;Node29 -->
<g id="edge114" class="edge">
<title>Node42&#45;&gt;Node29</title>
<path fill="none" stroke="midnightblue" d="M1401.6,-448.91C1516.11,-437.57 1739.39,-415.47 1856.01,-403.92"/>
<polygon fill="midnightblue" stroke="midnightblue" points="1856.66,-407.38 1866.27,-402.91 1855.97,-400.41 1856.66,-407.38"/>
</g>
<!-- Node42&#45;&gt;Node31 -->
<g id="edge123" class="edge">
<title>Node42&#45;&gt;Node31</title>
<path fill="none" stroke="midnightblue" d="M1401.67,-453.41C1563.67,-447.23 1948.38,-430.69 2004,-411 2026.55,-403.02 2028.18,-393.39 2048,-380 2066.66,-367.39 2088.16,-353.52 2103.86,-343.51"/>
<polygon fill="midnightblue" stroke="midnightblue" points="2105.81,-346.42 2112.37,-338.1 2102.05,-340.51 2105.81,-346.42"/>
</g>
<!-- Node42&#45;&gt;Node35 -->
<g id="edge126" class="edge">
<title>Node42&#45;&gt;Node35</title>
<path fill="none" stroke="midnightblue" d="M1258.39,-456.47C1096.3,-456.8 712.28,-453.07 673,-411 663.6,-400.93 663.44,-389.92 673,-380 711.16,-340.42 1607.39,-350.38 1662,-344 1675.87,-342.38 1691.05,-339.54 1703.95,-336.8"/>
<polygon fill="midnightblue" stroke="midnightblue" points="1704.72,-340.22 1713.74,-334.66 1703.22,-333.38 1704.72,-340.22"/>
</g>
<!-- Node43 -->
<g id="node39" class="node">
<title>Node43</title>
<g id="a_node39"><a xlink:title=" ">
<polygon fill="none" stroke="#bfbfbf" points="975,-386 975,-405 1081,-405 1081,-386 975,-386"/>
<text text-anchor="middle" x="1028" y="-393" font-family="Helvetica,sans-Serif" font-size="10.00">thrust/functional.h</text>
</a>
</g>
</g>
<!-- Node42&#45;&gt;Node43 -->
<g id="edge115" class="edge">
<title>Node42&#45;&gt;Node43</title>
<path fill="none" stroke="midnightblue" d="M1281.15,-447.5C1232.57,-438.88 1155.96,-424.89 1090,-411 1084.59,-409.86 1078.93,-408.61 1073.32,-407.34"/>
<polygon fill="midnightblue" stroke="midnightblue" points="1073.88,-403.88 1063.35,-405.05 1072.31,-410.7 1073.88,-403.88"/>
</g>
<!-- Node44 -->
<g id="node40" class="node">
<title>Node44</title>
<g id="a_node40"><a xlink:title=" ">
<polygon fill="none" stroke="#bfbfbf" points="1099,-386 1099,-405 1189,-405 1189,-386 1099,-386"/>
<text text-anchor="middle" x="1144" y="-393" font-family="Helvetica,sans-Serif" font-size="10.00">thrust/reduce.h</text>
</a>
</g>
</g>
<!-- Node42&#45;&gt;Node44 -->
<g id="edge116" class="edge">
<title>Node42&#45;&gt;Node44</title>
<path fill="none" stroke="midnightblue" d="M1303.35,-447.48C1271.03,-437.14 1216.4,-419.66 1180.27,-408.1"/>
<polygon fill="midnightblue" stroke="midnightblue" points="1181.19,-404.72 1170.6,-405.01 1179.06,-411.39 1181.19,-404.72"/>
</g>
<!-- Node45 -->
<g id="node41" class="node">
<title>Node45</title>
<g id="a_node41"><a xlink:title=" ">
<polygon fill="none" stroke="#bfbfbf" points="1207.5,-386 1207.5,-405 1332.5,-405 1332.5,-386 1207.5,-386"/>
<text text-anchor="middle" x="1270" y="-393" font-family="Helvetica,sans-Serif" font-size="10.00">thrust/device_vector.h</text>
</a>
</g>
</g>
<!-- Node42&#45;&gt;Node45 -->
<g id="edge117" class="edge">
<title>Node42&#45;&gt;Node45</title>
<path fill="none" stroke="midnightblue" d="M1321.4,-447.48C1312.14,-438.28 1297.18,-423.46 1285.79,-412.16"/>
<polygon fill="midnightblue" stroke="midnightblue" points="1288.15,-409.57 1278.58,-405.01 1283.22,-414.54 1288.15,-409.57"/>
</g>
<!-- Node46 -->
<g id="node42" class="node">
<title>Node46</title>
<g id="a_node42"><a xlink:title=" ">
<polygon fill="none" stroke="#bfbfbf" points="1350.5,-386 1350.5,-405 1429.5,-405 1429.5,-386 1350.5,-386"/>
<text text-anchor="middle" x="1390" y="-393" font-family="Helvetica,sans-Serif" font-size="10.00">thrust/copy.h</text>
</a>
</g>
</g>
<!-- Node42&#45;&gt;Node46 -->
<g id="edge118" class="edge">
<title>Node42&#45;&gt;Node46</title>
<path fill="none" stroke="midnightblue" d="M1338.6,-447.48C1347.86,-438.28 1362.82,-423.46 1374.21,-412.16"/>
<polygon fill="midnightblue" stroke="midnightblue" points="1376.78,-414.54 1381.42,-405.01 1371.85,-409.57 1376.78,-414.54"/>
</g>
<!-- Node47 -->
<g id="node43" class="node">
<title>Node47</title>
<g id="a_node43"><a xlink:title=" ">
<polygon fill="none" stroke="#bfbfbf" points="682.5,-386 682.5,-405 795.5,-405 795.5,-386 682.5,-386"/>
<text text-anchor="middle" x="739" y="-393" font-family="Helvetica,sans-Serif" font-size="10.00">thrust/host_vector.h</text>
</a>
</g>
</g>
<!-- Node42&#45;&gt;Node47 -->
<g id="edge119" class="edge">
<title>Node42&#45;&gt;Node47</title>
<path fill="none" stroke="midnightblue" d="M1258.17,-452.91C1156.56,-447.85 965.25,-435.77 804,-411 797.24,-409.96 790.14,-408.63 783.21,-407.2"/>
<polygon fill="midnightblue" stroke="midnightblue" points="783.76,-403.73 773.25,-405.04 782.28,-410.58 783.76,-403.73"/>
</g>
<!-- Node48 -->
<g id="node44" class="node">
<title>Node48</title>
<g id="a_node44"><a xlink:title=" ">
<polygon fill="none" stroke="#bfbfbf" points="813.5,-380.5 813.5,-410.5 956.5,-410.5 956.5,-380.5 813.5,-380.5"/>
<text text-anchor="start" x="821.5" y="-398.5" font-family="Helvetica,sans-Serif" font-size="10.00">polyfem/assembler/CUDA</text>
<text text-anchor="middle" x="885" y="-387.5" font-family="Helvetica,sans-Serif" font-size="10.00">_utilities.cuh</text>
</a>
</g>
</g>
<!-- Node42&#45;&gt;Node48 -->
<g id="edge120" class="edge">
<title>Node42&#45;&gt;Node48</title>
<path fill="none" stroke="midnightblue" d="M1258.36,-448.3C1187.06,-440.38 1074.29,-427.14 966.59,-411.04"/>
<polygon fill="midnightblue" stroke="midnightblue" points="966.93,-407.55 956.52,-409.52 965.89,-414.47 966.93,-407.55"/>
</g>
<!-- Node49&#45;&gt;Node4 -->
<g id="edge128" class="edge">
<title>Node49&#45;&gt;Node4</title>
<path fill="none" stroke="midnightblue" d="M2336.19,-510.32C2400.4,-506.92 2511.62,-496.77 2537,-467 2615.03,-375.45 2555.32,-211.76 2532.15,-157.52"/>
<polygon fill="midnightblue" stroke="midnightblue" points="2535.28,-155.93 2528.05,-148.18 2528.87,-158.74 2535.28,-155.93"/>
</g>
<!-- Node49&#45;&gt;Node9 -->
<g id="edge132" class="edge">
<title>Node49&#45;&gt;Node9</title>
<path fill="none" stroke="midnightblue" d="M2294.53,-503.2C2308.49,-476.11 2351.11,-393.35 2372.09,-352.63"/>
<polygon fill="midnightblue" stroke="midnightblue" points="2375.22,-354.19 2376.69,-343.69 2369,-350.98 2375.22,-354.19"/>
</g>
<!-- Node49&#45;&gt;Node12 -->
<g id="edge136" class="edge">
<title>Node49&#45;&gt;Node12</title>
<path fill="none" stroke="midnightblue" d="M2336.06,-509.51C2494.49,-500.48 3009.83,-466.98 3056,-411 3067.98,-396.48 3054.33,-334.89 3045,-313 3015.9,-244.77 2899.41,-86.96 2832,-56 2724.98,-6.84 1880.59,-9.21 1666.97,-10.61"/>
<polygon fill="midnightblue" stroke="midnightblue" points="1666.67,-7.11 1656.7,-10.68 1666.72,-14.11 1666.67,-7.11"/>
</g>
<!-- Node49&#45;&gt;Node14 -->
<g id="edge135" class="edge">
<title>Node49&#45;&gt;Node14</title>
<path fill="none" stroke="midnightblue" d="M2336.08,-510.82C2456.47,-506.68 2775.46,-488.45 2839,-411 2925.52,-305.54 2768.78,-139.18 2715.67,-88"/>
<polygon fill="midnightblue" stroke="midnightblue" points="2718.02,-85.4 2708.36,-81.05 2713.2,-90.47 2718.02,-85.4"/>
</g>
<!-- Node49&#45;&gt;Node18 -->
<g id="edge133" class="edge">
<title>Node49&#45;&gt;Node18</title>
<path fill="none" stroke="midnightblue" d="M2289.96,-503.43C2289.31,-472.06 2282.48,-362.71 2220,-313 2196.82,-294.56 2029.55,-280.88 1918.21,-273.69"/>
<polygon fill="midnightblue" stroke="midnightblue" points="1918.16,-270.18 1907.95,-273.04 1917.71,-277.17 1918.16,-270.18"/>
</g>
<!-- Node49&#45;&gt;Node29 -->
<g id="edge129" class="edge">
<title>Node49&#45;&gt;Node29</title>
<path fill="none" stroke="midnightblue" d="M2263.31,-503.41C2204.4,-484.46 2062.33,-438.75 1984.39,-413.68"/>
<polygon fill="midnightblue" stroke="midnightblue" points="1985.34,-410.31 1974.75,-410.58 1983.2,-416.97 1985.34,-410.31"/>
</g>
<!-- Node49&#45;&gt;Node31 -->
<g id="edge134" class="edge">
<title>Node49&#45;&gt;Node31</title>
<path fill="none" stroke="midnightblue" d="M2282.09,-503.2C2256.27,-474.47 2174.21,-383.15 2140.58,-345.73"/>
<polygon fill="midnightblue" stroke="midnightblue" points="2143.12,-343.31 2133.83,-338.21 2137.91,-347.99 2143.12,-343.31"/>
</g>
<!-- Node49&#45;&gt;Node35 -->
<g id="edge137" class="edge">
<title>Node49&#45;&gt;Node35</title>
<path fill="none" stroke="midnightblue" d="M2243.7,-510.04C2149.68,-505.58 1939.67,-492.95 1873,-467 1812.73,-443.54 1765.5,-378.41 1745.46,-346.95"/>
<polygon fill="midnightblue" stroke="midnightblue" points="1748.37,-345.01 1740.13,-338.35 1742.42,-348.7 1748.37,-345.01"/>
</g>
<!-- Node49&#45;&gt;Node39 -->
<g id="edge130" class="edge">
<title>Node49&#45;&gt;Node39</title>
<path fill="none" stroke="midnightblue" d="M2243.69,-508.96C2148.6,-502.57 1924.53,-486.67 1737,-467 1735.7,-466.86 1734.38,-466.72 1733.06,-466.58"/>
<polygon fill="midnightblue" stroke="midnightblue" points="1733.09,-463.06 1722.76,-465.41 1732.3,-470.01 1733.09,-463.06"/>
</g>
<!-- Node49&#45;&gt;Node42 -->
<g id="edge131" class="edge">
<title>Node49&#45;&gt;Node42</title>
<path fill="none" stroke="midnightblue" d="M2243.7,-509.4C2091.64,-500.84 1606.24,-473.54 1411.74,-462.6"/>
<polygon fill="midnightblue" stroke="midnightblue" points="1411.76,-459.09 1401.58,-462.03 1411.37,-466.08 1411.76,-459.09"/>
</g>
<!-- Node50&#45;&gt;Node4 -->
<g id="edge139" class="edge">
<title>Node50&#45;&gt;Node4</title>
<path fill="none" stroke="midnightblue" d="M199.09,-385.97C206,-383.64 213.73,-381.38 221,-380 500.48,-327.03 579.69,-392.35 860,-344 1099.63,-302.67 1145.13,-229.9 1385,-190 1591.38,-155.67 2233.58,-143.6 2451.11,-140.44"/>
<polygon fill="midnightblue" stroke="midnightblue" points="2451.19,-143.94 2461.14,-140.29 2451.09,-136.94 2451.19,-143.94"/>
</g>
<!-- Node50&#45;&gt;Node9 -->
<g id="edge140" class="edge">
<title>Node50&#45;&gt;Node9</title>
<path fill="none" stroke="midnightblue" d="M198.6,-385.95C205.63,-383.56 213.55,-381.27 221,-380 440.01,-342.82 1998.17,-355.79 2220,-344 2244.84,-342.68 2271.73,-340.58 2296.43,-338.39"/>
<polygon fill="midnightblue" stroke="midnightblue" points="2296.85,-341.86 2306.49,-337.48 2296.22,-334.89 2296.85,-341.86"/>
</g>
<!-- Node50&#45;&gt;Node12 -->
<g id="edge143" class="edge">
<title>Node50&#45;&gt;Node12</title>
<path fill="none" stroke="midnightblue" d="M201.8,-385.96C276.29,-360.14 493,-283.66 493,-268 493,-268 493,-268 493,-137.5 493,-27.52 1353.05,-13.15 1569.18,-11.28"/>
<polygon fill="midnightblue" stroke="midnightblue" points="1569.3,-14.78 1579.27,-11.2 1569.25,-7.78 1569.3,-14.78"/>
</g>
<!-- Node50&#45;&gt;Node15 -->
<g id="edge144" class="edge">
<title>Node50&#45;&gt;Node15</title>
<path fill="none" stroke="midnightblue" d="M200.06,-385.97C206.74,-383.76 214.1,-381.56 221,-380 345.98,-351.82 382.64,-374.78 507,-344 777.6,-277.02 826.19,-200.38 1094,-123 1164.19,-102.72 1247.9,-87.35 1297.35,-79.15"/>
<polygon fill="midnightblue" stroke="midnightblue" points="1298.07,-82.58 1307.37,-77.51 1296.93,-75.68 1298.07,-82.58"/>
</g>
<!-- Node50&#45;&gt;Node18 -->
<g id="edge141" class="edge">
<title>Node50&#45;&gt;Node18</title>
<path fill="none" stroke="midnightblue" d="M199.08,-385.92C205.99,-383.59 213.72,-381.34 221,-380 567.11,-316.34 662.75,-387.29 1012,-344 1080.42,-335.52 1095.68,-322.28 1164,-313 1359.31,-286.48 1589.67,-275.25 1718.28,-270.76"/>
<polygon fill="midnightblue" stroke="midnightblue" points="1718.62,-274.25 1728.5,-270.41 1718.38,-267.25 1718.62,-274.25"/>
</g>
<!-- Node50&#45;&gt;Node31 -->
<g id="edge142" class="edge">
<title>Node50&#45;&gt;Node31</title>
<path fill="none" stroke="midnightblue" d="M198.61,-385.97C205.64,-383.58 213.55,-381.29 221,-380 559.21,-321.66 1421.97,-354.89 1765,-344 1854.96,-341.14 1957.5,-336.93 2030.25,-333.79"/>
<polygon fill="midnightblue" stroke="midnightblue" points="2030.47,-337.28 2040.31,-333.35 2030.17,-330.29 2030.47,-337.28"/>
</g>
<!-- Node51&#45;&gt;Node4 -->
<g id="edge146" class="edge">
<title>Node51&#45;&gt;Node4</title>
<path fill="none" stroke="midnightblue" d="M2773.05,-385.94C2752.18,-356.3 2679.43,-256.29 2603,-190 2586.45,-175.65 2565.47,-162.43 2549.29,-153.12"/>
<polygon fill="midnightblue" stroke="midnightblue" points="2550.82,-149.96 2540.38,-148.11 2547.38,-156.06 2550.82,-149.96"/>
</g>
<!-- Node51&#45;&gt;Node9 -->
<g id="edge147" class="edge">
<title>Node51&#45;&gt;Node9</title>
<path fill="none" stroke="midnightblue" d="M2745.79,-385.93C2737.1,-383.83 2727.73,-381.71 2719,-380 2635.55,-363.66 2539.51,-349.67 2471.71,-340.59"/>
<polygon fill="midnightblue" stroke="midnightblue" points="2471.88,-337.08 2461.5,-339.23 2470.95,-344.01 2471.88,-337.08"/>
</g>
<!-- Node51&#45;&gt;Node12 -->
<g id="edge150" class="edge">
<title>Node51&#45;&gt;Node12</title>
<path fill="none" stroke="midnightblue" d="M2786.61,-385.93C2807.3,-361.99 2864.32,-291.54 2884,-221 2887.7,-207.73 2888.64,-202.97 2884,-190 2882.38,-185.47 2778.31,-58.14 2774,-56 2723.76,-31.03 1880.3,-15.36 1666.8,-11.79"/>
<polygon fill="midnightblue" stroke="midnightblue" points="1666.59,-8.28 1656.53,-11.61 1666.47,-15.28 1666.59,-8.28"/>
</g>
<!-- Node51&#45;&gt;Node15 -->
<g id="edge151" class="edge">
<title>Node51&#45;&gt;Node15</title>
<path fill="none" stroke="midnightblue" d="M2776.51,-385.81C2764.56,-346.03 2709,-180.83 2595,-123 2541.16,-95.69 1569.26,-90.58 1509,-87 1465.98,-84.44 1416.91,-80.07 1382.77,-76.79"/>
<polygon fill="midnightblue" stroke="midnightblue" points="1382.97,-73.3 1372.68,-75.82 1382.29,-80.26 1382.97,-73.3"/>
</g>
<!-- Node51&#45;&gt;Node18 -->
<g id="edge148" class="edge">
<title>Node51&#45;&gt;Node18</title>
<path fill="none" stroke="midnightblue" d="M2756.6,-386C2710.24,-368.82 2600.08,-330.17 2504,-313 2297.88,-276.17 2052.11,-268.69 1917.83,-267.62"/>
<polygon fill="midnightblue" stroke="midnightblue" points="1917.59,-264.12 1907.57,-267.55 1917.54,-271.12 1917.59,-264.12"/>
</g>
<!-- Node51&#45;&gt;Node31 -->
<g id="edge149" class="edge">
<title>Node51&#45;&gt;Node31</title>
<path fill="none" stroke="midnightblue" d="M2747.73,-385.99C2738.53,-383.75 2728.41,-381.53 2719,-380 2717.48,-379.75 2389.07,-351.84 2221.69,-337.63"/>
<polygon fill="midnightblue" stroke="midnightblue" points="2221.9,-334.13 2211.64,-336.77 2221.31,-341.11 2221.9,-334.13"/>
</g>
<!-- Node52&#45;&gt;Node4 -->
<g id="edge153" class="edge">
<title>Node52&#45;&gt;Node4</title>
<path fill="none" stroke="midnightblue" d="M2011.67,-447.48C2047.8,-440.59 2095.57,-429.01 2135,-411 2216.01,-373.99 2437.81,-205.72 2504.67,-154.4"/>
<polygon fill="midnightblue" stroke="midnightblue" points="2506.92,-157.09 2512.71,-148.22 2502.65,-151.54 2506.92,-157.09"/>
</g>
<!-- Node52&#45;&gt;Node9 -->
<g id="edge155" class="edge">
<title>Node52&#45;&gt;Node9</title>
<path fill="none" stroke="midnightblue" d="M2032.17,-454.6C2096.31,-451.19 2189.94,-440.9 2266,-411 2302.32,-396.72 2338.4,-369.37 2360.92,-350.31"/>
<polygon fill="midnightblue" stroke="midnightblue" points="2363.29,-352.89 2368.58,-343.71 2358.72,-347.59 2363.29,-352.89"/>
</g>
<!-- Node52&#45;&gt;Node12 -->
<g id="edge158" class="edge">
<title>Node52&#45;&gt;Node12</title>
<path fill="none" stroke="midnightblue" d="M1881.71,-450.99C1806.26,-445 1687.14,-432.93 1586,-411 1541.35,-401.32 1532.03,-392.19 1488,-380 1421.51,-361.58 1383.99,-394.52 1337,-344 1249.03,-249.42 1213.26,-153.49 1298,-56 1332.52,-16.29 1488.26,-10.61 1569.04,-10.41"/>
<polygon fill="midnightblue" stroke="midnightblue" points="1569.45,-13.91 1579.45,-10.42 1569.45,-6.91 1569.45,-13.91"/>
</g>
<!-- Node52&#45;&gt;Node15 -->
<g id="edge159" class="edge">
<title>Node52&#45;&gt;Node15</title>
<path fill="none" stroke="midnightblue" d="M1918.39,-447.5C1851.07,-432.8 1707.78,-402.12 1586,-380 1535.75,-370.87 1396.66,-378.5 1359,-344 1333.32,-320.48 1340,-302.82 1340,-268 1340,-268 1340,-268 1340,-204.5 1340,-164.16 1340,-116.88 1340,-91.28"/>
<polygon fill="midnightblue" stroke="midnightblue" points="1343.5,-91.15 1340,-81.15 1336.5,-91.15 1343.5,-91.15"/>
</g>
<!-- Node52&#45;&gt;Node18 -->
<g id="edge156" class="edge">
<title>Node52&#45;&gt;Node18</title>
<path fill="none" stroke="midnightblue" d="M1918.87,-447.39C1897.83,-440.78 1872.83,-429.53 1857,-411 1826.16,-374.9 1819.51,-316.56 1818.21,-286.78"/>
<polygon fill="midnightblue" stroke="midnightblue" points="1821.7,-286.46 1817.93,-276.56 1814.7,-286.65 1821.7,-286.46"/>
</g>
<!-- Node52&#45;&gt;Node29 -->
<g id="edge154" class="edge">
<title>Node52&#45;&gt;Node29</title>
<path fill="none" stroke="midnightblue" d="M1953.27,-447.48C1950.12,-440.25 1945.43,-429.53 1941.17,-419.78"/>
<polygon fill="midnightblue" stroke="midnightblue" points="1944.34,-418.28 1937.13,-410.52 1937.92,-421.09 1944.34,-418.28"/>
</g>
<!-- Node52&#45;&gt;Node31 -->
<g id="edge157" class="edge">
<title>Node52&#45;&gt;Node31</title>
<path fill="none" stroke="midnightblue" d="M2032.31,-451.61C2061.87,-445.97 2093.55,-434.36 2114,-411 2128.98,-393.89 2129.98,-366.59 2128.59,-348.37"/>
<polygon fill="midnightblue" stroke="midnightblue" points="2132.06,-347.93 2127.52,-338.36 2125.1,-348.68 2132.06,-347.93"/>
</g>
<!-- Node53&#45;&gt;Node16 -->
<g id="edge165" class="edge">
<title>Node53&#45;&gt;Node16</title>
<path fill="none" stroke="midnightblue" d="M4015.9,-385.95C4004.51,-366.02 3978,-314.62 3978,-268 3978,-268 3978,-268 3978,-204.5 3978,-166.74 3983.24,-146.89 3954,-123 3910.96,-87.84 3518.48,-76 3399.82,-73.21"/>
<polygon fill="midnightblue" stroke="midnightblue" points="3399.61,-69.71 3389.53,-72.98 3399.45,-76.7 3399.61,-69.71"/>
</g>
<!-- Node53&#45;&gt;Node17 -->
<g id="edge166" class="edge">
<title>Node53&#45;&gt;Node17</title>
<path fill="none" stroke="midnightblue" d="M4003.84,-385.87C3928.99,-348.22 3630.76,-198.22 3540.21,-152.68"/>
<polygon fill="midnightblue" stroke="midnightblue" points="3541.66,-149.49 3531.16,-148.13 3538.52,-155.75 3541.66,-149.49"/>
</g>
<!-- Node53&#45;&gt;Node35 -->
<g id="edge164" class="edge">
<title>Node53&#45;&gt;Node35</title>
<path fill="none" stroke="midnightblue" d="M3929.59,-391.85C3825.92,-388.87 3651.81,-383.93 3502,-380 2848.25,-362.87 2684.53,-368 2031,-344 1934.56,-340.46 1820.53,-334.32 1766.46,-331.29"/>
<polygon fill="midnightblue" stroke="midnightblue" points="1766.35,-327.78 1756.17,-330.72 1765.96,-334.77 1766.35,-327.78"/>
</g>
<!-- Node54 -->
<g id="node50" class="node">
<title>Node54</title>
<g id="a_node50"><a xlink:title=" ">
<polygon fill="none" stroke="#bfbfbf" points="4006,-319 4006,-338 4058,-338 4058,-319 4006,-319"/>
<text text-anchor="middle" x="4032" y="-326" font-family="Helvetica,sans-Serif" font-size="10.00">cassert</text>
</a>
</g>
</g>
<!-- Node53&#45;&gt;Node54 -->
<g id="edge167" class="edge">
<title>Node53&#45;&gt;Node54</title>
<path fill="none" stroke="midnightblue" d="M4022.48,-385.73C4024.1,-376.18 4026.73,-360.62 4028.82,-348.28"/>
<polygon fill="midnightblue" stroke="midnightblue" points="4032.32,-348.57 4030.54,-338.13 4025.42,-347.4 4032.32,-348.57"/>
</g>
</g>
</svg>
