<?xml version="1.0" encoding="UTF-8" standalone="no"?>
<!DOCTYPE svg PUBLIC "-//W3C//DTD SVG 1.1//EN"
 "http://www.w3.org/Graphics/SVG/1.1/DTD/svg11.dtd">
<!-- Generated by graphviz version 2.43.0 (0)
 -->
<!-- Title: src/polyfem/problem/MiscProblem.hpp Pages: 1 -->
<svg width="4111pt" height="766pt"
 viewBox="0.00 0.00 4110.55 766.00" xmlns="http://www.w3.org/2000/svg" xmlns:xlink="http://www.w3.org/1999/xlink">
<g id="graph0" class="graph" transform="scale(1 1) rotate(0) translate(4 762)">
<title>src/polyfem/problem/MiscProblem.hpp</title>
<!-- Node1 -->
<g id="node1" class="node">
<title>Node1</title>
<g id="a_node1"><a xlink:title=" ">
<polygon fill="#bfbfbf" stroke="black" points="3984.55,-727.5 3984.55,-757.5 4102.55,-757.5 4102.55,-727.5 3984.55,-727.5"/>
<text text-anchor="start" x="3992.55" y="-745.5" font-family="Helvetica,sans-Serif" font-size="10.00">src/polyfem/problem</text>
<text text-anchor="middle" x="4043.55" y="-734.5" font-family="Helvetica,sans-Serif" font-size="10.00">/MiscProblem.hpp</text>
</a>
</g>
</g>
<!-- Node2 -->
<g id="node2" class="node">
<title>Node2</title>
<g id="a_node2"><a xlink:href="_problem_with_solution_8hpp.html" target="_top" xlink:title=" ">
<polygon fill="none" stroke="black" points="3360.55,-671.5 3360.55,-690.5 3500.55,-690.5 3500.55,-671.5 3360.55,-671.5"/>
<text text-anchor="middle" x="3430.55" y="-678.5" font-family="Helvetica,sans-Serif" font-size="10.00">ProblemWithSolution.hpp</text>
</a>
</g>
</g>
<!-- Node1&#45;&gt;Node2 -->
<g id="edge1" class="edge">
<title>Node1&#45;&gt;Node2</title>
<path fill="none" stroke="midnightblue" d="M3984.5,-735.77C3874.03,-725.05 3636.02,-701.94 3511,-689.81"/>
<polygon fill="midnightblue" stroke="midnightblue" points="3511.02,-686.29 3500.73,-688.81 3510.35,-693.26 3511.02,-686.29"/>
</g>
<!-- Node13 -->
<g id="node13" class="node">
<title>Node13</title>
<g id="a_node13"><a xlink:title=" ">
<polygon fill="none" stroke="#bfbfbf" points="2144.05,-0.5 2144.05,-19.5 2221.05,-19.5 2221.05,-0.5 2144.05,-0.5"/>
<text text-anchor="middle" x="2182.55" y="-7.5" font-family="Helvetica,sans-Serif" font-size="10.00">Eigen/Dense</text>
</a>
</g>
</g>
<!-- Node1&#45;&gt;Node13 -->
<g id="edge176" class="edge">
<title>Node1&#45;&gt;Node13</title>
<path fill="none" stroke="midnightblue" d="M4051.43,-727.41C4062.56,-706.13 4081.55,-664.21 4081.55,-626 4081.55,-626 4081.55,-626 4081.55,-137.5 4081.55,65.32 3834.3,-76.78 3632.55,-56 3015.85,7.51 2852.16,-84.64 2231.35,-19.87"/>
<polygon fill="midnightblue" stroke="midnightblue" points="2231.56,-16.37 2221.25,-18.8 2230.83,-23.33 2231.56,-16.37"/>
</g>
<!-- Node17 -->
<g id="node17" class="node">
<title>Node17</title>
<g id="a_node17"><a xlink:title=" ">
<polygon fill="none" stroke="#bfbfbf" points="3397.05,-62 3397.05,-81 3444.05,-81 3444.05,-62 3397.05,-62"/>
<text text-anchor="middle" x="3420.55" y="-69" font-family="Helvetica,sans-Serif" font-size="10.00">vector</text>
</a>
</g>
</g>
<!-- Node1&#45;&gt;Node17 -->
<g id="edge175" class="edge">
<title>Node1&#45;&gt;Node17</title>
<path fill="none" stroke="midnightblue" d="M4043.55,-727.28C4043.55,-705.48 4043.55,-662.49 4043.55,-626 4043.55,-626 4043.55,-626 4043.55,-266 4043.55,-157.81 3947.31,-162.42 3846.55,-123 3774.98,-95 3541.92,-79.32 3454.28,-74.3"/>
<polygon fill="midnightblue" stroke="midnightblue" points="3454.28,-70.79 3444.1,-73.73 3453.88,-77.78 3454.28,-70.79"/>
</g>
<!-- Node3 -->
<g id="node3" class="node">
<title>Node3</title>
<g id="a_node3"><a xlink:href="_problem_8hpp.html" target="_top" xlink:title=" ">
<polygon fill="none" stroke="black" points="3501.55,-615.5 3501.55,-634.5 3677.55,-634.5 3677.55,-615.5 3501.55,-615.5"/>
<text text-anchor="middle" x="3589.55" y="-622.5" font-family="Helvetica,sans-Serif" font-size="10.00">polyfem/assembler/Problem.hpp</text>
</a>
</g>
</g>
<!-- Node2&#45;&gt;Node3 -->
<g id="edge2" class="edge">
<title>Node2&#45;&gt;Node3</title>
<path fill="none" stroke="midnightblue" d="M3455.75,-671.44C3482.5,-662.36 3524.96,-647.94 3554.86,-637.78"/>
<polygon fill="midnightblue" stroke="midnightblue" points="3556.13,-641.05 3564.48,-634.52 3553.88,-634.42 3556.13,-641.05"/>
</g>
<!-- Node4 -->
<g id="node4" class="node">
<title>Node4</title>
<g id="a_node4"><a xlink:href="_assembler_utils_8hpp.html" target="_top" xlink:title=" ">
<polygon fill="none" stroke="black" points="2461.55,-559.5 2461.55,-578.5 2573.55,-578.5 2573.55,-559.5 2461.55,-559.5"/>
<text text-anchor="middle" x="2517.55" y="-566.5" font-family="Helvetica,sans-Serif" font-size="10.00">AssemblerUtils.hpp</text>
</a>
</g>
</g>
<!-- Node2&#45;&gt;Node4 -->
<g id="edge173" class="edge">
<title>Node2&#45;&gt;Node4</title>
<path fill="none" stroke="midnightblue" d="M3360.43,-671.55C3189.06,-650.9 2750.85,-598.11 2583.7,-577.97"/>
<polygon fill="midnightblue" stroke="midnightblue" points="2583.91,-574.47 2573.56,-576.75 2583.07,-581.42 2583.91,-574.47"/>
</g>
<!-- Node32 -->
<g id="node29" class="node">
<title>Node32</title>
<g id="a_node29"><a xlink:href="_autodiff_types_8hpp.html" target="_top" xlink:title=" ">
<polygon fill="none" stroke="black" points="1916.05,-319 1916.05,-338 2087.05,-338 2087.05,-319 1916.05,-319"/>
<text text-anchor="middle" x="2001.55" y="-326" font-family="Helvetica,sans-Serif" font-size="10.00">polyfem/utils/AutodiffTypes.hpp</text>
</a>
</g>
</g>
<!-- Node2&#45;&gt;Node32 -->
<g id="edge174" class="edge">
<title>Node2&#45;&gt;Node32</title>
<path fill="none" stroke="midnightblue" d="M3421.31,-671.32C3403.58,-654.46 3364.07,-615.68 3335.55,-579 3292.88,-524.1 3304.14,-492.5 3251.55,-447 3196.65,-399.49 3173.18,-396.85 3102.55,-380 3099.51,-379.27 2364.57,-345.94 2097.29,-333.83"/>
<polygon fill="midnightblue" stroke="midnightblue" points="2097.37,-330.33 2087.22,-333.38 2097.05,-337.33 2097.37,-330.33"/>
</g>
<!-- Node3&#45;&gt;Node4 -->
<g id="edge3" class="edge">
<title>Node3&#45;&gt;Node4</title>
<path fill="none" stroke="midnightblue" d="M3501.37,-619.56C3292.09,-609.02 2769.14,-582.67 2583.89,-573.34"/>
<polygon fill="midnightblue" stroke="midnightblue" points="2583.91,-569.84 2573.75,-572.83 2583.56,-576.83 2583.91,-569.84"/>
</g>
<!-- Node5 -->
<g id="node5" class="node">
<title>Node5</title>
<g id="a_node5"><a xlink:href="_common_8hpp.html" target="_top" xlink:title=" ">
<polygon fill="none" stroke="black" points="1814.05,-129 1814.05,-148 1939.05,-148 1939.05,-129 1814.05,-129"/>
<text text-anchor="middle" x="1876.55" y="-136" font-family="Helvetica,sans-Serif" font-size="10.00">polyfem/Common.hpp</text>
</a>
</g>
</g>
<!-- Node3&#45;&gt;Node5 -->
<g id="edge169" class="edge">
<title>Node3&#45;&gt;Node5</title>
<path fill="none" stroke="midnightblue" d="M3588.37,-615.45C3580.61,-563.11 3531.75,-285.11 3358.55,-190 3297.51,-156.48 2175.12,-157.2 2105.55,-154 2053.31,-151.6 1994.43,-147.85 1949.46,-144.76"/>
<polygon fill="midnightblue" stroke="midnightblue" points="1949.43,-141.25 1939.21,-144.05 1948.95,-148.23 1949.43,-141.25"/>
</g>
<!-- Node3&#45;&gt;Node13 -->
<g id="edge171" class="edge">
<title>Node3&#45;&gt;Node13</title>
<path fill="none" stroke="midnightblue" d="M3677.78,-618.45C3799.89,-608.3 4005.55,-581.23 4005.55,-514 4005.55,-514 4005.55,-514 4005.55,-456 4005.55,-291.99 3981.33,-216.45 3846.55,-123 3700.94,-22.04 3629.87,-73.54 3453.55,-56 2915.74,-2.5 2772.95,-77.36 2231.27,-19.87"/>
<polygon fill="midnightblue" stroke="midnightblue" points="2231.57,-16.38 2221.25,-18.79 2230.82,-23.34 2231.57,-16.38"/>
</g>
<!-- Node3&#45;&gt;Node17 -->
<g id="edge170" class="edge">
<title>Node3&#45;&gt;Node17</title>
<path fill="none" stroke="midnightblue" d="M3638.66,-615.47C3691.35,-603.16 3767.55,-574.85 3767.55,-514 3767.55,-514 3767.55,-514 3767.55,-394.5 3767.55,-264.64 3766.03,-197.35 3659.55,-123 3596.87,-79.23 3503.95,-72.06 3454.47,-71.65"/>
<polygon fill="midnightblue" stroke="midnightblue" points="3454.3,-68.15 3444.3,-71.66 3454.31,-75.15 3454.3,-68.15"/>
</g>
<!-- Node19 -->
<g id="node19" class="node">
<title>Node19</title>
<g id="a_node19"><a xlink:href="_element_bases_8hpp.html" target="_top" xlink:title=" ">
<polygon fill="none" stroke="black" points="1942.05,-257.5 1942.05,-276.5 2121.05,-276.5 2121.05,-257.5 1942.05,-257.5"/>
<text text-anchor="middle" x="2031.55" y="-264.5" font-family="Helvetica,sans-Serif" font-size="10.00">polyfem/basis/ElementBases.hpp</text>
</a>
</g>
</g>
<!-- Node3&#45;&gt;Node19 -->
<g id="edge162" class="edge">
<title>Node3&#45;&gt;Node19</title>
<path fill="none" stroke="midnightblue" d="M3501.53,-621.13C3365.96,-614.27 3121.55,-591.2 3121.55,-514 3121.55,-514 3121.55,-514 3121.55,-456 3121.55,-421.18 3128.34,-403.4 3102.55,-380 3031.42,-315.44 2384.2,-282.35 2131.74,-271.82"/>
<polygon fill="midnightblue" stroke="midnightblue" points="2131.61,-268.31 2121.47,-271.39 2131.32,-275.3 2131.61,-268.31"/>
</g>
<!-- Node20 -->
<g id="node20" class="node">
<title>Node20</title>
<g id="a_node20"><a xlink:href="_mesh_8hpp.html" target="_top" xlink:title=" ">
<polygon fill="none" stroke="black" points="2807.05,-196 2807.05,-215 2944.05,-215 2944.05,-196 2807.05,-196"/>
<text text-anchor="middle" x="2875.55" y="-203" font-family="Helvetica,sans-Serif" font-size="10.00">polyfem/mesh/Mesh.hpp</text>
</a>
</g>
</g>
<!-- Node3&#45;&gt;Node20 -->
<g id="edge168" class="edge">
<title>Node3&#45;&gt;Node20</title>
<path fill="none" stroke="midnightblue" d="M3501.55,-618.59C3433.05,-609.04 3349.55,-583.21 3349.55,-514 3349.55,-514 3349.55,-514 3349.55,-456 3349.55,-279.6 3089.32,-227.63 2954.5,-212.54"/>
<polygon fill="midnightblue" stroke="midnightblue" points="2954.54,-209.03 2944.22,-211.44 2953.79,-215.99 2954.54,-209.03"/>
</g>
<!-- Node26 -->
<g id="node24" class="node">
<title>Node26</title>
<g id="a_node24"><a xlink:title=" ">
<polygon fill="none" stroke="#bfbfbf" points="3448.55,-129 3448.55,-148 3506.55,-148 3506.55,-129 3448.55,-129"/>
<text text-anchor="middle" x="3477.55" y="-136" font-family="Helvetica,sans-Serif" font-size="10.00">memory</text>
</a>
</g>
</g>
<!-- Node3&#45;&gt;Node26 -->
<g id="edge172" class="edge">
<title>Node3&#45;&gt;Node26</title>
<path fill="none" stroke="midnightblue" d="M3599,-615.31C3616.8,-597.93 3653.55,-556.86 3653.55,-514 3653.55,-514 3653.55,-514 3653.55,-327.5 3653.55,-241.6 3554.43,-178.75 3504.96,-152.73"/>
<polygon fill="midnightblue" stroke="midnightblue" points="3506.55,-149.61 3496.06,-148.16 3503.36,-155.84 3506.55,-149.61"/>
</g>
<!-- Node54 -->
<g id="node49" class="node">
<title>Node54</title>
<g id="a_node49"><a xlink:href="_local_boundary_8hpp.html" target="_top" xlink:title=" ">
<polygon fill="none" stroke="black" points="3795.55,-386 3795.55,-405 3977.55,-405 3977.55,-386 3795.55,-386"/>
<text text-anchor="middle" x="3886.55" y="-393" font-family="Helvetica,sans-Serif" font-size="10.00">polyfem/mesh/LocalBoundary.hpp</text>
</a>
</g>
</g>
<!-- Node3&#45;&gt;Node54 -->
<g id="edge163" class="edge">
<title>Node3&#45;&gt;Node54</title>
<path fill="none" stroke="midnightblue" d="M3677.64,-618.48C3712.72,-612.63 3751.75,-601.17 3781.55,-579 3838.97,-536.3 3869.97,-452.2 3881.38,-414.97"/>
<polygon fill="midnightblue" stroke="midnightblue" points="3884.85,-415.6 3884.3,-405.02 3878.13,-413.63 3884.85,-415.6"/>
</g>
<!-- Node4&#45;&gt;Node5 -->
<g id="edge4" class="edge">
<title>Node4&#45;&gt;Node5</title>
<path fill="none" stroke="midnightblue" d="M2461.34,-568.25C2257.24,-568.76 1536.16,-567.14 943.55,-523 736.41,-507.57 153.35,-566.43 15.55,-411 6.41,-400.69 6.15,-390.07 15.55,-380 54.99,-337.73 477.21,-351.26 534.55,-344 908.5,-296.66 995.35,-242.91 1368.55,-190 1522.8,-168.13 1704.73,-152.48 1803.61,-144.83"/>
<polygon fill="midnightblue" stroke="midnightblue" points="1804.08,-148.3 1813.79,-144.04 1803.55,-141.32 1804.08,-148.3"/>
</g>
<!-- Node8 -->
<g id="node8" class="node">
<title>Node8</title>
<g id="a_node8"><a xlink:href="_assembler_8hpp.html" target="_top" xlink:title=" ">
<polygon fill="none" stroke="black" points="3153.05,-447.5 3153.05,-466.5 3242.05,-466.5 3242.05,-447.5 3153.05,-447.5"/>
<text text-anchor="middle" x="3197.55" y="-454.5" font-family="Helvetica,sans-Serif" font-size="10.00">Assembler.hpp</text>
</a>
</g>
</g>
<!-- Node4&#45;&gt;Node8 -->
<g id="edge7" class="edge">
<title>Node4&#45;&gt;Node8</title>
<path fill="none" stroke="midnightblue" d="M2573.64,-559.98C2634.13,-551.25 2733.26,-536.69 2818.55,-523 2934.23,-504.44 3069.42,-480.78 3143.01,-467.73"/>
<polygon fill="midnightblue" stroke="midnightblue" points="3143.74,-471.16 3152.97,-465.96 3142.51,-464.27 3143.74,-471.16"/>
</g>
<!-- Node4&#45;&gt;Node17 -->
<g id="edge161" class="edge">
<title>Node4&#45;&gt;Node17</title>
<path fill="none" stroke="midnightblue" d="M2573.73,-562.93C2663.38,-554.8 2844.3,-538.2 2997.55,-523 3280.55,-494.92 3465.79,-644.9 3627.55,-411 3700.37,-305.71 3729.58,-205.33 3631.55,-123 3580.69,-80.28 3499.76,-72.45 3454.34,-71.72"/>
<polygon fill="midnightblue" stroke="midnightblue" points="3454.15,-68.22 3444.13,-71.66 3454.11,-75.22 3454.15,-68.22"/>
</g>
<!-- Node27 -->
<g id="node25" class="node">
<title>Node27</title>
<g id="a_node25"><a xlink:href="_matrix_utils_8hpp.html" target="_top" xlink:title=" ">
<polygon fill="none" stroke="black" points="1519.05,-129 1519.05,-148 1678.05,-148 1678.05,-129 1519.05,-129"/>
<text text-anchor="middle" x="1598.55" y="-136" font-family="Helvetica,sans-Serif" font-size="10.00">polyfem/utils/MatrixUtils.hpp</text>
</a>
</g>
</g>
<!-- Node4&#45;&gt;Node27 -->
<g id="edge160" class="edge">
<title>Node4&#45;&gt;Node27</title>
<path fill="none" stroke="midnightblue" d="M2461.33,-567.76C2133.77,-566.27 478.42,-557.09 254.55,-523 134.59,-504.73 51.99,-523.11 5.55,-411 0.28,-398.27 -3.37,-390.49 5.55,-380 176.39,-179.22 915.51,-226.78 1176.55,-190 1291,-173.88 1423.38,-158.58 1508.9,-149.13"/>
<polygon fill="midnightblue" stroke="midnightblue" points="1509.54,-152.58 1519.09,-148.01 1508.77,-145.62 1509.54,-152.58"/>
</g>
<!-- Node29 -->
<g id="node27" class="node">
<title>Node29</title>
<g id="a_node27"><a xlink:href="_mass_matrix_assembler_8hpp.html" target="_top" xlink:title=" ">
<polygon fill="none" stroke="black" points="3377.55,-447.5 3377.55,-466.5 3523.55,-466.5 3523.55,-447.5 3377.55,-447.5"/>
<text text-anchor="middle" x="3450.55" y="-454.5" font-family="Helvetica,sans-Serif" font-size="10.00">MassMatrixAssembler.hpp</text>
</a>
</g>
</g>
<!-- Node4&#45;&gt;Node29 -->
<g id="edge49" class="edge">
<title>Node4&#45;&gt;Node29</title>
<path fill="none" stroke="midnightblue" d="M2573.82,-561.37C2732.14,-542.7 3182.03,-489.66 3368.27,-467.7"/>
<polygon fill="midnightblue" stroke="midnightblue" points="3368.76,-471.17 3378.28,-466.52 3367.94,-464.22 3368.76,-471.17"/>
</g>
<!-- Node37 -->
<g id="node32" class="node">
<title>Node37</title>
<g id="a_node32"><a xlink:href="_laplacian_8hpp.html" target="_top" xlink:title=" ">
<polygon fill="none" stroke="black" points="2707.55,-386 2707.55,-405 2791.55,-405 2791.55,-386 2707.55,-386"/>
<text text-anchor="middle" x="2749.55" y="-393" font-family="Helvetica,sans-Serif" font-size="10.00">Laplacian.hpp</text>
</a>
</g>
</g>
<!-- Node4&#45;&gt;Node37 -->
<g id="edge70" class="edge">
<title>Node4&#45;&gt;Node37</title>
<path fill="none" stroke="midnightblue" d="M2529.06,-559.5C2566.17,-532.07 2682.99,-445.71 2729.83,-411.08"/>
<polygon fill="midnightblue" stroke="midnightblue" points="2732.02,-413.81 2737.98,-405.06 2727.86,-408.19 2732.02,-413.81"/>
</g>
<!-- Node38 -->
<g id="node33" class="node">
<title>Node38</title>
<g id="a_node33"><a xlink:href="_bilaplacian_8hpp.html" target="_top" xlink:title=" ">
<polygon fill="none" stroke="black" points="3001.55,-386 3001.55,-405 3093.55,-405 3093.55,-386 3001.55,-386"/>
<text text-anchor="middle" x="3047.55" y="-393" font-family="Helvetica,sans-Serif" font-size="10.00">Bilaplacian.hpp</text>
</a>
</g>
</g>
<!-- Node4&#45;&gt;Node38 -->
<g id="edge75" class="edge">
<title>Node4&#45;&gt;Node38</title>
<path fill="none" stroke="midnightblue" d="M2543.84,-559.5C2631.07,-531.27 2911.17,-440.63 3011.43,-408.19"/>
<polygon fill="midnightblue" stroke="midnightblue" points="3012.68,-411.46 3021.11,-405.06 3010.52,-404.8 3012.68,-411.46"/>
</g>
<!-- Node39 -->
<g id="node34" class="node">
<title>Node39</title>
<g id="a_node34"><a xlink:href="_helmholtz_8hpp.html" target="_top" xlink:title=" ">
<polygon fill="none" stroke="black" points="2513.55,-386 2513.55,-405 2601.55,-405 2601.55,-386 2513.55,-386"/>
<text text-anchor="middle" x="2557.55" y="-393" font-family="Helvetica,sans-Serif" font-size="10.00">Helmholtz.hpp</text>
</a>
</g>
</g>
<!-- Node4&#45;&gt;Node39 -->
<g id="edge82" class="edge">
<title>Node4&#45;&gt;Node39</title>
<path fill="none" stroke="midnightblue" d="M2519.59,-559.26C2525.83,-532.54 2544.72,-451.52 2553.27,-414.86"/>
<polygon fill="midnightblue" stroke="midnightblue" points="2556.7,-415.55 2555.57,-405.02 2549.89,-413.96 2556.7,-415.55"/>
</g>
<!-- Node40 -->
<g id="node35" class="node">
<title>Node40</title>
<g id="a_node35"><a xlink:href="_linear_elasticity_8hpp.html" target="_top" xlink:title=" ">
<polygon fill="none" stroke="black" points="1626.05,-447.5 1626.05,-466.5 1737.05,-466.5 1737.05,-447.5 1626.05,-447.5"/>
<text text-anchor="middle" x="1681.55" y="-454.5" font-family="Helvetica,sans-Serif" font-size="10.00">LinearElasticity.hpp</text>
</a>
</g>
</g>
<!-- Node4&#45;&gt;Node40 -->
<g id="edge87" class="edge">
<title>Node4&#45;&gt;Node40</title>
<path fill="none" stroke="midnightblue" d="M2461.23,-562.55C2382.28,-554.74 2234.28,-539.48 2108.55,-523 1978.12,-505.9 1825.93,-481.71 1743.05,-468.18"/>
<polygon fill="midnightblue" stroke="midnightblue" points="1743.49,-464.71 1733.05,-466.55 1742.36,-471.61 1743.49,-464.71"/>
</g>
<!-- Node41 -->
<g id="node36" class="node">
<title>Node41</title>
<g id="a_node36"><a xlink:href="_hooke_linear_elasticity_8hpp.html" target="_top" xlink:title=" ">
<polygon fill="none" stroke="black" points="1758.55,-447.5 1758.55,-466.5 1900.55,-466.5 1900.55,-447.5 1758.55,-447.5"/>
<text text-anchor="middle" x="1829.55" y="-454.5" font-family="Helvetica,sans-Serif" font-size="10.00">HookeLinearElasticity.hpp</text>
</a>
</g>
</g>
<!-- Node4&#45;&gt;Node41 -->
<g id="edge95" class="edge">
<title>Node4&#45;&gt;Node41</title>
<path fill="none" stroke="midnightblue" d="M2464.14,-559.46C2339.06,-539.46 2027.59,-489.66 1893.08,-468.16"/>
<polygon fill="midnightblue" stroke="midnightblue" points="1893.36,-464.66 1882.93,-466.53 1892.26,-471.57 1893.36,-464.66"/>
</g>
<!-- Node42 -->
<g id="node37" class="node">
<title>Node42</title>
<g id="a_node37"><a xlink:href="_saint_venant_elasticity_8hpp.html" target="_top" xlink:title=" ">
<polygon fill="none" stroke="black" points="1273.55,-447.5 1273.55,-466.5 1413.55,-466.5 1413.55,-447.5 1273.55,-447.5"/>
<text text-anchor="middle" x="1343.55" y="-454.5" font-family="Helvetica,sans-Serif" font-size="10.00">SaintVenantElasticity.hpp</text>
</a>
</g>
</g>
<!-- Node4&#45;&gt;Node42 -->
<g id="edge103" class="edge">
<title>Node4&#45;&gt;Node42</title>
<path fill="none" stroke="midnightblue" d="M2461.29,-563.87C2361.14,-556.41 2145.39,-539.91 1963.55,-523 1769.58,-504.96 1541.85,-480.15 1423.74,-467.01"/>
<polygon fill="midnightblue" stroke="midnightblue" points="1424.03,-463.52 1413.7,-465.89 1423.25,-470.48 1424.03,-463.52"/>
</g>
<!-- Node43 -->
<g id="node38" class="node">
<title>Node43</title>
<g id="a_node38"><a xlink:href="_neo_hookean_elasticity_8hpp.html" target="_top" xlink:title=" ">
<polygon fill="none" stroke="black" points="636.05,-447.5 636.05,-466.5 779.05,-466.5 779.05,-447.5 636.05,-447.5"/>
<text text-anchor="middle" x="707.55" y="-454.5" font-family="Helvetica,sans-Serif" font-size="10.00">NeoHookeanElasticity.hpp</text>
</a>
</g>
</g>
<!-- Node4&#45;&gt;Node43 -->
<g id="edge112" class="edge">
<title>Node4&#45;&gt;Node43</title>
<path fill="none" stroke="midnightblue" d="M2461.21,-567.22C2232.13,-563.87 1369.91,-549.74 1098.55,-523 975.26,-510.85 832.01,-483.64 757.84,-468.57"/>
<polygon fill="midnightblue" stroke="midnightblue" points="758.34,-465.1 747.85,-466.52 756.94,-471.95 758.34,-465.1"/>
</g>
<!-- Node50 -->
<g id="node45" class="node">
<title>Node50</title>
<g id="a_node45"><a xlink:href="_multi_model_8hpp.html" target="_top" xlink:title=" ">
<polygon fill="none" stroke="black" points="1107.55,-503.5 1107.55,-522.5 1199.55,-522.5 1199.55,-503.5 1107.55,-503.5"/>
<text text-anchor="middle" x="1153.55" y="-510.5" font-family="Helvetica,sans-Serif" font-size="10.00">MultiModel.hpp</text>
</a>
</g>
</g>
<!-- Node4&#45;&gt;Node50 -->
<g id="edge127" class="edge">
<title>Node4&#45;&gt;Node50</title>
<path fill="none" stroke="midnightblue" d="M2461.54,-565.78C2240.59,-557.04 1430.75,-524.97 1209.65,-516.22"/>
<polygon fill="midnightblue" stroke="midnightblue" points="1209.7,-512.72 1199.57,-515.82 1209.43,-519.71 1209.7,-512.72"/>
</g>
<!-- Node51 -->
<g id="node46" class="node">
<title>Node51</title>
<g id="a_node46"><a xlink:href="_stokes_8hpp.html" target="_top" xlink:title=" ">
<polygon fill="none" stroke="black" points="2619.55,-386 2619.55,-405 2689.55,-405 2689.55,-386 2619.55,-386"/>
<text text-anchor="middle" x="2654.55" y="-393" font-family="Helvetica,sans-Serif" font-size="10.00">Stokes.hpp</text>
</a>
</g>
</g>
<!-- Node4&#45;&gt;Node51 -->
<g id="edge138" class="edge">
<title>Node4&#45;&gt;Node51</title>
<path fill="none" stroke="midnightblue" d="M2524.54,-559.26C2546.25,-532.08 2612.85,-448.71 2641.37,-413.01"/>
<polygon fill="midnightblue" stroke="midnightblue" points="2644.24,-415.02 2647.75,-405.02 2638.77,-410.65 2644.24,-415.02"/>
</g>
<!-- Node52 -->
<g id="node47" class="node">
<title>Node52</title>
<g id="a_node47"><a xlink:href="_navier_stokes_8hpp.html" target="_top" xlink:title=" ">
<polygon fill="none" stroke="black" points="2165.55,-386 2165.55,-405 2267.55,-405 2267.55,-386 2165.55,-386"/>
<text text-anchor="middle" x="2216.55" y="-393" font-family="Helvetica,sans-Serif" font-size="10.00">NavierStokes.hpp</text>
</a>
</g>
</g>
<!-- Node4&#45;&gt;Node52 -->
<g id="edge145" class="edge">
<title>Node4&#45;&gt;Node52</title>
<path fill="none" stroke="midnightblue" d="M2502.63,-559.5C2453.98,-531.78 2299.76,-443.91 2240.27,-410.01"/>
<polygon fill="midnightblue" stroke="midnightblue" points="2241.99,-406.97 2231.57,-405.06 2238.53,-413.05 2241.99,-406.97"/>
</g>
<!-- Node53 -->
<g id="node48" class="node">
<title>Node53</title>
<g id="a_node48"><a xlink:href="_incompressible_lin_elast_8hpp.html" target="_top" xlink:title=" ">
<polygon fill="none" stroke="black" points="2019.55,-447.5 2019.55,-466.5 2169.55,-466.5 2169.55,-447.5 2019.55,-447.5"/>
<text text-anchor="middle" x="2094.55" y="-454.5" font-family="Helvetica,sans-Serif" font-size="10.00">IncompressibleLinElast.hpp</text>
</a>
</g>
</g>
<!-- Node4&#45;&gt;Node53 -->
<g id="edge152" class="edge">
<title>Node4&#45;&gt;Node53</title>
<path fill="none" stroke="midnightblue" d="M2484.71,-559.46C2408.89,-539.74 2221.66,-491.05 2137.16,-469.08"/>
<polygon fill="midnightblue" stroke="midnightblue" points="2137.93,-465.66 2127.37,-466.53 2136.17,-472.44 2137.93,-465.66"/>
</g>
<!-- Node6 -->
<g id="node6" class="node">
<title>Node6</title>
<g id="a_node6"><a xlink:title=" ">
<polygon fill="none" stroke="#bfbfbf" points="2239.55,-0.5 2239.55,-19.5 2319.55,-19.5 2319.55,-0.5 2239.55,-0.5"/>
<text text-anchor="middle" x="2279.55" y="-7.5" font-family="Helvetica,sans-Serif" font-size="10.00">Eigen/Sparse</text>
</a>
</g>
</g>
<!-- Node5&#45;&gt;Node6 -->
<g id="edge5" class="edge">
<title>Node5&#45;&gt;Node6</title>
<path fill="none" stroke="midnightblue" d="M1875.64,-128.76C1874.42,-111.85 1874.45,-74.68 1895.55,-56 1951.45,-6.52 2155.66,-30.62 2229.55,-20 2229.65,-19.99 2229.76,-19.97 2229.86,-19.96"/>
<polygon fill="midnightblue" stroke="midnightblue" points="2230.13,-23.46 2239.48,-18.47 2229.06,-16.54 2230.13,-23.46"/>
</g>
<!-- Node7 -->
<g id="node7" class="node">
<title>Node7</title>
<g id="a_node7"><a xlink:title=" ">
<polygon fill="none" stroke="#bfbfbf" points="1904.55,-62 1904.55,-81 2014.55,-81 2014.55,-62 1904.55,-62"/>
<text text-anchor="middle" x="1959.55" y="-69" font-family="Helvetica,sans-Serif" font-size="10.00">nlohmann/json.hpp</text>
</a>
</g>
</g>
<!-- Node5&#45;&gt;Node7 -->
<g id="edge6" class="edge">
<title>Node5&#45;&gt;Node7</title>
<path fill="none" stroke="midnightblue" d="M1887.75,-128.73C1901.19,-118.21 1923.95,-100.38 1940.25,-87.62"/>
<polygon fill="midnightblue" stroke="midnightblue" points="1942.82,-90.05 1948.54,-81.13 1938.51,-84.54 1942.82,-90.05"/>
</g>
<!-- Node8&#45;&gt;Node6 -->
<g id="edge44" class="edge">
<title>Node8&#45;&gt;Node6</title>
<path fill="none" stroke="midnightblue" d="M3200.66,-447.13C3209.74,-420.42 3235.55,-338.26 3235.55,-268 3235.55,-268 3235.55,-268 3235.55,-137.5 3235.55,-71.92 3174.81,-76.6 3112.55,-56 3038.44,-31.47 2498.28,-16.34 2329.68,-12.18"/>
<polygon fill="midnightblue" stroke="midnightblue" points="2329.67,-8.67 2319.59,-11.93 2329.5,-15.67 2329.67,-8.67"/>
</g>
<!-- Node9 -->
<g id="node9" class="node">
<title>Node9</title>
<g id="a_node9"><a xlink:href="_assembly_vals_cache_8hpp.html" target="_top" xlink:title=" ">
<polygon fill="none" stroke="black" points="2809.55,-386 2809.55,-405 2945.55,-405 2945.55,-386 2809.55,-386"/>
<text text-anchor="middle" x="2877.55" y="-393" font-family="Helvetica,sans-Serif" font-size="10.00">AssemblyValsCache.hpp</text>
</a>
</g>
</g>
<!-- Node8&#45;&gt;Node9 -->
<g id="edge8" class="edge">
<title>Node8&#45;&gt;Node9</title>
<path fill="none" stroke="midnightblue" d="M3152.72,-447.66C3095.29,-436.98 2995.73,-418.47 2933.42,-406.89"/>
<polygon fill="midnightblue" stroke="midnightblue" points="2933.85,-403.41 2923.38,-405.02 2932.57,-410.29 2933.85,-403.41"/>
</g>
<!-- Node10 -->
<g id="node10" class="node">
<title>Node10</title>
<g id="a_node10"><a xlink:href="_element_assembly_values_8hpp.html" target="_top" xlink:title=" ">
<polygon fill="none" stroke="black" points="2334.05,-313.5 2334.05,-343.5 2489.05,-343.5 2489.05,-313.5 2334.05,-313.5"/>
<text text-anchor="start" x="2342.05" y="-331.5" font-family="Helvetica,sans-Serif" font-size="10.00">polyfem/assembler/Element</text>
<text text-anchor="middle" x="2411.55" y="-320.5" font-family="Helvetica,sans-Serif" font-size="10.00">AssemblyValues.hpp</text>
</a>
</g>
</g>
<!-- Node8&#45;&gt;Node10 -->
<g id="edge39" class="edge">
<title>Node8&#45;&gt;Node10</title>
<path fill="none" stroke="midnightblue" d="M3153.03,-454.77C3009.41,-450.57 2564.23,-435.68 2504.55,-411 2488.32,-404.28 2454.82,-372.83 2432.77,-351.02"/>
<polygon fill="midnightblue" stroke="midnightblue" points="2435.05,-348.35 2425.5,-343.77 2430.11,-353.31 2435.05,-348.35"/>
</g>
<!-- Node8&#45;&gt;Node17 -->
<g id="edge45" class="edge">
<title>Node8&#45;&gt;Node17</title>
<path fill="none" stroke="midnightblue" d="M3241.15,-447.44C3264.13,-440.92 3291.26,-429.75 3309.55,-411 3400.67,-317.59 3416.99,-148.22 3419.92,-91.55"/>
<polygon fill="midnightblue" stroke="midnightblue" points="3423.43,-91.37 3420.36,-81.23 3416.43,-91.07 3423.43,-91.37"/>
</g>
<!-- Node18 -->
<g id="node18" class="node">
<title>Node18</title>
<g id="a_node18"><a xlink:title=" ">
<polygon fill="none" stroke="#bfbfbf" points="3538.55,-129 3538.55,-148 3598.55,-148 3598.55,-129 3538.55,-129"/>
<text text-anchor="middle" x="3568.55" y="-136" font-family="Helvetica,sans-Serif" font-size="10.00">iostream</text>
</a>
</g>
</g>
<!-- Node8&#45;&gt;Node18 -->
<g id="edge46" class="edge">
<title>Node8&#45;&gt;Node18</title>
<path fill="none" stroke="midnightblue" d="M3242.15,-455.95C3286.4,-453.8 3354.27,-444.63 3401.55,-411 3495.26,-344.36 3546.87,-207.03 3562.99,-157.67"/>
<polygon fill="midnightblue" stroke="midnightblue" points="3566.35,-158.64 3566.04,-148.05 3559.68,-156.52 3566.35,-158.64"/>
</g>
<!-- Node8&#45;&gt;Node26 -->
<g id="edge48" class="edge">
<title>Node8&#45;&gt;Node26</title>
<path fill="none" stroke="midnightblue" d="M3207.49,-447.27C3228.09,-428.16 3273.55,-380.23 3273.55,-329.5 3273.55,-329.5 3273.55,-329.5 3273.55,-266 3273.55,-231.07 3268.99,-214.83 3293.55,-190 3331.79,-151.36 3396.61,-141.51 3438.22,-139.41"/>
<polygon fill="midnightblue" stroke="midnightblue" points="3438.41,-142.91 3448.27,-139.03 3438.14,-135.91 3438.41,-142.91"/>
</g>
<!-- Node8&#45;&gt;Node27 -->
<g id="edge40" class="edge">
<title>Node8&#45;&gt;Node27</title>
<path fill="none" stroke="midnightblue" d="M3192.66,-447.38C3177.22,-421.17 3126.53,-342.4 3059.55,-313 2701.5,-155.82 2572.7,-268.38 2184.55,-221 1996.15,-198 1774.41,-165.74 1665.62,-149.57"/>
<polygon fill="midnightblue" stroke="midnightblue" points="1665.86,-146.07 1655.45,-148.06 1664.83,-152.99 1665.86,-146.07"/>
</g>
<!-- Node28 -->
<g id="node26" class="node">
<title>Node28</title>
<g id="a_node26"><a xlink:title=" ">
<polygon fill="none" stroke="#bfbfbf" points="3302.05,-196 3302.05,-215 3349.05,-215 3349.05,-196 3302.05,-196"/>
<text text-anchor="middle" x="3325.55" y="-203" font-family="Helvetica,sans-Serif" font-size="10.00">cmath</text>
</a>
</g>
</g>
<!-- Node8&#45;&gt;Node28 -->
<g id="edge47" class="edge">
<title>Node8&#45;&gt;Node28</title>
<path fill="none" stroke="midnightblue" d="M3231.13,-447.37C3250.54,-440.64 3273.79,-429.28 3287.55,-411 3330.08,-354.53 3329.79,-264.85 3327.3,-225.77"/>
<polygon fill="midnightblue" stroke="midnightblue" points="3330.75,-225.06 3326.5,-215.35 3323.77,-225.59 3330.75,-225.06"/>
</g>
<!-- Node9&#45;&gt;Node10 -->
<g id="edge9" class="edge">
<title>Node9&#45;&gt;Node10</title>
<path fill="none" stroke="midnightblue" d="M2834.46,-385.94C2823.43,-383.87 2811.57,-381.75 2800.55,-380 2697.57,-363.63 2578.61,-348.78 2499.63,-339.48"/>
<polygon fill="midnightblue" stroke="midnightblue" points="2499.58,-335.95 2489.24,-338.26 2498.76,-342.9 2499.58,-335.95"/>
</g>
<!-- Node11 -->
<g id="node11" class="node">
<title>Node11</title>
<g id="a_node11"><a xlink:href="_assembly_values_8hpp.html" target="_top" xlink:title=" ">
<polygon fill="none" stroke="black" points="2193.55,-190.5 2193.55,-220.5 2355.55,-220.5 2355.55,-190.5 2193.55,-190.5"/>
<text text-anchor="start" x="2201.55" y="-208.5" font-family="Helvetica,sans-Serif" font-size="10.00">polyfem/assembler/Assembly</text>
<text text-anchor="middle" x="2274.55" y="-197.5" font-family="Helvetica,sans-Serif" font-size="10.00">Values.hpp</text>
</a>
</g>
</g>
<!-- Node10&#45;&gt;Node11 -->
<g id="edge10" class="edge">
<title>Node10&#45;&gt;Node11</title>
<path fill="none" stroke="midnightblue" d="M2337.16,-313.48C2316.49,-306 2296.04,-294.54 2282.55,-277 2272.53,-263.95 2270.79,-245.33 2271.41,-230.5"/>
<polygon fill="midnightblue" stroke="midnightblue" points="2274.9,-230.75 2272.2,-220.5 2267.93,-230.2 2274.9,-230.75"/>
</g>
<!-- Node10&#45;&gt;Node17 -->
<g id="edge38" class="edge">
<title>Node10&#45;&gt;Node17</title>
<path fill="none" stroke="midnightblue" d="M2489.29,-314.78C2595.03,-296.91 2789.81,-261.91 2953.55,-221 3052.72,-196.23 3076.13,-184.9 3173.55,-154 3250.14,-129.7 3339.6,-99.81 3387.03,-83.83"/>
<polygon fill="midnightblue" stroke="midnightblue" points="3388.41,-87.06 3396.77,-80.55 3386.17,-80.43 3388.41,-87.06"/>
</g>
<!-- Node10&#45;&gt;Node19 -->
<g id="edge23" class="edge">
<title>Node10&#45;&gt;Node19</title>
<path fill="none" stroke="midnightblue" d="M2333.74,-315.32C2263.66,-304.34 2161.86,-288.4 2096.18,-278.12"/>
<polygon fill="midnightblue" stroke="midnightblue" points="2096.38,-274.61 2085.95,-276.52 2095.29,-281.52 2096.38,-274.61"/>
</g>
<!-- Node12 -->
<g id="node12" class="node">
<title>Node12</title>
<g id="a_node12"><a xlink:href="_quadrature_8hpp.html" target="_top" xlink:title=" ">
<polygon fill="none" stroke="black" points="2037.05,-56.5 2037.05,-86.5 2150.05,-86.5 2150.05,-56.5 2037.05,-56.5"/>
<text text-anchor="start" x="2045.05" y="-74.5" font-family="Helvetica,sans-Serif" font-size="10.00">polyfem/quadrature</text>
<text text-anchor="middle" x="2093.55" y="-63.5" font-family="Helvetica,sans-Serif" font-size="10.00">/Quadrature.hpp</text>
</a>
</g>
</g>
<!-- Node11&#45;&gt;Node12 -->
<g id="edge11" class="edge">
<title>Node11&#45;&gt;Node12</title>
<path fill="none" stroke="midnightblue" d="M2193.42,-198.73C2161.59,-192.26 2127.49,-179.36 2105.55,-154 2092.08,-138.43 2089.97,-114.61 2090.7,-96.73"/>
<polygon fill="midnightblue" stroke="midnightblue" points="2094.19,-96.97 2091.41,-86.75 2087.21,-96.47 2094.19,-96.97"/>
</g>
<!-- Node11&#45;&gt;Node13 -->
<g id="edge21" class="edge">
<title>Node11&#45;&gt;Node13</title>
<path fill="none" stroke="midnightblue" d="M2273.75,-190.44C2272.41,-173.79 2268.85,-145.47 2259.55,-123 2244.09,-85.6 2214.79,-48.05 2197.13,-27.33"/>
<polygon fill="midnightblue" stroke="midnightblue" points="2199.55,-24.78 2190.35,-19.53 2194.27,-29.37 2199.55,-24.78"/>
</g>
<!-- Node14 -->
<g id="node14" class="node">
<title>Node14</title>
<g id="a_node14"><a xlink:href="_basis_8hpp.html" target="_top" xlink:title=" ">
<polygon fill="none" stroke="black" points="2114.55,-129 2114.55,-148 2250.55,-148 2250.55,-129 2114.55,-129"/>
<text text-anchor="middle" x="2182.55" y="-136" font-family="Helvetica,sans-Serif" font-size="10.00">polyfem/basis/Basis.hpp</text>
</a>
</g>
</g>
<!-- Node11&#45;&gt;Node14 -->
<g id="edge13" class="edge">
<title>Node11&#45;&gt;Node14</title>
<path fill="none" stroke="midnightblue" d="M2254.59,-190.4C2239.31,-179.6 2218.3,-164.76 2202.92,-153.89"/>
<polygon fill="midnightblue" stroke="midnightblue" points="2204.78,-150.92 2194.59,-148.01 2200.74,-156.64 2204.78,-150.92"/>
</g>
<!-- Node11&#45;&gt;Node18 -->
<g id="edge22" class="edge">
<title>Node11&#45;&gt;Node18</title>
<path fill="none" stroke="midnightblue" d="M2355.95,-202.26C2613.72,-195.01 3401.75,-171.65 3515.55,-154 3520.97,-153.16 3526.63,-151.96 3532.15,-150.62"/>
<polygon fill="midnightblue" stroke="midnightblue" points="3533.06,-154 3541.85,-148.07 3531.29,-147.23 3533.06,-154"/>
</g>
<!-- Node12&#45;&gt;Node13 -->
<g id="edge12" class="edge">
<title>Node12&#45;&gt;Node13</title>
<path fill="none" stroke="midnightblue" d="M2114.65,-56.4C2128.64,-47.04 2146.97,-34.79 2161.05,-25.38"/>
<polygon fill="midnightblue" stroke="midnightblue" points="2163.24,-28.13 2169.6,-19.66 2159.34,-22.31 2163.24,-28.13"/>
</g>
<!-- Node14&#45;&gt;Node12 -->
<g id="edge14" class="edge">
<title>Node14&#45;&gt;Node12</title>
<path fill="none" stroke="midnightblue" d="M2170.55,-128.73C2157.94,-119.53 2137.69,-104.73 2121.12,-92.63"/>
<polygon fill="midnightblue" stroke="midnightblue" points="2122.98,-89.66 2112.84,-86.59 2118.86,-95.31 2122.98,-89.66"/>
</g>
<!-- Node14&#45;&gt;Node13 -->
<g id="edge18" class="edge">
<title>Node14&#45;&gt;Node13</title>
<path fill="none" stroke="midnightblue" d="M2182.55,-128.81C2182.55,-108.49 2182.55,-57.55 2182.55,-29.78"/>
<polygon fill="midnightblue" stroke="midnightblue" points="2186.05,-29.76 2182.55,-19.76 2179.05,-29.76 2186.05,-29.76"/>
</g>
<!-- Node15 -->
<g id="node15" class="node">
<title>Node15</title>
<g id="a_node15"><a xlink:href="_types_8hpp.html" target="_top" xlink:title=" ">
<polygon fill="none" stroke="black" points="1488.05,-62 1488.05,-81 1621.05,-81 1621.05,-62 1488.05,-62"/>
<text text-anchor="middle" x="1554.55" y="-69" font-family="Helvetica,sans-Serif" font-size="10.00">polyfem/utils/Types.hpp</text>
</a>
</g>
</g>
<!-- Node14&#45;&gt;Node15 -->
<g id="edge15" class="edge">
<title>Node14&#45;&gt;Node15</title>
<path fill="none" stroke="midnightblue" d="M2114.45,-130.45C1996.63,-118.26 1755.5,-93.3 1631.68,-80.48"/>
<polygon fill="midnightblue" stroke="midnightblue" points="1631.83,-76.98 1621.52,-79.43 1631.11,-83.94 1631.83,-76.98"/>
</g>
<!-- Node16 -->
<g id="node16" class="node">
<title>Node16</title>
<g id="a_node16"><a xlink:title=" ">
<polygon fill="none" stroke="#bfbfbf" points="2412.05,-62 2412.05,-81 2477.05,-81 2477.05,-62 2412.05,-62"/>
<text text-anchor="middle" x="2444.55" y="-69" font-family="Helvetica,sans-Serif" font-size="10.00">functional</text>
</a>
</g>
</g>
<!-- Node14&#45;&gt;Node16 -->
<g id="edge19" class="edge">
<title>Node14&#45;&gt;Node16</title>
<path fill="none" stroke="midnightblue" d="M2217.08,-128.94C2264.75,-117.11 2350.69,-95.79 2402.2,-83.01"/>
<polygon fill="midnightblue" stroke="midnightblue" points="2403.15,-86.38 2412.02,-80.57 2401.47,-79.58 2403.15,-86.38"/>
</g>
<!-- Node14&#45;&gt;Node17 -->
<g id="edge20" class="edge">
<title>Node14&#45;&gt;Node17</title>
<path fill="none" stroke="midnightblue" d="M2250.88,-133.91C2480.53,-121.86 3219.61,-83.05 3386.74,-74.28"/>
<polygon fill="midnightblue" stroke="midnightblue" points="3387.11,-77.76 3396.91,-73.74 3386.74,-70.77 3387.11,-77.76"/>
</g>
<!-- Node15&#45;&gt;Node6 -->
<g id="edge17" class="edge">
<title>Node15&#45;&gt;Node6</title>
<path fill="none" stroke="midnightblue" d="M1621.18,-65.91C1779.66,-54.93 2170.32,-27.53 2229.55,-20 2229.65,-19.99 2229.76,-19.97 2229.86,-19.96"/>
<polygon fill="midnightblue" stroke="midnightblue" points="2230.09,-23.46 2239.49,-18.59 2229.1,-16.53 2230.09,-23.46"/>
</g>
<!-- Node15&#45;&gt;Node13 -->
<g id="edge16" class="edge">
<title>Node15&#45;&gt;Node13</title>
<path fill="none" stroke="midnightblue" d="M1621.33,-62.78C1641.62,-60.51 1663.99,-58.08 1684.55,-56 1849.06,-39.4 2044.43,-22.59 2133.69,-15.07"/>
<polygon fill="midnightblue" stroke="midnightblue" points="2134.11,-18.55 2143.78,-14.22 2133.53,-11.57 2134.11,-18.55"/>
</g>
<!-- Node19&#45;&gt;Node11 -->
<g id="edge36" class="edge">
<title>Node19&#45;&gt;Node11</title>
<path fill="none" stroke="midnightblue" d="M2066.37,-257.48C2103.05,-248.49 2161.72,-234.13 2207.44,-222.93"/>
<polygon fill="midnightblue" stroke="midnightblue" points="2208.4,-226.3 2217.28,-220.52 2206.74,-219.5 2208.4,-226.3"/>
</g>
<!-- Node19&#45;&gt;Node12 -->
<g id="edge25" class="edge">
<title>Node19&#45;&gt;Node12</title>
<path fill="none" stroke="midnightblue" d="M2034.3,-257.44C2043.28,-229.39 2072.04,-139.65 2085.92,-96.34"/>
<polygon fill="midnightblue" stroke="midnightblue" points="2089.31,-97.22 2089.03,-86.63 2082.64,-95.09 2089.31,-97.22"/>
</g>
<!-- Node19&#45;&gt;Node14 -->
<g id="edge24" class="edge">
<title>Node19&#45;&gt;Node14</title>
<path fill="none" stroke="midnightblue" d="M2041.93,-257.31C2067.26,-236.09 2132.46,-181.46 2164.39,-154.72"/>
<polygon fill="midnightblue" stroke="midnightblue" points="2166.68,-157.36 2172.1,-148.26 2162.19,-151.99 2166.68,-157.36"/>
</g>
<!-- Node19&#45;&gt;Node17 -->
<g id="edge37" class="edge">
<title>Node19&#45;&gt;Node17</title>
<path fill="none" stroke="midnightblue" d="M2094.78,-257.48C2161.76,-248.44 2270.61,-233.74 2364.55,-221 2583.24,-191.33 2640.29,-197.94 2856.55,-154 2908.01,-143.55 2918.98,-132.85 2970.55,-123 3124.38,-93.63 3311.28,-79.39 3386.65,-74.52"/>
<polygon fill="midnightblue" stroke="midnightblue" points="3387.18,-77.99 3396.94,-73.87 3386.74,-71.01 3387.18,-77.99"/>
</g>
<!-- Node19&#45;&gt;Node20 -->
<g id="edge26" class="edge">
<title>Node19&#45;&gt;Node20</title>
<path fill="none" stroke="midnightblue" d="M2121.08,-259.69C2286.92,-248 2639.34,-223.15 2796.75,-212.06"/>
<polygon fill="midnightblue" stroke="midnightblue" points="2797.1,-215.54 2806.83,-211.34 2796.61,-208.56 2797.1,-215.54"/>
</g>
<!-- Node20&#45;&gt;Node5 -->
<g id="edge27" class="edge">
<title>Node20&#45;&gt;Node5</title>
<path fill="none" stroke="midnightblue" d="M2806.92,-203.7C2653.68,-201.27 2272.25,-191.6 1955.55,-154 1946.4,-152.91 1936.71,-151.42 1927.37,-149.81"/>
<polygon fill="midnightblue" stroke="midnightblue" points="1927.87,-146.34 1917.41,-148.02 1926.63,-153.23 1927.87,-146.34"/>
</g>
<!-- Node20&#45;&gt;Node13 -->
<g id="edge33" class="edge">
<title>Node20&#45;&gt;Node13</title>
<path fill="none" stroke="midnightblue" d="M2880.72,-195.67C2894.92,-170.16 2931.06,-95.6 2893.55,-56 2844.55,-4.27 2340.08,-27.11 2231.28,-19.62"/>
<polygon fill="midnightblue" stroke="midnightblue" points="2231.54,-16.13 2221.26,-18.71 2230.9,-23.1 2231.54,-16.13"/>
</g>
<!-- Node20&#45;&gt;Node15 -->
<g id="edge30" class="edge">
<title>Node20&#45;&gt;Node15</title>
<path fill="none" stroke="midnightblue" d="M2807.03,-202.95C2672.18,-199.26 2363.1,-187.57 2105.55,-154 2034.59,-144.75 2018.19,-134.46 1947.55,-123 1838.22,-105.27 1710.94,-89.86 1631.55,-80.87"/>
<polygon fill="midnightblue" stroke="midnightblue" points="1631.48,-77.34 1621.15,-79.7 1630.7,-84.3 1631.48,-77.34"/>
</g>
<!-- Node21 -->
<g id="node21" class="node">
<title>Node21</title>
<g id="a_node21"><a xlink:href="_navigation_8hpp.html" target="_top" xlink:title=" ">
<polygon fill="none" stroke="red" points="2716.05,-123.5 2716.05,-153.5 2847.05,-153.5 2847.05,-123.5 2716.05,-123.5"/>
<text text-anchor="start" x="2724.05" y="-141.5" font-family="Helvetica,sans-Serif" font-size="10.00">polyfem/mesh/mesh2D</text>
<text text-anchor="middle" x="2781.55" y="-130.5" font-family="Helvetica,sans-Serif" font-size="10.00">/Navigation.hpp</text>
</a>
</g>
</g>
<!-- Node20&#45;&gt;Node21 -->
<g id="edge28" class="edge">
<title>Node20&#45;&gt;Node21</title>
<path fill="none" stroke="midnightblue" d="M2862.88,-195.73C2849.44,-186.44 2827.77,-171.46 2810.18,-159.3"/>
<polygon fill="midnightblue" stroke="midnightblue" points="2812.14,-156.4 2801.93,-153.59 2808.16,-162.16 2812.14,-156.4"/>
</g>
<!-- Node22 -->
<g id="node22" class="node">
<title>Node22</title>
<g id="a_node22"><a xlink:title=" ">
<polygon fill="none" stroke="#bfbfbf" points="2755.05,-62 2755.05,-81 2884.05,-81 2884.05,-62 2755.05,-62"/>
<text text-anchor="middle" x="2819.55" y="-69" font-family="Helvetica,sans-Serif" font-size="10.00">geogram/mesh/mesh.h</text>
</a>
</g>
</g>
<!-- Node20&#45;&gt;Node22 -->
<g id="edge34" class="edge">
<title>Node20&#45;&gt;Node22</title>
<path fill="none" stroke="midnightblue" d="M2874.66,-195.56C2872.86,-180.14 2867.96,-147.82 2856.55,-123 2850.86,-110.6 2841.85,-98.21 2834.14,-88.81"/>
<polygon fill="midnightblue" stroke="midnightblue" points="2836.72,-86.44 2827.57,-81.1 2831.4,-90.98 2836.72,-86.44"/>
</g>
<!-- Node24 -->
<g id="node23" class="node">
<title>Node24</title>
<g id="a_node23"><a xlink:href="_hash_utils_8hpp.html" target="_top" xlink:title=" ">
<polygon fill="none" stroke="red" points="2979.55,-129 2979.55,-148 3131.55,-148 3131.55,-129 2979.55,-129"/>
<text text-anchor="middle" x="3055.55" y="-136" font-family="Helvetica,sans-Serif" font-size="10.00">polyfem/utils/HashUtils.hpp</text>
</a>
</g>
</g>
<!-- Node20&#45;&gt;Node24 -->
<g id="edge31" class="edge">
<title>Node20&#45;&gt;Node24</title>
<path fill="none" stroke="midnightblue" d="M2899.46,-195.87C2931.01,-184.47 2986.73,-164.35 3022.36,-151.49"/>
<polygon fill="midnightblue" stroke="midnightblue" points="3023.62,-154.75 3031.84,-148.06 3021.24,-148.17 3023.62,-154.75"/>
</g>
<!-- Node20&#45;&gt;Node26 -->
<g id="edge35" class="edge">
<title>Node20&#45;&gt;Node26</title>
<path fill="none" stroke="midnightblue" d="M2944.32,-197.08C3071.1,-183.39 3337.89,-154.58 3438.26,-143.74"/>
<polygon fill="midnightblue" stroke="midnightblue" points="3438.71,-147.21 3448.28,-142.66 3437.96,-140.25 3438.71,-147.21"/>
</g>
<!-- Node21&#45;&gt;Node22 -->
<g id="edge29" class="edge">
<title>Node21&#45;&gt;Node22</title>
<path fill="none" stroke="midnightblue" d="M2789.8,-123.4C2795.55,-113.56 2803.26,-100.38 2809.39,-89.89"/>
<polygon fill="midnightblue" stroke="midnightblue" points="2812.45,-91.59 2814.47,-81.19 2806.4,-88.06 2812.45,-91.59"/>
</g>
<!-- Node24&#45;&gt;Node17 -->
<g id="edge32" class="edge">
<title>Node24&#45;&gt;Node17</title>
<path fill="none" stroke="midnightblue" d="M3103.65,-128.94C3178.65,-115.58 3321.6,-90.12 3386.72,-78.52"/>
<polygon fill="midnightblue" stroke="midnightblue" points="3387.62,-81.92 3396.85,-76.72 3386.39,-75.03 3387.62,-81.92"/>
</g>
<!-- Node27&#45;&gt;Node6 -->
<g id="edge43" class="edge">
<title>Node27&#45;&gt;Node6</title>
<path fill="none" stroke="midnightblue" d="M1622.27,-128.9C1669.69,-112.06 1779.88,-74.77 1875.55,-56 2030.74,-25.55 2072.95,-42.02 2229.55,-20 2229.65,-19.99 2229.76,-19.97 2229.86,-19.96"/>
<polygon fill="midnightblue" stroke="midnightblue" points="2230.12,-23.46 2239.48,-18.49 2229.07,-16.54 2230.12,-23.46"/>
</g>
<!-- Node27&#45;&gt;Node13 -->
<g id="edge42" class="edge">
<title>Node27&#45;&gt;Node13</title>
<path fill="none" stroke="midnightblue" d="M1613.09,-128.83C1642.56,-111.7 1711.99,-73.65 1775.55,-56 1901.33,-21.08 2056.06,-13.1 2133.5,-11.38"/>
<polygon fill="midnightblue" stroke="midnightblue" points="2133.98,-14.87 2143.91,-11.18 2133.84,-7.88 2133.98,-14.87"/>
</g>
<!-- Node27&#45;&gt;Node15 -->
<g id="edge41" class="edge">
<title>Node27&#45;&gt;Node15</title>
<path fill="none" stroke="midnightblue" d="M1592.62,-128.73C1585.82,-118.7 1574.53,-102.01 1566.01,-89.42"/>
<polygon fill="midnightblue" stroke="midnightblue" points="1568.9,-87.45 1560.39,-81.13 1563.1,-91.37 1568.9,-87.45"/>
</g>
<!-- Node29&#45;&gt;Node6 -->
<g id="edge65" class="edge">
<title>Node29&#45;&gt;Node6</title>
<path fill="none" stroke="midnightblue" d="M3489.03,-447.44C3517.39,-440.19 3556.29,-428.19 3587.55,-411 3690.82,-354.21 4063.78,-140.43 3981.55,-56 3951.98,-25.64 2608.44,-13.55 2329.81,-11.37"/>
<polygon fill="midnightblue" stroke="midnightblue" points="2329.63,-7.87 2319.6,-11.29 2329.57,-14.87 2329.63,-7.87"/>
</g>
<!-- Node29&#45;&gt;Node9 -->
<g id="edge51" class="edge">
<title>Node29&#45;&gt;Node9</title>
<path fill="none" stroke="midnightblue" d="M3377.55,-451.22C3281.46,-444.5 3107.39,-430.81 2959.55,-411 2950.5,-409.79 2940.93,-408.29 2931.64,-406.72"/>
<polygon fill="midnightblue" stroke="midnightblue" points="2932.16,-403.26 2921.71,-405.01 2930.96,-410.16 2932.16,-403.26"/>
</g>
<!-- Node29&#45;&gt;Node10 -->
<g id="edge50" class="edge">
<title>Node29&#45;&gt;Node10</title>
<path fill="none" stroke="midnightblue" d="M3377.16,-451.13C3256.77,-442.78 3027.18,-425.28 2992.55,-411 2972.4,-402.69 2974.75,-388.2 2954.55,-380 2869.61,-345.5 2634.79,-353.01 2543.55,-344 2529.29,-342.59 2514.18,-341.01 2499.46,-339.43"/>
<polygon fill="midnightblue" stroke="midnightblue" points="2499.67,-335.93 2489.35,-338.33 2498.91,-342.89 2499.67,-335.93"/>
</g>
<!-- Node29&#45;&gt;Node17 -->
<g id="edge66" class="edge">
<title>Node29&#45;&gt;Node17</title>
<path fill="none" stroke="midnightblue" d="M3489.55,-447.49C3512.32,-440.83 3540.27,-429.49 3559.55,-411 3653.21,-321.18 3686.45,-226.03 3607.55,-123 3589.03,-98.81 3503.04,-83.56 3454.37,-76.72"/>
<polygon fill="midnightblue" stroke="midnightblue" points="3454.68,-73.23 3444.3,-75.35 3453.74,-80.17 3454.68,-73.23"/>
</g>
<!-- Node29&#45;&gt;Node18 -->
<g id="edge67" class="edge">
<title>Node29&#45;&gt;Node18</title>
<path fill="none" stroke="midnightblue" d="M3470.4,-447.44C3506.12,-430.53 3577.55,-389.25 3577.55,-329.5 3577.55,-329.5 3577.55,-329.5 3577.55,-266 3577.55,-227.61 3573.38,-182.82 3570.71,-158.17"/>
<polygon fill="midnightblue" stroke="midnightblue" points="3574.18,-157.62 3569.59,-148.07 3567.22,-158.4 3574.18,-157.62"/>
</g>
<!-- Node29&#45;&gt;Node26 -->
<g id="edge69" class="edge">
<title>Node29&#45;&gt;Node26</title>
<path fill="none" stroke="midnightblue" d="M3451.3,-447.2C3454.95,-404.52 3470.81,-218.6 3475.94,-158.39"/>
<polygon fill="midnightblue" stroke="midnightblue" points="3479.46,-158.37 3476.82,-148.1 3472.48,-157.77 3479.46,-158.37"/>
</g>
<!-- Node29&#45;&gt;Node28 -->
<g id="edge68" class="edge">
<title>Node29&#45;&gt;Node28</title>
<path fill="none" stroke="midnightblue" d="M3446.25,-447.41C3428.3,-411.57 3359.13,-273.52 3334.41,-224.17"/>
<polygon fill="midnightblue" stroke="midnightblue" points="3337.45,-222.43 3329.84,-215.05 3331.19,-225.56 3337.45,-222.43"/>
</g>
<!-- Node30 -->
<g id="node28" class="node">
<title>Node30</title>
<g id="a_node28"><a xlink:href="_elasticity_utils_8hpp.html" target="_top" xlink:title=" ">
<polygon fill="none" stroke="red" points="1448.05,-380.5 1448.05,-410.5 1577.05,-410.5 1577.05,-380.5 1448.05,-380.5"/>
<text text-anchor="start" x="1456.05" y="-398.5" font-family="Helvetica,sans-Serif" font-size="10.00">polyfem/utils/Elasticity</text>
<text text-anchor="middle" x="1512.55" y="-387.5" font-family="Helvetica,sans-Serif" font-size="10.00">Utils.hpp</text>
</a>
</g>
</g>
<!-- Node29&#45;&gt;Node30 -->
<g id="edge52" class="edge">
<title>Node29&#45;&gt;Node30</title>
<path fill="none" stroke="midnightblue" d="M3377.32,-452.4C3339.73,-450.63 3293.2,-448.55 3251.55,-447 2607.35,-423.08 1828.54,-403.94 1587.37,-398.24"/>
<polygon fill="midnightblue" stroke="midnightblue" points="1587.39,-394.74 1577.31,-398 1587.22,-401.74 1587.39,-394.74"/>
</g>
<!-- Node30&#45;&gt;Node5 -->
<g id="edge53" class="edge">
<title>Node30&#45;&gt;Node5</title>
<path fill="none" stroke="midnightblue" d="M1528.06,-380.21C1547.47,-362.81 1582.23,-333.25 1615.55,-313 1648.87,-292.75 1663.53,-299.24 1695.55,-277 1740.21,-245.99 1737.94,-222.46 1781.55,-190 1801.93,-174.83 1827.48,-161.52 1846.94,-152.38"/>
<polygon fill="midnightblue" stroke="midnightblue" points="1848.6,-155.47 1856.23,-148.12 1845.68,-149.11 1848.6,-155.47"/>
</g>
<!-- Node30&#45;&gt;Node10 -->
<g id="edge54" class="edge">
<title>Node30&#45;&gt;Node10</title>
<path fill="none" stroke="midnightblue" d="M1577.21,-389.83C1735.68,-378.37 2143.6,-348.87 2323.77,-335.85"/>
<polygon fill="midnightblue" stroke="midnightblue" points="2324.28,-339.32 2334,-335.11 2323.78,-332.34 2324.28,-339.32"/>
</g>
<!-- Node30&#45;&gt;Node13 -->
<g id="edge61" class="edge">
<title>Node30&#45;&gt;Node13</title>
<path fill="none" stroke="midnightblue" d="M1478.49,-380.42C1438.49,-361.36 1377.55,-323.24 1377.55,-268 1377.55,-268 1377.55,-268 1377.55,-137.5 1377.55,-99.74 1371.98,-79.48 1401.55,-56 1458.8,-10.55 1972.04,-9.72 2133.89,-10.6"/>
<polygon fill="midnightblue" stroke="midnightblue" points="2134.01,-14.1 2144.03,-10.66 2134.06,-7.1 2134.01,-14.1"/>
</g>
<!-- Node30&#45;&gt;Node15 -->
<g id="edge60" class="edge">
<title>Node30&#45;&gt;Node15</title>
<path fill="none" stroke="midnightblue" d="M1479.14,-380.34C1464.17,-372.09 1448,-360.11 1439.55,-344 1421.6,-309.75 1431.36,-294.79 1439.55,-257 1453.42,-193.05 1462.37,-176.14 1500.55,-123 1510.22,-109.54 1523.87,-96.82 1535.03,-87.51"/>
<polygon fill="midnightblue" stroke="midnightblue" points="1537.38,-90.1 1542.97,-81.1 1532.99,-84.65 1537.38,-90.1"/>
</g>
<!-- Node30&#45;&gt;Node16 -->
<g id="edge64" class="edge">
<title>Node30&#45;&gt;Node16</title>
<path fill="none" stroke="midnightblue" d="M1510.53,-380.34C1506.07,-343.14 1499.76,-241.93 1553.55,-190 1597.61,-147.47 1631.27,-180.33 1686.55,-154 1707.82,-143.87 1707.4,-131.02 1729.55,-123 1761.26,-111.51 2252.05,-83.26 2401.62,-74.88"/>
<polygon fill="midnightblue" stroke="midnightblue" points="2402,-78.37 2411.79,-74.31 2401.61,-71.38 2402,-78.37"/>
</g>
<!-- Node30&#45;&gt;Node17 -->
<g id="edge62" class="edge">
<title>Node30&#45;&gt;Node17</title>
<path fill="none" stroke="midnightblue" d="M1520.35,-380.31C1530.09,-363.28 1547.89,-334.34 1567.55,-313 1659.02,-213.7 1677.9,-169.74 1804.55,-123 1823.79,-115.9 3155.64,-79.65 3386.61,-73.41"/>
<polygon fill="midnightblue" stroke="midnightblue" points="3386.86,-76.91 3396.76,-73.14 3386.67,-69.91 3386.86,-76.91"/>
</g>
<!-- Node30&#45;&gt;Node19 -->
<g id="edge55" class="edge">
<title>Node30&#45;&gt;Node19</title>
<path fill="none" stroke="midnightblue" d="M1539.55,-380.41C1576.14,-361.95 1644.01,-329.93 1705.55,-313 1779.81,-292.58 1866.24,-281.19 1931.45,-274.98"/>
<polygon fill="midnightblue" stroke="midnightblue" points="1932.09,-278.43 1941.73,-274.03 1931.45,-271.46 1932.09,-278.43"/>
</g>
<!-- Node30&#45;&gt;Node32 -->
<g id="edge56" class="edge">
<title>Node30&#45;&gt;Node32</title>
<path fill="none" stroke="midnightblue" d="M1577.17,-382.32C1582.03,-381.5 1586.87,-380.72 1591.55,-380 1700.95,-363.24 1827.43,-348.33 1910.66,-339.14"/>
<polygon fill="midnightblue" stroke="midnightblue" points="1911.28,-342.59 1920.84,-338.02 1910.52,-335.63 1911.28,-342.59"/>
</g>
<!-- Node36 -->
<g id="node31" class="node">
<title>Node36</title>
<g id="a_node31"><a xlink:title=" ">
<polygon fill="none" stroke="#bfbfbf" points="1307.55,-319 1307.55,-338 1349.55,-338 1349.55,-319 1307.55,-319"/>
<text text-anchor="middle" x="1328.55" y="-326" font-family="Helvetica,sans-Serif" font-size="10.00">array</text>
</a>
</g>
</g>
<!-- Node30&#45;&gt;Node36 -->
<g id="edge63" class="edge">
<title>Node30&#45;&gt;Node36</title>
<path fill="none" stroke="midnightblue" d="M1468.6,-380.45C1438.79,-370.71 1398.58,-357.17 1363.55,-344 1361.71,-343.31 1359.81,-342.57 1357.91,-341.83"/>
<polygon fill="midnightblue" stroke="midnightblue" points="1359.04,-338.51 1348.45,-338.01 1356.42,-345 1359.04,-338.51"/>
</g>
<!-- Node32&#45;&gt;Node15 -->
<g id="edge57" class="edge">
<title>Node32&#45;&gt;Node15</title>
<path fill="none" stroke="midnightblue" d="M1915.88,-325.48C1801.34,-317.61 1602.03,-284.67 1509.55,-154 1494.25,-132.38 1516.99,-105.03 1535.33,-88.16"/>
<polygon fill="midnightblue" stroke="midnightblue" points="1538.07,-90.42 1543.29,-81.2 1533.46,-85.14 1538.07,-90.42"/>
</g>
<!-- Node33 -->
<g id="node30" class="node">
<title>Node33</title>
<g id="a_node30"><a xlink:href="autodiff_8h.html" target="_top" xlink:title=" ">
<polygon fill="none" stroke="red" points="2292.05,-257.5 2292.05,-276.5 2355.05,-276.5 2355.05,-257.5 2292.05,-257.5"/>
<text text-anchor="middle" x="2323.55" y="-264.5" font-family="Helvetica,sans-Serif" font-size="10.00">autodiff.h</text>
</a>
</g>
</g>
<!-- Node32&#45;&gt;Node33 -->
<g id="edge58" class="edge">
<title>Node32&#45;&gt;Node33</title>
<path fill="none" stroke="midnightblue" d="M2047.69,-318.98C2110.32,-307.4 2221.34,-286.89 2281.68,-275.74"/>
<polygon fill="midnightblue" stroke="midnightblue" points="2282.43,-279.16 2291.63,-273.9 2281.16,-272.27 2282.43,-279.16"/>
</g>
<!-- Node33&#45;&gt;Node28 -->
<g id="edge59" class="edge">
<title>Node33&#45;&gt;Node28</title>
<path fill="none" stroke="midnightblue" d="M2355.2,-264.12C2504.47,-255.26 3137.44,-217.67 3291.6,-208.52"/>
<polygon fill="midnightblue" stroke="midnightblue" points="3292.08,-211.99 3301.86,-207.91 3291.67,-205.01 3292.08,-211.99"/>
</g>
<!-- Node37&#45;&gt;Node5 -->
<g id="edge71" class="edge">
<title>Node37&#45;&gt;Node5</title>
<path fill="none" stroke="midnightblue" d="M2733.25,-385.92C2702.37,-369.91 2632.94,-335.14 2571.55,-313 2481.5,-280.52 2457.5,-275.43 2363.55,-257 2236.97,-232.17 2198.63,-259.62 2075.55,-221 2047.29,-212.13 2043.66,-201.94 2016.55,-190 1982.18,-174.86 1941.71,-160.63 1913.14,-151.16"/>
<polygon fill="midnightblue" stroke="midnightblue" points="1914.15,-147.81 1903.56,-148.01 1911.97,-154.46 1914.15,-147.81"/>
</g>
<!-- Node37&#45;&gt;Node10 -->
<g id="edge73" class="edge">
<title>Node37&#45;&gt;Node10</title>
<path fill="none" stroke="midnightblue" d="M2721.36,-385.93C2713.98,-383.83 2706,-381.71 2698.55,-380 2632.27,-364.79 2556.46,-351.63 2499.41,-342.56"/>
<polygon fill="midnightblue" stroke="midnightblue" points="2499.76,-339.07 2489.34,-340.97 2498.67,-345.98 2499.76,-339.07"/>
</g>
<!-- Node37&#45;&gt;Node13 -->
<g id="edge74" class="edge">
<title>Node37&#45;&gt;Node13</title>
<path fill="none" stroke="midnightblue" d="M2769.82,-385.94C2857.32,-348.39 3195.74,-196.92 3140.55,-123 3077.88,-39.05 3017.8,-73.77 2914.55,-56 2617.76,-4.93 2534.6,-55.03 2231.22,-19.89"/>
<polygon fill="midnightblue" stroke="midnightblue" points="2231.6,-16.41 2221.26,-18.71 2230.78,-23.36 2231.6,-16.41"/>
</g>
<!-- Node37&#45;&gt;Node32 -->
<g id="edge72" class="edge">
<title>Node37&#45;&gt;Node32</title>
<path fill="none" stroke="midnightblue" d="M2723.32,-385.93C2715.44,-383.66 2706.71,-381.44 2698.55,-380 2585.77,-360.1 2260.25,-342.08 2097.11,-334"/>
<polygon fill="midnightblue" stroke="midnightblue" points="2097.25,-330.5 2087.08,-333.5 2096.9,-337.49 2097.25,-330.5"/>
</g>
<!-- Node38&#45;&gt;Node5 -->
<g id="edge76" class="edge">
<title>Node38&#45;&gt;Node5</title>
<path fill="none" stroke="midnightblue" d="M3012.68,-385.94C3004.45,-383.95 2995.7,-381.87 2987.55,-380 2737.95,-322.58 2676.45,-303.36 2424.55,-257 2318.48,-237.48 2290.18,-242.83 2184.55,-221 2133.05,-210.36 1988.13,-170.56 1916.99,-150.79"/>
<polygon fill="midnightblue" stroke="midnightblue" points="1917.62,-147.33 1907.04,-148.03 1915.74,-154.08 1917.62,-147.33"/>
</g>
<!-- Node38&#45;&gt;Node10 -->
<g id="edge77" class="edge">
<title>Node38&#45;&gt;Node10</title>
<path fill="none" stroke="midnightblue" d="M3015.97,-385.93C3006.86,-383.71 2996.86,-381.52 2987.55,-380 2815.9,-351.9 2612.74,-338.7 2499.36,-333.11"/>
<polygon fill="midnightblue" stroke="midnightblue" points="2499.5,-329.61 2489.34,-332.62 2499.16,-336.6 2499.5,-329.61"/>
</g>
<!-- Node38&#45;&gt;Node13 -->
<g id="edge80" class="edge">
<title>Node38&#45;&gt;Node13</title>
<path fill="none" stroke="midnightblue" d="M3061.94,-385.97C3099.48,-362.51 3197.55,-292.93 3197.55,-206.5 3197.55,-206.5 3197.55,-206.5 3197.55,-137.5 3197.55,-51.7 3105.88,-76.45 3022.55,-56 2854.46,-14.75 2421.15,-39.38 2231.21,-19.83"/>
<polygon fill="midnightblue" stroke="midnightblue" points="2231.58,-16.35 2221.26,-18.74 2230.81,-23.31 2231.58,-16.35"/>
</g>
<!-- Node38&#45;&gt;Node16 -->
<g id="edge81" class="edge">
<title>Node38&#45;&gt;Node16</title>
<path fill="none" stroke="midnightblue" d="M3031.42,-385.89C2948.6,-341.66 2571.02,-140.03 2469.66,-85.91"/>
<polygon fill="midnightblue" stroke="midnightblue" points="2471.2,-82.76 2460.73,-81.14 2467.9,-88.94 2471.2,-82.76"/>
</g>
<!-- Node38&#45;&gt;Node19 -->
<g id="edge78" class="edge">
<title>Node38&#45;&gt;Node19</title>
<path fill="none" stroke="midnightblue" d="M3014.67,-385.94C3005.9,-383.83 2996.4,-381.69 2987.55,-380 2874.69,-358.48 2845.1,-361.55 2731.55,-344 2649.6,-331.34 2629.82,-323.5 2547.55,-313 2403.39,-294.6 2235.59,-281.5 2131.46,-274.34"/>
<polygon fill="midnightblue" stroke="midnightblue" points="2131.49,-270.83 2121.28,-273.64 2131.01,-277.81 2131.49,-270.83"/>
</g>
<!-- Node38&#45;&gt;Node32 -->
<g id="edge79" class="edge">
<title>Node38&#45;&gt;Node32</title>
<path fill="none" stroke="midnightblue" d="M3001.32,-386.34C2986.43,-383.97 2969.83,-381.59 2954.55,-380 2871.02,-371.3 2321.99,-344.7 2097.23,-334.02"/>
<polygon fill="midnightblue" stroke="midnightblue" points="2097.25,-330.51 2087.1,-333.53 2096.92,-337.5 2097.25,-330.51"/>
</g>
<!-- Node39&#45;&gt;Node5 -->
<g id="edge83" class="edge">
<title>Node39&#45;&gt;Node5</title>
<path fill="none" stroke="midnightblue" d="M2554.01,-385.74C2546.51,-368.45 2527.23,-330.13 2497.55,-313 2372.07,-240.58 2313.24,-315.46 2173.55,-277 2152.84,-271.3 2149.95,-263.73 2129.55,-257 2057.04,-233.06 2029.01,-256.79 1961.55,-221 1931.31,-204.95 1904.26,-175.02 1889.17,-156.24"/>
<polygon fill="midnightblue" stroke="midnightblue" points="1891.84,-153.98 1882.93,-148.26 1886.33,-158.29 1891.84,-153.98"/>
</g>
<!-- Node39&#45;&gt;Node10 -->
<g id="edge85" class="edge">
<title>Node39&#45;&gt;Node10</title>
<path fill="none" stroke="midnightblue" d="M2538.17,-385.87C2516.35,-376.16 2480.31,-360.11 2452.24,-347.61"/>
<polygon fill="midnightblue" stroke="midnightblue" points="2453.62,-344.4 2443.06,-343.53 2450.77,-350.79 2453.62,-344.4"/>
</g>
<!-- Node39&#45;&gt;Node13 -->
<g id="edge86" class="edge">
<title>Node39&#45;&gt;Node13</title>
<path fill="none" stroke="midnightblue" d="M2559.91,-385.92C2571.45,-341.7 2617.37,-138.52 2510.55,-56 2463.14,-19.37 2307.41,-28.8 2231.46,-19.85"/>
<polygon fill="midnightblue" stroke="midnightblue" points="2231.68,-16.35 2221.29,-18.46 2230.73,-23.28 2231.68,-16.35"/>
</g>
<!-- Node39&#45;&gt;Node32 -->
<g id="edge84" class="edge">
<title>Node39&#45;&gt;Node32</title>
<path fill="none" stroke="midnightblue" d="M2513.46,-389.35C2420.74,-378.51 2204.31,-353.2 2084.69,-339.22"/>
<polygon fill="midnightblue" stroke="midnightblue" points="2084.82,-335.71 2074.49,-338.03 2084.01,-342.66 2084.82,-335.71"/>
</g>
<!-- Node40&#45;&gt;Node5 -->
<g id="edge88" class="edge">
<title>Node40&#45;&gt;Node5</title>
<path fill="none" stroke="midnightblue" d="M1625.89,-453.69C1561.67,-449.71 1461.91,-439.08 1438.55,-411 1429.74,-400.41 1431.84,-392.03 1438.55,-380 1477.74,-309.78 1674.55,-225.82 1746.55,-190 1777.5,-174.6 1814.36,-160.67 1840.91,-151.36"/>
<polygon fill="midnightblue" stroke="midnightblue" points="1842.25,-154.61 1850.55,-148.03 1839.96,-147.99 1842.25,-154.61"/>
</g>
<!-- Node40&#45;&gt;Node10 -->
<g id="edge89" class="edge">
<title>Node40&#45;&gt;Node10</title>
<path fill="none" stroke="midnightblue" d="M1737.18,-448.33C1741.37,-447.85 1745.52,-447.4 1749.55,-447 1873.66,-434.81 2193.48,-456.59 2309.55,-411 2329.84,-403.03 2330.55,-393.64 2347.55,-380 2359.99,-370.02 2373.88,-359.05 2385.53,-349.88"/>
<polygon fill="midnightblue" stroke="midnightblue" points="2387.86,-352.5 2393.56,-343.57 2383.53,-347 2387.86,-352.5"/>
</g>
<!-- Node40&#45;&gt;Node13 -->
<g id="edge93" class="edge">
<title>Node40&#45;&gt;Node13</title>
<path fill="none" stroke="midnightblue" d="M1625.82,-450.83C1573.96,-444.92 1495.05,-433.05 1429.55,-411 1367.58,-390.13 1356.07,-375.12 1298.55,-344 1238.68,-311.6 1165.55,-336.08 1165.55,-268 1165.55,-268 1165.55,-268 1165.55,-137.5 1165.55,-37.38 1277.7,-77.16 1375.55,-56 1521.38,-24.47 1981.76,-14.27 2133.51,-11.72"/>
<polygon fill="midnightblue" stroke="midnightblue" points="2133.95,-15.21 2143.89,-11.55 2133.83,-8.22 2133.95,-15.21"/>
</g>
<!-- Node40&#45;&gt;Node16 -->
<g id="edge94" class="edge">
<title>Node40&#45;&gt;Node16</title>
<path fill="none" stroke="midnightblue" d="M1681.64,-447.4C1682.57,-403.96 1693,-207.43 1804.55,-123 1828.4,-104.95 2262.24,-81.66 2401.74,-74.61"/>
<polygon fill="midnightblue" stroke="midnightblue" points="2402.22,-78.09 2412.03,-74.1 2401.86,-71.1 2402.22,-78.09"/>
</g>
<!-- Node40&#45;&gt;Node19 -->
<g id="edge90" class="edge">
<title>Node40&#45;&gt;Node19</title>
<path fill="none" stroke="midnightblue" d="M1690.41,-447.15C1715.83,-422.27 1792.06,-351.01 1868.55,-313 1901.06,-296.85 1940.18,-285.81 1971.95,-278.7"/>
<polygon fill="midnightblue" stroke="midnightblue" points="1972.95,-282.06 1981.98,-276.53 1971.47,-275.22 1972.95,-282.06"/>
</g>
<!-- Node40&#45;&gt;Node30 -->
<g id="edge91" class="edge">
<title>Node40&#45;&gt;Node30</title>
<path fill="none" stroke="midnightblue" d="M1657.34,-447.48C1632.53,-438.74 1593.24,-424.91 1561.85,-413.86"/>
<polygon fill="midnightblue" stroke="midnightblue" points="1562.98,-410.54 1552.38,-410.52 1560.65,-417.15 1562.98,-410.54"/>
</g>
<!-- Node40&#45;&gt;Node32 -->
<g id="edge92" class="edge">
<title>Node40&#45;&gt;Node32</title>
<path fill="none" stroke="midnightblue" d="M1703.3,-447.4C1758.71,-425.5 1905.41,-367.51 1970.12,-341.92"/>
<polygon fill="midnightblue" stroke="midnightblue" points="1971.77,-345.04 1979.78,-338.11 1969.19,-338.53 1971.77,-345.04"/>
</g>
<!-- Node41&#45;&gt;Node5 -->
<g id="edge96" class="edge">
<title>Node41&#45;&gt;Node5</title>
<path fill="none" stroke="midnightblue" d="M1827.8,-447.36C1821.26,-413.27 1800.49,-285.38 1835.55,-190 1840.38,-176.88 1850.12,-164.65 1858.89,-155.51"/>
<polygon fill="midnightblue" stroke="midnightblue" points="1861.53,-157.83 1866.21,-148.32 1856.62,-152.83 1861.53,-157.83"/>
</g>
<!-- Node41&#45;&gt;Node10 -->
<g id="edge98" class="edge">
<title>Node41&#45;&gt;Node10</title>
<path fill="none" stroke="midnightblue" d="M1900.74,-451.32C2038.15,-442.07 2328.21,-421.46 2347.55,-411 2371.51,-398.04 2389.52,-371.9 2400.23,-352.7"/>
<polygon fill="midnightblue" stroke="midnightblue" points="2403.43,-354.14 2405.03,-343.67 2397.25,-350.86 2403.43,-354.14"/>
</g>
<!-- Node41&#45;&gt;Node13 -->
<g id="edge101" class="edge">
<title>Node41&#45;&gt;Node13</title>
<path fill="none" stroke="midnightblue" d="M1810.94,-447.37C1720.32,-404.3 1335.38,-208.62 1478.55,-56 1500.95,-32.13 1977.13,-16.74 2133.38,-12.32"/>
<polygon fill="midnightblue" stroke="midnightblue" points="2133.73,-15.81 2143.63,-12.03 2133.54,-8.81 2133.73,-15.81"/>
</g>
<!-- Node41&#45;&gt;Node19 -->
<g id="edge99" class="edge">
<title>Node41&#45;&gt;Node19</title>
<path fill="none" stroke="midnightblue" d="M1831.24,-447.16C1836.45,-422.31 1854.57,-351.12 1897.55,-313 1916.35,-296.33 1941.54,-285.8 1965.01,-279.16"/>
<polygon fill="midnightblue" stroke="midnightblue" points="1966.16,-282.48 1974.94,-276.54 1964.38,-275.71 1966.16,-282.48"/>
</g>
<!-- Node41&#45;&gt;Node30 -->
<g id="edge97" class="edge">
<title>Node41&#45;&gt;Node30</title>
<path fill="none" stroke="midnightblue" d="M1784.14,-447.48C1732.73,-437.83 1648.2,-421.96 1587.09,-410.49"/>
<polygon fill="midnightblue" stroke="midnightblue" points="1587.59,-407.02 1577.11,-408.62 1586.3,-413.9 1587.59,-407.02"/>
</g>
<!-- Node41&#45;&gt;Node32 -->
<g id="edge100" class="edge">
<title>Node41&#45;&gt;Node32</title>
<path fill="none" stroke="midnightblue" d="M1853.25,-447.43C1873.08,-439.63 1901.57,-426.92 1923.55,-411 1949.49,-392.21 1974.11,-364.18 1988.52,-346.37"/>
<polygon fill="midnightblue" stroke="midnightblue" points="1991.61,-348.11 1995.08,-338.1 1986.12,-343.76 1991.61,-348.11"/>
</g>
<!-- Node41&#45;&gt;Node36 -->
<g id="edge102" class="edge">
<title>Node41&#45;&gt;Node36</title>
<path fill="none" stroke="midnightblue" d="M1758.15,-448.25C1647.37,-436.17 1445.91,-413.91 1438.55,-411 1400.47,-395.96 1363.83,-364.26 1343.94,-345.13"/>
<polygon fill="midnightblue" stroke="midnightblue" points="1346.29,-342.53 1336.71,-338.01 1341.38,-347.52 1346.29,-342.53"/>
</g>
<!-- Node42&#45;&gt;Node5 -->
<g id="edge104" class="edge">
<title>Node42&#45;&gt;Node5</title>
<path fill="none" stroke="midnightblue" d="M1327.62,-447.4C1315,-439.66 1298.11,-427.04 1289.55,-411 1269,-372.47 1254.24,-346.25 1282.55,-313 1315.1,-274.78 1457.76,-292.35 1505.55,-277 1588.25,-250.44 1599.16,-220.33 1680.55,-190 1727.45,-172.52 1782.83,-158.86 1822.74,-150.18"/>
<polygon fill="midnightblue" stroke="midnightblue" points="1823.5,-153.6 1832.54,-148.08 1822.03,-146.75 1823.5,-153.6"/>
</g>
<!-- Node42&#45;&gt;Node10 -->
<g id="edge106" class="edge">
<title>Node42&#45;&gt;Node10</title>
<path fill="none" stroke="midnightblue" d="M1413.88,-453.26C1627.69,-444.83 2256.74,-419.41 2276.55,-411 2295.08,-403.14 2293.02,-391.48 2309.55,-380 2327.6,-367.47 2349.22,-356.29 2367.9,-347.66"/>
<polygon fill="midnightblue" stroke="midnightblue" points="2369.41,-350.82 2377.08,-343.51 2366.53,-344.44 2369.41,-350.82"/>
</g>
<!-- Node42&#45;&gt;Node13 -->
<g id="edge110" class="edge">
<title>Node42&#45;&gt;Node13</title>
<path fill="none" stroke="midnightblue" d="M1273.91,-447.44C1238.64,-441.01 1196.1,-429.92 1161.55,-411 1054.02,-352.1 1009.92,-333.66 961.55,-221 942.26,-176.07 972.76,-152.77 1011.55,-123 1075.32,-74.06 1100.97,-72.93 1179.55,-56 1364.81,-16.1 1958.93,-11.51 2133.73,-11.04"/>
<polygon fill="midnightblue" stroke="midnightblue" points="2133.92,-14.54 2143.92,-11.02 2133.91,-7.54 2133.92,-14.54"/>
</g>
<!-- Node42&#45;&gt;Node15 -->
<g id="edge109" class="edge">
<title>Node42&#45;&gt;Node15</title>
<path fill="none" stroke="midnightblue" d="M1308.98,-447.45C1243.55,-429.44 1111.59,-383.39 1151.55,-313 1229.7,-175.36 1421.31,-108.12 1509.18,-83.7"/>
<polygon fill="midnightblue" stroke="midnightblue" points="1510.13,-87.07 1518.86,-81.07 1508.3,-80.31 1510.13,-87.07"/>
</g>
<!-- Node42&#45;&gt;Node19 -->
<g id="edge107" class="edge">
<title>Node42&#45;&gt;Node19</title>
<path fill="none" stroke="midnightblue" d="M1335.79,-447.32C1314.86,-422.86 1261.29,-352.62 1298.55,-313 1319.9,-290.3 1736.13,-276.03 1931.67,-270.55"/>
<polygon fill="midnightblue" stroke="midnightblue" points="1932.05,-274.04 1941.95,-270.26 1931.86,-267.04 1932.05,-274.04"/>
</g>
<!-- Node42&#45;&gt;Node30 -->
<g id="edge105" class="edge">
<title>Node42&#45;&gt;Node30</title>
<path fill="none" stroke="midnightblue" d="M1367.77,-447.48C1392.58,-438.74 1431.87,-424.91 1463.26,-413.86"/>
<polygon fill="midnightblue" stroke="midnightblue" points="1464.45,-417.15 1472.72,-410.52 1462.13,-410.54 1464.45,-417.15"/>
</g>
<!-- Node42&#45;&gt;Node32 -->
<g id="edge108" class="edge">
<title>Node42&#45;&gt;Node32</title>
<path fill="none" stroke="midnightblue" d="M1390.42,-447.42C1439.19,-438.46 1517.76,-423.94 1585.55,-411 1716.14,-386.07 1869.56,-355.74 1948.58,-340.05"/>
<polygon fill="midnightblue" stroke="midnightblue" points="1949.64,-343.41 1958.76,-338.02 1948.27,-336.54 1949.64,-343.41"/>
</g>
<!-- Node42&#45;&gt;Node36 -->
<g id="edge111" class="edge">
<title>Node42&#45;&gt;Node36</title>
<path fill="none" stroke="midnightblue" d="M1342.52,-447.31C1340.11,-426.99 1334.07,-376.05 1330.78,-348.28"/>
<polygon fill="midnightblue" stroke="midnightblue" points="1334.25,-347.77 1329.59,-338.26 1327.29,-348.6 1334.25,-347.77"/>
</g>
<!-- Node43&#45;&gt;Node5 -->
<g id="edge113" class="edge">
<title>Node43&#45;&gt;Node5</title>
<path fill="none" stroke="midnightblue" d="M635.82,-456.66C469.3,-457.46 67.52,-454.76 26.55,-411 17.14,-400.94 17.04,-389.96 26.55,-380 56.83,-348.31 771.11,-349.72 814.55,-344 972.68,-323.17 1358.57,-218.18 1515.55,-190 1615.05,-172.14 1730.93,-156.91 1804.01,-147.98"/>
<polygon fill="midnightblue" stroke="midnightblue" points="1804.53,-151.44 1814.04,-146.76 1803.69,-144.49 1804.53,-151.44"/>
</g>
<!-- Node43&#45;&gt;Node10 -->
<g id="edge121" class="edge">
<title>Node43&#45;&gt;Node10</title>
<path fill="none" stroke="midnightblue" d="M779.33,-453.47C929.23,-447.93 1286.47,-433.41 1585.55,-411 1855.08,-390.81 2173.06,-356.45 2323.81,-339.53"/>
<polygon fill="midnightblue" stroke="midnightblue" points="2324.39,-342.99 2333.94,-338.39 2323.61,-336.03 2324.39,-342.99"/>
</g>
<!-- Node43&#45;&gt;Node13 -->
<g id="edge125" class="edge">
<title>Node43&#45;&gt;Node13</title>
<path fill="none" stroke="midnightblue" d="M771.95,-447.43C793.91,-441.09 816.26,-430.08 829.55,-411 837.43,-399.7 833.05,-393.33 829.55,-380 807.92,-297.5 747.55,-291.79 747.55,-206.5 747.55,-206.5 747.55,-206.5 747.55,-137.5 747.55,-99.74 741.68,-79.1 771.55,-56 826.51,-13.51 1891.14,-10.99 2133.67,-10.96"/>
<polygon fill="midnightblue" stroke="midnightblue" points="2133.93,-14.46 2143.93,-10.96 2133.93,-7.46 2133.93,-14.46"/>
</g>
<!-- Node43&#45;&gt;Node15 -->
<g id="edge124" class="edge">
<title>Node43&#45;&gt;Node15</title>
<path fill="none" stroke="midnightblue" d="M635.91,-456.75C467.48,-457.75 57.31,-455.56 15.55,-411 6.13,-400.95 7.19,-390.95 15.55,-380 81.71,-293.47 854.3,-141.98 961.55,-123 1144.82,-90.58 1363.77,-78.78 1477.46,-74.63"/>
<polygon fill="midnightblue" stroke="midnightblue" points="1477.92,-78.12 1487.79,-74.27 1477.67,-71.12 1477.92,-78.12"/>
</g>
<!-- Node43&#45;&gt;Node19 -->
<g id="edge122" class="edge">
<title>Node43&#45;&gt;Node19</title>
<path fill="none" stroke="midnightblue" d="M635.99,-454.51C508.67,-451.11 253.56,-440.65 226.55,-411 217.28,-400.81 217.09,-390.02 226.55,-380 274.85,-328.87 788.39,-348.94 858.55,-344 1022.72,-332.43 1063.38,-324.49 1227.55,-313 1480.95,-295.27 1779.67,-280.04 1931.73,-272.69"/>
<polygon fill="midnightblue" stroke="midnightblue" points="1932.15,-276.17 1941.97,-272.2 1931.82,-269.18 1932.15,-276.17"/>
</g>
<!-- Node43&#45;&gt;Node30 -->
<g id="edge114" class="edge">
<title>Node43&#45;&gt;Node30</title>
<path fill="none" stroke="midnightblue" d="M779.35,-450.69C931.06,-439.48 1282.99,-413.47 1437.52,-402.05"/>
<polygon fill="midnightblue" stroke="midnightblue" points="1438.13,-405.51 1447.85,-401.28 1437.62,-398.53 1438.13,-405.51"/>
</g>
<!-- Node43&#45;&gt;Node32 -->
<g id="edge123" class="edge">
<title>Node43&#45;&gt;Node32</title>
<path fill="none" stroke="midnightblue" d="M779.11,-448.22C909.96,-434.07 1196.62,-403.43 1438.55,-380 1602.42,-364.13 1793.3,-347.37 1905.41,-337.71"/>
<polygon fill="midnightblue" stroke="midnightblue" points="1906.01,-341.17 1915.67,-336.82 1905.41,-334.19 1906.01,-341.17"/>
</g>
<!-- Node43&#45;&gt;Node36 -->
<g id="edge126" class="edge">
<title>Node43&#45;&gt;Node36</title>
<path fill="none" stroke="midnightblue" d="M749.75,-447.4C866.95,-423.53 1194.54,-356.8 1297.31,-335.87"/>
<polygon fill="midnightblue" stroke="midnightblue" points="1298.25,-339.24 1307.35,-333.82 1296.86,-332.39 1298.25,-339.24"/>
</g>
<!-- Node44 -->
<g id="node39" class="node">
<title>Node44</title>
<g id="a_node39"><a xlink:title=" ">
<polygon fill="none" stroke="#bfbfbf" points="235.55,-386 235.55,-405 341.55,-405 341.55,-386 235.55,-386"/>
<text text-anchor="middle" x="288.55" y="-393" font-family="Helvetica,sans-Serif" font-size="10.00">thrust/functional.h</text>
</a>
</g>
</g>
<!-- Node43&#45;&gt;Node44 -->
<g id="edge115" class="edge">
<title>Node43&#45;&gt;Node44</title>
<path fill="none" stroke="midnightblue" d="M635.76,-449.18C563.43,-441.78 448.78,-428.63 350.55,-411 344.63,-409.94 338.42,-408.67 332.31,-407.33"/>
<polygon fill="midnightblue" stroke="midnightblue" points="332.73,-403.84 322.21,-405.04 331.19,-410.67 332.73,-403.84"/>
</g>
<!-- Node45 -->
<g id="node40" class="node">
<title>Node45</title>
<g id="a_node40"><a xlink:title=" ">
<polygon fill="none" stroke="#bfbfbf" points="359.55,-386 359.55,-405 449.55,-405 449.55,-386 359.55,-386"/>
<text text-anchor="middle" x="404.55" y="-393" font-family="Helvetica,sans-Serif" font-size="10.00">thrust/reduce.h</text>
</a>
</g>
</g>
<!-- Node43&#45;&gt;Node45 -->
<g id="edge116" class="edge">
<title>Node43&#45;&gt;Node45</title>
<path fill="none" stroke="midnightblue" d="M652.89,-447.47C602.26,-439.25 524.99,-425.9 458.55,-411 453.89,-409.95 449.01,-408.77 444.19,-407.55"/>
<polygon fill="midnightblue" stroke="midnightblue" points="444.99,-404.14 434.43,-405 443.23,-410.91 444.99,-404.14"/>
</g>
<!-- Node46 -->
<g id="node41" class="node">
<title>Node46</title>
<g id="a_node41"><a xlink:title=" ">
<polygon fill="none" stroke="#bfbfbf" points="468.05,-386 468.05,-405 593.05,-405 593.05,-386 468.05,-386"/>
<text text-anchor="middle" x="530.55" y="-393" font-family="Helvetica,sans-Serif" font-size="10.00">thrust/device_vector.h</text>
</a>
</g>
</g>
<!-- Node43&#45;&gt;Node46 -->
<g id="edge117" class="edge">
<title>Node43&#45;&gt;Node46</title>
<path fill="none" stroke="midnightblue" d="M682.19,-447.48C651.57,-437.18 599.9,-419.81 565.51,-408.25"/>
<polygon fill="midnightblue" stroke="midnightblue" points="566.46,-404.88 555.87,-405.01 564.23,-411.51 566.46,-404.88"/>
</g>
<!-- Node47 -->
<g id="node42" class="node">
<title>Node47</title>
<g id="a_node42"><a xlink:title=" ">
<polygon fill="none" stroke="#bfbfbf" points="611.05,-386 611.05,-405 690.05,-405 690.05,-386 611.05,-386"/>
<text text-anchor="middle" x="650.55" y="-393" font-family="Helvetica,sans-Serif" font-size="10.00">thrust/copy.h</text>
</a>
</g>
</g>
<!-- Node43&#45;&gt;Node47 -->
<g id="edge118" class="edge">
<title>Node43&#45;&gt;Node47</title>
<path fill="none" stroke="midnightblue" d="M699.39,-447.48C690.67,-438.37 676.65,-423.74 665.87,-412.48"/>
<polygon fill="midnightblue" stroke="midnightblue" points="668.15,-409.81 658.71,-405.01 663.1,-414.65 668.15,-409.81"/>
</g>
<!-- Node48 -->
<g id="node43" class="node">
<title>Node48</title>
<g id="a_node43"><a xlink:title=" ">
<polygon fill="none" stroke="#bfbfbf" points="708.05,-386 708.05,-405 821.05,-405 821.05,-386 708.05,-386"/>
<text text-anchor="middle" x="764.55" y="-393" font-family="Helvetica,sans-Serif" font-size="10.00">thrust/host_vector.h</text>
</a>
</g>
</g>
<!-- Node43&#45;&gt;Node48 -->
<g id="edge119" class="edge">
<title>Node43&#45;&gt;Node48</title>
<path fill="none" stroke="midnightblue" d="M715.72,-447.48C724.44,-438.37 738.46,-423.74 749.24,-412.48"/>
<polygon fill="midnightblue" stroke="midnightblue" points="752.01,-414.65 756.4,-405.01 746.96,-409.81 752.01,-414.65"/>
</g>
<!-- Node49 -->
<g id="node44" class="node">
<title>Node49</title>
<g id="a_node44"><a xlink:title=" ">
<polygon fill="none" stroke="#bfbfbf" points="36.05,-380.5 36.05,-410.5 179.05,-410.5 179.05,-380.5 36.05,-380.5"/>
<text text-anchor="start" x="44.05" y="-398.5" font-family="Helvetica,sans-Serif" font-size="10.00">polyfem/assembler/CUDA</text>
<text text-anchor="middle" x="107.55" y="-387.5" font-family="Helvetica,sans-Serif" font-size="10.00">_utilities.cuh</text>
</a>
</g>
</g>
<!-- Node43&#45;&gt;Node49 -->
<g id="edge120" class="edge">
<title>Node43&#45;&gt;Node49</title>
<path fill="none" stroke="midnightblue" d="M635.85,-451.53C536.33,-444.92 350.83,-431.11 193.55,-411 192.24,-410.83 190.92,-410.66 189.6,-410.48"/>
<polygon fill="midnightblue" stroke="midnightblue" points="189.68,-406.96 179.29,-409.03 188.7,-413.89 189.68,-406.96"/>
</g>
<!-- Node50&#45;&gt;Node5 -->
<g id="edge128" class="edge">
<title>Node50&#45;&gt;Node5</title>
<path fill="none" stroke="midnightblue" d="M1154.78,-503.47C1156.68,-490.94 1160.75,-466.89 1166.55,-447 1187.14,-376.42 1200.77,-351.25 1263.55,-313 1439.31,-205.92 1683.43,-162.84 1803.68,-147.29"/>
<polygon fill="midnightblue" stroke="midnightblue" points="1804.39,-150.73 1813.87,-146 1803.51,-143.79 1804.39,-150.73"/>
</g>
<!-- Node50&#45;&gt;Node10 -->
<g id="edge132" class="edge">
<title>Node50&#45;&gt;Node10</title>
<path fill="none" stroke="midnightblue" d="M1199.79,-511.16C1373.31,-507.83 1985.55,-494.37 2178.55,-467 2283.15,-452.17 2343.23,-493.23 2409.55,-411 2422.34,-395.14 2421.38,-371.35 2418.09,-353.56"/>
<polygon fill="midnightblue" stroke="midnightblue" points="2421.47,-352.65 2415.91,-343.64 2414.64,-354.15 2421.47,-352.65"/>
</g>
<!-- Node50&#45;&gt;Node13 -->
<g id="edge136" class="edge">
<title>Node50&#45;&gt;Node13</title>
<path fill="none" stroke="midnightblue" d="M1134.41,-503.44C1116.85,-495.2 1090.47,-481.84 1069.55,-467 999.71,-417.45 785.55,-292.14 785.55,-206.5 785.55,-206.5 785.55,-206.5 785.55,-137.5 785.55,-8.32 937.07,-76.86 1064.55,-56 1275.04,-21.55 1947.07,-13.09 2133.94,-11.38"/>
<polygon fill="midnightblue" stroke="midnightblue" points="2134.04,-14.88 2144.01,-11.29 2133.98,-7.88 2134.04,-14.88"/>
</g>
<!-- Node50&#45;&gt;Node15 -->
<g id="edge135" class="edge">
<title>Node50&#45;&gt;Node15</title>
<path fill="none" stroke="midnightblue" d="M1140.46,-503.31C1099.36,-474.88 975.55,-379.95 975.55,-268 975.55,-268 975.55,-268 975.55,-204.5 975.55,-102.67 1320.3,-79.4 1477.76,-74.08"/>
<polygon fill="midnightblue" stroke="midnightblue" points="1477.97,-77.57 1487.85,-73.75 1477.75,-70.57 1477.97,-77.57"/>
</g>
<!-- Node50&#45;&gt;Node19 -->
<g id="edge133" class="edge">
<title>Node50&#45;&gt;Node19</title>
<path fill="none" stroke="midnightblue" d="M1156.1,-503.12C1165.95,-470.66 1204.88,-357.98 1282.55,-313 1337.34,-281.28 1740.82,-271.78 1931.83,-269.05"/>
<polygon fill="midnightblue" stroke="midnightblue" points="1931.93,-272.55 1941.88,-268.91 1931.83,-265.55 1931.93,-272.55"/>
</g>
<!-- Node50&#45;&gt;Node30 -->
<g id="edge129" class="edge">
<title>Node50&#45;&gt;Node30</title>
<path fill="none" stroke="midnightblue" d="M1199.78,-511.15C1255,-508.6 1349.11,-499.37 1422.55,-467 1449.17,-455.27 1474.81,-433.86 1491.87,-417.71"/>
<polygon fill="midnightblue" stroke="midnightblue" points="1494.34,-420.18 1499.07,-410.71 1489.46,-415.16 1494.34,-420.18"/>
</g>
<!-- Node50&#45;&gt;Node32 -->
<g id="edge134" class="edge">
<title>Node50&#45;&gt;Node32</title>
<path fill="none" stroke="midnightblue" d="M1199.59,-511.39C1353.87,-509.06 1846.44,-499.16 1909.55,-467 1957.86,-442.39 1984.94,-379.32 1995.84,-347.89"/>
<polygon fill="midnightblue" stroke="midnightblue" points="1999.23,-348.79 1999.03,-338.2 1992.58,-346.61 1999.23,-348.79"/>
</g>
<!-- Node50&#45;&gt;Node36 -->
<g id="edge137" class="edge">
<title>Node50&#45;&gt;Node36</title>
<path fill="none" stroke="midnightblue" d="M1161.99,-503.2C1189.54,-474.47 1277.11,-383.15 1312.99,-345.73"/>
<polygon fill="midnightblue" stroke="midnightblue" points="1315.8,-347.85 1320.2,-338.21 1310.75,-343.01 1315.8,-347.85"/>
</g>
<!-- Node50&#45;&gt;Node40 -->
<g id="edge130" class="edge">
<title>Node50&#45;&gt;Node40</title>
<path fill="none" stroke="midnightblue" d="M1199.95,-507.26C1293.92,-497.64 1507.03,-475.85 1615.49,-464.76"/>
<polygon fill="midnightblue" stroke="midnightblue" points="1616.06,-468.22 1625.65,-463.72 1615.34,-461.25 1616.06,-468.22"/>
</g>
<!-- Node50&#45;&gt;Node43 -->
<g id="edge131" class="edge">
<title>Node50&#45;&gt;Node43</title>
<path fill="none" stroke="midnightblue" d="M1107.5,-506.42C1032.13,-497.3 881.49,-479.06 788.12,-467.75"/>
<polygon fill="midnightblue" stroke="midnightblue" points="788.5,-464.28 778.15,-466.55 787.66,-471.22 788.5,-464.28"/>
</g>
<!-- Node51&#45;&gt;Node5 -->
<g id="edge139" class="edge">
<title>Node51&#45;&gt;Node5</title>
<path fill="none" stroke="midnightblue" d="M2644.51,-385.87C2624.04,-368.82 2575.4,-330.91 2527.55,-313 2424.48,-274.41 2390.73,-297.28 2282.55,-277 2172.77,-256.42 2142.61,-258.95 2037.55,-221 1986.24,-202.46 1930.23,-171.43 1899.67,-153.48"/>
<polygon fill="midnightblue" stroke="midnightblue" points="1901.06,-150.24 1890.67,-148.15 1897.49,-156.26 1901.06,-150.24"/>
</g>
<!-- Node51&#45;&gt;Node10 -->
<g id="edge140" class="edge">
<title>Node51&#45;&gt;Node10</title>
<path fill="none" stroke="midnightblue" d="M2629.52,-385.91C2623.34,-383.89 2616.73,-381.8 2610.55,-380 2567.99,-367.6 2519.81,-355.33 2481.51,-345.99"/>
<polygon fill="midnightblue" stroke="midnightblue" points="2482.04,-342.51 2471.5,-343.56 2480.39,-349.32 2482.04,-342.51"/>
</g>
<!-- Node51&#45;&gt;Node13 -->
<g id="edge143" class="edge">
<title>Node51&#45;&gt;Node13</title>
<path fill="none" stroke="midnightblue" d="M2654.99,-386C2656.76,-341.32 2658.36,-132.87 2539.55,-56 2483.89,-19.99 2313.67,-29.48 2231.35,-19.85"/>
<polygon fill="midnightblue" stroke="midnightblue" points="2231.66,-16.36 2221.29,-18.5 2230.73,-23.3 2231.66,-16.36"/>
</g>
<!-- Node51&#45;&gt;Node16 -->
<g id="edge144" class="edge">
<title>Node51&#45;&gt;Node16</title>
<path fill="none" stroke="midnightblue" d="M2651.54,-385.69C2638.98,-349.86 2587.84,-212.68 2511.55,-123 2499.24,-108.53 2482.09,-95.69 2468.22,-86.59"/>
<polygon fill="midnightblue" stroke="midnightblue" points="2469.98,-83.56 2459.66,-81.16 2466.23,-89.47 2469.98,-83.56"/>
</g>
<!-- Node51&#45;&gt;Node19 -->
<g id="edge141" class="edge">
<title>Node51&#45;&gt;Node19</title>
<path fill="none" stroke="midnightblue" d="M2642.24,-385.98C2616.64,-368.78 2555.28,-330.07 2497.55,-313 2463.4,-302.9 2257.62,-285.54 2131.2,-275.59"/>
<polygon fill="midnightblue" stroke="midnightblue" points="2131.35,-272.09 2121.11,-274.8 2130.8,-279.07 2131.35,-272.09"/>
</g>
<!-- Node51&#45;&gt;Node32 -->
<g id="edge142" class="edge">
<title>Node51&#45;&gt;Node32</title>
<path fill="none" stroke="midnightblue" d="M2631.99,-385.94C2625.19,-383.66 2617.65,-381.44 2610.55,-380 2515.18,-360.61 2243.71,-343.08 2097.54,-334.7"/>
<polygon fill="midnightblue" stroke="midnightblue" points="2097.42,-331.18 2087.23,-334.11 2097.02,-338.17 2097.42,-331.18"/>
</g>
<!-- Node52&#45;&gt;Node5 -->
<g id="edge146" class="edge">
<title>Node52&#45;&gt;Node5</title>
<path fill="none" stroke="midnightblue" d="M2206.65,-385.88C2186.92,-369.18 2140.71,-332.36 2095.55,-313 2027.37,-283.76 1989.26,-324.83 1932.55,-277 1896.04,-246.2 1883.05,-187.94 1878.65,-158.11"/>
<polygon fill="midnightblue" stroke="midnightblue" points="1882.12,-157.65 1877.36,-148.19 1875.18,-158.56 1882.12,-157.65"/>
</g>
<!-- Node52&#45;&gt;Node10 -->
<g id="edge147" class="edge">
<title>Node52&#45;&gt;Node10</title>
<path fill="none" stroke="midnightblue" d="M2242.45,-385.87C2272.22,-375.95 2321.83,-359.41 2359.64,-346.81"/>
<polygon fill="midnightblue" stroke="midnightblue" points="2361.09,-350.01 2369.47,-343.53 2358.88,-343.37 2361.09,-350.01"/>
</g>
<!-- Node52&#45;&gt;Node13 -->
<g id="edge150" class="edge">
<title>Node52&#45;&gt;Node13</title>
<path fill="none" stroke="midnightblue" d="M2229.34,-385.86C2243.73,-376.03 2267.68,-359.35 2287.55,-344 2304.53,-330.88 2305.54,-322.94 2324.55,-313 2378.44,-284.82 2411.94,-318.32 2456.55,-277 2529.24,-209.69 2550.52,-130.78 2485.55,-56 2449.85,-14.91 2302.45,-27.81 2231.58,-19.82"/>
<polygon fill="midnightblue" stroke="midnightblue" points="2231.68,-16.31 2221.3,-18.42 2230.73,-23.24 2231.68,-16.31"/>
</g>
<!-- Node52&#45;&gt;Node16 -->
<g id="edge151" class="edge">
<title>Node52&#45;&gt;Node16</title>
<path fill="none" stroke="midnightblue" d="M2221.98,-385.83C2232.95,-369.03 2259.48,-332.05 2291.55,-313 2348.27,-279.31 2393.82,-328.09 2435.55,-277 2480.05,-222.52 2461.12,-130.04 2450.24,-90.89"/>
<polygon fill="midnightblue" stroke="midnightblue" points="2453.56,-89.75 2447.39,-81.13 2446.84,-91.71 2453.56,-89.75"/>
</g>
<!-- Node52&#45;&gt;Node19 -->
<g id="edge148" class="edge">
<title>Node52&#45;&gt;Node19</title>
<path fill="none" stroke="midnightblue" d="M2213.73,-385.99C2207.81,-369.49 2192.57,-333 2167.55,-313 2146.73,-296.35 2119.49,-285.75 2094.86,-279.06"/>
<polygon fill="midnightblue" stroke="midnightblue" points="2095.41,-275.58 2084.85,-276.51 2093.68,-282.37 2095.41,-275.58"/>
</g>
<!-- Node52&#45;&gt;Node32 -->
<g id="edge149" class="edge">
<title>Node52&#45;&gt;Node32</title>
<path fill="none" stroke="midnightblue" d="M2188,-385.87C2149.83,-374.33 2082.05,-353.84 2039.58,-341"/>
<polygon fill="midnightblue" stroke="midnightblue" points="2040.46,-337.61 2029.88,-338.06 2038.44,-344.31 2040.46,-337.61"/>
</g>
<!-- Node53&#45;&gt;Node5 -->
<g id="edge153" class="edge">
<title>Node53&#45;&gt;Node5</title>
<path fill="none" stroke="midnightblue" d="M2019.23,-447.41C1990.37,-441.08 1958.64,-430.09 1934.55,-411 1856.06,-348.78 1866.78,-208.67 1873.6,-158.12"/>
<polygon fill="midnightblue" stroke="midnightblue" points="1877.09,-158.42 1875.08,-148.02 1870.17,-157.41 1877.09,-158.42"/>
</g>
<!-- Node53&#45;&gt;Node10 -->
<g id="edge155" class="edge">
<title>Node53&#45;&gt;Node10</title>
<path fill="none" stroke="midnightblue" d="M2169.68,-453.2C2244.91,-448.89 2353.94,-438.04 2385.55,-411 2402.06,-396.88 2408.19,-372.28 2410.42,-353.79"/>
<polygon fill="midnightblue" stroke="midnightblue" points="2413.91,-354.01 2411.32,-343.74 2406.94,-353.39 2413.91,-354.01"/>
</g>
<!-- Node53&#45;&gt;Node13 -->
<g id="edge158" class="edge">
<title>Node53&#45;&gt;Node13</title>
<path fill="none" stroke="midnightblue" d="M2096.63,-447.45C2100.47,-432.75 2109.68,-402.14 2124.55,-380 2174.19,-306.13 2204.04,-298.9 2282.55,-257 2317.67,-238.26 2342.79,-254.32 2364.55,-221 2418,-139.16 2272.86,-55.33 2209.98,-23.92"/>
<polygon fill="midnightblue" stroke="midnightblue" points="2211.51,-20.77 2200.99,-19.5 2208.42,-27.05 2211.51,-20.77"/>
</g>
<!-- Node53&#45;&gt;Node16 -->
<g id="edge159" class="edge">
<title>Node53&#45;&gt;Node16</title>
<path fill="none" stroke="midnightblue" d="M2100.4,-447.38C2110.68,-432.58 2133.14,-401.83 2156.55,-380 2194.34,-344.77 2205.32,-336.06 2251.55,-313 2298.34,-289.66 2322.51,-309.39 2363.55,-277 2423.29,-229.86 2439.11,-132.2 2443.18,-91.23"/>
<polygon fill="midnightblue" stroke="midnightblue" points="2446.67,-91.54 2444.05,-81.27 2439.7,-90.93 2446.67,-91.54"/>
</g>
<!-- Node53&#45;&gt;Node19 -->
<g id="edge156" class="edge">
<title>Node53&#45;&gt;Node19</title>
<path fill="none" stroke="midnightblue" d="M2061.76,-447.4C2017.37,-433.8 1939.87,-402.63 1906.55,-344 1899.75,-332.02 1898.63,-324.27 1906.55,-313 1918.01,-296.7 1935.98,-286.27 1954.75,-279.61"/>
<polygon fill="midnightblue" stroke="midnightblue" points="1955.85,-282.94 1964.3,-276.55 1953.71,-276.27 1955.85,-282.94"/>
</g>
<!-- Node53&#45;&gt;Node30 -->
<g id="edge154" class="edge">
<title>Node53&#45;&gt;Node30</title>
<path fill="none" stroke="midnightblue" d="M2019.36,-448.31C1907.62,-436.89 1698.94,-415.56 1587.4,-404.15"/>
<polygon fill="midnightblue" stroke="midnightblue" points="1587.55,-400.65 1577.24,-403.11 1586.83,-407.61 1587.55,-400.65"/>
</g>
<!-- Node53&#45;&gt;Node32 -->
<g id="edge157" class="edge">
<title>Node53&#45;&gt;Node32</title>
<path fill="none" stroke="midnightblue" d="M2088.16,-447.31C2072.9,-426.54 2034.1,-373.77 2014.02,-346.46"/>
<polygon fill="midnightblue" stroke="midnightblue" points="2016.73,-344.24 2007.99,-338.26 2011.09,-348.39 2016.73,-344.24"/>
</g>
<!-- Node54&#45;&gt;Node17 -->
<g id="edge165" class="edge">
<title>Node54&#45;&gt;Node17</title>
<path fill="none" stroke="midnightblue" d="M3887.61,-385.85C3891.73,-347.64 3902.7,-192.72 3819.55,-123 3764.53,-76.86 3540.32,-72.26 3454.34,-72.24"/>
<polygon fill="midnightblue" stroke="midnightblue" points="3454.08,-68.74 3444.09,-72.26 3454.09,-75.74 3454.08,-68.74"/>
</g>
<!-- Node54&#45;&gt;Node18 -->
<g id="edge166" class="edge">
<title>Node54&#45;&gt;Node18</title>
<path fill="none" stroke="midnightblue" d="M3885.32,-385.95C3882.65,-370 3875,-335.31 3856.55,-313 3786.43,-228.14 3663.33,-174.15 3603.36,-151.6"/>
<polygon fill="midnightblue" stroke="midnightblue" points="3604.2,-148.18 3593.61,-148.01 3601.78,-154.75 3604.2,-148.18"/>
</g>
<!-- Node54&#45;&gt;Node36 -->
<g id="edge164" class="edge">
<title>Node54&#45;&gt;Node36</title>
<path fill="none" stroke="midnightblue" d="M3795.51,-392.19C3373.48,-381.46 1617.13,-336.83 1360.02,-330.3"/>
<polygon fill="midnightblue" stroke="midnightblue" points="1359.97,-326.8 1349.88,-330.04 1359.79,-333.79 1359.97,-326.8"/>
</g>
<!-- Node55 -->
<g id="node50" class="node">
<title>Node55</title>
<g id="a_node50"><a xlink:title=" ">
<polygon fill="none" stroke="#bfbfbf" points="3795.55,-319 3795.55,-338 3847.55,-338 3847.55,-319 3795.55,-319"/>
<text text-anchor="middle" x="3821.55" y="-326" font-family="Helvetica,sans-Serif" font-size="10.00">cassert</text>
</a>
</g>
</g>
<!-- Node54&#45;&gt;Node55 -->
<g id="edge167" class="edge">
<title>Node54&#45;&gt;Node55</title>
<path fill="none" stroke="midnightblue" d="M3877.79,-385.73C3867.46,-375.4 3850.09,-358.04 3837.39,-345.33"/>
<polygon fill="midnightblue" stroke="midnightblue" points="3839.73,-342.72 3830.18,-338.13 3834.78,-347.67 3839.73,-342.72"/>
</g>
</g>
</svg>
