<?xml version="1.0" encoding="UTF-8" standalone="no"?>
<!DOCTYPE svg PUBLIC "-//W3C//DTD SVG 1.1//EN"
 "http://www.w3.org/Graphics/SVG/1.1/DTD/svg11.dtd">
<!-- Generated by graphviz version 2.43.0 (0)
 -->
<!-- Title: src/polyfem/assembler/MultiModel.hpp Pages: 1 -->
<svg width="1895pt" height="553pt"
 viewBox="0.00 0.00 1895.00 553.00" xmlns="http://www.w3.org/2000/svg" xmlns:xlink="http://www.w3.org/1999/xlink">
<g id="graph0" class="graph" transform="scale(1 1) rotate(0) translate(4 549)">
<title>src/polyfem/assembler/MultiModel.hpp</title>
<!-- Node1 -->
<g id="node1" class="node">
<title>Node1</title>
<g id="a_node1"><a xlink:title=" ">
<polygon fill="#bfbfbf" stroke="black" points="711,-514.5 711,-544.5 839,-544.5 839,-514.5 711,-514.5"/>
<text text-anchor="start" x="719" y="-532.5" font-family="Helvetica,sans-Serif" font-size="10.00">src/polyfem/assembler</text>
<text text-anchor="middle" x="775" y="-521.5" font-family="Helvetica,sans-Serif" font-size="10.00">/MultiModel.hpp</text>
</a>
</g>
</g>
<!-- Node2 -->
<g id="node2" class="node">
<title>Node2</title>
<g id="a_node2"><a xlink:href="_common_8hpp.html" target="_top" xlink:title=" ">
<polygon fill="none" stroke="black" points="89.5,-129 89.5,-148 214.5,-148 214.5,-129 89.5,-129"/>
<text text-anchor="middle" x="152" y="-136" font-family="Helvetica,sans-Serif" font-size="10.00">polyfem/Common.hpp</text>
</a>
</g>
</g>
<!-- Node1&#45;&gt;Node2 -->
<g id="edge1" class="edge">
<title>Node1&#45;&gt;Node2</title>
<path fill="none" stroke="midnightblue" d="M710.89,-524.7C531.58,-513.21 38,-475.41 38,-407.5 38,-407.5 38,-407.5 38,-271.5 38,-217.25 93.83,-174.28 127.35,-153.38"/>
<polygon fill="midnightblue" stroke="midnightblue" points="129.39,-156.23 136.15,-148.07 125.78,-150.24 129.39,-156.23"/>
</g>
<!-- Node5 -->
<g id="node5" class="node">
<title>Node5</title>
<g id="a_node5"><a xlink:href="_elasticity_utils_8hpp.html" target="_top" xlink:title=" ">
<polygon fill="none" stroke="black" points="584.5,-391.5 584.5,-421.5 713.5,-421.5 713.5,-391.5 584.5,-391.5"/>
<text text-anchor="start" x="592.5" y="-409.5" font-family="Helvetica,sans-Serif" font-size="10.00">polyfem/utils/Elasticity</text>
<text text-anchor="middle" x="649" y="-398.5" font-family="Helvetica,sans-Serif" font-size="10.00">Utils.hpp</text>
</a>
</g>
</g>
<!-- Node1&#45;&gt;Node5 -->
<g id="edge4" class="edge">
<title>Node1&#45;&gt;Node5</title>
<path fill="none" stroke="midnightblue" d="M760.05,-514.14C738.07,-493.04 696.89,-453.49 671.32,-428.94"/>
<polygon fill="midnightblue" stroke="midnightblue" points="673.57,-426.24 663.93,-421.84 668.72,-431.29 673.57,-426.24"/>
</g>
<!-- Node6 -->
<g id="node6" class="node">
<title>Node6</title>
<g id="a_node6"><a xlink:href="_element_assembly_values_8hpp.html" target="_top" xlink:title=" ">
<polygon fill="none" stroke="black" points="894.5,-324.5 894.5,-354.5 1049.5,-354.5 1049.5,-324.5 894.5,-324.5"/>
<text text-anchor="start" x="902.5" y="-342.5" font-family="Helvetica,sans-Serif" font-size="10.00">polyfem/assembler/Element</text>
<text text-anchor="middle" x="972" y="-331.5" font-family="Helvetica,sans-Serif" font-size="10.00">AssemblyValues.hpp</text>
</a>
</g>
</g>
<!-- Node1&#45;&gt;Node6 -->
<g id="edge75" class="edge">
<title>Node1&#45;&gt;Node6</title>
<path fill="none" stroke="midnightblue" d="M789.81,-514.37C824.19,-481.56 909.58,-400.07 950.05,-361.45"/>
<polygon fill="midnightblue" stroke="midnightblue" points="952.47,-363.97 957.29,-354.54 947.64,-358.91 952.47,-363.97"/>
</g>
<!-- Node9 -->
<g id="node9" class="node">
<title>Node9</title>
<g id="a_node9"><a xlink:title=" ">
<polygon fill="none" stroke="#bfbfbf" points="1132.5,-0.5 1132.5,-19.5 1209.5,-19.5 1209.5,-0.5 1132.5,-0.5"/>
<text text-anchor="middle" x="1171" y="-7.5" font-family="Helvetica,sans-Serif" font-size="10.00">Eigen/Dense</text>
</a>
</g>
</g>
<!-- Node1&#45;&gt;Node9 -->
<g id="edge79" class="edge">
<title>Node1&#45;&gt;Node9</title>
<path fill="none" stroke="midnightblue" d="M839.19,-528.3C1075.99,-526.74 1887,-513.64 1887,-407.5 1887,-407.5 1887,-407.5 1887,-137.5 1887,-68.93 1821.16,-77.35 1756,-56 1656.89,-23.52 1342.01,-14.21 1219.98,-11.78"/>
<polygon fill="midnightblue" stroke="midnightblue" points="1219.88,-8.28 1209.81,-11.59 1219.74,-15.28 1219.88,-8.28"/>
</g>
<!-- Node11 -->
<g id="node11" class="node">
<title>Node11</title>
<g id="a_node11"><a xlink:href="_types_8hpp.html" target="_top" xlink:title=" ">
<polygon fill="none" stroke="black" points="378.5,-62 378.5,-81 511.5,-81 511.5,-62 378.5,-62"/>
<text text-anchor="middle" x="445" y="-69" font-family="Helvetica,sans-Serif" font-size="10.00">polyfem/utils/Types.hpp</text>
</a>
</g>
</g>
<!-- Node1&#45;&gt;Node11 -->
<g id="edge78" class="edge">
<title>Node1&#45;&gt;Node11</title>
<path fill="none" stroke="midnightblue" d="M710.97,-526.51C572.05,-521.67 246.97,-507.51 141,-478 73.5,-459.21 0,-477.56 0,-407.5 0,-407.5 0,-407.5 0,-204.5 0,-153.74 34.66,-145.81 80,-123 105.21,-110.32 269.05,-91.13 368.46,-80.43"/>
<polygon fill="midnightblue" stroke="midnightblue" points="368.89,-83.9 378.46,-79.35 368.15,-76.94 368.89,-83.9"/>
</g>
<!-- Node15 -->
<g id="node15" class="node">
<title>Node15</title>
<g id="a_node15"><a xlink:href="_element_bases_8hpp.html" target="_top" xlink:title=" ">
<polygon fill="none" stroke="black" points="1013.5,-263 1013.5,-282 1192.5,-282 1192.5,-263 1013.5,-263"/>
<text text-anchor="middle" x="1103" y="-270" font-family="Helvetica,sans-Serif" font-size="10.00">polyfem/basis/ElementBases.hpp</text>
</a>
</g>
</g>
<!-- Node1&#45;&gt;Node15 -->
<g id="edge76" class="edge">
<title>Node1&#45;&gt;Node15</title>
<path fill="none" stroke="midnightblue" d="M810.04,-514.37C868.02,-489.54 984.86,-433.2 1059,-355 1076.67,-336.36 1089.42,-309.25 1096.51,-291.49"/>
<polygon fill="midnightblue" stroke="midnightblue" points="1099.83,-292.62 1100.11,-282.03 1093.28,-290.14 1099.83,-292.62"/>
</g>
<!-- Node24 -->
<g id="node24" class="node">
<title>Node24</title>
<g id="a_node24"><a xlink:href="_autodiff_types_8hpp.html" target="_top" xlink:title=" ">
<polygon fill="none" stroke="black" points="188.5,-330 188.5,-349 359.5,-349 359.5,-330 188.5,-330"/>
<text text-anchor="middle" x="274" y="-337" font-family="Helvetica,sans-Serif" font-size="10.00">polyfem/utils/AutodiffTypes.hpp</text>
</a>
</g>
</g>
<!-- Node1&#45;&gt;Node24 -->
<g id="edge77" class="edge">
<title>Node1&#45;&gt;Node24</title>
<path fill="none" stroke="midnightblue" d="M710.88,-524.54C624.67,-516.59 469.47,-492.81 359,-422 330.6,-403.8 303.5,-375.2 287.82,-357.17"/>
<polygon fill="midnightblue" stroke="midnightblue" points="290.23,-354.61 281.08,-349.26 284.9,-359.15 290.23,-354.61"/>
</g>
<!-- Node29 -->
<g id="node29" class="node">
<title>Node29</title>
<g id="a_node29"><a xlink:title=" ">
<polygon fill="none" stroke="#bfbfbf" points="796,-330 796,-349 838,-349 838,-330 796,-330"/>
<text text-anchor="middle" x="817" y="-337" font-family="Helvetica,sans-Serif" font-size="10.00">array</text>
</a>
</g>
</g>
<!-- Node1&#45;&gt;Node29 -->
<g id="edge80" class="edge">
<title>Node1&#45;&gt;Node29</title>
<path fill="none" stroke="midnightblue" d="M778.16,-514.37C785.63,-480.94 804.38,-396.97 812.8,-359.3"/>
<polygon fill="midnightblue" stroke="midnightblue" points="816.29,-359.73 815.06,-349.21 809.46,-358.2 816.29,-359.73"/>
</g>
<!-- Node30 -->
<g id="node30" class="node">
<title>Node30</title>
<g id="a_node30"><a xlink:href="_linear_elasticity_8hpp.html" target="_top" xlink:title=" ">
<polygon fill="none" stroke="black" points="509.5,-458.5 509.5,-477.5 620.5,-477.5 620.5,-458.5 509.5,-458.5"/>
<text text-anchor="middle" x="565" y="-465.5" font-family="Helvetica,sans-Serif" font-size="10.00">LinearElasticity.hpp</text>
</a>
</g>
</g>
<!-- Node1&#45;&gt;Node30 -->
<g id="edge52" class="edge">
<title>Node1&#45;&gt;Node30</title>
<path fill="none" stroke="midnightblue" d="M725.5,-514.47C688.64,-504.03 638.97,-489.96 604.69,-480.25"/>
<polygon fill="midnightblue" stroke="midnightblue" points="605.6,-476.87 595.02,-477.51 603.69,-483.6 605.6,-476.87"/>
</g>
<!-- Node31 -->
<g id="node31" class="node">
<title>Node31</title>
<g id="a_node31"><a xlink:href="_neo_hookean_elasticity_8hpp.html" target="_top" xlink:title=" ">
<polygon fill="none" stroke="black" points="1036.5,-458.5 1036.5,-477.5 1179.5,-477.5 1179.5,-458.5 1036.5,-458.5"/>
<text text-anchor="middle" x="1108" y="-465.5" font-family="Helvetica,sans-Serif" font-size="10.00">NeoHookeanElasticity.hpp</text>
</a>
</g>
</g>
<!-- Node1&#45;&gt;Node31 -->
<g id="edge60" class="edge">
<title>Node1&#45;&gt;Node31</title>
<path fill="none" stroke="midnightblue" d="M839.21,-517.03C900.4,-506.09 991.68,-489.78 1050.53,-479.27"/>
<polygon fill="midnightblue" stroke="midnightblue" points="1051.18,-482.71 1060.41,-477.5 1049.95,-475.82 1051.18,-482.71"/>
</g>
<!-- Node3 -->
<g id="node3" class="node">
<title>Node3</title>
<g id="a_node3"><a xlink:title=" ">
<polygon fill="none" stroke="#bfbfbf" points="259,-0.5 259,-19.5 339,-19.5 339,-0.5 259,-0.5"/>
<text text-anchor="middle" x="299" y="-7.5" font-family="Helvetica,sans-Serif" font-size="10.00">Eigen/Sparse</text>
</a>
</g>
</g>
<!-- Node2&#45;&gt;Node3 -->
<g id="edge2" class="edge">
<title>Node2&#45;&gt;Node3</title>
<path fill="none" stroke="midnightblue" d="M151.48,-128.66C151,-112.23 152.38,-76.77 171,-56 190.8,-33.92 222.09,-22.67 248.77,-16.94"/>
<polygon fill="midnightblue" stroke="midnightblue" points="249.59,-20.35 258.74,-15.01 248.26,-13.48 249.59,-20.35"/>
</g>
<!-- Node4 -->
<g id="node4" class="node">
<title>Node4</title>
<g id="a_node4"><a xlink:title=" ">
<polygon fill="none" stroke="#bfbfbf" points="180,-62 180,-81 290,-81 290,-62 180,-62"/>
<text text-anchor="middle" x="235" y="-69" font-family="Helvetica,sans-Serif" font-size="10.00">nlohmann/json.hpp</text>
</a>
</g>
</g>
<!-- Node2&#45;&gt;Node4 -->
<g id="edge3" class="edge">
<title>Node2&#45;&gt;Node4</title>
<path fill="none" stroke="midnightblue" d="M163.19,-128.73C176.63,-118.21 199.4,-100.38 215.7,-87.62"/>
<polygon fill="midnightblue" stroke="midnightblue" points="218.27,-90.05 223.98,-81.13 213.95,-84.54 218.27,-90.05"/>
</g>
<!-- Node5&#45;&gt;Node2 -->
<g id="edge5" class="edge">
<title>Node5&#45;&gt;Node2</title>
<path fill="none" stroke="midnightblue" d="M584.4,-401.98C532.59,-396.93 459.33,-384.69 402,-355 384.13,-345.74 387.1,-332.8 369,-324 273.59,-277.59 202.14,-368.48 133,-288 101.05,-250.8 126.51,-187.77 142.12,-157.19"/>
<polygon fill="midnightblue" stroke="midnightblue" points="145.32,-158.62 146.94,-148.15 139.14,-155.33 145.32,-158.62"/>
</g>
<!-- Node5&#45;&gt;Node6 -->
<g id="edge6" class="edge">
<title>Node5&#45;&gt;Node6</title>
<path fill="none" stroke="midnightblue" d="M713.59,-392.5C764.98,-382.16 837.14,-367.64 892.15,-356.57"/>
<polygon fill="midnightblue" stroke="midnightblue" points="893.1,-359.95 902.21,-354.54 891.72,-353.09 893.1,-359.95"/>
</g>
<!-- Node5&#45;&gt;Node9 -->
<g id="edge48" class="edge">
<title>Node5&#45;&gt;Node9</title>
<path fill="none" stroke="midnightblue" d="M643.33,-391.47C623.21,-339.16 561.1,-153.45 651,-56 682.57,-21.78 998.56,-13.5 1121.98,-11.57"/>
<polygon fill="midnightblue" stroke="midnightblue" points="1122.32,-15.06 1132.27,-11.41 1122.22,-8.06 1122.32,-15.06"/>
</g>
<!-- Node5&#45;&gt;Node11 -->
<g id="edge47" class="edge">
<title>Node5&#45;&gt;Node11</title>
<path fill="none" stroke="midnightblue" d="M634.01,-391.3C624.24,-381.61 611.58,-368.18 602,-355 534.37,-261.93 474.37,-136.73 453.15,-90.57"/>
<polygon fill="midnightblue" stroke="midnightblue" points="456.25,-88.92 448.91,-81.27 449.88,-91.82 456.25,-88.92"/>
</g>
<!-- Node12 -->
<g id="node12" class="node">
<title>Node12</title>
<g id="a_node12"><a xlink:title=" ">
<polygon fill="none" stroke="#bfbfbf" points="659.5,-62 659.5,-81 724.5,-81 724.5,-62 659.5,-62"/>
<text text-anchor="middle" x="692" y="-69" font-family="Helvetica,sans-Serif" font-size="10.00">functional</text>
</a>
</g>
</g>
<!-- Node5&#45;&gt;Node12 -->
<g id="edge51" class="edge">
<title>Node5&#45;&gt;Node12</title>
<path fill="none" stroke="midnightblue" d="M650.85,-391.19C657.72,-337.97 681.81,-151.45 689.57,-91.33"/>
<polygon fill="midnightblue" stroke="midnightblue" points="693.08,-91.43 690.89,-81.07 686.14,-90.54 693.08,-91.43"/>
</g>
<!-- Node13 -->
<g id="node13" class="node">
<title>Node13</title>
<g id="a_node13"><a xlink:title=" ">
<polygon fill="none" stroke="#bfbfbf" points="966.5,-62 966.5,-81 1013.5,-81 1013.5,-62 966.5,-62"/>
<text text-anchor="middle" x="990" y="-69" font-family="Helvetica,sans-Serif" font-size="10.00">vector</text>
</a>
</g>
</g>
<!-- Node5&#45;&gt;Node13 -->
<g id="edge49" class="edge">
<title>Node5&#45;&gt;Node13</title>
<path fill="none" stroke="midnightblue" d="M654.94,-391.43C674.9,-345.8 744.1,-200.39 846,-123 878.98,-97.95 925.38,-84.66 956.51,-78.11"/>
<polygon fill="midnightblue" stroke="midnightblue" points="957.31,-81.52 966.44,-76.14 955.95,-74.66 957.31,-81.52"/>
</g>
<!-- Node5&#45;&gt;Node15 -->
<g id="edge38" class="edge">
<title>Node5&#45;&gt;Node15</title>
<path fill="none" stroke="midnightblue" d="M665,-391.41C689.26,-370.36 734.57,-332.26 754,-324 833.35,-290.28 931,-278.37 1002.82,-274.49"/>
<polygon fill="midnightblue" stroke="midnightblue" points="1003.41,-277.97 1013.22,-273.97 1003.06,-270.97 1003.41,-277.97"/>
</g>
<!-- Node23 -->
<g id="node23" class="node">
<title>Node23</title>
<g id="a_node23"><a xlink:href="_expression_value_8hpp.html" target="_top" xlink:title=" ">
<polygon fill="none" stroke="black" points="142.5,-257.5 142.5,-287.5 279.5,-287.5 279.5,-257.5 142.5,-257.5"/>
<text text-anchor="start" x="150.5" y="-275.5" font-family="Helvetica,sans-Serif" font-size="10.00">polyfem/utils/Expression</text>
<text text-anchor="middle" x="211" y="-264.5" font-family="Helvetica,sans-Serif" font-size="10.00">Value.hpp</text>
</a>
</g>
</g>
<!-- Node5&#45;&gt;Node23 -->
<g id="edge39" class="edge">
<title>Node5&#45;&gt;Node23</title>
<path fill="none" stroke="midnightblue" d="M609.02,-391.48C560.37,-374.62 475.59,-345.85 402,-324 360.97,-311.82 314.57,-299.52 277.77,-290.1"/>
<polygon fill="midnightblue" stroke="midnightblue" points="278.22,-286.61 267.66,-287.53 276.49,-293.39 278.22,-286.61"/>
</g>
<!-- Node5&#45;&gt;Node24 -->
<g id="edge41" class="edge">
<title>Node5&#45;&gt;Node24</title>
<path fill="none" stroke="midnightblue" d="M584.11,-394.25C513.52,-382.02 401.66,-362.63 333.33,-350.78"/>
<polygon fill="midnightblue" stroke="midnightblue" points="333.62,-347.28 323.17,-349.02 332.42,-354.18 333.62,-347.28"/>
</g>
<!-- Node5&#45;&gt;Node29 -->
<g id="edge50" class="edge">
<title>Node5&#45;&gt;Node29</title>
<path fill="none" stroke="midnightblue" d="M685.45,-391.4C715.67,-379.71 758.12,-363.28 786.54,-352.28"/>
<polygon fill="midnightblue" stroke="midnightblue" points="787.91,-355.51 795.97,-348.64 785.38,-348.98 787.91,-355.51"/>
</g>
<!-- Node7 -->
<g id="node7" class="node">
<title>Node7</title>
<g id="a_node7"><a xlink:href="_assembly_values_8hpp.html" target="_top" xlink:title=" ">
<polygon fill="none" stroke="black" points="1536,-190.5 1536,-220.5 1698,-220.5 1698,-190.5 1536,-190.5"/>
<text text-anchor="start" x="1544" y="-208.5" font-family="Helvetica,sans-Serif" font-size="10.00">polyfem/assembler/Assembly</text>
<text text-anchor="middle" x="1617" y="-197.5" font-family="Helvetica,sans-Serif" font-size="10.00">Values.hpp</text>
</a>
</g>
</g>
<!-- Node6&#45;&gt;Node7 -->
<g id="edge7" class="edge">
<title>Node6&#45;&gt;Node7</title>
<path fill="none" stroke="midnightblue" d="M1040.42,-324.5C1161,-299.82 1410.65,-248.73 1538.22,-222.62"/>
<polygon fill="midnightblue" stroke="midnightblue" points="1539.22,-225.99 1548.32,-220.56 1537.82,-219.13 1539.22,-225.99"/>
</g>
<!-- Node6&#45;&gt;Node13 -->
<g id="edge37" class="edge">
<title>Node6&#45;&gt;Node13</title>
<path fill="none" stroke="midnightblue" d="M954.7,-324.46C913.19,-289.06 814.86,-193.95 863,-123 883.74,-92.44 926.2,-80.37 956.31,-75.61"/>
<polygon fill="midnightblue" stroke="midnightblue" points="956.97,-79.05 966.39,-74.21 956.01,-72.12 956.97,-79.05"/>
</g>
<!-- Node6&#45;&gt;Node15 -->
<g id="edge20" class="edge">
<title>Node6&#45;&gt;Node15</title>
<path fill="none" stroke="midnightblue" d="M1000.43,-324.4C1023.11,-313.14 1054.63,-297.5 1076.72,-286.54"/>
<polygon fill="midnightblue" stroke="midnightblue" points="1078.45,-289.59 1085.86,-282.01 1075.34,-283.32 1078.45,-289.59"/>
</g>
<!-- Node8 -->
<g id="node8" class="node">
<title>Node8</title>
<g id="a_node8"><a xlink:href="_quadrature_8hpp.html" target="_top" xlink:title=" ">
<polygon fill="none" stroke="black" points="1513.5,-56.5 1513.5,-86.5 1626.5,-86.5 1626.5,-56.5 1513.5,-56.5"/>
<text text-anchor="start" x="1521.5" y="-74.5" font-family="Helvetica,sans-Serif" font-size="10.00">polyfem/quadrature</text>
<text text-anchor="middle" x="1570" y="-63.5" font-family="Helvetica,sans-Serif" font-size="10.00">/Quadrature.hpp</text>
</a>
</g>
</g>
<!-- Node7&#45;&gt;Node8 -->
<g id="edge8" class="edge">
<title>Node7&#45;&gt;Node8</title>
<path fill="none" stroke="midnightblue" d="M1616.86,-190.45C1616.26,-173.8 1613.88,-145.48 1605,-123 1601.1,-113.13 1594.95,-103.31 1588.89,-94.99"/>
<polygon fill="midnightblue" stroke="midnightblue" points="1591.56,-92.72 1582.69,-86.92 1586,-96.98 1591.56,-92.72"/>
</g>
<!-- Node7&#45;&gt;Node9 -->
<g id="edge18" class="edge">
<title>Node7&#45;&gt;Node9</title>
<path fill="none" stroke="midnightblue" d="M1625.29,-190.07C1640.91,-160.73 1670.24,-93.72 1636,-56 1608.41,-25.61 1333.7,-15.14 1219.94,-12.09"/>
<polygon fill="midnightblue" stroke="midnightblue" points="1219.85,-8.59 1209.77,-11.83 1219.67,-15.59 1219.85,-8.59"/>
</g>
<!-- Node10 -->
<g id="node10" class="node">
<title>Node10</title>
<g id="a_node10"><a xlink:href="_basis_8hpp.html" target="_top" xlink:title=" ">
<polygon fill="none" stroke="black" points="1156,-129 1156,-148 1292,-148 1292,-129 1156,-129"/>
<text text-anchor="middle" x="1224" y="-136" font-family="Helvetica,sans-Serif" font-size="10.00">polyfem/basis/Basis.hpp</text>
</a>
</g>
</g>
<!-- Node7&#45;&gt;Node10 -->
<g id="edge10" class="edge">
<title>Node7&#45;&gt;Node10</title>
<path fill="none" stroke="midnightblue" d="M1535.57,-191.03C1461.26,-178.74 1353.04,-160.84 1285.67,-149.7"/>
<polygon fill="midnightblue" stroke="midnightblue" points="1286.06,-146.22 1275.63,-148.04 1284.92,-153.12 1286.06,-146.22"/>
</g>
<!-- Node14 -->
<g id="node14" class="node">
<title>Node14</title>
<g id="a_node14"><a xlink:title=" ">
<polygon fill="none" stroke="#bfbfbf" points="1536,-129 1536,-148 1596,-148 1596,-129 1536,-129"/>
<text text-anchor="middle" x="1566" y="-136" font-family="Helvetica,sans-Serif" font-size="10.00">iostream</text>
</a>
</g>
</g>
<!-- Node7&#45;&gt;Node14 -->
<g id="edge19" class="edge">
<title>Node7&#45;&gt;Node14</title>
<path fill="none" stroke="midnightblue" d="M1605.93,-190.4C1598.06,-180.36 1587.45,-166.84 1579.15,-156.25"/>
<polygon fill="midnightblue" stroke="midnightblue" points="1581.75,-153.9 1572.82,-148.19 1576.24,-158.22 1581.75,-153.9"/>
</g>
<!-- Node8&#45;&gt;Node9 -->
<g id="edge9" class="edge">
<title>Node8&#45;&gt;Node9</title>
<path fill="none" stroke="midnightblue" d="M1513.18,-57.71C1510.08,-57.11 1507,-56.53 1504,-56 1403.4,-38.18 1284.6,-23.68 1219.58,-16.3"/>
<polygon fill="midnightblue" stroke="midnightblue" points="1219.95,-12.82 1209.62,-15.18 1219.16,-19.78 1219.95,-12.82"/>
</g>
<!-- Node10&#45;&gt;Node8 -->
<g id="edge11" class="edge">
<title>Node10&#45;&gt;Node8</title>
<path fill="none" stroke="midnightblue" d="M1274.44,-128.99C1328.5,-119.75 1417.08,-104.21 1503.2,-87.12"/>
<polygon fill="midnightblue" stroke="midnightblue" points="1504.02,-90.52 1513.15,-85.13 1502.66,-83.66 1504.02,-90.52"/>
</g>
<!-- Node10&#45;&gt;Node9 -->
<g id="edge15" class="edge">
<title>Node10&#45;&gt;Node9</title>
<path fill="none" stroke="midnightblue" d="M1216.98,-128.7C1209.56,-119.01 1197.97,-102.7 1191,-87 1182.71,-68.34 1177.28,-45.52 1174.19,-29.78"/>
<polygon fill="midnightblue" stroke="midnightblue" points="1177.6,-28.95 1172.36,-19.74 1170.71,-30.2 1177.6,-28.95"/>
</g>
<!-- Node10&#45;&gt;Node11 -->
<g id="edge12" class="edge">
<title>Node10&#45;&gt;Node11</title>
<path fill="none" stroke="midnightblue" d="M1161.1,-129C1144.2,-126.87 1125.92,-124.71 1109,-123 996.98,-111.69 671.05,-88.35 521.55,-77.84"/>
<polygon fill="midnightblue" stroke="midnightblue" points="521.75,-74.35 511.53,-77.14 521.26,-81.33 521.75,-74.35"/>
</g>
<!-- Node10&#45;&gt;Node12 -->
<g id="edge16" class="edge">
<title>Node10&#45;&gt;Node12</title>
<path fill="none" stroke="midnightblue" d="M1156.81,-128.97C1141.12,-127 1124.48,-124.91 1109,-123 972.31,-106.11 810.34,-86.65 734.79,-77.61"/>
<polygon fill="midnightblue" stroke="midnightblue" points="735.06,-74.12 724.71,-76.41 734.23,-81.07 735.06,-74.12"/>
</g>
<!-- Node10&#45;&gt;Node13 -->
<g id="edge17" class="edge">
<title>Node10&#45;&gt;Node13</title>
<path fill="none" stroke="midnightblue" d="M1181.44,-128.98C1140.34,-120.25 1076.61,-105.37 1023,-87 1021.14,-86.36 1019.23,-85.66 1017.32,-84.92"/>
<polygon fill="midnightblue" stroke="midnightblue" points="1018.52,-81.63 1007.94,-81.03 1015.84,-88.09 1018.52,-81.63"/>
</g>
<!-- Node11&#45;&gt;Node3 -->
<g id="edge14" class="edge">
<title>Node11&#45;&gt;Node3</title>
<path fill="none" stroke="midnightblue" d="M424.08,-61.98C399.25,-51.86 357.66,-34.9 329.31,-23.35"/>
<polygon fill="midnightblue" stroke="midnightblue" points="330.46,-20.04 319.88,-19.51 327.82,-26.52 330.46,-20.04"/>
</g>
<!-- Node11&#45;&gt;Node9 -->
<g id="edge13" class="edge">
<title>Node11&#45;&gt;Node9</title>
<path fill="none" stroke="midnightblue" d="M487.75,-61.96C500.05,-59.74 513.52,-57.55 526,-56 747.55,-28.52 1014.14,-16.58 1122.08,-12.62"/>
<polygon fill="midnightblue" stroke="midnightblue" points="1122.46,-16.11 1132.33,-12.25 1122.21,-9.11 1122.46,-16.11"/>
</g>
<!-- Node15&#45;&gt;Node7 -->
<g id="edge35" class="edge">
<title>Node15&#45;&gt;Node7</title>
<path fill="none" stroke="midnightblue" d="M1179.93,-262.96C1264.05,-253.46 1402.76,-237.28 1522,-221 1523.28,-220.83 1524.57,-220.65 1525.86,-220.47"/>
<polygon fill="midnightblue" stroke="midnightblue" points="1526.51,-223.91 1535.92,-219.05 1525.53,-216.98 1526.51,-223.91"/>
</g>
<!-- Node15&#45;&gt;Node8 -->
<g id="edge22" class="edge">
<title>Node15&#45;&gt;Node8</title>
<path fill="none" stroke="midnightblue" d="M1160.91,-262.99C1239.73,-249.46 1383.08,-217.78 1489,-154 1502.79,-145.7 1531.38,-115.47 1550.64,-94.27"/>
<polygon fill="midnightblue" stroke="midnightblue" points="1553.41,-96.42 1557.51,-86.65 1548.21,-91.73 1553.41,-96.42"/>
</g>
<!-- Node15&#45;&gt;Node10 -->
<g id="edge21" class="edge">
<title>Node15&#45;&gt;Node10</title>
<path fill="none" stroke="midnightblue" d="M1110.94,-262.84C1130.94,-241.02 1183.64,-183.53 1209.4,-155.42"/>
<polygon fill="midnightblue" stroke="midnightblue" points="1212.01,-157.76 1216.19,-148.02 1206.85,-153.03 1212.01,-157.76"/>
</g>
<!-- Node15&#45;&gt;Node13 -->
<g id="edge36" class="edge">
<title>Node15&#45;&gt;Node13</title>
<path fill="none" stroke="midnightblue" d="M1106.55,-262.86C1115.97,-238.46 1138.88,-167.89 1109,-123 1086.04,-88.5 1061.08,-103.33 1023,-87 1021.63,-86.41 1020.24,-85.81 1018.83,-85.2"/>
<polygon fill="midnightblue" stroke="midnightblue" points="1020.08,-81.93 1009.52,-81.14 1017.29,-88.35 1020.08,-81.93"/>
</g>
<!-- Node16 -->
<g id="node16" class="node">
<title>Node16</title>
<g id="a_node16"><a xlink:href="_mesh_8hpp.html" target="_top" xlink:title=" ">
<polygon fill="none" stroke="black" points="914.5,-196 914.5,-215 1051.5,-215 1051.5,-196 914.5,-196"/>
<text text-anchor="middle" x="983" y="-203" font-family="Helvetica,sans-Serif" font-size="10.00">polyfem/mesh/Mesh.hpp</text>
</a>
</g>
</g>
<!-- Node15&#45;&gt;Node16 -->
<g id="edge23" class="edge">
<title>Node15&#45;&gt;Node16</title>
<path fill="none" stroke="midnightblue" d="M1086.82,-262.73C1066.57,-251.77 1031.7,-232.88 1008.01,-220.05"/>
<polygon fill="midnightblue" stroke="midnightblue" points="1009.39,-216.81 998.93,-215.13 1006.05,-222.97 1009.39,-216.81"/>
</g>
<!-- Node16&#45;&gt;Node2 -->
<g id="edge24" class="edge">
<title>Node16&#45;&gt;Node2</title>
<path fill="none" stroke="midnightblue" d="M914.29,-199.13C759.33,-187 383.8,-157.63 224.93,-145.2"/>
<polygon fill="midnightblue" stroke="midnightblue" points="225.02,-141.7 214.78,-144.41 224.48,-148.68 225.02,-141.7"/>
</g>
<!-- Node16&#45;&gt;Node9 -->
<g id="edge32" class="edge">
<title>Node16&#45;&gt;Node9</title>
<path fill="none" stroke="midnightblue" d="M929.78,-195.93C905.08,-189 877.94,-176.5 863,-154 855.38,-142.52 856.66,-135.23 863,-123 911.02,-30.37 1048.28,-12.98 1122.29,-10.56"/>
<polygon fill="midnightblue" stroke="midnightblue" points="1122.39,-14.06 1132.3,-10.32 1122.22,-7.06 1122.39,-14.06"/>
</g>
<!-- Node16&#45;&gt;Node11 -->
<g id="edge28" class="edge">
<title>Node16&#45;&gt;Node11</title>
<path fill="none" stroke="midnightblue" d="M951.34,-195.97C894.65,-180.77 772.03,-148.23 668,-123 608.46,-108.56 539.67,-93.18 494.41,-83.24"/>
<polygon fill="midnightblue" stroke="midnightblue" points="495.08,-79.8 484.56,-81.08 493.58,-86.64 495.08,-79.8"/>
</g>
<!-- Node17 -->
<g id="node17" class="node">
<title>Node17</title>
<g id="a_node17"><a xlink:href="_navigation_8hpp.html" target="_top" xlink:title=" ">
<polygon fill="none" stroke="black" points="1348.5,-123.5 1348.5,-153.5 1479.5,-153.5 1479.5,-123.5 1348.5,-123.5"/>
<text text-anchor="start" x="1356.5" y="-141.5" font-family="Helvetica,sans-Serif" font-size="10.00">polyfem/mesh/mesh2D</text>
<text text-anchor="middle" x="1414" y="-130.5" font-family="Helvetica,sans-Serif" font-size="10.00">/Navigation.hpp</text>
</a>
</g>
</g>
<!-- Node16&#45;&gt;Node17 -->
<g id="edge25" class="edge">
<title>Node16&#45;&gt;Node17</title>
<path fill="none" stroke="midnightblue" d="M1047.16,-195.98C1117.61,-186.46 1234.04,-170.24 1334,-154 1335.29,-153.79 1336.6,-153.58 1337.91,-153.36"/>
<polygon fill="midnightblue" stroke="midnightblue" points="1338.83,-156.75 1348.11,-151.64 1337.67,-149.85 1338.83,-156.75"/>
</g>
<!-- Node18 -->
<g id="node18" class="node">
<title>Node18</title>
<g id="a_node18"><a xlink:title=" ">
<polygon fill="none" stroke="#bfbfbf" points="1199.5,-62 1199.5,-81 1328.5,-81 1328.5,-62 1199.5,-62"/>
<text text-anchor="middle" x="1264" y="-69" font-family="Helvetica,sans-Serif" font-size="10.00">geogram/mesh/mesh.h</text>
</a>
</g>
</g>
<!-- Node16&#45;&gt;Node18 -->
<g id="edge33" class="edge">
<title>Node16&#45;&gt;Node18</title>
<path fill="none" stroke="midnightblue" d="M1051.71,-203.61C1135.42,-200.91 1269.6,-190.77 1301,-154 1317.71,-134.43 1297.31,-106.06 1280.82,-88.48"/>
<polygon fill="midnightblue" stroke="midnightblue" points="1283.19,-85.89 1273.67,-81.23 1278.2,-90.81 1283.19,-85.89"/>
</g>
<!-- Node20 -->
<g id="node20" class="node">
<title>Node20</title>
<g id="a_node20"><a xlink:href="_hash_utils_8hpp.html" target="_top" xlink:title=" ">
<polygon fill="none" stroke="black" points="948,-129 948,-148 1100,-148 1100,-129 948,-129"/>
<text text-anchor="middle" x="1024" y="-136" font-family="Helvetica,sans-Serif" font-size="10.00">polyfem/utils/HashUtils.hpp</text>
</a>
</g>
</g>
<!-- Node16&#45;&gt;Node20 -->
<g id="edge29" class="edge">
<title>Node16&#45;&gt;Node20</title>
<path fill="none" stroke="midnightblue" d="M988.53,-195.73C994.8,-185.79 1005.18,-169.34 1013.09,-156.79"/>
<polygon fill="midnightblue" stroke="midnightblue" points="1016.18,-158.45 1018.56,-148.13 1010.26,-154.72 1016.18,-158.45"/>
</g>
<!-- Node22 -->
<g id="node22" class="node">
<title>Node22</title>
<g id="a_node22"><a xlink:title=" ">
<polygon fill="none" stroke="#bfbfbf" points="872,-129 872,-148 930,-148 930,-129 872,-129"/>
<text text-anchor="middle" x="901" y="-136" font-family="Helvetica,sans-Serif" font-size="10.00">memory</text>
</a>
</g>
</g>
<!-- Node16&#45;&gt;Node22 -->
<g id="edge34" class="edge">
<title>Node16&#45;&gt;Node22</title>
<path fill="none" stroke="midnightblue" d="M971.94,-195.73C958.66,-185.21 936.17,-167.38 920.07,-154.62"/>
<polygon fill="midnightblue" stroke="midnightblue" points="921.89,-151.6 911.88,-148.13 917.55,-157.08 921.89,-151.6"/>
</g>
<!-- Node17&#45;&gt;Node18 -->
<g id="edge26" class="edge">
<title>Node17&#45;&gt;Node18</title>
<path fill="none" stroke="midnightblue" d="M1381.45,-123.4C1355.13,-111.99 1318.41,-96.08 1293.07,-85.1"/>
<polygon fill="midnightblue" stroke="midnightblue" points="1294.2,-81.77 1283.63,-81.01 1291.42,-88.19 1294.2,-81.77"/>
</g>
<!-- Node19 -->
<g id="node19" class="node">
<title>Node19</title>
<g id="a_node19"><a xlink:title=" ">
<polygon fill="none" stroke="#bfbfbf" points="1347,-62 1347,-81 1495,-81 1495,-62 1347,-62"/>
<text text-anchor="middle" x="1421" y="-69" font-family="Helvetica,sans-Serif" font-size="10.00">geogram/basic/attributes.h</text>
</a>
</g>
</g>
<!-- Node17&#45;&gt;Node19 -->
<g id="edge27" class="edge">
<title>Node17&#45;&gt;Node19</title>
<path fill="none" stroke="midnightblue" d="M1415.52,-123.4C1416.53,-113.96 1417.88,-101.45 1418.99,-91.19"/>
<polygon fill="midnightblue" stroke="midnightblue" points="1422.47,-91.51 1420.06,-81.19 1415.51,-90.76 1422.47,-91.51"/>
</g>
<!-- Node20&#45;&gt;Node13 -->
<g id="edge31" class="edge">
<title>Node20&#45;&gt;Node13</title>
<path fill="none" stroke="midnightblue" d="M1019.41,-128.73C1014.27,-118.89 1005.78,-102.66 999.24,-90.16"/>
<polygon fill="midnightblue" stroke="midnightblue" points="1002.25,-88.37 994.51,-81.13 996.05,-91.61 1002.25,-88.37"/>
</g>
<!-- Node21 -->
<g id="node21" class="node">
<title>Node21</title>
<g id="a_node21"><a xlink:title=" ">
<polygon fill="none" stroke="#bfbfbf" points="1031.5,-62 1031.5,-81 1084.5,-81 1084.5,-62 1031.5,-62"/>
<text text-anchor="middle" x="1058" y="-69" font-family="Helvetica,sans-Serif" font-size="10.00">cstddef</text>
</a>
</g>
</g>
<!-- Node20&#45;&gt;Node21 -->
<g id="edge30" class="edge">
<title>Node20&#45;&gt;Node21</title>
<path fill="none" stroke="midnightblue" d="M1028.59,-128.73C1033.73,-118.89 1042.22,-102.66 1048.76,-90.16"/>
<polygon fill="midnightblue" stroke="midnightblue" points="1051.95,-91.61 1053.49,-81.13 1045.75,-88.37 1051.95,-91.61"/>
</g>
<!-- Node23&#45;&gt;Node2 -->
<g id="edge40" class="edge">
<title>Node23&#45;&gt;Node2</title>
<path fill="none" stroke="midnightblue" d="M196.84,-257.22C188.17,-247.7 177.51,-234.5 171,-221 161.26,-200.8 156.35,-175.32 154,-158.28"/>
<polygon fill="midnightblue" stroke="midnightblue" points="157.43,-157.5 152.75,-148 150.48,-158.35 157.43,-157.5"/>
</g>
<!-- Node24&#45;&gt;Node11 -->
<g id="edge42" class="edge">
<title>Node24&#45;&gt;Node11</title>
<path fill="none" stroke="midnightblue" d="M299.37,-329.86C320.33,-321.71 349.82,-307.77 370,-288 426.38,-232.75 440.43,-132.95 443.89,-91.42"/>
<polygon fill="midnightblue" stroke="midnightblue" points="447.39,-91.56 444.61,-81.34 440.41,-91.06 447.39,-91.56"/>
</g>
<!-- Node25 -->
<g id="node25" class="node">
<title>Node25</title>
<g id="a_node25"><a xlink:href="autodiff_8h.html" target="_top" xlink:title=" ">
<polygon fill="none" stroke="black" points="297.5,-263 297.5,-282 360.5,-282 360.5,-263 297.5,-263"/>
<text text-anchor="middle" x="329" y="-270" font-family="Helvetica,sans-Serif" font-size="10.00">autodiff.h</text>
</a>
</g>
</g>
<!-- Node24&#45;&gt;Node25 -->
<g id="edge43" class="edge">
<title>Node24&#45;&gt;Node25</title>
<path fill="none" stroke="midnightblue" d="M281.42,-329.73C289.99,-319.6 304.3,-302.69 314.99,-290.06"/>
<polygon fill="midnightblue" stroke="midnightblue" points="317.91,-292.02 321.7,-282.13 312.57,-287.5 317.91,-292.02"/>
</g>
<!-- Node26 -->
<g id="node26" class="node">
<title>Node26</title>
<g id="a_node26"><a xlink:title=" ">
<polygon fill="none" stroke="#bfbfbf" points="180.5,-196 180.5,-215 249.5,-215 249.5,-196 180.5,-196"/>
<text text-anchor="middle" x="215" y="-203" font-family="Helvetica,sans-Serif" font-size="10.00">Eigen/Core</text>
</a>
</g>
</g>
<!-- Node25&#45;&gt;Node26 -->
<g id="edge44" class="edge">
<title>Node25&#45;&gt;Node26</title>
<path fill="none" stroke="midnightblue" d="M313.63,-262.73C294.48,-251.82 261.56,-233.05 239.06,-220.22"/>
<polygon fill="midnightblue" stroke="midnightblue" points="240.55,-217.04 230.13,-215.13 237.08,-223.12 240.55,-217.04"/>
</g>
<!-- Node27 -->
<g id="node27" class="node">
<title>Node27</title>
<g id="a_node27"><a xlink:title=" ">
<polygon fill="none" stroke="#bfbfbf" points="267.5,-196 267.5,-215 314.5,-215 314.5,-196 267.5,-196"/>
<text text-anchor="middle" x="291" y="-203" font-family="Helvetica,sans-Serif" font-size="10.00">cmath</text>
</a>
</g>
</g>
<!-- Node25&#45;&gt;Node27 -->
<g id="edge45" class="edge">
<title>Node25&#45;&gt;Node27</title>
<path fill="none" stroke="midnightblue" d="M323.88,-262.73C318.06,-252.79 308.44,-236.34 301.11,-223.79"/>
<polygon fill="midnightblue" stroke="midnightblue" points="304.11,-221.99 296.04,-215.13 298.07,-225.53 304.11,-221.99"/>
</g>
<!-- Node28 -->
<g id="node28" class="node">
<title>Node28</title>
<g id="a_node28"><a xlink:title=" ">
<polygon fill="none" stroke="#bfbfbf" points="332.5,-196 332.5,-215 397.5,-215 397.5,-196 332.5,-196"/>
<text text-anchor="middle" x="365" y="-203" font-family="Helvetica,sans-Serif" font-size="10.00">stdexcept</text>
</a>
</g>
</g>
<!-- Node25&#45;&gt;Node28 -->
<g id="edge46" class="edge">
<title>Node25&#45;&gt;Node28</title>
<path fill="none" stroke="midnightblue" d="M333.86,-262.73C339.31,-252.89 348.3,-236.66 355.22,-224.16"/>
<polygon fill="midnightblue" stroke="midnightblue" points="358.44,-225.57 360.22,-215.13 352.31,-222.18 358.44,-225.57"/>
</g>
<!-- Node30&#45;&gt;Node2 -->
<g id="edge53" class="edge">
<title>Node30&#45;&gt;Node2</title>
<path fill="none" stroke="midnightblue" d="M509.22,-461.3C430.06,-451 283.17,-423.6 179,-355 144.61,-332.35 130.32,-326.22 115,-288 110.38,-276.48 107.56,-215.71 116,-190 120.16,-177.31 128.74,-165.06 136.48,-155.81"/>
<polygon fill="midnightblue" stroke="midnightblue" points="139.19,-158.03 143.2,-148.22 133.95,-153.39 139.19,-158.03"/>
</g>
<!-- Node30&#45;&gt;Node5 -->
<g id="edge56" class="edge">
<title>Node30&#45;&gt;Node5</title>
<path fill="none" stroke="midnightblue" d="M577.04,-458.48C588.41,-450.42 605.91,-438.02 620.8,-427.47"/>
<polygon fill="midnightblue" stroke="midnightblue" points="623.07,-430.16 629.2,-421.52 619.02,-424.45 623.07,-430.16"/>
</g>
<!-- Node30&#45;&gt;Node6 -->
<g id="edge54" class="edge">
<title>Node30&#45;&gt;Node6</title>
<path fill="none" stroke="midnightblue" d="M608.28,-458.47C647.28,-450.4 705.98,-437.26 756,-422 817.3,-403.3 886.3,-376.16 929.46,-358.42"/>
<polygon fill="midnightblue" stroke="midnightblue" points="930.89,-361.62 938.79,-354.57 928.21,-355.15 930.89,-361.62"/>
</g>
<!-- Node30&#45;&gt;Node9 -->
<g id="edge58" class="edge">
<title>Node30&#45;&gt;Node9</title>
<path fill="none" stroke="midnightblue" d="M562.71,-458.3C550.16,-408.45 495.06,-157.89 626,-56 664.67,-25.91 995.4,-15.09 1121.99,-12.02"/>
<polygon fill="midnightblue" stroke="midnightblue" points="1122.26,-15.52 1132.17,-11.78 1122.09,-8.52 1122.26,-15.52"/>
</g>
<!-- Node30&#45;&gt;Node12 -->
<g id="edge59" class="edge">
<title>Node30&#45;&gt;Node12</title>
<path fill="none" stroke="midnightblue" d="M565.66,-458.45C566.88,-444.27 569.95,-415.05 576,-391 605.64,-273.21 662.88,-138.33 683.96,-90.48"/>
<polygon fill="midnightblue" stroke="midnightblue" points="687.24,-91.72 688.09,-81.16 680.84,-88.88 687.24,-91.72"/>
</g>
<!-- Node30&#45;&gt;Node15 -->
<g id="edge55" class="edge">
<title>Node30&#45;&gt;Node15</title>
<path fill="none" stroke="midnightblue" d="M620.83,-460.94C653.18,-455.16 693.26,-443.91 723,-422 764.88,-391.15 743.35,-352.31 787,-324 821.98,-301.31 924.55,-287.87 1003.44,-280.63"/>
<polygon fill="midnightblue" stroke="midnightblue" points="1003.78,-284.11 1013.43,-279.74 1003.15,-277.14 1003.78,-284.11"/>
</g>
<!-- Node30&#45;&gt;Node24 -->
<g id="edge57" class="edge">
<title>Node30&#45;&gt;Node24</title>
<path fill="none" stroke="midnightblue" d="M533.98,-458.45C505.85,-450.31 463.48,-437.09 428,-422 380.02,-401.6 326.85,-371.73 297.22,-354.38"/>
<polygon fill="midnightblue" stroke="midnightblue" points="298.85,-351.29 288.46,-349.22 295.3,-357.32 298.85,-351.29"/>
</g>
<!-- Node31&#45;&gt;Node2 -->
<g id="edge61" class="edge">
<title>Node31&#45;&gt;Node2</title>
<path fill="none" stroke="midnightblue" d="M1036.39,-464.24C900.49,-458.53 615.17,-444.06 576,-422 464.84,-359.41 514.51,-258.66 407,-190 352.42,-155.14 278.9,-143.49 224.83,-139.99"/>
<polygon fill="midnightblue" stroke="midnightblue" points="224.81,-136.48 214.63,-139.41 224.41,-143.47 224.81,-136.48"/>
</g>
<!-- Node31&#45;&gt;Node5 -->
<g id="edge62" class="edge">
<title>Node31&#45;&gt;Node5</title>
<path fill="none" stroke="midnightblue" d="M1042.24,-458.48C957.86,-447.54 811.87,-428.61 723.49,-417.16"/>
<polygon fill="midnightblue" stroke="midnightblue" points="723.9,-413.68 713.53,-415.87 723,-420.62 723.9,-413.68"/>
</g>
<!-- Node31&#45;&gt;Node6 -->
<g id="edge69" class="edge">
<title>Node31&#45;&gt;Node6</title>
<path fill="none" stroke="midnightblue" d="M1086.64,-458.48C1069.21,-450.79 1044.67,-438.2 1027,-422 1008.74,-405.26 993.51,-381.31 983.74,-363.7"/>
<polygon fill="midnightblue" stroke="midnightblue" points="986.7,-361.81 978.89,-354.66 980.53,-365.12 986.7,-361.81"/>
</g>
<!-- Node31&#45;&gt;Node9 -->
<g id="edge73" class="edge">
<title>Node31&#45;&gt;Node9</title>
<path fill="none" stroke="midnightblue" d="M1179.52,-466.47C1347.83,-464.65 1758.68,-456.68 1810,-422 1843.27,-399.52 1849,-380.66 1849,-340.5 1849,-340.5 1849,-340.5 1849,-137.5 1849,-44.8 1746.89,-78.65 1657,-56 1500.7,-16.61 1308.35,-10.91 1219.82,-10.58"/>
<polygon fill="midnightblue" stroke="midnightblue" points="1219.8,-7.08 1209.8,-10.57 1219.79,-14.08 1219.8,-7.08"/>
</g>
<!-- Node31&#45;&gt;Node11 -->
<g id="edge72" class="edge">
<title>Node31&#45;&gt;Node11</title>
<path fill="none" stroke="midnightblue" d="M1083.46,-458.47C1060.42,-450.15 1025.23,-436.65 996,-422 944.82,-396.35 932.94,-387.76 886,-355 867.84,-342.33 865.08,-336.78 847,-324 708.24,-225.92 531.91,-122.5 468.79,-86.12"/>
<polygon fill="midnightblue" stroke="midnightblue" points="470.4,-83 459.99,-81.05 466.91,-89.07 470.4,-83"/>
</g>
<!-- Node31&#45;&gt;Node15 -->
<g id="edge70" class="edge">
<title>Node31&#45;&gt;Node15</title>
<path fill="none" stroke="midnightblue" d="M1179.74,-467.69C1346.81,-468.54 1750.82,-465.98 1792,-422 1875.21,-333.13 1412.76,-292.69 1202.67,-279.09"/>
<polygon fill="midnightblue" stroke="midnightblue" points="1202.75,-275.59 1192.55,-278.44 1202.31,-282.58 1202.75,-275.59"/>
</g>
<!-- Node31&#45;&gt;Node24 -->
<g id="edge71" class="edge">
<title>Node31&#45;&gt;Node24</title>
<path fill="none" stroke="midnightblue" d="M1036.31,-466.24C928.24,-463.98 717.54,-455.26 542,-422 454.61,-405.44 355.29,-370.94 305.7,-352.59"/>
<polygon fill="midnightblue" stroke="midnightblue" points="306.77,-349.25 296.18,-349.04 304.32,-355.81 306.77,-349.25"/>
</g>
<!-- Node31&#45;&gt;Node29 -->
<g id="edge74" class="edge">
<title>Node31&#45;&gt;Node29</title>
<path fill="none" stroke="midnightblue" d="M1040,-458.44C1002.61,-451.91 956.2,-440.72 918,-422 883.81,-405.24 850.75,-375.09 832.22,-356.54"/>
<polygon fill="midnightblue" stroke="midnightblue" points="834.49,-353.85 825,-349.14 829.48,-358.74 834.49,-353.85"/>
</g>
<!-- Node32 -->
<g id="node32" class="node">
<title>Node32</title>
<g id="a_node32"><a xlink:title=" ">
<polygon fill="none" stroke="#bfbfbf" points="1036,-397 1036,-416 1142,-416 1142,-397 1036,-397"/>
<text text-anchor="middle" x="1089" y="-404" font-family="Helvetica,sans-Serif" font-size="10.00">thrust/functional.h</text>
</a>
</g>
</g>
<!-- Node31&#45;&gt;Node32 -->
<g id="edge63" class="edge">
<title>Node31&#45;&gt;Node32</title>
<path fill="none" stroke="midnightblue" d="M1105.28,-458.48C1102.57,-449.99 1098.33,-436.7 1094.85,-425.82"/>
<polygon fill="midnightblue" stroke="midnightblue" points="1098.09,-424.47 1091.72,-416.01 1091.43,-426.6 1098.09,-424.47"/>
</g>
<!-- Node33 -->
<g id="node33" class="node">
<title>Node33</title>
<g id="a_node33"><a xlink:title=" ">
<polygon fill="none" stroke="#bfbfbf" points="1160,-397 1160,-416 1250,-416 1250,-397 1160,-397"/>
<text text-anchor="middle" x="1205" y="-404" font-family="Helvetica,sans-Serif" font-size="10.00">thrust/reduce.h</text>
</a>
</g>
</g>
<!-- Node31&#45;&gt;Node33 -->
<g id="edge64" class="edge">
<title>Node31&#45;&gt;Node33</title>
<path fill="none" stroke="midnightblue" d="M1121.9,-458.48C1137.67,-448.8 1163.64,-432.87 1182.35,-421.39"/>
<polygon fill="midnightblue" stroke="midnightblue" points="1184.43,-424.22 1191.13,-416.01 1180.77,-418.25 1184.43,-424.22"/>
</g>
<!-- Node34 -->
<g id="node34" class="node">
<title>Node34</title>
<g id="a_node34"><a xlink:title=" ">
<polygon fill="none" stroke="#bfbfbf" points="1268.5,-397 1268.5,-416 1393.5,-416 1393.5,-397 1268.5,-397"/>
<text text-anchor="middle" x="1331" y="-404" font-family="Helvetica,sans-Serif" font-size="10.00">thrust/device_vector.h</text>
</a>
</g>
</g>
<!-- Node31&#45;&gt;Node34 -->
<g id="edge65" class="edge">
<title>Node31&#45;&gt;Node34</title>
<path fill="none" stroke="midnightblue" d="M1139.95,-458.48C1179.2,-448 1245.88,-430.21 1289.17,-418.66"/>
<polygon fill="midnightblue" stroke="midnightblue" points="1290.35,-421.97 1299.11,-416.01 1288.54,-415.21 1290.35,-421.97"/>
</g>
<!-- Node35 -->
<g id="node35" class="node">
<title>Node35</title>
<g id="a_node35"><a xlink:title=" ">
<polygon fill="none" stroke="#bfbfbf" points="1411.5,-397 1411.5,-416 1490.5,-416 1490.5,-397 1411.5,-397"/>
<text text-anchor="middle" x="1451" y="-404" font-family="Helvetica,sans-Serif" font-size="10.00">thrust/copy.h</text>
</a>
</g>
</g>
<!-- Node31&#45;&gt;Node35 -->
<g id="edge66" class="edge">
<title>Node31&#45;&gt;Node35</title>
<path fill="none" stroke="midnightblue" d="M1179.76,-458.95C1239.83,-451.52 1327.58,-439.05 1403,-422 1407.11,-421.07 1411.38,-419.98 1415.6,-418.81"/>
<polygon fill="midnightblue" stroke="midnightblue" points="1416.64,-422.15 1425.27,-416.01 1414.69,-415.43 1416.64,-422.15"/>
</g>
<!-- Node36 -->
<g id="node36" class="node">
<title>Node36</title>
<g id="a_node36"><a xlink:title=" ">
<polygon fill="none" stroke="#bfbfbf" points="1508.5,-397 1508.5,-416 1621.5,-416 1621.5,-397 1508.5,-397"/>
<text text-anchor="middle" x="1565" y="-404" font-family="Helvetica,sans-Serif" font-size="10.00">thrust/host_vector.h</text>
</a>
</g>
</g>
<!-- Node31&#45;&gt;Node36 -->
<g id="edge67" class="edge">
<title>Node31&#45;&gt;Node36</title>
<path fill="none" stroke="midnightblue" d="M1179.85,-461.04C1258.71,-453.96 1388.88,-440.72 1500,-422 1506.43,-420.92 1513.19,-419.61 1519.82,-418.22"/>
<polygon fill="midnightblue" stroke="midnightblue" points="1521.02,-421.54 1530.05,-416.01 1519.54,-414.7 1521.02,-421.54"/>
</g>
<!-- Node37 -->
<g id="node37" class="node">
<title>Node37</title>
<g id="a_node37"><a xlink:title=" ">
<polygon fill="none" stroke="#bfbfbf" points="1639.5,-391.5 1639.5,-421.5 1782.5,-421.5 1782.5,-391.5 1639.5,-391.5"/>
<text text-anchor="start" x="1647.5" y="-409.5" font-family="Helvetica,sans-Serif" font-size="10.00">polyfem/assembler/CUDA</text>
<text text-anchor="middle" x="1711" y="-398.5" font-family="Helvetica,sans-Serif" font-size="10.00">_utilities.cuh</text>
</a>
</g>
</g>
<!-- Node31&#45;&gt;Node37 -->
<g id="edge68" class="edge">
<title>Node31&#45;&gt;Node37</title>
<path fill="none" stroke="midnightblue" d="M1179.71,-462.96C1278.63,-456.91 1462.69,-443.96 1628.69,-422.24"/>
<polygon fill="midnightblue" stroke="midnightblue" points="1629.64,-425.64 1639.09,-420.86 1628.72,-418.7 1629.64,-425.64"/>
</g>
</g>
</svg>
