<?xml version="1.0" encoding="UTF-8" standalone="no"?>
<!DOCTYPE svg PUBLIC "-//W3C//DTD SVG 1.1//EN"
 "http://www.w3.org/Graphics/SVG/1.1/DTD/svg11.dtd">
<!-- Generated by graphviz version 2.43.0 (0)
 -->
<!-- Title: src/polyfem/assembler/MultiModel.cpp Pages: 1 -->
<svg width="2094pt" height="620pt"
 viewBox="0.00 0.00 2094.00 620.00" xmlns="http://www.w3.org/2000/svg" xmlns:xlink="http://www.w3.org/1999/xlink">
<g id="graph0" class="graph" transform="scale(1 1) rotate(0) translate(4 616)">
<title>src/polyfem/assembler/MultiModel.cpp</title>
<!-- Node1 -->
<g id="node1" class="node">
<title>Node1</title>
<g id="a_node1"><a xlink:title=" ">
<polygon fill="#bfbfbf" stroke="black" points="1372,-581.5 1372,-611.5 1500,-611.5 1500,-581.5 1372,-581.5"/>
<text text-anchor="start" x="1380" y="-599.5" font-family="Helvetica,sans-Serif" font-size="10.00">src/polyfem/assembler</text>
<text text-anchor="middle" x="1436" y="-588.5" font-family="Helvetica,sans-Serif" font-size="10.00">/MultiModel.cpp</text>
</a>
</g>
</g>
<!-- Node2 -->
<g id="node2" class="node">
<title>Node2</title>
<g id="a_node2"><a xlink:href="_multi_model_8hpp.html" target="_top" xlink:title=" ">
<polygon fill="none" stroke="black" points="837,-525.5 837,-544.5 929,-544.5 929,-525.5 837,-525.5"/>
<text text-anchor="middle" x="883" y="-532.5" font-family="Helvetica,sans-Serif" font-size="10.00">MultiModel.hpp</text>
</a>
</g>
</g>
<!-- Node1&#45;&gt;Node2 -->
<g id="edge1" class="edge">
<title>Node1&#45;&gt;Node2</title>
<path fill="none" stroke="midnightblue" d="M1371.75,-588.59C1262.65,-576.85 1042.95,-553.21 939.41,-542.07"/>
<polygon fill="midnightblue" stroke="midnightblue" points="939.48,-538.56 929.17,-540.97 938.73,-545.52 939.48,-538.56"/>
</g>
<!-- Node11 -->
<g id="node11" class="node">
<title>Node11</title>
<g id="a_node11"><a xlink:href="_basis_8hpp.html" target="_top" xlink:title=" ">
<polygon fill="none" stroke="black" points="1462,-129 1462,-148 1598,-148 1598,-129 1462,-129"/>
<text text-anchor="middle" x="1530" y="-136" font-family="Helvetica,sans-Serif" font-size="10.00">polyfem/basis/Basis.hpp</text>
</a>
</g>
</g>
<!-- Node1&#45;&gt;Node11 -->
<g id="edge82" class="edge">
<title>Node1&#45;&gt;Node11</title>
<path fill="none" stroke="midnightblue" d="M1500.38,-594.88C1610.26,-589.91 1831.71,-562.02 1931,-422 1987.1,-342.89 1701.67,-240.74 1668,-221 1627.63,-197.33 1580.75,-169.59 1553.33,-153.34"/>
<polygon fill="midnightblue" stroke="midnightblue" points="1554.87,-150.19 1544.49,-148.1 1551.3,-156.21 1554.87,-150.19"/>
</g>
<!-- Node39 -->
<g id="node39" class="node">
<title>Node39</title>
<g id="a_node39"><a xlink:href="auto__elasticity__rhs_8hpp.html" target="_top" xlink:title=" ">
<polygon fill="none" stroke="black" points="158.5,-458.5 158.5,-488.5 283.5,-488.5 283.5,-458.5 158.5,-458.5"/>
<text text-anchor="start" x="166.5" y="-476.5" font-family="Helvetica,sans-Serif" font-size="10.00">polyfem/autogen/auto</text>
<text text-anchor="middle" x="221" y="-465.5" font-family="Helvetica,sans-Serif" font-size="10.00">_elasticity_rhs.hpp</text>
</a>
</g>
</g>
<!-- Node1&#45;&gt;Node39 -->
<g id="edge83" class="edge">
<title>Node1&#45;&gt;Node39</title>
<path fill="none" stroke="midnightblue" d="M1371.87,-591.86C1198.22,-581.5 704.65,-548.67 298,-489 296.53,-488.78 295.04,-488.56 293.54,-488.33"/>
<polygon fill="midnightblue" stroke="midnightblue" points="293.97,-484.85 283.54,-486.72 292.86,-491.76 293.97,-484.85"/>
</g>
<!-- Node40 -->
<g id="node40" class="node">
<title>Node40</title>
<g id="a_node40"><a xlink:title=" ">
<polygon fill="none" stroke="#bfbfbf" points="2018,-525.5 2018,-544.5 2086,-544.5 2086,-525.5 2018,-525.5"/>
<text text-anchor="middle" x="2052" y="-532.5" font-family="Helvetica,sans-Serif" font-size="10.00">igl/Timer.h</text>
</a>
</g>
</g>
<!-- Node1&#45;&gt;Node40 -->
<g id="edge87" class="edge">
<title>Node1&#45;&gt;Node40</title>
<path fill="none" stroke="midnightblue" d="M1500.11,-591.83C1605.57,-585.33 1822.08,-570.08 2004,-545 2005.28,-544.82 2006.57,-544.64 2007.87,-544.44"/>
<polygon fill="midnightblue" stroke="midnightblue" points="2008.67,-547.86 2017.98,-542.8 2007.55,-540.95 2008.67,-547.86"/>
</g>
<!-- Node3 -->
<g id="node3" class="node">
<title>Node3</title>
<g id="a_node3"><a xlink:href="_common_8hpp.html" target="_top" xlink:title=" ">
<polygon fill="none" stroke="black" points="454.5,-129 454.5,-148 579.5,-148 579.5,-129 454.5,-129"/>
<text text-anchor="middle" x="517" y="-136" font-family="Helvetica,sans-Serif" font-size="10.00">polyfem/Common.hpp</text>
</a>
</g>
</g>
<!-- Node2&#45;&gt;Node3 -->
<g id="edge2" class="edge">
<title>Node2&#45;&gt;Node3</title>
<path fill="none" stroke="midnightblue" d="M836.75,-534.52C696.4,-535.58 277.17,-534.73 150,-489 92.07,-468.17 38,-469.06 38,-407.5 38,-407.5 38,-407.5 38,-338.5 38,-259.91 67.58,-232.01 134,-190 184.11,-158.3 347.69,-146.3 444.11,-141.91"/>
<polygon fill="midnightblue" stroke="midnightblue" points="444.53,-145.39 454.37,-141.46 444.23,-138.4 444.53,-145.39"/>
</g>
<!-- Node6 -->
<g id="node6" class="node">
<title>Node6</title>
<g id="a_node6"><a xlink:href="_elasticity_utils_8hpp.html" target="_top" xlink:title=" ">
<polygon fill="none" stroke="black" points="685.5,-391.5 685.5,-421.5 814.5,-421.5 814.5,-391.5 685.5,-391.5"/>
<text text-anchor="start" x="693.5" y="-409.5" font-family="Helvetica,sans-Serif" font-size="10.00">polyfem/utils/Elasticity</text>
<text text-anchor="middle" x="750" y="-398.5" font-family="Helvetica,sans-Serif" font-size="10.00">Utils.hpp</text>
</a>
</g>
</g>
<!-- Node2&#45;&gt;Node6 -->
<g id="edge5" class="edge">
<title>Node2&#45;&gt;Node6</title>
<path fill="none" stroke="midnightblue" d="M873.86,-525.31C853.17,-505.63 802.26,-457.21 772.55,-428.95"/>
<polygon fill="midnightblue" stroke="midnightblue" points="774.79,-426.24 765.13,-421.89 769.96,-431.32 774.79,-426.24"/>
</g>
<!-- Node7 -->
<g id="node7" class="node">
<title>Node7</title>
<g id="a_node7"><a xlink:href="_element_assembly_values_8hpp.html" target="_top" xlink:title=" ">
<polygon fill="none" stroke="black" points="1680.5,-324.5 1680.5,-354.5 1835.5,-354.5 1835.5,-324.5 1680.5,-324.5"/>
<text text-anchor="start" x="1688.5" y="-342.5" font-family="Helvetica,sans-Serif" font-size="10.00">polyfem/assembler/Element</text>
<text text-anchor="middle" x="1758" y="-331.5" font-family="Helvetica,sans-Serif" font-size="10.00">AssemblyValues.hpp</text>
</a>
</g>
</g>
<!-- Node2&#45;&gt;Node7 -->
<g id="edge76" class="edge">
<title>Node2&#45;&gt;Node7</title>
<path fill="none" stroke="midnightblue" d="M929.15,-532.53C1120.72,-525.96 1846.33,-496.31 1913,-422 1940.79,-391.02 1894.55,-369.87 1845.5,-356.9"/>
<polygon fill="midnightblue" stroke="midnightblue" points="1846.23,-353.47 1835.68,-354.41 1844.51,-360.26 1846.23,-353.47"/>
</g>
<!-- Node10 -->
<g id="node10" class="node">
<title>Node10</title>
<g id="a_node10"><a xlink:title=" ">
<polygon fill="none" stroke="#bfbfbf" points="1430.5,-0.5 1430.5,-19.5 1507.5,-19.5 1507.5,-0.5 1430.5,-0.5"/>
<text text-anchor="middle" x="1469" y="-7.5" font-family="Helvetica,sans-Serif" font-size="10.00">Eigen/Dense</text>
</a>
</g>
</g>
<!-- Node2&#45;&gt;Node10 -->
<g id="edge80" class="edge">
<title>Node2&#45;&gt;Node10</title>
<path fill="none" stroke="midnightblue" d="M929.01,-534C1147.08,-533.41 2066,-524.01 2066,-407.5 2066,-407.5 2066,-407.5 2066,-137.5 2066,-81.19 2020.99,-77.63 1969,-56 1888.32,-22.43 1627.24,-13.84 1517.89,-11.69"/>
<polygon fill="midnightblue" stroke="midnightblue" points="1517.85,-8.19 1507.79,-11.51 1517.72,-15.19 1517.85,-8.19"/>
</g>
<!-- Node12 -->
<g id="node12" class="node">
<title>Node12</title>
<g id="a_node12"><a xlink:href="_types_8hpp.html" target="_top" xlink:title=" ">
<polygon fill="none" stroke="black" points="588.5,-62 588.5,-81 721.5,-81 721.5,-62 588.5,-62"/>
<text text-anchor="middle" x="655" y="-69" font-family="Helvetica,sans-Serif" font-size="10.00">polyfem/utils/Types.hpp</text>
</a>
</g>
</g>
<!-- Node2&#45;&gt;Node12 -->
<g id="edge79" class="edge">
<title>Node2&#45;&gt;Node12</title>
<path fill="none" stroke="midnightblue" d="M836.77,-533.78C673.11,-532.69 127.31,-526.26 59,-489 19.74,-467.59 0,-452.22 0,-407.5 0,-407.5 0,-407.5 0,-271.5 0,-1.42 311.95,-127.39 579,-87 586.84,-85.81 595.11,-84.4 603.2,-82.93"/>
<polygon fill="midnightblue" stroke="midnightblue" points="604.1,-86.33 613.29,-81.06 602.81,-79.45 604.1,-86.33"/>
</g>
<!-- Node16 -->
<g id="node16" class="node">
<title>Node16</title>
<g id="a_node16"><a xlink:href="_element_bases_8hpp.html" target="_top" xlink:title=" ">
<polygon fill="none" stroke="black" points="983.5,-263 983.5,-282 1162.5,-282 1162.5,-263 983.5,-263"/>
<text text-anchor="middle" x="1073" y="-270" font-family="Helvetica,sans-Serif" font-size="10.00">polyfem/basis/ElementBases.hpp</text>
</a>
</g>
</g>
<!-- Node2&#45;&gt;Node16 -->
<g id="edge77" class="edge">
<title>Node2&#45;&gt;Node16</title>
<path fill="none" stroke="midnightblue" d="M889.32,-525.33C916.54,-488.02 1024.01,-340.67 1060.67,-290.41"/>
<polygon fill="midnightblue" stroke="midnightblue" points="1063.59,-292.34 1066.65,-282.2 1057.93,-288.22 1063.59,-292.34"/>
</g>
<!-- Node25 -->
<g id="node25" class="node">
<title>Node25</title>
<g id="a_node25"><a xlink:href="_autodiff_types_8hpp.html" target="_top" xlink:title=" ">
<polygon fill="none" stroke="black" points="188.5,-330 188.5,-349 359.5,-349 359.5,-330 188.5,-330"/>
<text text-anchor="middle" x="274" y="-337" font-family="Helvetica,sans-Serif" font-size="10.00">polyfem/utils/AutodiffTypes.hpp</text>
</a>
</g>
</g>
<!-- Node2&#45;&gt;Node25 -->
<g id="edge78" class="edge">
<title>Node2&#45;&gt;Node25</title>
<path fill="none" stroke="midnightblue" d="M836.82,-529.88C718.3,-518.5 406.96,-483.37 326,-422 304.21,-405.48 289.09,-376.98 280.98,-358.43"/>
<polygon fill="midnightblue" stroke="midnightblue" points="284.16,-356.97 277.11,-349.06 277.69,-359.64 284.16,-356.97"/>
</g>
<!-- Node30 -->
<g id="node30" class="node">
<title>Node30</title>
<g id="a_node30"><a xlink:title=" ">
<polygon fill="none" stroke="#bfbfbf" points="927,-330 927,-349 969,-349 969,-330 927,-330"/>
<text text-anchor="middle" x="948" y="-337" font-family="Helvetica,sans-Serif" font-size="10.00">array</text>
</a>
</g>
</g>
<!-- Node2&#45;&gt;Node30 -->
<g id="edge81" class="edge">
<title>Node2&#45;&gt;Node30</title>
<path fill="none" stroke="midnightblue" d="M882.95,-525.17C883.12,-502.06 885.66,-438.26 907,-391 912.82,-378.1 922.77,-365.73 931.4,-356.46"/>
<polygon fill="midnightblue" stroke="midnightblue" points="934.04,-358.78 938.52,-349.18 929.03,-353.89 934.04,-358.78"/>
</g>
<!-- Node31 -->
<g id="node31" class="node">
<title>Node31</title>
<g id="a_node31"><a xlink:href="_linear_elasticity_8hpp.html" target="_top" xlink:title=" ">
<polygon fill="none" stroke="black" points="555.5,-464 555.5,-483 666.5,-483 666.5,-464 555.5,-464"/>
<text text-anchor="middle" x="611" y="-471" font-family="Helvetica,sans-Serif" font-size="10.00">LinearElasticity.hpp</text>
</a>
</g>
</g>
<!-- Node2&#45;&gt;Node31 -->
<g id="edge53" class="edge">
<title>Node2&#45;&gt;Node31</title>
<path fill="none" stroke="midnightblue" d="M844.03,-525.48C795.45,-514.85 712.42,-496.68 659.7,-485.15"/>
<polygon fill="midnightblue" stroke="midnightblue" points="660.42,-481.73 649.9,-483.01 658.92,-488.57 660.42,-481.73"/>
</g>
<!-- Node32 -->
<g id="node32" class="node">
<title>Node32</title>
<g id="a_node32"><a xlink:href="_neo_hookean_elasticity_8hpp.html" target="_top" xlink:title=" ">
<polygon fill="none" stroke="black" points="1120.5,-464 1120.5,-483 1263.5,-483 1263.5,-464 1120.5,-464"/>
<text text-anchor="middle" x="1192" y="-471" font-family="Helvetica,sans-Serif" font-size="10.00">NeoHookeanElasticity.hpp</text>
</a>
</g>
</g>
<!-- Node2&#45;&gt;Node32 -->
<g id="edge61" class="edge">
<title>Node2&#45;&gt;Node32</title>
<path fill="none" stroke="midnightblue" d="M927.27,-525.48C982.8,-514.78 1077.97,-496.46 1137.8,-484.94"/>
<polygon fill="midnightblue" stroke="midnightblue" points="1138.65,-488.34 1147.81,-483.01 1137.33,-481.46 1138.65,-488.34"/>
</g>
<!-- Node4 -->
<g id="node4" class="node">
<title>Node4</title>
<g id="a_node4"><a xlink:title=" ">
<polygon fill="none" stroke="#bfbfbf" points="444,-0.5 444,-19.5 524,-19.5 524,-0.5 444,-0.5"/>
<text text-anchor="middle" x="484" y="-7.5" font-family="Helvetica,sans-Serif" font-size="10.00">Eigen/Sparse</text>
</a>
</g>
</g>
<!-- Node3&#45;&gt;Node4 -->
<g id="edge3" class="edge">
<title>Node3&#45;&gt;Node4</title>
<path fill="none" stroke="midnightblue" d="M497.67,-128.84C481.88,-120.59 460.65,-106.53 451,-87 441,-66.76 455.66,-42.77 468.51,-27.24"/>
<polygon fill="midnightblue" stroke="midnightblue" points="471.3,-29.37 475.29,-19.56 466.05,-24.74 471.3,-29.37"/>
</g>
<!-- Node5 -->
<g id="node5" class="node">
<title>Node5</title>
<g id="a_node5"><a xlink:title=" ">
<polygon fill="none" stroke="#bfbfbf" points="460,-62 460,-81 570,-81 570,-62 460,-62"/>
<text text-anchor="middle" x="515" y="-69" font-family="Helvetica,sans-Serif" font-size="10.00">nlohmann/json.hpp</text>
</a>
</g>
</g>
<!-- Node3&#45;&gt;Node5 -->
<g id="edge4" class="edge">
<title>Node3&#45;&gt;Node5</title>
<path fill="none" stroke="midnightblue" d="M516.73,-128.73C516.44,-119.18 515.96,-103.62 515.58,-91.28"/>
<polygon fill="midnightblue" stroke="midnightblue" points="519.07,-91.01 515.27,-81.13 512.07,-91.23 519.07,-91.01"/>
</g>
<!-- Node6&#45;&gt;Node3 -->
<g id="edge6" class="edge">
<title>Node6&#45;&gt;Node3</title>
<path fill="none" stroke="midnightblue" d="M685.88,-391.47C632.03,-375.99 558.26,-345.29 522,-288 496.43,-247.61 505.26,-187.87 512.09,-157.97"/>
<polygon fill="midnightblue" stroke="midnightblue" points="515.53,-158.62 514.53,-148.07 508.73,-156.94 515.53,-158.62"/>
</g>
<!-- Node6&#45;&gt;Node7 -->
<g id="edge7" class="edge">
<title>Node6&#45;&gt;Node7</title>
<path fill="none" stroke="midnightblue" d="M814.59,-401.34C989.27,-390.07 1471.26,-358.99 1670.28,-346.16"/>
<polygon fill="midnightblue" stroke="midnightblue" points="1670.64,-349.64 1680.4,-345.5 1670.19,-342.65 1670.64,-349.64"/>
</g>
<!-- Node6&#45;&gt;Node10 -->
<g id="edge49" class="edge">
<title>Node6&#45;&gt;Node10</title>
<path fill="none" stroke="midnightblue" d="M755.73,-391.15C780.32,-330.38 878.61,-95.59 945,-56 985.24,-32 1297.84,-17.56 1420.16,-12.77"/>
<polygon fill="midnightblue" stroke="midnightblue" points="1420.5,-16.26 1430.36,-12.38 1420.23,-9.27 1420.5,-16.26"/>
</g>
<!-- Node6&#45;&gt;Node12 -->
<g id="edge48" class="edge">
<title>Node6&#45;&gt;Node12</title>
<path fill="none" stroke="midnightblue" d="M745.92,-391.19C730.7,-337.86 677.3,-150.67 660.26,-90.95"/>
<polygon fill="midnightblue" stroke="midnightblue" points="663.55,-89.72 657.44,-81.07 656.82,-91.64 663.55,-89.72"/>
</g>
<!-- Node13 -->
<g id="node13" class="node">
<title>Node13</title>
<g id="a_node13"><a xlink:title=" ">
<polygon fill="none" stroke="#bfbfbf" points="739.5,-62 739.5,-81 804.5,-81 804.5,-62 739.5,-62"/>
<text text-anchor="middle" x="772" y="-69" font-family="Helvetica,sans-Serif" font-size="10.00">functional</text>
</a>
</g>
</g>
<!-- Node6&#45;&gt;Node13 -->
<g id="edge52" class="edge">
<title>Node6&#45;&gt;Node13</title>
<path fill="none" stroke="midnightblue" d="M750.95,-391.19C754.46,-337.97 766.78,-151.45 770.76,-91.33"/>
<polygon fill="midnightblue" stroke="midnightblue" points="774.27,-91.28 771.43,-81.07 767.28,-90.81 774.27,-91.28"/>
</g>
<!-- Node14 -->
<g id="node14" class="node">
<title>Node14</title>
<g id="a_node14"><a xlink:title=" ">
<polygon fill="none" stroke="#bfbfbf" points="1024.5,-62 1024.5,-81 1071.5,-81 1071.5,-62 1024.5,-62"/>
<text text-anchor="middle" x="1048" y="-69" font-family="Helvetica,sans-Serif" font-size="10.00">vector</text>
</a>
</g>
</g>
<!-- Node6&#45;&gt;Node14 -->
<g id="edge50" class="edge">
<title>Node6&#45;&gt;Node14</title>
<path fill="none" stroke="midnightblue" d="M765.59,-391.34C775.76,-381.66 788.96,-368.24 799,-355 871.07,-259.93 845,-202.44 934,-123 963.69,-96.49 979.65,-103.21 1016,-87 1017.19,-86.47 1018.41,-85.93 1019.63,-85.38"/>
<polygon fill="midnightblue" stroke="midnightblue" points="1021.39,-88.42 1029.07,-81.12 1018.51,-82.04 1021.39,-88.42"/>
</g>
<!-- Node6&#45;&gt;Node16 -->
<g id="edge39" class="edge">
<title>Node6&#45;&gt;Node16</title>
<path fill="none" stroke="midnightblue" d="M774.94,-391.44C792.43,-381.48 816.3,-367.68 837,-355 858.65,-341.73 861.79,-334.31 885,-324 926.96,-305.36 977.34,-292.29 1015.37,-284.11"/>
<polygon fill="midnightblue" stroke="midnightblue" points="1016.19,-287.52 1025.26,-282.04 1014.75,-280.67 1016.19,-287.52"/>
</g>
<!-- Node24 -->
<g id="node24" class="node">
<title>Node24</title>
<g id="a_node24"><a xlink:href="_expression_value_8hpp.html" target="_top" xlink:title=" ">
<polygon fill="none" stroke="black" points="530.5,-257.5 530.5,-287.5 667.5,-287.5 667.5,-257.5 530.5,-257.5"/>
<text text-anchor="start" x="538.5" y="-275.5" font-family="Helvetica,sans-Serif" font-size="10.00">polyfem/utils/Expression</text>
<text text-anchor="middle" x="599" y="-264.5" font-family="Helvetica,sans-Serif" font-size="10.00">Value.hpp</text>
</a>
</g>
</g>
<!-- Node6&#45;&gt;Node24 -->
<g id="edge40" class="edge">
<title>Node6&#45;&gt;Node24</title>
<path fill="none" stroke="midnightblue" d="M733.84,-391.37C707.16,-368.05 653.78,-321.38 622.78,-294.29"/>
<polygon fill="midnightblue" stroke="midnightblue" points="624.88,-291.47 615.04,-287.52 620.27,-296.74 624.88,-291.47"/>
</g>
<!-- Node6&#45;&gt;Node25 -->
<g id="edge42" class="edge">
<title>Node6&#45;&gt;Node25</title>
<path fill="none" stroke="midnightblue" d="M685.31,-396.67C596.86,-384.59 438.67,-362.99 346.37,-350.38"/>
<polygon fill="midnightblue" stroke="midnightblue" points="346.66,-346.89 336.28,-349 345.71,-353.83 346.66,-346.89"/>
</g>
<!-- Node6&#45;&gt;Node30 -->
<g id="edge51" class="edge">
<title>Node6&#45;&gt;Node30</title>
<path fill="none" stroke="midnightblue" d="M792.96,-391.4C830.38,-379.11 883.72,-361.6 917.07,-350.65"/>
<polygon fill="midnightblue" stroke="midnightblue" points="918.33,-353.92 926.74,-347.48 916.15,-347.27 918.33,-353.92"/>
</g>
<!-- Node8 -->
<g id="node8" class="node">
<title>Node8</title>
<g id="a_node8"><a xlink:href="_assembly_values_8hpp.html" target="_top" xlink:title=" ">
<polygon fill="none" stroke="black" points="1677,-190.5 1677,-220.5 1839,-220.5 1839,-190.5 1677,-190.5"/>
<text text-anchor="start" x="1685" y="-208.5" font-family="Helvetica,sans-Serif" font-size="10.00">polyfem/assembler/Assembly</text>
<text text-anchor="middle" x="1758" y="-197.5" font-family="Helvetica,sans-Serif" font-size="10.00">Values.hpp</text>
</a>
</g>
</g>
<!-- Node7&#45;&gt;Node8 -->
<g id="edge8" class="edge">
<title>Node7&#45;&gt;Node8</title>
<path fill="none" stroke="midnightblue" d="M1758,-324.37C1758,-302.04 1758,-258.31 1758,-230.85"/>
<polygon fill="midnightblue" stroke="midnightblue" points="1761.5,-230.52 1758,-220.52 1754.5,-230.52 1761.5,-230.52"/>
</g>
<!-- Node7&#45;&gt;Node14 -->
<g id="edge38" class="edge">
<title>Node7&#45;&gt;Node14</title>
<path fill="none" stroke="midnightblue" d="M1777.89,-324.36C1812.17,-298.18 1876.1,-240.26 1848,-190 1820.25,-140.37 1793.26,-140.02 1739,-123 1604.57,-80.83 1245.29,-108.18 1106,-87 1097.92,-85.77 1089.32,-83.93 1081.29,-81.96"/>
<polygon fill="midnightblue" stroke="midnightblue" points="1082.06,-78.54 1071.5,-79.44 1080.31,-85.32 1082.06,-78.54"/>
</g>
<!-- Node7&#45;&gt;Node16 -->
<g id="edge21" class="edge">
<title>Node7&#45;&gt;Node16</title>
<path fill="none" stroke="midnightblue" d="M1680.42,-331.14C1555.61,-319.29 1310.31,-296.02 1172.69,-282.96"/>
<polygon fill="midnightblue" stroke="midnightblue" points="1172.85,-279.46 1162.57,-282 1172.19,-286.43 1172.85,-279.46"/>
</g>
<!-- Node9 -->
<g id="node9" class="node">
<title>Node9</title>
<g id="a_node9"><a xlink:href="_quadrature_8hpp.html" target="_top" xlink:title=" ">
<polygon fill="none" stroke="black" points="1549.5,-56.5 1549.5,-86.5 1662.5,-86.5 1662.5,-56.5 1549.5,-56.5"/>
<text text-anchor="start" x="1557.5" y="-74.5" font-family="Helvetica,sans-Serif" font-size="10.00">polyfem/quadrature</text>
<text text-anchor="middle" x="1606" y="-63.5" font-family="Helvetica,sans-Serif" font-size="10.00">/Quadrature.hpp</text>
</a>
</g>
</g>
<!-- Node8&#45;&gt;Node9 -->
<g id="edge9" class="edge">
<title>Node8&#45;&gt;Node9</title>
<path fill="none" stroke="midnightblue" d="M1758.52,-190.32C1758.41,-172.49 1755.54,-141.92 1739,-123 1721.92,-103.47 1696.47,-91.47 1672.39,-84.1"/>
<polygon fill="midnightblue" stroke="midnightblue" points="1673.12,-80.67 1662.54,-81.31 1671.21,-87.4 1673.12,-80.67"/>
</g>
<!-- Node8&#45;&gt;Node10 -->
<g id="edge19" class="edge">
<title>Node8&#45;&gt;Node10</title>
<path fill="none" stroke="midnightblue" d="M1762.14,-190.39C1766.3,-173.43 1770.68,-144.56 1760,-123 1738.18,-78.95 1716.59,-76.69 1672,-56 1622.24,-32.91 1560.02,-21.38 1517.67,-15.81"/>
<polygon fill="midnightblue" stroke="midnightblue" points="1517.97,-12.33 1507.62,-14.56 1517.11,-19.27 1517.97,-12.33"/>
</g>
<!-- Node8&#45;&gt;Node11 -->
<g id="edge11" class="edge">
<title>Node8&#45;&gt;Node11</title>
<path fill="none" stroke="midnightblue" d="M1708.81,-190.48C1667.23,-178.62 1608.43,-161.86 1569.77,-150.84"/>
<polygon fill="midnightblue" stroke="midnightblue" points="1570.49,-147.4 1559.92,-148.03 1568.57,-154.14 1570.49,-147.4"/>
</g>
<!-- Node15 -->
<g id="node15" class="node">
<title>Node15</title>
<g id="a_node15"><a xlink:title=" ">
<polygon fill="none" stroke="#bfbfbf" points="1670,-129 1670,-148 1730,-148 1730,-129 1670,-129"/>
<text text-anchor="middle" x="1700" y="-136" font-family="Helvetica,sans-Serif" font-size="10.00">iostream</text>
</a>
</g>
</g>
<!-- Node8&#45;&gt;Node15 -->
<g id="edge20" class="edge">
<title>Node8&#45;&gt;Node15</title>
<path fill="none" stroke="midnightblue" d="M1745.41,-190.4C1736.37,-180.26 1724.15,-166.57 1714.67,-155.94"/>
<polygon fill="midnightblue" stroke="midnightblue" points="1717.03,-153.33 1707.76,-148.19 1711.8,-157.99 1717.03,-153.33"/>
</g>
<!-- Node9&#45;&gt;Node10 -->
<g id="edge10" class="edge">
<title>Node9&#45;&gt;Node10</title>
<path fill="none" stroke="midnightblue" d="M1573.53,-56.4C1550.65,-46.46 1520.27,-33.26 1498.16,-23.66"/>
<polygon fill="midnightblue" stroke="midnightblue" points="1499.5,-20.43 1488.93,-19.66 1496.71,-26.85 1499.5,-20.43"/>
</g>
<!-- Node11&#45;&gt;Node9 -->
<g id="edge12" class="edge">
<title>Node11&#45;&gt;Node9</title>
<path fill="none" stroke="midnightblue" d="M1540.25,-128.73C1550.82,-119.7 1567.68,-105.27 1581.68,-93.3"/>
<polygon fill="midnightblue" stroke="midnightblue" points="1584.2,-95.75 1589.53,-86.59 1579.65,-90.43 1584.2,-95.75"/>
</g>
<!-- Node11&#45;&gt;Node10 -->
<g id="edge16" class="edge">
<title>Node11&#45;&gt;Node10</title>
<path fill="none" stroke="midnightblue" d="M1525.81,-128.81C1515.93,-108.31 1491.01,-56.65 1477.7,-29.04"/>
<polygon fill="midnightblue" stroke="midnightblue" points="1480.72,-27.24 1473.22,-19.76 1474.41,-30.28 1480.72,-27.24"/>
</g>
<!-- Node11&#45;&gt;Node12 -->
<g id="edge13" class="edge">
<title>Node11&#45;&gt;Node12</title>
<path fill="none" stroke="midnightblue" d="M1469.21,-129C1451.74,-126.78 1432.64,-124.57 1415,-123 1111.78,-95.94 1033.21,-123.61 731,-87 722.28,-85.94 713.06,-84.48 704.15,-82.89"/>
<polygon fill="midnightblue" stroke="midnightblue" points="704.76,-79.44 694.29,-81.05 703.48,-86.32 704.76,-79.44"/>
</g>
<!-- Node11&#45;&gt;Node13 -->
<g id="edge17" class="edge">
<title>Node11&#45;&gt;Node13</title>
<path fill="none" stroke="midnightblue" d="M1466.79,-128.97C1449.98,-126.85 1431.82,-124.7 1415,-123 1206.57,-101.89 1153.83,-103.75 945,-87 900.62,-83.44 849.85,-79.16 814.85,-76.18"/>
<polygon fill="midnightblue" stroke="midnightblue" points="814.78,-72.66 804.52,-75.3 814.18,-79.63 814.78,-72.66"/>
</g>
<!-- Node11&#45;&gt;Node14 -->
<g id="edge18" class="edge">
<title>Node11&#45;&gt;Node14</title>
<path fill="none" stroke="midnightblue" d="M1463.43,-129C1447.56,-127 1430.68,-124.9 1415,-123 1277.74,-106.35 1242.02,-111.82 1106,-87 1097.96,-85.53 1089.38,-83.6 1081.35,-81.62"/>
<polygon fill="midnightblue" stroke="midnightblue" points="1082.11,-78.2 1071.55,-79.12 1080.38,-84.98 1082.11,-78.2"/>
</g>
<!-- Node12&#45;&gt;Node4 -->
<g id="edge15" class="edge">
<title>Node12&#45;&gt;Node4</title>
<path fill="none" stroke="midnightblue" d="M630.5,-61.98C601.04,-51.72 551.42,-34.46 518.2,-22.9"/>
<polygon fill="midnightblue" stroke="midnightblue" points="519.05,-19.49 508.45,-19.51 516.75,-26.1 519.05,-19.49"/>
</g>
<!-- Node12&#45;&gt;Node10 -->
<g id="edge14" class="edge">
<title>Node12&#45;&gt;Node10</title>
<path fill="none" stroke="midnightblue" d="M694.69,-61.94C706.34,-59.69 719.14,-57.49 731,-56 989.4,-23.61 1301.73,-14.29 1420.23,-11.82"/>
<polygon fill="midnightblue" stroke="midnightblue" points="1420.5,-15.32 1430.43,-11.62 1420.36,-8.32 1420.5,-15.32"/>
</g>
<!-- Node16&#45;&gt;Node8 -->
<g id="edge36" class="edge">
<title>Node16&#45;&gt;Node8</title>
<path fill="none" stroke="midnightblue" d="M1162.92,-263.76C1272.21,-254.23 1462.22,-237.32 1625,-221 1638.48,-219.65 1652.73,-218.16 1666.69,-216.67"/>
<polygon fill="midnightblue" stroke="midnightblue" points="1667.22,-220.13 1676.79,-215.58 1666.47,-213.17 1667.22,-220.13"/>
</g>
<!-- Node16&#45;&gt;Node9 -->
<g id="edge23" class="edge">
<title>Node16&#45;&gt;Node9</title>
<path fill="none" stroke="midnightblue" d="M1162.77,-265.08C1300.19,-253.17 1552.55,-222.36 1607,-154 1619.75,-137.99 1617.78,-114.06 1613.64,-96.27"/>
<polygon fill="midnightblue" stroke="midnightblue" points="1617.02,-95.36 1611.06,-86.61 1610.26,-97.17 1617.02,-95.36"/>
</g>
<!-- Node16&#45;&gt;Node11 -->
<g id="edge22" class="edge">
<title>Node16&#45;&gt;Node11</title>
<path fill="none" stroke="midnightblue" d="M1102.63,-262.94C1182.24,-239.95 1400.79,-176.82 1490.63,-150.87"/>
<polygon fill="midnightblue" stroke="midnightblue" points="1491.8,-154.18 1500.43,-148.04 1489.86,-147.45 1491.8,-154.18"/>
</g>
<!-- Node16&#45;&gt;Node14 -->
<g id="edge37" class="edge">
<title>Node16&#45;&gt;Node14</title>
<path fill="none" stroke="midnightblue" d="M1055.32,-262.98C1024.4,-246.88 961.98,-208.6 943,-154 938.48,-140.99 935.67,-134.66 943,-123 944.14,-121.19 989.39,-99.83 1020.11,-85.47"/>
<polygon fill="midnightblue" stroke="midnightblue" points="1021.92,-88.49 1029.5,-81.09 1018.96,-82.15 1021.92,-88.49"/>
</g>
<!-- Node17 -->
<g id="node17" class="node">
<title>Node17</title>
<g id="a_node17"><a xlink:href="_mesh_8hpp.html" target="_top" xlink:title=" ">
<polygon fill="none" stroke="black" points="1004.5,-196 1004.5,-215 1141.5,-215 1141.5,-196 1004.5,-196"/>
<text text-anchor="middle" x="1073" y="-203" font-family="Helvetica,sans-Serif" font-size="10.00">polyfem/mesh/Mesh.hpp</text>
</a>
</g>
</g>
<!-- Node16&#45;&gt;Node17 -->
<g id="edge24" class="edge">
<title>Node16&#45;&gt;Node17</title>
<path fill="none" stroke="midnightblue" d="M1073,-262.73C1073,-253.18 1073,-237.62 1073,-225.28"/>
<polygon fill="midnightblue" stroke="midnightblue" points="1076.5,-225.13 1073,-215.13 1069.5,-225.13 1076.5,-225.13"/>
</g>
<!-- Node17&#45;&gt;Node3 -->
<g id="edge25" class="edge">
<title>Node17&#45;&gt;Node3</title>
<path fill="none" stroke="midnightblue" d="M1004.27,-196.46C898.72,-184.13 697.64,-160.62 589.73,-148"/>
<polygon fill="midnightblue" stroke="midnightblue" points="589.93,-144.5 579.59,-146.82 589.11,-151.45 589.93,-144.5"/>
</g>
<!-- Node17&#45;&gt;Node10 -->
<g id="edge33" class="edge">
<title>Node17&#45;&gt;Node10</title>
<path fill="none" stroke="midnightblue" d="M1141.53,-198.12C1235.21,-188.83 1394.08,-170.85 1415,-154 1453.48,-123 1464.55,-61.44 1467.73,-30.18"/>
<polygon fill="midnightblue" stroke="midnightblue" points="1471.25,-30.06 1468.6,-19.81 1464.27,-29.48 1471.25,-30.06"/>
</g>
<!-- Node17&#45;&gt;Node12 -->
<g id="edge29" class="edge">
<title>Node17&#45;&gt;Node12</title>
<path fill="none" stroke="midnightblue" d="M1045.9,-195.94C973.3,-173.02 774.4,-110.21 691.76,-84.11"/>
<polygon fill="midnightblue" stroke="midnightblue" points="692.63,-80.71 682.04,-81.04 690.52,-87.39 692.63,-80.71"/>
</g>
<!-- Node18 -->
<g id="node18" class="node">
<title>Node18</title>
<g id="a_node18"><a xlink:href="_navigation_8hpp.html" target="_top" xlink:title=" ">
<polygon fill="none" stroke="black" points="1274.5,-123.5 1274.5,-153.5 1405.5,-153.5 1405.5,-123.5 1274.5,-123.5"/>
<text text-anchor="start" x="1282.5" y="-141.5" font-family="Helvetica,sans-Serif" font-size="10.00">polyfem/mesh/mesh2D</text>
<text text-anchor="middle" x="1340" y="-130.5" font-family="Helvetica,sans-Serif" font-size="10.00">/Navigation.hpp</text>
</a>
</g>
</g>
<!-- Node17&#45;&gt;Node18 -->
<g id="edge26" class="edge">
<title>Node17&#45;&gt;Node18</title>
<path fill="none" stroke="midnightblue" d="M1108.18,-195.94C1149.82,-185.8 1220.09,-168.69 1272.38,-155.96"/>
<polygon fill="midnightblue" stroke="midnightblue" points="1273.36,-159.33 1282.25,-153.56 1271.71,-152.52 1273.36,-159.33"/>
</g>
<!-- Node19 -->
<g id="node19" class="node">
<title>Node19</title>
<g id="a_node19"><a xlink:title=" ">
<polygon fill="none" stroke="#bfbfbf" points="1114.5,-62 1114.5,-81 1243.5,-81 1243.5,-62 1114.5,-62"/>
<text text-anchor="middle" x="1179" y="-69" font-family="Helvetica,sans-Serif" font-size="10.00">geogram/mesh/mesh.h</text>
</a>
</g>
</g>
<!-- Node17&#45;&gt;Node19 -->
<g id="edge34" class="edge">
<title>Node17&#45;&gt;Node19</title>
<path fill="none" stroke="midnightblue" d="M1122.7,-195.98C1147.06,-189.04 1174.25,-176.5 1189,-154 1201.36,-135.14 1194.63,-108.47 1187.68,-90.85"/>
<polygon fill="midnightblue" stroke="midnightblue" points="1190.68,-88.97 1183.49,-81.19 1184.26,-91.76 1190.68,-88.97"/>
</g>
<!-- Node21 -->
<g id="node21" class="node">
<title>Node21</title>
<g id="a_node21"><a xlink:href="_hash_utils_8hpp.html" target="_top" xlink:title=" ">
<polygon fill="none" stroke="black" points="952,-129 952,-148 1104,-148 1104,-129 952,-129"/>
<text text-anchor="middle" x="1028" y="-136" font-family="Helvetica,sans-Serif" font-size="10.00">polyfem/utils/HashUtils.hpp</text>
</a>
</g>
</g>
<!-- Node17&#45;&gt;Node21 -->
<g id="edge30" class="edge">
<title>Node17&#45;&gt;Node21</title>
<path fill="none" stroke="midnightblue" d="M1066.93,-195.73C1059.98,-185.7 1048.43,-169.01 1039.71,-156.42"/>
<polygon fill="midnightblue" stroke="midnightblue" points="1042.54,-154.36 1033.97,-148.13 1036.79,-158.34 1042.54,-154.36"/>
</g>
<!-- Node23 -->
<g id="node23" class="node">
<title>Node23</title>
<g id="a_node23"><a xlink:title=" ">
<polygon fill="none" stroke="#bfbfbf" points="1122,-129 1122,-148 1180,-148 1180,-129 1122,-129"/>
<text text-anchor="middle" x="1151" y="-136" font-family="Helvetica,sans-Serif" font-size="10.00">memory</text>
</a>
</g>
</g>
<!-- Node17&#45;&gt;Node23 -->
<g id="edge35" class="edge">
<title>Node17&#45;&gt;Node23</title>
<path fill="none" stroke="midnightblue" d="M1083.52,-195.73C1096.15,-185.21 1117.54,-167.38 1132.86,-154.62"/>
<polygon fill="midnightblue" stroke="midnightblue" points="1135.21,-157.22 1140.65,-148.13 1130.72,-151.84 1135.21,-157.22"/>
</g>
<!-- Node18&#45;&gt;Node19 -->
<g id="edge27" class="edge">
<title>Node18&#45;&gt;Node19</title>
<path fill="none" stroke="midnightblue" d="M1305.07,-123.4C1276.57,-111.89 1236.71,-95.8 1209.48,-84.81"/>
<polygon fill="midnightblue" stroke="midnightblue" points="1210.65,-81.51 1200.07,-81.01 1208.03,-88 1210.65,-81.51"/>
</g>
<!-- Node20 -->
<g id="node20" class="node">
<title>Node20</title>
<g id="a_node20"><a xlink:title=" ">
<polygon fill="none" stroke="#bfbfbf" points="1262,-62 1262,-81 1410,-81 1410,-62 1262,-62"/>
<text text-anchor="middle" x="1336" y="-69" font-family="Helvetica,sans-Serif" font-size="10.00">geogram/basic/attributes.h</text>
</a>
</g>
</g>
<!-- Node18&#45;&gt;Node20 -->
<g id="edge28" class="edge">
<title>Node18&#45;&gt;Node20</title>
<path fill="none" stroke="midnightblue" d="M1339.13,-123.4C1338.55,-113.96 1337.78,-101.45 1337.15,-91.19"/>
<polygon fill="midnightblue" stroke="midnightblue" points="1340.64,-90.96 1336.54,-81.19 1333.66,-91.39 1340.64,-90.96"/>
</g>
<!-- Node21&#45;&gt;Node14 -->
<g id="edge32" class="edge">
<title>Node21&#45;&gt;Node14</title>
<path fill="none" stroke="midnightblue" d="M1030.7,-128.73C1033.67,-119.09 1038.52,-103.3 1042.34,-90.91"/>
<polygon fill="midnightblue" stroke="midnightblue" points="1045.75,-91.71 1045.35,-81.13 1039.06,-89.66 1045.75,-91.71"/>
</g>
<!-- Node22 -->
<g id="node22" class="node">
<title>Node22</title>
<g id="a_node22"><a xlink:title=" ">
<polygon fill="none" stroke="#bfbfbf" points="953.5,-62 953.5,-81 1006.5,-81 1006.5,-62 953.5,-62"/>
<text text-anchor="middle" x="980" y="-69" font-family="Helvetica,sans-Serif" font-size="10.00">cstddef</text>
</a>
</g>
</g>
<!-- Node21&#45;&gt;Node22 -->
<g id="edge31" class="edge">
<title>Node21&#45;&gt;Node22</title>
<path fill="none" stroke="midnightblue" d="M1021.53,-128.73C1014.11,-118.7 1001.8,-102.01 992.5,-89.42"/>
<polygon fill="midnightblue" stroke="midnightblue" points="995.13,-87.09 986.37,-81.13 989.5,-91.25 995.13,-87.09"/>
</g>
<!-- Node24&#45;&gt;Node3 -->
<g id="edge41" class="edge">
<title>Node24&#45;&gt;Node3</title>
<path fill="none" stroke="midnightblue" d="M590.22,-257.37C575.06,-232.97 544.02,-183 527.65,-156.65"/>
<polygon fill="midnightblue" stroke="midnightblue" points="530.59,-154.74 522.34,-148.1 524.64,-158.44 530.59,-154.74"/>
</g>
<!-- Node25&#45;&gt;Node12 -->
<g id="edge43" class="edge">
<title>Node25&#45;&gt;Node12</title>
<path fill="none" stroke="midnightblue" d="M254.19,-329.96C205.87,-307.96 89.06,-247.06 134,-190 148.59,-171.47 469.17,-108.16 600.07,-82.96"/>
<polygon fill="midnightblue" stroke="midnightblue" points="601.12,-86.33 610.28,-81 599.8,-79.45 601.12,-86.33"/>
</g>
<!-- Node26 -->
<g id="node26" class="node">
<title>Node26</title>
<g id="a_node26"><a xlink:href="autodiff_8h.html" target="_top" xlink:title=" ">
<polygon fill="none" stroke="black" points="225.5,-263 225.5,-282 288.5,-282 288.5,-263 225.5,-263"/>
<text text-anchor="middle" x="257" y="-270" font-family="Helvetica,sans-Serif" font-size="10.00">autodiff.h</text>
</a>
</g>
</g>
<!-- Node25&#45;&gt;Node26 -->
<g id="edge44" class="edge">
<title>Node25&#45;&gt;Node26</title>
<path fill="none" stroke="midnightblue" d="M271.71,-329.73C269.18,-320.09 265.06,-304.3 261.81,-291.91"/>
<polygon fill="midnightblue" stroke="midnightblue" points="265.17,-290.92 259.26,-282.13 258.4,-292.69 265.17,-290.92"/>
</g>
<!-- Node27 -->
<g id="node27" class="node">
<title>Node27</title>
<g id="a_node27"><a xlink:title=" ">
<polygon fill="none" stroke="#bfbfbf" points="290.5,-196 290.5,-215 359.5,-215 359.5,-196 290.5,-196"/>
<text text-anchor="middle" x="325" y="-203" font-family="Helvetica,sans-Serif" font-size="10.00">Eigen/Core</text>
</a>
</g>
</g>
<!-- Node26&#45;&gt;Node27 -->
<g id="edge45" class="edge">
<title>Node26&#45;&gt;Node27</title>
<path fill="none" stroke="midnightblue" d="M266.17,-262.73C276.98,-252.4 295.15,-235.04 308.44,-222.33"/>
<polygon fill="midnightblue" stroke="midnightblue" points="311.16,-224.57 315.97,-215.13 306.33,-219.51 311.16,-224.57"/>
</g>
<!-- Node28 -->
<g id="node28" class="node">
<title>Node28</title>
<g id="a_node28"><a xlink:title=" ">
<polygon fill="none" stroke="#bfbfbf" points="142.5,-196 142.5,-215 189.5,-215 189.5,-196 142.5,-196"/>
<text text-anchor="middle" x="166" y="-203" font-family="Helvetica,sans-Serif" font-size="10.00">cmath</text>
</a>
</g>
</g>
<!-- Node26&#45;&gt;Node28 -->
<g id="edge46" class="edge">
<title>Node26&#45;&gt;Node28</title>
<path fill="none" stroke="midnightblue" d="M244.73,-262.73C229.85,-252.11 204.57,-234.05 186.67,-221.26"/>
<polygon fill="midnightblue" stroke="midnightblue" points="188.25,-218.09 178.08,-215.13 184.18,-223.79 188.25,-218.09"/>
</g>
<!-- Node29 -->
<g id="node29" class="node">
<title>Node29</title>
<g id="a_node29"><a xlink:title=" ">
<polygon fill="none" stroke="#bfbfbf" points="207.5,-196 207.5,-215 272.5,-215 272.5,-196 207.5,-196"/>
<text text-anchor="middle" x="240" y="-203" font-family="Helvetica,sans-Serif" font-size="10.00">stdexcept</text>
</a>
</g>
</g>
<!-- Node26&#45;&gt;Node29 -->
<g id="edge47" class="edge">
<title>Node26&#45;&gt;Node29</title>
<path fill="none" stroke="midnightblue" d="M254.71,-262.73C252.18,-253.09 248.06,-237.3 244.81,-224.91"/>
<polygon fill="midnightblue" stroke="midnightblue" points="248.17,-223.92 242.26,-215.13 241.4,-225.69 248.17,-223.92"/>
</g>
<!-- Node31&#45;&gt;Node3 -->
<g id="edge54" class="edge">
<title>Node31&#45;&gt;Node3</title>
<path fill="none" stroke="midnightblue" d="M587.38,-463.96C545.83,-447.25 464,-406.01 464,-340.5 464,-340.5 464,-340.5 464,-271.5 464,-227.68 489.46,-181.19 505.09,-156.78"/>
<polygon fill="midnightblue" stroke="midnightblue" points="508.11,-158.56 510.71,-148.29 502.27,-154.7 508.11,-158.56"/>
</g>
<!-- Node31&#45;&gt;Node6 -->
<g id="edge57" class="edge">
<title>Node31&#45;&gt;Node6</title>
<path fill="none" stroke="midnightblue" d="M629.46,-463.87C650.13,-454.2 684.25,-438.25 710.91,-425.78"/>
<polygon fill="midnightblue" stroke="midnightblue" points="712.43,-428.93 720,-421.53 709.46,-422.59 712.43,-428.93"/>
</g>
<!-- Node31&#45;&gt;Node7 -->
<g id="edge55" class="edge">
<title>Node31&#45;&gt;Node7</title>
<path fill="none" stroke="midnightblue" d="M657.71,-463.95C748.44,-447.62 954.97,-411.75 1130,-391 1322.28,-368.2 1548.93,-352.79 1670.47,-345.44"/>
<polygon fill="midnightblue" stroke="midnightblue" points="1670.7,-348.94 1680.47,-344.84 1670.28,-341.95 1670.7,-348.94"/>
</g>
<!-- Node31&#45;&gt;Node10 -->
<g id="edge59" class="edge">
<title>Node31&#45;&gt;Node10</title>
<path fill="none" stroke="midnightblue" d="M555.3,-464.3C489.25,-451.06 388,-418.11 388,-340.5 388,-340.5 388,-340.5 388,-271.5 388,-171.71 368.83,-112.61 451,-56 491.3,-28.24 1222.59,-14.85 1420.16,-11.73"/>
<polygon fill="midnightblue" stroke="midnightblue" points="1420.3,-15.22 1430.24,-11.57 1420.19,-8.23 1420.3,-15.22"/>
</g>
<!-- Node31&#45;&gt;Node13 -->
<g id="edge60" class="edge">
<title>Node31&#45;&gt;Node13</title>
<path fill="none" stroke="midnightblue" d="M574.01,-463.91C520.02,-448.93 426,-412.51 426,-340.5 426,-340.5 426,-340.5 426,-204.5 426,-167.2 418.16,-147.81 446,-123 493.66,-80.53 668.89,-101.73 731,-87 734.23,-86.23 737.56,-85.3 740.87,-84.29"/>
<polygon fill="midnightblue" stroke="midnightblue" points="742.18,-87.54 750.56,-81.06 739.96,-80.9 742.18,-87.54"/>
</g>
<!-- Node31&#45;&gt;Node16 -->
<g id="edge56" class="edge">
<title>Node31&#45;&gt;Node16</title>
<path fill="none" stroke="midnightblue" d="M666.67,-468.03C711.61,-462.44 775.17,-449.92 824,-422 876.39,-392.04 866.88,-356.09 918,-324 948.5,-304.85 986.97,-292.27 1017.95,-284.45"/>
<polygon fill="midnightblue" stroke="midnightblue" points="1018.84,-287.83 1027.73,-282.07 1017.18,-281.03 1018.84,-287.83"/>
</g>
<!-- Node31&#45;&gt;Node25 -->
<g id="edge58" class="edge">
<title>Node31&#45;&gt;Node25</title>
<path fill="none" stroke="midnightblue" d="M555.45,-468.12C505.84,-462.5 432.24,-449.91 374,-422 339.87,-405.64 307.22,-375.37 288.97,-356.68"/>
<polygon fill="midnightblue" stroke="midnightblue" points="291.3,-354.04 281.86,-349.22 286.23,-358.87 291.3,-354.04"/>
</g>
<!-- Node32&#45;&gt;Node3 -->
<g id="edge62" class="edge">
<title>Node32&#45;&gt;Node3</title>
<path fill="none" stroke="midnightblue" d="M1165.48,-463.99C1141.21,-455.51 1104.95,-441 1077,-422 1025.8,-387.19 1029.77,-357.96 978,-324 838.42,-232.45 646.26,-173.84 560.9,-150.72"/>
<polygon fill="midnightblue" stroke="midnightblue" points="561.6,-147.28 551.04,-148.07 559.79,-154.04 561.6,-147.28"/>
</g>
<!-- Node32&#45;&gt;Node6 -->
<g id="edge63" class="edge">
<title>Node32&#45;&gt;Node6</title>
<path fill="none" stroke="midnightblue" d="M1133.76,-463.94C1054.39,-452.26 912.16,-431.35 824.93,-418.52"/>
<polygon fill="midnightblue" stroke="midnightblue" points="825.24,-415.03 814.83,-417.03 824.22,-421.95 825.24,-415.03"/>
</g>
<!-- Node32&#45;&gt;Node7 -->
<g id="edge70" class="edge">
<title>Node32&#45;&gt;Node7</title>
<path fill="none" stroke="midnightblue" d="M1263.53,-472.75C1433.89,-472.6 1852.61,-467.54 1895,-422 1921.84,-393.16 1876.46,-371.19 1830.88,-357.37"/>
<polygon fill="midnightblue" stroke="midnightblue" points="1831.75,-353.98 1821.17,-354.54 1829.8,-360.7 1831.75,-353.98"/>
</g>
<!-- Node32&#45;&gt;Node10 -->
<g id="edge74" class="edge">
<title>Node32&#45;&gt;Node10</title>
<path fill="none" stroke="midnightblue" d="M1263.74,-472.37C1421.71,-471.29 1794.91,-464.2 1913,-422 1971.99,-400.92 2028,-403.14 2028,-340.5 2028,-340.5 2028,-340.5 2028,-137.5 2028,-33.37 1654.35,-14.95 1518.03,-11.7"/>
<polygon fill="midnightblue" stroke="midnightblue" points="1517.94,-8.19 1507.86,-11.47 1517.78,-15.19 1517.94,-8.19"/>
</g>
<!-- Node32&#45;&gt;Node12 -->
<g id="edge73" class="edge">
<title>Node32&#45;&gt;Node12</title>
<path fill="none" stroke="midnightblue" d="M1174.39,-463.87C1159.48,-455.48 1139.12,-441.18 1130,-422 1124.09,-409.56 1127.35,-404.52 1130,-391 1153.46,-271.31 1271.79,-212.56 1189,-123 1154.35,-85.52 781.59,-93.79 731,-87 722.58,-85.87 713.68,-84.41 705.05,-82.86"/>
<polygon fill="midnightblue" stroke="midnightblue" points="705.57,-79.39 695.1,-81.01 704.29,-86.28 705.57,-79.39"/>
</g>
<!-- Node32&#45;&gt;Node16 -->
<g id="edge71" class="edge">
<title>Node32&#45;&gt;Node16</title>
<path fill="none" stroke="midnightblue" d="M1160.54,-463.89C1139.2,-456.37 1112.22,-443.26 1097,-422 1068.83,-382.64 1068.87,-322.45 1071.04,-292.21"/>
<polygon fill="midnightblue" stroke="midnightblue" points="1074.53,-292.46 1071.92,-282.19 1067.55,-291.85 1074.53,-292.46"/>
</g>
<!-- Node32&#45;&gt;Node25 -->
<g id="edge72" class="edge">
<title>Node32&#45;&gt;Node25</title>
<path fill="none" stroke="midnightblue" d="M1120.49,-467.8C1020.78,-460.72 834.48,-445.58 677,-422 546.54,-402.46 394.42,-368.66 319.9,-351.37"/>
<polygon fill="midnightblue" stroke="midnightblue" points="320.44,-347.9 309.91,-349.04 318.85,-354.72 320.44,-347.9"/>
</g>
<!-- Node32&#45;&gt;Node30 -->
<g id="edge75" class="edge">
<title>Node32&#45;&gt;Node30</title>
<path fill="none" stroke="midnightblue" d="M1120.39,-470.96C1076.28,-466.5 1021.08,-454.15 983,-422 964.01,-405.97 955.05,-377.75 951.02,-359.09"/>
<polygon fill="midnightblue" stroke="midnightblue" points="954.44,-358.31 949.15,-349.13 947.56,-359.61 954.44,-358.31"/>
</g>
<!-- Node33 -->
<g id="node33" class="node">
<title>Node33</title>
<g id="a_node33"><a xlink:title=" ">
<polygon fill="none" stroke="#bfbfbf" points="1139,-397 1139,-416 1245,-416 1245,-397 1139,-397"/>
<text text-anchor="middle" x="1192" y="-404" font-family="Helvetica,sans-Serif" font-size="10.00">thrust/functional.h</text>
</a>
</g>
</g>
<!-- Node32&#45;&gt;Node33 -->
<g id="edge64" class="edge">
<title>Node32&#45;&gt;Node33</title>
<path fill="none" stroke="midnightblue" d="M1192,-463.73C1192,-454.18 1192,-438.62 1192,-426.28"/>
<polygon fill="midnightblue" stroke="midnightblue" points="1195.5,-426.13 1192,-416.13 1188.5,-426.13 1195.5,-426.13"/>
</g>
<!-- Node34 -->
<g id="node34" class="node">
<title>Node34</title>
<g id="a_node34"><a xlink:title=" ">
<polygon fill="none" stroke="#bfbfbf" points="1263,-397 1263,-416 1353,-416 1353,-397 1263,-397"/>
<text text-anchor="middle" x="1308" y="-404" font-family="Helvetica,sans-Serif" font-size="10.00">thrust/reduce.h</text>
</a>
</g>
</g>
<!-- Node32&#45;&gt;Node34 -->
<g id="edge65" class="edge">
<title>Node32&#45;&gt;Node34</title>
<path fill="none" stroke="midnightblue" d="M1207.64,-463.73C1227.21,-452.77 1260.92,-433.88 1283.82,-421.05"/>
<polygon fill="midnightblue" stroke="midnightblue" points="1285.59,-424.07 1292.6,-416.13 1282.17,-417.96 1285.59,-424.07"/>
</g>
<!-- Node35 -->
<g id="node35" class="node">
<title>Node35</title>
<g id="a_node35"><a xlink:title=" ">
<polygon fill="none" stroke="#bfbfbf" points="1371.5,-397 1371.5,-416 1496.5,-416 1496.5,-397 1371.5,-397"/>
<text text-anchor="middle" x="1434" y="-404" font-family="Helvetica,sans-Serif" font-size="10.00">thrust/device_vector.h</text>
</a>
</g>
</g>
<!-- Node32&#45;&gt;Node35 -->
<g id="edge66" class="edge">
<title>Node32&#45;&gt;Node35</title>
<path fill="none" stroke="midnightblue" d="M1223.89,-463.94C1267.14,-452.32 1344.49,-431.54 1392.31,-418.7"/>
<polygon fill="midnightblue" stroke="midnightblue" points="1393.29,-422.06 1402.04,-416.08 1391.48,-415.3 1393.29,-422.06"/>
</g>
<!-- Node36 -->
<g id="node36" class="node">
<title>Node36</title>
<g id="a_node36"><a xlink:title=" ">
<polygon fill="none" stroke="#bfbfbf" points="1514.5,-397 1514.5,-416 1593.5,-416 1593.5,-397 1514.5,-397"/>
<text text-anchor="middle" x="1554" y="-404" font-family="Helvetica,sans-Serif" font-size="10.00">thrust/copy.h</text>
</a>
</g>
</g>
<!-- Node32&#45;&gt;Node36 -->
<g id="edge67" class="edge">
<title>Node32&#45;&gt;Node36</title>
<path fill="none" stroke="midnightblue" d="M1262.05,-463.97C1326.03,-455.53 1423.01,-441.12 1506,-422 1509.94,-421.09 1514.04,-420.04 1518.1,-418.91"/>
<polygon fill="midnightblue" stroke="midnightblue" points="1519.38,-422.19 1528.01,-416.04 1517.43,-415.46 1519.38,-422.19"/>
</g>
<!-- Node37 -->
<g id="node37" class="node">
<title>Node37</title>
<g id="a_node37"><a xlink:title=" ">
<polygon fill="none" stroke="#bfbfbf" points="1611.5,-397 1611.5,-416 1724.5,-416 1724.5,-397 1611.5,-397"/>
<text text-anchor="middle" x="1668" y="-404" font-family="Helvetica,sans-Serif" font-size="10.00">thrust/host_vector.h</text>
</a>
</g>
</g>
<!-- Node32&#45;&gt;Node37 -->
<g id="edge68" class="edge">
<title>Node32&#45;&gt;Node37</title>
<path fill="none" stroke="midnightblue" d="M1263.59,-465.84C1345.84,-457.68 1484.69,-442.41 1603,-422 1609.36,-420.9 1616.03,-419.6 1622.58,-418.22"/>
<polygon fill="midnightblue" stroke="midnightblue" points="1623.67,-421.57 1632.7,-416.03 1622.19,-414.73 1623.67,-421.57"/>
</g>
<!-- Node38 -->
<g id="node38" class="node">
<title>Node38</title>
<g id="a_node38"><a xlink:title=" ">
<polygon fill="none" stroke="#bfbfbf" points="1742.5,-391.5 1742.5,-421.5 1885.5,-421.5 1885.5,-391.5 1742.5,-391.5"/>
<text text-anchor="start" x="1750.5" y="-409.5" font-family="Helvetica,sans-Serif" font-size="10.00">polyfem/assembler/CUDA</text>
<text text-anchor="middle" x="1814" y="-398.5" font-family="Helvetica,sans-Serif" font-size="10.00">_utilities.cuh</text>
</a>
</g>
</g>
<!-- Node32&#45;&gt;Node38 -->
<g id="edge69" class="edge">
<title>Node32&#45;&gt;Node38</title>
<path fill="none" stroke="midnightblue" d="M1263.68,-467.8C1365.66,-460.68 1558.64,-445.57 1732.01,-422.21"/>
<polygon fill="midnightblue" stroke="midnightblue" points="1732.65,-425.65 1742.09,-420.84 1731.71,-418.72 1732.65,-425.65"/>
</g>
<!-- Node39&#45;&gt;Node6 -->
<g id="edge84" class="edge">
<title>Node39&#45;&gt;Node6</title>
<path fill="none" stroke="midnightblue" d="M283.76,-464.79C381.63,-452.76 570.22,-429.59 675.07,-416.71"/>
<polygon fill="midnightblue" stroke="midnightblue" points="675.76,-420.15 685.26,-415.46 674.9,-413.2 675.76,-420.15"/>
</g>
<!-- Node39&#45;&gt;Node10 -->
<g id="edge86" class="edge">
<title>Node39&#45;&gt;Node10</title>
<path fill="none" stroke="midnightblue" d="M207.42,-458.27C167.9,-415.08 59.4,-282.79 119,-190 196.38,-69.52 272.77,-89.45 412,-56 607.13,-9.13 1239.3,-9.49 1420.22,-10.6"/>
<polygon fill="midnightblue" stroke="midnightblue" points="1420.46,-14.1 1430.48,-10.66 1420.51,-7.1 1420.46,-14.1"/>
</g>
<!-- Node39&#45;&gt;Node25 -->
<g id="edge85" class="edge">
<title>Node39&#45;&gt;Node25</title>
<path fill="none" stroke="midnightblue" d="M226.67,-458.37C236.34,-434.29 256.01,-385.31 266.69,-358.7"/>
<polygon fill="midnightblue" stroke="midnightblue" points="270.07,-359.68 270.55,-349.1 263.57,-357.07 270.07,-359.68"/>
</g>
</g>
</svg>
