<?xml version="1.0" encoding="UTF-8" standalone="no"?>
<!DOCTYPE svg PUBLIC "-//W3C//DTD SVG 1.1//EN"
 "http://www.w3.org/Graphics/SVG/1.1/DTD/svg11.dtd">
<!-- Generated by graphviz version 2.43.0 (0)
 -->
<!-- Title: src/polyfem/assembler/NeoHookeanElasticity.cpp Pages: 1 -->
<svg width="1795pt" height="564pt"
 viewBox="0.00 0.00 1794.52 564.00" xmlns="http://www.w3.org/2000/svg" xmlns:xlink="http://www.w3.org/1999/xlink">
<g id="graph0" class="graph" transform="scale(1 1) rotate(0) translate(4 560)">
<title>src/polyfem/assembler/NeoHookeanElasticity.cpp</title>
<!-- Node1 -->
<g id="node1" class="node">
<title>Node1</title>
<g id="a_node1"><a xlink:title=" ">
<polygon fill="#bfbfbf" stroke="black" points="1291.02,-525.5 1291.02,-555.5 1437.02,-555.5 1437.02,-525.5 1291.02,-525.5"/>
<text text-anchor="start" x="1299.02" y="-543.5" font-family="Helvetica,sans-Serif" font-size="10.00">src/polyfem/assembler</text>
<text text-anchor="middle" x="1364.02" y="-532.5" font-family="Helvetica,sans-Serif" font-size="10.00">/NeoHookeanElasticity.cpp</text>
</a>
</g>
</g>
<!-- Node2 -->
<g id="node2" class="node">
<title>Node2</title>
<g id="a_node2"><a xlink:href="_neo_hookean_elasticity_8hpp.html" target="_top" xlink:title=" ">
<polygon fill="none" stroke="black" points="671.52,-464 671.52,-483 814.52,-483 814.52,-464 671.52,-464"/>
<text text-anchor="middle" x="743.02" y="-471" font-family="Helvetica,sans-Serif" font-size="10.00">NeoHookeanElasticity.hpp</text>
</a>
</g>
</g>
<!-- Node1&#45;&gt;Node2 -->
<g id="edge1" class="edge">
<title>Node1&#45;&gt;Node2</title>
<path fill="none" stroke="midnightblue" d="M1290.96,-531.85C1174.33,-519.64 946.83,-495.83 824.88,-483.07"/>
<polygon fill="midnightblue" stroke="midnightblue" points="825.16,-479.58 814.85,-482.02 824.43,-486.54 825.16,-479.58"/>
</g>
<!-- Node11 -->
<g id="node11" class="node">
<title>Node11</title>
<g id="a_node11"><a xlink:href="_basis_8hpp.html" target="_top" xlink:title=" ">
<polygon fill="none" stroke="black" points="220.02,-129 220.02,-148 356.02,-148 356.02,-129 220.02,-129"/>
<text text-anchor="middle" x="288.02" y="-136" font-family="Helvetica,sans-Serif" font-size="10.00">polyfem/basis/Basis.hpp</text>
</a>
</g>
</g>
<!-- Node1&#45;&gt;Node11 -->
<g id="edge65" class="edge">
<title>Node1&#45;&gt;Node11</title>
<path fill="none" stroke="midnightblue" d="M1290.9,-537.68C1049.88,-530.9 291.84,-503.25 222.02,-422 187.1,-381.36 255.83,-213.1 280.03,-157.46"/>
<polygon fill="midnightblue" stroke="midnightblue" points="283.29,-158.73 284.11,-148.17 276.89,-155.91 283.29,-158.73"/>
</g>
<!-- Node37 -->
<g id="node37" class="node">
<title>Node37</title>
<g id="a_node37"><a xlink:href="auto__elasticity__rhs_8hpp.html" target="_top" xlink:title=" ">
<polygon fill="none" stroke="black" points="1301.52,-458.5 1301.52,-488.5 1426.52,-488.5 1426.52,-458.5 1301.52,-458.5"/>
<text text-anchor="start" x="1309.52" y="-476.5" font-family="Helvetica,sans-Serif" font-size="10.00">polyfem/autogen/auto</text>
<text text-anchor="middle" x="1364.02" y="-465.5" font-family="Helvetica,sans-Serif" font-size="10.00">_elasticity_rhs.hpp</text>
</a>
</g>
</g>
<!-- Node1&#45;&gt;Node37 -->
<g id="edge66" class="edge">
<title>Node1&#45;&gt;Node37</title>
<path fill="none" stroke="midnightblue" d="M1364.02,-525.4C1364.02,-517.64 1364.02,-507.81 1364.02,-498.86"/>
<polygon fill="midnightblue" stroke="midnightblue" points="1367.52,-498.58 1364.02,-488.58 1360.52,-498.58 1367.52,-498.58"/>
</g>
<!-- Node38 -->
<g id="node38" class="node">
<title>Node38</title>
<g id="a_node38"><a xlink:href="_matrix_utils_8hpp.html" target="_top" xlink:title=" ">
<polygon fill="none" stroke="black" points="1627.52,-129 1627.52,-148 1786.52,-148 1786.52,-129 1627.52,-129"/>
<text text-anchor="middle" x="1707.02" y="-136" font-family="Helvetica,sans-Serif" font-size="10.00">polyfem/utils/MatrixUtils.hpp</text>
</a>
</g>
</g>
<!-- Node1&#45;&gt;Node38 -->
<g id="edge70" class="edge">
<title>Node1&#45;&gt;Node38</title>
<path fill="none" stroke="midnightblue" d="M1437.09,-535.09C1518.26,-525.76 1638.02,-496.87 1638.02,-407.5 1638.02,-407.5 1638.02,-407.5 1638.02,-271.5 1638.02,-225.44 1671.43,-179.57 1691.75,-155.93"/>
<polygon fill="midnightblue" stroke="midnightblue" points="1694.54,-158.06 1698.56,-148.26 1689.3,-153.41 1694.54,-158.06"/>
</g>
<!-- Node39 -->
<g id="node39" class="node">
<title>Node39</title>
<g id="a_node39"><a xlink:title=" ">
<polygon fill="none" stroke="#bfbfbf" points="1666.02,-464 1666.02,-483 1734.02,-483 1734.02,-464 1666.02,-464"/>
<text text-anchor="middle" x="1700.02" y="-471" font-family="Helvetica,sans-Serif" font-size="10.00">igl/Timer.h</text>
</a>
</g>
</g>
<!-- Node1&#45;&gt;Node39 -->
<g id="edge74" class="edge">
<title>Node1&#45;&gt;Node39</title>
<path fill="none" stroke="midnightblue" d="M1437.31,-529.13C1495.81,-520.26 1579.67,-506.21 1652.02,-489 1655.91,-488.07 1659.95,-487.01 1663.96,-485.9"/>
<polygon fill="midnightblue" stroke="midnightblue" points="1665.14,-489.2 1673.77,-483.05 1663.19,-482.48 1665.14,-489.2"/>
</g>
<!-- Node3 -->
<g id="node3" class="node">
<title>Node3</title>
<g id="a_node3"><a xlink:href="_common_8hpp.html" target="_top" xlink:title=" ">
<polygon fill="none" stroke="black" points="1085.52,-129 1085.52,-148 1210.52,-148 1210.52,-129 1085.52,-129"/>
<text text-anchor="middle" x="1148.02" y="-136" font-family="Helvetica,sans-Serif" font-size="10.00">polyfem/Common.hpp</text>
</a>
</g>
</g>
<!-- Node2&#45;&gt;Node3 -->
<g id="edge2" class="edge">
<title>Node2&#45;&gt;Node3</title>
<path fill="none" stroke="midnightblue" d="M814.75,-470.26C943.44,-465.51 1202.75,-452.24 1230.02,-422 1301.82,-342.38 1200.72,-203.37 1162.01,-155.92"/>
<polygon fill="midnightblue" stroke="midnightblue" points="1164.64,-153.61 1155.56,-148.16 1159.26,-158.08 1164.64,-153.61"/>
</g>
<!-- Node6 -->
<g id="node6" class="node">
<title>Node6</title>
<g id="a_node6"><a xlink:href="_elasticity_utils_8hpp.html" target="_top" xlink:title=" ">
<polygon fill="none" stroke="black" points="1092.52,-391.5 1092.52,-421.5 1221.52,-421.5 1221.52,-391.5 1092.52,-391.5"/>
<text text-anchor="start" x="1100.52" y="-409.5" font-family="Helvetica,sans-Serif" font-size="10.00">polyfem/utils/Elasticity</text>
<text text-anchor="middle" x="1157.02" y="-398.5" font-family="Helvetica,sans-Serif" font-size="10.00">Utils.hpp</text>
</a>
</g>
</g>
<!-- Node2&#45;&gt;Node6 -->
<g id="edge5" class="edge">
<title>Node2&#45;&gt;Node6</title>
<path fill="none" stroke="midnightblue" d="M806.45,-463.97C872.71,-454.85 979.91,-439.55 1082.56,-422.03"/>
<polygon fill="midnightblue" stroke="midnightblue" points="1083.22,-425.47 1092.48,-420.33 1082.03,-418.57 1083.22,-425.47"/>
</g>
<!-- Node7 -->
<g id="node7" class="node">
<title>Node7</title>
<g id="a_node7"><a xlink:href="_element_assembly_values_8hpp.html" target="_top" xlink:title=" ">
<polygon fill="none" stroke="black" points="559.52,-324.5 559.52,-354.5 714.52,-354.5 714.52,-324.5 559.52,-324.5"/>
<text text-anchor="start" x="567.52" y="-342.5" font-family="Helvetica,sans-Serif" font-size="10.00">polyfem/assembler/Element</text>
<text text-anchor="middle" x="637.02" y="-331.5" font-family="Helvetica,sans-Serif" font-size="10.00">AssemblyValues.hpp</text>
</a>
</g>
</g>
<!-- Node2&#45;&gt;Node7 -->
<g id="edge59" class="edge">
<title>Node2&#45;&gt;Node7</title>
<path fill="none" stroke="midnightblue" d="M731.15,-463.74C718.9,-454.32 699.71,-438.47 686.02,-422 671.02,-403.96 657.58,-380.83 648.58,-363.83"/>
<polygon fill="midnightblue" stroke="midnightblue" points="651.52,-361.89 643.82,-354.61 645.3,-365.1 651.52,-361.89"/>
</g>
<!-- Node10 -->
<g id="node10" class="node">
<title>Node10</title>
<g id="a_node10"><a xlink:title=" ">
<polygon fill="none" stroke="#bfbfbf" points="383.52,-0.5 383.52,-19.5 460.52,-19.5 460.52,-0.5 383.52,-0.5"/>
<text text-anchor="middle" x="422.02" y="-7.5" font-family="Helvetica,sans-Serif" font-size="10.00">Eigen/Dense</text>
</a>
</g>
</g>
<!-- Node2&#45;&gt;Node10 -->
<g id="edge63" class="edge">
<title>Node2&#45;&gt;Node10</title>
<path fill="none" stroke="midnightblue" d="M671.32,-471.31C570.01,-468.33 379.73,-457.97 222.02,-422 119.55,-398.63 0.02,-445.61 0.02,-340.5 0.02,-340.5 0.02,-340.5 0.02,-137.5 0.02,-98.9 -0.32,-79.85 30.02,-56 82.2,-14.98 280,-10.28 373.06,-10.41"/>
<polygon fill="midnightblue" stroke="midnightblue" points="373.33,-13.91 383.34,-10.45 373.35,-6.91 373.33,-13.91"/>
</g>
<!-- Node12 -->
<g id="node12" class="node">
<title>Node12</title>
<g id="a_node12"><a xlink:href="_types_8hpp.html" target="_top" xlink:title=" ">
<polygon fill="none" stroke="black" points="1278.52,-62 1278.52,-81 1411.52,-81 1411.52,-62 1278.52,-62"/>
<text text-anchor="middle" x="1345.02" y="-69" font-family="Helvetica,sans-Serif" font-size="10.00">polyfem/utils/Types.hpp</text>
</a>
</g>
</g>
<!-- Node2&#45;&gt;Node12 -->
<g id="edge62" class="edge">
<title>Node2&#45;&gt;Node12</title>
<path fill="none" stroke="midnightblue" d="M814.7,-469.41C946.81,-463.14 1218.43,-447.33 1253.02,-422 1284.83,-398.71 1288.02,-379.92 1288.02,-340.5 1288.02,-340.5 1288.02,-340.5 1288.02,-204.5 1288.02,-160.21 1315.41,-113.9 1332.21,-89.65"/>
<polygon fill="midnightblue" stroke="midnightblue" points="1335.28,-91.38 1338.26,-81.21 1329.59,-87.3 1335.28,-91.38"/>
</g>
<!-- Node16 -->
<g id="node16" class="node">
<title>Node16</title>
<g id="a_node16"><a xlink:href="_element_bases_8hpp.html" target="_top" xlink:title=" ">
<polygon fill="none" stroke="black" points="491.52,-263 491.52,-282 670.52,-282 670.52,-263 491.52,-263"/>
<text text-anchor="middle" x="581.02" y="-270" font-family="Helvetica,sans-Serif" font-size="10.00">polyfem/basis/ElementBases.hpp</text>
</a>
</g>
</g>
<!-- Node2&#45;&gt;Node16 -->
<g id="edge60" class="edge">
<title>Node2&#45;&gt;Node16</title>
<path fill="none" stroke="midnightblue" d="M671.3,-470.49C539.65,-466.05 270.26,-453.22 242.02,-422 165.92,-337.84 356.12,-299.13 481.44,-283.21"/>
<polygon fill="midnightblue" stroke="midnightblue" points="481.98,-286.67 491.47,-281.96 481.12,-279.72 481.98,-286.67"/>
</g>
<!-- Node25 -->
<g id="node25" class="node">
<title>Node25</title>
<g id="a_node25"><a xlink:href="_autodiff_types_8hpp.html" target="_top" xlink:title=" ">
<polygon fill="none" stroke="black" points="1354.52,-330 1354.52,-349 1525.52,-349 1525.52,-330 1354.52,-330"/>
<text text-anchor="middle" x="1440.02" y="-337" font-family="Helvetica,sans-Serif" font-size="10.00">polyfem/utils/AutodiffTypes.hpp</text>
</a>
</g>
</g>
<!-- Node2&#45;&gt;Node25 -->
<g id="edge61" class="edge">
<title>Node2&#45;&gt;Node25</title>
<path fill="none" stroke="midnightblue" d="M814.68,-469.95C944.47,-464.68 1213.22,-450.62 1302.02,-422 1348.45,-407.04 1396.01,-374.34 1421.38,-355.22"/>
<polygon fill="midnightblue" stroke="midnightblue" points="1423.58,-357.94 1429.39,-349.08 1419.32,-352.39 1423.58,-357.94"/>
</g>
<!-- Node30 -->
<g id="node30" class="node">
<title>Node30</title>
<g id="a_node30"><a xlink:title=" ">
<polygon fill="none" stroke="#bfbfbf" points="745.02,-330 745.02,-349 787.02,-349 787.02,-330 745.02,-330"/>
<text text-anchor="middle" x="766.02" y="-337" font-family="Helvetica,sans-Serif" font-size="10.00">array</text>
</a>
</g>
</g>
<!-- Node2&#45;&gt;Node30 -->
<g id="edge64" class="edge">
<title>Node2&#45;&gt;Node30</title>
<path fill="none" stroke="midnightblue" d="M730.17,-463.83C718.24,-454.93 701.27,-439.89 694.02,-422 688.85,-409.23 687.66,-403.22 694.02,-391 702.83,-374.06 720.21,-361.62 735.69,-353.33"/>
<polygon fill="midnightblue" stroke="midnightblue" points="737.6,-356.29 744.99,-348.69 734.48,-350.02 737.6,-356.29"/>
</g>
<!-- Node31 -->
<g id="node31" class="node">
<title>Node31</title>
<g id="a_node31"><a xlink:title=" ">
<polygon fill="none" stroke="#bfbfbf" points="251.02,-397 251.02,-416 357.02,-416 357.02,-397 251.02,-397"/>
<text text-anchor="middle" x="304.02" y="-404" font-family="Helvetica,sans-Serif" font-size="10.00">thrust/functional.h</text>
</a>
</g>
</g>
<!-- Node2&#45;&gt;Node31 -->
<g id="edge53" class="edge">
<title>Node2&#45;&gt;Node31</title>
<path fill="none" stroke="midnightblue" d="M671.48,-465C595.4,-456.54 471.73,-441.39 366.02,-422 360.17,-420.93 354.04,-419.66 348.01,-418.34"/>
<polygon fill="midnightblue" stroke="midnightblue" points="348.53,-414.87 338.01,-416.07 346.99,-421.7 348.53,-414.87"/>
</g>
<!-- Node32 -->
<g id="node32" class="node">
<title>Node32</title>
<g id="a_node32"><a xlink:title=" ">
<polygon fill="none" stroke="#bfbfbf" points="375.02,-397 375.02,-416 465.02,-416 465.02,-397 375.02,-397"/>
<text text-anchor="middle" x="420.02" y="-404" font-family="Helvetica,sans-Serif" font-size="10.00">thrust/reduce.h</text>
</a>
</g>
</g>
<!-- Node2&#45;&gt;Node32 -->
<g id="edge54" class="edge">
<title>Node2&#45;&gt;Node32</title>
<path fill="none" stroke="midnightblue" d="M691.21,-463.99C636.86,-454.78 549.08,-439.1 474.02,-422 469.53,-420.98 464.86,-419.84 460.22,-418.66"/>
<polygon fill="midnightblue" stroke="midnightblue" points="460.75,-415.18 450.19,-416.04 458.98,-421.95 460.75,-415.18"/>
</g>
<!-- Node33 -->
<g id="node33" class="node">
<title>Node33</title>
<g id="a_node33"><a xlink:title=" ">
<polygon fill="none" stroke="#bfbfbf" points="483.52,-397 483.52,-416 608.52,-416 608.52,-397 483.52,-397"/>
<text text-anchor="middle" x="546.02" y="-404" font-family="Helvetica,sans-Serif" font-size="10.00">thrust/device_vector.h</text>
</a>
</g>
</g>
<!-- Node2&#45;&gt;Node33 -->
<g id="edge55" class="edge">
<title>Node2&#45;&gt;Node33</title>
<path fill="none" stroke="midnightblue" d="M716.86,-463.87C682.18,-452.42 620.82,-432.18 581.85,-419.32"/>
<polygon fill="midnightblue" stroke="midnightblue" points="582.57,-415.87 571.98,-416.06 580.38,-422.52 582.57,-415.87"/>
</g>
<!-- Node34 -->
<g id="node34" class="node">
<title>Node34</title>
<g id="a_node34"><a xlink:title=" ">
<polygon fill="none" stroke="#bfbfbf" points="703.52,-397 703.52,-416 782.52,-416 782.52,-397 703.52,-397"/>
<text text-anchor="middle" x="743.02" y="-404" font-family="Helvetica,sans-Serif" font-size="10.00">thrust/copy.h</text>
</a>
</g>
</g>
<!-- Node2&#45;&gt;Node34 -->
<g id="edge56" class="edge">
<title>Node2&#45;&gt;Node34</title>
<path fill="none" stroke="midnightblue" d="M743.02,-463.73C743.02,-454.18 743.02,-438.62 743.02,-426.28"/>
<polygon fill="midnightblue" stroke="midnightblue" points="746.52,-426.13 743.02,-416.13 739.52,-426.13 746.52,-426.13"/>
</g>
<!-- Node35 -->
<g id="node35" class="node">
<title>Node35</title>
<g id="a_node35"><a xlink:title=" ">
<polygon fill="none" stroke="#bfbfbf" points="800.52,-397 800.52,-416 913.52,-416 913.52,-397 800.52,-397"/>
<text text-anchor="middle" x="857.02" y="-404" font-family="Helvetica,sans-Serif" font-size="10.00">thrust/host_vector.h</text>
</a>
</g>
</g>
<!-- Node2&#45;&gt;Node35 -->
<g id="edge57" class="edge">
<title>Node2&#45;&gt;Node35</title>
<path fill="none" stroke="midnightblue" d="M758.4,-463.73C777.54,-452.82 810.46,-434.05 832.96,-421.22"/>
<polygon fill="midnightblue" stroke="midnightblue" points="834.94,-424.12 841.89,-416.13 831.47,-418.04 834.94,-424.12"/>
</g>
<!-- Node36 -->
<g id="node36" class="node">
<title>Node36</title>
<g id="a_node36"><a xlink:title=" ">
<polygon fill="none" stroke="#bfbfbf" points="931.52,-391.5 931.52,-421.5 1074.52,-421.5 1074.52,-391.5 931.52,-391.5"/>
<text text-anchor="start" x="939.52" y="-409.5" font-family="Helvetica,sans-Serif" font-size="10.00">polyfem/assembler/CUDA</text>
<text text-anchor="middle" x="1003.02" y="-398.5" font-family="Helvetica,sans-Serif" font-size="10.00">_utilities.cuh</text>
</a>
</g>
</g>
<!-- Node2&#45;&gt;Node36 -->
<g id="edge58" class="edge">
<title>Node2&#45;&gt;Node36</title>
<path fill="none" stroke="midnightblue" d="M777.28,-463.94C817.74,-453.82 885.97,-436.76 936.85,-424.04"/>
<polygon fill="midnightblue" stroke="midnightblue" points="937.93,-427.38 946.78,-421.56 936.23,-420.59 937.93,-427.38"/>
</g>
<!-- Node4 -->
<g id="node4" class="node">
<title>Node4</title>
<g id="a_node4"><a xlink:title=" ">
<polygon fill="none" stroke="#bfbfbf" points="1305.02,-0.5 1305.02,-19.5 1385.02,-19.5 1385.02,-0.5 1305.02,-0.5"/>
<text text-anchor="middle" x="1345.02" y="-7.5" font-family="Helvetica,sans-Serif" font-size="10.00">Eigen/Sparse</text>
</a>
</g>
</g>
<!-- Node3&#45;&gt;Node4 -->
<g id="edge3" class="edge">
<title>Node3&#45;&gt;Node4</title>
<path fill="none" stroke="midnightblue" d="M1160.23,-128.93C1181.89,-113.81 1228.56,-81.58 1269.02,-56 1286.3,-45.08 1306.2,-33.33 1321.3,-24.57"/>
<polygon fill="midnightblue" stroke="midnightblue" points="1323.1,-27.57 1330.01,-19.54 1319.6,-21.51 1323.1,-27.57"/>
</g>
<!-- Node5 -->
<g id="node5" class="node">
<title>Node5</title>
<g id="a_node5"><a xlink:title=" ">
<polygon fill="none" stroke="#bfbfbf" points="1074.02,-62 1074.02,-81 1184.02,-81 1184.02,-62 1074.02,-62"/>
<text text-anchor="middle" x="1129.02" y="-69" font-family="Helvetica,sans-Serif" font-size="10.00">nlohmann/json.hpp</text>
</a>
</g>
</g>
<!-- Node3&#45;&gt;Node5 -->
<g id="edge4" class="edge">
<title>Node3&#45;&gt;Node5</title>
<path fill="none" stroke="midnightblue" d="M1145.46,-128.73C1142.64,-119.09 1138.02,-103.3 1134.4,-90.91"/>
<polygon fill="midnightblue" stroke="midnightblue" points="1137.71,-89.74 1131.54,-81.13 1130.99,-91.71 1137.71,-89.74"/>
</g>
<!-- Node6&#45;&gt;Node3 -->
<g id="edge6" class="edge">
<title>Node6&#45;&gt;Node3</title>
<path fill="none" stroke="midnightblue" d="M1162.39,-391.2C1171.66,-364.77 1189.03,-306.44 1182.02,-257 1176.9,-220.88 1163.34,-180.32 1154.98,-157.55"/>
<polygon fill="midnightblue" stroke="midnightblue" points="1158.24,-156.29 1151.45,-148.16 1151.69,-158.75 1158.24,-156.29"/>
</g>
<!-- Node6&#45;&gt;Node7 -->
<g id="edge7" class="edge">
<title>Node6&#45;&gt;Node7</title>
<path fill="none" stroke="midnightblue" d="M1092.51,-392.5C1089.3,-391.97 1086.13,-391.46 1083.02,-391 929.68,-368.07 889.87,-374.24 736.02,-355 732.31,-354.54 728.53,-354.05 724.71,-353.54"/>
<polygon fill="midnightblue" stroke="midnightblue" points="724.91,-350.04 714.53,-352.17 723.97,-356.98 724.91,-350.04"/>
</g>
<!-- Node6&#45;&gt;Node10 -->
<g id="edge49" class="edge">
<title>Node6&#45;&gt;Node10</title>
<path fill="none" stroke="midnightblue" d="M1135.73,-391.19C1107.37,-371.15 1057.27,-332.18 1027.02,-288 963.5,-195.2 1020.58,-116.87 926.02,-56 888.33,-31.74 590.41,-17.56 471.14,-12.81"/>
<polygon fill="midnightblue" stroke="midnightblue" points="470.97,-9.3 460.84,-12.4 470.69,-16.29 470.97,-9.3"/>
</g>
<!-- Node6&#45;&gt;Node12 -->
<g id="edge48" class="edge">
<title>Node6&#45;&gt;Node12</title>
<path fill="none" stroke="midnightblue" d="M1186.32,-391.4C1223.05,-374.05 1288.24,-344.42 1346.02,-324 1402.15,-304.17 1423.52,-317.84 1475.02,-288 1511.73,-266.73 1526.64,-260.14 1543.02,-221 1573.56,-148.05 1457.84,-103.24 1390.39,-83.81"/>
<polygon fill="midnightblue" stroke="midnightblue" points="1390.98,-80.34 1380.4,-81.02 1389.09,-87.08 1390.98,-80.34"/>
</g>
<!-- Node13 -->
<g id="node13" class="node">
<title>Node13</title>
<g id="a_node13"><a xlink:title=" ">
<polygon fill="none" stroke="#bfbfbf" points="322.52,-62 322.52,-81 387.52,-81 387.52,-62 322.52,-62"/>
<text text-anchor="middle" x="355.02" y="-69" font-family="Helvetica,sans-Serif" font-size="10.00">functional</text>
</a>
</g>
</g>
<!-- Node6&#45;&gt;Node13 -->
<g id="edge52" class="edge">
<title>Node6&#45;&gt;Node13</title>
<path fill="none" stroke="midnightblue" d="M1101.54,-391.47C1064.2,-381.79 1013.95,-368.32 970.02,-355 839.42,-315.41 810.23,-294.54 679.02,-257 612.28,-237.9 589.36,-251.56 527.02,-221 458.7,-187.5 395.7,-120.19 368.78,-89.03"/>
<polygon fill="midnightblue" stroke="midnightblue" points="371.31,-86.61 362.17,-81.26 365.98,-91.14 371.31,-86.61"/>
</g>
<!-- Node14 -->
<g id="node14" class="node">
<title>Node14</title>
<g id="a_node14"><a xlink:title=" ">
<polygon fill="none" stroke="#bfbfbf" points="870.52,-62 870.52,-81 917.52,-81 917.52,-62 870.52,-62"/>
<text text-anchor="middle" x="894.02" y="-69" font-family="Helvetica,sans-Serif" font-size="10.00">vector</text>
</a>
</g>
</g>
<!-- Node6&#45;&gt;Node14 -->
<g id="edge50" class="edge">
<title>Node6&#45;&gt;Node14</title>
<path fill="none" stroke="midnightblue" d="M1092.48,-392.07C1053.28,-382.7 1008.17,-369.34 994.02,-355 967.51,-328.11 970.02,-311.26 970.02,-273.5 970.02,-273.5 970.02,-273.5 970.02,-204.5 970.02,-157.19 932.9,-111.54 910.55,-88.33"/>
<polygon fill="midnightblue" stroke="midnightblue" points="912.88,-85.71 903.34,-81.09 907.92,-90.65 912.88,-85.71"/>
</g>
<!-- Node6&#45;&gt;Node16 -->
<g id="edge39" class="edge">
<title>Node6&#45;&gt;Node16</title>
<path fill="none" stroke="midnightblue" d="M1092.37,-392.69C1024.4,-379.19 924.86,-359.29 907.02,-355 857.22,-343.03 845.63,-336.75 796.02,-324 739,-309.35 673.04,-294.11 629.37,-284.25"/>
<polygon fill="midnightblue" stroke="midnightblue" points="630.11,-280.83 619.59,-282.05 628.58,-287.66 630.11,-280.83"/>
</g>
<!-- Node24 -->
<g id="node24" class="node">
<title>Node24</title>
<g id="a_node24"><a xlink:href="_expression_value_8hpp.html" target="_top" xlink:title=" ">
<polygon fill="none" stroke="black" points="1036.52,-257.5 1036.52,-287.5 1173.52,-287.5 1173.52,-257.5 1036.52,-257.5"/>
<text text-anchor="start" x="1044.52" y="-275.5" font-family="Helvetica,sans-Serif" font-size="10.00">polyfem/utils/Expression</text>
<text text-anchor="middle" x="1105.02" y="-264.5" font-family="Helvetica,sans-Serif" font-size="10.00">Value.hpp</text>
</a>
</g>
</g>
<!-- Node6&#45;&gt;Node24 -->
<g id="edge40" class="edge">
<title>Node6&#45;&gt;Node24</title>
<path fill="none" stroke="midnightblue" d="M1151.46,-391.37C1142.58,-368.85 1125.13,-324.53 1114.33,-297.12"/>
<polygon fill="midnightblue" stroke="midnightblue" points="1117.47,-295.55 1110.55,-287.52 1110.96,-298.11 1117.47,-295.55"/>
</g>
<!-- Node6&#45;&gt;Node25 -->
<g id="edge42" class="edge">
<title>Node6&#45;&gt;Node25</title>
<path fill="none" stroke="midnightblue" d="M1218.08,-391.48C1270.57,-379.42 1345.17,-362.29 1393.09,-351.28"/>
<polygon fill="midnightblue" stroke="midnightblue" points="1393.93,-354.68 1402.89,-349.03 1392.36,-347.86 1393.93,-354.68"/>
</g>
<!-- Node6&#45;&gt;Node30 -->
<g id="edge51" class="edge">
<title>Node6&#45;&gt;Node30</title>
<path fill="none" stroke="midnightblue" d="M1092.48,-392.68C1089.28,-392.1 1086.12,-391.54 1083.02,-391 978.05,-372.75 951.12,-372.5 846.02,-355 829.89,-352.31 811.97,-349.09 797.19,-346.36"/>
<polygon fill="midnightblue" stroke="midnightblue" points="797.52,-342.86 787.05,-344.48 796.24,-349.75 797.52,-342.86"/>
</g>
<!-- Node8 -->
<g id="node8" class="node">
<title>Node8</title>
<g id="a_node8"><a xlink:href="_assembly_values_8hpp.html" target="_top" xlink:title=" ">
<polygon fill="none" stroke="black" points="66.02,-190.5 66.02,-220.5 228.02,-220.5 228.02,-190.5 66.02,-190.5"/>
<text text-anchor="start" x="74.02" y="-208.5" font-family="Helvetica,sans-Serif" font-size="10.00">polyfem/assembler/Assembly</text>
<text text-anchor="middle" x="147.02" y="-197.5" font-family="Helvetica,sans-Serif" font-size="10.00">Values.hpp</text>
</a>
</g>
</g>
<!-- Node7&#45;&gt;Node8 -->
<g id="edge8" class="edge">
<title>Node7&#45;&gt;Node8</title>
<path fill="none" stroke="midnightblue" d="M585.05,-324.5C494.08,-299.99 306.44,-249.45 208.92,-223.18"/>
<polygon fill="midnightblue" stroke="midnightblue" points="209.77,-219.78 199.2,-220.56 207.95,-226.54 209.77,-219.78"/>
</g>
<!-- Node7&#45;&gt;Node14 -->
<g id="edge38" class="edge">
<title>Node7&#45;&gt;Node14</title>
<path fill="none" stroke="midnightblue" d="M679.38,-324.45C742.23,-300.88 857.07,-246.63 897.02,-154 905.76,-133.74 902.75,-107.94 899.05,-90.85"/>
<polygon fill="midnightblue" stroke="midnightblue" points="902.42,-89.91 896.64,-81.03 895.63,-91.58 902.42,-89.91"/>
</g>
<!-- Node7&#45;&gt;Node16 -->
<g id="edge21" class="edge">
<title>Node7&#45;&gt;Node16</title>
<path fill="none" stroke="midnightblue" d="M624.87,-324.4C616.14,-314.26 604.34,-300.57 595.18,-289.94"/>
<polygon fill="midnightblue" stroke="midnightblue" points="597.69,-287.49 588.51,-282.19 592.39,-292.06 597.69,-287.49"/>
</g>
<!-- Node9 -->
<g id="node9" class="node">
<title>Node9</title>
<g id="a_node9"><a xlink:href="_quadrature_8hpp.html" target="_top" xlink:title=" ">
<polygon fill="none" stroke="black" points="39.52,-56.5 39.52,-86.5 152.52,-86.5 152.52,-56.5 39.52,-56.5"/>
<text text-anchor="start" x="47.52" y="-74.5" font-family="Helvetica,sans-Serif" font-size="10.00">polyfem/quadrature</text>
<text text-anchor="middle" x="96.02" y="-63.5" font-family="Helvetica,sans-Serif" font-size="10.00">/Quadrature.hpp</text>
</a>
</g>
</g>
<!-- Node8&#45;&gt;Node9 -->
<g id="edge9" class="edge">
<title>Node8&#45;&gt;Node9</title>
<path fill="none" stroke="midnightblue" d="M125.73,-190.38C114.29,-181.46 101.29,-168.84 95.02,-154 87.38,-135.93 88.31,-113.53 90.77,-96.79"/>
<polygon fill="midnightblue" stroke="midnightblue" points="94.25,-97.16 92.53,-86.71 87.36,-95.96 94.25,-97.16"/>
</g>
<!-- Node8&#45;&gt;Node10 -->
<g id="edge19" class="edge">
<title>Node8&#45;&gt;Node10</title>
<path fill="none" stroke="midnightblue" d="M156.59,-190.48C168.41,-173.61 189.61,-144.83 211.02,-123 243.98,-89.4 251.96,-78.99 293.02,-56 319.52,-41.17 351.77,-29.92 377.4,-22.38"/>
<polygon fill="midnightblue" stroke="midnightblue" points="378.57,-25.68 387.22,-19.57 376.65,-18.95 378.57,-25.68"/>
</g>
<!-- Node8&#45;&gt;Node11 -->
<g id="edge11" class="edge">
<title>Node8&#45;&gt;Node11</title>
<path fill="none" stroke="midnightblue" d="M177.62,-190.4C202.25,-179.04 236.57,-163.22 260.38,-152.24"/>
<polygon fill="midnightblue" stroke="midnightblue" points="261.95,-155.37 269.57,-148.01 259.02,-149.02 261.95,-155.37"/>
</g>
<!-- Node15 -->
<g id="node15" class="node">
<title>Node15</title>
<g id="a_node15"><a xlink:title=" ">
<polygon fill="none" stroke="#bfbfbf" points="104.02,-129 104.02,-148 164.02,-148 164.02,-129 104.02,-129"/>
<text text-anchor="middle" x="134.02" y="-136" font-family="Helvetica,sans-Serif" font-size="10.00">iostream</text>
</a>
</g>
</g>
<!-- Node8&#45;&gt;Node15 -->
<g id="edge20" class="edge">
<title>Node8&#45;&gt;Node15</title>
<path fill="none" stroke="midnightblue" d="M144.2,-190.4C142.31,-180.96 139.81,-168.45 137.76,-158.19"/>
<polygon fill="midnightblue" stroke="midnightblue" points="141.15,-157.31 135.76,-148.19 134.29,-158.69 141.15,-157.31"/>
</g>
<!-- Node9&#45;&gt;Node10 -->
<g id="edge10" class="edge">
<title>Node9&#45;&gt;Node10</title>
<path fill="none" stroke="midnightblue" d="M152.81,-60.14C215.1,-48.77 314.06,-30.7 373.07,-19.94"/>
<polygon fill="midnightblue" stroke="midnightblue" points="374.04,-23.32 383.24,-18.08 372.78,-16.43 374.04,-23.32"/>
</g>
<!-- Node11&#45;&gt;Node9 -->
<g id="edge12" class="edge">
<title>Node11&#45;&gt;Node9</title>
<path fill="none" stroke="midnightblue" d="M262.53,-128.87C233.22,-118.95 184.37,-102.41 147.14,-89.81"/>
<polygon fill="midnightblue" stroke="midnightblue" points="148.05,-86.42 137.46,-86.53 145.81,-93.05 148.05,-86.42"/>
</g>
<!-- Node11&#45;&gt;Node10 -->
<g id="edge16" class="edge">
<title>Node11&#45;&gt;Node10</title>
<path fill="none" stroke="midnightblue" d="M288.34,-128.71C289.4,-112.35 293.89,-77.01 313.02,-56 328.84,-38.62 352.4,-27.77 373.57,-21.1"/>
<polygon fill="midnightblue" stroke="midnightblue" points="374.78,-24.39 383.41,-18.24 372.83,-17.67 374.78,-24.39"/>
</g>
<!-- Node11&#45;&gt;Node12 -->
<g id="edge13" class="edge">
<title>Node11&#45;&gt;Node12</title>
<path fill="none" stroke="midnightblue" d="M356.06,-131.91C392.51,-129.03 438.2,-125.58 479.02,-123 796.13,-102.97 876.13,-110.09 1193.02,-87 1217.54,-85.21 1244.25,-82.82 1268.34,-80.49"/>
<polygon fill="midnightblue" stroke="midnightblue" points="1268.87,-83.95 1278.49,-79.5 1268.19,-76.99 1268.87,-83.95"/>
</g>
<!-- Node11&#45;&gt;Node13 -->
<g id="edge17" class="edge">
<title>Node11&#45;&gt;Node13</title>
<path fill="none" stroke="midnightblue" d="M297.06,-128.73C307.71,-118.4 325.61,-101.04 338.7,-88.33"/>
<polygon fill="midnightblue" stroke="midnightblue" points="341.39,-90.6 346.13,-81.13 336.51,-85.58 341.39,-90.6"/>
</g>
<!-- Node11&#45;&gt;Node14 -->
<g id="edge18" class="edge">
<title>Node11&#45;&gt;Node14</title>
<path fill="none" stroke="midnightblue" d="M356.36,-132.09C480.23,-122.11 737.23,-100.59 826.02,-87 837.23,-85.28 849.38,-82.87 860.26,-80.51"/>
<polygon fill="midnightblue" stroke="midnightblue" points="861.23,-83.88 870.23,-78.28 859.71,-77.05 861.23,-83.88"/>
</g>
<!-- Node12&#45;&gt;Node4 -->
<g id="edge15" class="edge">
<title>Node12&#45;&gt;Node4</title>
<path fill="none" stroke="midnightblue" d="M1345.02,-61.98C1345.02,-53.58 1345.02,-40.48 1345.02,-29.66"/>
<polygon fill="midnightblue" stroke="midnightblue" points="1348.52,-29.51 1345.02,-19.51 1341.52,-29.51 1348.52,-29.51"/>
</g>
<!-- Node12&#45;&gt;Node10 -->
<g id="edge14" class="edge">
<title>Node12&#45;&gt;Node10</title>
<path fill="none" stroke="midnightblue" d="M1303.13,-61.98C1290.6,-59.71 1276.79,-57.48 1264.02,-56 963.86,-21.25 600.35,-13.28 470.78,-11.5"/>
<polygon fill="midnightblue" stroke="midnightblue" points="470.82,-8 460.77,-11.37 470.72,-15 470.82,-8"/>
</g>
<!-- Node16&#45;&gt;Node8 -->
<g id="edge36" class="edge">
<title>Node16&#45;&gt;Node8</title>
<path fill="none" stroke="midnightblue" d="M523.84,-262.94C451.1,-252.04 324.62,-233.1 238.44,-220.19"/>
<polygon fill="midnightblue" stroke="midnightblue" points="238.8,-216.71 228.4,-218.69 237.77,-223.63 238.8,-216.71"/>
</g>
<!-- Node16&#45;&gt;Node9 -->
<g id="edge23" class="edge">
<title>Node16&#45;&gt;Node9</title>
<path fill="none" stroke="midnightblue" d="M491.32,-269.29C349.26,-264.86 85.59,-252.46 57.02,-221 24.91,-185.65 56.85,-127.05 78.91,-95.05"/>
<polygon fill="midnightblue" stroke="midnightblue" points="81.86,-96.95 84.81,-86.78 76.16,-92.89 81.86,-96.95"/>
</g>
<!-- Node16&#45;&gt;Node11 -->
<g id="edge22" class="edge">
<title>Node16&#45;&gt;Node11</title>
<path fill="none" stroke="midnightblue" d="M554.87,-262.98C527.01,-253.64 481.8,-237.75 444.02,-221 395.88,-199.66 341.85,-170.11 311.68,-153.08"/>
<polygon fill="midnightblue" stroke="midnightblue" points="313.19,-149.91 302.77,-148.02 309.74,-156 313.19,-149.91"/>
</g>
<!-- Node16&#45;&gt;Node14 -->
<g id="edge37" class="edge">
<title>Node16&#45;&gt;Node14</title>
<path fill="none" stroke="midnightblue" d="M647.05,-262.98C714.36,-250.74 816.9,-221.64 875.02,-154 890.01,-136.56 893.72,-109.54 894.38,-91.45"/>
<polygon fill="midnightblue" stroke="midnightblue" points="897.88,-91.29 894.46,-81.27 890.88,-91.24 897.88,-91.29"/>
</g>
<!-- Node17 -->
<g id="node17" class="node">
<title>Node17</title>
<g id="a_node17"><a xlink:href="_mesh_8hpp.html" target="_top" xlink:title=" ">
<polygon fill="none" stroke="black" points="536.52,-196 536.52,-215 673.52,-215 673.52,-196 536.52,-196"/>
<text text-anchor="middle" x="605.02" y="-203" font-family="Helvetica,sans-Serif" font-size="10.00">polyfem/mesh/Mesh.hpp</text>
</a>
</g>
</g>
<!-- Node16&#45;&gt;Node17 -->
<g id="edge24" class="edge">
<title>Node16&#45;&gt;Node17</title>
<path fill="none" stroke="midnightblue" d="M584.26,-262.73C587.86,-252.99 593.77,-236.98 598.36,-224.53"/>
<polygon fill="midnightblue" stroke="midnightblue" points="601.66,-225.72 601.84,-215.13 595.09,-223.3 601.66,-225.72"/>
</g>
<!-- Node17&#45;&gt;Node3 -->
<g id="edge25" class="edge">
<title>Node17&#45;&gt;Node3</title>
<path fill="none" stroke="midnightblue" d="M673.79,-196.27C776.67,-183.95 969.77,-160.84 1075.05,-148.24"/>
<polygon fill="midnightblue" stroke="midnightblue" points="1075.75,-151.68 1085.27,-147.01 1074.92,-144.73 1075.75,-151.68"/>
</g>
<!-- Node17&#45;&gt;Node10 -->
<g id="edge33" class="edge">
<title>Node17&#45;&gt;Node10</title>
<path fill="none" stroke="midnightblue" d="M555.59,-195.97C527.51,-188.89 493.42,-176.24 470.02,-154 434.68,-120.4 425.36,-60.02 422.9,-29.6"/>
<polygon fill="midnightblue" stroke="midnightblue" points="426.39,-29.28 422.25,-19.52 419.4,-29.73 426.39,-29.28"/>
</g>
<!-- Node17&#45;&gt;Node12 -->
<g id="edge29" class="edge">
<title>Node17&#45;&gt;Node12</title>
<path fill="none" stroke="midnightblue" d="M652.72,-195.99C783.07,-172.74 1144.95,-108.19 1286.86,-82.87"/>
<polygon fill="midnightblue" stroke="midnightblue" points="1287.86,-86.25 1297.09,-81.05 1286.64,-79.36 1287.86,-86.25"/>
</g>
<!-- Node18 -->
<g id="node18" class="node">
<title>Node18</title>
<g id="a_node18"><a xlink:href="_navigation_8hpp.html" target="_top" xlink:title=" ">
<polygon fill="none" stroke="black" points="564.52,-123.5 564.52,-153.5 695.52,-153.5 695.52,-123.5 564.52,-123.5"/>
<text text-anchor="start" x="572.52" y="-141.5" font-family="Helvetica,sans-Serif" font-size="10.00">polyfem/mesh/mesh2D</text>
<text text-anchor="middle" x="630.02" y="-130.5" font-family="Helvetica,sans-Serif" font-size="10.00">/Navigation.hpp</text>
</a>
</g>
</g>
<!-- Node17&#45;&gt;Node18 -->
<g id="edge26" class="edge">
<title>Node17&#45;&gt;Node18</title>
<path fill="none" stroke="midnightblue" d="M608.39,-195.73C611.61,-187.37 616.6,-174.4 620.97,-163.02"/>
<polygon fill="midnightblue" stroke="midnightblue" points="624.28,-164.18 624.6,-153.59 617.75,-161.67 624.28,-164.18"/>
</g>
<!-- Node19 -->
<g id="node19" class="node">
<title>Node19</title>
<g id="a_node19"><a xlink:title=" ">
<polygon fill="none" stroke="#bfbfbf" points="450.52,-62 450.52,-81 579.52,-81 579.52,-62 450.52,-62"/>
<text text-anchor="middle" x="515.02" y="-69" font-family="Helvetica,sans-Serif" font-size="10.00">geogram/mesh/mesh.h</text>
</a>
</g>
</g>
<!-- Node17&#45;&gt;Node19 -->
<g id="edge34" class="edge">
<title>Node17&#45;&gt;Node19</title>
<path fill="none" stroke="midnightblue" d="M546.6,-195.94C521.41,-189.03 494.27,-176.54 479.02,-154 464.87,-133.08 483.42,-105.69 498.71,-88.6"/>
<polygon fill="midnightblue" stroke="midnightblue" points="501.46,-90.77 505.79,-81.1 496.38,-85.96 501.46,-90.77"/>
</g>
<!-- Node21 -->
<g id="node21" class="node">
<title>Node21</title>
<g id="a_node21"><a xlink:href="_hash_utils_8hpp.html" target="_top" xlink:title=" ">
<polygon fill="none" stroke="black" points="714.02,-129 714.02,-148 866.02,-148 866.02,-129 714.02,-129"/>
<text text-anchor="middle" x="790.02" y="-136" font-family="Helvetica,sans-Serif" font-size="10.00">polyfem/utils/HashUtils.hpp</text>
</a>
</g>
</g>
<!-- Node17&#45;&gt;Node21 -->
<g id="edge30" class="edge">
<title>Node17&#45;&gt;Node21</title>
<path fill="none" stroke="midnightblue" d="M629.59,-195.87C662.02,-184.47 719.29,-164.35 755.91,-151.49"/>
<polygon fill="midnightblue" stroke="midnightblue" points="757.37,-154.68 765.65,-148.06 755.05,-148.08 757.37,-154.68"/>
</g>
<!-- Node23 -->
<g id="node23" class="node">
<title>Node23</title>
<g id="a_node23"><a xlink:title=" ">
<polygon fill="none" stroke="#bfbfbf" points="488.02,-129 488.02,-148 546.02,-148 546.02,-129 488.02,-129"/>
<text text-anchor="middle" x="517.02" y="-136" font-family="Helvetica,sans-Serif" font-size="10.00">memory</text>
</a>
</g>
</g>
<!-- Node17&#45;&gt;Node23 -->
<g id="edge35" class="edge">
<title>Node17&#45;&gt;Node23</title>
<path fill="none" stroke="midnightblue" d="M593.15,-195.73C578.77,-185.11 554.32,-167.05 537.01,-154.26"/>
<polygon fill="midnightblue" stroke="midnightblue" points="538.82,-151.25 528.7,-148.13 534.67,-156.88 538.82,-151.25"/>
</g>
<!-- Node18&#45;&gt;Node19 -->
<g id="edge27" class="edge">
<title>Node18&#45;&gt;Node19</title>
<path fill="none" stroke="midnightblue" d="M605.07,-123.4C585.43,-112.29 558.23,-96.92 538.88,-85.98"/>
<polygon fill="midnightblue" stroke="midnightblue" points="540.5,-82.88 530.07,-81.01 537.06,-88.97 540.5,-82.88"/>
</g>
<!-- Node20 -->
<g id="node20" class="node">
<title>Node20</title>
<g id="a_node20"><a xlink:title=" ">
<polygon fill="none" stroke="#bfbfbf" points="598.02,-62 598.02,-81 746.02,-81 746.02,-62 598.02,-62"/>
<text text-anchor="middle" x="672.02" y="-69" font-family="Helvetica,sans-Serif" font-size="10.00">geogram/basic/attributes.h</text>
</a>
</g>
</g>
<!-- Node18&#45;&gt;Node20 -->
<g id="edge28" class="edge">
<title>Node18&#45;&gt;Node20</title>
<path fill="none" stroke="midnightblue" d="M639.13,-123.4C645.49,-113.56 654.01,-100.38 660.78,-89.89"/>
<polygon fill="midnightblue" stroke="midnightblue" points="663.92,-91.49 666.4,-81.19 658.04,-87.69 663.92,-91.49"/>
</g>
<!-- Node21&#45;&gt;Node14 -->
<g id="edge32" class="edge">
<title>Node21&#45;&gt;Node14</title>
<path fill="none" stroke="midnightblue" d="M804.05,-128.73C821.36,-117.92 851.01,-99.38 871.52,-86.57"/>
<polygon fill="midnightblue" stroke="midnightblue" points="873.59,-89.4 880.22,-81.13 869.88,-83.46 873.59,-89.4"/>
</g>
<!-- Node22 -->
<g id="node22" class="node">
<title>Node22</title>
<g id="a_node22"><a xlink:title=" ">
<polygon fill="none" stroke="#bfbfbf" points="764.52,-62 764.52,-81 817.52,-81 817.52,-62 764.52,-62"/>
<text text-anchor="middle" x="791.02" y="-69" font-family="Helvetica,sans-Serif" font-size="10.00">cstddef</text>
</a>
</g>
</g>
<!-- Node21&#45;&gt;Node22 -->
<g id="edge31" class="edge">
<title>Node21&#45;&gt;Node22</title>
<path fill="none" stroke="midnightblue" d="M790.16,-128.73C790.3,-119.18 790.54,-103.62 790.73,-91.28"/>
<polygon fill="midnightblue" stroke="midnightblue" points="794.23,-91.18 790.89,-81.13 787.24,-91.07 794.23,-91.18"/>
</g>
<!-- Node24&#45;&gt;Node3 -->
<g id="edge41" class="edge">
<title>Node24&#45;&gt;Node3</title>
<path fill="none" stroke="midnightblue" d="M1109.62,-257.37C1117.47,-233.29 1133.42,-184.31 1142.09,-157.7"/>
<polygon fill="midnightblue" stroke="midnightblue" points="1145.45,-158.69 1145.22,-148.1 1138.8,-156.52 1145.45,-158.69"/>
</g>
<!-- Node25&#45;&gt;Node12 -->
<g id="edge43" class="edge">
<title>Node25&#45;&gt;Node12</title>
<path fill="none" stroke="midnightblue" d="M1468.52,-329.95C1490.81,-322.06 1521.38,-308.44 1542.02,-288 1595.23,-235.32 1622.97,-181.32 1576.02,-123 1573.18,-119.47 1464.52,-96.82 1397.26,-83.08"/>
<polygon fill="midnightblue" stroke="midnightblue" points="1397.75,-79.61 1387.25,-81.04 1396.35,-86.46 1397.75,-79.61"/>
</g>
<!-- Node26 -->
<g id="node26" class="node">
<title>Node26</title>
<g id="a_node26"><a xlink:href="autodiff_8h.html" target="_top" xlink:title=" ">
<polygon fill="none" stroke="black" points="1402.52,-263 1402.52,-282 1465.52,-282 1465.52,-263 1402.52,-263"/>
<text text-anchor="middle" x="1434.02" y="-270" font-family="Helvetica,sans-Serif" font-size="10.00">autodiff.h</text>
</a>
</g>
</g>
<!-- Node25&#45;&gt;Node26 -->
<g id="edge44" class="edge">
<title>Node25&#45;&gt;Node26</title>
<path fill="none" stroke="midnightblue" d="M1439.21,-329.73C1438.33,-320.18 1436.89,-304.62 1435.76,-292.28"/>
<polygon fill="midnightblue" stroke="midnightblue" points="1439.22,-291.76 1434.82,-282.13 1432.25,-292.41 1439.22,-291.76"/>
</g>
<!-- Node27 -->
<g id="node27" class="node">
<title>Node27</title>
<g id="a_node27"><a xlink:title=" ">
<polygon fill="none" stroke="#bfbfbf" points="1316.52,-196 1316.52,-215 1385.52,-215 1385.52,-196 1316.52,-196"/>
<text text-anchor="middle" x="1351.02" y="-203" font-family="Helvetica,sans-Serif" font-size="10.00">Eigen/Core</text>
</a>
</g>
</g>
<!-- Node26&#45;&gt;Node27 -->
<g id="edge45" class="edge">
<title>Node26&#45;&gt;Node27</title>
<path fill="none" stroke="midnightblue" d="M1422.83,-262.73C1409.39,-252.21 1386.62,-234.38 1370.33,-221.62"/>
<polygon fill="midnightblue" stroke="midnightblue" points="1372.07,-218.54 1362.04,-215.13 1367.75,-224.05 1372.07,-218.54"/>
</g>
<!-- Node28 -->
<g id="node28" class="node">
<title>Node28</title>
<g id="a_node28"><a xlink:title=" ">
<polygon fill="none" stroke="#bfbfbf" points="1403.52,-196 1403.52,-215 1450.52,-215 1450.52,-196 1403.52,-196"/>
<text text-anchor="middle" x="1427.02" y="-203" font-family="Helvetica,sans-Serif" font-size="10.00">cmath</text>
</a>
</g>
</g>
<!-- Node26&#45;&gt;Node28 -->
<g id="edge46" class="edge">
<title>Node26&#45;&gt;Node28</title>
<path fill="none" stroke="midnightblue" d="M1433.08,-262.73C1432.05,-253.18 1430.37,-237.62 1429.04,-225.28"/>
<polygon fill="midnightblue" stroke="midnightblue" points="1432.5,-224.7 1427.95,-215.13 1425.54,-225.44 1432.5,-224.7"/>
</g>
<!-- Node29 -->
<g id="node29" class="node">
<title>Node29</title>
<g id="a_node29"><a xlink:title=" ">
<polygon fill="none" stroke="#bfbfbf" points="1468.52,-196 1468.52,-215 1533.52,-215 1533.52,-196 1468.52,-196"/>
<text text-anchor="middle" x="1501.02" y="-203" font-family="Helvetica,sans-Serif" font-size="10.00">stdexcept</text>
</a>
</g>
</g>
<!-- Node26&#45;&gt;Node29 -->
<g id="edge47" class="edge">
<title>Node26&#45;&gt;Node29</title>
<path fill="none" stroke="midnightblue" d="M1443.06,-262.73C1453.71,-252.4 1471.61,-235.04 1484.7,-222.33"/>
<polygon fill="midnightblue" stroke="midnightblue" points="1487.39,-224.6 1492.13,-215.13 1482.51,-219.58 1487.39,-224.6"/>
</g>
<!-- Node37&#45;&gt;Node6 -->
<g id="edge67" class="edge">
<title>Node37&#45;&gt;Node6</title>
<path fill="none" stroke="midnightblue" d="M1319.36,-458.48C1287.77,-448.56 1245.24,-435.2 1211.63,-424.65"/>
<polygon fill="midnightblue" stroke="midnightblue" points="1212.55,-421.27 1201.96,-421.61 1210.45,-427.95 1212.55,-421.27"/>
</g>
<!-- Node37&#45;&gt;Node10 -->
<g id="edge69" class="edge">
<title>Node37&#45;&gt;Node10</title>
<path fill="none" stroke="midnightblue" d="M1360.37,-458.35C1342.8,-391.37 1264.76,-107.19 1193.02,-56 1134.38,-14.16 630.85,-10.85 470.71,-10.87"/>
<polygon fill="midnightblue" stroke="midnightblue" points="470.66,-7.37 460.67,-10.88 470.67,-14.37 470.66,-7.37"/>
</g>
<!-- Node37&#45;&gt;Node25 -->
<g id="edge68" class="edge">
<title>Node37&#45;&gt;Node25</title>
<path fill="none" stroke="midnightblue" d="M1372.15,-458.37C1386.14,-434.08 1414.72,-384.44 1429.95,-358"/>
<polygon fill="midnightblue" stroke="midnightblue" points="1433.12,-359.51 1435.07,-349.1 1427.05,-356.02 1433.12,-359.51"/>
</g>
<!-- Node38&#45;&gt;Node4 -->
<g id="edge73" class="edge">
<title>Node38&#45;&gt;Node4</title>
<path fill="none" stroke="midnightblue" d="M1695.43,-128.88C1672.4,-112.18 1618.72,-75.36 1568.02,-56 1510.91,-34.19 1441.33,-22.31 1395.24,-16.31"/>
<polygon fill="midnightblue" stroke="midnightblue" points="1395.56,-12.83 1385.21,-15.05 1394.69,-19.77 1395.56,-12.83"/>
</g>
<!-- Node38&#45;&gt;Node10 -->
<g id="edge72" class="edge">
<title>Node38&#45;&gt;Node10</title>
<path fill="none" stroke="midnightblue" d="M1684.08,-128.98C1636.07,-111.59 1521.16,-72.29 1421.02,-56 1234.83,-25.7 644.88,-14.42 470.82,-11.7"/>
<polygon fill="midnightblue" stroke="midnightblue" points="470.73,-8.2 460.68,-11.54 470.62,-15.19 470.73,-8.2"/>
</g>
<!-- Node38&#45;&gt;Node12 -->
<g id="edge71" class="edge">
<title>Node38&#45;&gt;Node12</title>
<path fill="none" stroke="midnightblue" d="M1659.32,-128.94C1593.17,-117.06 1473.72,-95.61 1402.66,-82.85"/>
<polygon fill="midnightblue" stroke="midnightblue" points="1403,-79.35 1392.54,-81.03 1401.76,-86.24 1403,-79.35"/>
</g>
</g>
</svg>
