<?xml version="1.0" encoding="UTF-8" standalone="no"?>
<!DOCTYPE svg PUBLIC "-//W3C//DTD SVG 1.1//EN"
 "http://www.w3.org/Graphics/SVG/1.1/DTD/svg11.dtd">
<!-- Generated by graphviz version 2.43.0 (0)
 -->
<!-- Title: src/polyfem/assembler/NeoHookeanElasticity.hpp Pages: 1 -->
<svg width="2044pt" height="497pt"
 viewBox="0.00 0.00 2044.00 497.00" xmlns="http://www.w3.org/2000/svg" xmlns:xlink="http://www.w3.org/1999/xlink">
<g id="graph0" class="graph" transform="scale(1 1) rotate(0) translate(4 493)">
<title>src/polyfem/assembler/NeoHookeanElasticity.hpp</title>
<!-- Node1 -->
<g id="node1" class="node">
<title>Node1</title>
<g id="a_node1"><a xlink:title=" ">
<polygon fill="#bfbfbf" stroke="black" points="1169.5,-458.5 1169.5,-488.5 1315.5,-488.5 1315.5,-458.5 1169.5,-458.5"/>
<text text-anchor="start" x="1177.5" y="-476.5" font-family="Helvetica,sans-Serif" font-size="10.00">src/polyfem/assembler</text>
<text text-anchor="middle" x="1242.5" y="-465.5" font-family="Helvetica,sans-Serif" font-size="10.00">/NeoHookeanElasticity.hpp</text>
</a>
</g>
</g>
<!-- Node2 -->
<g id="node2" class="node">
<title>Node2</title>
<g id="a_node2"><a xlink:href="_common_8hpp.html" target="_top" xlink:title=" ">
<polygon fill="none" stroke="black" points="174,-129 174,-148 299,-148 299,-129 174,-129"/>
<text text-anchor="middle" x="236.5" y="-136" font-family="Helvetica,sans-Serif" font-size="10.00">polyfem/Common.hpp</text>
</a>
</g>
</g>
<!-- Node1&#45;&gt;Node2 -->
<g id="edge1" class="edge">
<title>Node1&#45;&gt;Node2</title>
<path fill="none" stroke="midnightblue" d="M1169.32,-471.93C1024.59,-468.65 693.46,-450.35 435.5,-355 380.02,-334.49 349.98,-339.29 320.5,-288 298.35,-249.46 364.09,-227.68 340.5,-190 328.5,-170.83 306.92,-158.76 286.52,-151.24"/>
<polygon fill="midnightblue" stroke="midnightblue" points="287.55,-147.9 276.96,-148 285.3,-154.53 287.55,-147.9"/>
</g>
<!-- Node5 -->
<g id="node5" class="node">
<title>Node5</title>
<g id="a_node5"><a xlink:href="_elasticity_utils_8hpp.html" target="_top" xlink:title=" ">
<polygon fill="none" stroke="black" points="811,-391.5 811,-421.5 940,-421.5 940,-391.5 811,-391.5"/>
<text text-anchor="start" x="819" y="-409.5" font-family="Helvetica,sans-Serif" font-size="10.00">polyfem/utils/Elasticity</text>
<text text-anchor="middle" x="875.5" y="-398.5" font-family="Helvetica,sans-Serif" font-size="10.00">Utils.hpp</text>
</a>
</g>
</g>
<!-- Node1&#45;&gt;Node5 -->
<g id="edge4" class="edge">
<title>Node1&#45;&gt;Node5</title>
<path fill="none" stroke="midnightblue" d="M1169.11,-459.5C1105.58,-448.25 1014.09,-432.05 950.17,-420.73"/>
<polygon fill="midnightblue" stroke="midnightblue" points="950.62,-417.25 940.16,-418.95 949.4,-424.14 950.62,-417.25"/>
</g>
<!-- Node6 -->
<g id="node6" class="node">
<title>Node6</title>
<g id="a_node6"><a xlink:href="_element_assembly_values_8hpp.html" target="_top" xlink:title=" ">
<polygon fill="none" stroke="black" points="980,-324.5 980,-354.5 1135,-354.5 1135,-324.5 980,-324.5"/>
<text text-anchor="start" x="988" y="-342.5" font-family="Helvetica,sans-Serif" font-size="10.00">polyfem/assembler/Element</text>
<text text-anchor="middle" x="1057.5" y="-331.5" font-family="Helvetica,sans-Serif" font-size="10.00">AssemblyValues.hpp</text>
</a>
</g>
</g>
<!-- Node1&#45;&gt;Node6 -->
<g id="edge58" class="edge">
<title>Node1&#45;&gt;Node6</title>
<path fill="none" stroke="midnightblue" d="M1222.7,-458.37C1189.74,-434.85 1123.49,-387.59 1085.67,-360.6"/>
<polygon fill="midnightblue" stroke="midnightblue" points="1087.33,-357.48 1077.16,-354.52 1083.26,-363.18 1087.33,-357.48"/>
</g>
<!-- Node9 -->
<g id="node9" class="node">
<title>Node9</title>
<g id="a_node9"><a xlink:title=" ">
<polygon fill="none" stroke="#bfbfbf" points="1047,-0.5 1047,-19.5 1124,-19.5 1124,-0.5 1047,-0.5"/>
<text text-anchor="middle" x="1085.5" y="-7.5" font-family="Helvetica,sans-Serif" font-size="10.00">Eigen/Dense</text>
</a>
</g>
</g>
<!-- Node1&#45;&gt;Node9 -->
<g id="edge62" class="edge">
<title>Node1&#45;&gt;Node9</title>
<path fill="none" stroke="midnightblue" d="M1248.99,-458.36C1272.48,-407.16 1351.79,-233.74 1354.5,-221 1357.37,-207.52 1358.2,-203.27 1354.5,-190 1335.81,-122.97 1329.69,-97.06 1273.5,-56 1232.74,-26.22 1174.98,-15.9 1134.27,-12.45"/>
<polygon fill="midnightblue" stroke="midnightblue" points="1134.27,-8.94 1124.04,-11.7 1133.76,-15.92 1134.27,-8.94"/>
</g>
<!-- Node11 -->
<g id="node11" class="node">
<title>Node11</title>
<g id="a_node11"><a xlink:href="_types_8hpp.html" target="_top" xlink:title=" ">
<polygon fill="none" stroke="black" points="0,-62 0,-81 133,-81 133,-62 0,-62"/>
<text text-anchor="middle" x="66.5" y="-69" font-family="Helvetica,sans-Serif" font-size="10.00">polyfem/utils/Types.hpp</text>
</a>
</g>
</g>
<!-- Node1&#45;&gt;Node11 -->
<g id="edge61" class="edge">
<title>Node1&#45;&gt;Node11</title>
<path fill="none" stroke="midnightblue" d="M1169.06,-472.39C903.62,-471.05 9.5,-457.83 9.5,-340.5 9.5,-340.5 9.5,-340.5 9.5,-204.5 9.5,-160.21 36.89,-113.9 53.69,-89.65"/>
<polygon fill="midnightblue" stroke="midnightblue" points="56.76,-91.38 59.74,-81.21 51.07,-87.3 56.76,-91.38"/>
</g>
<!-- Node15 -->
<g id="node15" class="node">
<title>Node15</title>
<g id="a_node15"><a xlink:href="_element_bases_8hpp.html" target="_top" xlink:title=" ">
<polygon fill="none" stroke="black" points="988,-263 988,-282 1167,-282 1167,-263 988,-263"/>
<text text-anchor="middle" x="1077.5" y="-270" font-family="Helvetica,sans-Serif" font-size="10.00">polyfem/basis/ElementBases.hpp</text>
</a>
</g>
</g>
<!-- Node1&#45;&gt;Node15 -->
<g id="edge59" class="edge">
<title>Node1&#45;&gt;Node15</title>
<path fill="none" stroke="midnightblue" d="M1242.89,-458.31C1242.92,-429.41 1238.95,-363.16 1204.5,-324 1187.21,-304.35 1161.25,-292.26 1137.29,-284.86"/>
<polygon fill="midnightblue" stroke="midnightblue" points="1138.11,-281.45 1127.53,-282.06 1136.18,-288.18 1138.11,-281.45"/>
</g>
<!-- Node24 -->
<g id="node24" class="node">
<title>Node24</title>
<g id="a_node24"><a xlink:href="_autodiff_types_8hpp.html" target="_top" xlink:title=" ">
<polygon fill="none" stroke="black" points="101,-330 101,-349 272,-349 272,-330 101,-330"/>
<text text-anchor="middle" x="186.5" y="-337" font-family="Helvetica,sans-Serif" font-size="10.00">polyfem/utils/AutodiffTypes.hpp</text>
</a>
</g>
</g>
<!-- Node1&#45;&gt;Node24 -->
<g id="edge60" class="edge">
<title>Node1&#45;&gt;Node24</title>
<path fill="none" stroke="midnightblue" d="M1169.25,-471.24C959.76,-467.29 367.95,-453.43 286.5,-422 250.67,-408.17 217.96,-376.29 200.28,-356.76"/>
<polygon fill="midnightblue" stroke="midnightblue" points="202.89,-354.42 193.66,-349.23 197.63,-359.05 202.89,-354.42"/>
</g>
<!-- Node29 -->
<g id="node29" class="node">
<title>Node29</title>
<g id="a_node29"><a xlink:title=" ">
<polygon fill="none" stroke="#bfbfbf" points="1153.5,-330 1153.5,-349 1195.5,-349 1195.5,-330 1153.5,-330"/>
<text text-anchor="middle" x="1174.5" y="-337" font-family="Helvetica,sans-Serif" font-size="10.00">array</text>
</a>
</g>
</g>
<!-- Node1&#45;&gt;Node29 -->
<g id="edge63" class="edge">
<title>Node1&#45;&gt;Node29</title>
<path fill="none" stroke="midnightblue" d="M1232.28,-458.32C1225.39,-448.42 1216.33,-434.74 1209.5,-422 1198.28,-401.07 1187.87,-375.78 1181.38,-358.98"/>
<polygon fill="midnightblue" stroke="midnightblue" points="1184.52,-357.4 1177.7,-349.3 1177.98,-359.89 1184.52,-357.4"/>
</g>
<!-- Node30 -->
<g id="node30" class="node">
<title>Node30</title>
<g id="a_node30"><a xlink:title=" ">
<polygon fill="none" stroke="#bfbfbf" points="1289.5,-397 1289.5,-416 1395.5,-416 1395.5,-397 1289.5,-397"/>
<text text-anchor="middle" x="1342.5" y="-404" font-family="Helvetica,sans-Serif" font-size="10.00">thrust/functional.h</text>
</a>
</g>
</g>
<!-- Node1&#45;&gt;Node30 -->
<g id="edge52" class="edge">
<title>Node1&#45;&gt;Node30</title>
<path fill="none" stroke="midnightblue" d="M1264.2,-458.4C1280.97,-447.5 1304.07,-432.48 1320.83,-421.58"/>
<polygon fill="midnightblue" stroke="midnightblue" points="1322.94,-424.39 1329.41,-416.01 1319.12,-418.52 1322.94,-424.39"/>
</g>
<!-- Node31 -->
<g id="node31" class="node">
<title>Node31</title>
<g id="a_node31"><a xlink:title=" ">
<polygon fill="none" stroke="#bfbfbf" points="1413.5,-397 1413.5,-416 1503.5,-416 1503.5,-397 1413.5,-397"/>
<text text-anchor="middle" x="1458.5" y="-404" font-family="Helvetica,sans-Serif" font-size="10.00">thrust/reduce.h</text>
</a>
</g>
</g>
<!-- Node1&#45;&gt;Node31 -->
<g id="edge53" class="edge">
<title>Node1&#45;&gt;Node31</title>
<path fill="none" stroke="midnightblue" d="M1289.1,-458.48C1328.33,-446.67 1383.73,-430 1420.35,-418.98"/>
<polygon fill="midnightblue" stroke="midnightblue" points="1421.59,-422.26 1430.16,-416.03 1419.57,-415.56 1421.59,-422.26"/>
</g>
<!-- Node32 -->
<g id="node32" class="node">
<title>Node32</title>
<g id="a_node32"><a xlink:title=" ">
<polygon fill="none" stroke="#bfbfbf" points="1522,-397 1522,-416 1647,-416 1647,-397 1522,-397"/>
<text text-anchor="middle" x="1584.5" y="-404" font-family="Helvetica,sans-Serif" font-size="10.00">thrust/device_vector.h</text>
</a>
</g>
</g>
<!-- Node1&#45;&gt;Node32 -->
<g id="edge54" class="edge">
<title>Node1&#45;&gt;Node32</title>
<path fill="none" stroke="midnightblue" d="M1315.61,-459.11C1369.96,-449.09 1445.91,-434.93 1512.5,-422 1519.06,-420.73 1525.95,-419.37 1532.76,-418.01"/>
<polygon fill="midnightblue" stroke="midnightblue" points="1533.52,-421.43 1542.64,-416.03 1532.15,-414.56 1533.52,-421.43"/>
</g>
<!-- Node33 -->
<g id="node33" class="node">
<title>Node33</title>
<g id="a_node33"><a xlink:title=" ">
<polygon fill="none" stroke="#bfbfbf" points="1665,-397 1665,-416 1744,-416 1744,-397 1665,-397"/>
<text text-anchor="middle" x="1704.5" y="-404" font-family="Helvetica,sans-Serif" font-size="10.00">thrust/copy.h</text>
</a>
</g>
</g>
<!-- Node1&#45;&gt;Node33 -->
<g id="edge55" class="edge">
<title>Node1&#45;&gt;Node33</title>
<path fill="none" stroke="midnightblue" d="M1315.66,-467.4C1398.88,-460.72 1538.52,-446.82 1656.5,-422 1660.72,-421.11 1665.1,-420.03 1669.42,-418.85"/>
<polygon fill="midnightblue" stroke="midnightblue" points="1670.66,-422.14 1679.3,-416 1668.72,-415.41 1670.66,-422.14"/>
</g>
<!-- Node34 -->
<g id="node34" class="node">
<title>Node34</title>
<g id="a_node34"><a xlink:title=" ">
<polygon fill="none" stroke="#bfbfbf" points="1762,-397 1762,-416 1875,-416 1875,-397 1762,-397"/>
<text text-anchor="middle" x="1818.5" y="-404" font-family="Helvetica,sans-Serif" font-size="10.00">thrust/host_vector.h</text>
</a>
</g>
</g>
<!-- Node1&#45;&gt;Node34 -->
<g id="edge56" class="edge">
<title>Node1&#45;&gt;Node34</title>
<path fill="none" stroke="midnightblue" d="M1315.63,-468.07C1415.15,-461.39 1598.58,-446.84 1753.5,-422 1760.17,-420.93 1767.19,-419.59 1774.04,-418.17"/>
<polygon fill="midnightblue" stroke="midnightblue" points="1774.87,-421.57 1783.9,-416.03 1773.39,-414.73 1774.87,-421.57"/>
</g>
<!-- Node35 -->
<g id="node35" class="node">
<title>Node35</title>
<g id="a_node35"><a xlink:title=" ">
<polygon fill="none" stroke="#bfbfbf" points="1893,-391.5 1893,-421.5 2036,-421.5 2036,-391.5 1893,-391.5"/>
<text text-anchor="start" x="1901" y="-409.5" font-family="Helvetica,sans-Serif" font-size="10.00">polyfem/assembler/CUDA</text>
<text text-anchor="middle" x="1964.5" y="-398.5" font-family="Helvetica,sans-Serif" font-size="10.00">_utilities.cuh</text>
</a>
</g>
</g>
<!-- Node1&#45;&gt;Node35 -->
<g id="edge57" class="edge">
<title>Node1&#45;&gt;Node35</title>
<path fill="none" stroke="midnightblue" d="M1315.92,-469.14C1433.58,-463.21 1671.79,-449.04 1882.58,-422.17"/>
<polygon fill="midnightblue" stroke="midnightblue" points="1883.12,-425.63 1892.6,-420.89 1882.23,-418.69 1883.12,-425.63"/>
</g>
<!-- Node3 -->
<g id="node3" class="node">
<title>Node3</title>
<g id="a_node3"><a xlink:title=" ">
<polygon fill="none" stroke="#bfbfbf" points="74.5,-0.5 74.5,-19.5 154.5,-19.5 154.5,-0.5 74.5,-0.5"/>
<text text-anchor="middle" x="114.5" y="-7.5" font-family="Helvetica,sans-Serif" font-size="10.00">Eigen/Sparse</text>
</a>
</g>
</g>
<!-- Node2&#45;&gt;Node3 -->
<g id="edge2" class="edge">
<title>Node2&#45;&gt;Node3</title>
<path fill="none" stroke="midnightblue" d="M226.25,-128.91C214.75,-119.14 195.72,-102.51 180.5,-87 161.29,-67.43 140.83,-43.29 127.87,-27.54"/>
<polygon fill="midnightblue" stroke="midnightblue" points="130.53,-25.27 121.5,-19.74 125.11,-29.7 130.53,-25.27"/>
</g>
<!-- Node4 -->
<g id="node4" class="node">
<title>Node4</title>
<g id="a_node4"><a xlink:title=" ">
<polygon fill="none" stroke="#bfbfbf" points="189.5,-62 189.5,-81 299.5,-81 299.5,-62 189.5,-62"/>
<text text-anchor="middle" x="244.5" y="-69" font-family="Helvetica,sans-Serif" font-size="10.00">nlohmann/json.hpp</text>
</a>
</g>
</g>
<!-- Node2&#45;&gt;Node4 -->
<g id="edge3" class="edge">
<title>Node2&#45;&gt;Node4</title>
<path fill="none" stroke="midnightblue" d="M237.58,-128.73C238.75,-119.18 240.67,-103.62 242.19,-91.28"/>
<polygon fill="midnightblue" stroke="midnightblue" points="245.69,-91.48 243.44,-81.13 238.74,-90.62 245.69,-91.48"/>
</g>
<!-- Node5&#45;&gt;Node2 -->
<g id="edge5" class="edge">
<title>Node5&#45;&gt;Node2</title>
<path fill="none" stroke="midnightblue" d="M810.91,-403.76C720.77,-400.12 563.26,-388.95 518.5,-355 480.6,-326.26 504.04,-295.05 475.5,-257 447.67,-219.9 436.15,-212.33 395.5,-190 361.83,-171.5 320.36,-158.62 288.22,-150.49"/>
<polygon fill="midnightblue" stroke="midnightblue" points="288.68,-147 278.13,-148.02 287.01,-153.8 288.68,-147"/>
</g>
<!-- Node5&#45;&gt;Node6 -->
<g id="edge6" class="edge">
<title>Node5&#45;&gt;Node6</title>
<path fill="none" stroke="midnightblue" d="M914.99,-391.4C942.42,-381.6 979.15,-368.48 1008.46,-358.02"/>
<polygon fill="midnightblue" stroke="midnightblue" points="1009.85,-361.24 1018.09,-354.58 1007.49,-354.64 1009.85,-361.24"/>
</g>
<!-- Node5&#45;&gt;Node9 -->
<g id="edge48" class="edge">
<title>Node5&#45;&gt;Node9</title>
<path fill="none" stroke="midnightblue" d="M819.47,-391.48C721.42,-363.87 519.56,-292.7 418.5,-154 392.63,-118.49 375.48,-88.08 405.5,-56 448.43,-10.13 888.23,-9.4 1036.79,-10.48"/>
<polygon fill="midnightblue" stroke="midnightblue" points="1036.94,-13.98 1046.97,-10.56 1037,-6.98 1036.94,-13.98"/>
</g>
<!-- Node5&#45;&gt;Node11 -->
<g id="edge47" class="edge">
<title>Node5&#45;&gt;Node11</title>
<path fill="none" stroke="midnightblue" d="M810.65,-400.55C724.51,-393.41 567.8,-378.45 435.5,-355 404.21,-349.46 184.27,-305.12 157.5,-288 88.41,-243.81 71.69,-135.23 67.72,-91.35"/>
<polygon fill="midnightblue" stroke="midnightblue" points="71.19,-90.93 66.93,-81.23 64.22,-91.47 71.19,-90.93"/>
</g>
<!-- Node12 -->
<g id="node12" class="node">
<title>Node12</title>
<g id="a_node12"><a xlink:title=" ">
<polygon fill="none" stroke="#bfbfbf" points="974,-62 974,-81 1039,-81 1039,-62 974,-62"/>
<text text-anchor="middle" x="1006.5" y="-69" font-family="Helvetica,sans-Serif" font-size="10.00">functional</text>
</a>
</g>
</g>
<!-- Node5&#45;&gt;Node12 -->
<g id="edge51" class="edge">
<title>Node5&#45;&gt;Node12</title>
<path fill="none" stroke="midnightblue" d="M881.13,-391.19C902.15,-337.75 976.06,-149.89 999.39,-90.58"/>
<polygon fill="midnightblue" stroke="midnightblue" points="1002.73,-91.65 1003.13,-81.07 996.21,-89.09 1002.73,-91.65"/>
</g>
<!-- Node13 -->
<g id="node13" class="node">
<title>Node13</title>
<g id="a_node13"><a xlink:title=" ">
<polygon fill="none" stroke="#bfbfbf" points="890,-62 890,-81 937,-81 937,-62 890,-62"/>
<text text-anchor="middle" x="913.5" y="-69" font-family="Helvetica,sans-Serif" font-size="10.00">vector</text>
</a>
</g>
</g>
<!-- Node5&#45;&gt;Node13 -->
<g id="edge49" class="edge">
<title>Node5&#45;&gt;Node13</title>
<path fill="none" stroke="midnightblue" d="M875.5,-391.24C875.5,-367.03 875.5,-316.35 875.5,-273.5 875.5,-273.5 875.5,-273.5 875.5,-204.5 875.5,-162.35 893.61,-115.48 904.83,-90.5"/>
<polygon fill="midnightblue" stroke="midnightblue" points="908.11,-91.76 909.14,-81.21 901.76,-88.81 908.11,-91.76"/>
</g>
<!-- Node5&#45;&gt;Node15 -->
<g id="edge38" class="edge">
<title>Node5&#45;&gt;Node15</title>
<path fill="none" stroke="midnightblue" d="M889.84,-391.23C907.82,-373.85 940.11,-344.31 971.5,-324 995.25,-308.64 1024.39,-295.09 1046.11,-285.91"/>
<polygon fill="midnightblue" stroke="midnightblue" points="1047.62,-289.07 1055.51,-282 1044.94,-282.6 1047.62,-289.07"/>
</g>
<!-- Node23 -->
<g id="node23" class="node">
<title>Node23</title>
<g id="a_node23"><a xlink:href="_expression_value_8hpp.html" target="_top" xlink:title=" ">
<polygon fill="none" stroke="black" points="329,-257.5 329,-287.5 466,-287.5 466,-257.5 329,-257.5"/>
<text text-anchor="start" x="337" y="-275.5" font-family="Helvetica,sans-Serif" font-size="10.00">polyfem/utils/Expression</text>
<text text-anchor="middle" x="397.5" y="-264.5" font-family="Helvetica,sans-Serif" font-size="10.00">Value.hpp</text>
</a>
</g>
</g>
<!-- Node5&#45;&gt;Node23 -->
<g id="edge39" class="edge">
<title>Node5&#45;&gt;Node23</title>
<path fill="none" stroke="midnightblue" d="M810.95,-402.24C714.32,-396.52 537.34,-382.58 480.5,-355 452.61,-341.47 428.33,-314.86 413.35,-295.73"/>
<polygon fill="midnightblue" stroke="midnightblue" points="415.97,-293.39 407.15,-287.54 410.39,-297.62 415.97,-293.39"/>
</g>
<!-- Node5&#45;&gt;Node24 -->
<g id="edge41" class="edge">
<title>Node5&#45;&gt;Node24</title>
<path fill="none" stroke="midnightblue" d="M810.58,-399.83C707.53,-390.77 500.16,-372.28 324.5,-355 308.72,-353.45 291.92,-351.73 275.69,-350.05"/>
<polygon fill="midnightblue" stroke="midnightblue" points="275.97,-346.56 265.66,-349 275.24,-353.52 275.97,-346.56"/>
</g>
<!-- Node5&#45;&gt;Node29 -->
<g id="edge50" class="edge">
<title>Node5&#45;&gt;Node29</title>
<path fill="none" stroke="midnightblue" d="M940.02,-398.26C995.27,-390.92 1076.46,-377.39 1144.5,-355 1146.12,-354.47 1147.77,-353.86 1149.42,-353.21"/>
<polygon fill="midnightblue" stroke="midnightblue" points="1150.91,-356.38 1158.63,-349.13 1148.07,-349.98 1150.91,-356.38"/>
</g>
<!-- Node7 -->
<g id="node7" class="node">
<title>Node7</title>
<g id="a_node7"><a xlink:href="_assembly_values_8hpp.html" target="_top" xlink:title=" ">
<polygon fill="none" stroke="black" points="1183.5,-190.5 1183.5,-220.5 1345.5,-220.5 1345.5,-190.5 1183.5,-190.5"/>
<text text-anchor="start" x="1191.5" y="-208.5" font-family="Helvetica,sans-Serif" font-size="10.00">polyfem/assembler/Assembly</text>
<text text-anchor="middle" x="1264.5" y="-197.5" font-family="Helvetica,sans-Serif" font-size="10.00">Values.hpp</text>
</a>
</g>
</g>
<!-- Node6&#45;&gt;Node7 -->
<g id="edge7" class="edge">
<title>Node6&#45;&gt;Node7</title>
<path fill="none" stroke="midnightblue" d="M1100.31,-324.44C1123.79,-315.73 1152.85,-303.3 1176.5,-288 1202.58,-271.13 1228.14,-246.25 1244.94,-228.42"/>
<polygon fill="midnightblue" stroke="midnightblue" points="1247.78,-230.5 1252.01,-220.78 1242.65,-225.75 1247.78,-230.5"/>
</g>
<!-- Node6&#45;&gt;Node13 -->
<g id="edge37" class="edge">
<title>Node6&#45;&gt;Node13</title>
<path fill="none" stroke="midnightblue" d="M1025.51,-324.39C1009.63,-315.91 991.36,-303.71 979.5,-288 932.93,-226.32 918.94,-131.55 914.97,-91.45"/>
<polygon fill="midnightblue" stroke="midnightblue" points="918.44,-90.91 914.07,-81.26 911.46,-91.53 918.44,-90.91"/>
</g>
<!-- Node6&#45;&gt;Node15 -->
<g id="edge20" class="edge">
<title>Node6&#45;&gt;Node15</title>
<path fill="none" stroke="midnightblue" d="M1061.84,-324.4C1064.77,-314.86 1068.67,-302.18 1071.85,-291.86"/>
<polygon fill="midnightblue" stroke="midnightblue" points="1075.23,-292.78 1074.82,-282.19 1068.54,-290.72 1075.23,-292.78"/>
</g>
<!-- Node8 -->
<g id="node8" class="node">
<title>Node8</title>
<g id="a_node8"><a xlink:href="_quadrature_8hpp.html" target="_top" xlink:title=" ">
<polygon fill="none" stroke="black" points="1120,-56.5 1120,-86.5 1233,-86.5 1233,-56.5 1120,-56.5"/>
<text text-anchor="start" x="1128" y="-74.5" font-family="Helvetica,sans-Serif" font-size="10.00">polyfem/quadrature</text>
<text text-anchor="middle" x="1176.5" y="-63.5" font-family="Helvetica,sans-Serif" font-size="10.00">/Quadrature.hpp</text>
</a>
</g>
</g>
<!-- Node7&#45;&gt;Node8 -->
<g id="edge8" class="edge">
<title>Node7&#45;&gt;Node8</title>
<path fill="none" stroke="midnightblue" d="M1272.39,-190.41C1280.85,-173.21 1291.45,-143.86 1278.5,-123 1269.61,-108.68 1255.32,-98.3 1240.22,-90.82"/>
<polygon fill="midnightblue" stroke="midnightblue" points="1241.3,-87.46 1230.75,-86.52 1238.41,-93.84 1241.3,-87.46"/>
</g>
<!-- Node7&#45;&gt;Node9 -->
<g id="edge18" class="edge">
<title>Node7&#45;&gt;Node9</title>
<path fill="none" stroke="midnightblue" d="M1276.04,-190.49C1283.19,-180.88 1291.7,-167.46 1295.5,-154 1299.24,-140.74 1300.02,-136.01 1295.5,-123 1283.03,-87.14 1274.04,-77.13 1242.5,-56 1210.09,-34.28 1167.16,-22.91 1134.38,-17.04"/>
<polygon fill="midnightblue" stroke="midnightblue" points="1134.56,-13.52 1124.12,-15.32 1133.41,-20.42 1134.56,-13.52"/>
</g>
<!-- Node10 -->
<g id="node10" class="node">
<title>Node10</title>
<g id="a_node10"><a xlink:href="_basis_8hpp.html" target="_top" xlink:title=" ">
<polygon fill="none" stroke="black" points="1017.5,-129 1017.5,-148 1153.5,-148 1153.5,-129 1017.5,-129"/>
<text text-anchor="middle" x="1085.5" y="-136" font-family="Helvetica,sans-Serif" font-size="10.00">polyfem/basis/Basis.hpp</text>
</a>
</g>
</g>
<!-- Node7&#45;&gt;Node10 -->
<g id="edge10" class="edge">
<title>Node7&#45;&gt;Node10</title>
<path fill="none" stroke="midnightblue" d="M1225.66,-190.4C1193.7,-178.79 1148.88,-162.51 1118.6,-151.52"/>
<polygon fill="midnightblue" stroke="midnightblue" points="1119.52,-148.13 1108.93,-148.01 1117.13,-154.71 1119.52,-148.13"/>
</g>
<!-- Node14 -->
<g id="node14" class="node">
<title>Node14</title>
<g id="a_node14"><a xlink:title=" ">
<polygon fill="none" stroke="#bfbfbf" points="1209.5,-129 1209.5,-148 1269.5,-148 1269.5,-129 1209.5,-129"/>
<text text-anchor="middle" x="1239.5" y="-136" font-family="Helvetica,sans-Serif" font-size="10.00">iostream</text>
</a>
</g>
</g>
<!-- Node7&#45;&gt;Node14 -->
<g id="edge19" class="edge">
<title>Node7&#45;&gt;Node14</title>
<path fill="none" stroke="midnightblue" d="M1259.08,-190.4C1255.37,-180.76 1250.43,-167.91 1246.44,-157.54"/>
<polygon fill="midnightblue" stroke="midnightblue" points="1249.7,-156.27 1242.84,-148.19 1243.17,-158.78 1249.7,-156.27"/>
</g>
<!-- Node8&#45;&gt;Node9 -->
<g id="edge9" class="edge">
<title>Node8&#45;&gt;Node9</title>
<path fill="none" stroke="midnightblue" d="M1154.93,-56.4C1140.62,-47.04 1121.89,-34.79 1107.49,-25.38"/>
<polygon fill="midnightblue" stroke="midnightblue" points="1109.03,-22.2 1098.74,-19.66 1105.2,-28.06 1109.03,-22.2"/>
</g>
<!-- Node10&#45;&gt;Node8 -->
<g id="edge11" class="edge">
<title>Node10&#45;&gt;Node8</title>
<path fill="none" stroke="midnightblue" d="M1097.77,-128.73C1110.66,-119.53 1131.37,-104.73 1148.32,-92.63"/>
<polygon fill="midnightblue" stroke="midnightblue" points="1150.67,-95.25 1156.78,-86.59 1146.6,-89.55 1150.67,-95.25"/>
</g>
<!-- Node10&#45;&gt;Node9 -->
<g id="edge15" class="edge">
<title>Node10&#45;&gt;Node9</title>
<path fill="none" stroke="midnightblue" d="M1085.5,-128.81C1085.5,-108.49 1085.5,-57.55 1085.5,-29.78"/>
<polygon fill="midnightblue" stroke="midnightblue" points="1089,-29.76 1085.5,-19.76 1082,-29.76 1089,-29.76"/>
</g>
<!-- Node10&#45;&gt;Node11 -->
<g id="edge12" class="edge">
<title>Node10&#45;&gt;Node11</title>
<path fill="none" stroke="midnightblue" d="M1017.37,-133.01C971.84,-130.05 910.59,-126.15 856.5,-123 556.14,-105.49 480.16,-114 180.5,-87 166.43,-85.73 151.42,-84.06 137.07,-82.3"/>
<polygon fill="midnightblue" stroke="midnightblue" points="137.11,-78.77 126.76,-81 136.24,-85.72 137.11,-78.77"/>
</g>
<!-- Node10&#45;&gt;Node12 -->
<g id="edge16" class="edge">
<title>Node10&#45;&gt;Node12</title>
<path fill="none" stroke="midnightblue" d="M1074.85,-128.73C1062.05,-118.21 1040.38,-100.38 1024.87,-87.62"/>
<polygon fill="midnightblue" stroke="midnightblue" points="1026.93,-84.78 1016.99,-81.13 1022.48,-90.18 1026.93,-84.78"/>
</g>
<!-- Node10&#45;&gt;Node13 -->
<g id="edge17" class="edge">
<title>Node10&#45;&gt;Node13</title>
<path fill="none" stroke="midnightblue" d="M1062.66,-128.87C1032.63,-117.52 979.72,-97.52 945.66,-84.65"/>
<polygon fill="midnightblue" stroke="midnightblue" points="946.75,-81.32 936.16,-81.06 944.28,-87.87 946.75,-81.32"/>
</g>
<!-- Node11&#45;&gt;Node3 -->
<g id="edge14" class="edge">
<title>Node11&#45;&gt;Node3</title>
<path fill="none" stroke="midnightblue" d="M73.38,-61.98C80.65,-52.96 92.3,-38.52 101.34,-27.31"/>
<polygon fill="midnightblue" stroke="midnightblue" points="104.08,-29.49 107.64,-19.51 98.63,-25.09 104.08,-29.49"/>
</g>
<!-- Node11&#45;&gt;Node9 -->
<g id="edge13" class="edge">
<title>Node11&#45;&gt;Node9</title>
<path fill="none" stroke="midnightblue" d="M126.46,-62C143.86,-59.77 162.91,-57.55 180.5,-56 506.56,-27.2 900.47,-15.49 1036.51,-12.11"/>
<polygon fill="midnightblue" stroke="midnightblue" points="1036.7,-15.61 1046.62,-11.87 1036.53,-8.61 1036.7,-15.61"/>
</g>
<!-- Node15&#45;&gt;Node7 -->
<g id="edge35" class="edge">
<title>Node15&#45;&gt;Node7</title>
<path fill="none" stroke="midnightblue" d="M1102.33,-262.87C1130.76,-252.99 1178.05,-236.55 1214.25,-223.97"/>
<polygon fill="midnightblue" stroke="midnightblue" points="1215.85,-227.12 1224.14,-220.53 1213.55,-220.51 1215.85,-227.12"/>
</g>
<!-- Node15&#45;&gt;Node8 -->
<g id="edge22" class="edge">
<title>Node15&#45;&gt;Node8</title>
<path fill="none" stroke="midnightblue" d="M1085.9,-262.94C1103.3,-244.65 1143.27,-199.72 1162.5,-154 1170.22,-135.65 1173.68,-113.28 1175.24,-96.62"/>
<polygon fill="midnightblue" stroke="midnightblue" points="1178.73,-96.83 1176.01,-86.59 1171.75,-96.29 1178.73,-96.83"/>
</g>
<!-- Node15&#45;&gt;Node10 -->
<g id="edge21" class="edge">
<title>Node15&#45;&gt;Node10</title>
<path fill="none" stroke="midnightblue" d="M1078.02,-262.84C1079.31,-241.67 1082.62,-186.95 1084.38,-158.03"/>
<polygon fill="midnightblue" stroke="midnightblue" points="1087.87,-158.21 1084.98,-148.02 1080.88,-157.79 1087.87,-158.21"/>
</g>
<!-- Node15&#45;&gt;Node13 -->
<g id="edge36" class="edge">
<title>Node15&#45;&gt;Node13</title>
<path fill="none" stroke="midnightblue" d="M1070.45,-262.95C1045.44,-232.59 960.6,-129.65 927.19,-89.11"/>
<polygon fill="midnightblue" stroke="midnightblue" points="929.77,-86.73 920.71,-81.24 924.36,-91.19 929.77,-86.73"/>
</g>
<!-- Node16 -->
<g id="node16" class="node">
<title>Node16</title>
<g id="a_node16"><a xlink:href="_mesh_8hpp.html" target="_top" xlink:title=" ">
<polygon fill="none" stroke="black" points="561,-196 561,-215 698,-215 698,-196 561,-196"/>
<text text-anchor="middle" x="629.5" y="-203" font-family="Helvetica,sans-Serif" font-size="10.00">polyfem/mesh/Mesh.hpp</text>
</a>
</g>
</g>
<!-- Node15&#45;&gt;Node16 -->
<g id="edge23" class="edge">
<title>Node15&#45;&gt;Node16</title>
<path fill="none" stroke="midnightblue" d="M1018.47,-262.94C935.85,-250.95 786.04,-229.21 698.41,-216.5"/>
<polygon fill="midnightblue" stroke="midnightblue" points="698.7,-213 688.3,-215.03 697.7,-219.93 698.7,-213"/>
</g>
<!-- Node16&#45;&gt;Node2 -->
<g id="edge24" class="edge">
<title>Node16&#45;&gt;Node2</title>
<path fill="none" stroke="midnightblue" d="M577.72,-195.94C505.61,-184.01 375.15,-162.43 298.13,-149.69"/>
<polygon fill="midnightblue" stroke="midnightblue" points="298.52,-146.21 288.08,-148.03 297.38,-153.12 298.52,-146.21"/>
</g>
<!-- Node16&#45;&gt;Node9 -->
<g id="edge32" class="edge">
<title>Node16&#45;&gt;Node9</title>
<path fill="none" stroke="midnightblue" d="M582.57,-195.97C536.67,-186.81 470.9,-171.21 451.5,-154 417.62,-123.94 392.57,-89.1 423.5,-56 465.12,-11.46 890.49,-9.81 1036.57,-10.57"/>
<polygon fill="midnightblue" stroke="midnightblue" points="1036.57,-14.07 1046.59,-10.63 1036.61,-7.07 1036.57,-14.07"/>
</g>
<!-- Node16&#45;&gt;Node11 -->
<g id="edge28" class="edge">
<title>Node16&#45;&gt;Node11</title>
<path fill="none" stroke="midnightblue" d="M577.43,-195.93C528.43,-187.31 453.25,-172.64 389.5,-154 352.1,-143.07 344.9,-133.92 307.5,-123 247.73,-105.56 177.97,-91.61 128.93,-82.84"/>
<polygon fill="midnightblue" stroke="midnightblue" points="129.24,-79.34 118.79,-81.04 128.02,-86.23 129.24,-79.34"/>
</g>
<!-- Node17 -->
<g id="node17" class="node">
<title>Node17</title>
<g id="a_node17"><a xlink:href="_navigation_8hpp.html" target="_top" xlink:title=" ">
<polygon fill="none" stroke="black" points="470,-123.5 470,-153.5 601,-153.5 601,-123.5 470,-123.5"/>
<text text-anchor="start" x="478" y="-141.5" font-family="Helvetica,sans-Serif" font-size="10.00">polyfem/mesh/mesh2D</text>
<text text-anchor="middle" x="535.5" y="-130.5" font-family="Helvetica,sans-Serif" font-size="10.00">/Navigation.hpp</text>
</a>
</g>
</g>
<!-- Node16&#45;&gt;Node17 -->
<g id="edge25" class="edge">
<title>Node16&#45;&gt;Node17</title>
<path fill="none" stroke="midnightblue" d="M616.82,-195.73C603.39,-186.44 581.72,-171.46 564.13,-159.3"/>
<polygon fill="midnightblue" stroke="midnightblue" points="566.09,-156.4 555.87,-153.59 562.11,-162.16 566.09,-156.4"/>
</g>
<!-- Node18 -->
<g id="node18" class="node">
<title>Node18</title>
<g id="a_node18"><a xlink:title=" ">
<polygon fill="none" stroke="#bfbfbf" points="432,-62 432,-81 561,-81 561,-62 432,-62"/>
<text text-anchor="middle" x="496.5" y="-69" font-family="Helvetica,sans-Serif" font-size="10.00">geogram/mesh/mesh.h</text>
</a>
</g>
</g>
<!-- Node16&#45;&gt;Node18 -->
<g id="edge33" class="edge">
<title>Node16&#45;&gt;Node18</title>
<path fill="none" stroke="midnightblue" d="M578.26,-195.97C534.2,-187.46 475.58,-172.94 461.5,-154 446.42,-133.72 465.06,-105.94 480.39,-88.62"/>
<polygon fill="midnightblue" stroke="midnightblue" points="483.21,-90.72 487.48,-81.03 478.1,-85.94 483.21,-90.72"/>
</g>
<!-- Node20 -->
<g id="node20" class="node">
<title>Node20</title>
<g id="a_node20"><a xlink:href="_hash_utils_8hpp.html" target="_top" xlink:title=" ">
<polygon fill="none" stroke="black" points="695.5,-129 695.5,-148 847.5,-148 847.5,-129 695.5,-129"/>
<text text-anchor="middle" x="771.5" y="-136" font-family="Helvetica,sans-Serif" font-size="10.00">polyfem/utils/HashUtils.hpp</text>
</a>
</g>
</g>
<!-- Node16&#45;&gt;Node20 -->
<g id="edge29" class="edge">
<title>Node16&#45;&gt;Node20</title>
<path fill="none" stroke="midnightblue" d="M648.36,-195.87C672.65,-184.75 715.1,-165.32 743.26,-152.43"/>
<polygon fill="midnightblue" stroke="midnightblue" points="744.93,-155.51 752.57,-148.17 742.02,-149.15 744.93,-155.51"/>
</g>
<!-- Node22 -->
<g id="node22" class="node">
<title>Node22</title>
<g id="a_node22"><a xlink:title=" ">
<polygon fill="none" stroke="#bfbfbf" points="619.5,-129 619.5,-148 677.5,-148 677.5,-129 619.5,-129"/>
<text text-anchor="middle" x="648.5" y="-136" font-family="Helvetica,sans-Serif" font-size="10.00">memory</text>
</a>
</g>
</g>
<!-- Node16&#45;&gt;Node22 -->
<g id="edge34" class="edge">
<title>Node16&#45;&gt;Node22</title>
<path fill="none" stroke="midnightblue" d="M632.06,-195.73C634.88,-186.09 639.5,-170.3 643.12,-157.91"/>
<polygon fill="midnightblue" stroke="midnightblue" points="646.53,-158.71 645.98,-148.13 639.81,-156.74 646.53,-158.71"/>
</g>
<!-- Node17&#45;&gt;Node18 -->
<g id="edge26" class="edge">
<title>Node17&#45;&gt;Node18</title>
<path fill="none" stroke="midnightblue" d="M527.04,-123.4C521.14,-113.56 513.23,-100.38 506.94,-89.89"/>
<polygon fill="midnightblue" stroke="midnightblue" points="509.86,-87.97 501.72,-81.19 503.86,-91.57 509.86,-87.97"/>
</g>
<!-- Node19 -->
<g id="node19" class="node">
<title>Node19</title>
<g id="a_node19"><a xlink:title=" ">
<polygon fill="none" stroke="#bfbfbf" points="579.5,-62 579.5,-81 727.5,-81 727.5,-62 579.5,-62"/>
<text text-anchor="middle" x="653.5" y="-69" font-family="Helvetica,sans-Serif" font-size="10.00">geogram/basic/attributes.h</text>
</a>
</g>
</g>
<!-- Node17&#45;&gt;Node19 -->
<g id="edge27" class="edge">
<title>Node17&#45;&gt;Node19</title>
<path fill="none" stroke="midnightblue" d="M561.1,-123.4C581.35,-112.24 609.42,-96.78 629.29,-85.83"/>
<polygon fill="midnightblue" stroke="midnightblue" points="630.99,-88.9 638.06,-81.01 627.61,-82.77 630.99,-88.9"/>
</g>
<!-- Node20&#45;&gt;Node13 -->
<g id="edge31" class="edge">
<title>Node20&#45;&gt;Node13</title>
<path fill="none" stroke="midnightblue" d="M790.36,-128.87C814.65,-117.75 857.1,-98.32 885.26,-85.43"/>
<polygon fill="midnightblue" stroke="midnightblue" points="886.93,-88.51 894.57,-81.17 884.02,-82.15 886.93,-88.51"/>
</g>
<!-- Node21 -->
<g id="node21" class="node">
<title>Node21</title>
<g id="a_node21"><a xlink:title=" ">
<polygon fill="none" stroke="#bfbfbf" points="746,-62 746,-81 799,-81 799,-62 746,-62"/>
<text text-anchor="middle" x="772.5" y="-69" font-family="Helvetica,sans-Serif" font-size="10.00">cstddef</text>
</a>
</g>
</g>
<!-- Node20&#45;&gt;Node21 -->
<g id="edge30" class="edge">
<title>Node20&#45;&gt;Node21</title>
<path fill="none" stroke="midnightblue" d="M771.63,-128.73C771.78,-119.18 772.02,-103.62 772.21,-91.28"/>
<polygon fill="midnightblue" stroke="midnightblue" points="775.71,-91.18 772.37,-81.13 768.71,-91.07 775.71,-91.18"/>
</g>
<!-- Node23&#45;&gt;Node2 -->
<g id="edge40" class="edge">
<title>Node23&#45;&gt;Node2</title>
<path fill="none" stroke="midnightblue" d="M397.06,-257.23C395.76,-239.3 390.93,-208.64 373.5,-190 354.93,-170.14 327.87,-158.06 302.69,-150.72"/>
<polygon fill="midnightblue" stroke="midnightblue" points="303.36,-147.28 292.79,-148.04 301.53,-154.03 303.36,-147.28"/>
</g>
<!-- Node24&#45;&gt;Node11 -->
<g id="edge42" class="edge">
<title>Node24&#45;&gt;Node11</title>
<path fill="none" stroke="midnightblue" d="M161.92,-329.91C142.11,-321.85 114.8,-308.03 97.5,-288 48.27,-231 56.9,-132.17 63.14,-91.16"/>
<polygon fill="midnightblue" stroke="midnightblue" points="66.61,-91.65 64.79,-81.21 59.7,-90.51 66.61,-91.65"/>
</g>
<!-- Node25 -->
<g id="node25" class="node">
<title>Node25</title>
<g id="a_node25"><a xlink:href="autodiff_8h.html" target="_top" xlink:title=" ">
<polygon fill="none" stroke="black" points="167,-263 167,-282 230,-282 230,-263 167,-263"/>
<text text-anchor="middle" x="198.5" y="-270" font-family="Helvetica,sans-Serif" font-size="10.00">autodiff.h</text>
</a>
</g>
</g>
<!-- Node24&#45;&gt;Node25 -->
<g id="edge43" class="edge">
<title>Node24&#45;&gt;Node25</title>
<path fill="none" stroke="midnightblue" d="M188.12,-329.73C189.88,-320.18 192.76,-304.62 195.03,-292.28"/>
<polygon fill="midnightblue" stroke="midnightblue" points="198.53,-292.6 196.91,-282.13 191.65,-291.33 198.53,-292.6"/>
</g>
<!-- Node26 -->
<g id="node26" class="node">
<title>Node26</title>
<g id="a_node26"><a xlink:title=" ">
<polygon fill="none" stroke="#bfbfbf" points="262,-196 262,-215 331,-215 331,-196 262,-196"/>
<text text-anchor="middle" x="296.5" y="-203" font-family="Helvetica,sans-Serif" font-size="10.00">Eigen/Core</text>
</a>
</g>
</g>
<!-- Node25&#45;&gt;Node26 -->
<g id="edge44" class="edge">
<title>Node25&#45;&gt;Node26</title>
<path fill="none" stroke="midnightblue" d="M211.72,-262.73C227.95,-251.96 255.72,-233.55 275.03,-220.74"/>
<polygon fill="midnightblue" stroke="midnightblue" points="277.09,-223.57 283.49,-215.13 273.22,-217.74 277.09,-223.57"/>
</g>
<!-- Node27 -->
<g id="node27" class="node">
<title>Node27</title>
<g id="a_node27"><a xlink:title=" ">
<polygon fill="none" stroke="#bfbfbf" points="114,-196 114,-215 161,-215 161,-196 114,-196"/>
<text text-anchor="middle" x="137.5" y="-203" font-family="Helvetica,sans-Serif" font-size="10.00">cmath</text>
</a>
</g>
</g>
<!-- Node25&#45;&gt;Node27 -->
<g id="edge45" class="edge">
<title>Node25&#45;&gt;Node27</title>
<path fill="none" stroke="midnightblue" d="M190.27,-262.73C180.67,-252.5 164.59,-235.36 152.7,-222.69"/>
<polygon fill="midnightblue" stroke="midnightblue" points="154.99,-220.02 145.6,-215.13 149.89,-224.81 154.99,-220.02"/>
</g>
<!-- Node28 -->
<g id="node28" class="node">
<title>Node28</title>
<g id="a_node28"><a xlink:title=" ">
<polygon fill="none" stroke="#bfbfbf" points="179,-196 179,-215 244,-215 244,-196 179,-196"/>
<text text-anchor="middle" x="211.5" y="-203" font-family="Helvetica,sans-Serif" font-size="10.00">stdexcept</text>
</a>
</g>
</g>
<!-- Node25&#45;&gt;Node28 -->
<g id="edge46" class="edge">
<title>Node25&#45;&gt;Node28</title>
<path fill="none" stroke="midnightblue" d="M200.25,-262.73C202.16,-253.18 205.28,-237.62 207.74,-225.28"/>
<polygon fill="midnightblue" stroke="midnightblue" points="211.25,-225.62 209.77,-215.13 204.38,-224.25 211.25,-225.62"/>
</g>
</g>
</svg>
