<?xml version="1.0" encoding="UTF-8" standalone="no"?>
<!DOCTYPE svg PUBLIC "-//W3C//DTD SVG 1.1//EN"
 "http://www.w3.org/Graphics/SVG/1.1/DTD/svg11.dtd">
<!-- Generated by graphviz version 2.43.0 (0)
 -->
<!-- Title: src/polyfem/problem/PointBasedProblem.hpp Pages: 1 -->
<svg width="4218pt" height="721pt"
 viewBox="0.00 0.00 4217.78 721.00" xmlns="http://www.w3.org/2000/svg" xmlns:xlink="http://www.w3.org/1999/xlink">
<g id="graph0" class="graph" transform="scale(1 1) rotate(0) translate(4 717)">
<title>src/polyfem/problem/PointBasedProblem.hpp</title>
<!-- Node1 -->
<g id="node1" class="node">
<title>Node1</title>
<g id="a_node1"><a xlink:title=" ">
<polygon fill="#bfbfbf" stroke="black" points="3804.28,-682.5 3804.28,-712.5 3940.28,-712.5 3940.28,-682.5 3804.28,-682.5"/>
<text text-anchor="start" x="3812.28" y="-700.5" font-family="Helvetica,sans-Serif" font-size="10.00">src/polyfem/problem</text>
<text text-anchor="middle" x="3872.28" y="-689.5" font-family="Helvetica,sans-Serif" font-size="10.00">/PointBasedProblem.hpp</text>
</a>
</g>
</g>
<!-- Node2 -->
<g id="node2" class="node">
<title>Node2</title>
<g id="a_node2"><a xlink:href="_problem_8hpp.html" target="_top" xlink:title=" ">
<polygon fill="none" stroke="black" points="2058.28,-621 2058.28,-640 2234.28,-640 2234.28,-621 2058.28,-621"/>
<text text-anchor="middle" x="2146.28" y="-628" font-family="Helvetica,sans-Serif" font-size="10.00">polyfem/assembler/Problem.hpp</text>
</a>
</g>
</g>
<!-- Node1&#45;&gt;Node2 -->
<g id="edge1" class="edge">
<title>Node1&#45;&gt;Node2</title>
<path fill="none" stroke="midnightblue" d="M3804.09,-693.93C3536.7,-683.86 2559.07,-647.05 2244.49,-635.2"/>
<polygon fill="midnightblue" stroke="midnightblue" points="2244.61,-631.7 2234.48,-634.82 2244.34,-638.7 2244.61,-631.7"/>
</g>
<!-- Node4 -->
<g id="node4" class="node">
<title>Node4</title>
<g id="a_node4"><a xlink:href="_common_8hpp.html" target="_top" xlink:title=" ">
<polygon fill="none" stroke="black" points="1814.78,-129 1814.78,-148 1939.78,-148 1939.78,-129 1814.78,-129"/>
<text text-anchor="middle" x="1877.28" y="-136" font-family="Helvetica,sans-Serif" font-size="10.00">polyfem/Common.hpp</text>
</a>
</g>
</g>
<!-- Node1&#45;&gt;Node4 -->
<g id="edge175" class="edge">
<title>Node1&#45;&gt;Node4</title>
<path fill="none" stroke="midnightblue" d="M3804.18,-696.73C3400.62,-697.66 1318.91,-696.62 692.28,-579 614.92,-564.48 575.75,-582.54 524.28,-523 482.48,-474.66 493.54,-424.63 539.28,-380 604.57,-316.3 645.05,-336.16 733.28,-313 806.8,-293.7 1331.05,-200.89 1406.28,-190 1546.7,-169.67 1711.78,-153.8 1804.5,-145.62"/>
<polygon fill="midnightblue" stroke="midnightblue" points="1804.96,-149.09 1814.62,-144.73 1804.35,-142.12 1804.96,-149.09"/>
</g>
<!-- Node12 -->
<g id="node12" class="node">
<title>Node12</title>
<g id="a_node12"><a xlink:title=" ">
<polygon fill="none" stroke="#bfbfbf" points="2524.78,-0.5 2524.78,-19.5 2601.78,-19.5 2601.78,-0.5 2524.78,-0.5"/>
<text text-anchor="middle" x="2563.28" y="-7.5" font-family="Helvetica,sans-Serif" font-size="10.00">Eigen/Dense</text>
</a>
</g>
</g>
<!-- Node1&#45;&gt;Node12 -->
<g id="edge177" class="edge">
<title>Node1&#45;&gt;Node12</title>
<path fill="none" stroke="midnightblue" d="M3875.85,-682.19C3881.36,-658.85 3891.28,-611.09 3891.28,-570 3891.28,-570 3891.28,-570 3891.28,-137.5 3891.28,-37.38 3779.29,-76.4 3681.28,-56 3472.46,-12.54 2799.23,-10.53 2612,-10.83"/>
<polygon fill="midnightblue" stroke="midnightblue" points="2611.9,-7.33 2601.91,-10.85 2611.91,-14.33 2611.9,-7.33"/>
</g>
<!-- Node16 -->
<g id="node16" class="node">
<title>Node16</title>
<g id="a_node16"><a xlink:title=" ">
<polygon fill="none" stroke="#bfbfbf" points="2758.78,-62 2758.78,-81 2805.78,-81 2805.78,-62 2758.78,-62"/>
<text text-anchor="middle" x="2782.28" y="-69" font-family="Helvetica,sans-Serif" font-size="10.00">vector</text>
</a>
</g>
</g>
<!-- Node1&#45;&gt;Node16 -->
<g id="edge176" class="edge">
<title>Node1&#45;&gt;Node16</title>
<path fill="none" stroke="midnightblue" d="M3868.7,-682.19C3863.2,-658.85 3853.28,-611.09 3853.28,-570 3853.28,-570 3853.28,-570 3853.28,-394.5 3853.28,-255.98 3298.83,-156.83 3134.28,-123 2994.52,-94.27 2953.04,-124.12 2815.28,-87 2812.98,-86.38 2810.64,-85.63 2808.32,-84.79"/>
<polygon fill="midnightblue" stroke="midnightblue" points="2809.63,-81.55 2799.05,-81.04 2807,-88.03 2809.63,-81.55"/>
</g>
<!-- Node55 -->
<g id="node47" class="node">
<title>Node55</title>
<g id="a_node47"><a xlink:href="_interpolated_function_8hpp.html" target="_top" xlink:title=" ">
<polygon fill="none" stroke="black" points="3919.78,-615.5 3919.78,-645.5 4062.78,-645.5 4062.78,-615.5 3919.78,-615.5"/>
<text text-anchor="start" x="3927.78" y="-633.5" font-family="Helvetica,sans-Serif" font-size="10.00">polyfem/utils/Interpolated</text>
<text text-anchor="middle" x="3991.28" y="-622.5" font-family="Helvetica,sans-Serif" font-size="10.00">Function.hpp</text>
</a>
</g>
</g>
<!-- Node1&#45;&gt;Node55 -->
<g id="edge168" class="edge">
<title>Node1&#45;&gt;Node55</title>
<path fill="none" stroke="midnightblue" d="M3898.1,-682.4C3915.25,-673.03 3937.97,-660.62 3956.69,-650.39"/>
<polygon fill="midnightblue" stroke="midnightblue" points="3958.41,-653.44 3965.51,-645.58 3955.05,-647.3 3958.41,-653.44"/>
</g>
<!-- Node57 -->
<g id="node49" class="node">
<title>Node57</title>
<g id="a_node49"><a xlink:href="_r_b_f_interpolation_8hpp.html" target="_top" xlink:title=" ">
<polygon fill="none" stroke="black" points="4022.78,-129 4022.78,-148 4209.78,-148 4209.78,-129 4022.78,-129"/>
<text text-anchor="middle" x="4116.28" y="-136" font-family="Helvetica,sans-Serif" font-size="10.00">polyfem/utils/RBFInterpolation.hpp</text>
</a>
</g>
</g>
<!-- Node1&#45;&gt;Node57 -->
<g id="edge171" class="edge">
<title>Node1&#45;&gt;Node57</title>
<path fill="none" stroke="midnightblue" d="M3940.4,-693C3982.19,-687.75 4034.7,-675.27 4072.28,-646 4102.56,-622.42 4113.28,-608.38 4113.28,-570 4113.28,-570 4113.28,-570 4113.28,-266 4113.28,-227.69 4114.67,-182.88 4115.56,-158.19"/>
<polygon fill="midnightblue" stroke="midnightblue" points="4119.06,-158.21 4115.93,-148.09 4112.06,-157.95 4119.06,-158.21"/>
</g>
<!-- Node3 -->
<g id="node3" class="node">
<title>Node3</title>
<g id="a_node3"><a xlink:href="_assembler_utils_8hpp.html" target="_top" xlink:title=" ">
<polygon fill="none" stroke="black" points="2090.28,-559.5 2090.28,-578.5 2202.28,-578.5 2202.28,-559.5 2090.28,-559.5"/>
<text text-anchor="middle" x="2146.28" y="-566.5" font-family="Helvetica,sans-Serif" font-size="10.00">AssemblerUtils.hpp</text>
</a>
</g>
</g>
<!-- Node2&#45;&gt;Node3 -->
<g id="edge2" class="edge">
<title>Node2&#45;&gt;Node3</title>
<path fill="none" stroke="midnightblue" d="M2146.28,-620.98C2146.28,-612.58 2146.28,-599.48 2146.28,-588.66"/>
<polygon fill="midnightblue" stroke="midnightblue" points="2149.78,-588.51 2146.28,-578.51 2142.78,-588.51 2149.78,-588.51"/>
</g>
<!-- Node2&#45;&gt;Node4 -->
<g id="edge164" class="edge">
<title>Node2&#45;&gt;Node4</title>
<path fill="none" stroke="midnightblue" d="M2058.14,-627.86C1720.5,-621.01 528.28,-591.36 528.28,-514 528.28,-514 528.28,-514 528.28,-456 528.28,-413.78 549.21,-401.95 585.28,-380 644.47,-343.99 1132.5,-291.37 1200.28,-277 1352.02,-244.83 1386.25,-220.8 1538.28,-190 1629.39,-171.54 1735.55,-156.8 1804.46,-148.12"/>
<polygon fill="midnightblue" stroke="midnightblue" points="1805.28,-151.55 1814.77,-146.83 1804.41,-144.6 1805.28,-151.55"/>
</g>
<!-- Node2&#45;&gt;Node12 -->
<g id="edge166" class="edge">
<title>Node2&#45;&gt;Node12</title>
<path fill="none" stroke="midnightblue" d="M2058,-629.03C1712.77,-626.92 464.61,-616.74 291.28,-579 156.82,-549.73 6.28,-595.61 6.28,-458 6.28,-458 6.28,-458 6.28,-266 6.28,-201.7 -17.64,-168.02 28.28,-123 188.69,34.28 305.3,-73.4 529.28,-56 932.82,-24.65 2244.06,-13.37 2514.3,-11.35"/>
<polygon fill="midnightblue" stroke="midnightblue" points="2514.59,-14.84 2524.57,-11.27 2514.54,-7.84 2514.59,-14.84"/>
</g>
<!-- Node2&#45;&gt;Node16 -->
<g id="edge165" class="edge">
<title>Node2&#45;&gt;Node16</title>
<path fill="none" stroke="midnightblue" d="M2234.34,-627.82C2489.67,-622.67 3227.36,-605.85 3467.28,-579 3623.64,-561.5 3815.28,-671.34 3815.28,-514 3815.28,-514 3815.28,-514 3815.28,-456 3815.28,-369.2 3757.03,-357.1 3682.28,-313 3536.7,-227.12 3473.73,-274.12 3313.28,-221 3205.85,-185.43 3187.47,-152.7 3078.28,-123 2964.43,-92.04 2928.82,-119.04 2815.28,-87 2813.12,-86.39 2810.93,-85.67 2808.75,-84.88"/>
<polygon fill="midnightblue" stroke="midnightblue" points="2810,-81.61 2799.41,-81.11 2807.37,-88.1 2810,-81.61"/>
</g>
<!-- Node18 -->
<g id="node18" class="node">
<title>Node18</title>
<g id="a_node18"><a xlink:href="_element_bases_8hpp.html" target="_top" xlink:title=" ">
<polygon fill="none" stroke="black" points="2777.78,-257.5 2777.78,-276.5 2956.78,-276.5 2956.78,-257.5 2777.78,-257.5"/>
<text text-anchor="middle" x="2867.28" y="-264.5" font-family="Helvetica,sans-Serif" font-size="10.00">polyfem/basis/ElementBases.hpp</text>
</a>
</g>
</g>
<!-- Node2&#45;&gt;Node18 -->
<g id="edge157" class="edge">
<title>Node2&#45;&gt;Node18</title>
<path fill="none" stroke="midnightblue" d="M2234.44,-626.16C2523.68,-614.64 3425.28,-573.9 3425.28,-514 3425.28,-514 3425.28,-514 3425.28,-456 3425.28,-356.32 3101.45,-299.41 2947.18,-277.95"/>
<polygon fill="midnightblue" stroke="midnightblue" points="2947.2,-274.42 2936.82,-276.53 2946.25,-281.36 2947.2,-274.42"/>
</g>
<!-- Node19 -->
<g id="node19" class="node">
<title>Node19</title>
<g id="a_node19"><a xlink:href="_mesh_8hpp.html" target="_top" xlink:title=" ">
<polygon fill="none" stroke="black" points="1019.78,-196 1019.78,-215 1156.78,-215 1156.78,-196 1019.78,-196"/>
<text text-anchor="middle" x="1088.28" y="-203" font-family="Helvetica,sans-Serif" font-size="10.00">polyfem/mesh/Mesh.hpp</text>
</a>
</g>
</g>
<!-- Node2&#45;&gt;Node19 -->
<g id="edge163" class="edge">
<title>Node2&#45;&gt;Node19</title>
<path fill="none" stroke="midnightblue" d="M2058.16,-626.37C1763.99,-615.33 834.28,-575.59 834.28,-514 834.28,-514 834.28,-514 834.28,-456 834.28,-331.98 990.29,-249.11 1057.77,-219.06"/>
<polygon fill="midnightblue" stroke="midnightblue" points="1059.29,-222.22 1067.06,-215.01 1056.49,-215.8 1059.29,-222.22"/>
</g>
<!-- Node25 -->
<g id="node23" class="node">
<title>Node25</title>
<g id="a_node23"><a xlink:title=" ">
<polygon fill="none" stroke="#bfbfbf" points="377.28,-129 377.28,-148 435.28,-148 435.28,-129 377.28,-129"/>
<text text-anchor="middle" x="406.28" y="-136" font-family="Helvetica,sans-Serif" font-size="10.00">memory</text>
</a>
</g>
</g>
<!-- Node2&#45;&gt;Node25 -->
<g id="edge167" class="edge">
<title>Node2&#45;&gt;Node25</title>
<path fill="none" stroke="midnightblue" d="M2057.97,-629.06C1672.71,-626.55 158.28,-610.56 158.28,-514 158.28,-514 158.28,-514 158.28,-456 158.28,-310.92 321.73,-192.8 383.24,-153.49"/>
<polygon fill="midnightblue" stroke="midnightblue" points="385.27,-156.35 391.87,-148.07 381.54,-150.42 385.27,-156.35"/>
</g>
<!-- Node53 -->
<g id="node45" class="node">
<title>Node53</title>
<g id="a_node45"><a xlink:href="_local_boundary_8hpp.html" target="_top" xlink:title=" ">
<polygon fill="none" stroke="black" points="3491.28,-386 3491.28,-405 3673.28,-405 3673.28,-386 3491.28,-386"/>
<text text-anchor="middle" x="3582.28" y="-393" font-family="Helvetica,sans-Serif" font-size="10.00">polyfem/mesh/LocalBoundary.hpp</text>
</a>
</g>
</g>
<!-- Node2&#45;&gt;Node53 -->
<g id="edge158" class="edge">
<title>Node2&#45;&gt;Node53</title>
<path fill="none" stroke="midnightblue" d="M2234.45,-628.09C2517.17,-623.28 3385.74,-606.37 3439.28,-579 3510.37,-542.66 3557.14,-453.07 3574.6,-414.57"/>
<polygon fill="midnightblue" stroke="midnightblue" points="3577.92,-415.71 3578.75,-405.15 3571.52,-412.89 3577.92,-415.71"/>
</g>
<!-- Node3&#45;&gt;Node4 -->
<g id="edge3" class="edge">
<title>Node3&#45;&gt;Node4</title>
<path fill="none" stroke="midnightblue" d="M2089.99,-565.2C1860.45,-553.18 1003.81,-502.44 929.28,-411 920.57,-400.32 920.84,-390.89 929.28,-380 935.72,-371.67 1653.06,-192.53 1663.28,-190 1720.57,-175.83 1786.71,-160.35 1830.12,-150.32"/>
<polygon fill="midnightblue" stroke="midnightblue" points="1831.15,-153.68 1840.11,-148.02 1829.57,-146.85 1831.15,-153.68"/>
</g>
<!-- Node7 -->
<g id="node7" class="node">
<title>Node7</title>
<g id="a_node7"><a xlink:href="_assembler_8hpp.html" target="_top" xlink:title=" ">
<polygon fill="none" stroke="black" points="227.78,-447.5 227.78,-466.5 316.78,-466.5 316.78,-447.5 227.78,-447.5"/>
<text text-anchor="middle" x="272.28" y="-454.5" font-family="Helvetica,sans-Serif" font-size="10.00">Assembler.hpp</text>
</a>
</g>
</g>
<!-- Node3&#45;&gt;Node7 -->
<g id="edge6" class="edge">
<title>Node3&#45;&gt;Node7</title>
<path fill="none" stroke="midnightblue" d="M2090.1,-568.07C1903.24,-567.88 1285.71,-563.98 777.28,-523 612.73,-509.74 419.52,-481.23 327.02,-466.78"/>
<polygon fill="midnightblue" stroke="midnightblue" points="327.48,-463.31 317.05,-465.22 326.39,-470.23 327.48,-463.31"/>
</g>
<!-- Node3&#45;&gt;Node16 -->
<g id="edge156" class="edge">
<title>Node3&#45;&gt;Node16</title>
<path fill="none" stroke="midnightblue" d="M2202.32,-567.68C2375.59,-566.33 2900.99,-559.25 3067.28,-523 3197.83,-494.54 3271.5,-521.74 3346.28,-411 3373.1,-371.28 3338.74,-342.89 3301.28,-313 3147.53,-190.33 3059.79,-250.27 2888.28,-154 2854.27,-134.91 2819.25,-105.78 2799.19,-88"/>
<polygon fill="midnightblue" stroke="midnightblue" points="2801.33,-85.22 2791.55,-81.14 2796.65,-90.43 2801.33,-85.22"/>
</g>
<!-- Node26 -->
<g id="node24" class="node">
<title>Node26</title>
<g id="a_node24"><a xlink:href="_matrix_utils_8hpp.html" target="_top" xlink:title=" ">
<polygon fill="none" stroke="black" points="37.78,-129 37.78,-148 196.78,-148 196.78,-129 37.78,-129"/>
<text text-anchor="middle" x="117.28" y="-136" font-family="Helvetica,sans-Serif" font-size="10.00">polyfem/utils/MatrixUtils.hpp</text>
</a>
</g>
</g>
<!-- Node3&#45;&gt;Node26 -->
<g id="edge155" class="edge">
<title>Node3&#45;&gt;Node26</title>
<path fill="none" stroke="midnightblue" d="M2090.05,-568.08C1755.78,-568.17 44.28,-563.52 44.28,-458 44.28,-458 44.28,-458 44.28,-394.5 44.28,-302.15 89.08,-198 108.48,-157.21"/>
<polygon fill="midnightblue" stroke="midnightblue" points="111.71,-158.58 112.93,-148.05 105.42,-155.52 111.71,-158.58"/>
</g>
<!-- Node28 -->
<g id="node26" class="node">
<title>Node28</title>
<g id="a_node26"><a xlink:href="_mass_matrix_assembler_8hpp.html" target="_top" xlink:title=" ">
<polygon fill="none" stroke="black" points="589.28,-447.5 589.28,-466.5 735.28,-466.5 735.28,-447.5 589.28,-447.5"/>
<text text-anchor="middle" x="662.28" y="-454.5" font-family="Helvetica,sans-Serif" font-size="10.00">MassMatrixAssembler.hpp</text>
</a>
</g>
</g>
<!-- Node3&#45;&gt;Node28 -->
<g id="edge48" class="edge">
<title>Node3&#45;&gt;Node28</title>
<path fill="none" stroke="midnightblue" d="M2089.94,-568.16C1874.1,-568.45 1099.98,-566.38 858.28,-523 797.06,-512.01 728.79,-486.06 691.15,-470.48"/>
<polygon fill="midnightblue" stroke="midnightblue" points="692.4,-467.21 681.82,-466.57 689.69,-473.66 692.4,-467.21"/>
</g>
<!-- Node36 -->
<g id="node30" class="node">
<title>Node36</title>
<g id="a_node30"><a xlink:href="_laplacian_8hpp.html" target="_top" xlink:title=" ">
<polygon fill="none" stroke="black" points="1044.28,-386 1044.28,-405 1128.28,-405 1128.28,-386 1044.28,-386"/>
<text text-anchor="middle" x="1086.28" y="-393" font-family="Helvetica,sans-Serif" font-size="10.00">Laplacian.hpp</text>
</a>
</g>
</g>
<!-- Node3&#45;&gt;Node36 -->
<g id="edge67" class="edge">
<title>Node3&#45;&gt;Node36</title>
<path fill="none" stroke="midnightblue" d="M2090.19,-560.7C2025.7,-552.19 1916.72,-537.43 1823.28,-523 1529.24,-477.58 1456.15,-463.42 1163.28,-411 1155.28,-409.57 1146.83,-408.02 1138.56,-406.48"/>
<polygon fill="midnightblue" stroke="midnightblue" points="1139.09,-403.02 1128.62,-404.61 1137.8,-409.9 1139.09,-403.02"/>
</g>
<!-- Node37 -->
<g id="node31" class="node">
<title>Node37</title>
<g id="a_node31"><a xlink:href="_bilaplacian_8hpp.html" target="_top" xlink:title=" ">
<polygon fill="none" stroke="black" points="3141.28,-386 3141.28,-405 3233.28,-405 3233.28,-386 3141.28,-386"/>
<text text-anchor="middle" x="3187.28" y="-393" font-family="Helvetica,sans-Serif" font-size="10.00">Bilaplacian.hpp</text>
</a>
</g>
</g>
<!-- Node3&#45;&gt;Node37 -->
<g id="edge72" class="edge">
<title>Node3&#45;&gt;Node37</title>
<path fill="none" stroke="midnightblue" d="M2202.52,-567.82C2329.18,-566.74 2646.19,-560.19 2908.28,-523 3019.73,-507.18 3068.02,-538.11 3155.28,-467 3171.19,-454.03 3179.51,-431.44 3183.63,-415.32"/>
<polygon fill="midnightblue" stroke="midnightblue" points="3187.08,-415.92 3185.85,-405.4 3180.25,-414.39 3187.08,-415.92"/>
</g>
<!-- Node38 -->
<g id="node32" class="node">
<title>Node38</title>
<g id="a_node32"><a xlink:href="_helmholtz_8hpp.html" target="_top" xlink:title=" ">
<polygon fill="none" stroke="black" points="938.28,-386 938.28,-405 1026.28,-405 1026.28,-386 938.28,-386"/>
<text text-anchor="middle" x="982.28" y="-393" font-family="Helvetica,sans-Serif" font-size="10.00">Helmholtz.hpp</text>
</a>
</g>
</g>
<!-- Node3&#45;&gt;Node38 -->
<g id="edge79" class="edge">
<title>Node3&#45;&gt;Node38</title>
<path fill="none" stroke="midnightblue" d="M2090.24,-563.65C2004.82,-556.75 1837.01,-542.07 1695.28,-523 1400.41,-483.32 1325.79,-475.22 1035.28,-411 1030.81,-410.01 1026.15,-408.88 1021.54,-407.71"/>
<polygon fill="midnightblue" stroke="midnightblue" points="1022.15,-404.25 1011.58,-405.07 1020.36,-411.01 1022.15,-404.25"/>
</g>
<!-- Node39 -->
<g id="node33" class="node">
<title>Node39</title>
<g id="a_node33"><a xlink:href="_linear_elasticity_8hpp.html" target="_top" xlink:title=" ">
<polygon fill="none" stroke="black" points="2561.78,-447.5 2561.78,-466.5 2672.78,-466.5 2672.78,-447.5 2561.78,-447.5"/>
<text text-anchor="middle" x="2617.28" y="-454.5" font-family="Helvetica,sans-Serif" font-size="10.00">LinearElasticity.hpp</text>
</a>
</g>
</g>
<!-- Node3&#45;&gt;Node39 -->
<g id="edge84" class="edge">
<title>Node3&#45;&gt;Node39</title>
<path fill="none" stroke="midnightblue" d="M2182.84,-559.46C2267.62,-539.66 2477.44,-490.66 2570.98,-468.81"/>
<polygon fill="midnightblue" stroke="midnightblue" points="2571.79,-472.22 2580.73,-466.53 2570.2,-465.4 2571.79,-472.22"/>
</g>
<!-- Node40 -->
<g id="node34" class="node">
<title>Node40</title>
<g id="a_node34"><a xlink:href="_hooke_linear_elasticity_8hpp.html" target="_top" xlink:title=" ">
<polygon fill="none" stroke="black" points="3004.28,-447.5 3004.28,-466.5 3146.28,-466.5 3146.28,-447.5 3004.28,-447.5"/>
<text text-anchor="middle" x="3075.28" y="-454.5" font-family="Helvetica,sans-Serif" font-size="10.00">HookeLinearElasticity.hpp</text>
</a>
</g>
</g>
<!-- Node3&#45;&gt;Node40 -->
<g id="edge92" class="edge">
<title>Node3&#45;&gt;Node40</title>
<path fill="none" stroke="midnightblue" d="M2202.31,-568.65C2322.67,-569.12 2614.43,-565.35 2854.28,-523 2922.82,-510.9 3000.32,-485.21 3042.91,-470"/>
<polygon fill="midnightblue" stroke="midnightblue" points="3044.24,-473.24 3052.46,-466.55 3041.86,-466.66 3044.24,-473.24"/>
</g>
<!-- Node41 -->
<g id="node35" class="node">
<title>Node41</title>
<g id="a_node35"><a xlink:href="_saint_venant_elasticity_8hpp.html" target="_top" xlink:title=" ">
<polygon fill="none" stroke="black" points="2021.28,-447.5 2021.28,-466.5 2161.28,-466.5 2161.28,-447.5 2021.28,-447.5"/>
<text text-anchor="middle" x="2091.28" y="-454.5" font-family="Helvetica,sans-Serif" font-size="10.00">SaintVenantElasticity.hpp</text>
</a>
</g>
</g>
<!-- Node3&#45;&gt;Node41 -->
<g id="edge100" class="edge">
<title>Node3&#45;&gt;Node41</title>
<path fill="none" stroke="midnightblue" d="M2141.96,-559.37C2132.97,-541.38 2112.05,-499.55 2100.09,-475.63"/>
<polygon fill="midnightblue" stroke="midnightblue" points="2103.18,-473.97 2095.57,-466.59 2096.92,-477.1 2103.18,-473.97"/>
</g>
<!-- Node42 -->
<g id="node36" class="node">
<title>Node42</title>
<g id="a_node36"><a xlink:href="_neo_hookean_elasticity_8hpp.html" target="_top" xlink:title=" ">
<polygon fill="none" stroke="red" points="1533.78,-447.5 1533.78,-466.5 1676.78,-466.5 1676.78,-447.5 1533.78,-447.5"/>
<text text-anchor="middle" x="1605.28" y="-454.5" font-family="Helvetica,sans-Serif" font-size="10.00">NeoHookeanElasticity.hpp</text>
</a>
</g>
</g>
<!-- Node3&#45;&gt;Node42 -->
<g id="edge109" class="edge">
<title>Node3&#45;&gt;Node42</title>
<path fill="none" stroke="midnightblue" d="M2104.28,-559.46C2006.51,-539.58 1763.94,-490.26 1657.15,-468.55"/>
<polygon fill="midnightblue" stroke="midnightblue" points="1657.75,-465.1 1647.25,-466.53 1656.35,-471.96 1657.75,-465.1"/>
</g>
<!-- Node49 -->
<g id="node41" class="node">
<title>Node49</title>
<g id="a_node41"><a xlink:href="_multi_model_8hpp.html" target="_top" xlink:title=" ">
<polygon fill="none" stroke="black" points="2143.28,-503.5 2143.28,-522.5 2235.28,-522.5 2235.28,-503.5 2143.28,-503.5"/>
<text text-anchor="middle" x="2189.28" y="-510.5" font-family="Helvetica,sans-Serif" font-size="10.00">MultiModel.hpp</text>
</a>
</g>
</g>
<!-- Node3&#45;&gt;Node49 -->
<g id="edge122" class="edge">
<title>Node3&#45;&gt;Node49</title>
<path fill="none" stroke="midnightblue" d="M2153.38,-559.08C2159.51,-551.38 2168.55,-540.03 2176.02,-530.65"/>
<polygon fill="midnightblue" stroke="midnightblue" points="2178.82,-532.75 2182.31,-522.75 2173.34,-528.39 2178.82,-532.75"/>
</g>
<!-- Node50 -->
<g id="node42" class="node">
<title>Node50</title>
<g id="a_node42"><a xlink:href="_stokes_8hpp.html" target="_top" xlink:title=" ">
<polygon fill="none" stroke="black" points="3251.28,-386 3251.28,-405 3321.28,-405 3321.28,-386 3251.28,-386"/>
<text text-anchor="middle" x="3286.28" y="-393" font-family="Helvetica,sans-Serif" font-size="10.00">Stokes.hpp</text>
</a>
</g>
</g>
<!-- Node3&#45;&gt;Node50 -->
<g id="edge133" class="edge">
<title>Node3&#45;&gt;Node50</title>
<path fill="none" stroke="midnightblue" d="M2202.53,-567.14C2369.1,-564.28 2857.92,-553.44 3014.28,-523 3089.05,-508.44 3107.73,-500.23 3176.28,-467 3209.68,-450.81 3245.32,-426.51 3266.69,-411.09"/>
<polygon fill="midnightblue" stroke="midnightblue" points="3268.92,-413.8 3274.93,-405.07 3264.79,-408.14 3268.92,-413.8"/>
</g>
<!-- Node51 -->
<g id="node43" class="node">
<title>Node51</title>
<g id="a_node43"><a xlink:href="_navier_stokes_8hpp.html" target="_top" xlink:title=" ">
<polygon fill="none" stroke="black" points="2907.28,-386 2907.28,-405 3009.28,-405 3009.28,-386 2907.28,-386"/>
<text text-anchor="middle" x="2958.28" y="-393" font-family="Helvetica,sans-Serif" font-size="10.00">NavierStokes.hpp</text>
</a>
</g>
</g>
<!-- Node3&#45;&gt;Node51 -->
<g id="edge140" class="edge">
<title>Node3&#45;&gt;Node51</title>
<path fill="none" stroke="midnightblue" d="M2202.49,-564.37C2315.09,-555.95 2575.39,-530.74 2784.28,-467 2804.44,-460.85 2807.88,-455.24 2827.28,-447 2860.1,-433.06 2898.2,-418.56 2924.81,-408.69"/>
<polygon fill="midnightblue" stroke="midnightblue" points="2926.25,-411.89 2934.42,-405.15 2923.83,-405.32 2926.25,-411.89"/>
</g>
<!-- Node52 -->
<g id="node44" class="node">
<title>Node52</title>
<g id="a_node44"><a xlink:href="_incompressible_lin_elast_8hpp.html" target="_top" xlink:title=" ">
<polygon fill="none" stroke="black" points="2836.28,-447.5 2836.28,-466.5 2986.28,-466.5 2986.28,-447.5 2836.28,-447.5"/>
<text text-anchor="middle" x="2911.28" y="-454.5" font-family="Helvetica,sans-Serif" font-size="10.00">IncompressibleLinElast.hpp</text>
</a>
</g>
</g>
<!-- Node3&#45;&gt;Node52 -->
<g id="edge147" class="edge">
<title>Node3&#45;&gt;Node52</title>
<path fill="none" stroke="midnightblue" d="M2202.33,-568.26C2343.2,-568.27 2708.9,-564.21 2822.28,-523 2851.33,-512.44 2879.16,-489.32 2895.74,-473.7"/>
<polygon fill="midnightblue" stroke="midnightblue" points="2898.19,-476.2 2902.93,-466.72 2893.32,-471.17 2898.19,-476.2"/>
</g>
<!-- Node5 -->
<g id="node5" class="node">
<title>Node5</title>
<g id="a_node5"><a xlink:title=" ">
<polygon fill="none" stroke="#bfbfbf" points="184.28,-0.5 184.28,-19.5 264.28,-19.5 264.28,-0.5 184.28,-0.5"/>
<text text-anchor="middle" x="224.28" y="-7.5" font-family="Helvetica,sans-Serif" font-size="10.00">Eigen/Sparse</text>
</a>
</g>
</g>
<!-- Node4&#45;&gt;Node5 -->
<g id="edge4" class="edge">
<title>Node4&#45;&gt;Node5</title>
<path fill="none" stroke="midnightblue" d="M1848.13,-128.96C1787.18,-111.53 1641.49,-72.17 1516.28,-56 1269.73,-24.16 482.44,-13.73 274.85,-11.5"/>
<polygon fill="midnightblue" stroke="midnightblue" points="274.59,-7.99 264.55,-11.39 274.52,-14.99 274.59,-7.99"/>
</g>
<!-- Node6 -->
<g id="node6" class="node">
<title>Node6</title>
<g id="a_node6"><a xlink:title=" ">
<polygon fill="none" stroke="#bfbfbf" points="1822.28,-62 1822.28,-81 1932.28,-81 1932.28,-62 1822.28,-62"/>
<text text-anchor="middle" x="1877.28" y="-69" font-family="Helvetica,sans-Serif" font-size="10.00">nlohmann/json.hpp</text>
</a>
</g>
</g>
<!-- Node4&#45;&gt;Node6 -->
<g id="edge5" class="edge">
<title>Node4&#45;&gt;Node6</title>
<path fill="none" stroke="midnightblue" d="M1877.28,-128.73C1877.28,-119.18 1877.28,-103.62 1877.28,-91.28"/>
<polygon fill="midnightblue" stroke="midnightblue" points="1880.78,-91.13 1877.28,-81.13 1873.78,-91.13 1880.78,-91.13"/>
</g>
<!-- Node7&#45;&gt;Node5 -->
<g id="edge43" class="edge">
<title>Node7&#45;&gt;Node5</title>
<path fill="none" stroke="midnightblue" d="M227.63,-451.03C198.19,-445.63 160.54,-434.38 135.28,-411 44.48,-326.95 52.53,-275.33 28.28,-154 25.58,-140.49 21.36,-134.92 28.28,-123 60.51,-67.46 131.77,-37.14 178.9,-22.5"/>
<polygon fill="midnightblue" stroke="midnightblue" points="179.99,-25.83 188.57,-19.61 177.98,-19.12 179.99,-25.83"/>
</g>
<!-- Node8 -->
<g id="node8" class="node">
<title>Node8</title>
<g id="a_node8"><a xlink:href="_assembly_vals_cache_8hpp.html" target="_top" xlink:title=" ">
<polygon fill="none" stroke="black" points="594.28,-386 594.28,-405 730.28,-405 730.28,-386 594.28,-386"/>
<text text-anchor="middle" x="662.28" y="-393" font-family="Helvetica,sans-Serif" font-size="10.00">AssemblyValsCache.hpp</text>
</a>
</g>
</g>
<!-- Node7&#45;&gt;Node8 -->
<g id="edge7" class="edge">
<title>Node7&#45;&gt;Node8</title>
<path fill="none" stroke="midnightblue" d="M317.02,-449.17C385.61,-438.71 517.15,-418.64 596.58,-406.52"/>
<polygon fill="midnightblue" stroke="midnightblue" points="597.12,-409.98 606.48,-405.01 596.06,-403.06 597.12,-409.98"/>
</g>
<!-- Node9 -->
<g id="node9" class="node">
<title>Node9</title>
<g id="a_node9"><a xlink:href="_element_assembly_values_8hpp.html" target="_top" xlink:title=" ">
<polygon fill="none" stroke="black" points="2209.78,-313.5 2209.78,-343.5 2364.78,-343.5 2364.78,-313.5 2209.78,-313.5"/>
<text text-anchor="start" x="2217.78" y="-331.5" font-family="Helvetica,sans-Serif" font-size="10.00">polyfem/assembler/Element</text>
<text text-anchor="middle" x="2287.28" y="-320.5" font-family="Helvetica,sans-Serif" font-size="10.00">AssemblyValues.hpp</text>
</a>
</g>
</g>
<!-- Node7&#45;&gt;Node9 -->
<g id="edge38" class="edge">
<title>Node7&#45;&gt;Node9</title>
<path fill="none" stroke="midnightblue" d="M275.69,-447.37C282.77,-430.75 300.85,-394.68 329.28,-380 413.28,-336.63 1829.3,-330.5 2199.37,-329.64"/>
<polygon fill="midnightblue" stroke="midnightblue" points="2199.5,-333.14 2209.49,-329.62 2199.48,-326.14 2199.5,-333.14"/>
</g>
<!-- Node7&#45;&gt;Node16 -->
<g id="edge44" class="edge">
<title>Node7&#45;&gt;Node16</title>
<path fill="none" stroke="midnightblue" d="M267.15,-447.41C262.22,-438.61 255.12,-424.38 252.28,-411 249.42,-397.52 250.76,-393.69 252.28,-380 266.05,-255.44 261.54,-188.67 368.28,-123 381.55,-114.83 2455.57,-78.22 2748.13,-73.1"/>
<polygon fill="midnightblue" stroke="midnightblue" points="2748.59,-76.59 2758.52,-72.91 2748.46,-69.59 2748.59,-76.59"/>
</g>
<!-- Node17 -->
<g id="node17" class="node">
<title>Node17</title>
<g id="a_node17"><a xlink:title=" ">
<polygon fill="none" stroke="#bfbfbf" points="2599.28,-129 2599.28,-148 2659.28,-148 2659.28,-129 2599.28,-129"/>
<text text-anchor="middle" x="2629.28" y="-136" font-family="Helvetica,sans-Serif" font-size="10.00">iostream</text>
</a>
</g>
</g>
<!-- Node7&#45;&gt;Node17 -->
<g id="edge45" class="edge">
<title>Node7&#45;&gt;Node17</title>
<path fill="none" stroke="midnightblue" d="M271.97,-447.35C271.91,-431.35 274.29,-397.2 294.28,-380 415.95,-275.32 1566.48,-205.05 1726.28,-190 2058.89,-158.68 2462.38,-144.54 2589.18,-140.65"/>
<polygon fill="midnightblue" stroke="midnightblue" points="2589.32,-144.15 2599.21,-140.35 2589.1,-137.16 2589.32,-144.15"/>
</g>
<!-- Node7&#45;&gt;Node25 -->
<g id="edge47" class="edge">
<title>Node7&#45;&gt;Node25</title>
<path fill="none" stroke="midnightblue" d="M268.19,-447.45C261.95,-433.25 251.48,-404.01 258.28,-380 284.85,-286.11 359.57,-192.83 391.51,-155.97"/>
<polygon fill="midnightblue" stroke="midnightblue" points="394.34,-158.05 398.31,-148.23 389.08,-153.43 394.34,-158.05"/>
</g>
<!-- Node7&#45;&gt;Node26 -->
<g id="edge39" class="edge">
<title>Node7&#45;&gt;Node26</title>
<path fill="none" stroke="midnightblue" d="M245.1,-447.38C201.38,-431.61 120.28,-393.7 120.28,-329.5 120.28,-329.5 120.28,-329.5 120.28,-266 120.28,-227.69 118.89,-182.88 118,-158.19"/>
<polygon fill="midnightblue" stroke="midnightblue" points="121.49,-157.95 117.62,-148.09 114.5,-158.21 121.49,-157.95"/>
</g>
<!-- Node27 -->
<g id="node25" class="node">
<title>Node27</title>
<g id="a_node25"><a xlink:title=" ">
<polygon fill="none" stroke="#bfbfbf" points="338.78,-386 338.78,-405 385.78,-405 385.78,-386 338.78,-386"/>
<text text-anchor="middle" x="362.28" y="-393" font-family="Helvetica,sans-Serif" font-size="10.00">cmath</text>
</a>
</g>
</g>
<!-- Node7&#45;&gt;Node27 -->
<g id="edge46" class="edge">
<title>Node7&#45;&gt;Node27</title>
<path fill="none" stroke="midnightblue" d="M285.17,-447.48C299.74,-437.84 323.68,-422.02 341.02,-410.55"/>
<polygon fill="midnightblue" stroke="midnightblue" points="343,-413.44 349.41,-405.01 339.14,-407.6 343,-413.44"/>
</g>
<!-- Node8&#45;&gt;Node9 -->
<g id="edge8" class="edge">
<title>Node8&#45;&gt;Node9</title>
<path fill="none" stroke="midnightblue" d="M730.34,-389.82C777.02,-386.73 840.38,-382.75 896.28,-380 1388.68,-355.81 1979.67,-338.1 2199.4,-331.91"/>
<polygon fill="midnightblue" stroke="midnightblue" points="2199.68,-335.4 2209.58,-331.62 2199.49,-328.41 2199.68,-335.4"/>
</g>
<!-- Node10 -->
<g id="node10" class="node">
<title>Node10</title>
<g id="a_node10"><a xlink:href="_assembly_values_8hpp.html" target="_top" xlink:title=" ">
<polygon fill="none" stroke="black" points="2681.28,-190.5 2681.28,-220.5 2843.28,-220.5 2843.28,-190.5 2681.28,-190.5"/>
<text text-anchor="start" x="2689.28" y="-208.5" font-family="Helvetica,sans-Serif" font-size="10.00">polyfem/assembler/Assembly</text>
<text text-anchor="middle" x="2762.28" y="-197.5" font-family="Helvetica,sans-Serif" font-size="10.00">Values.hpp</text>
</a>
</g>
</g>
<!-- Node9&#45;&gt;Node10 -->
<g id="edge9" class="edge">
<title>Node9&#45;&gt;Node10</title>
<path fill="none" stroke="midnightblue" d="M2342.7,-313.38C2431.01,-290.89 2603.25,-247.01 2697.26,-223.06"/>
<polygon fill="midnightblue" stroke="midnightblue" points="2698.39,-226.39 2707.21,-220.53 2696.66,-219.6 2698.39,-226.39"/>
</g>
<!-- Node9&#45;&gt;Node16 -->
<g id="edge37" class="edge">
<title>Node9&#45;&gt;Node16</title>
<path fill="none" stroke="midnightblue" d="M2307.45,-313.31C2370.18,-269.26 2559.5,-136.95 2590.28,-123 2643.05,-99.09 2709.3,-84.81 2748.57,-77.82"/>
<polygon fill="midnightblue" stroke="midnightblue" points="2749.4,-81.22 2758.66,-76.08 2748.21,-74.33 2749.4,-81.22"/>
</g>
<!-- Node9&#45;&gt;Node18 -->
<g id="edge22" class="edge">
<title>Node9&#45;&gt;Node18</title>
<path fill="none" stroke="midnightblue" d="M2365.03,-314.89C2369.85,-314.22 2374.62,-313.58 2379.28,-313 2513.34,-296.27 2668.86,-282.98 2767.62,-275.3"/>
<polygon fill="midnightblue" stroke="midnightblue" points="2767.9,-278.79 2777.6,-274.53 2767.36,-271.81 2767.9,-278.79"/>
</g>
<!-- Node11 -->
<g id="node11" class="node">
<title>Node11</title>
<g id="a_node11"><a xlink:href="_quadrature_8hpp.html" target="_top" xlink:title=" ">
<polygon fill="none" stroke="black" points="2823.78,-56.5 2823.78,-86.5 2936.78,-86.5 2936.78,-56.5 2823.78,-56.5"/>
<text text-anchor="start" x="2831.78" y="-74.5" font-family="Helvetica,sans-Serif" font-size="10.00">polyfem/quadrature</text>
<text text-anchor="middle" x="2880.28" y="-63.5" font-family="Helvetica,sans-Serif" font-size="10.00">/Quadrature.hpp</text>
</a>
</g>
</g>
<!-- Node10&#45;&gt;Node11 -->
<g id="edge10" class="edge">
<title>Node10&#45;&gt;Node11</title>
<path fill="none" stroke="midnightblue" d="M2774.91,-190.37C2795.58,-167.25 2836.76,-121.18 2861.07,-93.99"/>
<polygon fill="midnightblue" stroke="midnightblue" points="2863.69,-96.31 2867.74,-86.52 2858.47,-91.65 2863.69,-96.31"/>
</g>
<!-- Node10&#45;&gt;Node12 -->
<g id="edge20" class="edge">
<title>Node10&#45;&gt;Node12</title>
<path fill="none" stroke="midnightblue" d="M2747.65,-190.27C2711.43,-155.06 2617.8,-64.01 2579.73,-27"/>
<polygon fill="midnightblue" stroke="midnightblue" points="2581.71,-24.04 2572.1,-19.58 2576.83,-29.06 2581.71,-24.04"/>
</g>
<!-- Node13 -->
<g id="node13" class="node">
<title>Node13</title>
<g id="a_node13"><a xlink:href="_basis_8hpp.html" target="_top" xlink:title=" ">
<polygon fill="none" stroke="black" points="2897.28,-129 2897.28,-148 3033.28,-148 3033.28,-129 2897.28,-129"/>
<text text-anchor="middle" x="2965.28" y="-136" font-family="Helvetica,sans-Serif" font-size="10.00">polyfem/basis/Basis.hpp</text>
</a>
</g>
</g>
<!-- Node10&#45;&gt;Node13 -->
<g id="edge12" class="edge">
<title>Node10&#45;&gt;Node13</title>
<path fill="none" stroke="midnightblue" d="M2806.33,-190.4C2843.05,-178.64 2894.73,-162.09 2929.08,-151.09"/>
<polygon fill="midnightblue" stroke="midnightblue" points="2930.25,-154.39 2938.71,-148.01 2928.12,-147.72 2930.25,-154.39"/>
</g>
<!-- Node10&#45;&gt;Node17 -->
<g id="edge21" class="edge">
<title>Node10&#45;&gt;Node17</title>
<path fill="none" stroke="midnightblue" d="M2733.42,-190.4C2710.39,-179.14 2678.39,-163.5 2655.95,-152.54"/>
<polygon fill="midnightblue" stroke="midnightblue" points="2657.21,-149.25 2646.68,-148.01 2654.13,-155.54 2657.21,-149.25"/>
</g>
<!-- Node11&#45;&gt;Node12 -->
<g id="edge11" class="edge">
<title>Node11&#45;&gt;Node12</title>
<path fill="none" stroke="midnightblue" d="M2823.59,-57.7C2820.78,-57.12 2818,-56.55 2815.28,-56 2744.76,-41.84 2662.68,-27.6 2611.85,-19.04"/>
<polygon fill="midnightblue" stroke="midnightblue" points="2612.24,-15.56 2601.8,-17.35 2611.08,-22.46 2612.24,-15.56"/>
</g>
<!-- Node13&#45;&gt;Node11 -->
<g id="edge13" class="edge">
<title>Node13&#45;&gt;Node11</title>
<path fill="none" stroke="midnightblue" d="M2953.81,-128.73C2941.89,-119.61 2922.78,-105 2907.04,-92.96"/>
<polygon fill="midnightblue" stroke="midnightblue" points="2908.77,-89.88 2898.7,-86.59 2904.52,-95.44 2908.77,-89.88"/>
</g>
<!-- Node13&#45;&gt;Node12 -->
<g id="edge17" class="edge">
<title>Node13&#45;&gt;Node12</title>
<path fill="none" stroke="midnightblue" d="M2966.17,-128.78C2967.37,-111.9 2967.29,-74.78 2946.28,-56 2921.77,-34.1 2709.56,-19.32 2611.99,-13.62"/>
<polygon fill="midnightblue" stroke="midnightblue" points="2611.98,-10.12 2601.79,-13.04 2611.57,-17.11 2611.98,-10.12"/>
</g>
<!-- Node14 -->
<g id="node14" class="node">
<title>Node14</title>
<g id="a_node14"><a xlink:href="_types_8hpp.html" target="_top" xlink:title=" ">
<polygon fill="none" stroke="black" points="1373.78,-62 1373.78,-81 1506.78,-81 1506.78,-62 1373.78,-62"/>
<text text-anchor="middle" x="1440.28" y="-69" font-family="Helvetica,sans-Serif" font-size="10.00">polyfem/utils/Types.hpp</text>
</a>
</g>
</g>
<!-- Node13&#45;&gt;Node14 -->
<g id="edge14" class="edge">
<title>Node13&#45;&gt;Node14</title>
<path fill="none" stroke="midnightblue" d="M2897.16,-134.03C2836.97,-130.99 2746.8,-126.53 2668.28,-123 2232.7,-103.41 1710.07,-82.92 1516.89,-75.45"/>
<polygon fill="midnightblue" stroke="midnightblue" points="1516.97,-71.95 1506.84,-75.06 1516.7,-78.94 1516.97,-71.95"/>
</g>
<!-- Node15 -->
<g id="node15" class="node">
<title>Node15</title>
<g id="a_node15"><a xlink:title=" ">
<polygon fill="none" stroke="#bfbfbf" points="3313.78,-62 3313.78,-81 3378.78,-81 3378.78,-62 3313.78,-62"/>
<text text-anchor="middle" x="3346.28" y="-69" font-family="Helvetica,sans-Serif" font-size="10.00">functional</text>
</a>
</g>
</g>
<!-- Node13&#45;&gt;Node15 -->
<g id="edge18" class="edge">
<title>Node13&#45;&gt;Node15</title>
<path fill="none" stroke="midnightblue" d="M3015.48,-128.94C3091.07,-116.04 3232.8,-91.86 3303.67,-79.77"/>
<polygon fill="midnightblue" stroke="midnightblue" points="3304.32,-83.21 3313.59,-78.08 3303.14,-76.31 3304.32,-83.21"/>
</g>
<!-- Node13&#45;&gt;Node16 -->
<g id="edge19" class="edge">
<title>Node13&#45;&gt;Node16</title>
<path fill="none" stroke="midnightblue" d="M2937.37,-128.93C2907.04,-119.42 2857.3,-103.27 2815.28,-87 2813.67,-86.38 2812.03,-85.72 2810.38,-85.05"/>
<polygon fill="midnightblue" stroke="midnightblue" points="2811.58,-81.75 2801,-81.07 2808.85,-88.2 2811.58,-81.75"/>
</g>
<!-- Node14&#45;&gt;Node5 -->
<g id="edge16" class="edge">
<title>Node14&#45;&gt;Node5</title>
<path fill="none" stroke="midnightblue" d="M1373.6,-67.24C1155.57,-56.57 466.7,-22.86 274.51,-13.46"/>
<polygon fill="midnightblue" stroke="midnightblue" points="274.57,-9.96 264.41,-12.96 274.23,-16.95 274.57,-9.96"/>
</g>
<!-- Node14&#45;&gt;Node12 -->
<g id="edge15" class="edge">
<title>Node14&#45;&gt;Node12</title>
<path fill="none" stroke="midnightblue" d="M1502.87,-61.96C1521.04,-59.73 1540.92,-57.53 1559.28,-56 1925.26,-25.55 2368.14,-14.75 2514.06,-11.87"/>
<polygon fill="midnightblue" stroke="midnightblue" points="2514.52,-15.37 2524.45,-11.67 2514.38,-8.37 2514.52,-15.37"/>
</g>
<!-- Node18&#45;&gt;Node10 -->
<g id="edge35" class="edge">
<title>Node18&#45;&gt;Node10</title>
<path fill="none" stroke="midnightblue" d="M2852.23,-257.48C2837.61,-249.19 2814.91,-236.32 2795.97,-225.59"/>
<polygon fill="midnightblue" stroke="midnightblue" points="2797.45,-222.41 2787.02,-220.52 2794,-228.5 2797.45,-222.41"/>
</g>
<!-- Node18&#45;&gt;Node11 -->
<g id="edge24" class="edge">
<title>Node18&#45;&gt;Node11</title>
<path fill="none" stroke="midnightblue" d="M2895.81,-257.42C2936.84,-243.37 3011.02,-211.12 3042.28,-154 3065.72,-111.16 3001.3,-90.32 2946.87,-80.54"/>
<polygon fill="midnightblue" stroke="midnightblue" points="2947.29,-77.06 2936.84,-78.84 2946.12,-83.96 2947.29,-77.06"/>
</g>
<!-- Node18&#45;&gt;Node13 -->
<g id="edge23" class="edge">
<title>Node18&#45;&gt;Node13</title>
<path fill="none" stroke="midnightblue" d="M2874.01,-257.31C2890.1,-236.54 2930.98,-183.77 2952.14,-156.46"/>
<polygon fill="midnightblue" stroke="midnightblue" points="2955.14,-158.3 2958.49,-148.26 2949.6,-154.02 2955.14,-158.3"/>
</g>
<!-- Node18&#45;&gt;Node16 -->
<g id="edge36" class="edge">
<title>Node18&#45;&gt;Node16</title>
<path fill="none" stroke="midnightblue" d="M2866.54,-257.3C2865.09,-242.89 2861.23,-213.36 2852.28,-190 2837.55,-151.59 2810.7,-111.35 2794.88,-89.35"/>
<polygon fill="midnightblue" stroke="midnightblue" points="2797.57,-87.1 2788.84,-81.1 2791.92,-91.24 2797.57,-87.1"/>
</g>
<!-- Node18&#45;&gt;Node19 -->
<g id="edge25" class="edge">
<title>Node18&#45;&gt;Node19</title>
<path fill="none" stroke="midnightblue" d="M2777.53,-263C2469.37,-252.69 1457.44,-218.85 1166.91,-209.13"/>
<polygon fill="midnightblue" stroke="midnightblue" points="1167,-205.63 1156.89,-208.79 1166.76,-212.63 1167,-205.63"/>
</g>
<!-- Node19&#45;&gt;Node4 -->
<g id="edge26" class="edge">
<title>Node19&#45;&gt;Node4</title>
<path fill="none" stroke="midnightblue" d="M1157.14,-198.05C1185.1,-195.48 1217.73,-192.53 1247.28,-190 1448.91,-172.73 1687.01,-154.13 1804.37,-145.08"/>
<polygon fill="midnightblue" stroke="midnightblue" points="1804.96,-148.55 1814.67,-144.29 1804.43,-141.57 1804.96,-148.55"/>
</g>
<!-- Node19&#45;&gt;Node12 -->
<g id="edge32" class="edge">
<title>Node19&#45;&gt;Node12</title>
<path fill="none" stroke="midnightblue" d="M1089.47,-195.77C1093.62,-169.19 1110.1,-89.02 1161.28,-56 1219.25,-18.6 2273.35,-12.15 2514.44,-11.16"/>
<polygon fill="midnightblue" stroke="midnightblue" points="2514.67,-14.66 2524.65,-11.12 2514.64,-7.66 2514.67,-14.66"/>
</g>
<!-- Node19&#45;&gt;Node14 -->
<g id="edge29" class="edge">
<title>Node19&#45;&gt;Node14</title>
<path fill="none" stroke="midnightblue" d="M1119.13,-195.98C1148,-187.38 1191.87,-172.73 1227.28,-154 1248.1,-142.98 1249.13,-133.39 1270.28,-123 1307.63,-104.65 1352.92,-91.6 1387.37,-83.37"/>
<polygon fill="midnightblue" stroke="midnightblue" points="1388.29,-86.75 1397.23,-81.07 1386.7,-79.93 1388.29,-86.75"/>
</g>
<!-- Node20 -->
<g id="node20" class="node">
<title>Node20</title>
<g id="a_node20"><a xlink:href="_navigation_8hpp.html" target="_top" xlink:title=" ">
<polygon fill="none" stroke="red" points="939.78,-123.5 939.78,-153.5 1070.78,-153.5 1070.78,-123.5 939.78,-123.5"/>
<text text-anchor="start" x="947.78" y="-141.5" font-family="Helvetica,sans-Serif" font-size="10.00">polyfem/mesh/mesh2D</text>
<text text-anchor="middle" x="1005.28" y="-130.5" font-family="Helvetica,sans-Serif" font-size="10.00">/Navigation.hpp</text>
</a>
</g>
</g>
<!-- Node19&#45;&gt;Node20 -->
<g id="edge27" class="edge">
<title>Node19&#45;&gt;Node20</title>
<path fill="none" stroke="midnightblue" d="M1077.08,-195.73C1065.44,-186.61 1046.78,-172 1031.41,-159.96"/>
<polygon fill="midnightblue" stroke="midnightblue" points="1033.3,-157 1023.27,-153.59 1028.98,-162.51 1033.3,-157"/>
</g>
<!-- Node21 -->
<g id="node21" class="node">
<title>Node21</title>
<g id="a_node21"><a xlink:title=" ">
<polygon fill="none" stroke="#bfbfbf" points="960.78,-62 960.78,-81 1089.78,-81 1089.78,-62 960.78,-62"/>
<text text-anchor="middle" x="1025.28" y="-69" font-family="Helvetica,sans-Serif" font-size="10.00">geogram/mesh/mesh.h</text>
</a>
</g>
</g>
<!-- Node19&#45;&gt;Node21 -->
<g id="edge33" class="edge">
<title>Node19&#45;&gt;Node21</title>
<path fill="none" stroke="midnightblue" d="M1089.36,-195.86C1090.9,-180.36 1092.34,-147.17 1080.28,-123 1073.01,-108.44 1059.65,-96.02 1047.91,-87.14"/>
<polygon fill="midnightblue" stroke="midnightblue" points="1049.94,-84.28 1039.76,-81.31 1045.87,-89.98 1049.94,-84.28"/>
</g>
<!-- Node23 -->
<g id="node22" class="node">
<title>Node23</title>
<g id="a_node22"><a xlink:href="_hash_utils_8hpp.html" target="_top" xlink:title=" ">
<polygon fill="none" stroke="red" points="1279.28,-129 1279.28,-148 1431.28,-148 1431.28,-129 1279.28,-129"/>
<text text-anchor="middle" x="1355.28" y="-136" font-family="Helvetica,sans-Serif" font-size="10.00">polyfem/utils/HashUtils.hpp</text>
</a>
</g>
</g>
<!-- Node19&#45;&gt;Node23 -->
<g id="edge30" class="edge">
<title>Node19&#45;&gt;Node23</title>
<path fill="none" stroke="midnightblue" d="M1123.46,-195.94C1171.48,-184.24 1257.6,-163.28 1310.27,-150.46"/>
<polygon fill="midnightblue" stroke="midnightblue" points="1311.13,-153.85 1320.02,-148.08 1309.48,-147.05 1311.13,-153.85"/>
</g>
<!-- Node19&#45;&gt;Node25 -->
<g id="edge34" class="edge">
<title>Node19&#45;&gt;Node25</title>
<path fill="none" stroke="midnightblue" d="M1019.76,-197.97C878.24,-184.48 557.51,-153.91 445.65,-143.25"/>
<polygon fill="midnightblue" stroke="midnightblue" points="445.78,-139.75 435.49,-142.28 445.11,-146.72 445.78,-139.75"/>
</g>
<!-- Node20&#45;&gt;Node21 -->
<g id="edge28" class="edge">
<title>Node20&#45;&gt;Node21</title>
<path fill="none" stroke="midnightblue" d="M1009.62,-123.4C1012.55,-113.86 1016.45,-101.18 1019.63,-90.86"/>
<polygon fill="midnightblue" stroke="midnightblue" points="1023.01,-91.78 1022.6,-81.19 1016.32,-89.72 1023.01,-91.78"/>
</g>
<!-- Node23&#45;&gt;Node16 -->
<g id="edge31" class="edge">
<title>Node23&#45;&gt;Node16</title>
<path fill="none" stroke="midnightblue" d="M1422.28,-128.96C1441.91,-126.72 1463.43,-124.51 1483.28,-123 1985.5,-84.84 2599.26,-74.84 2748.44,-72.9"/>
<polygon fill="midnightblue" stroke="midnightblue" points="2748.8,-76.39 2758.75,-72.77 2748.71,-69.39 2748.8,-76.39"/>
</g>
<!-- Node26&#45;&gt;Node5 -->
<g id="edge42" class="edge">
<title>Node26&#45;&gt;Node5</title>
<path fill="none" stroke="midnightblue" d="M124.63,-128.81C142.27,-107.95 187.22,-54.81 210.23,-27.61"/>
<polygon fill="midnightblue" stroke="midnightblue" points="213.09,-29.65 216.87,-19.76 207.74,-25.13 213.09,-29.65"/>
</g>
<!-- Node26&#45;&gt;Node12 -->
<g id="edge41" class="edge">
<title>Node26&#45;&gt;Node12</title>
<path fill="none" stroke="midnightblue" d="M179.09,-128.94C306.05,-111.74 605.52,-73.19 858.28,-56 1512.72,-11.5 2311.24,-10.32 2514.44,-10.81"/>
<polygon fill="midnightblue" stroke="midnightblue" points="2514.49,-14.31 2524.5,-10.83 2514.51,-7.31 2514.49,-14.31"/>
</g>
<!-- Node26&#45;&gt;Node14 -->
<g id="edge40" class="edge">
<title>Node26&#45;&gt;Node14</title>
<path fill="none" stroke="midnightblue" d="M186.2,-128.98C206.2,-126.75 228.09,-124.54 248.28,-123 625.74,-94.16 721.06,-103.04 1099.28,-87 1189.94,-83.15 1294.16,-78.72 1363.27,-75.78"/>
<polygon fill="midnightblue" stroke="midnightblue" points="1363.79,-79.26 1373.63,-75.34 1363.49,-72.27 1363.79,-79.26"/>
</g>
<!-- Node28&#45;&gt;Node5 -->
<g id="edge62" class="edge">
<title>Node28&#45;&gt;Node5</title>
<path fill="none" stroke="midnightblue" d="M600.04,-447.49C570.22,-441.12 535.23,-430.06 508.28,-411 357.75,-304.54 258.72,-92.1 231.73,-29.05"/>
<polygon fill="midnightblue" stroke="midnightblue" points="234.88,-27.51 227.78,-19.65 228.43,-30.23 234.88,-27.51"/>
</g>
<!-- Node28&#45;&gt;Node8 -->
<g id="edge50" class="edge">
<title>Node28&#45;&gt;Node8</title>
<path fill="none" stroke="midnightblue" d="M662.28,-447.48C662.28,-439.08 662.28,-425.98 662.28,-415.16"/>
<polygon fill="midnightblue" stroke="midnightblue" points="665.78,-415.01 662.28,-405.01 658.78,-415.01 665.78,-415.01"/>
</g>
<!-- Node28&#45;&gt;Node9 -->
<g id="edge49" class="edge">
<title>Node28&#45;&gt;Node9</title>
<path fill="none" stroke="midnightblue" d="M685.07,-447.49C730.67,-430.92 836.69,-394.68 929.28,-380 1175.32,-340.99 1939.54,-331.98 2199.6,-330.01"/>
<polygon fill="midnightblue" stroke="midnightblue" points="2199.77,-333.51 2209.75,-329.94 2199.72,-326.51 2199.77,-333.51"/>
</g>
<!-- Node28&#45;&gt;Node16 -->
<g id="edge63" class="edge">
<title>Node28&#45;&gt;Node16</title>
<path fill="none" stroke="midnightblue" d="M633.91,-447.49C616.53,-440.65 595.68,-429.13 585.28,-411 578.42,-399.05 576.92,-390.95 585.28,-380 747.69,-167.17 911.84,-304.28 1166.28,-221 1202.91,-209.01 1209.86,-199.25 1247.28,-190 1368.73,-159.97 1681.62,-133.68 1806.28,-123 2174.64,-91.43 2623.03,-77.02 2748.33,-73.43"/>
<polygon fill="midnightblue" stroke="midnightblue" points="2748.56,-76.92 2758.46,-73.14 2748.36,-69.92 2748.56,-76.92"/>
</g>
<!-- Node28&#45;&gt;Node17 -->
<g id="edge64" class="edge">
<title>Node28&#45;&gt;Node17</title>
<path fill="none" stroke="midnightblue" d="M680.18,-447.41C714.1,-431.5 790.43,-397.5 858.28,-380 1536.1,-205.16 2394.62,-151.7 2588.96,-141.47"/>
<polygon fill="midnightblue" stroke="midnightblue" points="2589.2,-144.96 2599.01,-140.95 2588.84,-137.97 2589.2,-144.96"/>
</g>
<!-- Node28&#45;&gt;Node25 -->
<g id="edge66" class="edge">
<title>Node28&#45;&gt;Node25</title>
<path fill="none" stroke="midnightblue" d="M627.88,-447.43C577.69,-432.63 490.28,-397.15 490.28,-329.5 490.28,-329.5 490.28,-329.5 490.28,-266 490.28,-219.34 450.13,-176.73 425.34,-154.88"/>
<polygon fill="midnightblue" stroke="midnightblue" points="427.49,-152.11 417.61,-148.28 422.95,-157.43 427.49,-152.11"/>
</g>
<!-- Node28&#45;&gt;Node27 -->
<g id="edge65" class="edge">
<title>Node28&#45;&gt;Node27</title>
<path fill="none" stroke="midnightblue" d="M590.29,-447.47C537.18,-440.26 463.49,-428.31 400.28,-411 397.62,-410.27 394.9,-409.43 392.18,-408.53"/>
<polygon fill="midnightblue" stroke="midnightblue" points="393.14,-405.15 382.55,-405.07 390.78,-411.74 393.14,-405.15"/>
</g>
<!-- Node29 -->
<g id="node27" class="node">
<title>Node29</title>
<g id="a_node27"><a xlink:href="_elasticity_utils_8hpp.html" target="_top" xlink:title=" ">
<polygon fill="none" stroke="red" points="2075.78,-380.5 2075.78,-410.5 2204.78,-410.5 2204.78,-380.5 2075.78,-380.5"/>
<text text-anchor="start" x="2083.78" y="-398.5" font-family="Helvetica,sans-Serif" font-size="10.00">polyfem/utils/Elasticity</text>
<text text-anchor="middle" x="2140.28" y="-387.5" font-family="Helvetica,sans-Serif" font-size="10.00">Utils.hpp</text>
</a>
</g>
</g>
<!-- Node28&#45;&gt;Node29 -->
<g id="edge51" class="edge">
<title>Node28&#45;&gt;Node29</title>
<path fill="none" stroke="midnightblue" d="M735.32,-453.06C986.21,-442.96 1811.28,-409.74 2065.22,-399.52"/>
<polygon fill="midnightblue" stroke="midnightblue" points="2065.6,-403.01 2075.45,-399.11 2065.32,-396.02 2065.6,-403.01"/>
</g>
<!-- Node29&#45;&gt;Node4 -->
<g id="edge52" class="edge">
<title>Node29&#45;&gt;Node4</title>
<path fill="none" stroke="midnightblue" d="M2083.26,-380.41C2060.21,-372.57 2034.56,-360.89 2015.28,-344 1956.31,-292.34 1976.85,-252.31 1929.28,-190 1919.4,-177.06 1906.22,-164.29 1895.6,-154.84"/>
<polygon fill="midnightblue" stroke="midnightblue" points="1897.59,-151.93 1887.75,-148.02 1893,-157.22 1897.59,-151.93"/>
</g>
<!-- Node29&#45;&gt;Node9 -->
<g id="edge53" class="edge">
<title>Node29&#45;&gt;Node9</title>
<path fill="none" stroke="midnightblue" d="M2172.17,-380.4C2193.85,-370.81 2222.71,-358.05 2246.11,-347.7"/>
<polygon fill="midnightblue" stroke="midnightblue" points="2247.71,-350.82 2255.44,-343.58 2244.88,-344.42 2247.71,-350.82"/>
</g>
<!-- Node29&#45;&gt;Node12 -->
<g id="edge58" class="edge">
<title>Node29&#45;&gt;Node12</title>
<path fill="none" stroke="midnightblue" d="M2138.6,-380.29C2137.23,-363.49 2136.81,-335.03 2146.28,-313 2211.09,-162.28 2268.51,-136.84 2411.28,-56 2443.34,-37.85 2483.43,-26.37 2514.39,-19.56"/>
<polygon fill="midnightblue" stroke="midnightblue" points="2515.45,-22.91 2524.51,-17.42 2514.01,-16.06 2515.45,-22.91"/>
</g>
<!-- Node29&#45;&gt;Node14 -->
<g id="edge57" class="edge">
<title>Node29&#45;&gt;Node14</title>
<path fill="none" stroke="midnightblue" d="M2105.56,-380.38C2088.12,-371.91 2067.68,-359.7 2053.28,-344 1979.89,-264.01 2037.95,-185.62 1949.28,-123 1914.82,-98.66 1651,-82.63 1517.36,-75.98"/>
<polygon fill="midnightblue" stroke="midnightblue" points="1517.34,-72.48 1507.18,-75.48 1517,-79.47 1517.34,-72.48"/>
</g>
<!-- Node29&#45;&gt;Node15 -->
<g id="edge61" class="edge">
<title>Node29&#45;&gt;Node15</title>
<path fill="none" stroke="midnightblue" d="M2146.58,-380.24C2155.71,-361.42 2174.51,-328.84 2201.28,-313 2452.75,-164.19 2566.87,-283.69 2852.28,-221 3028.49,-182.3 3233.28,-112.55 3312.55,-84.58"/>
<polygon fill="midnightblue" stroke="midnightblue" points="3314.2,-87.71 3322.46,-81.07 3311.86,-81.11 3314.2,-87.71"/>
</g>
<!-- Node29&#45;&gt;Node16 -->
<g id="edge59" class="edge">
<title>Node29&#45;&gt;Node16</title>
<path fill="none" stroke="midnightblue" d="M2141.71,-380.23C2144.15,-362.58 2150.61,-332.48 2167.28,-313 2287.18,-172.82 2362.31,-184.34 2536.28,-123 2609.67,-97.12 2700.32,-82.78 2748.47,-76.47"/>
<polygon fill="midnightblue" stroke="midnightblue" points="2749.17,-79.91 2758.64,-75.17 2748.28,-72.96 2749.17,-79.91"/>
</g>
<!-- Node29&#45;&gt;Node18 -->
<g id="edge54" class="edge">
<title>Node29&#45;&gt;Node18</title>
<path fill="none" stroke="midnightblue" d="M2204.97,-383.95C2263.46,-373.79 2344.79,-357.96 2374.28,-344 2394.29,-334.53 2392.76,-321.32 2413.28,-313 2475.36,-287.83 2653.6,-276.28 2767.4,-271.33"/>
<polygon fill="midnightblue" stroke="midnightblue" points="2767.68,-274.82 2777.52,-270.9 2767.38,-267.83 2767.68,-274.82"/>
</g>
<!-- Node31 -->
<g id="node28" class="node">
<title>Node31</title>
<g id="a_node28"><a xlink:href="_autodiff_types_8hpp.html" target="_top" xlink:title=" ">
<polygon fill="none" stroke="red" points="2421.78,-319 2421.78,-338 2592.78,-338 2592.78,-319 2421.78,-319"/>
<text text-anchor="middle" x="2507.28" y="-326" font-family="Helvetica,sans-Serif" font-size="10.00">polyfem/utils/AutodiffTypes.hpp</text>
</a>
</g>
</g>
<!-- Node29&#45;&gt;Node31 -->
<g id="edge55" class="edge">
<title>Node29&#45;&gt;Node31</title>
<path fill="none" stroke="midnightblue" d="M2205.05,-383.03C2274.24,-370.77 2382.9,-351.53 2449.34,-339.76"/>
<polygon fill="midnightblue" stroke="midnightblue" points="2450,-343.2 2459.23,-338.01 2448.77,-336.31 2450,-343.2"/>
</g>
<!-- Node35 -->
<g id="node29" class="node">
<title>Node35</title>
<g id="a_node29"><a xlink:title=" ">
<polygon fill="none" stroke="#bfbfbf" points="2611.28,-319 2611.28,-338 2653.28,-338 2653.28,-319 2611.28,-319"/>
<text text-anchor="middle" x="2632.28" y="-326" font-family="Helvetica,sans-Serif" font-size="10.00">array</text>
</a>
</g>
</g>
<!-- Node29&#45;&gt;Node35 -->
<g id="edge60" class="edge">
<title>Node29&#45;&gt;Node35</title>
<path fill="none" stroke="midnightblue" d="M2204.89,-390.16C2313.82,-382.4 2529.28,-364.96 2602.28,-344 2604.15,-343.46 2606.06,-342.81 2607.95,-342.09"/>
<polygon fill="midnightblue" stroke="midnightblue" points="2609.36,-345.3 2617.11,-338.07 2606.54,-338.89 2609.36,-345.3"/>
</g>
<!-- Node31&#45;&gt;Node14 -->
<g id="edge56" class="edge">
<title>Node31&#45;&gt;Node14</title>
<path fill="none" stroke="midnightblue" d="M2493.37,-318.87C2440.01,-286.28 2242.42,-170.13 2062.28,-123 1961.26,-96.57 1659.75,-81.31 1516.93,-75.39"/>
<polygon fill="midnightblue" stroke="midnightblue" points="1517.06,-71.89 1506.92,-74.97 1516.77,-78.88 1517.06,-71.89"/>
</g>
<!-- Node36&#45;&gt;Node4 -->
<g id="edge68" class="edge">
<title>Node36&#45;&gt;Node4</title>
<path fill="none" stroke="midnightblue" d="M1127.31,-385.97C1138.9,-383.78 1151.55,-381.6 1163.28,-380 1256.97,-367.23 1501.03,-382.76 1587.28,-344 1677.89,-303.28 1665.53,-243.43 1749.28,-190 1776.42,-172.68 1810.46,-159.6 1836.62,-151.1"/>
<polygon fill="midnightblue" stroke="midnightblue" points="1837.74,-154.41 1846.22,-148.06 1835.63,-147.74 1837.74,-154.41"/>
</g>
<!-- Node36&#45;&gt;Node9 -->
<g id="edge70" class="edge">
<title>Node36&#45;&gt;Node9</title>
<path fill="none" stroke="midnightblue" d="M1114.53,-385.96C1123.34,-383.63 1133.14,-381.37 1142.28,-380 1345.87,-349.5 1968.41,-335.31 2199.62,-330.99"/>
<polygon fill="midnightblue" stroke="midnightblue" points="2199.74,-334.49 2209.67,-330.81 2199.61,-327.49 2199.74,-334.49"/>
</g>
<!-- Node36&#45;&gt;Node12 -->
<g id="edge71" class="edge">
<title>Node36&#45;&gt;Node12</title>
<path fill="none" stroke="midnightblue" d="M1077.1,-385.78C1031.71,-341.76 837.84,-142.54 952.28,-56 1016.08,-7.75 2251.66,-9.8 2514.42,-10.78"/>
<polygon fill="midnightblue" stroke="midnightblue" points="2514.76,-14.28 2524.78,-10.82 2514.79,-7.28 2514.76,-14.28"/>
</g>
<!-- Node36&#45;&gt;Node31 -->
<g id="edge69" class="edge">
<title>Node36&#45;&gt;Node31</title>
<path fill="none" stroke="midnightblue" d="M1114.23,-385.95C1123.11,-383.59 1133.03,-381.32 1142.28,-380 1684.61,-302.86 1827.79,-381.71 2374.28,-344 2391.81,-342.79 2410.59,-341.03 2428.36,-339.15"/>
<polygon fill="midnightblue" stroke="midnightblue" points="2429.12,-342.59 2438.68,-338.03 2428.37,-335.63 2429.12,-342.59"/>
</g>
<!-- Node37&#45;&gt;Node4 -->
<g id="edge73" class="edge">
<title>Node37&#45;&gt;Node4</title>
<path fill="none" stroke="midnightblue" d="M3181.46,-385.7C3163.68,-359.7 3106.97,-283.44 3037.28,-257 2871.22,-194 2815.16,-245.72 2639.28,-221 2566.69,-210.8 2549.9,-199.98 2477.28,-190 2288.22,-164.03 2063.7,-149.42 1950.42,-143.17"/>
<polygon fill="midnightblue" stroke="midnightblue" points="1950.32,-139.66 1940.14,-142.61 1949.94,-146.65 1950.32,-139.66"/>
</g>
<!-- Node37&#45;&gt;Node9 -->
<g id="edge74" class="edge">
<title>Node37&#45;&gt;Node9</title>
<path fill="none" stroke="midnightblue" d="M3141.04,-390.2C3107.09,-387.13 3059.84,-383.02 3018.28,-380 2749.62,-360.49 2681.62,-367.41 2413.28,-344 2400.9,-342.92 2387.86,-341.61 2375.05,-340.23"/>
<polygon fill="midnightblue" stroke="midnightblue" points="2375.16,-336.72 2364.84,-339.11 2374.4,-343.68 2375.16,-336.72"/>
</g>
<!-- Node37&#45;&gt;Node12 -->
<g id="edge77" class="edge">
<title>Node37&#45;&gt;Node12</title>
<path fill="none" stroke="midnightblue" d="M3199.67,-386C3257.57,-345.31 3494.25,-167.91 3388.28,-56 3361.47,-27.69 2785.05,-15.01 2611.98,-11.83"/>
<polygon fill="midnightblue" stroke="midnightblue" points="2611.95,-8.33 2601.89,-11.65 2611.82,-15.33 2611.95,-8.33"/>
</g>
<!-- Node37&#45;&gt;Node15 -->
<g id="edge78" class="edge">
<title>Node37&#45;&gt;Node15</title>
<path fill="none" stroke="midnightblue" d="M3191.53,-385.89C3212.82,-342.78 3307.95,-150.12 3337.5,-90.29"/>
<polygon fill="midnightblue" stroke="midnightblue" points="3340.65,-91.81 3341.94,-81.29 3334.37,-88.71 3340.65,-91.81"/>
</g>
<!-- Node37&#45;&gt;Node18 -->
<g id="edge75" class="edge">
<title>Node37&#45;&gt;Node18</title>
<path fill="none" stroke="midnightblue" d="M3174.15,-385.96C3148.7,-369.72 3090.43,-334.12 3037.28,-313 2999.48,-297.98 2954.99,-286.41 2921,-278.76"/>
<polygon fill="midnightblue" stroke="midnightblue" points="2921.33,-275.25 2910.81,-276.51 2919.82,-282.08 2921.33,-275.25"/>
</g>
<!-- Node37&#45;&gt;Node31 -->
<g id="edge76" class="edge">
<title>Node37&#45;&gt;Node31</title>
<path fill="none" stroke="midnightblue" d="M3141,-390.53C3003.9,-378.75 2608.97,-344.8 2602.28,-344 2591.5,-342.71 2580.06,-341.14 2568.99,-339.52"/>
<polygon fill="midnightblue" stroke="midnightblue" points="2569.37,-336.04 2558.96,-338.02 2568.34,-342.96 2569.37,-336.04"/>
</g>
<!-- Node38&#45;&gt;Node4 -->
<g id="edge80" class="edge">
<title>Node38&#45;&gt;Node4</title>
<path fill="none" stroke="midnightblue" d="M1012.49,-385.99C1019.92,-383.97 1027.88,-381.86 1035.28,-380 1235.14,-329.91 1288.49,-331.17 1487.28,-277 1566.48,-255.42 1589.96,-257.91 1663.28,-221 1684.32,-210.41 1685.12,-200.37 1706.28,-190 1743.84,-171.58 1789.41,-158.53 1824.05,-150.32"/>
<polygon fill="midnightblue" stroke="midnightblue" points="1825.02,-153.69 1833.98,-148.03 1823.45,-146.87 1825.02,-153.69"/>
</g>
<!-- Node38&#45;&gt;Node9 -->
<g id="edge82" class="edge">
<title>Node38&#45;&gt;Node9</title>
<path fill="none" stroke="midnightblue" d="M1008.98,-385.93C1017.32,-383.59 1026.61,-381.34 1035.28,-380 1260.06,-345.18 1953.05,-333.55 2199.32,-330.46"/>
<polygon fill="midnightblue" stroke="midnightblue" points="2199.69,-333.95 2209.65,-330.33 2199.61,-326.95 2199.69,-333.95"/>
</g>
<!-- Node38&#45;&gt;Node12 -->
<g id="edge83" class="edge">
<title>Node38&#45;&gt;Node12</title>
<path fill="none" stroke="midnightblue" d="M966.05,-385.77C935.45,-367.99 872.28,-324.46 872.28,-268 872.28,-268 872.28,-268 872.28,-137.5 872.28,-95.24 884.78,-77.31 921.28,-56 991.76,-14.85 2249.41,-11.31 2514.48,-11.02"/>
<polygon fill="midnightblue" stroke="midnightblue" points="2514.58,-14.52 2524.57,-11.01 2514.57,-7.52 2514.58,-14.52"/>
</g>
<!-- Node38&#45;&gt;Node31 -->
<g id="edge81" class="edge">
<title>Node38&#45;&gt;Node31</title>
<path fill="none" stroke="midnightblue" d="M1008.7,-385.93C1017.11,-383.57 1026.5,-381.3 1035.28,-380 1329.73,-336.41 2077.3,-364.15 2374.28,-344 2391.99,-342.8 2410.98,-341.02 2428.91,-339.12"/>
<polygon fill="midnightblue" stroke="midnightblue" points="2429.46,-342.58 2439.03,-338.02 2428.71,-335.62 2429.46,-342.58"/>
</g>
<!-- Node39&#45;&gt;Node4 -->
<g id="edge85" class="edge">
<title>Node39&#45;&gt;Node4</title>
<path fill="none" stroke="midnightblue" d="M2625.1,-447.18C2645.6,-422.97 2697.03,-354.51 2662.28,-313 2659.95,-310.21 2150.81,-221.85 2147.28,-221 2061.34,-200.43 1962.39,-168.36 1911.48,-151.23"/>
<polygon fill="midnightblue" stroke="midnightblue" points="1912.55,-147.89 1901.95,-148.01 1910.31,-154.52 1912.55,-147.89"/>
</g>
<!-- Node39&#45;&gt;Node9 -->
<g id="edge86" class="edge">
<title>Node39&#45;&gt;Node9</title>
<path fill="none" stroke="midnightblue" d="M2575.28,-447.5C2540.39,-439.82 2489.77,-427.24 2447.28,-411 2401.43,-393.48 2351.45,-366.68 2319.77,-348.64"/>
<polygon fill="midnightblue" stroke="midnightblue" points="2321.36,-345.52 2310.94,-343.58 2317.87,-351.59 2321.36,-345.52"/>
</g>
<!-- Node39&#45;&gt;Node12 -->
<g id="edge90" class="edge">
<title>Node39&#45;&gt;Node12</title>
<path fill="none" stroke="midnightblue" d="M2633.99,-447.35C2647.01,-439.66 2664.33,-427.14 2673.28,-411 2694.47,-372.78 2692.51,-355.23 2681.28,-313 2660.35,-234.31 2618.44,-230.4 2590.28,-154 2574.52,-111.27 2567.57,-57.82 2564.83,-29.93"/>
<polygon fill="midnightblue" stroke="midnightblue" points="2568.29,-29.29 2563.91,-19.65 2561.32,-29.92 2568.29,-29.29"/>
</g>
<!-- Node39&#45;&gt;Node15 -->
<g id="edge91" class="edge">
<title>Node39&#45;&gt;Node15</title>
<path fill="none" stroke="midnightblue" d="M2673.06,-453.44C2838.94,-445.7 3318.46,-422.38 3330.28,-411 3420.46,-324.17 3371.78,-147.82 3352.77,-90.76"/>
<polygon fill="midnightblue" stroke="midnightblue" points="3356.07,-89.59 3349.51,-81.27 3349.45,-91.86 3356.07,-89.59"/>
</g>
<!-- Node39&#45;&gt;Node18 -->
<g id="edge87" class="edge">
<title>Node39&#45;&gt;Node18</title>
<path fill="none" stroke="midnightblue" d="M2657.37,-447.44C2683.06,-440.57 2716.18,-429.05 2741.28,-411 2786.48,-378.5 2781.54,-353.92 2819.28,-313 2828.86,-302.61 2840.4,-291.75 2849.76,-283.3"/>
<polygon fill="midnightblue" stroke="midnightblue" points="2852.17,-285.83 2857.32,-276.57 2847.52,-280.6 2852.17,-285.83"/>
</g>
<!-- Node39&#45;&gt;Node29 -->
<g id="edge88" class="edge">
<title>Node39&#45;&gt;Node29</title>
<path fill="none" stroke="midnightblue" d="M2561.63,-449.06C2475.82,-438.36 2311.11,-417.81 2215,-405.82"/>
<polygon fill="midnightblue" stroke="midnightblue" points="2215.42,-402.35 2205.06,-404.58 2214.55,-409.29 2215.42,-402.35"/>
</g>
<!-- Node39&#45;&gt;Node31 -->
<g id="edge89" class="edge">
<title>Node39&#45;&gt;Node31</title>
<path fill="none" stroke="midnightblue" d="M2609.72,-447.31C2591.58,-426.45 2545.38,-373.31 2521.72,-346.11"/>
<polygon fill="midnightblue" stroke="midnightblue" points="2524.09,-343.51 2514.89,-338.26 2518.81,-348.1 2524.09,-343.51"/>
</g>
<!-- Node40&#45;&gt;Node4 -->
<g id="edge93" class="edge">
<title>Node40&#45;&gt;Node4</title>
<path fill="none" stroke="midnightblue" d="M3146.52,-453.37C3213.63,-449.21 3307.2,-438.51 3330.28,-411 3339.13,-400.44 3337.14,-391.95 3330.28,-380 3273.68,-281.53 3212.32,-297.67 3106.28,-257 2997.27,-215.19 2967.63,-208 2852.28,-190 2678.5,-162.88 2145.69,-146.54 1950.19,-141.33"/>
<polygon fill="midnightblue" stroke="midnightblue" points="1950.11,-137.82 1940.02,-141.06 1949.93,-144.82 1950.11,-137.82"/>
</g>
<!-- Node40&#45;&gt;Node9 -->
<g id="edge95" class="edge">
<title>Node40&#45;&gt;Node9</title>
<path fill="none" stroke="midnightblue" d="M3004.27,-447.65C2917.7,-437.35 2776.49,-420.07 2724.28,-411 2661.06,-400.02 2646.25,-392.29 2583.28,-380 2513.51,-366.39 2434.08,-352.95 2375.08,-343.36"/>
<polygon fill="midnightblue" stroke="midnightblue" points="2375.48,-339.88 2365.05,-341.73 2374.36,-346.79 2375.48,-339.88"/>
</g>
<!-- Node40&#45;&gt;Node12 -->
<g id="edge98" class="edge">
<title>Node40&#45;&gt;Node12</title>
<path fill="none" stroke="midnightblue" d="M3146.35,-454.84C3305.91,-451.71 3682.5,-441.18 3731.28,-411 3793.96,-372.22 3815.28,-341.71 3815.28,-268 3815.28,-268 3815.28,-268 3815.28,-137.5 3815.28,-14.32 2843.54,-10 2612.25,-10.71"/>
<polygon fill="midnightblue" stroke="midnightblue" points="2612.11,-7.22 2602.12,-10.75 2612.13,-14.21 2612.11,-7.22"/>
</g>
<!-- Node40&#45;&gt;Node18 -->
<g id="edge96" class="edge">
<title>Node40&#45;&gt;Node18</title>
<path fill="none" stroke="midnightblue" d="M3072.46,-447.44C3063.89,-422.7 3035.68,-350.48 2987.28,-313 2966.73,-297.09 2939.95,-286.33 2916.9,-279.33"/>
<polygon fill="midnightblue" stroke="midnightblue" points="2917.86,-275.96 2907.28,-276.56 2915.92,-282.69 2917.86,-275.96"/>
</g>
<!-- Node40&#45;&gt;Node29 -->
<g id="edge94" class="edge">
<title>Node40&#45;&gt;Node29</title>
<path fill="none" stroke="midnightblue" d="M3004.2,-447.81C3001.19,-447.52 2998.2,-447.25 2995.28,-447 2707.54,-422.34 2364.3,-406.03 2215.37,-399.59"/>
<polygon fill="midnightblue" stroke="midnightblue" points="2215.13,-396.08 2204.98,-399.15 2214.83,-403.07 2215.13,-396.08"/>
</g>
<!-- Node40&#45;&gt;Node31 -->
<g id="edge97" class="edge">
<title>Node40&#45;&gt;Node31</title>
<path fill="none" stroke="midnightblue" d="M3009.17,-447.49C2956.67,-440.01 2881.64,-427.7 2817.28,-411 2776.73,-400.48 2768.53,-391.57 2728.28,-380 2671.84,-363.78 2606.11,-349.31 2561.1,-340.06"/>
<polygon fill="midnightblue" stroke="midnightblue" points="2561.75,-336.62 2551.25,-338.05 2560.35,-343.48 2561.75,-336.62"/>
</g>
<!-- Node40&#45;&gt;Node35 -->
<g id="edge99" class="edge">
<title>Node40&#45;&gt;Node35</title>
<path fill="none" stroke="midnightblue" d="M3036.24,-447.45C3000.13,-439.22 2945.12,-425.86 2898.28,-411 2861.54,-399.34 2853.92,-391.98 2817.28,-380 2763.85,-362.53 2700.43,-346.14 2663.43,-337"/>
<polygon fill="midnightblue" stroke="midnightblue" points="2663.83,-333.5 2653.29,-334.51 2662.16,-340.29 2663.83,-333.5"/>
</g>
<!-- Node41&#45;&gt;Node4 -->
<g id="edge101" class="edge">
<title>Node41&#45;&gt;Node4</title>
<path fill="none" stroke="midnightblue" d="M2081.04,-447.24C2060.58,-429.37 2014,-386.79 1983.28,-344 1937.64,-280.44 1899.84,-194.56 1884.56,-157.62"/>
<polygon fill="midnightblue" stroke="midnightblue" points="1887.72,-156.12 1880.71,-148.18 1881.24,-158.76 1887.72,-156.12"/>
</g>
<!-- Node41&#45;&gt;Node9 -->
<g id="edge103" class="edge">
<title>Node41&#45;&gt;Node9</title>
<path fill="none" stroke="midnightblue" d="M2128.75,-447.43C2154.34,-440.39 2188.21,-428.67 2214.28,-411 2237.79,-395.07 2258.74,-369.94 2272.1,-351.8"/>
<polygon fill="midnightblue" stroke="midnightblue" points="2275.05,-353.69 2278.03,-343.52 2269.36,-349.61 2275.05,-353.69"/>
</g>
<!-- Node41&#45;&gt;Node12 -->
<g id="edge107" class="edge">
<title>Node41&#45;&gt;Node12</title>
<path fill="none" stroke="midnightblue" d="M2070.04,-447.4C2052.34,-439.58 2027.07,-426.85 2008.28,-411 1870.68,-294.93 1683.21,-180.45 1813.28,-56 1838.65,-31.72 2352.28,-16.44 2514.57,-12.2"/>
<polygon fill="midnightblue" stroke="midnightblue" points="2514.84,-15.7 2524.75,-11.94 2514.66,-8.7 2514.84,-15.7"/>
</g>
<!-- Node41&#45;&gt;Node14 -->
<g id="edge106" class="edge">
<title>Node41&#45;&gt;Node14</title>
<path fill="none" stroke="midnightblue" d="M2025.37,-447.46C1983.18,-440.64 1927.82,-429.16 1881.28,-411 1726.48,-350.59 1684.84,-329.84 1559.28,-221 1512.4,-180.37 1470.27,-119.45 1451.14,-89.86"/>
<polygon fill="midnightblue" stroke="midnightblue" points="1453.89,-87.66 1445.56,-81.11 1447.98,-91.42 1453.89,-87.66"/>
</g>
<!-- Node41&#45;&gt;Node18 -->
<g id="edge104" class="edge">
<title>Node41&#45;&gt;Node18</title>
<path fill="none" stroke="midnightblue" d="M2084.2,-447.45C2072.96,-432.74 2053.6,-402.13 2067.28,-380 2102.28,-323.36 2137.03,-330.48 2201.28,-313 2305.03,-284.78 2608.26,-273.83 2767.3,-269.94"/>
<polygon fill="midnightblue" stroke="midnightblue" points="2767.65,-273.43 2777.56,-269.69 2767.48,-266.43 2767.65,-273.43"/>
</g>
<!-- Node41&#45;&gt;Node29 -->
<g id="edge102" class="edge">
<title>Node41&#45;&gt;Node29</title>
<path fill="none" stroke="midnightblue" d="M2098.3,-447.48C2104.56,-439.87 2114.01,-428.4 2122.35,-418.26"/>
<polygon fill="midnightblue" stroke="midnightblue" points="2125.07,-420.47 2128.73,-410.52 2119.67,-416.02 2125.07,-420.47"/>
</g>
<!-- Node41&#45;&gt;Node31 -->
<g id="edge105" class="edge">
<title>Node41&#45;&gt;Node31</title>
<path fill="none" stroke="midnightblue" d="M2120.65,-447.5C2151.48,-438.54 2201.34,-423.97 2244.28,-411 2325.15,-386.58 2419.69,-357.04 2470.5,-341.08"/>
<polygon fill="midnightblue" stroke="midnightblue" points="2471.57,-344.41 2480.06,-338.08 2469.47,-337.74 2471.57,-344.41"/>
</g>
<!-- Node41&#45;&gt;Node35 -->
<g id="edge108" class="edge">
<title>Node41&#45;&gt;Node35</title>
<path fill="none" stroke="midnightblue" d="M2161.55,-452.15C2232.18,-447.06 2343.7,-435.65 2437.28,-411 2475.55,-400.92 2566.11,-360.06 2602.28,-344 2603.44,-343.48 2604.62,-342.95 2605.81,-342.41"/>
<polygon fill="midnightblue" stroke="midnightblue" points="2607.36,-345.55 2614.92,-338.13 2604.38,-339.21 2607.36,-345.55"/>
</g>
<!-- Node42&#45;&gt;Node4 -->
<g id="edge110" class="edge">
<title>Node42&#45;&gt;Node4</title>
<path fill="none" stroke="midnightblue" d="M1624.52,-447.38C1640.81,-439.46 1664.18,-426.61 1681.28,-411 1769.66,-330.29 1842.66,-203.78 1867.85,-157.36"/>
<polygon fill="midnightblue" stroke="midnightblue" points="1870.97,-158.95 1872.61,-148.48 1864.8,-155.64 1870.97,-158.95"/>
</g>
<!-- Node42&#45;&gt;Node9 -->
<g id="edge116" class="edge">
<title>Node42&#45;&gt;Node9</title>
<path fill="none" stroke="midnightblue" d="M1651.35,-447.45C1764.15,-426.53 2055.55,-372.48 2201.43,-345.42"/>
<polygon fill="midnightblue" stroke="midnightblue" points="2202.49,-348.79 2211.68,-343.52 2201.21,-341.9 2202.49,-348.79"/>
</g>
<!-- Node42&#45;&gt;Node12 -->
<g id="edge120" class="edge">
<title>Node42&#45;&gt;Node12</title>
<path fill="none" stroke="midnightblue" d="M1617.78,-447.3C1628.15,-439.25 1642.17,-426.24 1648.28,-411 1653.41,-398.21 1655.08,-391.98 1648.28,-380 1548.05,-203.3 1176.78,-303.36 1270.28,-123 1294.06,-77.13 1316.33,-72.54 1365.28,-56 1475.26,-18.83 2303.47,-12.27 2514.48,-11.2"/>
<polygon fill="midnightblue" stroke="midnightblue" points="2514.65,-14.7 2524.63,-11.15 2514.61,-7.7 2514.65,-14.7"/>
</g>
<!-- Node42&#45;&gt;Node14 -->
<g id="edge119" class="edge">
<title>Node42&#45;&gt;Node14</title>
<path fill="none" stroke="midnightblue" d="M1533.76,-456.63C1368.27,-457.32 969.91,-454.43 929.28,-411 873.92,-351.83 756.52,-418.94 1011.28,-190 1039.97,-164.22 1285.2,-107.1 1391.49,-83.27"/>
<polygon fill="midnightblue" stroke="midnightblue" points="1392.33,-86.67 1401.33,-81.07 1390.8,-79.84 1392.33,-86.67"/>
</g>
<!-- Node42&#45;&gt;Node18 -->
<g id="edge117" class="edge">
<title>Node42&#45;&gt;Node18</title>
<path fill="none" stroke="midnightblue" d="M1634.39,-447.41C1738.01,-416.84 2083.41,-315.05 2095.28,-313 2221.57,-291.18 2588.86,-276.88 2767.45,-271.02"/>
<polygon fill="midnightblue" stroke="midnightblue" points="2767.75,-274.51 2777.63,-270.68 2767.53,-267.51 2767.75,-274.51"/>
</g>
<!-- Node42&#45;&gt;Node29 -->
<g id="edge111" class="edge">
<title>Node42&#45;&gt;Node29</title>
<path fill="none" stroke="midnightblue" d="M1676.98,-450.78C1766.98,-443.8 1925.98,-430.06 2061.28,-411 2062.75,-410.79 2064.23,-410.58 2065.72,-410.36"/>
<polygon fill="midnightblue" stroke="midnightblue" points="2066.34,-413.8 2075.68,-408.81 2065.26,-406.89 2066.34,-413.8"/>
</g>
<!-- Node42&#45;&gt;Node31 -->
<g id="edge118" class="edge">
<title>Node42&#45;&gt;Node31</title>
<path fill="none" stroke="midnightblue" d="M1533.52,-453.64C1417.38,-449.07 1198.76,-437.07 1175.28,-411 1166.06,-400.76 1165.68,-389.89 1175.28,-380 1221.69,-332.18 2307.8,-348.61 2374.28,-344 2391.81,-342.78 2410.59,-341.02 2428.36,-339.14"/>
<polygon fill="midnightblue" stroke="midnightblue" points="2429.12,-342.58 2438.68,-338.02 2428.36,-335.62 2429.12,-342.58"/>
</g>
<!-- Node42&#45;&gt;Node35 -->
<g id="edge121" class="edge">
<title>Node42&#45;&gt;Node35</title>
<path fill="none" stroke="midnightblue" d="M1677.22,-452.95C1791.38,-447.61 2020.93,-434.78 2214.28,-411 2301.12,-400.32 2518.97,-370.74 2602.28,-344 2603.94,-343.47 2605.64,-342.85 2607.32,-342.19"/>
<polygon fill="midnightblue" stroke="midnightblue" points="2609.01,-345.27 2616.74,-338.03 2606.18,-338.87 2609.01,-345.27"/>
</g>
<!-- Node43 -->
<g id="node37" class="node">
<title>Node43</title>
<g id="a_node37"><a xlink:title=" ">
<polygon fill="none" stroke="#bfbfbf" points="1184.28,-386 1184.28,-405 1290.28,-405 1290.28,-386 1184.28,-386"/>
<text text-anchor="middle" x="1237.28" y="-393" font-family="Helvetica,sans-Serif" font-size="10.00">thrust/functional.h</text>
</a>
</g>
</g>
<!-- Node42&#45;&gt;Node43 -->
<g id="edge112" class="edge">
<title>Node42&#45;&gt;Node43</title>
<path fill="none" stroke="midnightblue" d="M1536.03,-447.5C1473.83,-439.46 1380.12,-426.37 1299.28,-411 1293.5,-409.9 1287.45,-408.63 1281.49,-407.32"/>
<polygon fill="midnightblue" stroke="midnightblue" points="1282.13,-403.87 1271.6,-405.07 1280.58,-410.7 1282.13,-403.87"/>
</g>
<!-- Node44 -->
<g id="node38" class="node">
<title>Node44</title>
<g id="a_node38"><a xlink:title=" ">
<polygon fill="none" stroke="#bfbfbf" points="1308.28,-386 1308.28,-405 1398.28,-405 1398.28,-386 1308.28,-386"/>
<text text-anchor="middle" x="1353.28" y="-393" font-family="Helvetica,sans-Serif" font-size="10.00">thrust/reduce.h</text>
</a>
</g>
</g>
<!-- Node42&#45;&gt;Node44 -->
<g id="edge113" class="edge">
<title>Node42&#45;&gt;Node44</title>
<path fill="none" stroke="midnightblue" d="M1566.31,-447.5C1526.51,-438.72 1462.96,-424.45 1408.28,-411 1403.9,-409.92 1399.33,-408.77 1394.78,-407.6"/>
<polygon fill="midnightblue" stroke="midnightblue" points="1395.49,-404.17 1384.93,-405.04 1393.73,-410.94 1395.49,-404.17"/>
</g>
<!-- Node45 -->
<g id="node39" class="node">
<title>Node45</title>
<g id="a_node39"><a xlink:title=" ">
<polygon fill="none" stroke="#bfbfbf" points="1416.78,-386 1416.78,-405 1541.78,-405 1541.78,-386 1416.78,-386"/>
<text text-anchor="middle" x="1479.28" y="-393" font-family="Helvetica,sans-Serif" font-size="10.00">thrust/device_vector.h</text>
</a>
</g>
</g>
<!-- Node42&#45;&gt;Node45 -->
<g id="edge114" class="edge">
<title>Node42&#45;&gt;Node45</title>
<path fill="none" stroke="midnightblue" d="M1587.23,-447.48C1566.08,-437.49 1530.84,-420.85 1506.4,-409.31"/>
<polygon fill="midnightblue" stroke="midnightblue" points="1507.83,-406.11 1497.3,-405.01 1504.85,-412.44 1507.83,-406.11"/>
</g>
<!-- Node46 -->
<g id="node40" class="node">
<title>Node46</title>
<g id="a_node40"><a xlink:title=" ">
<polygon fill="none" stroke="#bfbfbf" points="1559.78,-386 1559.78,-405 1638.78,-405 1638.78,-386 1559.78,-386"/>
<text text-anchor="middle" x="1599.28" y="-393" font-family="Helvetica,sans-Serif" font-size="10.00">thrust/copy.h</text>
</a>
</g>
</g>
<!-- Node42&#45;&gt;Node46 -->
<g id="edge115" class="edge">
<title>Node42&#45;&gt;Node46</title>
<path fill="none" stroke="midnightblue" d="M1604.42,-447.48C1603.57,-439.08 1602.25,-425.98 1601.16,-415.16"/>
<polygon fill="midnightblue" stroke="midnightblue" points="1604.62,-414.61 1600.14,-405.01 1597.66,-415.31 1604.62,-414.61"/>
</g>
<!-- Node49&#45;&gt;Node4 -->
<g id="edge123" class="edge">
<title>Node49&#45;&gt;Node4</title>
<path fill="none" stroke="midnightblue" d="M2143.01,-510.74C2074.11,-507.83 1949.4,-498.28 1919.28,-467 1835.2,-379.7 1861.36,-213.21 1873.01,-157.88"/>
<polygon fill="midnightblue" stroke="midnightblue" points="1876.43,-158.61 1875.17,-148.09 1869.6,-157.1 1876.43,-158.61"/>
</g>
<!-- Node49&#45;&gt;Node9 -->
<g id="edge127" class="edge">
<title>Node49&#45;&gt;Node9</title>
<path fill="none" stroke="midnightblue" d="M2194.02,-503.37C2203.6,-485.95 2225.88,-445.31 2244.28,-411 2254.73,-391.5 2266.44,-369.28 2275,-352.98"/>
<polygon fill="midnightblue" stroke="midnightblue" points="2278.33,-354.15 2279.88,-343.66 2272.13,-350.9 2278.33,-354.15"/>
</g>
<!-- Node49&#45;&gt;Node12 -->
<g id="edge131" class="edge">
<title>Node49&#45;&gt;Node12</title>
<path fill="none" stroke="midnightblue" d="M2142.88,-506.63C2095.97,-500.14 2028.19,-487.46 2012.28,-467 2006.82,-459.98 2009.64,-455.49 2012.28,-447 2080.52,-227.05 2139.78,-144.76 2352.28,-56 2405.39,-33.82 2470.78,-22.05 2514.56,-16.19"/>
<polygon fill="midnightblue" stroke="midnightblue" points="2515.18,-19.64 2524.65,-14.89 2514.29,-12.69 2515.18,-19.64"/>
</g>
<!-- Node49&#45;&gt;Node14 -->
<g id="edge130" class="edge">
<title>Node49&#45;&gt;Node14</title>
<path fill="none" stroke="midnightblue" d="M2143.09,-512.52C2083.92,-511.5 1979.44,-503.95 1899.28,-467 1690.54,-370.78 1503.4,-150.96 1453.35,-89.02"/>
<polygon fill="midnightblue" stroke="midnightblue" points="1455.96,-86.68 1446.97,-81.06 1450.49,-91.05 1455.96,-86.68"/>
</g>
<!-- Node49&#45;&gt;Node18 -->
<g id="edge128" class="edge">
<title>Node49&#45;&gt;Node18</title>
<path fill="none" stroke="midnightblue" d="M2235.65,-510.55C2341.95,-506.79 2600.33,-494.97 2682.28,-467 2759.72,-440.57 2773.25,-411.66 2819.28,-344 2832.8,-324.13 2847.43,-300.65 2856.93,-285.11"/>
<polygon fill="midnightblue" stroke="midnightblue" points="2859.93,-286.92 2862.14,-276.56 2853.95,-283.28 2859.93,-286.92"/>
</g>
<!-- Node49&#45;&gt;Node29 -->
<g id="edge124" class="edge">
<title>Node49&#45;&gt;Node29</title>
<path fill="none" stroke="midnightblue" d="M2187.48,-503.35C2184.68,-490.66 2178.72,-466.41 2170.28,-447 2166.16,-437.52 2160.6,-427.63 2155.38,-419.15"/>
<polygon fill="midnightblue" stroke="midnightblue" points="2158.26,-417.14 2149.95,-410.57 2152.35,-420.89 2158.26,-417.14"/>
</g>
<!-- Node49&#45;&gt;Node31 -->
<g id="edge129" class="edge">
<title>Node49&#45;&gt;Node31</title>
<path fill="none" stroke="midnightblue" d="M2204.19,-503.44C2255,-474.28 2421.62,-378.66 2483.7,-343.03"/>
<polygon fill="midnightblue" stroke="midnightblue" points="2485.47,-346.05 2492.4,-338.04 2481.98,-339.98 2485.47,-346.05"/>
</g>
<!-- Node49&#45;&gt;Node35 -->
<g id="edge132" class="edge">
<title>Node49&#45;&gt;Node35</title>
<path fill="none" stroke="midnightblue" d="M2221.7,-503.4C2277.73,-488.04 2395.76,-453.48 2490.28,-411 2534.81,-390.99 2583.5,-361.14 2610.73,-343.67"/>
<polygon fill="midnightblue" stroke="midnightblue" points="2612.93,-346.41 2619.42,-338.04 2609.13,-340.54 2612.93,-346.41"/>
</g>
<!-- Node49&#45;&gt;Node39 -->
<g id="edge125" class="edge">
<title>Node49&#45;&gt;Node39</title>
<path fill="none" stroke="midnightblue" d="M2235.34,-506.25C2303.51,-497.74 2435.27,-481.24 2547.28,-467 2548.58,-466.83 2549.89,-466.67 2551.21,-466.5"/>
<polygon fill="midnightblue" stroke="midnightblue" points="2552.02,-469.92 2561.5,-465.19 2551.13,-462.98 2552.02,-469.92"/>
</g>
<!-- Node49&#45;&gt;Node42 -->
<g id="edge126" class="edge">
<title>Node49&#45;&gt;Node42</title>
<path fill="none" stroke="midnightblue" d="M2143.26,-508.06C2055.38,-500.49 1857.6,-483.22 1691.28,-467 1689.98,-466.87 1688.66,-466.74 1687.34,-466.61"/>
<polygon fill="midnightblue" stroke="midnightblue" points="1687.36,-463.1 1677.07,-465.59 1686.67,-470.06 1687.36,-463.1"/>
</g>
<!-- Node50&#45;&gt;Node4 -->
<g id="edge134" class="edge">
<title>Node50&#45;&gt;Node4</title>
<path fill="none" stroke="midnightblue" d="M3276.37,-385.7C3247.17,-360.36 3157.96,-287.14 3069.28,-257 2901.53,-199.99 2846.07,-255.42 2672.28,-221 2626.63,-211.96 2618,-198.63 2572.28,-190 2348.31,-147.72 2077.59,-140.32 1950.22,-139.36"/>
<polygon fill="midnightblue" stroke="midnightblue" points="1950.22,-135.86 1940.19,-139.3 1950.17,-142.86 1950.22,-135.86"/>
</g>
<!-- Node50&#45;&gt;Node9 -->
<g id="edge135" class="edge">
<title>Node50&#45;&gt;Node9</title>
<path fill="none" stroke="midnightblue" d="M3264.2,-385.91C3257.29,-383.58 3249.56,-381.33 3242.28,-380 2879.5,-313.66 2780.92,-373.1 2413.28,-344 2400.89,-343.02 2387.85,-341.77 2375.04,-340.41"/>
<polygon fill="midnightblue" stroke="midnightblue" points="2375.14,-336.9 2364.83,-339.3 2374.39,-343.86 2375.14,-336.9"/>
</g>
<!-- Node50&#45;&gt;Node12 -->
<g id="edge138" class="edge">
<title>Node50&#45;&gt;Node12</title>
<path fill="none" stroke="midnightblue" d="M3315.53,-385.99C3377.69,-365.92 3517.28,-309.4 3517.28,-206.5 3517.28,-206.5 3517.28,-206.5 3517.28,-137.5 3517.28,-78.43 3467.64,-76.62 3412.28,-56 3337.38,-28.11 2781.5,-15.2 2612.12,-11.89"/>
<polygon fill="midnightblue" stroke="midnightblue" points="2612.06,-8.39 2602,-11.69 2611.93,-15.38 2612.06,-8.39"/>
</g>
<!-- Node50&#45;&gt;Node15 -->
<g id="edge139" class="edge">
<title>Node50&#45;&gt;Node15</title>
<path fill="none" stroke="midnightblue" d="M3288.8,-385.86C3297.72,-354.83 3328.03,-245.99 3341.28,-154 3344.36,-132.57 3345.55,-107.7 3346,-91.12"/>
<polygon fill="midnightblue" stroke="midnightblue" points="3349.5,-91.18 3346.21,-81.11 3342.5,-91.04 3349.5,-91.18"/>
</g>
<!-- Node50&#45;&gt;Node18 -->
<g id="edge136" class="edge">
<title>Node50&#45;&gt;Node18</title>
<path fill="none" stroke="midnightblue" d="M3268.1,-385.99C3232.91,-369.79 3152.74,-334.27 3082.28,-313 3032.26,-297.9 2974.19,-286.07 2931.02,-278.34"/>
<polygon fill="midnightblue" stroke="midnightblue" points="2931.39,-274.85 2920.94,-276.56 2930.18,-281.74 2931.39,-274.85"/>
</g>
<!-- Node50&#45;&gt;Node31 -->
<g id="edge137" class="edge">
<title>Node50&#45;&gt;Node31</title>
<path fill="none" stroke="midnightblue" d="M3264.19,-385.97C3257.28,-383.64 3249.55,-381.38 3242.28,-380 2962.36,-326.96 2885.64,-373.53 2602.28,-344 2590.98,-342.82 2578.98,-341.25 2567.44,-339.57"/>
<polygon fill="midnightblue" stroke="midnightblue" points="2567.86,-336.09 2557.45,-338.07 2566.82,-343.01 2567.86,-336.09"/>
</g>
<!-- Node51&#45;&gt;Node4 -->
<g id="edge141" class="edge">
<title>Node51&#45;&gt;Node4</title>
<path fill="none" stroke="midnightblue" d="M2933.48,-385.98C2887.09,-370.23 2783.86,-336.07 2695.28,-313 2412.88,-239.46 2069.62,-174.44 1935.2,-149.9"/>
<polygon fill="midnightblue" stroke="midnightblue" points="1935.59,-146.41 1925.12,-148.06 1934.33,-153.3 1935.59,-146.41"/>
</g>
<!-- Node51&#45;&gt;Node9 -->
<g id="edge142" class="edge">
<title>Node51&#45;&gt;Node9</title>
<path fill="none" stroke="midnightblue" d="M2907.15,-390.14C2810.57,-381.83 2594.75,-362.85 2413.28,-344 2400.92,-342.72 2387.89,-341.29 2375.09,-339.86"/>
<polygon fill="midnightblue" stroke="midnightblue" points="2375.21,-336.35 2364.88,-338.7 2374.42,-343.31 2375.21,-336.35"/>
</g>
<!-- Node51&#45;&gt;Node12 -->
<g id="edge145" class="edge">
<title>Node51&#45;&gt;Node12</title>
<path fill="none" stroke="midnightblue" d="M2966.6,-385.76C2998.37,-351.28 3107.87,-221.75 3058.28,-123 3035.9,-78.44 3014.67,-74.28 2968.28,-56 2904.44,-30.85 2704.81,-17.98 2611.83,-13.22"/>
<polygon fill="midnightblue" stroke="midnightblue" points="2612,-9.72 2601.84,-12.71 2611.65,-16.71 2612,-9.72"/>
</g>
<!-- Node51&#45;&gt;Node15 -->
<g id="edge146" class="edge">
<title>Node51&#45;&gt;Node15</title>
<path fill="none" stroke="midnightblue" d="M2975.75,-385.95C3020.83,-363.35 3143.35,-298.44 3227.28,-221 3267.59,-183.81 3267.58,-165.48 3302.28,-123 3311.72,-111.44 3322.76,-98.77 3331.42,-89.02"/>
<polygon fill="midnightblue" stroke="midnightblue" points="3334.27,-91.08 3338.32,-81.29 3329.04,-86.42 3334.27,-91.08"/>
</g>
<!-- Node51&#45;&gt;Node18 -->
<g id="edge143" class="edge">
<title>Node51&#45;&gt;Node18</title>
<path fill="none" stroke="midnightblue" d="M2943.34,-385.87C2929.18,-377 2908.22,-361.97 2895.28,-344 2882.73,-326.57 2875.19,-302.88 2871.14,-286.61"/>
<polygon fill="midnightblue" stroke="midnightblue" points="2874.52,-285.67 2868.89,-276.7 2867.69,-287.22 2874.52,-285.67"/>
</g>
<!-- Node51&#45;&gt;Node31 -->
<g id="edge144" class="edge">
<title>Node51&#45;&gt;Node31</title>
<path fill="none" stroke="midnightblue" d="M2907.26,-387.44C2838.12,-377.82 2710.82,-359.98 2602.28,-344 2592.62,-342.58 2582.42,-341.05 2572.42,-339.54"/>
<polygon fill="midnightblue" stroke="midnightblue" points="2572.93,-336.07 2562.52,-338.03 2571.88,-342.99 2572.93,-336.07"/>
</g>
<!-- Node52&#45;&gt;Node4 -->
<g id="edge148" class="edge">
<title>Node52&#45;&gt;Node4</title>
<path fill="none" stroke="midnightblue" d="M2976.51,-447.47C2998.55,-441.12 3020.93,-430.1 3034.28,-411 3072.28,-356.63 3041.25,-305.02 2966.28,-257 2874.52,-198.24 2585.65,-232.34 2477.28,-221 2375.63,-210.37 2082.28,-168.87 1947.06,-149.53"/>
<polygon fill="midnightblue" stroke="midnightblue" points="1947.21,-146.02 1936.82,-148.06 1946.22,-152.94 1947.21,-146.02"/>
</g>
<!-- Node52&#45;&gt;Node9 -->
<g id="edge150" class="edge">
<title>Node52&#45;&gt;Node9</title>
<path fill="none" stroke="midnightblue" d="M2852.28,-447.46C2796.65,-439.14 2711.04,-425.63 2637.28,-411 2537.39,-391.19 2422.59,-363.51 2352.51,-346.05"/>
<polygon fill="midnightblue" stroke="midnightblue" points="2353.05,-342.58 2342.5,-343.55 2351.35,-349.37 2353.05,-342.58"/>
</g>
<!-- Node52&#45;&gt;Node12 -->
<g id="edge153" class="edge">
<title>Node52&#45;&gt;Node12</title>
<path fill="none" stroke="midnightblue" d="M2986.36,-447.74C2989.37,-447.48 2992.35,-447.23 2995.28,-447 3073.91,-440.8 3639.53,-456.05 3704.28,-411 3736.64,-388.48 3739.28,-368.92 3739.28,-329.5 3739.28,-329.5 3739.28,-329.5 3739.28,-137.5 3739.28,-22.22 2834.39,-11.85 2612.13,-11.04"/>
<polygon fill="midnightblue" stroke="midnightblue" points="2612.08,-7.54 2602.07,-11.01 2612.06,-14.54 2612.08,-7.54"/>
</g>
<!-- Node52&#45;&gt;Node15 -->
<g id="edge154" class="edge">
<title>Node52&#45;&gt;Node15</title>
<path fill="none" stroke="midnightblue" d="M2986.36,-447.75C2989.37,-447.48 2992.35,-447.23 2995.28,-447 3033.38,-443.96 3655.97,-438.72 3682.28,-411 3712.26,-379.41 3702.17,-351.75 3682.28,-313 3647.7,-245.67 3441.82,-125.92 3370.54,-85.93"/>
<polygon fill="midnightblue" stroke="midnightblue" points="3372.22,-82.85 3361.79,-81.03 3368.81,-88.97 3372.22,-82.85"/>
</g>
<!-- Node52&#45;&gt;Node18 -->
<g id="edge151" class="edge">
<title>Node52&#45;&gt;Node18</title>
<path fill="none" stroke="midnightblue" d="M2961.79,-447.49C2982.96,-441.15 3005.57,-430.14 3018.28,-411 3025.9,-399.52 3024.47,-392.31 3018.28,-380 2993.36,-330.49 2935.05,-297.38 2898.62,-280.7"/>
<polygon fill="midnightblue" stroke="midnightblue" points="2899.98,-277.47 2889.42,-276.62 2897.14,-283.87 2899.98,-277.47"/>
</g>
<!-- Node52&#45;&gt;Node29 -->
<g id="edge149" class="edge">
<title>Node52&#45;&gt;Node29</title>
<path fill="none" stroke="midnightblue" d="M2835.95,-450.19C2688.3,-438.79 2362.47,-413.65 2215.18,-402.28"/>
<polygon fill="midnightblue" stroke="midnightblue" points="2215.13,-398.77 2204.89,-401.49 2214.59,-405.75 2215.13,-398.77"/>
</g>
<!-- Node52&#45;&gt;Node31 -->
<g id="edge152" class="edge">
<title>Node52&#45;&gt;Node31</title>
<path fill="none" stroke="midnightblue" d="M2883.83,-447.4C2813.06,-425.25 2624.38,-366.17 2544.18,-341.05"/>
<polygon fill="midnightblue" stroke="midnightblue" points="2545.09,-337.67 2534.5,-338.02 2543,-344.35 2545.09,-337.67"/>
</g>
<!-- Node53&#45;&gt;Node16 -->
<g id="edge160" class="edge">
<title>Node53&#45;&gt;Node16</title>
<path fill="none" stroke="midnightblue" d="M3567.94,-385.89C3541.95,-370.42 3485.11,-337.3 3435.28,-313 3378,-285.07 3363.67,-277.33 3303.28,-257 3241.57,-236.23 3219.37,-250.41 3161.28,-221 3100.15,-190.06 3104.75,-151.13 3042.28,-123 2949.14,-81.06 2913.29,-115.78 2815.28,-87 2813.13,-86.37 2810.94,-85.63 2808.76,-84.83"/>
<polygon fill="midnightblue" stroke="midnightblue" points="2810.02,-81.56 2799.43,-81.03 2807.38,-88.05 2810.02,-81.56"/>
</g>
<!-- Node53&#45;&gt;Node17 -->
<g id="edge161" class="edge">
<title>Node53&#45;&gt;Node17</title>
<path fill="none" stroke="midnightblue" d="M3563.57,-385.95C3528.17,-370.01 3448.69,-335.33 3379.28,-313 3113.72,-227.55 2782.6,-166.1 2669.38,-146.32"/>
<polygon fill="midnightblue" stroke="midnightblue" points="2669.87,-142.85 2659.42,-144.59 2668.68,-149.75 2669.87,-142.85"/>
</g>
<!-- Node53&#45;&gt;Node35 -->
<g id="edge159" class="edge">
<title>Node53&#45;&gt;Node35</title>
<path fill="none" stroke="midnightblue" d="M3491.19,-388.27C3285.43,-374.19 2792.63,-340.47 2663.62,-331.64"/>
<polygon fill="midnightblue" stroke="midnightblue" points="2663.84,-328.15 2653.62,-330.96 2663.36,-335.13 2663.84,-328.15"/>
</g>
<!-- Node54 -->
<g id="node46" class="node">
<title>Node54</title>
<g id="a_node46"><a xlink:title=" ">
<polygon fill="none" stroke="#bfbfbf" points="3621.28,-319 3621.28,-338 3673.28,-338 3673.28,-319 3621.28,-319"/>
<text text-anchor="middle" x="3647.28" y="-326" font-family="Helvetica,sans-Serif" font-size="10.00">cassert</text>
</a>
</g>
</g>
<!-- Node53&#45;&gt;Node54 -->
<g id="edge162" class="edge">
<title>Node53&#45;&gt;Node54</title>
<path fill="none" stroke="midnightblue" d="M3591.04,-385.73C3601.38,-375.4 3618.74,-358.04 3631.45,-345.33"/>
<polygon fill="midnightblue" stroke="midnightblue" points="3634.05,-347.67 3638.65,-338.13 3629.1,-342.72 3634.05,-347.67"/>
</g>
<!-- Node55&#45;&gt;Node12 -->
<g id="edge170" class="edge">
<title>Node55&#45;&gt;Node12</title>
<path fill="none" stroke="midnightblue" d="M3994.76,-615.33C4011.78,-542.26 4078.58,-205.76 3905.28,-56 3855.44,-12.94 2847.47,-10.84 2612.11,-10.94"/>
<polygon fill="midnightblue" stroke="midnightblue" points="2611.81,-7.44 2601.81,-10.94 2611.82,-14.44 2611.81,-7.44"/>
</g>
<!-- Node56 -->
<g id="node48" class="node">
<title>Node56</title>
<g id="a_node48"><a xlink:title=" ">
<polygon fill="none" stroke="#bfbfbf" points="3919.28,-559.5 3919.28,-578.5 3987.28,-578.5 3987.28,-559.5 3919.28,-559.5"/>
<text text-anchor="middle" x="3953.28" y="-566.5" font-family="Helvetica,sans-Serif" font-size="10.00">igl/AABB.h</text>
</a>
</g>
</g>
<!-- Node55&#45;&gt;Node56 -->
<g id="edge169" class="edge">
<title>Node55&#45;&gt;Node56</title>
<path fill="none" stroke="midnightblue" d="M3982.27,-615.4C3976.86,-606.93 3969.95,-596.1 3964.22,-587.14"/>
<polygon fill="midnightblue" stroke="midnightblue" points="3967.14,-585.2 3958.81,-578.66 3961.24,-588.97 3967.14,-585.2"/>
</g>
<!-- Node57&#45;&gt;Node12 -->
<g id="edge172" class="edge">
<title>Node57&#45;&gt;Node12</title>
<path fill="none" stroke="midnightblue" d="M4108.76,-128.96C4092.62,-111.35 4052.63,-71.39 4009.28,-56 3875.39,-8.48 2848.61,-9.81 2611.86,-10.76"/>
<polygon fill="midnightblue" stroke="midnightblue" points="2611.82,-7.26 2601.83,-10.8 2611.85,-14.26 2611.82,-7.26"/>
</g>
<!-- Node57&#45;&gt;Node15 -->
<g id="edge173" class="edge">
<title>Node57&#45;&gt;Node15</title>
<path fill="none" stroke="midnightblue" d="M4022.63,-129.59C3854.98,-115.44 3509.8,-86.3 3389.09,-76.11"/>
<polygon fill="midnightblue" stroke="midnightblue" points="3389.38,-72.63 3379.12,-75.27 3388.79,-79.6 3389.38,-72.63"/>
</g>
<!-- Node58 -->
<g id="node50" class="node">
<title>Node58</title>
<g id="a_node50"><a xlink:title=" ">
<polygon fill="none" stroke="#bfbfbf" points="4094.28,-62 4094.28,-81 4138.28,-81 4138.28,-62 4094.28,-62"/>
<text text-anchor="middle" x="4116.28" y="-69" font-family="Helvetica,sans-Serif" font-size="10.00">string</text>
</a>
</g>
</g>
<!-- Node57&#45;&gt;Node58 -->
<g id="edge174" class="edge">
<title>Node57&#45;&gt;Node58</title>
<path fill="none" stroke="midnightblue" d="M4116.28,-128.73C4116.28,-119.18 4116.28,-103.62 4116.28,-91.28"/>
<polygon fill="midnightblue" stroke="midnightblue" points="4119.78,-91.13 4116.28,-81.13 4112.78,-91.13 4119.78,-91.13"/>
</g>
</g>
</svg>
