<?xml version="1.0" encoding="UTF-8" standalone="no"?>
<!DOCTYPE svg PUBLIC "-//W3C//DTD SVG 1.1//EN"
 "http://www.w3.org/Graphics/SVG/1.1/DTD/svg11.dtd">
<!-- Generated by graphviz version 2.43.0 (0)
 -->
<!-- Title: src/polyfem/assembler/RhsAssembler.hpp Pages: 1 -->
<svg width="4489pt" height="844pt"
 viewBox="0.00 0.00 4489.00 844.00" xmlns="http://www.w3.org/2000/svg" xmlns:xlink="http://www.w3.org/1999/xlink">
<g id="graph0" class="graph" transform="scale(1 1) rotate(0) translate(4 840)">
<title>src/polyfem/assembler/RhsAssembler.hpp</title>
<!-- Node1 -->
<g id="node1" class="node">
<title>Node1</title>
<g id="a_node1"><a xlink:title=" ">
<polygon fill="#bfbfbf" stroke="black" points="3482,-805.5 3482,-835.5 3610,-835.5 3610,-805.5 3482,-805.5"/>
<text text-anchor="start" x="3490" y="-823.5" font-family="Helvetica,sans-Serif" font-size="10.00">src/polyfem/assembler</text>
<text text-anchor="middle" x="3546" y="-812.5" font-family="Helvetica,sans-Serif" font-size="10.00">/RhsAssembler.hpp</text>
</a>
</g>
</g>
<!-- Node2 -->
<g id="node2" class="node">
<title>Node2</title>
<g id="a_node2"><a xlink:href="_element_assembly_values_8hpp.html" target="_top" xlink:title=" ">
<polygon fill="none" stroke="black" points="1727.5,-313.5 1727.5,-343.5 1882.5,-343.5 1882.5,-313.5 1727.5,-313.5"/>
<text text-anchor="start" x="1735.5" y="-331.5" font-family="Helvetica,sans-Serif" font-size="10.00">polyfem/assembler/Element</text>
<text text-anchor="middle" x="1805" y="-320.5" font-family="Helvetica,sans-Serif" font-size="10.00">AssemblyValues.hpp</text>
</a>
</g>
</g>
<!-- Node1&#45;&gt;Node2 -->
<g id="edge1" class="edge">
<title>Node1&#45;&gt;Node2</title>
<path fill="none" stroke="midnightblue" d="M3481.75,-819.13C3154.81,-817.1 1673.45,-805.96 1215,-769 989.99,-750.86 712,-924.24 712,-698.5 712,-698.5 712,-698.5 712,-573.5 712,-447.8 866.75,-532.55 974,-467 1024.55,-436.1 1020.06,-402.17 1075,-380 1204.87,-327.6 1560.06,-358.4 1717.21,-343.91"/>
<polygon fill="midnightblue" stroke="midnightblue" points="1717.67,-347.38 1727.27,-342.89 1716.97,-340.41 1717.67,-347.38"/>
</g>
<!-- Node7 -->
<g id="node7" class="node">
<title>Node7</title>
<g id="a_node7"><a xlink:href="_types_8hpp.html" target="_top" xlink:title=" ">
<polygon fill="none" stroke="black" points="2809.5,-62 2809.5,-81 2942.5,-81 2942.5,-62 2809.5,-62"/>
<text text-anchor="middle" x="2876" y="-69" font-family="Helvetica,sans-Serif" font-size="10.00">polyfem/utils/Types.hpp</text>
</a>
</g>
</g>
<!-- Node1&#45;&gt;Node7 -->
<g id="edge184" class="edge">
<title>Node1&#45;&gt;Node7</title>
<path fill="none" stroke="midnightblue" d="M3610.45,-819.02C3737.47,-817.21 4015.29,-808.69 4101,-769 4220.73,-713.56 4253,-645.94 4253,-514 4253,-514 4253,-514 4253,-456 4253,-388.37 4250.08,-359.53 4201,-313 4123.12,-239.16 3861.48,-147.55 3757,-123 3605.23,-87.34 3137.93,-76.46 2952.74,-73.5"/>
<polygon fill="midnightblue" stroke="midnightblue" points="2952.6,-70 2942.54,-73.34 2952.49,-77 2952.6,-70"/>
</g>
<!-- Node9 -->
<g id="node9" class="node">
<title>Node9</title>
<g id="a_node9"><a xlink:title=" ">
<polygon fill="none" stroke="#bfbfbf" points="438.5,-62 438.5,-81 503.5,-81 503.5,-62 438.5,-62"/>
<text text-anchor="middle" x="471" y="-69" font-family="Helvetica,sans-Serif" font-size="10.00">functional</text>
</a>
</g>
</g>
<!-- Node1&#45;&gt;Node9 -->
<g id="edge185" class="edge">
<title>Node1&#45;&gt;Node9</title>
<path fill="none" stroke="midnightblue" d="M3481.84,-819.06C3115.09,-816.41 1280.96,-801.71 717,-769 557.17,-759.73 0,-858.6 0,-698.5 0,-698.5 0,-698.5 0,-327.5 0,-207.59 71.63,-182.05 176,-123 218.46,-98.98 357.33,-83.03 428.35,-76.23"/>
<polygon fill="midnightblue" stroke="midnightblue" points="428.68,-79.71 438.31,-75.29 428.03,-72.75 428.68,-79.71"/>
</g>
<!-- Node10 -->
<g id="node10" class="node">
<title>Node10</title>
<g id="a_node10"><a xlink:title=" ">
<polygon fill="none" stroke="#bfbfbf" points="3483.5,-62 3483.5,-81 3530.5,-81 3530.5,-62 3483.5,-62"/>
<text text-anchor="middle" x="3507" y="-69" font-family="Helvetica,sans-Serif" font-size="10.00">vector</text>
</a>
</g>
</g>
<!-- Node1&#45;&gt;Node10 -->
<g id="edge186" class="edge">
<title>Node1&#45;&gt;Node10</title>
<path fill="none" stroke="midnightblue" d="M3610.05,-818.45C3763.49,-815.38 4148.55,-804.29 4272,-769 4336.33,-750.61 4405,-765.4 4405,-698.5 4405,-698.5 4405,-698.5 4405,-394.5 4405,-244.63 4347.05,-170.78 4205,-123 4075.66,-79.49 3727.57,-102.5 3592,-87 3575.08,-85.07 3556.42,-81.99 3540.9,-79.16"/>
<polygon fill="midnightblue" stroke="midnightblue" points="3541.19,-75.66 3530.71,-77.27 3539.9,-82.54 3541.19,-75.66"/>
</g>
<!-- Node22 -->
<g id="node19" class="node">
<title>Node22</title>
<g id="a_node19"><a xlink:href="_assembler_utils_8hpp.html" target="_top" xlink:title=" ">
<polygon fill="none" stroke="black" points="2526,-559.5 2526,-589.5 2692,-589.5 2692,-559.5 2526,-559.5"/>
<text text-anchor="start" x="2534" y="-577.5" font-family="Helvetica,sans-Serif" font-size="10.00">polyfem/assembler/Assembler</text>
<text text-anchor="middle" x="2609" y="-566.5" font-family="Helvetica,sans-Serif" font-size="10.00">Utils.hpp</text>
</a>
</g>
</g>
<!-- Node1&#45;&gt;Node22 -->
<g id="edge31" class="edge">
<title>Node1&#45;&gt;Node22</title>
<path fill="none" stroke="midnightblue" d="M3491.92,-805.42C3329.63,-763.16 2847.29,-637.55 2672.86,-592.13"/>
<polygon fill="midnightblue" stroke="midnightblue" points="2673.61,-588.71 2663.05,-589.58 2671.85,-595.48 2673.61,-588.71"/>
</g>
<!-- Node28 -->
<g id="node25" class="node">
<title>Node28</title>
<g id="a_node25"><a xlink:href="_elasticity_utils_8hpp.html" target="_top" xlink:title=" ">
<polygon fill="none" stroke="black" points="2357.5,-380.5 2357.5,-410.5 2486.5,-410.5 2486.5,-380.5 2357.5,-380.5"/>
<text text-anchor="start" x="2365.5" y="-398.5" font-family="Helvetica,sans-Serif" font-size="10.00">polyfem/utils/Elasticity</text>
<text text-anchor="middle" x="2422" y="-387.5" font-family="Helvetica,sans-Serif" font-size="10.00">Utils.hpp</text>
</a>
</g>
</g>
<!-- Node1&#45;&gt;Node28 -->
<g id="edge183" class="edge">
<title>Node1&#45;&gt;Node28</title>
<path fill="none" stroke="midnightblue" d="M3481.87,-819.23C3100.3,-817.33 1142.44,-803.21 1056,-713 666.63,-306.62 1809.26,-783.81 2308,-523 2320.19,-516.63 2374.89,-452.68 2403.86,-418.23"/>
<polygon fill="midnightblue" stroke="midnightblue" points="2406.55,-420.47 2410.3,-410.55 2401.19,-415.97 2406.55,-420.47"/>
</g>
<!-- Node52 -->
<g id="node46" class="node">
<title>Node52</title>
<g id="a_node46"><a xlink:href="_obstacle_8hpp.html" target="_top" xlink:title=" ">
<polygon fill="none" stroke="black" points="3469,-749.5 3469,-768.5 3623,-768.5 3623,-749.5 3469,-749.5"/>
<text text-anchor="middle" x="3546" y="-756.5" font-family="Helvetica,sans-Serif" font-size="10.00">polyfem/mesh/Obstacle.hpp</text>
</a>
</g>
</g>
<!-- Node1&#45;&gt;Node52 -->
<g id="edge159" class="edge">
<title>Node1&#45;&gt;Node52</title>
<path fill="none" stroke="midnightblue" d="M3546,-805.4C3546,-797.47 3546,-787.46 3546,-778.86"/>
<polygon fill="midnightblue" stroke="midnightblue" points="3549.5,-778.66 3546,-768.66 3542.5,-778.66 3549.5,-778.66"/>
</g>
<!-- Node54 -->
<g id="node48" class="node">
<title>Node54</title>
<g id="a_node48"><a xlink:href="_problem_8hpp.html" target="_top" xlink:title=" ">
<polygon fill="none" stroke="black" points="3929,-626.5 3929,-645.5 4007,-645.5 4007,-626.5 3929,-626.5"/>
<text text-anchor="middle" x="3968" y="-633.5" font-family="Helvetica,sans-Serif" font-size="10.00">Problem.hpp</text>
</a>
</g>
</g>
<!-- Node1&#45;&gt;Node54 -->
<g id="edge181" class="edge">
<title>Node1&#45;&gt;Node54</title>
<path fill="none" stroke="midnightblue" d="M3578.41,-805.48C3658.02,-771.05 3862.22,-682.75 3938.59,-649.72"/>
<polygon fill="midnightblue" stroke="midnightblue" points="3940.29,-652.8 3948.08,-645.62 3937.51,-646.37 3940.29,-652.8"/>
</g>
<!-- Node55 -->
<g id="node49" class="node">
<title>Node55</title>
<g id="a_node49"><a xlink:href="_local_boundary_8hpp.html" target="_top" xlink:title=" ">
<polygon fill="none" stroke="black" points="4043,-386 4043,-405 4225,-405 4225,-386 4043,-386"/>
<text text-anchor="middle" x="4134" y="-393" font-family="Helvetica,sans-Serif" font-size="10.00">polyfem/mesh/LocalBoundary.hpp</text>
</a>
</g>
</g>
<!-- Node1&#45;&gt;Node55 -->
<g id="edge182" class="edge">
<title>Node1&#45;&gt;Node55</title>
<path fill="none" stroke="midnightblue" d="M3610.28,-819.92C3764.73,-819.21 4144,-806.48 4144,-698.5 4144,-698.5 4144,-698.5 4144,-512 4144,-477.74 4139.58,-437.97 4136.61,-415.17"/>
<polygon fill="midnightblue" stroke="midnightblue" points="4140.07,-414.61 4135.27,-405.17 4133.14,-415.55 4140.07,-414.61"/>
</g>
<!-- Node3 -->
<g id="node3" class="node">
<title>Node3</title>
<g id="a_node3"><a xlink:href="_assembly_values_8hpp.html" target="_top" xlink:title=" ">
<polygon fill="none" stroke="black" points="1713,-190.5 1713,-220.5 1875,-220.5 1875,-190.5 1713,-190.5"/>
<text text-anchor="start" x="1721" y="-208.5" font-family="Helvetica,sans-Serif" font-size="10.00">polyfem/assembler/Assembly</text>
<text text-anchor="middle" x="1794" y="-197.5" font-family="Helvetica,sans-Serif" font-size="10.00">Values.hpp</text>
</a>
</g>
</g>
<!-- Node2&#45;&gt;Node3 -->
<g id="edge2" class="edge">
<title>Node2&#45;&gt;Node3</title>
<path fill="none" stroke="midnightblue" d="M1825.34,-313.5C1842.47,-299.85 1862.72,-278.12 1853,-257 1847.44,-244.92 1837.4,-234.65 1827.17,-226.59"/>
<polygon fill="midnightblue" stroke="midnightblue" points="1829.14,-223.7 1819,-220.61 1825,-229.34 1829.14,-223.7"/>
</g>
<!-- Node2&#45;&gt;Node10 -->
<g id="edge30" class="edge">
<title>Node2&#45;&gt;Node10</title>
<path fill="none" stroke="midnightblue" d="M1838.63,-313.47C1949.19,-267.35 2294.49,-123.34 2296,-123 2354.98,-109.93 3282.81,-79.67 3473.07,-73.58"/>
<polygon fill="midnightblue" stroke="midnightblue" points="3473.42,-77.07 3483.3,-73.25 3473.19,-70.07 3473.42,-77.07"/>
</g>
<!-- Node12 -->
<g id="node12" class="node">
<title>Node12</title>
<g id="a_node12"><a xlink:href="_element_bases_8hpp.html" target="_top" xlink:title=" ">
<polygon fill="none" stroke="black" points="1665.5,-257.5 1665.5,-276.5 1844.5,-276.5 1844.5,-257.5 1665.5,-257.5"/>
<text text-anchor="middle" x="1755" y="-264.5" font-family="Helvetica,sans-Serif" font-size="10.00">polyfem/basis/ElementBases.hpp</text>
</a>
</g>
</g>
<!-- Node2&#45;&gt;Node12 -->
<g id="edge15" class="edge">
<title>Node2&#45;&gt;Node12</title>
<path fill="none" stroke="midnightblue" d="M1793.15,-313.4C1785.89,-304.75 1776.55,-293.64 1768.93,-284.58"/>
<polygon fill="midnightblue" stroke="midnightblue" points="1771.39,-282.06 1762.28,-276.66 1766.03,-286.57 1771.39,-282.06"/>
</g>
<!-- Node4 -->
<g id="node4" class="node">
<title>Node4</title>
<g id="a_node4"><a xlink:href="_quadrature_8hpp.html" target="_top" xlink:title=" ">
<polygon fill="none" stroke="black" points="1750.5,-56.5 1750.5,-86.5 1863.5,-86.5 1863.5,-56.5 1750.5,-56.5"/>
<text text-anchor="start" x="1758.5" y="-74.5" font-family="Helvetica,sans-Serif" font-size="10.00">polyfem/quadrature</text>
<text text-anchor="middle" x="1807" y="-63.5" font-family="Helvetica,sans-Serif" font-size="10.00">/Quadrature.hpp</text>
</a>
</g>
</g>
<!-- Node3&#45;&gt;Node4 -->
<g id="edge3" class="edge">
<title>Node3&#45;&gt;Node4</title>
<path fill="none" stroke="midnightblue" d="M1795.39,-190.37C1797.6,-167.94 1801.94,-123.92 1804.64,-96.49"/>
<polygon fill="midnightblue" stroke="midnightblue" points="1808.12,-96.82 1805.62,-86.52 1801.16,-96.13 1808.12,-96.82"/>
</g>
<!-- Node5 -->
<g id="node5" class="node">
<title>Node5</title>
<g id="a_node5"><a xlink:title=" ">
<polygon fill="none" stroke="#bfbfbf" points="2054.5,-0.5 2054.5,-19.5 2131.5,-19.5 2131.5,-0.5 2054.5,-0.5"/>
<text text-anchor="middle" x="2093" y="-7.5" font-family="Helvetica,sans-Serif" font-size="10.00">Eigen/Dense</text>
</a>
</g>
</g>
<!-- Node3&#45;&gt;Node5 -->
<g id="edge13" class="edge">
<title>Node3&#45;&gt;Node5</title>
<path fill="none" stroke="midnightblue" d="M1859.57,-190.48C1899.13,-180.91 1944.74,-167.55 1960,-154 1995.56,-122.41 1970.22,-90.47 2003,-56 2017.12,-41.15 2037.19,-30.47 2054.8,-23.24"/>
<polygon fill="midnightblue" stroke="midnightblue" points="2056.21,-26.45 2064.27,-19.58 2053.68,-19.92 2056.21,-26.45"/>
</g>
<!-- Node6 -->
<g id="node6" class="node">
<title>Node6</title>
<g id="a_node6"><a xlink:href="_basis_8hpp.html" target="_top" xlink:title=" ">
<polygon fill="none" stroke="black" points="1815,-129 1815,-148 1951,-148 1951,-129 1815,-129"/>
<text text-anchor="middle" x="1883" y="-136" font-family="Helvetica,sans-Serif" font-size="10.00">polyfem/basis/Basis.hpp</text>
</a>
</g>
</g>
<!-- Node3&#45;&gt;Node6 -->
<g id="edge5" class="edge">
<title>Node3&#45;&gt;Node6</title>
<path fill="none" stroke="midnightblue" d="M1813.31,-190.4C1827.96,-179.7 1848.04,-165.03 1862.88,-154.19"/>
<polygon fill="midnightblue" stroke="midnightblue" points="1865.34,-156.73 1871.35,-148.01 1861.21,-151.08 1865.34,-156.73"/>
</g>
<!-- Node11 -->
<g id="node11" class="node">
<title>Node11</title>
<g id="a_node11"><a xlink:title=" ">
<polygon fill="none" stroke="#bfbfbf" points="3543,-129 3543,-148 3603,-148 3603,-129 3543,-129"/>
<text text-anchor="middle" x="3573" y="-136" font-family="Helvetica,sans-Serif" font-size="10.00">iostream</text>
</a>
</g>
</g>
<!-- Node3&#45;&gt;Node11 -->
<g id="edge14" class="edge">
<title>Node3&#45;&gt;Node11</title>
<path fill="none" stroke="midnightblue" d="M1875.39,-201.64C2090.86,-194.05 2694,-172.69 3196,-154 3318.65,-149.43 3463.73,-143.78 3532.7,-141.08"/>
<polygon fill="midnightblue" stroke="midnightblue" points="3532.85,-144.58 3542.7,-140.69 3532.57,-137.58 3532.85,-144.58"/>
</g>
<!-- Node4&#45;&gt;Node5 -->
<g id="edge4" class="edge">
<title>Node4&#45;&gt;Node5</title>
<path fill="none" stroke="midnightblue" d="M1863.5,-58.74C1916.35,-47.75 1994.45,-31.5 2044.52,-21.08"/>
<polygon fill="midnightblue" stroke="midnightblue" points="2045.38,-24.48 2054.46,-19.02 2043.96,-17.63 2045.38,-24.48"/>
</g>
<!-- Node6&#45;&gt;Node4 -->
<g id="edge6" class="edge">
<title>Node6&#45;&gt;Node4</title>
<path fill="none" stroke="midnightblue" d="M1872.75,-128.73C1862.18,-119.7 1845.32,-105.27 1831.32,-93.3"/>
<polygon fill="midnightblue" stroke="midnightblue" points="1833.35,-90.43 1823.47,-86.59 1828.8,-95.75 1833.35,-90.43"/>
</g>
<!-- Node6&#45;&gt;Node5 -->
<g id="edge10" class="edge">
<title>Node6&#45;&gt;Node5</title>
<path fill="none" stroke="midnightblue" d="M1889.69,-128.61C1902.55,-112.08 1932.35,-76.48 1965,-56 1989.66,-40.53 2020.35,-29.51 2045.49,-22.25"/>
<polygon fill="midnightblue" stroke="midnightblue" points="2046.49,-25.6 2055.18,-19.55 2044.61,-18.86 2046.49,-25.6"/>
</g>
<!-- Node6&#45;&gt;Node7 -->
<g id="edge7" class="edge">
<title>Node6&#45;&gt;Node7</title>
<path fill="none" stroke="midnightblue" d="M1951.01,-130.79C1978.88,-128.16 2011.47,-125.25 2041,-123 2319.95,-101.77 2651.87,-83.9 2799.11,-76.35"/>
<polygon fill="midnightblue" stroke="midnightblue" points="2799.58,-79.83 2809.39,-75.82 2799.22,-72.84 2799.58,-79.83"/>
</g>
<!-- Node6&#45;&gt;Node9 -->
<g id="edge11" class="edge">
<title>Node6&#45;&gt;Node9</title>
<path fill="none" stroke="midnightblue" d="M1814.78,-133.81C1758.3,-130.8 1675.94,-126.47 1604,-123 1179.07,-102.49 664.34,-80.63 514.09,-74.31"/>
<polygon fill="midnightblue" stroke="midnightblue" points="514.05,-70.8 503.91,-73.88 513.75,-77.79 514.05,-70.8"/>
</g>
<!-- Node6&#45;&gt;Node10 -->
<g id="edge12" class="edge">
<title>Node6&#45;&gt;Node10</title>
<path fill="none" stroke="midnightblue" d="M1951.37,-130.37C1979.16,-127.69 2011.58,-124.85 2041,-123 2333.02,-104.59 3281.97,-78.54 3473.23,-73.4"/>
<polygon fill="midnightblue" stroke="midnightblue" points="3473.6,-76.89 3483.5,-73.13 3473.41,-69.89 3473.6,-76.89"/>
</g>
<!-- Node7&#45;&gt;Node5 -->
<g id="edge8" class="edge">
<title>Node7&#45;&gt;Node5</title>
<path fill="none" stroke="midnightblue" d="M2833.68,-61.99C2821.26,-59.75 2807.62,-57.53 2795,-56 2550.75,-26.41 2256.18,-15.52 2141.75,-12.23"/>
<polygon fill="midnightblue" stroke="midnightblue" points="2141.66,-8.72 2131.57,-11.94 2141.47,-15.72 2141.66,-8.72"/>
</g>
<!-- Node8 -->
<g id="node8" class="node">
<title>Node8</title>
<g id="a_node8"><a xlink:title=" ">
<polygon fill="none" stroke="#bfbfbf" points="3301,-0.5 3301,-19.5 3381,-19.5 3381,-0.5 3301,-0.5"/>
<text text-anchor="middle" x="3341" y="-7.5" font-family="Helvetica,sans-Serif" font-size="10.00">Eigen/Sparse</text>
</a>
</g>
</g>
<!-- Node7&#45;&gt;Node8 -->
<g id="edge9" class="edge">
<title>Node7&#45;&gt;Node8</title>
<path fill="none" stroke="midnightblue" d="M2942.62,-61.98C3036.76,-49.93 3206.6,-28.2 3290.83,-17.42"/>
<polygon fill="midnightblue" stroke="midnightblue" points="3291.44,-20.87 3300.91,-16.13 3290.55,-13.93 3291.44,-20.87"/>
</g>
<!-- Node12&#45;&gt;Node3 -->
<g id="edge28" class="edge">
<title>Node12&#45;&gt;Node3</title>
<path fill="none" stroke="midnightblue" d="M1760.59,-257.48C1765.43,-250.09 1772.65,-239.08 1779.14,-229.17"/>
<polygon fill="midnightblue" stroke="midnightblue" points="1782.25,-230.81 1784.81,-220.52 1776.4,-226.97 1782.25,-230.81"/>
</g>
<!-- Node12&#45;&gt;Node4 -->
<g id="edge17" class="edge">
<title>Node12&#45;&gt;Node4</title>
<path fill="none" stroke="midnightblue" d="M1735.7,-257.48C1721.57,-250.08 1703.44,-237.89 1695,-221 1688.84,-208.68 1689.88,-202.79 1695,-190 1711.61,-148.51 1750.62,-113.33 1777.91,-92.57"/>
<polygon fill="midnightblue" stroke="midnightblue" points="1780.01,-95.36 1785.96,-86.59 1775.84,-89.74 1780.01,-95.36"/>
</g>
<!-- Node12&#45;&gt;Node6 -->
<g id="edge16" class="edge">
<title>Node12&#45;&gt;Node6</title>
<path fill="none" stroke="midnightblue" d="M1739.27,-257.24C1727.11,-249.48 1711.19,-236.93 1704,-221 1698.33,-208.44 1695.68,-200.99 1704,-190 1717.77,-171.81 1770.88,-158.31 1815.7,-149.87"/>
<polygon fill="midnightblue" stroke="midnightblue" points="1816.5,-153.28 1825.71,-148.04 1815.24,-146.4 1816.5,-153.28"/>
</g>
<!-- Node12&#45;&gt;Node10 -->
<g id="edge29" class="edge">
<title>Node12&#45;&gt;Node10</title>
<path fill="none" stroke="midnightblue" d="M1780.38,-257.45C1865.32,-228.97 2139.41,-138.32 2231,-123 2356.55,-102 3283.82,-78.04 3473.26,-73.33"/>
<polygon fill="midnightblue" stroke="midnightblue" points="3473.54,-76.82 3483.45,-73.07 3473.36,-69.82 3473.54,-76.82"/>
</g>
<!-- Node13 -->
<g id="node13" class="node">
<title>Node13</title>
<g id="a_node13"><a xlink:href="_mesh_8hpp.html" target="_top" xlink:title=" ">
<polygon fill="none" stroke="red" points="2893.5,-196 2893.5,-215 3030.5,-215 3030.5,-196 2893.5,-196"/>
<text text-anchor="middle" x="2962" y="-203" font-family="Helvetica,sans-Serif" font-size="10.00">polyfem/mesh/Mesh.hpp</text>
</a>
</g>
</g>
<!-- Node12&#45;&gt;Node13 -->
<g id="edge18" class="edge">
<title>Node12&#45;&gt;Node13</title>
<path fill="none" stroke="midnightblue" d="M1844.74,-261.58C2072.11,-250.37 2668.06,-220.99 2883.15,-210.39"/>
<polygon fill="midnightblue" stroke="midnightblue" points="2883.59,-213.87 2893.41,-209.88 2883.25,-206.88 2883.59,-213.87"/>
</g>
<!-- Node13&#45;&gt;Node5 -->
<g id="edge26" class="edge">
<title>Node13&#45;&gt;Node5</title>
<path fill="none" stroke="midnightblue" d="M2934.28,-195.91C2908.38,-187.27 2869.14,-172.58 2838,-154 2779.16,-118.9 2782.62,-81.44 2719,-56 2614.44,-14.2 2270.65,-10.56 2142.09,-10.71"/>
<polygon fill="midnightblue" stroke="midnightblue" points="2141.76,-7.21 2131.77,-10.73 2141.78,-14.21 2141.76,-7.21"/>
</g>
<!-- Node13&#45;&gt;Node7 -->
<g id="edge23" class="edge">
<title>Node13&#45;&gt;Node7</title>
<path fill="none" stroke="midnightblue" d="M2969.16,-195.76C2981.08,-180.09 3002.22,-146.65 2987,-123 2974.53,-103.63 2952.6,-91.6 2931.51,-84.17"/>
<polygon fill="midnightblue" stroke="midnightblue" points="2932.51,-80.81 2921.91,-81.07 2930.36,-87.48 2932.51,-80.81"/>
</g>
<!-- Node14 -->
<g id="node14" class="node">
<title>Node14</title>
<g id="a_node14"><a xlink:href="_common_8hpp.html" target="_top" xlink:title=" ">
<polygon fill="none" stroke="black" points="2305.5,-129 2305.5,-148 2430.5,-148 2430.5,-129 2305.5,-129"/>
<text text-anchor="middle" x="2368" y="-136" font-family="Helvetica,sans-Serif" font-size="10.00">polyfem/Common.hpp</text>
</a>
</g>
</g>
<!-- Node13&#45;&gt;Node14 -->
<g id="edge19" class="edge">
<title>Node13&#45;&gt;Node14</title>
<path fill="none" stroke="midnightblue" d="M2893.28,-196.98C2780.34,-184.62 2556.48,-160.13 2440.88,-147.47"/>
<polygon fill="midnightblue" stroke="midnightblue" points="2441.04,-143.97 2430.71,-146.36 2440.27,-150.93 2441.04,-143.97"/>
</g>
<!-- Node16 -->
<g id="node16" class="node">
<title>Node16</title>
<g id="a_node16"><a xlink:href="_navigation_8hpp.html" target="_top" xlink:title=" ">
<polygon fill="none" stroke="red" points="2847.5,-123.5 2847.5,-153.5 2978.5,-153.5 2978.5,-123.5 2847.5,-123.5"/>
<text text-anchor="start" x="2855.5" y="-141.5" font-family="Helvetica,sans-Serif" font-size="10.00">polyfem/mesh/mesh2D</text>
<text text-anchor="middle" x="2913" y="-130.5" font-family="Helvetica,sans-Serif" font-size="10.00">/Navigation.hpp</text>
</a>
</g>
</g>
<!-- Node13&#45;&gt;Node16 -->
<g id="edge22" class="edge">
<title>Node13&#45;&gt;Node16</title>
<path fill="none" stroke="midnightblue" d="M2955.39,-195.73C2948.83,-187.03 2938.51,-173.34 2929.7,-161.65"/>
<polygon fill="midnightblue" stroke="midnightblue" points="2932.44,-159.47 2923.62,-153.59 2926.85,-163.68 2932.44,-159.47"/>
</g>
<!-- Node19 -->
<g id="node17" class="node">
<title>Node19</title>
<g id="a_node17"><a xlink:href="_hash_utils_8hpp.html" target="_top" xlink:title=" ">
<polygon fill="none" stroke="red" points="3035,-129 3035,-148 3187,-148 3187,-129 3035,-129"/>
<text text-anchor="middle" x="3111" y="-136" font-family="Helvetica,sans-Serif" font-size="10.00">polyfem/utils/HashUtils.hpp</text>
</a>
</g>
</g>
<!-- Node13&#45;&gt;Node19 -->
<g id="edge24" class="edge">
<title>Node13&#45;&gt;Node19</title>
<path fill="none" stroke="midnightblue" d="M2981.79,-195.87C3007.39,-184.7 3052.21,-165.15 3081.75,-152.26"/>
<polygon fill="midnightblue" stroke="midnightblue" points="3083.37,-155.37 3091.13,-148.17 3080.57,-148.96 3083.37,-155.37"/>
</g>
<!-- Node21 -->
<g id="node18" class="node">
<title>Node21</title>
<g id="a_node18"><a xlink:title=" ">
<polygon fill="none" stroke="#bfbfbf" points="3690,-129 3690,-148 3748,-148 3748,-129 3690,-129"/>
<text text-anchor="middle" x="3719" y="-136" font-family="Helvetica,sans-Serif" font-size="10.00">memory</text>
</a>
</g>
</g>
<!-- Node13&#45;&gt;Node21 -->
<g id="edge27" class="edge">
<title>Node13&#45;&gt;Node21</title>
<path fill="none" stroke="midnightblue" d="M3030.91,-200.45C3149.71,-193.16 3400.69,-176.51 3612,-154 3634.54,-151.6 3659.66,-148.23 3679.89,-145.35"/>
<polygon fill="midnightblue" stroke="midnightblue" points="3680.59,-148.78 3689.99,-143.89 3679.59,-141.85 3680.59,-148.78"/>
</g>
<!-- Node14&#45;&gt;Node8 -->
<g id="edge20" class="edge">
<title>Node14&#45;&gt;Node8</title>
<path fill="none" stroke="midnightblue" d="M2405.92,-128.97C2480.84,-112.44 2653.28,-75.89 2800,-56 2979.59,-31.66 3194.62,-18.49 3290.53,-13.45"/>
<polygon fill="midnightblue" stroke="midnightblue" points="3291,-16.93 3300.8,-12.92 3290.63,-9.94 3291,-16.93"/>
</g>
<!-- Node15 -->
<g id="node15" class="node">
<title>Node15</title>
<g id="a_node15"><a xlink:title=" ">
<polygon fill="none" stroke="#bfbfbf" points="2313,-62 2313,-81 2423,-81 2423,-62 2313,-62"/>
<text text-anchor="middle" x="2368" y="-69" font-family="Helvetica,sans-Serif" font-size="10.00">nlohmann/json.hpp</text>
</a>
</g>
</g>
<!-- Node14&#45;&gt;Node15 -->
<g id="edge21" class="edge">
<title>Node14&#45;&gt;Node15</title>
<path fill="none" stroke="midnightblue" d="M2368,-128.73C2368,-119.18 2368,-103.62 2368,-91.28"/>
<polygon fill="midnightblue" stroke="midnightblue" points="2371.5,-91.13 2368,-81.13 2364.5,-91.13 2371.5,-91.13"/>
</g>
<!-- Node19&#45;&gt;Node10 -->
<g id="edge25" class="edge">
<title>Node19&#45;&gt;Node10</title>
<path fill="none" stroke="midnightblue" d="M3163.18,-128.94C3245.68,-115.39 3403.98,-89.41 3473.2,-78.05"/>
<polygon fill="midnightblue" stroke="midnightblue" points="3473.83,-81.49 3483.14,-76.42 3472.7,-74.58 3473.83,-81.49"/>
</g>
<!-- Node22&#45;&gt;Node10 -->
<g id="edge158" class="edge">
<title>Node22&#45;&gt;Node10</title>
<path fill="none" stroke="midnightblue" d="M2692.09,-566.43C2788.48,-557.85 2952.08,-542.13 3092,-523 3406.7,-479.97 3618.23,-559.72 3763,-277 3782.41,-239.08 3878.81,-259.83 3757,-123 3690.54,-48.34 3629.9,-118.38 3535,-87 3533.57,-86.53 3532.13,-85.99 3530.68,-85.4"/>
<polygon fill="midnightblue" stroke="midnightblue" points="3531.98,-82.15 3521.44,-81.08 3529.02,-88.49 3531.98,-82.15"/>
</g>
<!-- Node22&#45;&gt;Node14 -->
<g id="edge32" class="edge">
<title>Node22&#45;&gt;Node14</title>
<path fill="none" stroke="midnightblue" d="M2692.06,-565.06C2817.16,-548.32 3033.74,-501.36 2978,-380 2958.93,-338.47 2938.55,-337.54 2900,-313 2838,-273.53 2663.51,-210.73 2593,-190 2536.22,-173.31 2470,-159.06 2424.16,-149.99"/>
<polygon fill="midnightblue" stroke="midnightblue" points="2424.61,-146.51 2414.13,-148.03 2423.27,-153.38 2424.61,-146.51"/>
</g>
<!-- Node23 -->
<g id="node20" class="node">
<title>Node23</title>
<g id="a_node20"><a xlink:href="_assembler_8hpp.html" target="_top" xlink:title=" ">
<polygon fill="none" stroke="black" points="3701.5,-447.5 3701.5,-466.5 3790.5,-466.5 3790.5,-447.5 3701.5,-447.5"/>
<text text-anchor="middle" x="3746" y="-454.5" font-family="Helvetica,sans-Serif" font-size="10.00">Assembler.hpp</text>
</a>
</g>
</g>
<!-- Node22&#45;&gt;Node23 -->
<g id="edge33" class="edge">
<title>Node22&#45;&gt;Node23</title>
<path fill="none" stroke="midnightblue" d="M2692.1,-573.14C2845.18,-571.47 3181.69,-563.09 3462,-523 3550.2,-510.39 3651.48,-484.36 3706.09,-469.35"/>
<polygon fill="midnightblue" stroke="midnightblue" points="3707.34,-472.63 3716.05,-466.59 3705.47,-465.88 3707.34,-472.63"/>
</g>
<!-- Node25 -->
<g id="node22" class="node">
<title>Node25</title>
<g id="a_node22"><a xlink:href="_matrix_utils_8hpp.html" target="_top" xlink:title=" ">
<polygon fill="none" stroke="black" points="3887.5,-129 3887.5,-148 4046.5,-148 4046.5,-129 3887.5,-129"/>
<text text-anchor="middle" x="3967" y="-136" font-family="Helvetica,sans-Serif" font-size="10.00">polyfem/utils/MatrixUtils.hpp</text>
</a>
</g>
</g>
<!-- Node22&#45;&gt;Node25 -->
<g id="edge157" class="edge">
<title>Node22&#45;&gt;Node25</title>
<path fill="none" stroke="midnightblue" d="M2692.07,-573.07C2853.72,-571.31 3221.59,-562.85 3528,-523 3649.96,-507.14 3683.59,-509.51 3799,-467 3892.8,-432.45 3977,-429.47 3977,-329.5 3977,-329.5 3977,-329.5 3977,-266 3977,-227.58 3972.36,-182.81 3969.4,-158.16"/>
<polygon fill="midnightblue" stroke="midnightblue" points="3972.85,-157.56 3968.15,-148.07 3965.91,-158.43 3972.85,-157.56"/>
</g>
<!-- Node27 -->
<g id="node24" class="node">
<title>Node27</title>
<g id="a_node24"><a xlink:href="_mass_matrix_assembler_8hpp.html" target="_top" xlink:title=" ">
<polygon fill="none" stroke="black" points="3268,-447.5 3268,-466.5 3414,-466.5 3414,-447.5 3268,-447.5"/>
<text text-anchor="middle" x="3341" y="-454.5" font-family="Helvetica,sans-Serif" font-size="10.00">MassMatrixAssembler.hpp</text>
</a>
</g>
</g>
<!-- Node22&#45;&gt;Node27 -->
<g id="edge46" class="edge">
<title>Node22&#45;&gt;Node27</title>
<path fill="none" stroke="midnightblue" d="M2692.16,-565.43C2776.34,-556.79 2910.12,-541.76 3025,-523 3121.35,-507.27 3232.98,-482.83 3294.42,-468.83"/>
<polygon fill="midnightblue" stroke="midnightblue" points="3295.24,-472.23 3304.21,-466.59 3293.68,-465.41 3295.24,-472.23"/>
</g>
<!-- Node35 -->
<g id="node29" class="node">
<title>Node35</title>
<g id="a_node29"><a xlink:href="_laplacian_8hpp.html" target="_top" xlink:title=" ">
<polygon fill="none" stroke="black" points="2885,-386 2885,-405 2969,-405 2969,-386 2885,-386"/>
<text text-anchor="middle" x="2927" y="-393" font-family="Helvetica,sans-Serif" font-size="10.00">Laplacian.hpp</text>
</a>
</g>
</g>
<!-- Node22&#45;&gt;Node35 -->
<g id="edge67" class="edge">
<title>Node22&#45;&gt;Node35</title>
<path fill="none" stroke="midnightblue" d="M2692.12,-563.19C2757.57,-550.9 2846.84,-524.26 2903,-467 2916.7,-453.04 2922.59,-430.96 2925.11,-415.23"/>
<polygon fill="midnightblue" stroke="midnightblue" points="2928.61,-415.47 2926.42,-405.11 2921.67,-414.58 2928.61,-415.47"/>
</g>
<!-- Node36 -->
<g id="node30" class="node">
<title>Node36</title>
<g id="a_node30"><a xlink:href="_bilaplacian_8hpp.html" target="_top" xlink:title=" ">
<polygon fill="none" stroke="black" points="608,-386 608,-405 700,-405 700,-386 608,-386"/>
<text text-anchor="middle" x="654" y="-393" font-family="Helvetica,sans-Serif" font-size="10.00">Bilaplacian.hpp</text>
</a>
</g>
</g>
<!-- Node22&#45;&gt;Node36 -->
<g id="edge72" class="edge">
<title>Node22&#45;&gt;Node36</title>
<path fill="none" stroke="midnightblue" d="M2525.85,-572.73C2221.47,-569.25 1168.83,-551.24 845,-467 824.6,-461.69 821.56,-454.86 802,-447 765,-432.13 721.73,-417.7 691.57,-408.1"/>
<polygon fill="midnightblue" stroke="midnightblue" points="692.46,-404.71 681.87,-405.03 690.35,-411.38 692.46,-404.71"/>
</g>
<!-- Node37 -->
<g id="node31" class="node">
<title>Node37</title>
<g id="a_node31"><a xlink:href="_helmholtz_8hpp.html" target="_top" xlink:title=" ">
<polygon fill="none" stroke="black" points="294,-386 294,-405 382,-405 382,-386 294,-386"/>
<text text-anchor="middle" x="338" y="-393" font-family="Helvetica,sans-Serif" font-size="10.00">Helmholtz.hpp</text>
</a>
</g>
</g>
<!-- Node22&#45;&gt;Node37 -->
<g id="edge79" class="edge">
<title>Node22&#45;&gt;Node37</title>
<path fill="none" stroke="midnightblue" d="M2525.98,-573.65C2220.11,-573.8 1156.59,-570.81 821,-523 776.52,-516.66 487.33,-437.63 378.94,-407.8"/>
<polygon fill="midnightblue" stroke="midnightblue" points="379.6,-404.35 369.03,-405.07 377.74,-411.1 379.6,-404.35"/>
</g>
<!-- Node38 -->
<g id="node32" class="node">
<title>Node38</title>
<g id="a_node32"><a xlink:href="_linear_elasticity_8hpp.html" target="_top" xlink:title=" ">
<polygon fill="none" stroke="black" points="854.5,-447.5 854.5,-466.5 965.5,-466.5 965.5,-447.5 854.5,-447.5"/>
<text text-anchor="middle" x="910" y="-454.5" font-family="Helvetica,sans-Serif" font-size="10.00">LinearElasticity.hpp</text>
</a>
</g>
</g>
<!-- Node22&#45;&gt;Node38 -->
<g id="edge84" class="edge">
<title>Node22&#45;&gt;Node38</title>
<path fill="none" stroke="midnightblue" d="M2525.9,-567.85C2231.53,-547.84 1241.81,-480.56 976.12,-462.49"/>
<polygon fill="midnightblue" stroke="midnightblue" points="976.07,-458.98 965.86,-461.8 975.6,-465.97 976.07,-458.98"/>
</g>
<!-- Node39 -->
<g id="node33" class="node">
<title>Node39</title>
<g id="a_node33"><a xlink:href="_hooke_linear_elasticity_8hpp.html" target="_top" xlink:title=" ">
<polygon fill="none" stroke="black" points="2389,-447.5 2389,-466.5 2531,-466.5 2531,-447.5 2389,-447.5"/>
<text text-anchor="middle" x="2460" y="-454.5" font-family="Helvetica,sans-Serif" font-size="10.00">HookeLinearElasticity.hpp</text>
</a>
</g>
</g>
<!-- Node22&#45;&gt;Node39 -->
<g id="edge92" class="edge">
<title>Node22&#45;&gt;Node39</title>
<path fill="none" stroke="midnightblue" d="M2590.73,-559.34C2562.42,-537.39 2508.21,-495.37 2479.29,-472.95"/>
<polygon fill="midnightblue" stroke="midnightblue" points="2481.23,-470.03 2471.18,-466.67 2476.94,-475.56 2481.23,-470.03"/>
</g>
<!-- Node40 -->
<g id="node34" class="node">
<title>Node40</title>
<g id="a_node34"><a xlink:href="_saint_venant_elasticity_8hpp.html" target="_top" xlink:title=" ">
<polygon fill="none" stroke="black" points="2754,-447.5 2754,-466.5 2894,-466.5 2894,-447.5 2754,-447.5"/>
<text text-anchor="middle" x="2824" y="-454.5" font-family="Helvetica,sans-Serif" font-size="10.00">SaintVenantElasticity.hpp</text>
</a>
</g>
</g>
<!-- Node22&#45;&gt;Node40 -->
<g id="edge100" class="edge">
<title>Node22&#45;&gt;Node40</title>
<path fill="none" stroke="midnightblue" d="M2635.36,-559.34C2677.2,-536.86 2758.23,-493.33 2799.12,-471.37"/>
<polygon fill="midnightblue" stroke="midnightblue" points="2800.98,-474.34 2808.14,-466.52 2797.67,-468.17 2800.98,-474.34"/>
</g>
<!-- Node41 -->
<g id="node35" class="node">
<title>Node41</title>
<g id="a_node35"><a xlink:href="_neo_hookean_elasticity_8hpp.html" target="_top" xlink:title=" ">
<polygon fill="none" stroke="black" points="1733.5,-447.5 1733.5,-466.5 1876.5,-466.5 1876.5,-447.5 1733.5,-447.5"/>
<text text-anchor="middle" x="1805" y="-454.5" font-family="Helvetica,sans-Serif" font-size="10.00">NeoHookeanElasticity.hpp</text>
</a>
</g>
</g>
<!-- Node22&#45;&gt;Node41 -->
<g id="edge109" class="edge">
<title>Node22&#45;&gt;Node41</title>
<path fill="none" stroke="midnightblue" d="M2525.82,-564.31C2442.7,-554.88 2311.32,-539.33 2198,-523 2078.45,-505.78 1939.09,-481.8 1862.61,-468.3"/>
<polygon fill="midnightblue" stroke="midnightblue" points="1863.15,-464.84 1852.69,-466.55 1861.93,-471.73 1863.15,-464.84"/>
</g>
<!-- Node48 -->
<g id="node42" class="node">
<title>Node48</title>
<g id="a_node42"><a xlink:href="_multi_model_8hpp.html" target="_top" xlink:title=" ">
<polygon fill="none" stroke="black" points="2207,-503.5 2207,-522.5 2299,-522.5 2299,-503.5 2207,-503.5"/>
<text text-anchor="middle" x="2253" y="-510.5" font-family="Helvetica,sans-Serif" font-size="10.00">MultiModel.hpp</text>
</a>
</g>
</g>
<!-- Node22&#45;&gt;Node48 -->
<g id="edge124" class="edge">
<title>Node22&#45;&gt;Node48</title>
<path fill="none" stroke="midnightblue" d="M2525.98,-559.62C2459.31,-548.48 2367.49,-533.13 2309.18,-523.39"/>
<polygon fill="midnightblue" stroke="midnightblue" points="2309.5,-519.89 2299.06,-521.7 2308.34,-526.8 2309.5,-519.89"/>
</g>
<!-- Node49 -->
<g id="node43" class="node">
<title>Node49</title>
<g id="a_node43"><a xlink:href="_stokes_8hpp.html" target="_top" xlink:title=" ">
<polygon fill="none" stroke="black" points="400,-386 400,-405 470,-405 470,-386 400,-386"/>
<text text-anchor="middle" x="435" y="-393" font-family="Helvetica,sans-Serif" font-size="10.00">Stokes.hpp</text>
</a>
</g>
</g>
<!-- Node22&#45;&gt;Node49 -->
<g id="edge135" class="edge">
<title>Node22&#45;&gt;Node49</title>
<path fill="none" stroke="midnightblue" d="M2525.75,-573.43C2230.54,-572.79 1234.57,-567.33 919,-523 819.09,-508.96 575.86,-439.25 479,-411 476.01,-410.13 472.91,-409.19 469.82,-408.22"/>
<polygon fill="midnightblue" stroke="midnightblue" points="470.63,-404.8 460.04,-405.08 468.49,-411.47 470.63,-404.8"/>
</g>
<!-- Node50 -->
<g id="node44" class="node">
<title>Node50</title>
<g id="a_node44"><a xlink:href="_navier_stokes_8hpp.html" target="_top" xlink:title=" ">
<polygon fill="none" stroke="black" points="488,-386 488,-405 590,-405 590,-386 488,-386"/>
<text text-anchor="middle" x="539" y="-393" font-family="Helvetica,sans-Serif" font-size="10.00">NavierStokes.hpp</text>
</a>
</g>
</g>
<!-- Node22&#45;&gt;Node50 -->
<g id="edge142" class="edge">
<title>Node22&#45;&gt;Node50</title>
<path fill="none" stroke="midnightblue" d="M2525.54,-572.78C2246.36,-570.07 1346.56,-558.71 1059,-523 942.99,-508.59 911.83,-507.03 802,-467 784.07,-460.46 781.93,-453.54 764,-447 693.48,-421.29 672.15,-427.82 599,-411 594.04,-409.86 588.85,-408.64 583.69,-407.42"/>
<polygon fill="midnightblue" stroke="midnightblue" points="584.41,-403.99 573.87,-405.07 582.78,-410.8 584.41,-403.99"/>
</g>
<!-- Node51 -->
<g id="node45" class="node">
<title>Node51</title>
<g id="a_node45"><a xlink:href="_incompressible_lin_elast_8hpp.html" target="_top" xlink:title=" ">
<polygon fill="none" stroke="black" points="363,-447.5 363,-466.5 513,-466.5 513,-447.5 363,-447.5"/>
<text text-anchor="middle" x="438" y="-454.5" font-family="Helvetica,sans-Serif" font-size="10.00">IncompressibleLinElast.hpp</text>
</a>
</g>
</g>
<!-- Node22&#45;&gt;Node51 -->
<g id="edge149" class="edge">
<title>Node22&#45;&gt;Node51</title>
<path fill="none" stroke="midnightblue" d="M2525.73,-573.52C2167.09,-573.32 763.65,-569.54 572,-523 529.71,-512.73 485.1,-487.86 459.5,-472.04"/>
<polygon fill="midnightblue" stroke="midnightblue" points="461.3,-469.03 450.97,-466.66 457.56,-474.95 461.3,-469.03"/>
</g>
<!-- Node23&#45;&gt;Node2 -->
<g id="edge36" class="edge">
<title>Node23&#45;&gt;Node2</title>
<path fill="none" stroke="midnightblue" d="M3731.77,-447.24C3703.52,-430.41 3637.83,-393.96 3577,-380 3566.62,-377.62 2249.07,-341.59 1892.89,-331.89"/>
<polygon fill="midnightblue" stroke="midnightblue" points="1892.73,-328.38 1882.63,-331.61 1892.54,-335.38 1892.73,-328.38"/>
</g>
<!-- Node23&#45;&gt;Node8 -->
<g id="edge41" class="edge">
<title>Node23&#45;&gt;Node8</title>
<path fill="none" stroke="midnightblue" d="M3790.65,-456.17C3896.13,-455.9 4157.62,-451.07 4234,-411 4338.91,-355.96 4405,-324.98 4405,-206.5 4405,-206.5 4405,-206.5 4405,-137.5 4405,-99.74 4410.74,-79.27 4381,-56 4341.65,-25.22 3594.14,-14.04 3391.37,-11.56"/>
<polygon fill="midnightblue" stroke="midnightblue" points="3391.34,-8.06 3381.3,-11.44 3391.25,-15.06 3391.34,-8.06"/>
</g>
<!-- Node23&#45;&gt;Node10 -->
<g id="edge42" class="edge">
<title>Node23&#45;&gt;Node10</title>
<path fill="none" stroke="midnightblue" d="M3763.52,-447.41C3796.16,-430.04 3863,-387.39 3863,-329.5 3863,-329.5 3863,-329.5 3863,-266 3863,-196.19 3856.44,-161.19 3798,-123 3699.24,-58.46 3647.47,-122.65 3535,-87 3533.53,-86.53 3532.05,-86 3530.57,-85.41"/>
<polygon fill="midnightblue" stroke="midnightblue" points="3531.67,-82.06 3521.13,-81.01 3528.71,-88.4 3531.67,-82.06"/>
</g>
<!-- Node23&#45;&gt;Node11 -->
<g id="edge43" class="edge">
<title>Node23&#45;&gt;Node11</title>
<path fill="none" stroke="midnightblue" d="M3741.19,-447.2C3717.67,-404.17 3614.54,-215.49 3582.52,-156.91"/>
<polygon fill="midnightblue" stroke="midnightblue" points="3585.57,-155.2 3577.7,-148.1 3579.43,-158.56 3585.57,-155.2"/>
</g>
<!-- Node23&#45;&gt;Node21 -->
<g id="edge45" class="edge">
<title>Node23&#45;&gt;Node21</title>
<path fill="none" stroke="midnightblue" d="M3746.34,-447.41C3747.13,-426.98 3749,-373.88 3749,-329.5 3749,-329.5 3749,-329.5 3749,-266 3749,-226.66 3735.09,-182.25 3726.22,-157.91"/>
<polygon fill="midnightblue" stroke="midnightblue" points="3729.37,-156.34 3722.56,-148.23 3722.82,-158.82 3729.37,-156.34"/>
</g>
<!-- Node24 -->
<g id="node21" class="node">
<title>Node24</title>
<g id="a_node21"><a xlink:href="_assembly_vals_cache_8hpp.html" target="_top" xlink:title=" ">
<polygon fill="none" stroke="black" points="3177,-386 3177,-405 3313,-405 3313,-386 3177,-386"/>
<text text-anchor="middle" x="3245" y="-393" font-family="Helvetica,sans-Serif" font-size="10.00">AssemblyValsCache.hpp</text>
</a>
</g>
</g>
<!-- Node23&#45;&gt;Node24 -->
<g id="edge34" class="edge">
<title>Node23&#45;&gt;Node24</title>
<path fill="none" stroke="midnightblue" d="M3701.1,-450.67C3615.82,-440.54 3429.49,-418.41 3323.26,-405.79"/>
<polygon fill="midnightblue" stroke="midnightblue" points="3323.58,-402.31 3313.24,-404.6 3322.76,-409.26 3323.58,-402.31"/>
</g>
<!-- Node23&#45;&gt;Node25 -->
<g id="edge37" class="edge">
<title>Node23&#45;&gt;Node25</title>
<path fill="none" stroke="midnightblue" d="M3782.48,-447.46C3816.45,-438.83 3863.79,-424.82 3877,-411 3903.1,-383.71 3901,-367.26 3901,-329.5 3901,-329.5 3901,-329.5 3901,-266 3901,-222.29 3932.36,-178.74 3951.84,-155.89"/>
<polygon fill="midnightblue" stroke="midnightblue" points="3954.65,-158 3958.64,-148.19 3949.4,-153.37 3954.65,-158"/>
</g>
<!-- Node26 -->
<g id="node23" class="node">
<title>Node26</title>
<g id="a_node23"><a xlink:title=" ">
<polygon fill="none" stroke="#bfbfbf" points="3521.5,-386 3521.5,-405 3568.5,-405 3568.5,-386 3521.5,-386"/>
<text text-anchor="middle" x="3545" y="-393" font-family="Helvetica,sans-Serif" font-size="10.00">cmath</text>
</a>
</g>
</g>
<!-- Node23&#45;&gt;Node26 -->
<g id="edge44" class="edge">
<title>Node23&#45;&gt;Node26</title>
<path fill="none" stroke="midnightblue" d="M3717.2,-447.48C3680.53,-436.62 3617.29,-417.9 3578.5,-406.42"/>
<polygon fill="midnightblue" stroke="midnightblue" points="3579.3,-403 3568.72,-403.52 3577.32,-409.72 3579.3,-403"/>
</g>
<!-- Node24&#45;&gt;Node2 -->
<g id="edge35" class="edge">
<title>Node24&#45;&gt;Node2</title>
<path fill="none" stroke="midnightblue" d="M3176.62,-387.44C3148.84,-384.78 3116.41,-381.93 3087,-380 2638.65,-350.62 2100.89,-336.18 1893,-331.39"/>
<polygon fill="midnightblue" stroke="midnightblue" points="1892.83,-327.88 1882.75,-331.15 1892.67,-334.88 1892.83,-327.88"/>
</g>
<!-- Node25&#45;&gt;Node5 -->
<g id="edge39" class="edge">
<title>Node25&#45;&gt;Node5</title>
<path fill="none" stroke="midnightblue" d="M3912.92,-128.96C3900.16,-126.98 3886.6,-124.89 3874,-123 3763.42,-106.39 3733.48,-114.1 3625,-87 3585.58,-77.15 3578.91,-63.61 3539,-56 3399.52,-29.39 2378.13,-14.68 2141.74,-11.61"/>
<polygon fill="midnightblue" stroke="midnightblue" points="2141.77,-8.11 2131.73,-11.48 2141.68,-15.11 2141.77,-8.11"/>
</g>
<!-- Node25&#45;&gt;Node7 -->
<g id="edge38" class="edge">
<title>Node25&#45;&gt;Node7</title>
<path fill="none" stroke="midnightblue" d="M3896.71,-128.96C3877.08,-126.79 3855.73,-124.61 3836,-123 3508.22,-96.26 3116.27,-80.77 2953.13,-75.05"/>
<polygon fill="midnightblue" stroke="midnightblue" points="2952.84,-71.53 2942.72,-74.68 2952.59,-78.53 2952.84,-71.53"/>
</g>
<!-- Node25&#45;&gt;Node8 -->
<g id="edge40" class="edge">
<title>Node25&#45;&gt;Node8</title>
<path fill="none" stroke="midnightblue" d="M3934.64,-128.91C3874.15,-113.05 3739.66,-78.71 3625,-56 3543.63,-39.88 3448.25,-25.73 3391.32,-17.78"/>
<polygon fill="midnightblue" stroke="midnightblue" points="3391.54,-14.28 3381.15,-16.37 3390.57,-21.21 3391.54,-14.28"/>
</g>
<!-- Node27&#45;&gt;Node2 -->
<g id="edge47" class="edge">
<title>Node27&#45;&gt;Node2</title>
<path fill="none" stroke="midnightblue" d="M3308.76,-447.39C3245.75,-430.99 3101.62,-395.5 2978,-380 2768.25,-353.71 2128.36,-336.87 1893.04,-331.43"/>
<polygon fill="midnightblue" stroke="midnightblue" points="1892.9,-327.92 1882.82,-331.19 1892.74,-334.92 1892.9,-327.92"/>
</g>
<!-- Node27&#45;&gt;Node8 -->
<g id="edge62" class="edge">
<title>Node27&#45;&gt;Node8</title>
<path fill="none" stroke="midnightblue" d="M3341,-447.41C3341,-426.98 3341,-373.86 3341,-329.5 3341,-329.5 3341,-329.5 3341,-137.5 3341,-99.2 3341,-54.38 3341,-29.7"/>
<polygon fill="midnightblue" stroke="midnightblue" points="3344.5,-29.59 3341,-19.59 3337.5,-29.59 3344.5,-29.59"/>
</g>
<!-- Node27&#45;&gt;Node10 -->
<g id="edge63" class="edge">
<title>Node27&#45;&gt;Node10</title>
<path fill="none" stroke="midnightblue" d="M3351.12,-447.38C3379.02,-422.6 3455,-347.78 3455,-268 3455,-268 3455,-268 3455,-204.5 3455,-160.58 3480.23,-113.79 3495.54,-89.45"/>
<polygon fill="midnightblue" stroke="midnightblue" points="3498.52,-91.29 3501.03,-81 3492.65,-87.48 3498.52,-91.29"/>
</g>
<!-- Node27&#45;&gt;Node11 -->
<g id="edge64" class="edge">
<title>Node27&#45;&gt;Node11</title>
<path fill="none" stroke="midnightblue" d="M3367.53,-447.49C3386.92,-440.22 3412.88,-428.2 3431,-411 3510.47,-335.58 3553.98,-205.79 3567.95,-157.92"/>
<polygon fill="midnightblue" stroke="midnightblue" points="3571.32,-158.87 3570.68,-148.29 3564.59,-156.96 3571.32,-158.87"/>
</g>
<!-- Node27&#45;&gt;Node21 -->
<g id="edge66" class="edge">
<title>Node27&#45;&gt;Node21</title>
<path fill="none" stroke="midnightblue" d="M3374.66,-447.49C3399.35,-440.26 3432.96,-428.27 3459,-411 3572.19,-335.92 3673.18,-203.47 3707,-156.56"/>
<polygon fill="midnightblue" stroke="midnightblue" points="3709.89,-158.53 3712.85,-148.36 3704.19,-154.46 3709.89,-158.53"/>
</g>
<!-- Node27&#45;&gt;Node24 -->
<g id="edge48" class="edge">
<title>Node27&#45;&gt;Node24</title>
<path fill="none" stroke="midnightblue" d="M3327.25,-447.48C3311.63,-437.8 3285.94,-421.87 3267.42,-410.39"/>
<polygon fill="midnightblue" stroke="midnightblue" points="3269.07,-407.3 3258.73,-405.01 3265.38,-413.25 3269.07,-407.3"/>
</g>
<!-- Node27&#45;&gt;Node26 -->
<g id="edge65" class="edge">
<title>Node27&#45;&gt;Node26</title>
<path fill="none" stroke="midnightblue" d="M3376.6,-447.44C3410.42,-439.06 3462.56,-425.46 3507,-411 3509.41,-410.22 3511.89,-409.37 3514.37,-408.49"/>
<polygon fill="midnightblue" stroke="midnightblue" points="3515.65,-411.74 3523.83,-405.01 3513.24,-405.18 3515.65,-411.74"/>
</g>
<!-- Node27&#45;&gt;Node28 -->
<g id="edge49" class="edge">
<title>Node27&#45;&gt;Node28</title>
<path fill="none" stroke="midnightblue" d="M3267.73,-451.26C3096.17,-440.15 2669.82,-412.55 2496.77,-401.34"/>
<polygon fill="midnightblue" stroke="midnightblue" points="2496.94,-397.84 2486.74,-400.69 2496.49,-404.83 2496.94,-397.84"/>
</g>
<!-- Node28&#45;&gt;Node2 -->
<g id="edge51" class="edge">
<title>Node28&#45;&gt;Node2</title>
<path fill="none" stroke="midnightblue" d="M2357.41,-382.17C2352.54,-381.38 2347.7,-380.65 2343,-380 2299.68,-374 2034.06,-349.95 1892.94,-337.33"/>
<polygon fill="midnightblue" stroke="midnightblue" points="1892.86,-333.81 1882.59,-336.4 1892.23,-340.78 1892.86,-333.81"/>
</g>
<!-- Node28&#45;&gt;Node5 -->
<g id="edge58" class="edge">
<title>Node28&#45;&gt;Node5</title>
<path fill="none" stroke="midnightblue" d="M2385.73,-380.38C2366.59,-371.77 2343.52,-359.44 2326,-344 2214.08,-245.39 2128.11,-82.55 2101.56,-28.82"/>
<polygon fill="midnightblue" stroke="midnightblue" points="2104.58,-27.03 2097.05,-19.57 2098.29,-30.1 2104.58,-27.03"/>
</g>
<!-- Node28&#45;&gt;Node7 -->
<g id="edge57" class="edge">
<title>Node28&#45;&gt;Node7</title>
<path fill="none" stroke="midnightblue" d="M2444.35,-380.31C2459.13,-370.62 2478.72,-357.19 2495,-344 2606.14,-253.94 2606.59,-197.02 2729,-123 2759.5,-104.56 2797.65,-91.7 2827.45,-83.58"/>
<polygon fill="midnightblue" stroke="midnightblue" points="2828.43,-86.94 2837.21,-81.01 2826.64,-80.17 2828.43,-86.94"/>
</g>
<!-- Node28&#45;&gt;Node9 -->
<g id="edge61" class="edge">
<title>Node28&#45;&gt;Node9</title>
<path fill="none" stroke="midnightblue" d="M2371.76,-380.49C2273.05,-353.37 2046.55,-293.2 1853,-257 1328.92,-158.97 683.59,-93.05 513.64,-76.55"/>
<polygon fill="midnightblue" stroke="midnightblue" points="513.88,-73.06 503.59,-75.58 513.21,-80.03 513.88,-73.06"/>
</g>
<!-- Node28&#45;&gt;Node10 -->
<g id="edge59" class="edge">
<title>Node28&#45;&gt;Node10</title>
<path fill="none" stroke="midnightblue" d="M2452.04,-380.47C2473.13,-370.52 2501.93,-356.73 2527,-344 2630.37,-291.53 2667.27,-294.39 2757,-221 2800.74,-185.22 2787.82,-148.98 2838,-123 2894.72,-93.64 3345.33,-77.52 3473.25,-73.5"/>
<polygon fill="midnightblue" stroke="midnightblue" points="3473.37,-77 3483.26,-73.19 3473.15,-70.01 3473.37,-77"/>
</g>
<!-- Node28&#45;&gt;Node12 -->
<g id="edge52" class="edge">
<title>Node28&#45;&gt;Node12</title>
<path fill="none" stroke="midnightblue" d="M2357.37,-382.41C2352.51,-381.57 2347.68,-380.76 2343,-380 2229.58,-361.62 2199.78,-365.96 2087,-344 2031.24,-333.14 2018.32,-325.9 1963,-313 1909.81,-300.6 1848.7,-287.52 1806.55,-278.67"/>
<polygon fill="midnightblue" stroke="midnightblue" points="1807.03,-275.2 1796.52,-276.58 1805.6,-282.05 1807.03,-275.2"/>
</g>
<!-- Node28&#45;&gt;Node14 -->
<g id="edge50" class="edge">
<title>Node28&#45;&gt;Node14</title>
<path fill="none" stroke="midnightblue" d="M2382.88,-380.48C2366.57,-372.47 2349.29,-360.64 2340,-344 2305.66,-282.52 2340.54,-194.92 2358.61,-157.53"/>
<polygon fill="midnightblue" stroke="midnightblue" points="2361.84,-158.89 2363.18,-148.38 2355.58,-155.76 2361.84,-158.89"/>
</g>
<!-- Node29 -->
<g id="node26" class="node">
<title>Node29</title>
<g id="a_node26"><a xlink:href="_expression_value_8hpp.html" target="_top" xlink:title=" ">
<polygon fill="none" stroke="black" points="2349.5,-313.5 2349.5,-343.5 2486.5,-343.5 2486.5,-313.5 2349.5,-313.5"/>
<text text-anchor="start" x="2357.5" y="-331.5" font-family="Helvetica,sans-Serif" font-size="10.00">polyfem/utils/Expression</text>
<text text-anchor="middle" x="2418" y="-320.5" font-family="Helvetica,sans-Serif" font-size="10.00">Value.hpp</text>
</a>
</g>
</g>
<!-- Node28&#45;&gt;Node29 -->
<g id="edge53" class="edge">
<title>Node28&#45;&gt;Node29</title>
<path fill="none" stroke="midnightblue" d="M2421.13,-380.4C2420.65,-372.56 2420.04,-362.6 2419.48,-353.57"/>
<polygon fill="midnightblue" stroke="midnightblue" points="2422.97,-353.34 2418.87,-343.58 2415.99,-353.77 2422.97,-353.34"/>
</g>
<!-- Node30 -->
<g id="node27" class="node">
<title>Node30</title>
<g id="a_node27"><a xlink:href="_autodiff_types_8hpp.html" target="_top" xlink:title=" ">
<polygon fill="none" stroke="red" points="1538.5,-319 1538.5,-338 1709.5,-338 1709.5,-319 1538.5,-319"/>
<text text-anchor="middle" x="1624" y="-326" font-family="Helvetica,sans-Serif" font-size="10.00">polyfem/utils/AutodiffTypes.hpp</text>
</a>
</g>
</g>
<!-- Node28&#45;&gt;Node30 -->
<g id="edge55" class="edge">
<title>Node28&#45;&gt;Node30</title>
<path fill="none" stroke="midnightblue" d="M2357.4,-385.77C2340.38,-383.66 2322.02,-381.57 2305,-380 2044.73,-355.91 1977.88,-371.95 1718,-344 1706.94,-342.81 1695.19,-341.24 1683.88,-339.58"/>
<polygon fill="midnightblue" stroke="midnightblue" points="1684.06,-336.07 1673.65,-338.03 1683.01,-342.99 1684.06,-336.07"/>
</g>
<!-- Node34 -->
<g id="node28" class="node">
<title>Node34</title>
<g id="a_node28"><a xlink:title=" ">
<polygon fill="none" stroke="#bfbfbf" points="2749,-319 2749,-338 2791,-338 2791,-319 2749,-319"/>
<text text-anchor="middle" x="2770" y="-326" font-family="Helvetica,sans-Serif" font-size="10.00">array</text>
</a>
</g>
</g>
<!-- Node28&#45;&gt;Node34 -->
<g id="edge60" class="edge">
<title>Node28&#45;&gt;Node34</title>
<path fill="none" stroke="midnightblue" d="M2486.8,-388.5C2550.77,-381.53 2650.93,-367.84 2735,-344 2737.3,-343.35 2739.64,-342.59 2741.98,-341.77"/>
<polygon fill="midnightblue" stroke="midnightblue" points="2743.32,-345.01 2751.39,-338.15 2740.81,-338.47 2743.32,-345.01"/>
</g>
<!-- Node29&#45;&gt;Node14 -->
<g id="edge54" class="edge">
<title>Node29&#45;&gt;Node14</title>
<path fill="none" stroke="midnightblue" d="M2414.24,-313.37C2405.35,-279.94 2383.02,-195.97 2373,-158.3"/>
<polygon fill="midnightblue" stroke="midnightblue" points="2376.27,-156.97 2370.32,-148.21 2369.5,-158.77 2376.27,-156.97"/>
</g>
<!-- Node30&#45;&gt;Node7 -->
<g id="edge56" class="edge">
<title>Node30&#45;&gt;Node7</title>
<path fill="none" stroke="midnightblue" d="M1677.6,-318.94C1724.56,-310.68 1794.28,-296.54 1853,-277 2010.41,-224.63 2032.25,-163.97 2193,-123 2305.77,-94.26 2645.43,-79.94 2799.06,-74.8"/>
<polygon fill="midnightblue" stroke="midnightblue" points="2799.47,-78.29 2809.35,-74.46 2799.24,-71.29 2799.47,-78.29"/>
</g>
<!-- Node35&#45;&gt;Node2 -->
<g id="edge70" class="edge">
<title>Node35&#45;&gt;Node2</title>
<path fill="none" stroke="midnightblue" d="M2884.73,-392.05C2720.15,-382.52 2120.16,-347.76 1892.98,-334.6"/>
<polygon fill="midnightblue" stroke="midnightblue" points="1892.96,-331.09 1882.77,-334.01 1892.55,-338.08 1892.96,-331.09"/>
</g>
<!-- Node35&#45;&gt;Node5 -->
<g id="edge71" class="edge">
<title>Node35&#45;&gt;Node5</title>
<path fill="none" stroke="midnightblue" d="M2940.27,-385.87C3000.25,-346.37 3241.19,-182.21 3196,-123 3127.51,-33.26 3062.45,-73.95 2951,-56 2793.46,-30.63 2299.92,-16.23 2142.07,-12.19"/>
<polygon fill="midnightblue" stroke="midnightblue" points="2141.82,-8.68 2131.73,-11.93 2141.64,-15.68 2141.82,-8.68"/>
</g>
<!-- Node35&#45;&gt;Node14 -->
<g id="edge68" class="edge">
<title>Node35&#45;&gt;Node14</title>
<path fill="none" stroke="midnightblue" d="M2923.26,-385.8C2915.74,-369.28 2897.24,-333.24 2871,-313 2832.43,-283.25 2515.98,-184.75 2405.72,-150.98"/>
<polygon fill="midnightblue" stroke="midnightblue" points="2406.6,-147.59 2396.01,-148.01 2404.55,-154.28 2406.6,-147.59"/>
</g>
<!-- Node35&#45;&gt;Node30 -->
<g id="edge69" class="edge">
<title>Node35&#45;&gt;Node30</title>
<path fill="none" stroke="midnightblue" d="M2884.96,-393.02C2685.11,-385.96 1835.94,-355.52 1718,-344 1706.56,-342.88 1694.39,-341.3 1682.74,-339.59"/>
<polygon fill="midnightblue" stroke="midnightblue" points="1683.07,-336.1 1672.66,-338.06 1682.02,-343.02 1683.07,-336.1"/>
</g>
<!-- Node36&#45;&gt;Node2 -->
<g id="edge74" class="edge">
<title>Node36&#45;&gt;Node2</title>
<path fill="none" stroke="midnightblue" d="M700.07,-391.64C750.22,-388.57 832.79,-383.64 904,-380 1262.3,-361.69 1356.12,-381.46 1717.06,-344"/>
<polygon fill="midnightblue" stroke="midnightblue" points="1717.69,-347.45 1727.28,-342.93 1716.97,-340.49 1717.69,-347.45"/>
</g>
<!-- Node36&#45;&gt;Node5 -->
<g id="edge77" class="edge">
<title>Node36&#45;&gt;Node5</title>
<path fill="none" stroke="midnightblue" d="M700.36,-388.55C799.47,-374.54 1023,-335.47 1023,-268 1023,-268 1023,-268 1023,-137.5 1023,-33.22 1834.82,-14.63 2044.2,-11.57"/>
<polygon fill="midnightblue" stroke="midnightblue" points="2044.34,-15.06 2054.29,-11.42 2044.24,-8.07 2044.34,-15.06"/>
</g>
<!-- Node36&#45;&gt;Node9 -->
<g id="edge78" class="edge">
<title>Node36&#45;&gt;Node9</title>
<path fill="none" stroke="midnightblue" d="M634.31,-385.89C598.88,-368.91 528,-327.51 528,-268 528,-268 528,-268 528,-204.5 528,-160.21 500.61,-113.9 483.81,-89.65"/>
<polygon fill="midnightblue" stroke="midnightblue" points="486.43,-87.3 477.76,-81.21 480.74,-91.38 486.43,-87.3"/>
</g>
<!-- Node36&#45;&gt;Node12 -->
<g id="edge75" class="edge">
<title>Node36&#45;&gt;Node12</title>
<path fill="none" stroke="midnightblue" d="M684.94,-385.96C694.22,-383.69 704.47,-381.46 714,-380 950,-343.83 1023.38,-419.16 1250,-344 1274.1,-336.01 1274.02,-321.37 1298,-313 1361.66,-290.78 1540.7,-278.28 1654.86,-272.35"/>
<polygon fill="midnightblue" stroke="midnightblue" points="1655.21,-275.84 1665.02,-271.83 1654.85,-268.85 1655.21,-275.84"/>
</g>
<!-- Node36&#45;&gt;Node14 -->
<g id="edge73" class="edge">
<title>Node36&#45;&gt;Node14</title>
<path fill="none" stroke="midnightblue" d="M700.06,-389.04C723.91,-386.26 753.51,-382.86 780,-380 938.11,-362.91 979.77,-373.68 1136,-344 1185.9,-334.52 1196.28,-323.36 1246,-313 1540.68,-251.58 1619.71,-268.22 1917,-221 2061.04,-198.12 2230.03,-166.22 2314.39,-149.95"/>
<polygon fill="midnightblue" stroke="midnightblue" points="2315.1,-153.38 2324.25,-148.04 2313.77,-146.51 2315.1,-153.38"/>
</g>
<!-- Node36&#45;&gt;Node30 -->
<g id="edge76" class="edge">
<title>Node36&#45;&gt;Node30</title>
<path fill="none" stroke="midnightblue" d="M700.26,-386.79C716.57,-384.3 735.06,-381.74 752,-380 900.1,-364.79 1334.04,-343.2 1528.19,-333.97"/>
<polygon fill="midnightblue" stroke="midnightblue" points="1528.55,-337.45 1538.38,-333.48 1528.22,-330.46 1528.55,-337.45"/>
</g>
<!-- Node37&#45;&gt;Node2 -->
<g id="edge82" class="edge">
<title>Node37&#45;&gt;Node2</title>
<path fill="none" stroke="midnightblue" d="M364.42,-385.93C372.83,-383.57 382.22,-381.3 391,-380 971.35,-294.02 1128.96,-399.44 1717.27,-343.95"/>
<polygon fill="midnightblue" stroke="midnightblue" points="1717.66,-347.43 1727.28,-343 1716.99,-340.47 1717.66,-347.43"/>
</g>
<!-- Node37&#45;&gt;Node5 -->
<g id="edge83" class="edge">
<title>Node37&#45;&gt;Node5</title>
<path fill="none" stroke="midnightblue" d="M329.86,-385.83C290.41,-342.86 125.16,-150.93 228,-56 262.36,-24.28 1753.5,-13.16 2044.17,-11.3"/>
<polygon fill="midnightblue" stroke="midnightblue" points="2044.42,-14.79 2054.4,-11.23 2044.37,-7.79 2044.42,-14.79"/>
</g>
<!-- Node37&#45;&gt;Node14 -->
<g id="edge80" class="edge">
<title>Node37&#45;&gt;Node14</title>
<path fill="none" stroke="midnightblue" d="M363.57,-385.98C412.99,-369.78 525.31,-334.25 622,-313 972.06,-236.08 1062.49,-226.9 1419,-190 1588.71,-172.43 2103.6,-150.29 2295.17,-142.43"/>
<polygon fill="midnightblue" stroke="midnightblue" points="2295.57,-145.92 2305.42,-142.01 2295.28,-138.92 2295.57,-145.92"/>
</g>
<!-- Node37&#45;&gt;Node30 -->
<g id="edge81" class="edge">
<title>Node37&#45;&gt;Node30</title>
<path fill="none" stroke="midnightblue" d="M364.71,-385.93C373.04,-383.6 382.33,-381.35 391,-380 609.6,-346.07 1277.89,-334.02 1528.09,-330.63"/>
<polygon fill="midnightblue" stroke="midnightblue" points="1528.3,-334.13 1538.25,-330.49 1528.21,-327.13 1528.3,-334.13"/>
</g>
<!-- Node38&#45;&gt;Node2 -->
<g id="edge86" class="edge">
<title>Node38&#45;&gt;Node2</title>
<path fill="none" stroke="midnightblue" d="M914.78,-447.38C924.53,-430.79 948.48,-394.75 980,-380 1051.96,-346.33 1599.39,-352.32 1716.99,-343.81"/>
<polygon fill="midnightblue" stroke="midnightblue" points="1717.62,-347.27 1727.27,-342.91 1717.01,-340.3 1717.62,-347.27"/>
</g>
<!-- Node38&#45;&gt;Node5 -->
<g id="edge90" class="edge">
<title>Node38&#45;&gt;Node5</title>
<path fill="none" stroke="midnightblue" d="M854.25,-455.7C709.11,-454.4 327.76,-447.52 285,-411 256.72,-386.85 266,-366.69 266,-329.5 266,-329.5 266,-329.5 266,-137.5 266,-56.5 350.43,-75.67 429,-56 588.94,-15.95 1786.08,-11.54 2044.09,-11.06"/>
<polygon fill="midnightblue" stroke="midnightblue" points="2044.28,-14.56 2054.27,-11.04 2044.27,-7.56 2044.28,-14.56"/>
</g>
<!-- Node38&#45;&gt;Node9 -->
<g id="edge91" class="edge">
<title>Node38&#45;&gt;Node9</title>
<path fill="none" stroke="midnightblue" d="M854.23,-454.24C699.09,-449.06 272.44,-432.89 252,-411 205.28,-360.98 223.14,-319.06 252,-257 292,-171 394.01,-110.71 443.39,-85.58"/>
<polygon fill="midnightblue" stroke="midnightblue" points="445.14,-88.62 452.53,-81.02 442.02,-82.35 445.14,-88.62"/>
</g>
<!-- Node38&#45;&gt;Node12 -->
<g id="edge87" class="edge">
<title>Node38&#45;&gt;Node12</title>
<path fill="none" stroke="midnightblue" d="M854.47,-449.3C830.49,-443.35 804.64,-432.12 790,-411 782.15,-399.68 780.62,-390.09 790,-380 827.79,-339.38 1235.39,-361.6 1288,-344 1312.08,-335.94 1312.06,-321.47 1336,-313 1392.82,-292.89 1550.06,-280.02 1654.93,-273.41"/>
<polygon fill="midnightblue" stroke="midnightblue" points="1655.46,-276.88 1665.22,-272.77 1655.02,-269.9 1655.46,-276.88"/>
</g>
<!-- Node38&#45;&gt;Node14 -->
<g id="edge85" class="edge">
<title>Node38&#45;&gt;Node14</title>
<path fill="none" stroke="midnightblue" d="M907.71,-447.49C904.05,-431.73 898.97,-397.95 917,-380 949.32,-347.81 1280.71,-349.45 1326,-344 1416.62,-333.1 1438.52,-324.93 1529,-313 1672.64,-294.06 1710.61,-303.76 1853,-277 2035.69,-242.66 2248.76,-177.56 2332.06,-151.11"/>
<polygon fill="midnightblue" stroke="midnightblue" points="2333.32,-154.37 2341.79,-148 2331.2,-147.71 2333.32,-154.37"/>
</g>
<!-- Node38&#45;&gt;Node28 -->
<g id="edge88" class="edge">
<title>Node38&#45;&gt;Node28</title>
<path fill="none" stroke="midnightblue" d="M965.61,-453.81C1196.81,-444.71 2082.31,-409.87 2346.91,-399.45"/>
<polygon fill="midnightblue" stroke="midnightblue" points="2347.32,-402.94 2357.18,-399.05 2347.05,-395.95 2347.32,-402.94"/>
</g>
<!-- Node38&#45;&gt;Node30 -->
<g id="edge89" class="edge">
<title>Node38&#45;&gt;Node30</title>
<path fill="none" stroke="midnightblue" d="M910.81,-447.13C912.84,-430.77 919.68,-396.04 942,-380 953.75,-371.55 1343.45,-346.67 1528.39,-335.29"/>
<polygon fill="midnightblue" stroke="midnightblue" points="1528.62,-338.78 1538.39,-334.68 1528.19,-331.8 1528.62,-338.78"/>
</g>
<!-- Node39&#45;&gt;Node2 -->
<g id="edge95" class="edge">
<title>Node39&#45;&gt;Node2</title>
<path fill="none" stroke="midnightblue" d="M2391.26,-447.46C2330.86,-439.51 2240.73,-426.57 2163,-411 2107.3,-399.84 2094.33,-392.88 2039,-380 1986.96,-367.88 1928.17,-355.2 1882.54,-345.57"/>
<polygon fill="midnightblue" stroke="midnightblue" points="1883.22,-342.14 1872.71,-343.51 1881.78,-348.99 1883.22,-342.14"/>
</g>
<!-- Node39&#45;&gt;Node5 -->
<g id="edge98" class="edge">
<title>Node39&#45;&gt;Node5</title>
<path fill="none" stroke="midnightblue" d="M2477.13,-447.47C2520.1,-424.73 2629,-358.19 2629,-268 2629,-268 2629,-268 2629,-137.5 2629,-37.89 2273.94,-16.63 2141.78,-12.16"/>
<polygon fill="midnightblue" stroke="midnightblue" points="2141.65,-8.66 2131.55,-11.84 2141.43,-15.65 2141.65,-8.66"/>
</g>
<!-- Node39&#45;&gt;Node12 -->
<g id="edge96" class="edge">
<title>Node39&#45;&gt;Node12</title>
<path fill="none" stroke="midnightblue" d="M2421.12,-447.49C2305.89,-422.23 1973.51,-349.12 1963,-344 1943.4,-334.46 1944.42,-322.9 1925,-313 1892.46,-296.41 1853.21,-285.5 1820.63,-278.58"/>
<polygon fill="midnightblue" stroke="midnightblue" points="1821.25,-275.13 1810.75,-276.56 1819.84,-281.99 1821.25,-275.13"/>
</g>
<!-- Node39&#45;&gt;Node14 -->
<g id="edge93" class="edge">
<title>Node39&#45;&gt;Node14</title>
<path fill="none" stroke="midnightblue" d="M2469.56,-447.45C2478.09,-439.12 2489.99,-425.6 2495,-411 2509.14,-369.8 2508.53,-354.4 2495,-313 2473.05,-245.87 2414.17,-183.19 2384.94,-155.06"/>
<polygon fill="midnightblue" stroke="midnightblue" points="2387.21,-152.39 2377.54,-148.06 2382.4,-157.48 2387.21,-152.39"/>
</g>
<!-- Node39&#45;&gt;Node28 -->
<g id="edge94" class="edge">
<title>Node39&#45;&gt;Node28</title>
<path fill="none" stroke="midnightblue" d="M2454.56,-447.48C2449.84,-440.09 2442.81,-429.08 2436.48,-419.17"/>
<polygon fill="midnightblue" stroke="midnightblue" points="2439.29,-417.07 2430.96,-410.52 2433.39,-420.83 2439.29,-417.07"/>
</g>
<!-- Node39&#45;&gt;Node30 -->
<g id="edge97" class="edge">
<title>Node39&#45;&gt;Node30</title>
<path fill="none" stroke="midnightblue" d="M2388.73,-451.85C2304.6,-446.15 2160.72,-433.9 2039,-411 1987.4,-401.29 1976.29,-391.25 1925,-380 1881.19,-370.39 1763.7,-351.41 1689.13,-339.65"/>
<polygon fill="midnightblue" stroke="midnightblue" points="1689.33,-336.14 1678.9,-338.04 1688.24,-343.05 1689.33,-336.14"/>
</g>
<!-- Node39&#45;&gt;Node34 -->
<g id="edge99" class="edge">
<title>Node39&#45;&gt;Node34</title>
<path fill="none" stroke="midnightblue" d="M2531.13,-451.28C2576.11,-445.99 2634.34,-434.77 2681,-411 2712.43,-394.99 2741.01,-364.79 2756.89,-345.99"/>
<polygon fill="midnightblue" stroke="midnightblue" points="2759.8,-347.97 2763.45,-338.02 2754.4,-343.52 2759.8,-347.97"/>
</g>
<!-- Node40&#45;&gt;Node2 -->
<g id="edge103" class="edge">
<title>Node40&#45;&gt;Node2</title>
<path fill="none" stroke="midnightblue" d="M2753.82,-453.87C2639.97,-449.67 2420.46,-438.23 2348,-411 2325.95,-402.71 2327.03,-388.36 2305,-380 2295.48,-376.39 2033.9,-351.18 1892.98,-337.8"/>
<polygon fill="midnightblue" stroke="midnightblue" points="1892.92,-334.28 1882.64,-336.82 1892.26,-341.25 1892.92,-334.28"/>
</g>
<!-- Node40&#45;&gt;Node5 -->
<g id="edge107" class="edge">
<title>Node40&#45;&gt;Node5</title>
<path fill="none" stroke="midnightblue" d="M2876.9,-447.46C2916.43,-439.87 2965.68,-427.44 2978,-411 2986.26,-399.98 2983.75,-392.52 2978,-380 2937.88,-292.64 2929.54,-199.64 2563,-56 2487.28,-26.33 2246.55,-15.62 2142.12,-12.3"/>
<polygon fill="midnightblue" stroke="midnightblue" points="2141.96,-8.79 2131.86,-11.99 2141.74,-15.79 2141.96,-8.79"/>
</g>
<!-- Node40&#45;&gt;Node7 -->
<g id="edge106" class="edge">
<title>Node40&#45;&gt;Node7</title>
<path fill="none" stroke="midnightblue" d="M2894.19,-448.37C2950.7,-441.08 3024.6,-428.58 3049,-411 3155.77,-334.08 3162.2,-281.17 3196,-154 3199.54,-140.68 3204.95,-133.47 3196,-123 3165.32,-87.1 3037.2,-76.57 2952.68,-73.57"/>
<polygon fill="midnightblue" stroke="midnightblue" points="2952.7,-70.07 2942.59,-73.24 2952.47,-77.07 2952.7,-70.07"/>
</g>
<!-- Node40&#45;&gt;Node12 -->
<g id="edge104" class="edge">
<title>Node40&#45;&gt;Node12</title>
<path fill="none" stroke="midnightblue" d="M2825.79,-447.2C2830.39,-421.81 2839.61,-348.01 2800,-313 2764.96,-282.03 2109.53,-271.76 1854.94,-268.93"/>
<polygon fill="midnightblue" stroke="midnightblue" points="1854.62,-265.43 1844.58,-268.82 1854.55,-272.43 1854.62,-265.43"/>
</g>
<!-- Node40&#45;&gt;Node14 -->
<g id="edge101" class="edge">
<title>Node40&#45;&gt;Node14</title>
<path fill="none" stroke="midnightblue" d="M2828.88,-447.37C2833.56,-438.55 2840.31,-424.3 2843,-411 2851.79,-367.6 2855.7,-344.92 2825,-313 2801.12,-288.18 2559.34,-237.29 2529,-221 2509.8,-210.69 2509.73,-201.15 2491,-190 2463.68,-173.74 2430.16,-160.36 2405.01,-151.47"/>
<polygon fill="midnightblue" stroke="midnightblue" points="2406.07,-148.13 2395.48,-148.17 2403.78,-154.74 2406.07,-148.13"/>
</g>
<!-- Node40&#45;&gt;Node28 -->
<g id="edge102" class="edge">
<title>Node40&#45;&gt;Node28</title>
<path fill="none" stroke="midnightblue" d="M2766.4,-447.48C2695.55,-436.99 2575.1,-419.16 2497.06,-407.61"/>
<polygon fill="midnightblue" stroke="midnightblue" points="2497.22,-404.1 2486.81,-406.09 2496.19,-411.02 2497.22,-404.1"/>
</g>
<!-- Node40&#45;&gt;Node30 -->
<g id="edge105" class="edge">
<title>Node40&#45;&gt;Node30</title>
<path fill="none" stroke="midnightblue" d="M2753.85,-450.53C2654.06,-442.6 2465.41,-427.11 2305,-411 2043.73,-384.77 1978.25,-378.91 1718,-344 1708.06,-342.67 1697.54,-341.15 1687.28,-339.61"/>
<polygon fill="midnightblue" stroke="midnightblue" points="1687.55,-336.11 1677.14,-338.07 1686.5,-343.03 1687.55,-336.11"/>
</g>
<!-- Node40&#45;&gt;Node34 -->
<g id="edge108" class="edge">
<title>Node40&#45;&gt;Node34</title>
<path fill="none" stroke="midnightblue" d="M2820.29,-447.31C2811.54,-426.81 2789.48,-375.15 2777.7,-347.54"/>
<polygon fill="midnightblue" stroke="midnightblue" points="2780.88,-346.08 2773.74,-338.26 2774.44,-348.83 2780.88,-346.08"/>
</g>
<!-- Node41&#45;&gt;Node2 -->
<g id="edge118" class="edge">
<title>Node41&#45;&gt;Node2</title>
<path fill="none" stroke="midnightblue" d="M1733.35,-454.11C1556.3,-449.11 1110.84,-434.25 1089,-411 994.84,-310.73 1553.45,-357.47 1717.07,-343.87"/>
<polygon fill="midnightblue" stroke="midnightblue" points="1717.65,-347.33 1727.27,-342.88 1716.98,-340.36 1717.65,-347.33"/>
</g>
<!-- Node41&#45;&gt;Node5 -->
<g id="edge122" class="edge">
<title>Node41&#45;&gt;Node5</title>
<path fill="none" stroke="midnightblue" d="M1821.79,-447.46C1836.19,-439.52 1856.79,-426.57 1871,-411 1985.89,-285.06 2064.18,-89.11 2086.48,-29.09"/>
<polygon fill="midnightblue" stroke="midnightblue" points="2089.84,-30.1 2089.99,-19.51 2083.27,-27.69 2089.84,-30.1"/>
</g>
<!-- Node41&#45;&gt;Node7 -->
<g id="edge121" class="edge">
<title>Node41&#45;&gt;Node7</title>
<path fill="none" stroke="midnightblue" d="M1855.96,-447.49C1888.05,-440.71 1929.59,-429.25 1963,-411 2113.81,-328.61 2068.52,-202.27 2221,-123 2271.19,-96.91 2636.97,-80.93 2799.05,-75.06"/>
<polygon fill="midnightblue" stroke="midnightblue" points="2799.56,-78.54 2809.43,-74.68 2799.31,-71.55 2799.56,-78.54"/>
</g>
<!-- Node41&#45;&gt;Node12 -->
<g id="edge119" class="edge">
<title>Node41&#45;&gt;Node12</title>
<path fill="none" stroke="midnightblue" d="M1733.27,-454.2C1553.66,-449.35 1097.33,-434.75 1075,-411 948.55,-276.52 640,-453.93 1326,-344 1460.47,-322.45 1618,-293.62 1699.63,-278.41"/>
<polygon fill="midnightblue" stroke="midnightblue" points="1700.49,-281.81 1709.68,-276.53 1699.21,-274.93 1700.49,-281.81"/>
</g>
<!-- Node41&#45;&gt;Node14 -->
<g id="edge110" class="edge">
<title>Node41&#45;&gt;Node14</title>
<path fill="none" stroke="midnightblue" d="M1876.61,-455.37C1933.56,-452.3 2013.87,-442.07 2077,-411 2207.17,-346.94 2319.57,-205.32 2355.78,-156.46"/>
<polygon fill="midnightblue" stroke="midnightblue" points="2358.74,-158.36 2361.82,-148.22 2353.09,-154.22 2358.74,-158.36"/>
</g>
<!-- Node41&#45;&gt;Node28 -->
<g id="edge111" class="edge">
<title>Node41&#45;&gt;Node28</title>
<path fill="none" stroke="midnightblue" d="M1876.68,-449.09C1994.4,-437.74 2227.51,-415.26 2347.22,-403.71"/>
<polygon fill="midnightblue" stroke="midnightblue" points="2347.77,-407.17 2357.39,-402.73 2347.1,-400.21 2347.77,-407.17"/>
</g>
<!-- Node41&#45;&gt;Node30 -->
<g id="edge120" class="edge">
<title>Node41&#45;&gt;Node30</title>
<path fill="none" stroke="midnightblue" d="M1817.77,-447.4C1837.77,-432.88 1872.4,-402.88 1854,-380 1843.6,-367.07 1753.93,-350.24 1689.68,-339.65"/>
<polygon fill="midnightblue" stroke="midnightblue" points="1690.04,-336.16 1679.61,-338 1688.91,-343.07 1690.04,-336.16"/>
</g>
<!-- Node41&#45;&gt;Node34 -->
<g id="edge123" class="edge">
<title>Node41&#45;&gt;Node34</title>
<path fill="none" stroke="midnightblue" d="M1876.59,-456.19C2002.55,-455.45 2271.63,-449.04 2495,-411 2604.17,-392.41 2630.32,-380.15 2735,-344 2736.91,-343.34 2738.87,-342.63 2740.83,-341.89"/>
<polygon fill="midnightblue" stroke="midnightblue" points="2742.53,-344.98 2750.54,-338.05 2739.95,-338.47 2742.53,-344.98"/>
</g>
<!-- Node42 -->
<g id="node36" class="node">
<title>Node42</title>
<g id="a_node36"><a xlink:title=" ">
<polygon fill="none" stroke="#bfbfbf" points="1631,-386 1631,-405 1737,-405 1737,-386 1631,-386"/>
<text text-anchor="middle" x="1684" y="-393" font-family="Helvetica,sans-Serif" font-size="10.00">thrust/functional.h</text>
</a>
</g>
</g>
<!-- Node41&#45;&gt;Node42 -->
<g id="edge112" class="edge">
<title>Node41&#45;&gt;Node42</title>
<path fill="none" stroke="midnightblue" d="M1787.66,-447.48C1767.45,-437.53 1733.81,-420.99 1710.36,-409.46"/>
<polygon fill="midnightblue" stroke="midnightblue" points="1711.82,-406.28 1701.3,-405.01 1708.73,-412.56 1711.82,-406.28"/>
</g>
<!-- Node43 -->
<g id="node37" class="node">
<title>Node43</title>
<g id="a_node37"><a xlink:title=" ">
<polygon fill="none" stroke="#bfbfbf" points="1755,-386 1755,-405 1845,-405 1845,-386 1755,-386"/>
<text text-anchor="middle" x="1800" y="-393" font-family="Helvetica,sans-Serif" font-size="10.00">thrust/reduce.h</text>
</a>
</g>
</g>
<!-- Node41&#45;&gt;Node43 -->
<g id="edge113" class="edge">
<title>Node41&#45;&gt;Node43</title>
<path fill="none" stroke="midnightblue" d="M1804.28,-447.48C1803.58,-439.08 1802.48,-425.98 1801.57,-415.16"/>
<polygon fill="midnightblue" stroke="midnightblue" points="1805.04,-414.68 1800.72,-405.01 1798.06,-415.27 1805.04,-414.68"/>
</g>
<!-- Node44 -->
<g id="node38" class="node">
<title>Node44</title>
<g id="a_node38"><a xlink:title=" ">
<polygon fill="none" stroke="#bfbfbf" points="1098.5,-386 1098.5,-405 1223.5,-405 1223.5,-386 1098.5,-386"/>
<text text-anchor="middle" x="1161" y="-393" font-family="Helvetica,sans-Serif" font-size="10.00">thrust/device_vector.h</text>
</a>
</g>
</g>
<!-- Node41&#45;&gt;Node44 -->
<g id="edge114" class="edge">
<title>Node41&#45;&gt;Node44</title>
<path fill="none" stroke="midnightblue" d="M1733.23,-453.2C1624.41,-448.32 1411.34,-436.26 1232,-411 1224.29,-409.91 1216.16,-408.51 1208.26,-407"/>
<polygon fill="midnightblue" stroke="midnightblue" points="1208.93,-403.56 1198.43,-405.04 1207.56,-410.42 1208.93,-403.56"/>
</g>
<!-- Node45 -->
<g id="node39" class="node">
<title>Node45</title>
<g id="a_node39"><a xlink:title=" ">
<polygon fill="none" stroke="#bfbfbf" points="1241.5,-386 1241.5,-405 1320.5,-405 1320.5,-386 1241.5,-386"/>
<text text-anchor="middle" x="1281" y="-393" font-family="Helvetica,sans-Serif" font-size="10.00">thrust/copy.h</text>
</a>
</g>
</g>
<!-- Node41&#45;&gt;Node45 -->
<g id="edge115" class="edge">
<title>Node41&#45;&gt;Node45</title>
<path fill="none" stroke="midnightblue" d="M1733.4,-453.67C1639.7,-449.61 1470.73,-438.82 1329,-411 1324.77,-410.17 1320.38,-409.12 1316.06,-407.96"/>
<polygon fill="midnightblue" stroke="midnightblue" points="1316.75,-404.52 1306.17,-405.13 1314.82,-411.25 1316.75,-404.52"/>
</g>
<!-- Node46 -->
<g id="node40" class="node">
<title>Node46</title>
<g id="a_node40"><a xlink:title=" ">
<polygon fill="none" stroke="#bfbfbf" points="1338.5,-386 1338.5,-405 1451.5,-405 1451.5,-386 1338.5,-386"/>
<text text-anchor="middle" x="1395" y="-393" font-family="Helvetica,sans-Serif" font-size="10.00">thrust/host_vector.h</text>
</a>
</g>
</g>
<!-- Node41&#45;&gt;Node46 -->
<g id="edge116" class="edge">
<title>Node41&#45;&gt;Node46</title>
<path fill="none" stroke="midnightblue" d="M1733.35,-448.55C1663.38,-440.83 1553.99,-427.58 1460,-411 1453.72,-409.89 1447.14,-408.59 1440.66,-407.23"/>
<polygon fill="midnightblue" stroke="midnightblue" points="1441.16,-403.75 1430.65,-405.06 1439.68,-410.6 1441.16,-403.75"/>
</g>
<!-- Node47 -->
<g id="node41" class="node">
<title>Node47</title>
<g id="a_node41"><a xlink:title=" ">
<polygon fill="none" stroke="#bfbfbf" points="1469.5,-380.5 1469.5,-410.5 1612.5,-410.5 1612.5,-380.5 1469.5,-380.5"/>
<text text-anchor="start" x="1477.5" y="-398.5" font-family="Helvetica,sans-Serif" font-size="10.00">polyfem/assembler/CUDA</text>
<text text-anchor="middle" x="1541" y="-387.5" font-family="Helvetica,sans-Serif" font-size="10.00">_utilities.cuh</text>
</a>
</g>
</g>
<!-- Node41&#45;&gt;Node47 -->
<g id="edge117" class="edge">
<title>Node41&#45;&gt;Node47</title>
<path fill="none" stroke="midnightblue" d="M1767.18,-447.48C1727.08,-438.44 1662.78,-423.95 1612.98,-412.72"/>
<polygon fill="midnightblue" stroke="midnightblue" points="1613.74,-409.31 1603.22,-410.52 1612.21,-416.14 1613.74,-409.31"/>
</g>
<!-- Node48&#45;&gt;Node2 -->
<g id="edge129" class="edge">
<title>Node48&#45;&gt;Node2</title>
<path fill="none" stroke="midnightblue" d="M2211.22,-503.46C2177.13,-495.83 2128.06,-483.34 2087,-467 2011.07,-436.78 1998.75,-415.22 1925,-380 1900.64,-368.36 1872.89,-356.59 1850.22,-347.35"/>
<polygon fill="midnightblue" stroke="midnightblue" points="1851.42,-344.06 1840.83,-343.55 1848.79,-350.54 1851.42,-344.06"/>
</g>
<!-- Node48&#45;&gt;Node5 -->
<g id="edge133" class="edge">
<title>Node48&#45;&gt;Node5</title>
<path fill="none" stroke="midnightblue" d="M2249.94,-503.38C2234.42,-459.48 2163.05,-256.09 2113,-87 2107.27,-67.63 2101.48,-45.24 2097.61,-29.81"/>
<polygon fill="midnightblue" stroke="midnightblue" points="2100.97,-28.81 2095.17,-19.94 2094.17,-30.49 2100.97,-28.81"/>
</g>
<!-- Node48&#45;&gt;Node7 -->
<g id="edge132" class="edge">
<title>Node48&#45;&gt;Node7</title>
<path fill="none" stroke="midnightblue" d="M2299,-509.73C2373.88,-505.32 2518.1,-493.56 2561,-467 2719.29,-369.01 2667,-253.27 2800,-123 2814.9,-108.4 2834.58,-95.46 2850.18,-86.34"/>
<polygon fill="midnightblue" stroke="midnightblue" points="2852.32,-89.15 2859.29,-81.17 2848.86,-83.06 2852.32,-89.15"/>
</g>
<!-- Node48&#45;&gt;Node12 -->
<g id="edge130" class="edge">
<title>Node48&#45;&gt;Node12</title>
<path fill="none" stroke="midnightblue" d="M2231.57,-503.39C2177.56,-481.2 2032.52,-418.56 1925,-344 1908.2,-332.35 1908.65,-323.33 1891,-313 1864.35,-297.41 1831.57,-286.36 1804.87,-279.11"/>
<polygon fill="midnightblue" stroke="midnightblue" points="1805.52,-275.66 1794.95,-276.51 1803.74,-282.43 1805.52,-275.66"/>
</g>
<!-- Node48&#45;&gt;Node14 -->
<g id="edge125" class="edge">
<title>Node48&#45;&gt;Node14</title>
<path fill="none" stroke="midnightblue" d="M2299.1,-511.74C2372.19,-510.23 2509.55,-502.6 2540,-467 2624.51,-368.21 2537.75,-282.11 2446,-190 2430.96,-174.9 2410.68,-161.94 2394.57,-152.93"/>
<polygon fill="midnightblue" stroke="midnightblue" points="2396.09,-149.78 2385.63,-148.1 2392.76,-155.93 2396.09,-149.78"/>
</g>
<!-- Node48&#45;&gt;Node28 -->
<g id="edge126" class="edge">
<title>Node48&#45;&gt;Node28</title>
<path fill="none" stroke="midnightblue" d="M2259.43,-503.45C2269.88,-490.02 2291.73,-463.79 2315,-447 2333.11,-433.93 2355.13,-422.86 2374.48,-414.44"/>
<polygon fill="midnightblue" stroke="midnightblue" points="2375.89,-417.64 2383.74,-410.52 2373.16,-411.2 2375.89,-417.64"/>
</g>
<!-- Node48&#45;&gt;Node30 -->
<g id="edge131" class="edge">
<title>Node48&#45;&gt;Node30</title>
<path fill="none" stroke="midnightblue" d="M2206.84,-505.59C2163.09,-498.75 2095.95,-486.21 2040,-467 1986.23,-448.54 1975.24,-437.61 1925,-411 1900.55,-398.05 1896.89,-389.79 1871,-380 1837.74,-367.43 1747.23,-350.48 1685.52,-339.77"/>
<polygon fill="midnightblue" stroke="midnightblue" points="1685.94,-336.29 1675.49,-338.04 1684.75,-343.19 1685.94,-336.29"/>
</g>
<!-- Node48&#45;&gt;Node34 -->
<g id="edge134" class="edge">
<title>Node48&#45;&gt;Node34</title>
<path fill="none" stroke="midnightblue" d="M2299.06,-509.73C2388.32,-504.83 2581.48,-491.67 2643,-467 2681.28,-451.65 2688.89,-441.18 2717,-411 2735.36,-391.28 2751.44,-364.45 2760.93,-347.06"/>
<polygon fill="midnightblue" stroke="midnightblue" points="2764.13,-348.5 2765.73,-338.03 2757.95,-345.22 2764.13,-348.5"/>
</g>
<!-- Node48&#45;&gt;Node38 -->
<g id="edge127" class="edge">
<title>Node48&#45;&gt;Node38</title>
<path fill="none" stroke="midnightblue" d="M2206.77,-510.14C2006.23,-502.08 1211.15,-470.11 975.9,-460.65"/>
<polygon fill="midnightblue" stroke="midnightblue" points="975.92,-457.15 965.78,-460.24 975.63,-464.14 975.92,-457.15"/>
</g>
<!-- Node48&#45;&gt;Node41 -->
<g id="edge128" class="edge">
<title>Node48&#45;&gt;Node41</title>
<path fill="none" stroke="midnightblue" d="M2206.74,-506.42C2131.03,-497.3 1979.71,-479.06 1885.93,-467.75"/>
<polygon fill="midnightblue" stroke="midnightblue" points="1886.26,-464.27 1875.91,-466.55 1885.42,-471.22 1886.26,-464.27"/>
</g>
<!-- Node49&#45;&gt;Node2 -->
<g id="edge137" class="edge">
<title>Node49&#45;&gt;Node2</title>
<path fill="none" stroke="midnightblue" d="M456.61,-386C463.64,-383.61 471.55,-381.31 479,-380 747.13,-332.95 1427.65,-369.82 1717.15,-343.94"/>
<polygon fill="midnightblue" stroke="midnightblue" points="1717.65,-347.41 1727.28,-342.99 1717,-340.44 1717.65,-347.41"/>
</g>
<!-- Node49&#45;&gt;Node5 -->
<g id="edge140" class="edge">
<title>Node49&#45;&gt;Node5</title>
<path fill="none" stroke="midnightblue" d="M423.35,-385.82C368.92,-344.34 146.79,-163.82 252,-56 284.22,-22.98 1755.96,-12.92 2044.29,-11.26"/>
<polygon fill="midnightblue" stroke="midnightblue" points="2044.46,-14.76 2054.44,-11.2 2044.42,-7.76 2044.46,-14.76"/>
</g>
<!-- Node49&#45;&gt;Node9 -->
<g id="edge141" class="edge">
<title>Node49&#45;&gt;Node9</title>
<path fill="none" stroke="midnightblue" d="M436.95,-385.96C441.42,-365.65 452,-312.76 452,-268 452,-268 452,-268 452,-204.5 452,-163.74 460.98,-116.62 466.6,-91.16"/>
<polygon fill="midnightblue" stroke="midnightblue" points="470.08,-91.61 468.89,-81.09 463.26,-90.06 470.08,-91.61"/>
</g>
<!-- Node49&#45;&gt;Node12 -->
<g id="edge138" class="edge">
<title>Node49&#45;&gt;Node12</title>
<path fill="none" stroke="midnightblue" d="M457.57,-385.99C464.37,-383.72 471.92,-381.49 479,-380 703.55,-332.79 1395.26,-288.91 1655.03,-273.67"/>
<polygon fill="midnightblue" stroke="midnightblue" points="1655.43,-277.16 1665.21,-273.08 1655.02,-270.17 1655.43,-277.16"/>
</g>
<!-- Node49&#45;&gt;Node14 -->
<g id="edge136" class="edge">
<title>Node49&#45;&gt;Node14</title>
<path fill="none" stroke="midnightblue" d="M459.53,-385.9C465.83,-383.84 472.63,-381.73 479,-380 615.88,-342.86 651.28,-337.38 791,-313 1194.35,-242.63 1296.81,-232.88 1704,-190 1918.44,-167.42 2172.85,-150.94 2295.18,-143.65"/>
<polygon fill="midnightblue" stroke="midnightblue" points="2295.4,-147.14 2305.18,-143.06 2294.99,-140.16 2295.4,-147.14"/>
</g>
<!-- Node49&#45;&gt;Node30 -->
<g id="edge139" class="edge">
<title>Node49&#45;&gt;Node30</title>
<path fill="none" stroke="midnightblue" d="M457.08,-385.91C463.99,-383.58 471.72,-381.33 479,-380 530.18,-370.62 1262.23,-342.85 1528.27,-333.01"/>
<polygon fill="midnightblue" stroke="midnightblue" points="1528.43,-336.5 1538.3,-332.64 1528.17,-329.51 1528.43,-336.5"/>
</g>
<!-- Node50&#45;&gt;Node2 -->
<g id="edge144" class="edge">
<title>Node50&#45;&gt;Node2</title>
<path fill="none" stroke="midnightblue" d="M568.99,-385.98C578.5,-383.62 589.12,-381.34 599,-380 1088.72,-313.66 1221.02,-391.93 1716.99,-343.99"/>
<polygon fill="midnightblue" stroke="midnightblue" points="1717.67,-347.44 1727.28,-342.98 1716.99,-340.47 1717.67,-347.44"/>
</g>
<!-- Node50&#45;&gt;Node5 -->
<g id="edge147" class="edge">
<title>Node50&#45;&gt;Node5</title>
<path fill="none" stroke="midnightblue" d="M570.23,-385.93C617.82,-370.76 703,-334.34 703,-268 703,-268 703,-268 703,-137.5 703,47.42 927.45,-78.41 1111,-56 1467.16,-12.52 1900.63,-10.11 2044.23,-10.63"/>
<polygon fill="midnightblue" stroke="midnightblue" points="2044.44,-14.13 2054.45,-10.68 2044.47,-7.13 2044.44,-14.13"/>
</g>
<!-- Node50&#45;&gt;Node9 -->
<g id="edge148" class="edge">
<title>Node50&#45;&gt;Node9</title>
<path fill="none" stroke="midnightblue" d="M532.99,-385.75C519.91,-365.82 490,-315.1 490,-268 490,-268 490,-268 490,-204.5 490,-163.74 481.02,-116.62 475.4,-91.16"/>
<polygon fill="midnightblue" stroke="midnightblue" points="478.74,-90.06 473.11,-81.09 471.92,-91.61 478.74,-90.06"/>
</g>
<!-- Node50&#45;&gt;Node12 -->
<g id="edge145" class="edge">
<title>Node50&#45;&gt;Node12</title>
<path fill="none" stroke="midnightblue" d="M569.94,-385.93C579.22,-383.66 589.46,-381.44 599,-380 852.19,-341.78 924.39,-401.11 1174,-344 1209.56,-335.86 1214.55,-321.6 1250,-313 1387.83,-279.55 1552.22,-270.38 1655.14,-268.18"/>
<polygon fill="midnightblue" stroke="midnightblue" points="1655.28,-271.68 1665.21,-267.98 1655.14,-264.68 1655.28,-271.68"/>
</g>
<!-- Node50&#45;&gt;Node14 -->
<g id="edge143" class="edge">
<title>Node50&#45;&gt;Node14</title>
<path fill="none" stroke="midnightblue" d="M571.89,-385.97C580.66,-383.85 590.16,-381.71 599,-380 972.94,-307.86 1068.6,-299.99 1447,-257 1543.82,-246 1794.96,-260.57 1884,-221 1902.39,-212.83 1898.73,-198.44 1917,-190 1982.54,-159.72 2185.4,-146.91 2295.36,-142.08"/>
<polygon fill="midnightblue" stroke="midnightblue" points="2295.54,-145.57 2305.38,-141.65 2295.24,-138.58 2295.54,-145.57"/>
</g>
<!-- Node50&#45;&gt;Node30 -->
<g id="edge146" class="edge">
<title>Node50&#45;&gt;Node30</title>
<path fill="none" stroke="midnightblue" d="M569.62,-385.93C578.98,-383.63 589.35,-381.39 599,-380 689.25,-366.99 1290.57,-342.5 1527.91,-333.2"/>
<polygon fill="midnightblue" stroke="midnightblue" points="1528.4,-336.69 1538.25,-332.8 1528.12,-329.69 1528.4,-336.69"/>
</g>
<!-- Node51&#45;&gt;Node2 -->
<g id="edge152" class="edge">
<title>Node51&#45;&gt;Node2</title>
<path fill="none" stroke="midnightblue" d="M513.08,-451.55C593.57,-445.84 724.8,-433.83 836,-411 882.83,-401.39 891.88,-388.05 939,-380 1277.39,-322.17 1371.55,-379.44 1717.24,-343.97"/>
<polygon fill="midnightblue" stroke="midnightblue" points="1717.69,-347.44 1727.27,-342.92 1716.96,-340.48 1717.69,-347.44"/>
</g>
<!-- Node51&#45;&gt;Node5 -->
<g id="edge155" class="edge">
<title>Node51&#45;&gt;Node5</title>
<path fill="none" stroke="midnightblue" d="M362.86,-451.84C306.79,-446.8 229.12,-435.64 165,-411 102.4,-386.94 38,-396.57 38,-329.5 38,-329.5 38,-329.5 38,-137.5 38,-56.11 122.99,-75.54 202,-56 385.33,-10.65 1766.13,-10.47 2044.27,-10.9"/>
<polygon fill="midnightblue" stroke="midnightblue" points="2044.44,-14.4 2054.45,-10.91 2044.45,-7.4 2044.44,-14.4"/>
</g>
<!-- Node51&#45;&gt;Node9 -->
<g id="edge156" class="edge">
<title>Node51&#45;&gt;Node9</title>
<path fill="none" stroke="midnightblue" d="M362.69,-452.8C289.78,-445.07 183.76,-420.44 138,-344 118.14,-310.82 128.14,-294.39 138,-257 155.47,-190.8 158.45,-163.03 214,-123 247.72,-98.7 364.35,-83.35 428.27,-76.56"/>
<polygon fill="midnightblue" stroke="midnightblue" points="428.85,-80.02 438.44,-75.51 428.13,-73.06 428.85,-80.02"/>
</g>
<!-- Node51&#45;&gt;Node12 -->
<g id="edge153" class="edge">
<title>Node51&#45;&gt;Node12</title>
<path fill="none" stroke="midnightblue" d="M378.55,-447.48C323.19,-437.12 253.57,-416.34 285,-380 374.47,-276.56 1339.28,-267.77 1655.37,-267.69"/>
<polygon fill="midnightblue" stroke="midnightblue" points="1655.44,-271.19 1665.44,-267.69 1655.44,-264.19 1655.44,-271.19"/>
</g>
<!-- Node51&#45;&gt;Node14 -->
<g id="edge150" class="edge">
<title>Node51&#45;&gt;Node14</title>
<path fill="none" stroke="midnightblue" d="M364.65,-447.48C308.61,-437.83 245.44,-418.21 274,-380 336.98,-295.75 398.8,-337.92 501,-313 780.29,-244.9 850.47,-223.31 1136,-190 1193.67,-183.27 2038.73,-151.67 2294.92,-142.19"/>
<polygon fill="midnightblue" stroke="midnightblue" points="2295.37,-145.68 2305.23,-141.81 2295.11,-138.68 2295.37,-145.68"/>
</g>
<!-- Node51&#45;&gt;Node28 -->
<g id="edge151" class="edge">
<title>Node51&#45;&gt;Node28</title>
<path fill="none" stroke="midnightblue" d="M513.05,-453.75C826.99,-444.33 2033.07,-408.16 2346.97,-398.75"/>
<polygon fill="midnightblue" stroke="midnightblue" points="2347.42,-402.24 2357.31,-398.44 2347.21,-395.24 2347.42,-402.24"/>
</g>
<!-- Node51&#45;&gt;Node30 -->
<g id="edge154" class="edge">
<title>Node51&#45;&gt;Node30</title>
<path fill="none" stroke="midnightblue" d="M490.3,-447.44C605.67,-428.6 875.12,-384.81 917,-380 1134.96,-354.97 1392.24,-340.31 1528.36,-333.72"/>
<polygon fill="midnightblue" stroke="midnightblue" points="1528.53,-337.21 1538.35,-333.24 1528.19,-330.22 1528.53,-337.21"/>
</g>
<!-- Node52&#45;&gt;Node5 -->
<g id="edge180" class="edge">
<title>Node52&#45;&gt;Node5</title>
<path fill="none" stroke="midnightblue" d="M3623.31,-757.84C3847.32,-752.94 4481,-705.82 4481,-329.5 4481,-329.5 4481,-329.5 4481,-137.5 4481,-91.44 4458.22,-76.54 4417,-56 4364.27,-29.73 2472.86,-13.93 2142.1,-11.37"/>
<polygon fill="midnightblue" stroke="midnightblue" points="2141.91,-7.87 2131.88,-11.29 2141.86,-14.87 2141.91,-7.87"/>
</g>
<!-- Node52&#45;&gt;Node14 -->
<g id="edge160" class="edge">
<title>Node52&#45;&gt;Node14</title>
<path fill="none" stroke="midnightblue" d="M3468.78,-757.67C3088.88,-755.91 1427.35,-746.36 1199,-713 982.74,-681.41 369.61,-601.79 263,-411 175.84,-255.02 381.64,-252.43 906,-190 1371.43,-134.59 1491.57,-170.32 1960,-154 2077.35,-149.91 2213.68,-145.04 2295.28,-142.11"/>
<polygon fill="midnightblue" stroke="midnightblue" points="2295.58,-145.61 2305.44,-141.75 2295.32,-138.61 2295.58,-145.61"/>
</g>
<!-- Node52&#45;&gt;Node29 -->
<g id="edge179" class="edge">
<title>Node52&#45;&gt;Node29</title>
<path fill="none" stroke="midnightblue" d="M3468.84,-758.36C3050.18,-759.81 1070,-760.16 1070,-637 1070,-637 1070,-637 1070,-456 1070,-421.18 1061.97,-401.94 1089,-380 1101.2,-370.09 2054.68,-340.49 2338.9,-331.88"/>
<polygon fill="midnightblue" stroke="midnightblue" points="2339.24,-335.37 2349.13,-331.57 2339.03,-328.37 2339.24,-335.37"/>
</g>
<!-- Node53 -->
<g id="node47" class="node">
<title>Node53</title>
<g id="a_node47"><a xlink:href="_generic_problem_8hpp.html" target="_top" xlink:title=" ">
<polygon fill="none" stroke="black" points="3618,-682.5 3618,-712.5 3770,-712.5 3770,-682.5 3618,-682.5"/>
<text text-anchor="start" x="3626" y="-700.5" font-family="Helvetica,sans-Serif" font-size="10.00">polyfem/assembler/Generic</text>
<text text-anchor="middle" x="3694" y="-689.5" font-family="Helvetica,sans-Serif" font-size="10.00">Problem.hpp</text>
</a>
</g>
</g>
<!-- Node52&#45;&gt;Node53 -->
<g id="edge161" class="edge">
<title>Node52&#45;&gt;Node53</title>
<path fill="none" stroke="midnightblue" d="M3567.2,-749.48C3588.65,-740.85 3622.45,-727.26 3649.76,-716.29"/>
<polygon fill="midnightblue" stroke="midnightblue" points="3651.15,-719.5 3659.12,-712.52 3648.54,-713.01 3651.15,-719.5"/>
</g>
<!-- Node53&#45;&gt;Node5 -->
<g id="edge176" class="edge">
<title>Node53&#45;&gt;Node5</title>
<path fill="none" stroke="midnightblue" d="M3770.06,-692.36C3836.54,-686.93 3934.84,-674.47 4016,-646 4063.34,-629.4 4072.18,-617.7 4114,-590 4186.74,-541.83 4214.91,-536.99 4267,-467 4341.19,-367.31 4363.51,-299.63 4305,-190 4189.16,27.05 3971.3,-82.22 3596,-56 3025.08,-16.11 2329.75,-11.54 2141.78,-11.05"/>
<polygon fill="midnightblue" stroke="midnightblue" points="2141.68,-7.55 2131.67,-11.03 2141.66,-14.55 2141.68,-7.55"/>
</g>
<!-- Node53&#45;&gt;Node10 -->
<g id="edge178" class="edge">
<title>Node53&#45;&gt;Node10</title>
<path fill="none" stroke="midnightblue" d="M3712.61,-682.24C3761.58,-643.77 3895.35,-532.54 3969,-411 4038.23,-296.75 4145.02,-221.7 4055,-123 4020.27,-84.92 3654.72,-75.16 3540.74,-73.03"/>
<polygon fill="midnightblue" stroke="midnightblue" points="3540.58,-69.52 3530.52,-72.85 3540.45,-76.52 3540.58,-69.52"/>
</g>
<!-- Node53&#45;&gt;Node29 -->
<g id="edge175" class="edge">
<title>Node53&#45;&gt;Node29</title>
<path fill="none" stroke="midnightblue" d="M3670.01,-682.38C3581.64,-631.13 3264.51,-454.1 2978,-380 2889.17,-357.03 2628.86,-340.56 2496.79,-333.44"/>
<polygon fill="midnightblue" stroke="midnightblue" points="2496.9,-329.94 2486.73,-332.9 2496.53,-336.93 2496.9,-329.94"/>
</g>
<!-- Node53&#45;&gt;Node34 -->
<g id="edge177" class="edge">
<title>Node53&#45;&gt;Node34</title>
<path fill="none" stroke="midnightblue" d="M3683.91,-682.44C3644.87,-629.45 3497.17,-441.66 3322,-380 3224.78,-345.78 2903.81,-333.47 2801.58,-330.36"/>
<polygon fill="midnightblue" stroke="midnightblue" points="2801.39,-326.86 2791.29,-330.06 2801.18,-333.85 2801.39,-326.86"/>
</g>
<!-- Node53&#45;&gt;Node54 -->
<g id="edge162" class="edge">
<title>Node53&#45;&gt;Node54</title>
<path fill="none" stroke="midnightblue" d="M3758.59,-682.47C3807.61,-671.83 3874,-657.41 3918.78,-647.69"/>
<polygon fill="midnightblue" stroke="midnightblue" points="3919.8,-651.05 3928.83,-645.51 3918.31,-644.21 3919.8,-651.05"/>
</g>
<!-- Node54&#45;&gt;Node5 -->
<g id="edge173" class="edge">
<title>Node54&#45;&gt;Node5</title>
<path fill="none" stroke="midnightblue" d="M4005.33,-626.5C4035.47,-618.93 4078.53,-606.51 4114,-590 4243.53,-529.72 4279.21,-511.25 4381,-411 4413.43,-379.07 4443,-375.01 4443,-329.5 4443,-329.5 4443,-329.5 4443,-137.5 4443,-91.99 4421.58,-76.61 4381,-56 4329.32,-29.74 2468.99,-13.95 2141.87,-11.37"/>
<polygon fill="midnightblue" stroke="midnightblue" points="2141.78,-7.87 2131.76,-11.3 2141.73,-14.87 2141.78,-7.87"/>
</g>
<!-- Node54&#45;&gt;Node10 -->
<g id="edge172" class="edge">
<title>Node54&#45;&gt;Node10</title>
<path fill="none" stroke="midnightblue" d="M3990.97,-626.47C4064.76,-597.42 4291,-494.87 4291,-329.5 4291,-329.5 4291,-329.5 4291,-204.5 4291,-117.49 4197.17,-145.05 4113,-123 4003.42,-94.29 3651.7,-78.23 3540.82,-73.78"/>
<polygon fill="midnightblue" stroke="midnightblue" points="3540.69,-70.27 3530.56,-73.38 3540.41,-77.27 3540.69,-70.27"/>
</g>
<!-- Node54&#45;&gt;Node12 -->
<g id="edge164" class="edge">
<title>Node54&#45;&gt;Node12</title>
<path fill="none" stroke="midnightblue" d="M3928.8,-634.09C3855.19,-631.62 3700.01,-622.59 3659,-590 3580.56,-527.66 3657.15,-440.13 3577,-380 3507.66,-327.97 2225.59,-283.06 1854.71,-271.11"/>
<polygon fill="midnightblue" stroke="midnightblue" points="1854.64,-267.6 1844.54,-270.78 1854.42,-274.6 1854.64,-267.6"/>
</g>
<!-- Node54&#45;&gt;Node13 -->
<g id="edge170" class="edge">
<title>Node54&#45;&gt;Node13</title>
<path fill="none" stroke="midnightblue" d="M3928.83,-627.5C3848.58,-611 3673,-568.66 3673,-514 3673,-514 3673,-514 3673,-456 3673,-322.23 3219.25,-242.96 3036.72,-216.49"/>
<polygon fill="midnightblue" stroke="midnightblue" points="3037.06,-213 3026.67,-215.04 3036.07,-219.93 3037.06,-213"/>
</g>
<!-- Node54&#45;&gt;Node14 -->
<g id="edge171" class="edge">
<title>Node54&#45;&gt;Node14</title>
<path fill="none" stroke="midnightblue" d="M3962.23,-626.39C3942.52,-597.55 3874.93,-503.03 3799,-447 3741.88,-404.85 3721.6,-401.68 3654,-380 3419.95,-304.95 2662.52,-184.91 2433.92,-149.59"/>
<polygon fill="midnightblue" stroke="midnightblue" points="2434.18,-146.08 2423.76,-148.02 2433.11,-153 2434.18,-146.08"/>
</g>
<!-- Node54&#45;&gt;Node21 -->
<g id="edge174" class="edge">
<title>Node54&#45;&gt;Node21</title>
<path fill="none" stroke="midnightblue" d="M3964.44,-626.37C3956.7,-606.75 3939,-557.2 3939,-514 3939,-514 3939,-514 3939,-456 3939,-316.86 3793.87,-194.95 3739.36,-154.07"/>
<polygon fill="midnightblue" stroke="midnightblue" points="3741.27,-151.13 3731.14,-148.01 3737.11,-156.76 3741.27,-151.13"/>
</g>
<!-- Node54&#45;&gt;Node22 -->
<g id="edge163" class="edge">
<title>Node54&#45;&gt;Node22</title>
<path fill="none" stroke="midnightblue" d="M3928.79,-633.28C3745.64,-625.26 2971.92,-591.39 2702.2,-579.58"/>
<polygon fill="midnightblue" stroke="midnightblue" points="2702.19,-576.08 2692.05,-579.14 2701.89,-583.07 2702.19,-576.08"/>
</g>
<!-- Node54&#45;&gt;Node55 -->
<g id="edge165" class="edge">
<title>Node54&#45;&gt;Node55</title>
<path fill="none" stroke="midnightblue" d="M3974.1,-626.23C3998.51,-591.16 4089.33,-460.68 4122.11,-413.59"/>
<polygon fill="midnightblue" stroke="midnightblue" points="4125.17,-415.31 4128.01,-405.1 4119.43,-411.31 4125.17,-415.31"/>
</g>
<!-- Node55&#45;&gt;Node10 -->
<g id="edge167" class="edge">
<title>Node55&#45;&gt;Node10</title>
<path fill="none" stroke="midnightblue" d="M4131.48,-386C4125.7,-365.76 4112,-313.03 4112,-268 4112,-268 4112,-268 4112,-204.5 4112,-166.74 4117.23,-146.91 4088,-123 4045.53,-88.27 3658.54,-76.15 3540.82,-73.25"/>
<polygon fill="midnightblue" stroke="midnightblue" points="3540.68,-69.74 3530.6,-73 3540.51,-76.74 3540.68,-69.74"/>
</g>
<!-- Node55&#45;&gt;Node11 -->
<g id="edge168" class="edge">
<title>Node55&#45;&gt;Node11</title>
<path fill="none" stroke="midnightblue" d="M4115.01,-385.87C4031.94,-348.11 3700.18,-197.31 3601.09,-152.27"/>
<polygon fill="midnightblue" stroke="midnightblue" points="3602.53,-149.08 3591.98,-148.13 3599.64,-155.45 3602.53,-149.08"/>
</g>
<!-- Node55&#45;&gt;Node34 -->
<g id="edge166" class="edge">
<title>Node55&#45;&gt;Node34</title>
<path fill="none" stroke="midnightblue" d="M4042.92,-390.16C3770.49,-377.18 2970.37,-339.05 2801.52,-331"/>
<polygon fill="midnightblue" stroke="midnightblue" points="2801.47,-327.5 2791.32,-330.52 2801.14,-334.49 2801.47,-327.5"/>
</g>
<!-- Node56 -->
<g id="node50" class="node">
<title>Node56</title>
<g id="a_node50"><a xlink:title=" ">
<polygon fill="none" stroke="#bfbfbf" points="4140,-319 4140,-338 4192,-338 4192,-319 4140,-319"/>
<text text-anchor="middle" x="4166" y="-326" font-family="Helvetica,sans-Serif" font-size="10.00">cassert</text>
</a>
</g>
</g>
<!-- Node55&#45;&gt;Node56 -->
<g id="edge169" class="edge">
<title>Node55&#45;&gt;Node56</title>
<path fill="none" stroke="midnightblue" d="M4138.32,-385.73C4143.16,-375.89 4151.15,-359.66 4157.31,-347.16"/>
<polygon fill="midnightblue" stroke="midnightblue" points="4160.48,-348.64 4161.75,-338.13 4154.2,-345.55 4160.48,-348.64"/>
</g>
</g>
</svg>
