<?xml version="1.0" encoding="UTF-8" standalone="no"?>
<!DOCTYPE svg PUBLIC "-//W3C//DTD SVG 1.1//EN"
 "http://www.w3.org/Graphics/SVG/1.1/DTD/svg11.dtd">
<!-- Generated by graphviz version 2.43.0 (0)
 -->
<!-- Title: src/polyfem/problem/StokesProblem.hpp Pages: 1 -->
<svg width="4230pt" height="766pt"
 viewBox="0.00 0.00 4229.50 766.00" xmlns="http://www.w3.org/2000/svg" xmlns:xlink="http://www.w3.org/1999/xlink">
<g id="graph0" class="graph" transform="scale(1 1) rotate(0) translate(4 762)">
<title>src/polyfem/problem/StokesProblem.hpp</title>
<!-- Node1 -->
<g id="node1" class="node">
<title>Node1</title>
<g id="a_node1"><a xlink:title=" ">
<polygon fill="#bfbfbf" stroke="black" points="144,-727.5 144,-757.5 262,-757.5 262,-727.5 144,-727.5"/>
<text text-anchor="start" x="152" y="-745.5" font-family="Helvetica,sans-Serif" font-size="10.00">src/polyfem/problem</text>
<text text-anchor="middle" x="203" y="-734.5" font-family="Helvetica,sans-Serif" font-size="10.00">/StokesProblem.hpp</text>
</a>
</g>
</g>
<!-- Node2 -->
<g id="node2" class="node">
<title>Node2</title>
<g id="a_node2"><a xlink:href="_problem_8hpp.html" target="_top" xlink:title=" ">
<polygon fill="none" stroke="black" points="321,-615.5 321,-634.5 497,-634.5 497,-615.5 321,-615.5"/>
<text text-anchor="middle" x="409" y="-622.5" font-family="Helvetica,sans-Serif" font-size="10.00">polyfem/assembler/Problem.hpp</text>
</a>
</g>
</g>
<!-- Node1&#45;&gt;Node2 -->
<g id="edge1" class="edge">
<title>Node1&#45;&gt;Node2</title>
<path fill="none" stroke="midnightblue" d="M228.26,-727.34C268.17,-704.96 345.33,-661.7 384.66,-639.65"/>
<polygon fill="midnightblue" stroke="midnightblue" points="386.79,-642.47 393.8,-634.52 383.37,-636.36 386.79,-642.47"/>
</g>
<!-- Node12 -->
<g id="node12" class="node">
<title>Node12</title>
<g id="a_node12"><a xlink:title=" ">
<polygon fill="none" stroke="#bfbfbf" points="1993.5,-0.5 1993.5,-19.5 2070.5,-19.5 2070.5,-0.5 1993.5,-0.5"/>
<text text-anchor="middle" x="2032" y="-7.5" font-family="Helvetica,sans-Serif" font-size="10.00">Eigen/Dense</text>
</a>
</g>
</g>
<!-- Node1&#45;&gt;Node12 -->
<g id="edge177" class="edge">
<title>Node1&#45;&gt;Node12</title>
<path fill="none" stroke="midnightblue" d="M143.74,-733.35C83.82,-721.37 0,-692.7 0,-626 0,-626 0,-626 0,-137.5 0,-78.43 49.34,-75.8 105,-56 196.05,-23.62 1692.05,-13.03 1983.14,-11.28"/>
<polygon fill="midnightblue" stroke="midnightblue" points="1983.39,-14.78 1993.37,-11.22 1983.35,-7.78 1983.39,-14.78"/>
</g>
<!-- Node16 -->
<g id="node16" class="node">
<title>Node16</title>
<g id="a_node16"><a xlink:title=" ">
<polygon fill="none" stroke="#bfbfbf" points="2075.5,-62 2075.5,-81 2122.5,-81 2122.5,-62 2075.5,-62"/>
<text text-anchor="middle" x="2099" y="-69" font-family="Helvetica,sans-Serif" font-size="10.00">vector</text>
</a>
</g>
</g>
<!-- Node1&#45;&gt;Node16 -->
<g id="edge176" class="edge">
<title>Node1&#45;&gt;Node16</title>
<path fill="none" stroke="midnightblue" d="M181.91,-727.43C155.59,-708.01 114,-670.3 114,-626 114,-626 114,-626 114,-456 114,-382.29 132.09,-345.99 198,-313 582.27,-120.67 730.24,-240.29 1157,-190 1305.72,-172.47 1347.26,-192.4 1492,-154 1525.28,-145.17 1529.65,-131.55 1563,-123 1734.61,-78.99 1783.67,-104.19 1960,-87 1995.97,-83.49 2037.15,-79.16 2065.29,-76.15"/>
<polygon fill="midnightblue" stroke="midnightblue" points="2065.83,-79.61 2075.4,-75.06 2065.08,-72.65 2065.83,-79.61"/>
</g>
<!-- Node55 -->
<g id="node50" class="node">
<title>Node55</title>
<g id="a_node50"><a xlink:href="_problem_with_solution_8hpp.html" target="_top" xlink:title=" ">
<polygon fill="none" stroke="black" points="410,-671.5 410,-690.5 550,-690.5 550,-671.5 410,-671.5"/>
<text text-anchor="middle" x="480" y="-678.5" font-family="Helvetica,sans-Serif" font-size="10.00">ProblemWithSolution.hpp</text>
</a>
</g>
</g>
<!-- Node1&#45;&gt;Node55 -->
<g id="edge172" class="edge">
<title>Node1&#45;&gt;Node55</title>
<path fill="none" stroke="midnightblue" d="M262.08,-728.81C312.12,-718.06 383.04,-702.83 430.22,-692.69"/>
<polygon fill="midnightblue" stroke="midnightblue" points="431.17,-696.07 440.21,-690.55 429.7,-689.23 431.17,-696.07"/>
</g>
<!-- Node3 -->
<g id="node3" class="node">
<title>Node3</title>
<g id="a_node3"><a xlink:href="_assembler_utils_8hpp.html" target="_top" xlink:title=" ">
<polygon fill="none" stroke="black" points="3161,-559.5 3161,-578.5 3273,-578.5 3273,-559.5 3161,-559.5"/>
<text text-anchor="middle" x="3217" y="-566.5" font-family="Helvetica,sans-Serif" font-size="10.00">AssemblerUtils.hpp</text>
</a>
</g>
</g>
<!-- Node2&#45;&gt;Node3 -->
<g id="edge2" class="edge">
<title>Node2&#45;&gt;Node3</title>
<path fill="none" stroke="midnightblue" d="M497.28,-622.3C924.96,-614.08 2776.11,-578.48 3150.74,-571.27"/>
<polygon fill="midnightblue" stroke="midnightblue" points="3150.94,-574.77 3160.87,-571.08 3150.81,-567.77 3150.94,-574.77"/>
</g>
<!-- Node4 -->
<g id="node4" class="node">
<title>Node4</title>
<g id="a_node4"><a xlink:href="_common_8hpp.html" target="_top" xlink:title=" ">
<polygon fill="none" stroke="black" points="2532.5,-129 2532.5,-148 2657.5,-148 2657.5,-129 2532.5,-129"/>
<text text-anchor="middle" x="2595" y="-136" font-family="Helvetica,sans-Serif" font-size="10.00">polyfem/Common.hpp</text>
</a>
</g>
</g>
<!-- Node2&#45;&gt;Node4 -->
<g id="edge168" class="edge">
<title>Node2&#45;&gt;Node4</title>
<path fill="none" stroke="midnightblue" d="M417.17,-615.38C432.93,-597.81 466,-555.94 466,-514 466,-514 466,-514 466,-456 466,-415.57 481.06,-400.35 516,-380 621.08,-318.81 941.6,-361.01 1062,-344 1125.96,-334.96 1140.53,-325.04 1204,-313 1302.63,-294.29 1328.74,-297.57 1427,-277 1578.41,-245.31 1611.21,-214.14 1764,-190 1837.73,-178.35 2333.57,-152.62 2522.28,-143.12"/>
<polygon fill="midnightblue" stroke="midnightblue" points="2522.57,-146.61 2532.38,-142.61 2522.21,-139.62 2522.57,-146.61"/>
</g>
<!-- Node2&#45;&gt;Node12 -->
<g id="edge170" class="edge">
<title>Node2&#45;&gt;Node12</title>
<path fill="none" stroke="midnightblue" d="M376.73,-615.43C286.46,-589.32 38,-501.78 38,-329.5 38,-329.5 38,-329.5 38,-137.5 38,-114.53 -44.44,-109.2 276,-56 448.19,-27.41 1716.81,-13.97 1983.06,-11.44"/>
<polygon fill="midnightblue" stroke="midnightblue" points="1983.23,-14.94 1993.19,-11.35 1983.16,-7.94 1983.23,-14.94"/>
</g>
<!-- Node2&#45;&gt;Node16 -->
<g id="edge169" class="edge">
<title>Node2&#45;&gt;Node16</title>
<path fill="none" stroke="midnightblue" d="M400.83,-615.38C385.07,-597.81 352,-555.94 352,-514 352,-514 352,-514 352,-456 352,-418.43 359.03,-402.66 389,-380 409.01,-364.87 1253.4,-225.9 1278,-221 1340.93,-208.46 1356.07,-202.51 1419,-190 1439.86,-185.85 1775.04,-126.61 1796,-123 1893.76,-106.17 2009.43,-87.13 2065.36,-77.99"/>
<polygon fill="midnightblue" stroke="midnightblue" points="2066.11,-81.41 2075.41,-76.34 2064.98,-74.5 2066.11,-81.41"/>
</g>
<!-- Node18 -->
<g id="node18" class="node">
<title>Node18</title>
<g id="a_node18"><a xlink:href="_element_bases_8hpp.html" target="_top" xlink:title=" ">
<polygon fill="none" stroke="black" points="2161.5,-257.5 2161.5,-276.5 2340.5,-276.5 2340.5,-257.5 2161.5,-257.5"/>
<text text-anchor="middle" x="2251" y="-264.5" font-family="Helvetica,sans-Serif" font-size="10.00">polyfem/basis/ElementBases.hpp</text>
</a>
</g>
</g>
<!-- Node2&#45;&gt;Node18 -->
<g id="edge161" class="edge">
<title>Node2&#45;&gt;Node18</title>
<path fill="none" stroke="midnightblue" d="M429.64,-615.39C445.4,-607.88 466.61,-595.57 480,-579 499.36,-555.05 504,-544.8 504,-514 504,-514 504,-514 504,-456 504,-370.8 597.2,-400.1 680,-380 906.85,-324.94 971.47,-364.58 1204,-344 1331.36,-332.73 1362.59,-323.67 1490,-313 1726.66,-293.19 2005.45,-279.04 2151.03,-272.35"/>
<polygon fill="midnightblue" stroke="midnightblue" points="2151.45,-275.84 2161.28,-271.88 2151.13,-268.84 2151.45,-275.84"/>
</g>
<!-- Node19 -->
<g id="node19" class="node">
<title>Node19</title>
<g id="a_node19"><a xlink:href="_mesh_8hpp.html" target="_top" xlink:title=" ">
<polygon fill="none" stroke="black" points="1427.5,-196 1427.5,-215 1564.5,-215 1564.5,-196 1427.5,-196"/>
<text text-anchor="middle" x="1496" y="-203" font-family="Helvetica,sans-Serif" font-size="10.00">polyfem/mesh/Mesh.hpp</text>
</a>
</g>
</g>
<!-- Node2&#45;&gt;Node19 -->
<g id="edge167" class="edge">
<title>Node2&#45;&gt;Node19</title>
<path fill="none" stroke="midnightblue" d="M406.44,-615.25C401.25,-596.74 390,-552.18 390,-514 390,-514 390,-514 390,-456 390,-420.58 386.26,-402.02 414,-380 495.52,-315.29 779.23,-365.85 881,-344 920.72,-335.47 927.87,-323.93 967,-313 1055.99,-288.15 1321.91,-238.37 1439.27,-216.83"/>
<polygon fill="midnightblue" stroke="midnightblue" points="1439.94,-220.26 1449.14,-215.02 1438.68,-213.38 1439.94,-220.26"/>
</g>
<!-- Node25 -->
<g id="node23" class="node">
<title>Node25</title>
<g id="a_node23"><a xlink:title=" ">
<polygon fill="none" stroke="#bfbfbf" points="1975,-129 1975,-148 2033,-148 2033,-129 1975,-129"/>
<text text-anchor="middle" x="2004" y="-136" font-family="Helvetica,sans-Serif" font-size="10.00">memory</text>
</a>
</g>
</g>
<!-- Node2&#45;&gt;Node25 -->
<g id="edge171" class="edge">
<title>Node2&#45;&gt;Node25</title>
<path fill="none" stroke="midnightblue" d="M411.56,-615.25C416.75,-596.74 428,-552.18 428,-514 428,-514 428,-514 428,-456 428,-420.58 424.22,-401.98 452,-380 494.46,-346.4 884.33,-351.15 938,-344 1080.69,-324.98 1441.85,-278.09 1574,-221 1595.63,-211.66 1594.98,-198.38 1617,-190 1762.73,-134.53 1814.3,-190.1 1966,-154 1968.99,-153.29 1972.07,-152.4 1975.12,-151.41"/>
<polygon fill="midnightblue" stroke="midnightblue" points="1976.35,-154.69 1984.59,-148.03 1973.99,-148.09 1976.35,-154.69"/>
</g>
<!-- Node53 -->
<g id="node48" class="node">
<title>Node53</title>
<g id="a_node48"><a xlink:href="_local_boundary_8hpp.html" target="_top" xlink:title=" ">
<polygon fill="none" stroke="black" points="142,-386 142,-405 324,-405 324,-386 142,-386"/>
<text text-anchor="middle" x="233" y="-393" font-family="Helvetica,sans-Serif" font-size="10.00">polyfem/mesh/LocalBoundary.hpp</text>
</a>
</g>
</g>
<!-- Node2&#45;&gt;Node53 -->
<g id="edge162" class="edge">
<title>Node2&#45;&gt;Node53</title>
<path fill="none" stroke="midnightblue" d="M390.35,-615.37C374.92,-607.54 353.14,-594.81 338,-579 288.96,-527.81 253.96,-449.44 239.87,-414.45"/>
<polygon fill="midnightblue" stroke="midnightblue" points="243.1,-413.09 236.18,-405.06 236.58,-415.65 243.1,-413.09"/>
</g>
<!-- Node3&#45;&gt;Node4 -->
<g id="edge3" class="edge">
<title>Node3&#45;&gt;Node4</title>
<path fill="none" stroke="midnightblue" d="M3273.07,-564.87C3342.65,-560.05 3464.55,-548.55 3566,-523 3706.52,-487.62 3899.78,-519.05 3859,-380 3849.04,-346.05 3844.41,-334.09 3816,-313 3655.35,-193.77 3580.21,-223.61 3383,-190 3123.59,-145.79 3054.56,-171.66 2792,-154 2750.87,-151.23 2704.94,-147.87 2667.77,-145.08"/>
<polygon fill="midnightblue" stroke="midnightblue" points="2667.77,-141.57 2657.54,-144.31 2667.24,-148.55 2667.77,-141.57"/>
</g>
<!-- Node7 -->
<g id="node7" class="node">
<title>Node7</title>
<g id="a_node7"><a xlink:href="_assembler_8hpp.html" target="_top" xlink:title=" ">
<polygon fill="none" stroke="black" points="3447.5,-447.5 3447.5,-466.5 3536.5,-466.5 3536.5,-447.5 3447.5,-447.5"/>
<text text-anchor="middle" x="3492" y="-454.5" font-family="Helvetica,sans-Serif" font-size="10.00">Assembler.hpp</text>
</a>
</g>
</g>
<!-- Node3&#45;&gt;Node7 -->
<g id="edge6" class="edge">
<title>Node3&#45;&gt;Node7</title>
<path fill="none" stroke="midnightblue" d="M3238.58,-559.37C3287.07,-539.97 3404.83,-492.87 3461.08,-470.37"/>
<polygon fill="midnightblue" stroke="midnightblue" points="3462.54,-473.56 3470.52,-466.59 3459.94,-467.06 3462.54,-473.56"/>
</g>
<!-- Node3&#45;&gt;Node16 -->
<g id="edge160" class="edge">
<title>Node3&#45;&gt;Node16</title>
<path fill="none" stroke="midnightblue" d="M3273.2,-567.31C3474.7,-564.09 4149,-546.69 4149,-458 4149,-458 4149,-458 4149,-394.5 4149,-210.29 3933.79,-312.07 3758,-257 3098.36,-50.35 2900.74,-145.93 2212,-87 2185.29,-84.71 2155.19,-80.78 2132.77,-77.59"/>
<polygon fill="midnightblue" stroke="midnightblue" points="2133.14,-74.11 2122.75,-76.14 2132.14,-81.04 2133.14,-74.11"/>
</g>
<!-- Node26 -->
<g id="node24" class="node">
<title>Node26</title>
<g id="a_node24"><a xlink:href="_matrix_utils_8hpp.html" target="_top" xlink:title=" ">
<polygon fill="none" stroke="black" points="4062.5,-129 4062.5,-148 4221.5,-148 4221.5,-129 4062.5,-129"/>
<text text-anchor="middle" x="4142" y="-136" font-family="Helvetica,sans-Serif" font-size="10.00">polyfem/utils/MatrixUtils.hpp</text>
</a>
</g>
</g>
<!-- Node3&#45;&gt;Node26 -->
<g id="edge159" class="edge">
<title>Node3&#45;&gt;Node26</title>
<path fill="none" stroke="midnightblue" d="M3273.33,-567.03C3471.56,-563.38 4127,-549.37 4163,-523 4187.84,-504.8 4187,-488.8 4187,-458 4187,-458 4187,-458 4187,-266 4187,-225 4165.76,-180.63 4152.47,-156.87"/>
<polygon fill="midnightblue" stroke="midnightblue" points="4155.38,-154.92 4147.34,-148.02 4149.32,-158.43 4155.38,-154.92"/>
</g>
<!-- Node28 -->
<g id="node26" class="node">
<title>Node28</title>
<g id="a_node26"><a xlink:href="_mass_matrix_assembler_8hpp.html" target="_top" xlink:title=" ">
<polygon fill="none" stroke="black" points="3078,-447.5 3078,-466.5 3224,-466.5 3224,-447.5 3078,-447.5"/>
<text text-anchor="middle" x="3151" y="-454.5" font-family="Helvetica,sans-Serif" font-size="10.00">MassMatrixAssembler.hpp</text>
</a>
</g>
</g>
<!-- Node3&#45;&gt;Node28 -->
<g id="edge48" class="edge">
<title>Node3&#45;&gt;Node28</title>
<path fill="none" stroke="midnightblue" d="M3211.82,-559.37C3200.98,-541.3 3175.71,-499.18 3161.38,-475.31"/>
<polygon fill="midnightblue" stroke="midnightblue" points="3164.3,-473.37 3156.15,-466.59 3158.3,-476.97 3164.3,-473.37"/>
</g>
<!-- Node36 -->
<g id="node31" class="node">
<title>Node36</title>
<g id="a_node31"><a xlink:href="_laplacian_8hpp.html" target="_top" xlink:title=" ">
<polygon fill="none" stroke="black" points="1943,-386 1943,-405 2027,-405 2027,-386 1943,-386"/>
<text text-anchor="middle" x="1985" y="-393" font-family="Helvetica,sans-Serif" font-size="10.00">Laplacian.hpp</text>
</a>
</g>
</g>
<!-- Node3&#45;&gt;Node36 -->
<g id="edge69" class="edge">
<title>Node3&#45;&gt;Node36</title>
<path fill="none" stroke="midnightblue" d="M3160.69,-567.53C2932.24,-565.38 2084.59,-555.29 2038,-523 2002.06,-498.09 1990.41,-443.83 1986.7,-415.14"/>
<polygon fill="midnightblue" stroke="midnightblue" points="1990.17,-414.75 1985.6,-405.2 1983.22,-415.52 1990.17,-414.75"/>
</g>
<!-- Node37 -->
<g id="node32" class="node">
<title>Node37</title>
<g id="a_node32"><a xlink:href="_bilaplacian_8hpp.html" target="_top" xlink:title=" ">
<polygon fill="none" stroke="black" points="3221,-386 3221,-405 3313,-405 3313,-386 3221,-386"/>
<text text-anchor="middle" x="3267" y="-393" font-family="Helvetica,sans-Serif" font-size="10.00">Bilaplacian.hpp</text>
</a>
</g>
</g>
<!-- Node3&#45;&gt;Node37 -->
<g id="edge74" class="edge">
<title>Node3&#45;&gt;Node37</title>
<path fill="none" stroke="midnightblue" d="M3219.55,-559.26C3227.34,-532.54 3250.96,-451.52 3261.65,-414.86"/>
<polygon fill="midnightblue" stroke="midnightblue" points="3265.08,-415.6 3264.52,-405.02 3258.36,-413.64 3265.08,-415.6"/>
</g>
<!-- Node38 -->
<g id="node33" class="node">
<title>Node38</title>
<g id="a_node33"><a xlink:href="_helmholtz_8hpp.html" target="_top" xlink:title=" ">
<polygon fill="none" stroke="black" points="3521,-386 3521,-405 3609,-405 3609,-386 3521,-386"/>
<text text-anchor="middle" x="3565" y="-393" font-family="Helvetica,sans-Serif" font-size="10.00">Helmholtz.hpp</text>
</a>
</g>
</g>
<!-- Node3&#45;&gt;Node38 -->
<g id="edge81" class="edge">
<title>Node3&#45;&gt;Node38</title>
<path fill="none" stroke="midnightblue" d="M3273.23,-566.73C3346.45,-561.95 3473.62,-542.46 3546,-467 3559.28,-453.16 3563.5,-431.06 3564.73,-415.29"/>
<polygon fill="midnightblue" stroke="midnightblue" points="3568.23,-415.29 3565.18,-405.14 3561.24,-414.97 3568.23,-415.29"/>
</g>
<!-- Node39 -->
<g id="node34" class="node">
<title>Node39</title>
<g id="a_node34"><a xlink:href="_linear_elasticity_8hpp.html" target="_top" xlink:title=" ">
<polygon fill="none" stroke="black" points="2299.5,-447.5 2299.5,-466.5 2410.5,-466.5 2410.5,-447.5 2299.5,-447.5"/>
<text text-anchor="middle" x="2355" y="-454.5" font-family="Helvetica,sans-Serif" font-size="10.00">LinearElasticity.hpp</text>
</a>
</g>
</g>
<!-- Node3&#45;&gt;Node39 -->
<g id="edge86" class="edge">
<title>Node3&#45;&gt;Node39</title>
<path fill="none" stroke="midnightblue" d="M3160.95,-562.5C3081.61,-554.57 2932.06,-539.11 2805,-523 2667.53,-505.57 2506.99,-481.48 2419.66,-468.06"/>
<polygon fill="midnightblue" stroke="midnightblue" points="2420.06,-464.58 2409.64,-466.52 2418.99,-471.5 2420.06,-464.58"/>
</g>
<!-- Node40 -->
<g id="node35" class="node">
<title>Node40</title>
<g id="a_node35"><a xlink:href="_hooke_linear_elasticity_8hpp.html" target="_top" xlink:title=" ">
<polygon fill="none" stroke="black" points="2455,-447.5 2455,-466.5 2597,-466.5 2597,-447.5 2455,-447.5"/>
<text text-anchor="middle" x="2526" y="-454.5" font-family="Helvetica,sans-Serif" font-size="10.00">HookeLinearElasticity.hpp</text>
</a>
</g>
</g>
<!-- Node3&#45;&gt;Node40 -->
<g id="edge94" class="edge">
<title>Node3&#45;&gt;Node40</title>
<path fill="none" stroke="midnightblue" d="M3163.35,-559.46C3037.73,-539.46 2724.9,-489.66 2589.8,-468.16"/>
<polygon fill="midnightblue" stroke="midnightblue" points="2590.04,-464.65 2579.61,-466.53 2588.94,-471.56 2590.04,-464.65"/>
</g>
<!-- Node41 -->
<g id="node36" class="node">
<title>Node41</title>
<g id="a_node36"><a xlink:href="_saint_venant_elasticity_8hpp.html" target="_top" xlink:title=" ">
<polygon fill="none" stroke="black" points="624,-447.5 624,-466.5 764,-466.5 764,-447.5 624,-447.5"/>
<text text-anchor="middle" x="694" y="-454.5" font-family="Helvetica,sans-Serif" font-size="10.00">SaintVenantElasticity.hpp</text>
</a>
</g>
</g>
<!-- Node3&#45;&gt;Node41 -->
<g id="edge102" class="edge">
<title>Node3&#45;&gt;Node41</title>
<path fill="none" stroke="midnightblue" d="M3160.96,-567.06C2961.41,-563.56 2266.72,-550.07 1694,-523 1351.69,-506.82 944.12,-477.06 774.37,-464.19"/>
<polygon fill="midnightblue" stroke="midnightblue" points="774.51,-460.69 764.27,-463.43 773.98,-467.67 774.51,-460.69"/>
</g>
<!-- Node42 -->
<g id="node37" class="node">
<title>Node42</title>
<g id="a_node37"><a xlink:href="_neo_hookean_elasticity_8hpp.html" target="_top" xlink:title=" ">
<polygon fill="none" stroke="black" points="1489.5,-447.5 1489.5,-466.5 1632.5,-466.5 1632.5,-447.5 1489.5,-447.5"/>
<text text-anchor="middle" x="1561" y="-454.5" font-family="Helvetica,sans-Serif" font-size="10.00">NeoHookeanElasticity.hpp</text>
</a>
</g>
</g>
<!-- Node3&#45;&gt;Node42 -->
<g id="edge111" class="edge">
<title>Node3&#45;&gt;Node42</title>
<path fill="none" stroke="midnightblue" d="M3160.89,-568.09C2930.79,-568.19 2058.76,-565.67 1787,-523 1716.28,-511.9 1636.41,-485.51 1593.11,-469.98"/>
<polygon fill="midnightblue" stroke="midnightblue" points="1594.27,-466.68 1583.67,-466.57 1591.88,-473.26 1594.27,-466.68"/>
</g>
<!-- Node49 -->
<g id="node44" class="node">
<title>Node49</title>
<g id="a_node44"><a xlink:href="_multi_model_8hpp.html" target="_top" xlink:title=" ">
<polygon fill="none" stroke="black" points="2047,-503.5 2047,-522.5 2139,-522.5 2139,-503.5 2047,-503.5"/>
<text text-anchor="middle" x="2093" y="-510.5" font-family="Helvetica,sans-Serif" font-size="10.00">MultiModel.hpp</text>
</a>
</g>
</g>
<!-- Node3&#45;&gt;Node49 -->
<g id="edge126" class="edge">
<title>Node3&#45;&gt;Node49</title>
<path fill="none" stroke="midnightblue" d="M3160.88,-565.3C2969.12,-556.09 2341.26,-525.93 2149.28,-516.7"/>
<polygon fill="midnightblue" stroke="midnightblue" points="2149.28,-513.2 2139.13,-516.22 2148.95,-520.19 2149.28,-513.2"/>
</g>
<!-- Node50 -->
<g id="node45" class="node">
<title>Node50</title>
<g id="a_node45"><a xlink:href="_stokes_8hpp.html" target="_top" xlink:title=" ">
<polygon fill="none" stroke="black" points="3627,-386 3627,-405 3697,-405 3697,-386 3627,-386"/>
<text text-anchor="middle" x="3662" y="-393" font-family="Helvetica,sans-Serif" font-size="10.00">Stokes.hpp</text>
</a>
</g>
</g>
<!-- Node3&#45;&gt;Node50 -->
<g id="edge137" class="edge">
<title>Node3&#45;&gt;Node50</title>
<path fill="none" stroke="midnightblue" d="M3273.22,-566.91C3331.21,-563.99 3423.19,-554.26 3496,-523 3559.03,-495.94 3619.62,-439.72 3646.91,-412.27"/>
<polygon fill="midnightblue" stroke="midnightblue" points="3649.49,-414.63 3653.98,-405.04 3644.49,-409.74 3649.49,-414.63"/>
</g>
<!-- Node51 -->
<g id="node46" class="node">
<title>Node51</title>
<g id="a_node46"><a xlink:href="_navier_stokes_8hpp.html" target="_top" xlink:title=" ">
<polygon fill="none" stroke="black" points="3715,-386 3715,-405 3817,-405 3817,-386 3715,-386"/>
<text text-anchor="middle" x="3766" y="-393" font-family="Helvetica,sans-Serif" font-size="10.00">NavierStokes.hpp</text>
</a>
</g>
</g>
<!-- Node3&#45;&gt;Node51 -->
<g id="edge144" class="edge">
<title>Node3&#45;&gt;Node51</title>
<path fill="none" stroke="midnightblue" d="M3273.09,-565.68C3336.4,-561.75 3441.8,-551.2 3528,-523 3613.62,-495 3705.05,-437.58 3745.14,-410.82"/>
<polygon fill="midnightblue" stroke="midnightblue" points="3747.21,-413.64 3753.55,-405.15 3743.3,-407.84 3747.21,-413.64"/>
</g>
<!-- Node52 -->
<g id="node47" class="node">
<title>Node52</title>
<g id="a_node47"><a xlink:href="_incompressible_lin_elast_8hpp.html" target="_top" xlink:title=" ">
<polygon fill="none" stroke="black" points="3280,-447.5 3280,-466.5 3430,-466.5 3430,-447.5 3280,-447.5"/>
<text text-anchor="middle" x="3355" y="-454.5" font-family="Helvetica,sans-Serif" font-size="10.00">IncompressibleLinElast.hpp</text>
</a>
</g>
</g>
<!-- Node3&#45;&gt;Node52 -->
<g id="edge151" class="edge">
<title>Node3&#45;&gt;Node52</title>
<path fill="none" stroke="midnightblue" d="M3227.83,-559.37C3251.31,-540.65 3307.14,-496.15 3336.39,-472.83"/>
<polygon fill="midnightblue" stroke="midnightblue" points="3338.58,-475.56 3344.22,-466.59 3334.22,-470.09 3338.58,-475.56"/>
</g>
<!-- Node5 -->
<g id="node5" class="node">
<title>Node5</title>
<g id="a_node5"><a xlink:title=" ">
<polygon fill="none" stroke="#bfbfbf" points="3957,-0.5 3957,-19.5 4037,-19.5 4037,-0.5 3957,-0.5"/>
<text text-anchor="middle" x="3997" y="-7.5" font-family="Helvetica,sans-Serif" font-size="10.00">Eigen/Sparse</text>
</a>
</g>
</g>
<!-- Node4&#45;&gt;Node5 -->
<g id="edge4" class="edge">
<title>Node4&#45;&gt;Node5</title>
<path fill="none" stroke="midnightblue" d="M2657.5,-130.74C2793.87,-116.1 3128.35,-80.79 3409,-56 3607.92,-38.43 3845.07,-21.51 3946.71,-14.45"/>
<polygon fill="midnightblue" stroke="midnightblue" points="3946.96,-17.94 3956.69,-13.76 3946.48,-10.96 3946.96,-17.94"/>
</g>
<!-- Node6 -->
<g id="node6" class="node">
<title>Node6</title>
<g id="a_node6"><a xlink:title=" ">
<polygon fill="none" stroke="#bfbfbf" points="2540,-62 2540,-81 2650,-81 2650,-62 2540,-62"/>
<text text-anchor="middle" x="2595" y="-69" font-family="Helvetica,sans-Serif" font-size="10.00">nlohmann/json.hpp</text>
</a>
</g>
</g>
<!-- Node4&#45;&gt;Node6 -->
<g id="edge5" class="edge">
<title>Node4&#45;&gt;Node6</title>
<path fill="none" stroke="midnightblue" d="M2595,-128.73C2595,-119.18 2595,-103.62 2595,-91.28"/>
<polygon fill="midnightblue" stroke="midnightblue" points="2598.5,-91.13 2595,-81.13 2591.5,-91.13 2598.5,-91.13"/>
</g>
<!-- Node7&#45;&gt;Node5 -->
<g id="edge43" class="edge">
<title>Node7&#45;&gt;Node5</title>
<path fill="none" stroke="midnightblue" d="M3536.92,-454.96C3656.26,-451.82 3974.68,-440.7 4011,-411 4040.23,-387.1 4035,-367.26 4035,-329.5 4035,-329.5 4035,-329.5 4035,-204.5 4035,-137.64 4026.3,-121.08 4011,-56 4008.89,-47.03 4005.93,-37.24 4003.27,-29.09"/>
<polygon fill="midnightblue" stroke="midnightblue" points="4006.56,-27.89 4000.05,-19.53 3999.92,-30.12 4006.56,-27.89"/>
</g>
<!-- Node8 -->
<g id="node8" class="node">
<title>Node8</title>
<g id="a_node8"><a xlink:href="_assembly_vals_cache_8hpp.html" target="_top" xlink:title=" ">
<polygon fill="none" stroke="black" points="2877,-386 2877,-405 3013,-405 3013,-386 2877,-386"/>
<text text-anchor="middle" x="2945" y="-393" font-family="Helvetica,sans-Serif" font-size="10.00">AssemblyValsCache.hpp</text>
</a>
</g>
</g>
<!-- Node7&#45;&gt;Node8 -->
<g id="edge7" class="edge">
<title>Node7&#45;&gt;Node8</title>
<path fill="none" stroke="midnightblue" d="M3447.22,-448.13C3444.44,-447.73 3441.68,-447.34 3439,-447 3256.69,-423.59 3209.23,-435.03 3027,-411 3017.95,-409.81 3008.37,-408.32 2999.08,-406.76"/>
<polygon fill="midnightblue" stroke="midnightblue" points="2999.6,-403.29 2989.15,-405.04 2998.41,-410.19 2999.6,-403.29"/>
</g>
<!-- Node9 -->
<g id="node9" class="node">
<title>Node9</title>
<g id="a_node9"><a xlink:href="_element_assembly_values_8hpp.html" target="_top" xlink:title=" ">
<polygon fill="none" stroke="black" points="2611.5,-313.5 2611.5,-343.5 2766.5,-343.5 2766.5,-313.5 2611.5,-313.5"/>
<text text-anchor="start" x="2619.5" y="-331.5" font-family="Helvetica,sans-Serif" font-size="10.00">polyfem/assembler/Element</text>
<text text-anchor="middle" x="2689" y="-320.5" font-family="Helvetica,sans-Serif" font-size="10.00">AssemblyValues.hpp</text>
</a>
</g>
</g>
<!-- Node7&#45;&gt;Node9 -->
<g id="edge38" class="edge">
<title>Node7&#45;&gt;Node9</title>
<path fill="none" stroke="midnightblue" d="M3447.47,-448.4C3444.61,-447.92 3441.76,-447.45 3439,-447 3338.2,-430.45 3312.85,-427.22 3212,-411 3127.53,-397.41 3106.55,-393.08 3022,-380 2916,-363.6 2886.86,-361.21 2776.95,-344.13"/>
<polygon fill="midnightblue" stroke="midnightblue" points="2777.2,-340.62 2766.78,-342.54 2776.12,-347.54 2777.2,-340.62"/>
</g>
<!-- Node7&#45;&gt;Node16 -->
<g id="edge44" class="edge">
<title>Node7&#45;&gt;Node16</title>
<path fill="none" stroke="midnightblue" d="M3536.84,-453.51C3626.93,-448.04 3823.06,-433.66 3843,-411 3852.1,-400.66 3848.83,-392.48 3843,-380 3748.39,-177.36 3092.71,-143.38 2870,-123 2578.34,-96.3 2503.67,-113.66 2212,-87 2185.3,-84.56 2155.2,-80.64 2132.78,-77.49"/>
<polygon fill="midnightblue" stroke="midnightblue" points="2133.15,-74.01 2122.75,-76.06 2132.16,-80.94 2133.15,-74.01"/>
</g>
<!-- Node17 -->
<g id="node17" class="node">
<title>Node17</title>
<g id="a_node17"><a xlink:title=" ">
<polygon fill="none" stroke="#bfbfbf" points="2801,-129 2801,-148 2861,-148 2861,-129 2801,-129"/>
<text text-anchor="middle" x="2831" y="-136" font-family="Helvetica,sans-Serif" font-size="10.00">iostream</text>
</a>
</g>
</g>
<!-- Node7&#45;&gt;Node17 -->
<g id="edge45" class="edge">
<title>Node7&#45;&gt;Node17</title>
<path fill="none" stroke="midnightblue" d="M3536.61,-456.89C3618.76,-457.48 3788.93,-453.4 3826,-411 3835.07,-400.63 3833.54,-391.53 3826,-380 3788.7,-322.95 3609.09,-280.21 3545,-257 3444.49,-220.6 3418.91,-210.53 3314,-190 3151.73,-158.25 2954.63,-145.51 2871.29,-141.28"/>
<polygon fill="midnightblue" stroke="midnightblue" points="2871.39,-137.79 2861.23,-140.79 2871.05,-144.78 2871.39,-137.79"/>
</g>
<!-- Node7&#45;&gt;Node25 -->
<g id="edge47" class="edge">
<title>Node7&#45;&gt;Node25</title>
<path fill="none" stroke="midnightblue" d="M3480.72,-447.38C3422.93,-403.27 3160.98,-204.38 3118,-190 3012.56,-154.72 2228.82,-163.02 2118,-154 2093.11,-151.97 2065.3,-148.46 2043.38,-145.4"/>
<polygon fill="midnightblue" stroke="midnightblue" points="2043.84,-141.93 2033.45,-143.99 2042.86,-148.86 2043.84,-141.93"/>
</g>
<!-- Node7&#45;&gt;Node26 -->
<g id="edge39" class="edge">
<title>Node7&#45;&gt;Node26</title>
<path fill="none" stroke="midnightblue" d="M3536.93,-454.47C3661.42,-449.93 4004.53,-435.33 4049,-411 4088.93,-389.16 4111,-375.01 4111,-329.5 4111,-329.5 4111,-329.5 4111,-266 4111,-226.41 4125.5,-181.8 4134.67,-157.56"/>
<polygon fill="midnightblue" stroke="midnightblue" points="4137.94,-158.8 4138.32,-148.21 4131.42,-156.25 4137.94,-158.8"/>
</g>
<!-- Node27 -->
<g id="node25" class="node">
<title>Node27</title>
<g id="a_node25"><a xlink:title=" ">
<polygon fill="none" stroke="#bfbfbf" points="3061.5,-196 3061.5,-215 3108.5,-215 3108.5,-196 3061.5,-196"/>
<text text-anchor="middle" x="3085" y="-203" font-family="Helvetica,sans-Serif" font-size="10.00">cmath</text>
</a>
</g>
</g>
<!-- Node7&#45;&gt;Node27 -->
<g id="edge46" class="edge">
<title>Node7&#45;&gt;Node27</title>
<path fill="none" stroke="midnightblue" d="M3476.43,-447.38C3449.96,-432.83 3394.34,-402.77 3346,-380 3308.89,-362.51 3296.36,-364.81 3261,-344 3197.77,-306.79 3131.86,-249.47 3101.78,-222.1"/>
<polygon fill="midnightblue" stroke="midnightblue" points="3104.01,-219.39 3094.27,-215.21 3099.27,-224.55 3104.01,-219.39"/>
</g>
<!-- Node8&#45;&gt;Node9 -->
<g id="edge8" class="edge">
<title>Node8&#45;&gt;Node9</title>
<path fill="none" stroke="midnightblue" d="M2911.27,-385.94C2871.43,-375.82 2804.25,-358.76 2754.15,-346.04"/>
<polygon fill="midnightblue" stroke="midnightblue" points="2754.93,-342.63 2744.37,-343.56 2753.2,-349.41 2754.93,-342.63"/>
</g>
<!-- Node10 -->
<g id="node10" class="node">
<title>Node10</title>
<g id="a_node10"><a xlink:href="_assembly_values_8hpp.html" target="_top" xlink:title=" ">
<polygon fill="none" stroke="black" points="2279,-190.5 2279,-220.5 2441,-220.5 2441,-190.5 2279,-190.5"/>
<text text-anchor="start" x="2287" y="-208.5" font-family="Helvetica,sans-Serif" font-size="10.00">polyfem/assembler/Assembly</text>
<text text-anchor="middle" x="2360" y="-197.5" font-family="Helvetica,sans-Serif" font-size="10.00">Values.hpp</text>
</a>
</g>
</g>
<!-- Node9&#45;&gt;Node10 -->
<g id="edge9" class="edge">
<title>Node9&#45;&gt;Node10</title>
<path fill="none" stroke="midnightblue" d="M2666.81,-313.24C2641.57,-297.56 2598.69,-272.52 2559,-257 2521.98,-242.53 2479.45,-231.08 2443.24,-222.77"/>
<polygon fill="midnightblue" stroke="midnightblue" points="2443.73,-219.29 2433.2,-220.51 2442.19,-226.12 2443.73,-219.29"/>
</g>
<!-- Node9&#45;&gt;Node16 -->
<g id="edge37" class="edge">
<title>Node9&#45;&gt;Node16</title>
<path fill="none" stroke="midnightblue" d="M2696.92,-313.31C2716.33,-276.45 2761.11,-176.85 2711,-123 2673.13,-82.3 2267.31,-92.54 2212,-87 2185.33,-84.33 2155.22,-80.42 2132.8,-77.34"/>
<polygon fill="midnightblue" stroke="midnightblue" points="2133.15,-73.85 2122.76,-75.94 2132.19,-80.78 2133.15,-73.85"/>
</g>
<!-- Node9&#45;&gt;Node18 -->
<g id="edge22" class="edge">
<title>Node9&#45;&gt;Node18</title>
<path fill="none" stroke="midnightblue" d="M2611.45,-316.97C2530.04,-305.91 2403.05,-288.66 2323.56,-277.86"/>
<polygon fill="midnightblue" stroke="midnightblue" points="2324.01,-274.39 2313.63,-276.51 2323.07,-281.32 2324.01,-274.39"/>
</g>
<!-- Node11 -->
<g id="node11" class="node">
<title>Node11</title>
<g id="a_node11"><a xlink:href="_quadrature_8hpp.html" target="_top" xlink:title=" ">
<polygon fill="none" stroke="black" points="2220.5,-56.5 2220.5,-86.5 2333.5,-86.5 2333.5,-56.5 2220.5,-56.5"/>
<text text-anchor="start" x="2228.5" y="-74.5" font-family="Helvetica,sans-Serif" font-size="10.00">polyfem/quadrature</text>
<text text-anchor="middle" x="2277" y="-63.5" font-family="Helvetica,sans-Serif" font-size="10.00">/Quadrature.hpp</text>
</a>
</g>
</g>
<!-- Node10&#45;&gt;Node11 -->
<g id="edge10" class="edge">
<title>Node10&#45;&gt;Node11</title>
<path fill="none" stroke="midnightblue" d="M2351.12,-190.37C2336.76,-167.55 2308.35,-122.36 2291.18,-95.04"/>
<polygon fill="midnightblue" stroke="midnightblue" points="2294.1,-93.13 2285.82,-86.52 2288.18,-96.85 2294.1,-93.13"/>
</g>
<!-- Node10&#45;&gt;Node12 -->
<g id="edge20" class="edge">
<title>Node10&#45;&gt;Node12</title>
<path fill="none" stroke="midnightblue" d="M2363.38,-190.32C2369.48,-160.85 2378.61,-92.68 2343,-56 2307.59,-19.52 2158.89,-12.31 2080.63,-11.08"/>
<polygon fill="midnightblue" stroke="midnightblue" points="2080.58,-7.58 2070.54,-10.95 2080.49,-14.58 2080.58,-7.58"/>
</g>
<!-- Node13 -->
<g id="node13" class="node">
<title>Node13</title>
<g id="a_node13"><a xlink:href="_basis_8hpp.html" target="_top" xlink:title=" ">
<polygon fill="none" stroke="black" points="2127,-129 2127,-148 2263,-148 2263,-129 2127,-129"/>
<text text-anchor="middle" x="2195" y="-136" font-family="Helvetica,sans-Serif" font-size="10.00">polyfem/basis/Basis.hpp</text>
</a>
</g>
</g>
<!-- Node10&#45;&gt;Node13 -->
<g id="edge12" class="edge">
<title>Node10&#45;&gt;Node13</title>
<path fill="none" stroke="midnightblue" d="M2324.2,-190.4C2294.99,-178.89 2254.14,-162.8 2226.24,-151.81"/>
<polygon fill="midnightblue" stroke="midnightblue" points="2227.18,-148.42 2216.59,-148.01 2224.62,-154.93 2227.18,-148.42"/>
</g>
<!-- Node10&#45;&gt;Node17 -->
<g id="edge21" class="edge">
<title>Node10&#45;&gt;Node17</title>
<path fill="none" stroke="midnightblue" d="M2441.24,-193.29C2542.9,-179.26 2713.05,-155.78 2790.46,-145.1"/>
<polygon fill="midnightblue" stroke="midnightblue" points="2791.32,-148.51 2800.75,-143.68 2790.36,-141.58 2791.32,-148.51"/>
</g>
<!-- Node11&#45;&gt;Node12 -->
<g id="edge11" class="edge">
<title>Node11&#45;&gt;Node12</title>
<path fill="none" stroke="midnightblue" d="M2220.48,-56.77C2176.84,-46.18 2117.27,-31.71 2076.87,-21.9"/>
<polygon fill="midnightblue" stroke="midnightblue" points="2077.57,-18.47 2067.03,-19.51 2075.92,-25.27 2077.57,-18.47"/>
</g>
<!-- Node13&#45;&gt;Node11 -->
<g id="edge13" class="edge">
<title>Node13&#45;&gt;Node11</title>
<path fill="none" stroke="midnightblue" d="M2206.06,-128.73C2217.57,-119.61 2236,-105 2251.19,-92.96"/>
<polygon fill="midnightblue" stroke="midnightblue" points="2253.56,-95.54 2259.23,-86.59 2249.22,-90.06 2253.56,-95.54"/>
</g>
<!-- Node13&#45;&gt;Node12 -->
<g id="edge17" class="edge">
<title>Node13&#45;&gt;Node12</title>
<path fill="none" stroke="midnightblue" d="M2190.21,-128.75C2180.92,-112.48 2158.96,-77.26 2132,-56 2113.59,-41.48 2089.74,-30.51 2069.95,-23.04"/>
<polygon fill="midnightblue" stroke="midnightblue" points="2070.91,-19.67 2060.31,-19.55 2068.53,-26.25 2070.91,-19.67"/>
</g>
<!-- Node14 -->
<g id="node14" class="node">
<title>Node14</title>
<g id="a_node14"><a xlink:href="_types_8hpp.html" target="_top" xlink:title=" ">
<polygon fill="none" stroke="black" points="1817.5,-62 1817.5,-81 1950.5,-81 1950.5,-62 1817.5,-62"/>
<text text-anchor="middle" x="1884" y="-69" font-family="Helvetica,sans-Serif" font-size="10.00">polyfem/utils/Types.hpp</text>
</a>
</g>
</g>
<!-- Node13&#45;&gt;Node14 -->
<g id="edge14" class="edge">
<title>Node13&#45;&gt;Node14</title>
<path fill="none" stroke="midnightblue" d="M2154.02,-128.94C2097.62,-117.15 1996.11,-95.93 1934.9,-83.14"/>
<polygon fill="midnightblue" stroke="midnightblue" points="1935.57,-79.7 1925.07,-81.08 1934.14,-86.56 1935.57,-79.7"/>
</g>
<!-- Node15 -->
<g id="node15" class="node">
<title>Node15</title>
<g id="a_node15"><a xlink:title=" ">
<polygon fill="none" stroke="#bfbfbf" points="3417.5,-62 3417.5,-81 3482.5,-81 3482.5,-62 3417.5,-62"/>
<text text-anchor="middle" x="3450" y="-69" font-family="Helvetica,sans-Serif" font-size="10.00">functional</text>
</a>
</g>
</g>
<!-- Node13&#45;&gt;Node15 -->
<g id="edge18" class="edge">
<title>Node13&#45;&gt;Node15</title>
<path fill="none" stroke="midnightblue" d="M2263.38,-130.54C2291.17,-127.89 2323.6,-125.03 2353,-123 2762.62,-94.79 3259.41,-78.3 3406.81,-73.78"/>
<polygon fill="midnightblue" stroke="midnightblue" points="3407.32,-77.27 3417.21,-73.46 3407.11,-70.27 3407.32,-77.27"/>
</g>
<!-- Node13&#45;&gt;Node16 -->
<g id="edge19" class="edge">
<title>Node13&#45;&gt;Node16</title>
<path fill="none" stroke="midnightblue" d="M2182.05,-128.73C2166.15,-117.96 2138.95,-99.55 2120.03,-86.74"/>
<polygon fill="midnightblue" stroke="midnightblue" points="2121.98,-83.84 2111.74,-81.13 2118.06,-89.63 2121.98,-83.84"/>
</g>
<!-- Node14&#45;&gt;Node5 -->
<g id="edge16" class="edge">
<title>Node14&#45;&gt;Node5</title>
<path fill="none" stroke="midnightblue" d="M1950.87,-64.3C1985.5,-61.32 2028.49,-57.97 2067,-56 2814.12,-17.72 3725.62,-11.98 3946.88,-11.14"/>
<polygon fill="midnightblue" stroke="midnightblue" points="3946.91,-14.64 3956.9,-11.11 3946.88,-7.64 3946.91,-14.64"/>
</g>
<!-- Node14&#45;&gt;Node12 -->
<g id="edge15" class="edge">
<title>Node14&#45;&gt;Node12</title>
<path fill="none" stroke="midnightblue" d="M1905.2,-61.98C1930.37,-51.86 1972.54,-34.9 2001.28,-23.35"/>
<polygon fill="midnightblue" stroke="midnightblue" points="2002.86,-26.49 2010.83,-19.51 2000.25,-19.99 2002.86,-26.49"/>
</g>
<!-- Node18&#45;&gt;Node10 -->
<g id="edge35" class="edge">
<title>Node18&#45;&gt;Node10</title>
<path fill="none" stroke="midnightblue" d="M2266.62,-257.48C2281.86,-249.15 2305.58,-236.21 2325.29,-225.45"/>
<polygon fill="midnightblue" stroke="midnightblue" points="2327.21,-228.39 2334.31,-220.52 2323.86,-222.24 2327.21,-228.39"/>
</g>
<!-- Node18&#45;&gt;Node11 -->
<g id="edge24" class="edge">
<title>Node18&#45;&gt;Node11</title>
<path fill="none" stroke="midnightblue" d="M2253,-257.34C2257.25,-238.61 2267.18,-192.87 2272,-154 2274.37,-134.91 2275.63,-113.16 2276.29,-96.93"/>
<polygon fill="midnightblue" stroke="midnightblue" points="2279.8,-96.8 2276.66,-86.68 2272.8,-96.55 2279.8,-96.8"/>
</g>
<!-- Node18&#45;&gt;Node13 -->
<g id="edge23" class="edge">
<title>Node18&#45;&gt;Node13</title>
<path fill="none" stroke="midnightblue" d="M2247.15,-257.31C2238.08,-236.81 2215.21,-185.15 2202.99,-157.54"/>
<polygon fill="midnightblue" stroke="midnightblue" points="2206.12,-155.98 2198.88,-148.26 2199.72,-158.82 2206.12,-155.98"/>
</g>
<!-- Node18&#45;&gt;Node16 -->
<g id="edge36" class="edge">
<title>Node18&#45;&gt;Node16</title>
<path fill="none" stroke="midnightblue" d="M2235.02,-257.26C2206.72,-240.91 2147.98,-202.9 2118,-154 2106.1,-134.59 2101.65,-108.41 2099.99,-91.02"/>
<polygon fill="midnightblue" stroke="midnightblue" points="2103.48,-90.73 2099.25,-81.02 2096.5,-91.25 2103.48,-90.73"/>
</g>
<!-- Node18&#45;&gt;Node19 -->
<g id="edge25" class="edge">
<title>Node18&#45;&gt;Node19</title>
<path fill="none" stroke="midnightblue" d="M2161.43,-258.94C2012.52,-247.21 1716.47,-223.87 1574.93,-212.72"/>
<polygon fill="midnightblue" stroke="midnightblue" points="1574.84,-209.2 1564.6,-211.91 1574.29,-216.18 1574.84,-209.2"/>
</g>
<!-- Node19&#45;&gt;Node4 -->
<g id="edge26" class="edge">
<title>Node19&#45;&gt;Node4</title>
<path fill="none" stroke="midnightblue" d="M1560.28,-195.98C1578.58,-193.77 1598.55,-191.58 1617,-190 1706.22,-182.36 2310.94,-153.09 2522.27,-142.97"/>
<polygon fill="midnightblue" stroke="midnightblue" points="2522.51,-146.46 2532.34,-142.49 2522.18,-139.47 2522.51,-146.46"/>
</g>
<!-- Node19&#45;&gt;Node12 -->
<g id="edge32" class="edge">
<title>Node19&#45;&gt;Node12</title>
<path fill="none" stroke="midnightblue" d="M1509.02,-195.89C1533.18,-180.14 1586.86,-146.19 1635,-123 1709.66,-87.03 1729.44,-79.17 1809,-56 1868.05,-38.81 1937.78,-25.88 1983.34,-18.39"/>
<polygon fill="midnightblue" stroke="midnightblue" points="1983.94,-21.84 1993.25,-16.78 1982.82,-14.93 1983.94,-21.84"/>
</g>
<!-- Node19&#45;&gt;Node14 -->
<g id="edge29" class="edge">
<title>Node19&#45;&gt;Node14</title>
<path fill="none" stroke="midnightblue" d="M1520.31,-195.97C1548.77,-185.97 1597.34,-168.86 1639,-154 1677.27,-140.35 1686.52,-136.04 1725,-123 1766.21,-109.03 1813.81,-94.07 1846.11,-84.08"/>
<polygon fill="midnightblue" stroke="midnightblue" points="1847.51,-87.32 1856.03,-81.03 1845.45,-80.63 1847.51,-87.32"/>
</g>
<!-- Node20 -->
<g id="node20" class="node">
<title>Node20</title>
<g id="a_node20"><a xlink:href="_navigation_8hpp.html" target="_top" xlink:title=" ">
<polygon fill="none" stroke="red" points="1351.5,-123.5 1351.5,-153.5 1482.5,-153.5 1482.5,-123.5 1351.5,-123.5"/>
<text text-anchor="start" x="1359.5" y="-141.5" font-family="Helvetica,sans-Serif" font-size="10.00">polyfem/mesh/mesh2D</text>
<text text-anchor="middle" x="1417" y="-130.5" font-family="Helvetica,sans-Serif" font-size="10.00">/Navigation.hpp</text>
</a>
</g>
</g>
<!-- Node19&#45;&gt;Node20 -->
<g id="edge27" class="edge">
<title>Node19&#45;&gt;Node20</title>
<path fill="none" stroke="midnightblue" d="M1485.35,-195.73C1474.26,-186.61 1456.5,-172 1441.87,-159.96"/>
<polygon fill="midnightblue" stroke="midnightblue" points="1444.07,-157.24 1434.12,-153.59 1439.62,-162.65 1444.07,-157.24"/>
</g>
<!-- Node21 -->
<g id="node21" class="node">
<title>Node21</title>
<g id="a_node21"><a xlink:title=" ">
<polygon fill="none" stroke="#bfbfbf" points="1333.5,-62 1333.5,-81 1462.5,-81 1462.5,-62 1333.5,-62"/>
<text text-anchor="middle" x="1398" y="-69" font-family="Helvetica,sans-Serif" font-size="10.00">geogram/mesh/mesh.h</text>
</a>
</g>
</g>
<!-- Node19&#45;&gt;Node21 -->
<g id="edge33" class="edge">
<title>Node19&#45;&gt;Node21</title>
<path fill="none" stroke="midnightblue" d="M1427.41,-199.62C1396.36,-193.57 1362.34,-180.75 1343,-154 1326.4,-131.04 1354.44,-103.6 1376.22,-87.13"/>
<polygon fill="midnightblue" stroke="midnightblue" points="1378.38,-89.88 1384.44,-81.19 1374.28,-84.21 1378.38,-89.88"/>
</g>
<!-- Node23 -->
<g id="node22" class="node">
<title>Node23</title>
<g id="a_node22"><a xlink:href="_hash_utils_8hpp.html" target="_top" xlink:title=" ">
<polygon fill="none" stroke="red" points="1805,-129 1805,-148 1957,-148 1957,-129 1805,-129"/>
<text text-anchor="middle" x="1881" y="-136" font-family="Helvetica,sans-Serif" font-size="10.00">polyfem/utils/HashUtils.hpp</text>
</a>
</g>
</g>
<!-- Node19&#45;&gt;Node23 -->
<g id="edge30" class="edge">
<title>Node19&#45;&gt;Node23</title>
<path fill="none" stroke="midnightblue" d="M1544.71,-195.93C1555.96,-193.97 1567.9,-191.9 1579,-190 1662.09,-175.8 1758.12,-159.81 1819.18,-149.7"/>
<polygon fill="midnightblue" stroke="midnightblue" points="1820.12,-153.09 1829.41,-148.01 1818.98,-146.19 1820.12,-153.09"/>
</g>
<!-- Node19&#45;&gt;Node25 -->
<g id="edge34" class="edge">
<title>Node19&#45;&gt;Node25</title>
<path fill="none" stroke="midnightblue" d="M1541.13,-195.94C1553.39,-193.8 1566.68,-191.65 1579,-190 1750.22,-167.12 1797.75,-193.15 1966,-154 1969,-153.3 1972.08,-152.42 1975.12,-151.44"/>
<polygon fill="midnightblue" stroke="midnightblue" points="1976.35,-154.72 1984.6,-148.07 1974,-148.13 1976.35,-154.72"/>
</g>
<!-- Node20&#45;&gt;Node21 -->
<g id="edge28" class="edge">
<title>Node20&#45;&gt;Node21</title>
<path fill="none" stroke="midnightblue" d="M1412.88,-123.4C1410.09,-113.86 1406.38,-101.18 1403.37,-90.86"/>
<polygon fill="midnightblue" stroke="midnightblue" points="1406.71,-89.81 1400.54,-81.19 1399.99,-91.77 1406.71,-89.81"/>
</g>
<!-- Node23&#45;&gt;Node16 -->
<g id="edge31" class="edge">
<title>Node23&#45;&gt;Node16</title>
<path fill="none" stroke="midnightblue" d="M1909.95,-128.87C1950.27,-116.85 2023.15,-95.12 2065.68,-82.44"/>
<polygon fill="midnightblue" stroke="midnightblue" points="2066.7,-85.78 2075.29,-79.57 2064.7,-79.07 2066.7,-85.78"/>
</g>
<!-- Node26&#45;&gt;Node5 -->
<g id="edge42" class="edge">
<title>Node26&#45;&gt;Node5</title>
<path fill="none" stroke="midnightblue" d="M4138.02,-128.82C4130.25,-112.65 4111.63,-77.62 4087,-56 4070.94,-41.9 4049.67,-31 4031.85,-23.46"/>
<polygon fill="midnightblue" stroke="midnightblue" points="4032.93,-20.13 4022.35,-19.62 4030.31,-26.61 4032.93,-20.13"/>
</g>
<!-- Node26&#45;&gt;Node12 -->
<g id="edge41" class="edge">
<title>Node26&#45;&gt;Node12</title>
<path fill="none" stroke="midnightblue" d="M4129.15,-128.9C4101.84,-111.19 4035.39,-71.02 3973,-56 3784.33,-10.58 2364.41,-10.46 2081.09,-10.9"/>
<polygon fill="midnightblue" stroke="midnightblue" points="2080.73,-7.4 2070.73,-10.91 2080.74,-14.4 2080.73,-7.4"/>
</g>
<!-- Node26&#45;&gt;Node14 -->
<g id="edge40" class="edge">
<title>Node26&#45;&gt;Node14</title>
<path fill="none" stroke="midnightblue" d="M4062.31,-137.13C3786.04,-135.51 2843.87,-127.2 2067,-87 2032.25,-85.2 1993.85,-82.3 1961.24,-79.56"/>
<polygon fill="midnightblue" stroke="midnightblue" points="1961.13,-76.04 1950.87,-78.68 1960.54,-83.02 1961.13,-76.04"/>
</g>
<!-- Node28&#45;&gt;Node5 -->
<g id="edge64" class="edge">
<title>Node28&#45;&gt;Node5</title>
<path fill="none" stroke="midnightblue" d="M3224.29,-450.39C3239.71,-449.24 3255.89,-448.06 3271,-447 3517.58,-429.76 3586.79,-473.3 3826,-411 3907.47,-389.78 3997,-413.69 3997,-329.5 3997,-329.5 3997,-329.5 3997,-137.5 3997,-99.2 3997,-54.38 3997,-29.7"/>
<polygon fill="midnightblue" stroke="midnightblue" points="4000.5,-29.59 3997,-19.59 3993.5,-29.59 4000.5,-29.59"/>
</g>
<!-- Node28&#45;&gt;Node8 -->
<g id="edge50" class="edge">
<title>Node28&#45;&gt;Node8</title>
<path fill="none" stroke="midnightblue" d="M3121.49,-447.48C3085.38,-437.05 3024.15,-419.36 2984.15,-407.81"/>
<polygon fill="midnightblue" stroke="midnightblue" points="2985.04,-404.42 2974.46,-405.01 2983.1,-411.15 2985.04,-404.42"/>
</g>
<!-- Node28&#45;&gt;Node9 -->
<g id="edge49" class="edge">
<title>Node28&#45;&gt;Node9</title>
<path fill="none" stroke="midnightblue" d="M3077.9,-452.46C2962.61,-446.28 2748.74,-432.11 2721,-411 2703.12,-397.39 2695.22,-372.33 2691.73,-353.57"/>
<polygon fill="midnightblue" stroke="midnightblue" points="2695.19,-353 2690.18,-343.66 2688.27,-354.08 2695.19,-353"/>
</g>
<!-- Node28&#45;&gt;Node16 -->
<g id="edge65" class="edge">
<title>Node28&#45;&gt;Node16</title>
<path fill="none" stroke="midnightblue" d="M3145.64,-447.36C3136.19,-432.52 3115.41,-401.71 3093,-380 3057.7,-345.81 2779.26,-139.6 2733,-123 2623.76,-83.81 2327.49,-98.39 2212,-87 2185.32,-84.37 2155.22,-80.46 2132.79,-77.36"/>
<polygon fill="midnightblue" stroke="midnightblue" points="2133.15,-73.88 2122.76,-75.96 2132.18,-80.81 2133.15,-73.88"/>
</g>
<!-- Node28&#45;&gt;Node17 -->
<g id="edge66" class="edge">
<title>Node28&#45;&gt;Node17</title>
<path fill="none" stroke="midnightblue" d="M3212.43,-447.45C3255.52,-440.1 3307.86,-427.99 3322,-411 3385.75,-334.39 3361.95,-252.1 3284,-190 3252.03,-164.52 2976.48,-147.27 2871.44,-141.57"/>
<polygon fill="midnightblue" stroke="midnightblue" points="2871.41,-138.06 2861.24,-141.02 2871.04,-145.05 2871.41,-138.06"/>
</g>
<!-- Node28&#45;&gt;Node25 -->
<g id="edge68" class="edge">
<title>Node28&#45;&gt;Node25</title>
<path fill="none" stroke="midnightblue" d="M3077.86,-455.95C2986.71,-454.27 2826.88,-445.96 2695,-411 2532.69,-367.98 2506.33,-318.29 2350,-257 2239.56,-213.7 2105.85,-170.97 2041.79,-151.07"/>
<polygon fill="midnightblue" stroke="midnightblue" points="2042.71,-147.69 2032.12,-148.08 2040.64,-154.38 2042.71,-147.69"/>
</g>
<!-- Node28&#45;&gt;Node27 -->
<g id="edge67" class="edge">
<title>Node28&#45;&gt;Node27</title>
<path fill="none" stroke="midnightblue" d="M3148.67,-447.11C3144.94,-432.91 3137.41,-404.27 3131,-380 3116.12,-323.65 3098.43,-257.03 3089.98,-225.22"/>
<polygon fill="midnightblue" stroke="midnightblue" points="3093.25,-223.93 3087.3,-215.16 3086.49,-225.73 3093.25,-223.93"/>
</g>
<!-- Node29 -->
<g id="node27" class="node">
<title>Node29</title>
<g id="a_node27"><a xlink:href="_elasticity_utils_8hpp.html" target="_top" xlink:title=" ">
<polygon fill="none" stroke="red" points="2121.5,-380.5 2121.5,-410.5 2250.5,-410.5 2250.5,-380.5 2121.5,-380.5"/>
<text text-anchor="start" x="2129.5" y="-398.5" font-family="Helvetica,sans-Serif" font-size="10.00">polyfem/utils/Elasticity</text>
<text text-anchor="middle" x="2186" y="-387.5" font-family="Helvetica,sans-Serif" font-size="10.00">Utils.hpp</text>
</a>
</g>
</g>
<!-- Node28&#45;&gt;Node29 -->
<g id="edge51" class="edge">
<title>Node28&#45;&gt;Node29</title>
<path fill="none" stroke="midnightblue" d="M3077.68,-451.48C2898.73,-440.45 2441.13,-412.23 2260.73,-401.11"/>
<polygon fill="midnightblue" stroke="midnightblue" points="2260.74,-397.6 2250.54,-400.48 2260.31,-404.59 2260.74,-397.6"/>
</g>
<!-- Node29&#45;&gt;Node4 -->
<g id="edge52" class="edge">
<title>Node29&#45;&gt;Node4</title>
<path fill="none" stroke="midnightblue" d="M2207.64,-380.33C2248.67,-353.84 2341.09,-295.99 2424,-257 2465.61,-237.43 2482.9,-246.76 2521,-221 2546.89,-203.5 2569.89,-175.11 2583.14,-156.88"/>
<polygon fill="midnightblue" stroke="midnightblue" points="2586.23,-158.57 2589.14,-148.38 2580.51,-154.53 2586.23,-158.57"/>
</g>
<!-- Node29&#45;&gt;Node9 -->
<g id="edge53" class="edge">
<title>Node29&#45;&gt;Node9</title>
<path fill="none" stroke="midnightblue" d="M2250.61,-382.3C2255.48,-381.48 2260.31,-380.71 2265,-380 2380.98,-362.47 2515.58,-347.31 2601.46,-338.3"/>
<polygon fill="midnightblue" stroke="midnightblue" points="2601.85,-341.78 2611.43,-337.26 2601.12,-334.82 2601.85,-341.78"/>
</g>
<!-- Node29&#45;&gt;Node12 -->
<g id="edge60" class="edge">
<title>Node29&#45;&gt;Node12</title>
<path fill="none" stroke="midnightblue" d="M2141.6,-380.45C2053.86,-353.12 1851.68,-292.43 1678,-257 1564.13,-233.77 1526.04,-266.26 1419,-221 1374.37,-202.13 1356.82,-196.19 1333,-154 1318.26,-127.88 1326.78,-116.94 1325,-87 1324.18,-73.25 1315.57,-66.05 1325,-56 1347.52,-32 1826.8,-16.67 1983.15,-12.29"/>
<polygon fill="midnightblue" stroke="midnightblue" points="1983.51,-15.79 1993.41,-12.01 1983.31,-8.79 1983.51,-15.79"/>
</g>
<!-- Node29&#45;&gt;Node14 -->
<g id="edge59" class="edge">
<title>Node29&#45;&gt;Node14</title>
<path fill="none" stroke="midnightblue" d="M2166.87,-380.46C2143.96,-363.81 2104.27,-335.5 2069,-313 1950.63,-237.48 1865.98,-275.73 1796,-154 1789.13,-142.06 1789.1,-134.92 1796,-123 1806.52,-104.83 1826.33,-92.63 1844.49,-84.78"/>
<polygon fill="midnightblue" stroke="midnightblue" points="1845.8,-88.03 1853.78,-81.06 1843.2,-81.53 1845.8,-88.03"/>
</g>
<!-- Node29&#45;&gt;Node15 -->
<g id="edge63" class="edge">
<title>Node29&#45;&gt;Node15</title>
<path fill="none" stroke="midnightblue" d="M2183.68,-380.46C2180.79,-364.06 2175.34,-336.21 2168,-313 2162.78,-296.47 2156.4,-294 2153,-277 2151.26,-268.28 2148.54,-264.69 2153,-257 2196.96,-181.16 2437.41,-136.64 2524,-123 2697.54,-95.67 3248.15,-78.24 3406.82,-73.69"/>
<polygon fill="midnightblue" stroke="midnightblue" points="3407.23,-77.18 3417.13,-73.4 3407.03,-70.18 3407.23,-77.18"/>
</g>
<!-- Node29&#45;&gt;Node16 -->
<g id="edge61" class="edge">
<title>Node29&#45;&gt;Node16</title>
<path fill="none" stroke="midnightblue" d="M2180.68,-380.39C2173.91,-363.43 2161.11,-334.57 2145,-313 2109.25,-265.14 2070.73,-275.83 2047,-221 2026.73,-174.18 2063.72,-116.62 2085.21,-88.93"/>
<polygon fill="midnightblue" stroke="midnightblue" points="2088.01,-91.02 2091.55,-81.04 2082.55,-86.64 2088.01,-91.02"/>
</g>
<!-- Node29&#45;&gt;Node18 -->
<g id="edge54" class="edge">
<title>Node29&#45;&gt;Node18</title>
<path fill="none" stroke="midnightblue" d="M2197.03,-380.48C2204.43,-370.64 2214.06,-356.98 2221,-344 2231.11,-325.1 2239.74,-302.03 2245.11,-286.3"/>
<polygon fill="midnightblue" stroke="midnightblue" points="2248.46,-287.31 2248.29,-276.72 2241.82,-285.11 2248.46,-287.31"/>
</g>
<!-- Node31 -->
<g id="node28" class="node">
<title>Node31</title>
<g id="a_node28"><a xlink:href="_autodiff_types_8hpp.html" target="_top" xlink:title=" ">
<polygon fill="none" stroke="black" points="2784.5,-319 2784.5,-338 2955.5,-338 2955.5,-319 2784.5,-319"/>
<text text-anchor="middle" x="2870" y="-326" font-family="Helvetica,sans-Serif" font-size="10.00">polyfem/utils/AutodiffTypes.hpp</text>
</a>
</g>
</g>
<!-- Node29&#45;&gt;Node31 -->
<g id="edge55" class="edge">
<title>Node29&#45;&gt;Node31</title>
<path fill="none" stroke="midnightblue" d="M2250.58,-382.04C2255.45,-381.29 2260.3,-380.6 2265,-380 2490.87,-351.4 2549.74,-369.38 2776,-344 2786.93,-342.77 2798.54,-341.2 2809.73,-339.55"/>
<polygon fill="midnightblue" stroke="midnightblue" points="2810.49,-342.98 2819.86,-338.02 2809.44,-336.06 2810.49,-342.98"/>
</g>
<!-- Node35 -->
<g id="node30" class="node">
<title>Node35</title>
<g id="a_node30"><a xlink:title=" ">
<polygon fill="none" stroke="#bfbfbf" points="1704,-319 1704,-338 1746,-338 1746,-319 1704,-319"/>
<text text-anchor="middle" x="1725" y="-326" font-family="Helvetica,sans-Serif" font-size="10.00">array</text>
</a>
</g>
</g>
<!-- Node29&#45;&gt;Node35 -->
<g id="edge62" class="edge">
<title>Node29&#45;&gt;Node35</title>
<path fill="none" stroke="midnightblue" d="M2121.41,-385.39C2021.04,-371.24 1831.36,-344.5 1756.51,-333.94"/>
<polygon fill="midnightblue" stroke="midnightblue" points="1756.72,-330.44 1746.33,-332.51 1755.74,-337.37 1756.72,-330.44"/>
</g>
<!-- Node31&#45;&gt;Node14 -->
<g id="edge56" class="edge">
<title>Node31&#45;&gt;Node14</title>
<path fill="none" stroke="midnightblue" d="M2862.89,-318.85C2833.1,-282.86 2717.6,-145.87 2667,-123 2545.28,-67.99 2200.25,-96.28 2067,-87 2032.29,-84.58 1993.9,-81.59 1961.28,-78.95"/>
<polygon fill="midnightblue" stroke="midnightblue" points="1961.15,-75.43 1950.9,-78.11 1960.59,-82.41 1961.15,-75.43"/>
</g>
<!-- Node32 -->
<g id="node29" class="node">
<title>Node32</title>
<g id="a_node29"><a xlink:href="autodiff_8h.html" target="_top" xlink:title=" ">
<polygon fill="none" stroke="red" points="2969.5,-257.5 2969.5,-276.5 3032.5,-276.5 3032.5,-257.5 2969.5,-257.5"/>
<text text-anchor="middle" x="3001" y="-264.5" font-family="Helvetica,sans-Serif" font-size="10.00">autodiff.h</text>
</a>
</g>
</g>
<!-- Node31&#45;&gt;Node32 -->
<g id="edge57" class="edge">
<title>Node31&#45;&gt;Node32</title>
<path fill="none" stroke="midnightblue" d="M2888.77,-318.98C2910.85,-308.95 2947.72,-292.2 2973.14,-280.65"/>
<polygon fill="midnightblue" stroke="midnightblue" points="2974.61,-283.83 2982.27,-276.51 2971.71,-277.46 2974.61,-283.83"/>
</g>
<!-- Node32&#45;&gt;Node27 -->
<g id="edge58" class="edge">
<title>Node32&#45;&gt;Node27</title>
<path fill="none" stroke="midnightblue" d="M3013.04,-257.48C3026.51,-247.93 3048.57,-232.31 3064.72,-220.87"/>
<polygon fill="midnightblue" stroke="midnightblue" points="3066.85,-223.65 3072.99,-215.01 3062.8,-217.93 3066.85,-223.65"/>
</g>
<!-- Node36&#45;&gt;Node4 -->
<g id="edge70" class="edge">
<title>Node36&#45;&gt;Node4</title>
<path fill="none" stroke="midnightblue" d="M1984.95,-385.87C1985.25,-370.1 1987.77,-336.11 2003,-313 2026.49,-277.37 2041.06,-272.03 2081,-257 2235.22,-198.96 2295.84,-279.19 2450,-221 2472.04,-212.68 2472.82,-202.16 2493,-190 2516.82,-175.65 2545.27,-161.82 2566.06,-152.27"/>
<polygon fill="midnightblue" stroke="midnightblue" points="2567.66,-155.39 2575.32,-148.07 2564.77,-149.02 2567.66,-155.39"/>
</g>
<!-- Node36&#45;&gt;Node9 -->
<g id="edge72" class="edge">
<title>Node36&#45;&gt;Node9</title>
<path fill="none" stroke="midnightblue" d="M2027.06,-389.46C2052.02,-386.54 2084.29,-382.88 2113,-380 2285.82,-362.64 2488.16,-345.68 2601.16,-336.5"/>
<polygon fill="midnightblue" stroke="midnightblue" points="2601.46,-339.99 2611.15,-335.7 2600.9,-333.01 2601.46,-339.99"/>
</g>
<!-- Node36&#45;&gt;Node12 -->
<g id="edge73" class="edge">
<title>Node36&#45;&gt;Node12</title>
<path fill="none" stroke="midnightblue" d="M1970.58,-385.77C1943.23,-369.53 1881.59,-334.38 1826,-313 1735.84,-278.33 1710.73,-275.89 1616,-257 1497.71,-233.41 1456.75,-271.04 1347,-221 1273.54,-187.5 1215.62,-114.75 1271,-56 1295.47,-30.04 1818.68,-15.89 1983.04,-12.07"/>
<polygon fill="midnightblue" stroke="midnightblue" points="1983.43,-15.56 1993.34,-11.83 1983.27,-8.56 1983.43,-15.56"/>
</g>
<!-- Node36&#45;&gt;Node31 -->
<g id="edge71" class="edge">
<title>Node36&#45;&gt;Node31</title>
<path fill="none" stroke="midnightblue" d="M2027.02,-389.11C2051.97,-386.07 2084.25,-382.41 2113,-380 2407.07,-355.38 2482.48,-374.53 2776,-344 2787.31,-342.82 2799.33,-341.23 2810.86,-339.53"/>
<polygon fill="midnightblue" stroke="midnightblue" points="2811.48,-342.98 2820.85,-338.02 2810.43,-336.06 2811.48,-342.98"/>
</g>
<!-- Node37&#45;&gt;Node4 -->
<g id="edge75" class="edge">
<title>Node37&#45;&gt;Node4</title>
<path fill="none" stroke="midnightblue" d="M3263.8,-385.91C3251.19,-353.44 3201.55,-237.69 3118,-190 3098.74,-179 2806.82,-155.56 2667.7,-144.94"/>
<polygon fill="midnightblue" stroke="midnightblue" points="2667.78,-141.43 2657.55,-144.17 2667.25,-148.41 2667.78,-141.43"/>
</g>
<!-- Node37&#45;&gt;Node9 -->
<g id="edge76" class="edge">
<title>Node37&#45;&gt;Node9</title>
<path fill="none" stroke="midnightblue" d="M3220.85,-390.73C3135.42,-383.53 2946.62,-366.63 2776.87,-344.06"/>
<polygon fill="midnightblue" stroke="midnightblue" points="2777.13,-340.56 2766.75,-342.71 2776.2,-347.5 2777.13,-340.56"/>
</g>
<!-- Node37&#45;&gt;Node12 -->
<g id="edge79" class="edge">
<title>Node37&#45;&gt;Node12</title>
<path fill="none" stroke="midnightblue" d="M3278.26,-385.69C3308.46,-360.96 3389,-287.43 3389,-206.5 3389,-206.5 3389,-206.5 3389,-137.5 3389,81.52 3120.72,-79.8 2903,-56 2591.21,-21.92 2213.73,-13.53 2081,-11.57"/>
<polygon fill="midnightblue" stroke="midnightblue" points="2080.81,-8.06 2070.76,-11.42 2080.71,-15.06 2080.81,-8.06"/>
</g>
<!-- Node37&#45;&gt;Node15 -->
<g id="edge80" class="edge">
<title>Node37&#45;&gt;Node15</title>
<path fill="none" stroke="midnightblue" d="M3313.17,-386.14C3371.68,-372.57 3465,-339.69 3465,-268 3465,-268 3465,-268 3465,-204.5 3465,-163.9 3457.91,-116.72 3453.48,-91.21"/>
<polygon fill="midnightblue" stroke="midnightblue" points="3456.88,-90.33 3451.66,-81.11 3449.99,-91.57 3456.88,-90.33"/>
</g>
<!-- Node37&#45;&gt;Node18 -->
<g id="edge77" class="edge">
<title>Node37&#45;&gt;Node18</title>
<path fill="none" stroke="midnightblue" d="M3241.92,-385.89C3190.64,-368.69 3069.76,-330.26 2965,-313 2748,-277.25 2489.6,-269.43 2350.88,-268"/>
<polygon fill="midnightblue" stroke="midnightblue" points="2350.73,-264.5 2340.7,-267.91 2350.66,-271.5 2350.73,-264.5"/>
</g>
<!-- Node37&#45;&gt;Node31 -->
<g id="edge78" class="edge">
<title>Node37&#45;&gt;Node31</title>
<path fill="none" stroke="midnightblue" d="M3220.68,-386.92C3149.19,-375.21 3011.86,-352.73 2931.91,-339.64"/>
<polygon fill="midnightblue" stroke="midnightblue" points="2932.42,-336.17 2921.98,-338.01 2931.28,-343.08 2932.42,-336.17"/>
</g>
<!-- Node38&#45;&gt;Node4 -->
<g id="edge82" class="edge">
<title>Node38&#45;&gt;Node4</title>
<path fill="none" stroke="midnightblue" d="M3542.96,-385.9C3500.68,-368.83 3406.27,-327.88 3337,-277 3293.18,-244.81 3300.33,-212.86 3251,-190 3247.72,-188.48 2837.73,-157.66 2667.65,-144.93"/>
<polygon fill="midnightblue" stroke="midnightblue" points="2667.76,-141.43 2657.53,-144.17 2667.24,-148.41 2667.76,-141.43"/>
</g>
<!-- Node38&#45;&gt;Node9 -->
<g id="edge84" class="edge">
<title>Node38&#45;&gt;Node9</title>
<path fill="none" stroke="midnightblue" d="M3520.74,-391.79C3367.51,-382.4 2864.61,-351.44 2776.74,-343.82"/>
<polygon fill="midnightblue" stroke="midnightblue" points="2777.02,-340.33 2766.73,-342.86 2776.35,-347.3 2777.02,-340.33"/>
</g>
<!-- Node38&#45;&gt;Node12 -->
<g id="edge85" class="edge">
<title>Node38&#45;&gt;Node12</title>
<path fill="none" stroke="midnightblue" d="M3560.58,-385.76C3547.68,-359.41 3511,-278.15 3511,-206.5 3511,-206.5 3511,-206.5 3511,-137.5 3511,-100.31 3520.77,-79.57 3492,-56 3436.25,-10.33 2327.93,-10.29 2080.64,-10.85"/>
<polygon fill="midnightblue" stroke="midnightblue" points="2080.51,-7.35 2070.52,-10.87 2080.53,-14.35 2080.51,-7.35"/>
</g>
<!-- Node38&#45;&gt;Node31 -->
<g id="edge83" class="edge">
<title>Node38&#45;&gt;Node31</title>
<path fill="none" stroke="midnightblue" d="M3521,-390.38C3410.38,-380.04 3118.64,-352.75 2966.07,-338.48"/>
<polygon fill="midnightblue" stroke="midnightblue" points="2966.06,-334.97 2955.77,-337.52 2965.4,-341.94 2966.06,-334.97"/>
</g>
<!-- Node39&#45;&gt;Node4 -->
<g id="edge87" class="edge">
<title>Node39&#45;&gt;Node4</title>
<path fill="none" stroke="midnightblue" d="M2356.22,-447.41C2358.64,-432.65 2365.03,-401.95 2379,-380 2435.06,-291.9 2488.26,-303.72 2552,-221 2567.36,-201.06 2580.09,-174.84 2587.61,-157.6"/>
<polygon fill="midnightblue" stroke="midnightblue" points="2590.93,-158.73 2591.6,-148.16 2584.48,-156.01 2590.93,-158.73"/>
</g>
<!-- Node39&#45;&gt;Node9 -->
<g id="edge88" class="edge">
<title>Node39&#45;&gt;Node9</title>
<path fill="none" stroke="midnightblue" d="M2377.69,-447.4C2431.93,-426.86 2569.96,-374.58 2642.64,-347.06"/>
<polygon fill="midnightblue" stroke="midnightblue" points="2643.9,-350.32 2652.02,-343.51 2641.42,-343.78 2643.9,-350.32"/>
</g>
<!-- Node39&#45;&gt;Node12 -->
<g id="edge92" class="edge">
<title>Node39&#45;&gt;Node12</title>
<path fill="none" stroke="midnightblue" d="M2299.43,-453.14C2201.01,-447.56 2000.22,-433.75 1934,-411 1880.58,-392.65 1871.98,-376.81 1826,-344 1808.26,-331.34 1807.77,-322.17 1788,-313 1686.7,-266.02 1387.91,-281.41 1294,-221 1263.41,-201.32 1257.95,-188.69 1247,-154 1241.26,-135.83 1237.14,-67.33 1248,-56 1273.51,-29.38 1815.83,-15.62 1983.23,-11.99"/>
<polygon fill="midnightblue" stroke="midnightblue" points="1983.32,-15.49 1993.24,-11.77 1983.17,-8.49 1983.32,-15.49"/>
</g>
<!-- Node39&#45;&gt;Node15 -->
<g id="edge93" class="edge">
<title>Node39&#45;&gt;Node15</title>
<path fill="none" stroke="midnightblue" d="M2367.27,-447.25C2402.34,-422.61 2506.7,-351.95 2603,-313 2901.07,-192.44 3281.12,-107.64 3407.22,-81.22"/>
<polygon fill="midnightblue" stroke="midnightblue" points="3408.17,-84.6 3417.24,-79.13 3406.74,-77.74 3408.17,-84.6"/>
</g>
<!-- Node39&#45;&gt;Node18 -->
<g id="edge89" class="edge">
<title>Node39&#45;&gt;Node18</title>
<path fill="none" stroke="midnightblue" d="M2350.26,-447.43C2334.32,-418.62 2282.44,-324.84 2260.71,-285.56"/>
<polygon fill="midnightblue" stroke="midnightblue" points="2263.67,-283.67 2255.77,-276.62 2257.54,-287.06 2263.67,-283.67"/>
</g>
<!-- Node39&#45;&gt;Node29 -->
<g id="edge90" class="edge">
<title>Node39&#45;&gt;Node29</title>
<path fill="none" stroke="midnightblue" d="M2330.79,-447.48C2305.97,-438.74 2266.69,-424.91 2235.29,-413.86"/>
<polygon fill="midnightblue" stroke="midnightblue" points="2236.42,-410.54 2225.83,-410.52 2234.1,-417.15 2236.42,-410.54"/>
</g>
<!-- Node39&#45;&gt;Node31 -->
<g id="edge91" class="edge">
<title>Node39&#45;&gt;Node31</title>
<path fill="none" stroke="midnightblue" d="M2389.99,-447.4C2480.94,-425.07 2724.65,-365.2 2825.43,-340.45"/>
<polygon fill="midnightblue" stroke="midnightblue" points="2826.42,-343.81 2835.3,-338.02 2824.75,-337.01 2826.42,-343.81"/>
</g>
<!-- Node40&#45;&gt;Node4 -->
<g id="edge95" class="edge">
<title>Node40&#45;&gt;Node4</title>
<path fill="none" stroke="midnightblue" d="M2525.66,-447.43C2525.3,-433.22 2525.4,-403.95 2531,-380 2548.41,-305.49 2582.04,-296.04 2597,-221 2601.23,-199.8 2599.7,-174.88 2597.78,-158.23"/>
<polygon fill="midnightblue" stroke="midnightblue" points="2601.23,-157.63 2596.45,-148.17 2594.29,-158.54 2601.23,-157.63"/>
</g>
<!-- Node40&#45;&gt;Node9 -->
<g id="edge97" class="edge">
<title>Node40&#45;&gt;Node9</title>
<path fill="none" stroke="midnightblue" d="M2537.2,-447.31C2562.84,-427.41 2626.35,-378.12 2662.57,-350.01"/>
<polygon fill="midnightblue" stroke="midnightblue" points="2664.97,-352.58 2670.73,-343.68 2660.68,-347.05 2664.97,-352.58"/>
</g>
<!-- Node40&#45;&gt;Node12 -->
<g id="edge100" class="edge">
<title>Node40&#45;&gt;Node12</title>
<path fill="none" stroke="midnightblue" d="M2528.83,-447.27C2536.96,-423.29 2562.43,-355.36 2603,-313 2703.74,-207.81 2956,-240.54 2870,-123 2811.9,-43.59 2755.63,-74.54 2659,-56 2446.36,-15.2 2186.74,-10.61 2080.66,-10.61"/>
<polygon fill="midnightblue" stroke="midnightblue" points="2080.57,-7.11 2070.58,-10.63 2080.58,-14.11 2080.57,-7.11"/>
</g>
<!-- Node40&#45;&gt;Node18 -->
<g id="edge98" class="edge">
<title>Node40&#45;&gt;Node18</title>
<path fill="none" stroke="midnightblue" d="M2513.47,-447.43C2470.16,-417.83 2326.5,-319.61 2272.11,-282.43"/>
<polygon fill="midnightblue" stroke="midnightblue" points="2273.83,-279.37 2263.6,-276.62 2269.88,-285.15 2273.83,-279.37"/>
</g>
<!-- Node40&#45;&gt;Node29 -->
<g id="edge96" class="edge">
<title>Node40&#45;&gt;Node29</title>
<path fill="none" stroke="midnightblue" d="M2477.29,-447.48C2420.61,-437.56 2326.41,-421.07 2260.52,-409.54"/>
<polygon fill="midnightblue" stroke="midnightblue" points="2261.06,-406.08 2250.61,-407.81 2259.86,-412.98 2261.06,-406.08"/>
</g>
<!-- Node40&#45;&gt;Node31 -->
<g id="edge99" class="edge">
<title>Node40&#45;&gt;Node31</title>
<path fill="none" stroke="midnightblue" d="M2597.19,-455.1C2651.81,-451.8 2727.66,-441.4 2787,-411 2817.26,-395.5 2843.61,-365.14 2858.11,-346.17"/>
<polygon fill="midnightblue" stroke="midnightblue" points="2860.94,-348.24 2864.08,-338.12 2855.31,-344.07 2860.94,-348.24"/>
</g>
<!-- Node40&#45;&gt;Node35 -->
<g id="edge101" class="edge">
<title>Node40&#45;&gt;Node35</title>
<path fill="none" stroke="midnightblue" d="M2454.74,-449.84C2443.13,-448.87 2431.23,-447.89 2420,-447 2204.09,-429.84 2145.23,-458.87 1934,-411 1865.37,-395.45 1789.5,-361.25 1750.8,-342.47"/>
<polygon fill="midnightblue" stroke="midnightblue" points="1752.31,-339.31 1741.79,-338.05 1749.23,-345.6 1752.31,-339.31"/>
</g>
<!-- Node41&#45;&gt;Node4 -->
<g id="edge103" class="edge">
<title>Node41&#45;&gt;Node4</title>
<path fill="none" stroke="midnightblue" d="M688.37,-447.41C678.91,-431.82 662.51,-398.73 680,-380 719.83,-337.34 1146.19,-352 1204,-344 1535.04,-298.22 1609.15,-237.17 1940,-190 2150.1,-160.05 2400.83,-146.96 2522.12,-142.04"/>
<polygon fill="midnightblue" stroke="midnightblue" points="2522.54,-145.53 2532.39,-141.63 2522.26,-138.53 2522.54,-145.53"/>
</g>
<!-- Node41&#45;&gt;Node9 -->
<g id="edge105" class="edge">
<title>Node41&#45;&gt;Node9</title>
<path fill="none" stroke="midnightblue" d="M703.45,-447.5C722.73,-430.77 768.7,-394.01 815,-380 901.3,-353.88 2242.63,-335.14 2601.35,-330.57"/>
<polygon fill="midnightblue" stroke="midnightblue" points="2601.46,-334.07 2611.42,-330.45 2601.38,-327.07 2601.46,-334.07"/>
</g>
<!-- Node41&#45;&gt;Node12 -->
<g id="edge109" class="edge">
<title>Node41&#45;&gt;Node12</title>
<path fill="none" stroke="midnightblue" d="M623.92,-453.7C482.89,-448.6 174.65,-434.86 133,-411 94.65,-389.03 76,-373.7 76,-329.5 76,-329.5 76,-329.5 76,-137.5 76,-38.87 1680.72,-15.13 1983.16,-11.53"/>
<polygon fill="midnightblue" stroke="midnightblue" points="1983.41,-15.03 1993.37,-11.41 1983.33,-8.03 1983.41,-15.03"/>
</g>
<!-- Node41&#45;&gt;Node14 -->
<g id="edge108" class="edge">
<title>Node41&#45;&gt;Node14</title>
<path fill="none" stroke="midnightblue" d="M623.83,-447.46C601.68,-441.07 579.48,-430.03 566,-411 558.04,-399.76 557.93,-391.17 566,-380 779.02,-85.17 986.98,-197.49 1343,-123 1506.08,-88.88 1701.64,-77.8 1807.25,-74.21"/>
<polygon fill="midnightblue" stroke="midnightblue" points="1807.61,-77.7 1817.49,-73.88 1807.38,-70.71 1807.61,-77.7"/>
</g>
<!-- Node41&#45;&gt;Node18 -->
<g id="edge106" class="edge">
<title>Node41&#45;&gt;Node18</title>
<path fill="none" stroke="midnightblue" d="M690.77,-447.29C685.54,-431.5 677.46,-398.1 695,-380 725.91,-348.08 1449.83,-348.8 1494,-344 1574.27,-335.28 1592.89,-323.03 1673,-313 1839.99,-292.09 2035.41,-279.3 2150.89,-272.94"/>
<polygon fill="midnightblue" stroke="midnightblue" points="2151.33,-276.42 2161.13,-272.38 2150.95,-269.43 2151.33,-276.42"/>
</g>
<!-- Node41&#45;&gt;Node29 -->
<g id="edge104" class="edge">
<title>Node41&#45;&gt;Node29</title>
<path fill="none" stroke="midnightblue" d="M764.29,-455.2C963.71,-452.59 1550.1,-442.6 2036,-411 2060.56,-409.4 2087.32,-407.02 2111.35,-404.65"/>
<polygon fill="midnightblue" stroke="midnightblue" points="2111.87,-408.11 2121.47,-403.63 2111.17,-401.15 2111.87,-408.11"/>
</g>
<!-- Node41&#45;&gt;Node31 -->
<g id="edge107" class="edge">
<title>Node41&#45;&gt;Node31</title>
<path fill="none" stroke="midnightblue" d="M719.02,-447.4C740,-439.58 770.25,-426.85 794,-411 810.74,-399.83 808.36,-387.58 827,-380 927.32,-339.2 2668.1,-353.28 2776,-344 2787.95,-342.97 2800.69,-341.36 2812.81,-339.58"/>
<polygon fill="midnightblue" stroke="midnightblue" points="2813.45,-343.02 2822.81,-338.05 2812.4,-336.1 2813.45,-343.02"/>
</g>
<!-- Node41&#45;&gt;Node35 -->
<g id="edge110" class="edge">
<title>Node41&#45;&gt;Node35</title>
<path fill="none" stroke="midnightblue" d="M693.79,-447.15C693.94,-430.81 696.88,-396.11 718,-380 759.28,-348.5 1600.43,-350.08 1652,-344 1665.87,-342.37 1681.05,-339.53 1693.95,-336.79"/>
<polygon fill="midnightblue" stroke="midnightblue" points="1694.72,-340.2 1703.74,-334.64 1693.22,-333.37 1694.72,-340.2"/>
</g>
<!-- Node42&#45;&gt;Node4 -->
<g id="edge112" class="edge">
<title>Node42&#45;&gt;Node4</title>
<path fill="none" stroke="midnightblue" d="M1577.75,-447.37C1591.81,-439.45 1611.68,-426.6 1625,-411 1656.49,-374.12 1634.66,-342.71 1673,-313 1806.52,-209.53 2328.92,-159.83 2522.4,-144.7"/>
<polygon fill="midnightblue" stroke="midnightblue" points="2522.77,-148.18 2532.47,-143.92 2522.23,-141.2 2522.77,-148.18"/>
</g>
<!-- Node42&#45;&gt;Node9 -->
<g id="edge120" class="edge">
<title>Node42&#45;&gt;Node9</title>
<path fill="none" stroke="midnightblue" d="M1489.2,-454.23C1308.84,-449.42 849.47,-434.89 827,-411 817.56,-400.96 817.39,-389.87 827,-380 842.67,-363.9 2235.08,-337.68 2601.48,-331.06"/>
<polygon fill="midnightblue" stroke="midnightblue" points="2601.56,-334.56 2611.5,-330.88 2601.44,-327.56 2601.56,-334.56"/>
</g>
<!-- Node42&#45;&gt;Node12 -->
<g id="edge124" class="edge">
<title>Node42&#45;&gt;Node12</title>
<path fill="none" stroke="midnightblue" d="M1489.36,-454.3C1307,-449.64 837.9,-435.33 815,-411 805.56,-400.97 807.58,-391.61 815,-380 878.82,-280.14 1057,-386.52 1057,-268 1057,-268 1057,-268 1057,-137.5 1057,-99.74 1051.31,-79.33 1081,-56 1116.76,-27.91 1793.94,-14.86 1983.22,-11.75"/>
<polygon fill="midnightblue" stroke="midnightblue" points="1983.48,-15.25 1993.43,-11.58 1983.37,-8.25 1983.48,-15.25"/>
</g>
<!-- Node42&#45;&gt;Node14 -->
<g id="edge123" class="edge">
<title>Node42&#45;&gt;Node14</title>
<path fill="none" stroke="midnightblue" d="M1569.48,-447.23C1577.05,-438.75 1587.6,-425.13 1592,-411 1596.09,-397.84 1597.54,-392.62 1592,-380 1546.08,-275.43 1351.02,-281.77 1419,-190 1443.5,-156.92 1707.58,-104.84 1826.51,-82.85"/>
<polygon fill="midnightblue" stroke="midnightblue" points="1827.33,-86.26 1836.53,-81 1826.06,-79.37 1827.33,-86.26"/>
</g>
<!-- Node42&#45;&gt;Node18 -->
<g id="edge121" class="edge">
<title>Node42&#45;&gt;Node18</title>
<path fill="none" stroke="midnightblue" d="M1599.03,-447.43C1620.48,-440.8 1646.25,-429.51 1663,-411 1693.74,-377.02 1659.03,-341.38 1695,-313 1729.91,-285.46 2000.88,-274.27 2151.25,-270.15"/>
<polygon fill="midnightblue" stroke="midnightblue" points="2151.52,-273.65 2161.42,-269.88 2151.33,-266.65 2151.52,-273.65"/>
</g>
<!-- Node42&#45;&gt;Node29 -->
<g id="edge113" class="edge">
<title>Node42&#45;&gt;Node29</title>
<path fill="none" stroke="midnightblue" d="M1632.62,-449.26C1725.61,-440.49 1892.94,-424.69 2036,-411 2060.5,-408.66 2087.24,-406.08 2111.28,-403.75"/>
<polygon fill="midnightblue" stroke="midnightblue" points="2111.78,-407.22 2121.4,-402.77 2111.11,-400.25 2111.78,-407.22"/>
</g>
<!-- Node42&#45;&gt;Node31 -->
<g id="edge122" class="edge">
<title>Node42&#45;&gt;Node31</title>
<path fill="none" stroke="midnightblue" d="M1632.57,-452.93C1759.26,-447.14 2031.24,-433.19 2260,-411 2490.18,-388.67 2547.04,-376.52 2776,-344 2785.81,-342.61 2796.18,-341.07 2806.32,-339.53"/>
<polygon fill="midnightblue" stroke="midnightblue" points="2806.99,-342.97 2816.35,-338 2805.93,-336.05 2806.99,-342.97"/>
</g>
<!-- Node42&#45;&gt;Node35 -->
<g id="edge125" class="edge">
<title>Node42&#45;&gt;Node35</title>
<path fill="none" stroke="midnightblue" d="M1630.49,-447.44C1655.62,-441.1 1682.37,-430.1 1701,-411 1717.38,-394.21 1722.67,-366.84 1724.33,-348.51"/>
<polygon fill="midnightblue" stroke="midnightblue" points="1727.83,-348.63 1724.96,-338.43 1720.84,-348.2 1727.83,-348.63"/>
</g>
<!-- Node43 -->
<g id="node38" class="node">
<title>Node43</title>
<g id="a_node38"><a xlink:title=" ">
<polygon fill="none" stroke="#bfbfbf" points="836,-386 836,-405 942,-405 942,-386 836,-386"/>
<text text-anchor="middle" x="889" y="-393" font-family="Helvetica,sans-Serif" font-size="10.00">thrust/functional.h</text>
</a>
</g>
</g>
<!-- Node42&#45;&gt;Node43 -->
<g id="edge114" class="edge">
<title>Node42&#45;&gt;Node43</title>
<path fill="none" stroke="midnightblue" d="M1489.22,-454.33C1374.77,-450.85 1144.15,-440.53 951,-411 944.62,-410.02 937.92,-408.74 931.38,-407.34"/>
<polygon fill="midnightblue" stroke="midnightblue" points="931.84,-403.85 921.31,-405.06 930.3,-410.68 931.84,-403.85"/>
</g>
<!-- Node44 -->
<g id="node39" class="node">
<title>Node44</title>
<g id="a_node39"><a xlink:title=" ">
<polygon fill="none" stroke="#bfbfbf" points="960,-386 960,-405 1050,-405 1050,-386 960,-386"/>
<text text-anchor="middle" x="1005" y="-393" font-family="Helvetica,sans-Serif" font-size="10.00">thrust/reduce.h</text>
</a>
</g>
</g>
<!-- Node42&#45;&gt;Node44 -->
<g id="edge115" class="edge">
<title>Node42&#45;&gt;Node44</title>
<path fill="none" stroke="midnightblue" d="M1489.15,-453.34C1391.42,-448.87 1211.39,-437.56 1060,-411 1054.59,-410.05 1048.93,-408.83 1043.39,-407.5"/>
<polygon fill="midnightblue" stroke="midnightblue" points="1044.18,-404.09 1033.63,-405.02 1042.46,-410.87 1044.18,-404.09"/>
</g>
<!-- Node45 -->
<g id="node40" class="node">
<title>Node45</title>
<g id="a_node40"><a xlink:title=" ">
<polygon fill="none" stroke="#bfbfbf" points="1068.5,-386 1068.5,-405 1193.5,-405 1193.5,-386 1068.5,-386"/>
<text text-anchor="middle" x="1131" y="-393" font-family="Helvetica,sans-Serif" font-size="10.00">thrust/device_vector.h</text>
</a>
</g>
</g>
<!-- Node42&#45;&gt;Node45 -->
<g id="edge116" class="edge">
<title>Node42&#45;&gt;Node45</title>
<path fill="none" stroke="midnightblue" d="M1489.46,-448.58C1417.03,-440.69 1301.92,-427.15 1203,-411 1195.65,-409.8 1187.91,-408.39 1180.33,-406.93"/>
<polygon fill="midnightblue" stroke="midnightblue" points="1181,-403.5 1170.52,-405 1179.65,-410.37 1181,-403.5"/>
</g>
<!-- Node46 -->
<g id="node41" class="node">
<title>Node46</title>
<g id="a_node41"><a xlink:title=" ">
<polygon fill="none" stroke="#bfbfbf" points="1211.5,-386 1211.5,-405 1290.5,-405 1290.5,-386 1211.5,-386"/>
<text text-anchor="middle" x="1251" y="-393" font-family="Helvetica,sans-Serif" font-size="10.00">thrust/copy.h</text>
</a>
</g>
</g>
<!-- Node42&#45;&gt;Node46 -->
<g id="edge117" class="edge">
<title>Node42&#45;&gt;Node46</title>
<path fill="none" stroke="midnightblue" d="M1499.42,-447.46C1446.27,-439.6 1367.62,-426.78 1300,-411 1295.92,-410.05 1291.67,-408.95 1287.47,-407.8"/>
<polygon fill="midnightblue" stroke="midnightblue" points="1288.38,-404.42 1277.81,-405.05 1286.46,-411.15 1288.38,-404.42"/>
</g>
<!-- Node47 -->
<g id="node42" class="node">
<title>Node47</title>
<g id="a_node42"><a xlink:title=" ">
<polygon fill="none" stroke="#bfbfbf" points="1308.5,-386 1308.5,-405 1421.5,-405 1421.5,-386 1308.5,-386"/>
<text text-anchor="middle" x="1365" y="-393" font-family="Helvetica,sans-Serif" font-size="10.00">thrust/host_vector.h</text>
</a>
</g>
</g>
<!-- Node42&#45;&gt;Node47 -->
<g id="edge118" class="edge">
<title>Node42&#45;&gt;Node47</title>
<path fill="none" stroke="midnightblue" d="M1532.92,-447.48C1498.71,-437.09 1440.8,-419.51 1402.73,-407.95"/>
<polygon fill="midnightblue" stroke="midnightblue" points="1403.62,-404.56 1393.03,-405.01 1401.58,-411.26 1403.62,-404.56"/>
</g>
<!-- Node48 -->
<g id="node43" class="node">
<title>Node48</title>
<g id="a_node43"><a xlink:title=" ">
<polygon fill="none" stroke="#bfbfbf" points="1439.5,-380.5 1439.5,-410.5 1582.5,-410.5 1582.5,-380.5 1439.5,-380.5"/>
<text text-anchor="start" x="1447.5" y="-398.5" font-family="Helvetica,sans-Serif" font-size="10.00">polyfem/assembler/CUDA</text>
<text text-anchor="middle" x="1511" y="-387.5" font-family="Helvetica,sans-Serif" font-size="10.00">_utilities.cuh</text>
</a>
</g>
</g>
<!-- Node42&#45;&gt;Node48 -->
<g id="edge119" class="edge">
<title>Node42&#45;&gt;Node48</title>
<path fill="none" stroke="midnightblue" d="M1553.84,-447.48C1547.44,-439.87 1537.81,-428.4 1529.29,-418.26"/>
<polygon fill="midnightblue" stroke="midnightblue" points="1531.9,-415.93 1522.78,-410.52 1526.54,-420.43 1531.9,-415.93"/>
</g>
<!-- Node49&#45;&gt;Node4 -->
<g id="edge127" class="edge">
<title>Node49&#45;&gt;Node4</title>
<path fill="none" stroke="midnightblue" d="M2091.29,-503.18C2089.08,-490.69 2085.65,-467.13 2087,-447 2092.96,-357.81 2080.37,-309.12 2153,-257 2273.59,-170.47 2348.85,-280.09 2485,-221 2504.37,-212.59 2504.25,-202.86 2521,-190 2537.96,-176.98 2558.04,-163.38 2573,-153.58"/>
<polygon fill="midnightblue" stroke="midnightblue" points="2575.11,-156.39 2581.59,-148.01 2571.29,-150.52 2575.11,-156.39"/>
</g>
<!-- Node49&#45;&gt;Node9 -->
<g id="edge131" class="edge">
<title>Node49&#45;&gt;Node9</title>
<path fill="none" stroke="midnightblue" d="M2139.16,-510.33C2257.81,-505.69 2566.88,-491.39 2606,-467 2647.66,-441.02 2671.28,-385.72 2681.97,-353.73"/>
<polygon fill="midnightblue" stroke="midnightblue" points="2685.41,-354.44 2685.1,-343.85 2678.74,-352.33 2685.41,-354.44"/>
</g>
<!-- Node49&#45;&gt;Node12 -->
<g id="edge135" class="edge">
<title>Node49&#45;&gt;Node12</title>
<path fill="none" stroke="midnightblue" d="M2064.59,-503.38C2039.77,-495.38 2003.11,-482.4 1973,-467 1885.09,-422.04 1865.36,-405.35 1788,-344 1772.23,-331.5 1773.3,-321.37 1755,-313 1550.34,-219.33 1410.29,-385.81 1257,-221 1206.69,-166.91 1186.26,-109.69 1237,-56 1262.72,-28.78 1814.61,-15.4 1983.39,-11.93"/>
<polygon fill="midnightblue" stroke="midnightblue" points="1983.56,-15.43 1993.48,-11.73 1983.41,-8.43 1983.56,-15.43"/>
</g>
<!-- Node49&#45;&gt;Node14 -->
<g id="edge134" class="edge">
<title>Node49&#45;&gt;Node14</title>
<path fill="none" stroke="midnightblue" d="M2073.93,-503.43C2041.99,-488.36 1976.94,-454.54 1934,-411 1841.45,-317.15 1814.34,-282.73 1786,-154 1783.04,-140.54 1778.83,-134.76 1786,-123 1797.47,-104.18 1818.45,-92.07 1838.07,-84.45"/>
<polygon fill="midnightblue" stroke="midnightblue" points="1839.31,-87.72 1847.54,-81.06 1836.94,-81.13 1839.31,-87.72"/>
</g>
<!-- Node49&#45;&gt;Node18 -->
<g id="edge132" class="edge">
<title>Node49&#45;&gt;Node18</title>
<path fill="none" stroke="midnightblue" d="M2092.26,-503.28C2090.77,-481.08 2089.4,-421.24 2113,-380 2139.36,-333.93 2192.6,-299.2 2224.7,-281.38"/>
<polygon fill="midnightblue" stroke="midnightblue" points="2226.41,-284.43 2233.54,-276.6 2223.08,-278.27 2226.41,-284.43"/>
</g>
<!-- Node49&#45;&gt;Node29 -->
<g id="edge128" class="edge">
<title>Node49&#45;&gt;Node29</title>
<path fill="none" stroke="midnightblue" d="M2099.99,-503.32C2114.34,-485.5 2147.49,-444.32 2168.19,-418.61"/>
<polygon fill="midnightblue" stroke="midnightblue" points="2171.15,-420.53 2174.69,-410.55 2165.69,-416.14 2171.15,-420.53"/>
</g>
<!-- Node49&#45;&gt;Node31 -->
<g id="edge133" class="edge">
<title>Node49&#45;&gt;Node31</title>
<path fill="none" stroke="midnightblue" d="M2139.12,-511.29C2232.67,-509.16 2451.12,-500.67 2631,-467 2717.53,-450.8 2751.35,-464.84 2821,-411 2842.28,-394.55 2856.32,-366.03 2863.72,-347.46"/>
<polygon fill="midnightblue" stroke="midnightblue" points="2867,-348.67 2867.23,-338.08 2860.45,-346.22 2867,-348.67"/>
</g>
<!-- Node49&#45;&gt;Node35 -->
<g id="edge136" class="edge">
<title>Node49&#45;&gt;Node35</title>
<path fill="none" stroke="midnightblue" d="M2046.82,-508.46C1980.24,-502.66 1861.31,-489.47 1825,-467 1777.85,-437.82 1746.05,-377.43 1732.46,-347.34"/>
<polygon fill="midnightblue" stroke="midnightblue" points="1735.62,-345.83 1728.42,-338.06 1729.21,-348.63 1735.62,-345.83"/>
</g>
<!-- Node49&#45;&gt;Node39 -->
<g id="edge129" class="edge">
<title>Node49&#45;&gt;Node39</title>
<path fill="none" stroke="midnightblue" d="M2134.51,-503.44C2180.41,-493.98 2254.38,-478.74 2303.83,-468.55"/>
<polygon fill="midnightblue" stroke="midnightblue" points="2304.59,-471.96 2313.68,-466.52 2303.18,-465.11 2304.59,-471.96"/>
</g>
<!-- Node49&#45;&gt;Node42 -->
<g id="edge130" class="edge">
<title>Node49&#45;&gt;Node42</title>
<path fill="none" stroke="midnightblue" d="M2046.72,-507.3C1956.42,-498.14 1755.68,-477.76 1642.57,-466.28"/>
<polygon fill="midnightblue" stroke="midnightblue" points="1642.88,-462.79 1632.58,-465.27 1642.17,-469.76 1642.88,-462.79"/>
</g>
<!-- Node50&#45;&gt;Node4 -->
<g id="edge138" class="edge">
<title>Node50&#45;&gt;Node4</title>
<path fill="none" stroke="midnightblue" d="M3645.3,-385.88C3597.15,-360.95 3453.96,-286.39 3337,-221 3313.18,-207.68 3310.06,-198.09 3284,-190 3179.31,-157.48 2901.33,-162.02 2792,-154 2750.89,-150.98 2704.95,-147.6 2667.79,-144.86"/>
<polygon fill="midnightblue" stroke="midnightblue" points="2667.78,-141.35 2657.55,-144.11 2667.26,-148.34 2667.78,-141.35"/>
</g>
<!-- Node50&#45;&gt;Node9 -->
<g id="edge139" class="edge">
<title>Node50&#45;&gt;Node9</title>
<path fill="none" stroke="midnightblue" d="M3639.93,-385.91C3633.01,-383.57 3625.28,-381.33 3618,-380 3252.76,-313.34 3150.34,-381.64 2776.73,-343.97"/>
<polygon fill="midnightblue" stroke="midnightblue" points="2777.03,-340.48 2766.72,-342.94 2776.31,-347.44 2777.03,-340.48"/>
</g>
<!-- Node50&#45;&gt;Node12 -->
<g id="edge142" class="edge">
<title>Node50&#45;&gt;Node12</title>
<path fill="none" stroke="midnightblue" d="M3665.19,-385.63C3674.51,-358.94 3701,-276.83 3701,-206.5 3701,-206.5 3701,-206.5 3701,-137.5 3701,-47.25 3603.05,-75.84 3515,-56 3372.71,-23.93 2321.23,-13.38 2080.85,-11.38"/>
<polygon fill="midnightblue" stroke="midnightblue" points="2080.7,-7.88 2070.67,-11.29 2080.64,-14.88 2080.7,-7.88"/>
</g>
<!-- Node50&#45;&gt;Node15 -->
<g id="edge143" class="edge">
<title>Node50&#45;&gt;Node15</title>
<path fill="none" stroke="midnightblue" d="M3662.86,-385.62C3665.97,-348.31 3672.88,-202.59 3601,-123 3573.46,-92.51 3527.01,-80.4 3492.88,-75.61"/>
<polygon fill="midnightblue" stroke="midnightblue" points="3493.07,-72.11 3482.72,-74.34 3492.21,-79.05 3493.07,-72.11"/>
</g>
<!-- Node50&#45;&gt;Node18 -->
<g id="edge140" class="edge">
<title>Node50&#45;&gt;Node18</title>
<path fill="none" stroke="midnightblue" d="M3638.47,-385.88C3631.91,-383.72 3624.74,-381.57 3618,-380 3407.76,-331.14 3351.88,-333.38 3137,-313 2852.59,-286.02 2515.17,-274.51 2350.88,-270.22"/>
<polygon fill="midnightblue" stroke="midnightblue" points="2350.88,-266.72 2340.79,-269.96 2350.7,-273.72 2350.88,-266.72"/>
</g>
<!-- Node50&#45;&gt;Node31 -->
<g id="edge141" class="edge">
<title>Node50&#45;&gt;Node31</title>
<path fill="none" stroke="midnightblue" d="M3639.45,-385.87C3632.65,-383.59 3625.1,-381.39 3618,-380 3495.8,-356.13 3138.5,-339.74 2965.73,-332.97"/>
<polygon fill="midnightblue" stroke="midnightblue" points="2965.76,-329.47 2955.63,-332.58 2965.49,-336.47 2965.76,-329.47"/>
</g>
<!-- Node51&#45;&gt;Node4 -->
<g id="edge145" class="edge">
<title>Node51&#45;&gt;Node4</title>
<path fill="none" stroke="midnightblue" d="M3752.21,-385.8C3699.32,-352.92 3503.39,-235.89 3324,-190 3094.41,-131.26 3028.4,-170.7 2792,-154 2750.88,-151.1 2704.95,-147.72 2667.78,-144.96"/>
<polygon fill="midnightblue" stroke="midnightblue" points="2667.77,-141.45 2657.54,-144.2 2667.26,-148.43 2667.77,-141.45"/>
</g>
<!-- Node51&#45;&gt;Node9 -->
<g id="edge146" class="edge">
<title>Node51&#45;&gt;Node9</title>
<path fill="none" stroke="midnightblue" d="M3735.7,-385.94C3726.26,-383.61 3715.77,-381.36 3706,-380 3299.59,-323.6 3189.27,-385.08 2776.83,-343.98"/>
<polygon fill="midnightblue" stroke="midnightblue" points="2777.02,-340.48 2766.72,-342.95 2776.32,-347.44 2777.02,-340.48"/>
</g>
<!-- Node51&#45;&gt;Node12 -->
<g id="edge149" class="edge">
<title>Node51&#45;&gt;Node12</title>
<path fill="none" stroke="midnightblue" d="M3777.54,-385.75C3808.48,-361.18 3891,-288.03 3891,-206.5 3891,-206.5 3891,-206.5 3891,-137.5 3891,-7.89 3739.04,-76.12 3611,-56 3305.49,-7.99 2312.75,-9.65 2080.79,-10.72"/>
<polygon fill="midnightblue" stroke="midnightblue" points="2080.62,-7.22 2070.64,-10.77 2080.65,-14.22 2080.62,-7.22"/>
</g>
<!-- Node51&#45;&gt;Node15 -->
<g id="edge150" class="edge">
<title>Node51&#45;&gt;Node15</title>
<path fill="none" stroke="midnightblue" d="M3764.4,-385.87C3756.82,-347.7 3720.91,-192.95 3625,-123 3585.77,-94.39 3530.63,-81.93 3492.79,-76.54"/>
<polygon fill="midnightblue" stroke="midnightblue" points="3492.98,-73.04 3482.6,-75.2 3492.06,-79.98 3492.98,-73.04"/>
</g>
<!-- Node51&#45;&gt;Node18 -->
<g id="edge147" class="edge">
<title>Node51&#45;&gt;Node18</title>
<path fill="none" stroke="midnightblue" d="M3732.46,-385.93C3723.86,-383.86 3714.61,-381.75 3706,-380 3526.77,-343.61 3481.91,-331.84 3300,-313 2952.6,-277.02 2537.61,-269.69 2350.8,-268.28"/>
<polygon fill="midnightblue" stroke="midnightblue" points="2350.75,-264.78 2340.72,-268.21 2350.7,-271.78 2350.75,-264.78"/>
</g>
<!-- Node51&#45;&gt;Node31 -->
<g id="edge148" class="edge">
<title>Node51&#45;&gt;Node31</title>
<path fill="none" stroke="midnightblue" d="M3735.37,-385.99C3726.01,-383.69 3715.64,-381.45 3706,-380 3439.88,-340.13 3121.64,-331.51 2965.7,-329.8"/>
<polygon fill="midnightblue" stroke="midnightblue" points="2965.7,-326.3 2955.67,-329.7 2965.63,-333.3 2965.7,-326.3"/>
</g>
<!-- Node52&#45;&gt;Node4 -->
<g id="edge152" class="edge">
<title>Node52&#45;&gt;Node4</title>
<path fill="none" stroke="midnightblue" d="M3355.45,-447.19C3355.86,-432.63 3355.34,-402.88 3346,-380 3300.25,-267.98 3265.06,-230.4 3151,-190 3128.57,-182.05 2813.27,-156.57 2667.7,-145.14"/>
<polygon fill="midnightblue" stroke="midnightblue" points="2667.77,-141.64 2657.52,-144.34 2667.22,-148.62 2667.77,-141.64"/>
</g>
<!-- Node52&#45;&gt;Node9 -->
<g id="edge154" class="edge">
<title>Node52&#45;&gt;Node9</title>
<path fill="none" stroke="midnightblue" d="M3279.85,-450.45C3153.09,-440.87 2906.72,-421.29 2868,-411 2814.38,-396.75 2756.72,-367.76 2721.74,-348.48"/>
<polygon fill="midnightblue" stroke="midnightblue" points="2723.37,-345.38 2712.93,-343.56 2719.96,-351.49 2723.37,-345.38"/>
</g>
<!-- Node52&#45;&gt;Node12 -->
<g id="edge157" class="edge">
<title>Node52&#45;&gt;Node12</title>
<path fill="none" stroke="midnightblue" d="M3430.1,-447.88C3433.1,-447.58 3436.08,-447.28 3439,-447 3530.25,-438.12 3769.69,-455.23 3850,-411 3920,-372.45 3959,-347.91 3959,-268 3959,-268 3959,-268 3959,-137.5 3959,-41.1 3852.37,-75.68 3758,-56 3590.14,-20.99 2343.43,-12.61 2080.57,-11.23"/>
<polygon fill="midnightblue" stroke="midnightblue" points="2080.58,-7.73 2070.56,-11.18 2080.55,-14.73 2080.58,-7.73"/>
</g>
<!-- Node52&#45;&gt;Node15 -->
<g id="edge158" class="edge">
<title>Node52&#45;&gt;Node15</title>
<path fill="none" stroke="midnightblue" d="M3430.1,-447.9C3433.11,-447.59 3436.08,-447.29 3439,-447 3481.97,-442.7 3796.91,-442.92 3826,-411 3926.27,-300.97 3780.93,-202.39 3655,-123 3604.91,-91.42 3536.4,-79.59 3492.67,-75.15"/>
<polygon fill="midnightblue" stroke="midnightblue" points="3492.93,-71.66 3482.65,-74.22 3492.28,-78.63 3492.93,-71.66"/>
</g>
<!-- Node52&#45;&gt;Node18 -->
<g id="edge155" class="edge">
<title>Node52&#45;&gt;Node18</title>
<path fill="none" stroke="midnightblue" d="M3353.86,-447.39C3351.28,-431.45 3343.44,-397.41 3322,-380 3260.36,-329.95 3223.96,-363.57 3147,-344 3101.08,-332.33 3091.65,-321.29 3045,-313 2914.58,-289.83 2533.63,-276.11 2350.96,-270.69"/>
<polygon fill="midnightblue" stroke="midnightblue" points="2350.91,-267.19 2340.81,-270.4 2350.7,-274.19 2350.91,-267.19"/>
</g>
<!-- Node52&#45;&gt;Node29 -->
<g id="edge153" class="edge">
<title>Node52&#45;&gt;Node29</title>
<path fill="none" stroke="midnightblue" d="M3279.85,-450.15C3264.36,-449.03 3248.16,-447.92 3233,-447 2868.75,-424.78 2432.73,-406.39 2260.87,-399.46"/>
<polygon fill="midnightblue" stroke="midnightblue" points="2260.8,-395.95 2250.67,-399.05 2260.52,-402.95 2260.8,-395.95"/>
</g>
<!-- Node52&#45;&gt;Node31 -->
<g id="edge156" class="edge">
<title>Node52&#45;&gt;Node31</title>
<path fill="none" stroke="midnightblue" d="M3327.61,-447.47C3280.1,-432.81 3179.22,-402.25 3093,-380 3034.4,-364.88 2966.5,-349.86 2921.16,-340.18"/>
<polygon fill="midnightblue" stroke="midnightblue" points="2921.79,-336.73 2911.28,-338.08 2920.33,-343.58 2921.79,-336.73"/>
</g>
<!-- Node53&#45;&gt;Node16 -->
<g id="edge164" class="edge">
<title>Node53&#45;&gt;Node16</title>
<path fill="none" stroke="midnightblue" d="M271.42,-386C374.49,-363.35 665.85,-300.31 910,-257 1054.65,-231.34 1420.77,-190.75 1563,-154 1602.34,-143.84 1609.43,-132.22 1649,-123 1669.29,-118.27 1964.57,-86.74 2065.48,-76.04"/>
<polygon fill="midnightblue" stroke="midnightblue" points="2065.87,-79.52 2075.45,-74.99 2065.13,-72.56 2065.87,-79.52"/>
</g>
<!-- Node53&#45;&gt;Node17 -->
<g id="edge165" class="edge">
<title>Node53&#45;&gt;Node17</title>
<path fill="none" stroke="midnightblue" d="M324.26,-387.7C728.57,-357.52 2343.11,-236.54 2450,-221 2575.43,-202.76 2721.37,-167.56 2790.59,-150"/>
<polygon fill="midnightblue" stroke="midnightblue" points="2791.8,-153.3 2800.63,-147.44 2790.07,-146.51 2791.8,-153.3"/>
</g>
<!-- Node53&#45;&gt;Node35 -->
<g id="edge163" class="edge">
<title>Node53&#45;&gt;Node35</title>
<path fill="none" stroke="midnightblue" d="M324.09,-390.53C615.18,-377.85 1514.4,-338.67 1693.71,-330.86"/>
<polygon fill="midnightblue" stroke="midnightblue" points="1693.95,-334.36 1703.78,-330.42 1693.64,-327.36 1693.95,-334.36"/>
</g>
<!-- Node54 -->
<g id="node49" class="node">
<title>Node54</title>
<g id="a_node49"><a xlink:title=" ">
<polygon fill="none" stroke="#bfbfbf" points="207,-319 207,-338 259,-338 259,-319 207,-319"/>
<text text-anchor="middle" x="233" y="-326" font-family="Helvetica,sans-Serif" font-size="10.00">cassert</text>
</a>
</g>
</g>
<!-- Node53&#45;&gt;Node54 -->
<g id="edge166" class="edge">
<title>Node53&#45;&gt;Node54</title>
<path fill="none" stroke="midnightblue" d="M233,-385.73C233,-376.18 233,-360.62 233,-348.28"/>
<polygon fill="midnightblue" stroke="midnightblue" points="236.5,-348.13 233,-338.13 229.5,-348.13 236.5,-348.13"/>
</g>
<!-- Node55&#45;&gt;Node2 -->
<g id="edge173" class="edge">
<title>Node55&#45;&gt;Node2</title>
<path fill="none" stroke="midnightblue" d="M468.59,-671.32C457.89,-663.18 441.66,-650.84 428.84,-641.09"/>
<polygon fill="midnightblue" stroke="midnightblue" points="430.69,-638.1 420.61,-634.83 426.46,-643.67 430.69,-638.1"/>
</g>
<!-- Node55&#45;&gt;Node3 -->
<g id="edge174" class="edge">
<title>Node55&#45;&gt;Node3</title>
<path fill="none" stroke="midnightblue" d="M550.32,-679.53C951.51,-676.78 2937.79,-661.84 3064,-635 3111.93,-624.8 3163.59,-599.54 3192.95,-583.68"/>
<polygon fill="midnightblue" stroke="midnightblue" points="3194.93,-586.58 3202.01,-578.69 3191.56,-580.45 3194.93,-586.58"/>
</g>
<!-- Node55&#45;&gt;Node31 -->
<g id="edge175" class="edge">
<title>Node55&#45;&gt;Node31</title>
<path fill="none" stroke="midnightblue" d="M550.07,-678.88C961.97,-672.08 3050,-634.41 3050,-570 3050,-570 3050,-570 3050,-512 3050,-452.03 3061.97,-424.71 3022,-380 3008.18,-364.54 2958.85,-349.95 2920.1,-340.47"/>
<polygon fill="midnightblue" stroke="midnightblue" points="2920.53,-336.97 2909.99,-338.05 2918.9,-343.78 2920.53,-336.97"/>
</g>
</g>
</svg>
